<?xml version="1.0" encoding="UTF-8" standalone="no"?>
<svg viewBox="0 0 267 151" xmlns="http://www.w3.org/2000/svg" xmlns:xlink="http://www.w3.org/1999/xlink" xml:space="preserve" style="fill-rule:evenodd;clip-rule:evenodd;stroke-miterlimit:10">
  <defs>
    <path d="M0 1.752h-4.455a.331.331 0 0 1-.332-.332V.332c0-.184.148-.332.332-.332H0c.184 0 .332.148.332.332V1.42A.331.331 0 0 1 0 1.752" style="fill:#8cc44a;fill-rule:nonzero" id="reuse-0"/>
    <path d="M0 5.731a.57.57 0 0 1-.569-.569V.569a.569.569 0 1 1 1.138 0v4.593A.57.57 0 0 1 0 5.731" style="fill:#58424e;fill-rule:nonzero" id="reuse-1"/>
    <path d="M0 5.731a.57.57 0 0 1-.569-.569V.569a.569.569 0 1 1 1.137 0v4.593A.57.57 0 0 1 0 5.731" style="fill:#58424e;fill-rule:nonzero" id="reuse-2"/>
    <path d="M0 0h56.46" style="fill:none;fill-rule:nonzero;stroke:#b9dc94;stroke-width:.5px" id="reuse-3"/>
    <path d="M-13.027-13.027h26.054" style="fill:none;fill-rule:nonzero;stroke:#b9dc94;stroke-width:.5px" id="reuse-4"/>
    <path d="m0 .358 1.408 1.408 3.175-3.174" style="fill:none;fill-rule:nonzero;stroke:#58424e;stroke-width:1px;stroke-linecap:round;stroke-linejoin:round" id="reuse-5"/>
  </defs>
  <path style="fill:none" d="M0 0h266v150H0z" transform="translate(.25 .5)"/>
  <use xlink:href="#a" x="49.478" y="136.107" width="211.196" height="15.038" transform="scale(.9962 .93988)"/>
  <path d="m0-.066.171.095v-.124L0-.066Z" style="fill:#c8c1c5;fill-rule:nonzero" transform="translate(155.42 106.516)"/>
  <path d="M19.078-44.662H41.05L8.763-3.353l-34.927 1.562 45.242-42.871Z" style="fill:#fff;fill-rule:nonzero" transform="scale(-1 1) rotate(-10.725 627.205 1318.632)"/>
  <path d="M18.372-43.224H39.03L7.667-3.135l-32.393 1.406 43.098-41.495Z" style="fill:#eceaeb;fill-rule:nonzero" transform="scale(-1 1) rotate(-10.752 618.903 1306.756)"/>
  <path d="m0-12.52 2.278 4.415 8.866 6.9.774.605.514.017L31.028 0l-5.862-8.271L0-12.52Z" style="fill:#b9dc94;fill-rule:nonzero" transform="translate(214.895 124.941)"/>
  <path d="m0 3.274.235.456.189-.019c7.342-.75 13.014-1.972 16.973-3.608l-.396-.559C13.113 1.238 7.426 2.501 0 3.274" style="fill:#f2f2f2;fill-rule:nonzero" transform="translate(208.197 96.16)"/>
  <path d="m0 6.445.794.603.515.018.513.017-.805-.607-9.451-7.114.592 1.147L0 6.445Z" style="fill:#f2f2f2;fill-rule:nonzero" transform="translate(225.505 117.275)"/>
  <path d="M-22.011-6.654h.576l18 18.015-.496.072-18.08-18.087Z" style="fill:#f2f2f2;fill-rule:nonzero" transform="scale(-1 1) rotate(-54.601 -11.426 266.514)"/>
  <path d="M-7.571-2.927h2.065C-4.947-1.892-3.046-.821-.188.254l-.591.754C-4.768-.402-7.028-1.72-7.571-2.927" style="fill:#f5956c;fill-rule:nonzero" transform="scale(-1 1) rotate(-10.749 386.553 1132.013)"/>
  <path d="m0-6.356-.237-.076.405.787c5.269 1.66 11.306 3.332 17.476 4.586 2.151.437 4.311.821 6.447 1.135l-.558-.786C15.467-1.867 7.008-4.134 0-6.356" style="fill:#f48656;fill-rule:nonzero" transform="translate(208.621 106.228)"/>
  <path d="m0-.395-18.985-.601-.483-.014-.534-.017-4.859-.154.612 1.187L.837.786 0-.395Z" style="fill:#f48656;fill-rule:nonzero" transform="translate(245.507 124.747)"/>
  <path d="M-7.083-1.735h9.659L.809.593l-10.618.02 2.726-2.348Z" style="fill:#b5abb1;fill-rule:nonzero" transform="scale(-1 1) rotate(-9.89 534.225 1299.879)"/>
  <path d="M-8.97 2.282h7.407L.199.781-7.084.773-8.97 2.282Z" style="fill:#b5abb1;fill-rule:nonzero" transform="scale(-1 1) rotate(-9.952 519.619 1341.1)"/>
  <path d="m0 1.443 1.077 1.519-9.954-.26-5.774-4.221 10.821.306L0 1.443Z" style="fill:#b5abb1;fill-rule:nonzero" transform="translate(249.213 128.137)"/>
  <path d="M-13.214 4.259h7.635L.055.171l-7.433.017-5.836 4.071Z" style="fill:#b5abb1;fill-rule:nonzero" transform="scale(-1 1) rotate(-1.486 4752.837 8768.95)"/>
  <path d="M3.771-4.129h1.761L3.274-.041-1.82-.054l5.591-4.075Z" style="fill:#b5abb1;fill-rule:nonzero" transform="scale(-1 1) rotate(-1.626 4484.896 8077.574)"/>
  <path d="M-4.338-39.06H46.97l.464 34.252-51.038-11.621-.734-22.631Z" style="fill:#fff;fill-rule:nonzero" transform="scale(1 -1) rotate(-75.422 52.941 -185.632)"/>
  <path d="M-3.847-38.214H45.96l.475 34.015-49.551-11.28-.731-22.735Z" style="fill:#eceaeb;fill-rule:nonzero" transform="scale(1 -1) rotate(-75.422 52.411 -185.187)"/>
  <path d="m0-1.806.341.157 1.562.722 4.83 2.225L4.45-3.104 0-1.806Z" style="fill:#b9dc94;fill-rule:nonzero" transform="translate(210.521 115.548)"/>
  <path d="M-2.84-3.321h1.142l-13.438 15.935-.206-.997L-2.84-3.321Z" style="fill:#f2f2f2;fill-rule:nonzero" transform="scale(1 -1) rotate(26.296 359.629 379.408)"/>
  <path d="M0-11.849c-.204.122-.409.242-.619.365l.395.062.048.008-.457-.063C-5.815-8.299-12.761-4.626-22.353-.045l.126.483C-12.3-4.303-5.146-8.089.169-11.359c.005-.001.009-.004.014-.007l.787-.466-.236-.455c-.245.146-.486.292-.734.438" style="fill:#f2f2f2;fill-rule:nonzero" transform="translate(207.522 111.779)"/>
  <path d="m0-2.174.068-.021 4.225-1.234-.231-.444-5.193 1.514c-.177.051-.319.133-.378.216-.064.085-.036.161.071.208l8.389 3.634L6.357.554 1.631-1.474 0-2.174Z" style="fill:#f2f2f2;fill-rule:nonzero" transform="translate(210.794 116.095)"/>
  <path d="m0 3.057.358-.186-.431-.079L-15.258 0l-.581.132L-.407 2.981 0 3.057Z" style="fill:#f2f2f2;fill-rule:nonzero" transform="translate(198.779 93.063)"/>
  <path d="M-1.075-.035H.049L-.13.267h-.6l-.345-.302Z" style="fill:#f2f2f2;fill-rule:nonzero" transform="scale(-1 1) rotate(-16.113 272.876 697.857)"/>
  <path d="M0 2.835c-7.367.608-13.094.546-15.425.482l-.034-.002h.001C-10.09.572-5.802-1.84-2.546-3.929l-.439-.848c-5.04 3.348-12.692 7.354-21.421 11.519l.226.87a382.136 382.136 0 0 0 7.11-3.477l.028.001c1.938.079 7.711.228 15.456-.35a126.383 126.383 0 0 0 2.913-.245l-.406-.785c-.31.027-.618.055-.921.079" style="fill:#f48656;fill-rule:nonzero" transform="translate(207.522 97.095)"/>
  <path d="M17.108-9.566h1.444l-6.393 31.737-1.299-.298 6.248-31.439Z" style="fill:#f48656;fill-rule:nonzero" transform="scale(1 -1) rotate(-75.444 21.789 -186.507)"/>
  <path d="M-.262-1.429h3.139l.339.744-2.847.641-.631-1.385Z" style="fill:#b5abb1;fill-rule:nonzero" transform="scale(1 -1) rotate(-49.909 -10.26 -283.148)"/>
  <path d="M0-1.943.505 0l2.414-1.089L0-1.943Z" style="fill:#b5abb1;fill-rule:nonzero" transform="translate(181.82 100.795)"/>
  <path d="m0-1.173-2.631-.77-3.188 1.445.221.854 1.353.414L0-1.173Z" style="fill:#b5abb1;fill-rule:nonzero" transform="translate(188.309 101.922)"/>
  <path d="M1.643-3.207h5.914l6.315 8.71-3.801 2.695L1.643-3.207Z" style="fill:#b5abb1;fill-rule:nonzero" transform="scale(1 -1) rotate(-27.271 -161.002 -496.095)"/>
  <path d="m0 .772-5.896-2.485-2.113.943.407 1.565 3.858 1.69L0 .772Z" style="fill:#b5abb1;fill-rule:nonzero" transform="translate(193.451 113.55)"/>
  <path d="M-9.147 1.213h5.929L-.3-2.1l-5.848.039-2.999 3.274Z" style="fill:#b5abb1;fill-rule:nonzero" transform="scale(-1 1) rotate(25.109 -361.447 -369.761)"/>
  <path d="m0-.139.155.16.048-.181L0-.139Z" style="fill:#c8c1c5;fill-rule:nonzero" transform="translate(128.99 101.243)"/>
  <path d="M-29.69-31.59h62.335L5.106-7.729l-51.18-7.554L-29.69-31.59Z" style="fill:#fff;fill-rule:nonzero" transform="scale(-1 1) rotate(54.475 -177.824 -23.923)"/>
  <path d="M-28.722-30.374h59.789L5.776-8.025-43.99-14.94l15.268-15.434Z" style="fill:#eceaeb;fill-rule:nonzero" transform="scale(-1 1) rotate(54.962 -175.71 -24.707)"/>
  <path d="m0-4.739-.992.168L1.434-.248 1.575 0l.988-.264-.143-.247L0-4.739Z" style="fill:#f2f2f2;fill-rule:nonzero" transform="translate(102.452 94.446)"/>
  <path d="M20.902-10.358h.745L5.303 10.95l-.667-.092 16.266-21.216Z" style="fill:#f2f2f2;fill-rule:nonzero" transform="scale(-1 1) rotate(54.901 -153.18 -21.457)"/>
  <path d="M0 7.372 24.644.646 24.918 0l-.644.175-.988.268L.525 6.621 0 7.372Z" style="fill:#f48656;fill-rule:nonzero" transform="translate(80.644 93.623)"/>
  <path d="M20.986-7.671h1.107L3.823 11.04l-.943-.131 18.106-18.58Z" style="fill:#f48656;fill-rule:nonzero" transform="scale(-1 1) rotate(54.932 -141.767 -36.854)"/>
  <path d="m0 2.27 1.813-.097L2.927 0 0 2.27Z" style="fill:#b5abb1;fill-rule:nonzero" transform="translate(87.419 123.37)"/>
  <path d="M-.098.411h10.801l4.768 3.281-10.496.015L-.098.411Z" style="fill:#b5abb1;fill-rule:nonzero" transform="scale(1 -1) rotate(3.046 2420.112 1351.96)"/>
  <path d="M0-5.709-3.579-1.53-11.975 0l1.683-2.117-11.652 1.86 1.547-2.207L0-5.709Z" style="fill:#b5abb1;fill-rule:nonzero" transform="translate(91.09 117.651)"/>
  <path d="M-5.477.262h5.355l.081-1.017-5.31.013-.126 1.004Z" style="fill:#b5abb1;fill-rule:nonzero" transform="scale(-1 1) rotate(15.212 -413.851 -318.884)"/>
  <path style="fill:#b5abb1" d="M-5.613-.773h5.572V.261h-5.572z" transform="scale(-1 1) rotate(15.204 -417.68 -290.207)"/>
  <path style="fill:#b5abb1" d="M-5.757-.795h5.716V.259h-5.716z" transform="scale(-1 1) rotate(15.199 -421.577 -260.335)"/>
  <path d="M-25.125-39.298h51.753l-7.71 33.759-49.938-11.44 5.895-22.319Z" style="fill:#fff;fill-rule:nonzero" transform="scale(-1 1) rotate(62.735 -171.384 -43.707)"/>
  <path d="M-23.905-38.591h50.247L18.648-5.109-29.821-16.17l5.916-22.421Z" style="fill:#eceaeb;fill-rule:nonzero" transform="scale(-1 1) rotate(62.734 -170.43 -43.974)"/>
  <path d="M0-18.223c.096.167.158.33.206.475.144.433.216.883.099 1.276-.181.601-.791 1.107-1.623 1.502-.828.392-1.951.607-3.361.642-.428.009-.874.001-1.326-.017L2.328 0l4.563-17.823-6.891-.4Z" style="fill:#b9dc94;fill-rule:nonzero" transform="translate(118.613 131.976)"/>
  <path d="m0 5.823-21.248-1.564-9.924-4.943-.314.609 9.682 4.84c.079.04.177.075.271.098.088.023.171.037.258.043L.364 6.49l.218.017.161-.628L0 5.823Z" style="fill:#f2f2f2;fill-rule:nonzero" transform="translate(120.038 126.721)"/>
  <path d="M0-8.062c-.172-.018-.314 0-.379.047l-6.5 4.711 1.019.334L.495-7.628l7.316.741 4.948 6.864.531.041-4.968-6.853 9.333.945.096-.371L0-8.062Z" style="fill:#f2f2f2;fill-rule:nonzero" transform="translate(110.974 107.838)"/>
  <path d="M15.978-13.336h.732L8.054 9.887l-.668-.153 8.592-23.07Z" style="fill:#f48656;fill-rule:nonzero" transform="scale(-1 1) rotate(62.734 -132.531 -59.536)"/>
  <path d="M0-8.279c-5.14-1.236-8.529-3.79-7.619-5.647.882-1.8 5.504-2.297 10.362-1.154 4.885 1.151 8.414 3.586 7.812 5.477C9.933-7.651 5.17-7.036 0-8.279m12.037-3.275c-1.552-1.712-4.878-3.382-8.965-4.341-4.98-1.17-9.754-.968-11.939.371l-.728-.219-.433.841.327.099a1.88 1.88 0 0 0-.214.33c-1.192 2.327 3.039 5.556 9.54 7.125 1.831.442 3.636.699 5.293.78l7.858 14.409.365.667.151.278.784-3.061L7.18-6.565c3.094-.164 5.308-1.038 5.736-2.477.142-.476.078-.98-.169-1.492 1.091.086 2.941.228 5.389.403l.243-.95a911.54 911.54 0 0 1-6.342-.473" style="fill:#f48656;fill-rule:nonzero" transform="translate(107.262 124.703)"/>
  <path d="m0 7.393-14.13-1.1-1.654-3.692 7.316.644L-9.813 0l6.353.544 1.632 3.286.061.006L0 7.393Z" style="fill:#b5abb1;fill-rule:nonzero" transform="translate(115.986 123.529)"/>
  <path d="M0-2.337 1.122-.76l4.57.458.237.302.431-1.684L0-2.337Z" style="fill:#b5abb1;fill-rule:nonzero" transform="translate(122.147 104.111)"/>
  <path d="M-6.431 1.904h5.483L.099.335l-5.41.003-1.12 1.566Z" style="fill:#b5abb1;fill-rule:nonzero" transform="scale(-1 1) rotate(-5.957 908.844 1136.022)"/>
  <path d="m0-.087-.499-.759-5.184-.552.981 1.586 4.331.459.401.616.466.048.336-1.31L0-.087Z" style="fill:#b5abb1;fill-rule:nonzero" transform="translate(128.286 100.04)"/>
  <path d="m0 .779-6.328-2.974-1.619.751L-9.082.758l4.615 2.216L0 .779Z" style="fill:#b5abb1;fill-rule:nonzero" transform="translate(98.313 124.57)"/>
  <path d="M.332-2.474H2.02L4.572.381l-.825.962L.332-2.474Z" style="fill:#b5abb1;fill-rule:nonzero" transform="scale(1 -1) rotate(-54.991 -28.292 -169.165)"/>
  <path d="M-6.88 1.652h6.408L.098.408l-6.335.003-.643 1.241Z" style="fill:#b5abb1;fill-rule:nonzero" transform="scale(-1 1) rotate(-6.793 741.323 935.47)"/>
  <path d="M-10.317 1.888h9.541L.115.627l-9.433.004-.999 1.257Z" style="fill:#b5abb1;fill-rule:nonzero" transform="scale(-1 1) rotate(-6.953 724.996 981.964)"/>
  <path d="M-8.541-46.123h46.23l8.498 37.57-49.616-12.831-5.112-24.739Z" style="fill:#fff;fill-rule:nonzero" transform="matrix(.00138 1 1 -.00138 201.7 96.716)"/>
  <path d="M-7.961-45.283h44.883l8.423 37.311-48.166-12.459-5.14-24.852Z" style="fill:#eceaeb;fill-rule:nonzero" transform="matrix(.00138 1 1 -.00138 200.86 96.552)"/>
  <path d="M0-13.733.018-1.187 15.847 0 0-13.733Z" style="fill:#b9dc94;fill-rule:nonzero" transform="translate(155.593 121.376)"/>
  <path d="m0-22.954-4.681-3.845.001.863 3.829 3.166c.004.003.003.004.007.008l11.056 10.018-14.875-1.12.001.543 15.519 1.161L28.472 3.799l1.338.046-28.733-25.85.082.004-.542-.445c7.381.348 13.91.602 19.713.766l5.722 4.332-.257-.985-4.405-3.317a656.9 656.9 0 0 0 3.564.085l-.125-.484c-7-.145-15.185-.444-24.829-.905" style="fill:#f2f2f2;fill-rule:nonzero" transform="translate(160.272 133.782)"/>
  <path d="M11.8-7.685h.452L-.571-.183l.098-.338L11.8-7.685Z" style="fill:#f2f2f2;fill-rule:nonzero" transform="scale(-1 1) rotate(-1.774 3254.87 5941.165)"/>
  <path d="m0-1.873.001.851A934.4 934.4 0 0 0 12.4-.44c5.574.222 10.665.368 15.289.44l-.226-.871C18.661-1.001 9.067-1.394 0-1.873" style="fill:#f48656;fill-rule:nonzero" transform="translate(155.586 104.714)"/>
  <path d="M-12.392.806h7.025l5.449.453-.119.578L-12.392.806Z" style="fill:#f5956c;fill-rule:nonzero" transform="scale(-1 1) rotate(-11.604 354.567 811.069)"/>
  <path d="m0-.731-1.335-.048-18.929-.689 7.46 1.674L2.334.737 1.971-.659 0-.731Z" style="fill:#f48656;fill-rule:nonzero" transform="translate(189.825 138.129)"/>
  <path d="M0 4.063-4.536.945-24.248 0v.12l3.992 3.042L0 4.063Z" style="fill:#b5abb1;fill-rule:nonzero" transform="translate(179.829 99.069)"/>
  <path d="M-9.328 2.973h4.866L.054.17l-4.786.018-4.596 2.785Z" style="fill:#b5abb1;fill-rule:nonzero" transform="scale(-1 1) rotate(-2.084 2553.332 4576.6)"/>
  <path d="M-9.162 2.845h4.683L.053.171l-4.609.018-4.606 2.656Z" style="fill:#b5abb1;fill-rule:nonzero" transform="scale(-1 1) rotate(-2.141 2430.978 4589.177)"/>
  <path d="m0-2.724-4.692-.172 4.685 3 2.032.068-.504-1.943L0-2.724Z" style="fill:#b5abb1;fill-rule:nonzero" transform="translate(180.232 100.632)"/>
  <path d="M0-.891 1.391 0l-.222-.854L0-.891Z" style="fill:#b5abb1;fill-rule:nonzero" transform="translate(181.253 102.285)"/>
  <path d="M-8.273 3.277h4.556L.095.24l-4.467.013-3.901 3.024Z" style="fill:#b5abb1;fill-rule:nonzero" transform="scale(-1 1) rotate(-3.322 1852.557 2901.2)"/>
  <path d="M0-1.645 2.182 0l-.408-1.564L0-1.645Z" style="fill:#b5abb1;fill-rule:nonzero" transform="translate(183.599 114.343)"/>
  <path d="M-8.613 3.48h4.686L.097.24l-4.594.013-4.116 3.227Z" style="fill:#b5abb1;fill-rule:nonzero" transform="scale(-1 1) rotate(-3.193 2006.279 3105.436)"/>
  <path d="M-8.994 3.705h4.814L.095.231l-4.716.015-4.373 3.459Z" style="fill:#b5abb1;fill-rule:nonzero" transform="scale(-1 1) rotate(-2.941 2272.95 3469.39)"/>
  <path d="M0 2.891-3.126.586-16.375 0l.001.578 2.085 1.785L0 2.891Z" style="fill:#b5abb1;fill-rule:nonzero" transform="translate(171.963 104.58)"/>
  <path d="M-10.811 1.911h8.557L.034.193l-8.472.016-2.373 1.702Z" style="fill:#b5abb1;fill-rule:nonzero" transform="scale(-1 1) rotate(-2.043 3068.032 4888.159)"/>
  <path d="M-14.72 8.807h5.913L.279.466l-5.616.037-9.383 8.304Z" style="fill:#b5abb1;fill-rule:nonzero" transform="scale(-1 1) rotate(-3.627 1835.432 2662.727)"/>
  <path d="M0 3.038-2.368.412-7.7 0l.001.421 1.883 2.178L0 3.038Z" style="fill:#b5abb1;fill-rule:nonzero" transform="translate(163.311 121.19)"/>
  <path d="M-14.028-33.652h51.22L19.691.573l-44.77-11.526 11.051-22.699Z" style="fill:#fff;fill-rule:nonzero" transform="scale(-1 1) rotate(75.644 -154.21 -45.401)"/>
  <path d="M-13.024-32.946h49.717L19.289 1.09l-43.45-11.246 11.137-22.79Z" style="fill:#eceaeb;fill-rule:nonzero" transform="scale(-1 1) rotate(75.568 -153.594 -45.504)"/>
  <path d="m0-27.277-24.697 8.842-4.586 17.824.661.611 34.05-12.348-.018-12.546L0-27.277Z" style="fill:#b9dc94;fill-rule:nonzero" transform="translate(150.183 132.537)"/>
  <path d="m0 10.52-1.441.523-.603.218-.162.63 2.632-.954L32.828-.828l-.001-.543L0 10.52Z" style="fill:#f2f2f2;fill-rule:nonzero" transform="translate(122.782 121.289)"/>
  <path d="M3.175-3.366h1.156L-.401.958-.703.151l3.878-3.517Z" style="fill:#f2f2f2;fill-rule:nonzero" transform="scale(-1 1) rotate(20.614 -371.874 -372.283)"/>
  <path d="M-7.776-1.605H.358l.201.326-8.581-.005.246-.321Z" style="fill:#f2f2f2;fill-rule:nonzero" transform="scale(-1 1) rotate(17.279 -403.651 -374.775)"/>
  <path d="m0 9.589 1.698-.382 1.698-.381-7.18-6.975-.217-.208-.209-.209-.008.002L-5.694 0l-.789 3.067L0 9.589Z" style="fill:#f48656;fill-rule:nonzero" transform="translate(126.992 130.375)"/>
  <path d="M0 5.585h-.001l-17.126-8.502L4.79-9.318v-.591l-25.568 7.448-.171.661 1.689-.493 17.07 8.678-.002.001a1626.764 1626.764 0 0 1-22.963 8.159l-.244.949c6.98-2.425 18.151-6.359 30.209-10.828l-.001-.851C3.189 4.414 1.583 5.006 0 5.585" style="fill:#f48656;fill-rule:nonzero" transform="translate(150.777 99.025)"/>
  <path d="m0-1.306-3.018-1.673-7.154 2.223-.432 1.679 1.208.75L0-1.306Z" style="fill:#b5abb1;fill-rule:nonzero" transform="translate(138.668 103.158)"/>
  <path d="m0-.037.711.308L.71-.308 0-.037Z" style="fill:#b5abb1;fill-rule:nonzero" transform="translate(154.878 104.888)"/>
  <path d="m0 .176 2.428-.744-1.105-.843-3.326 1.015-.049.187.408.327-.534.163-.336 1.306L.583.635 0 .176Z" style="fill:#b5abb1;fill-rule:nonzero" transform="translate(131.286 99.742)"/>
  <path d="M-.604-1.495H.678l.646 1.084-2.817-.004.889-1.08Z" style="fill:#b5abb1;fill-rule:nonzero" transform="scale(-1 1) rotate(16.301 -410.403 -407.249)"/>
  <path d="m0-.139.391.28L.39-.28 0-.139Z" style="fill:#b5abb1;fill-rule:nonzero" transform="translate(155.222 121.469)"/>
  <path d="M-7.932.895h6.325l1.431-2.346-6.234.022L-7.932.895Z" style="fill:#b5abb1;fill-rule:nonzero" transform="scale(-1 1) rotate(20.057 -429.8 -350.108)"/>
  <path d="M-7.98.92h6.519l1.28-2.381-6.424.022L-7.98.92Z" style="fill:#b5abb1;fill-rule:nonzero" transform="scale(-1 1) rotate(20.05 -435.049 -321.036)"/>
  <path d="M-11.448 5.407h6.939l3.469-7.643-6.62.072-3.788 7.571Z" style="fill:#b5abb1;fill-rule:nonzero" transform="scale(-1 1) rotate(20.483 -434.745 -281.267)"/>
  <path d="M-14.949-.261h13.047l1.91-2.368-12.844.046-2.113 2.322Z" style="fill:#b5abb1;fill-rule:nonzero" transform="scale(-1 1) rotate(19.174 -394.389 -333.58)"/>
  <use xlink:href="#b" x="7.892" y="88.725" width="252.604" height="54.699" transform="scale(.99844 .99453)"/>
  <path d="M0-18.147c1.701 1.067 3.048 2.223 4.241 3.204l3.631 3.006 1.816 1.502c.601.494 1.25 1.045 1.69 1.381.455.354.803.546.912.583.129.031-.1-.01-.097.006-.021.067.884-.369 1.929-1.287l3.589-3.012 3.688-3.09c.413-.328.942-.735 1.679-1.132a7.866 7.866 0 0 1 1.273-.544c.241-.077.491-.145.753-.2.252-.055.641-.114.938-.128 1.271-.066 2.431.163 3.637.819a6.14 6.14 0 0 1 1.743 1.451 5.852 5.852 0 0 1 1.18 2.394 4.538 4.538 0 0 1-8.849 2.02c.1.512.349 1.017.63 1.372.282.361.576.592.831.748.521.301.893.391 1.411.397a3.286 3.286 0 0 0 .585-.07l.238-.059c.073-.013-.007.056-.184.232l-3.348 3.181-3.451 3.272c-.654.601-1.432 1.287-2.454 1.973-1.028.675-2.356 1.393-4.115 1.746-1.734.381-3.864.149-5.382-.432C6.962.621 5.862-.105 4.99-.704L.986-3.617l-3.814-2.784c-1.294-.953-2.359-1.694-3.193-2.094a5.706 5.706 0 1 1 5.499-9.98l.522.328Z" style="fill:#462e3b;fill-rule:nonzero" transform="translate(80.145 84.154)"/>
  <path d="M0 63.674c-1.486-2.078-3.335-3.573-5.46-5.059-.358-.251-.719-.539-1.094-.77-.114-.098-.23-.192-.341-.293a7.33 7.33 0 0 1-.451-.448c-.133-.146-.175-.183-.159-.15l-.006-.012c1.998-1.946 2.599-4.059 2.495-6.876-.652-17.941 9.788-37.335 22.101-51.847 4.268-4.815 6.219-2.706 8.383-.511 5.343 5.415 7.16 5.859 11.816 0 2.553-3.214 4.127-3.846 8.077-4.819.737 4.067 1.169 8.993 1.423 13.373.361 6.224 1.622 12.929-.927 18.617-3.439 7.678-5.632 23.316-2.847 38.717-15.129-.92-32.578 7.189-43.01.078" style="fill:#f2692b" transform="translate(40.999 51.08)"/>
  <path d="M0 10.532s-15.657-6.634-21.73-6.321C-20.368 2.519-18.984.796-18.237 0c0 0 15.848 4.021 18.237 10.532" style="fill:#b84425;fill-rule:nonzero" transform="translate(76.746 48.835)"/>
  <path d="M0-9.009c-1.637-.03-2.86-.706-3.091-2.415-.241-1.79 1.116-2.634 2.498-2.813 1.792-.23 2.665.967 2.887 2.569.177 1.27-.795 2.4-2.294 2.659m-23.086.645c-.131 1.225-.923 2.29-2.387 2.36-1.878.089-2.844-.914-3.003-2.899.034-1.473 1.426-2.034 2.359-2.137 2.11-.238 3.21 1.01 3.031 2.676M-6.019 5.913C-4.183 3.436-1.58.562 1.072-2.072c3.529-3.507 7.144-6.588 9.153-7.734 1.385-.79 3.246-1.837 3.78-3.258-2.409-2.141-5.16-3.318-8.184-4.166-6.358-1.781-13.556 1.911-14.515 8.887-.512 3.73-.44 6.617.041 10.991.019.015.041.025.06.038.947 1.437.105 2.917-1.065 3.439-1.245.554-2.692.897-4.103-.195-.974-.752-1.092-1.597-.68-2.521h-.003c-.304-3.12-.945-6.978-2.234-9.869-3.496-7.842-10.095-8.548-15.949-6.512-3.324 1.157-5.941 3.658-7.681 6.868 1.944.283 7.271 2.419 12.898 5.522 3.903 2.151 7.951 4.766 11.115 7.552 3.446 3.032 7.303 2.415 10.276-1.057" style="fill:#fff8f0;fill-rule:nonzero" transform="translate(95.583 53.983)"/>
  <path d="M2.854-2.358C1.055-2.518.273-1.124.157.265c-.149 1.8 1.086 2.618 2.697 2.768C4.13 3.152 5.215 2.13 5.406.621c-.104-1.634-.835-2.827-2.552-2.979" style="fill:#462d3b;fill-rule:nonzero" transform="scale(1 -1) rotate(-87.406 26.641 -69.354)"/>
  <path d="M-.331-.007c-1.874.15-2.706 1.268-2.611 3.256.22 1.458 1.673 1.838 2.611 1.821 2.124-.033 3.056-1.409 2.667-3.039C2.051.832 1.13-.123-.331-.007" style="fill:#462d3b;fill-rule:nonzero" transform="scale(1 -1) rotate(7.299 410.97 528.243)"/>
  <path d="M0 1.28c-6.358-1.781-13.557 1.911-14.516 8.887-.511 3.73-.439 6.617.041 10.991-1.789-1.224-4.496-.55-5.541.287a4.23 4.23 0 0 0-.247.474h-.002c-.304-3.12-.945-6.978-2.234-9.869-3.496-7.842-10.096-8.548-15.949-6.512-3.324 1.157-5.942 3.658-7.681 6.868-.845-.099-1.562-.43-1.373-1.415 1.097-5.69 1.27-11.312 4.177-17.675.905-.13 1.405-1.092 1.386-2.105.375-1.687 3.518-5.046 5.758-6.118.024.04.055.081.075.118.722-.081 1.854-.638 2.017-1.858-.045-.08-.099-.153-.147-.231 2.742-1.565 6.26-2.83 10.746-3.324 3.96-.437 7.28-.429 10.18.104l-.005.02c.488 1.131 1.727 1.36 2.446 1.242.002-.01.008-.026.011-.036 2.45.551 6.102 2.908 6.892 4.378.256.978 1.469 1.7 2.378 1.583.143.17.287.328.43.503C1.803-8.75 4.384-3.596 7.749 2.747c.573 1.079.892 1.968.435 2.699C5.774 3.304 3.023 2.128 0 1.28" style="fill:#f2692b;fill-rule:nonzero" transform="translate(101.404 35.473)"/>
  <path d="M-3.234-9.613c-1.73.258-1.598 2.583-1.71 4.145-.143 1.967.462 4.165 1.71 5.89C-2.692-1.156.53-4.073 2.86-5.014c-.384-.866-3.541-4.98-6.094-4.599" style="fill:#fff8f0;fill-rule:nonzero" transform="scale(-1 1) rotate(9.314 -176.512 -567.528)"/>
  <path d="M0-3.15c.02.015.041.024.061.038C1.008-1.675.165-.195-1.005.327c-1.245.554-2.691.897-4.102-.195-.975-.753-1.092-1.597-.681-2.521.069-.156.148-.313.247-.474C-4.496-3.7-1.789-4.374 0-3.15" style="fill:#462d3b;fill-rule:nonzero" transform="translate(86.93 59.78)"/>
  <path d="M0 11.749c.952-1.904 1.194-4.171.734-6.09C.371 4.137.125 1.82-1.624 1.847c-2.581.037-5.031 4.608-5.269 5.524l-.01.036c-.719.118-1.958-.11-2.447-1.242l.006-.02c.935-3.768 3.575-4.821 6.292-6.854 1.327-.991 3.019-.323 4.157.812C3.979 2.96 4.247 9.886 2.391 13.332h-.013c-.909.117-2.122-.604-2.378-1.583" style="fill:#462d3b;fill-rule:nonzero" transform="translate(97.438 9.23)"/>
  <path d="M0-2.869C-.136-4.184-.182-5.063-.091-5.64c.142-.362.331-.667.58-.885.201-.074.453-.092.771-.066 2.536.206 6.341 2.73 7.257 4.222-2.241 1.071-5.384 4.431-5.759 6.117C1.327 2.176.202-.906 0-2.869" style="fill:#fff8f0;fill-rule:nonzero" transform="translate(56.707 22.935)"/>
  <path d="M0-.319c-.02-.037-.051-.078-.074-.117-.916-1.492-4.721-4.016-7.257-4.222-.317-.026-.569-.009-.771.066-.318.117-.502.386-.58.885-.09.576-.045 1.455.091 2.771.202 1.963 1.327 5.045 2.758 6.617.02 1.014-.48 1.976-1.386 2.105l-.006.002c-2.723-2.814-5.278-9.348-3.862-13.147.561-1.505.771-2.748 3.171-2.314 3.269.587 7.783 2.039 9.786 5.265.049.078.103.152.148.232C1.854-.957.723-.4 0-.319" style="fill:#462d3b;fill-rule:nonzero" transform="translate(65.298 21.003)"/>
  <path d="M0 22.726c.529.772 1.218 1.027 2.273 1.193-.188-4.31 3.164-9.195 2.72-14.349-.379-4.414-1.51-7.948-5.322-9.596-2.7-1.167-5.836-1.1-5.848.244-.008.694.615.46 1.516.65 4.343.259 7.329 3.771 7.59 8.702C3.122 14.187.077 20.014 0 22.726" style="fill:#b84425" transform="translate(57.214 84.673)"/>
  <path d="m0-27.335-1.771 9.979-.089.544a8.334 8.334 0 0 0-.404 3.044c.005.22.075.714.127 1.112l.165 1.242.329 2.485 1.319 9.942.026.203a4.364 4.364 0 0 1-3.753 4.901A4.375 4.375 0 0 1-8.92 2.565l-1.776-9.833-.904-5.033a17.977 17.977 0 0 1 .185-6.568l-.072.439 1.111-10.051.037-.341A5.225 5.225 0 1 1 0-27.335" style="fill:#462e3b;fill-rule:nonzero" transform="translate(84.734 109.812)"/>
  <use xlink:href="#c" x="85.217" y="109.782" width="4.44" height="4.979" transform="scale(.888 .9957)"/>
  <path d="M0-8.077c-1.604-.635-3.57-.651-5.095-.396a8.56 8.56 0 0 0-1.031.237c-2.447.726-4.332 2.669-4.785 5.098-.099.531-.133 1.102.028 1.637C-10.378.172-8.447.463-6.909.503c1.86.048 3.777.148 5.625.017C.259.41 1.862-.024 2.615-1.385c.907-1.637.583-3.872-.701-5.378C1.407-7.356.742-7.783 0-8.077" style="fill:#462e3b;fill-rule:nonzero" transform="translate(87.339 117.117)"/>
  <path d="M0-12.365C-1.472-8.066-2.479-4.103-2.499-.264c.032-.064-.381.042-.417.065-.182.119-.19.375-.266.554-.178.421-.328.766-.888.372-.231-.162-.398-.399-.606-.59-.338-.313-.945-.463-1.39-.476A2.449 2.449 0 0 0-7.73.269c-.188.161-.391.353-.685.307-.222-.035-.426-.198-.601-.359-.653-.601-1.43-1.064-2.329-.999-.947.068-2.058.988-3.024.855-1.034-.142-1.158-1.276-1.6-2.107-1.844-3.477-1.402-8.162-.869-11.452" style="fill:#f2692b;fill-rule:nonzero" transform="translate(87.21 87.077)"/>
  <path d="M-8.785-5.761C-3.727-3.184-2.557.468-5.102 5.393c-.943 1.826-3.157 5.763-3.683 8.985-3.987-.318-7.161-.864-10.941-3.449 3.7-6.499 6.4-10.735 10.941-16.69" style="fill:#462d3b" transform="scale(1 -1) rotate(56.808 136.4 14.776)"/>
  <path d="M0-19.87C4.323-15.285 7.145-9.124 7.414-2.748 6.359-1.844 5.181-1.167 3.85-1.72c-1.234-.51-1.903.143-2.762.901-2.953 2.599-6.972 1.888-8.757-1.576-.549-1.064-.658-2.163-2.359-1.835-3.314.638-5.536-1.224-7.365-3.73A36.948 36.948 0 0 1-4.447-20.69c1.644-.96 3.159-.546 4.447.82" style="fill:#fff8f0;fill-rule:nonzero" transform="translate(31.364 47.306)"/>
  <path d="M0 49.962c-.834 1.554-1.009.642-1.572-.328-3.31-5.828-2.068-13.955-.676-20.459 1.923-8.984 4.221-14.723 5.307-23.928.726-6.065.187-10.693-.171-14.056C1.833-7.9.65-7.243-.677-7.782c-1.234-.517-1.905.132-2.761.895-2.957 2.601-6.973 1.89-8.761-1.578-.538-1.066-.657-2.163-2.359-1.837-3.311.64-5.538-1.227-7.374-3.723 0 0-1.587 2.414-2.233 3.711-5.78 11.549-6.767 23.421-4.755 36.005 1.256 7.851 6.482 18.692 11.533 24.86 3.203 3.912 8.56 8.035 13.269 9.795 2.336.873 8.664 2.72 16.219 3.641L0 49.962Z" style="fill:#f2692b;fill-rule:nonzero" transform="translate(35.887 53.392)"/>
  <use xlink:href="#d" x="104.292" y="124.862" width="10.919" height="3.554" transform="scale(.99265 .88842)"/>
  <path d="M-8.484-8.485a8.483 8.483 0 0 0-8.484 8.484 8.484 8.484 0 1 0 16.967 0 8.483 8.483 0 0 0-8.483-8.484" style="fill:#fff;fill-rule:nonzero" transform="matrix(0 -1 -1 0 109.479 80.42)" opacity=".6"/>
  <path d="M0 2.95a8.49 8.49 0 0 0 2.751 6.269 8.5 8.5 0 0 1-3.626-6.97c0-4.71 3.808-8.518 8.509-8.518 2.214 0 4.218.829 5.73 2.214a8.507 8.507 0 0 0-4.846-1.504C3.816-5.559 0-1.75 0 2.95" style="fill:#462e3b;fill-rule:nonzero" transform="translate(101.812 86.66)"/>
  <path d="M0 8.117A8.505 8.505 0 0 1-8.509-.391 8.507 8.507 0 0 1 0-8.91 8.51 8.51 0 0 1 8.519-.391C8.519 4.31 4.712 8.117 0 8.117M13.117-8.282C10.288-12.501 5.411-15.289 0-15.289c-8.509 0-15.402 6.893-15.402 15.412 0 6.091 3.662 11.781 7.418 16.01 2.49 2.797 5.02 4.959 6.544 6.182.822.649 1.347 1.03 1.429 1.081a.01.01 0 0 1 .011.01h.01c.195-.143 4.197-3.004 8.118-7.366 3.827-4.27 7.561-9.96 7.561-15.917 0-3.107-.946-5.987-2.572-8.405" style="fill:#f2692c;fill-rule:nonzero" transform="translate(109.445 89.301)"/>
  <path d="M0-31.691c.628 1.12 1.345 2.716 1.644 5.084.081.643.149 1.356.166 2.162.132 6.575-4.285 12.304-8.818 16.711-3.627 3.526-5.77 5.493-7.548 6.64.819.65 1.351 1.028 1.432 1.087l.009.005a.012.012 0 0 1 .003.002l.007-.004c.19-.136 4.198-3.004 8.114-7.366 3.827-4.264 7.567-9.956 7.567-15.915 0-3.101-.953-5.988-2.576-8.406" style="fill:#462e3b;fill-rule:nonzero" transform="translate(122.562 112.707)"/>
  <path d="M0 1.261c0 1.062.455 2.016 1.176 2.677A3.625 3.625 0 0 1-.373.961a3.634 3.634 0 0 1 3.634-3.638c.946 0 1.801.354 2.448.945a3.641 3.641 0 0 0-2.07-.642A3.638 3.638 0 0 0 0 1.261" style="fill:#6a5761;fill-rule:nonzero" transform="translate(189.022 82.31)"/>
  <path d="M0 3.468A3.633 3.633 0 0 1-3.634-.167 3.634 3.634 0 0 1 0-3.805 3.635 3.635 0 0 1 3.639-.167 3.634 3.634 0 0 1 0 3.468m5.604-7.006A6.772 6.772 0 0 0 0-6.53 6.578 6.578 0 0 0-6.578.053c0 2.602 1.564 5.032 3.168 6.838A23.5 23.5 0 0 0-.615 9.532 11.713 11.713 0 0 0 0 9.998h.005c.083-.061 1.793-1.283 3.467-3.146 1.634-1.824 3.23-4.254 3.23-6.799a6.41 6.41 0 0 0-1.098-3.591" style="fill:#462e3b;fill-rule:nonzero" transform="translate(192.283 83.437)"/>
  <path d="M0 1.482c0 1.249.535 2.37 1.382 3.148a4.263 4.263 0 0 1-1.821-3.5 4.273 4.273 0 0 1 4.273-4.278c1.112 0 2.118.416 2.878 1.111a4.28 4.28 0 0 0-2.435-.754A4.276 4.276 0 0 0 0 1.482" style="fill:#6a5761;fill-rule:nonzero" transform="translate(155.954 101.895)"/>
  <path d="M0 4.077A4.271 4.271 0 0 1-4.273-.196 4.272 4.272 0 0 1 0-4.476a4.274 4.274 0 0 1 4.278 4.28A4.273 4.273 0 0 1 0 4.077M6.588-4.16A7.964 7.964 0 0 0 0-7.679 7.736 7.736 0 0 0-7.736.061c0 3.06 1.84 5.917 3.725 8.041a27.687 27.687 0 0 0 3.287 3.106 16.144 16.144 0 0 0 .724.548h.005c.099-.073 2.108-1.509 4.077-3.7C6.004 5.911 7.88 3.054 7.88.061c0-1.56-.475-3.006-1.292-4.221" style="fill:#462e3b;fill-rule:nonzero" transform="translate(159.788 103.222)"/>
  <path d="M0 1.701c0 1.435.614 2.721 1.586 3.614A4.898 4.898 0 0 1-.505 1.297a4.906 4.906 0 0 1 4.906-4.911 4.86 4.86 0 0 1 3.305 1.276 4.905 4.905 0 0 0-2.795-.867A4.91 4.91 0 0 0 0 1.701" style="fill:#6a5761;fill-rule:nonzero" transform="translate(237.797 109.774)"/>
  <path d="M0 4.681A4.904 4.904 0 0 1-4.906-.225 4.905 4.905 0 0 1 0-5.137 4.907 4.907 0 0 1 4.912-.225 4.905 4.905 0 0 1 0 4.681m7.563-9.456A9.137 9.137 0 0 0 0-8.815 8.88 8.88 0 0 0-8.881.072c0 3.511 2.112 6.792 4.277 9.23A31.899 31.899 0 0 0-.83 12.868a17.742 17.742 0 0 0 .83.628h.006c.112-.083 2.42-1.732 4.681-4.247 2.207-2.462 4.36-5.743 4.36-9.177a8.64 8.64 0 0 0-1.484-4.847" style="fill:#462e3b;fill-rule:nonzero" transform="translate(242.198 111.296)"/>
  <path d="M0-4.845A5.843 5.843 0 0 0-1.18-7.24a6.139 6.139 0 0 0-1.743-1.45c-1.206-.656-2.365-.885-3.637-.819a6.403 6.403 0 0 0-.937.128 7.542 7.542 0 0 0-.754.2c-.48.156-.904.348-1.272.544-.738.396-1.266.804-1.679 1.132l-3.689 3.09-3.588 3.011a9.705 9.705 0 0 1-1.3.969 23.97 23.97 0 0 1 1.066 1.719c.725 1.284 1.54 2.462 2.638 3.446C-13.868 2.31-11.021.514-7.747.049c.696-.099 1.289.323 1.946.479C-2.501 1.311.798-1.347 0-4.845" style="fill:#462e3b;fill-rule:nonzero" transform="translate(112.747 75.805)"/>
  <path d="M0 .762A3.213 3.213 0 0 1-.257 0c.061.267.153.518.257.762" style="fill:#462e3b;fill-rule:nonzero" transform="translate(104.155 72.98)"/>
  <use xlink:href="#e" x="207.624" y="102.466" width="7.269" height="1.858" transform="scale(.90863 .929)"/>
  <use xlink:href="#f" x="174.915" y="121.413" width="7.142" height="1.935" transform="scale(.89275 .96759)"/>
  <use xlink:href="#g" x="267.511" y="131.863" width="7.143" height="1.936" transform="scale(.89287 .96808)"/>
  <use xlink:href="#h" x="182.272" y="21.824" width="64.795" height="46.856" transform="scale(.99685 .99694)"/>
  <path d="M0 39.154h-62.913a.94.94 0 0 1-.941-.94V0H.94v38.214a.94.94 0 0 1-.94.94" style="fill:#fff;fill-rule:nonzero" transform="translate(244.552 28.46)"/>
  <path d="M0 7.708h-64.795v-6.58c0-.623.506-1.128 1.129-1.128h62.538C-.505 0 0 .505 0 1.128v6.58Z" style="fill:#8cc44a;fill-rule:nonzero" transform="translate(245.492 20.757)"/>
  <use style="fill:#8cc44a;fill-rule:nonzero" transform="translate(190.8 33.953)" xlink:href="#reuse-0"/>
  <path d="M0 1.752h-4.456a.332.332 0 0 1-.332-.332V.332c0-.184.149-.332.332-.332H0c.183 0 .332.148.332.332V1.42A.332.332 0 0 1 0 1.752" style="fill:#8cc44a;fill-rule:nonzero" transform="translate(198.975 33.953)"/>
  <use style="fill:#8cc44a;fill-rule:nonzero" transform="translate(207.148 33.953)" xlink:href="#reuse-0"/>
  <use style="fill:#8cc44a;fill-rule:nonzero" transform="translate(215.322 33.953)" xlink:href="#reuse-0"/>
  <path d="M0 1.752h-4.455a.332.332 0 0 1-.332-.332V.332c0-.184.149-.332.332-.332H0c.184 0 .332.148.332.332V1.42A.331.331 0 0 1 0 1.752" style="fill:#8cc44a;fill-rule:nonzero" transform="translate(223.496 33.953)"/>
  <use style="fill:#8cc44a;fill-rule:nonzero" transform="translate(231.671 33.953)" xlink:href="#reuse-0"/>
  <use style="fill:#add583;fill-rule:nonzero" transform="translate(239.845 33.953)" xlink:href="#reuse-0"/>
  <use style="fill:#58424e;fill-rule:nonzero" transform="translate(185.296 17.891)" xlink:href="#reuse-1"/>
  <use style="fill:#58424e;fill-rule:nonzero" transform="translate(187.135 17.891)" xlink:href="#reuse-1"/>
  <use style="fill:#58424e;fill-rule:nonzero" transform="translate(196.048 17.891)" xlink:href="#reuse-2"/>
  <use style="fill:#58424e;fill-rule:nonzero" transform="translate(197.887 17.891)" xlink:href="#reuse-1"/>
  <path d="M0 5.731a.57.57 0 0 1-.568-.569V.569a.568.568 0 1 1 1.137 0v4.593A.57.57 0 0 1 0 5.731" style="fill:#58424e;fill-rule:nonzero" transform="translate(206.799 17.891)"/>
  <use style="fill:#58424e;fill-rule:nonzero" transform="translate(208.639 17.891)" xlink:href="#reuse-1"/>
  <use style="fill:#58424e;fill-rule:nonzero" transform="translate(217.551 17.891)" xlink:href="#reuse-1"/>
  <use style="fill:#58424e;fill-rule:nonzero" transform="translate(219.391 17.891)" xlink:href="#reuse-1"/>
  <use style="fill:#58424e;fill-rule:nonzero" transform="translate(228.303 17.891)" xlink:href="#reuse-1"/>
  <use style="fill:#58424e;fill-rule:nonzero" transform="translate(230.143 17.891)" xlink:href="#reuse-1"/>
  <use style="fill:#58424e;fill-rule:nonzero" transform="translate(239.055 17.891)" xlink:href="#reuse-1"/>
  <use style="fill:#58424e;fill-rule:nonzero" transform="translate(240.894 17.891)" xlink:href="#reuse-2"/>
  <use style="fill:none;fill-rule:nonzero;stroke:#b9dc94;stroke-width:.5px" transform="translate(184.865 43.658)" xlink:href="#reuse-3"/>
  <use style="fill:none;fill-rule:nonzero;stroke:#b9dc94;stroke-width:.5px" transform="translate(184.865 48.868)" xlink:href="#reuse-3"/>
  <use style="fill:none;fill-rule:nonzero;stroke:#b9dc94;stroke-width:.5px" transform="translate(184.865 38.447)" xlink:href="#reuse-3"/>
  <use style="fill:none;fill-rule:nonzero;stroke:#b9dc94;stroke-width:.5px" transform="translate(184.865 54.08)" xlink:href="#reuse-3"/>
  <use style="fill:none;fill-rule:nonzero;stroke:#b9dc94;stroke-width:.5px" transform="translate(184.865 59.29)" xlink:href="#reuse-3"/>
  <use style="fill:none;fill-rule:nonzero;stroke:#b9dc94;stroke-width:.5px" transform="translate(184.865 64.5)" xlink:href="#reuse-3"/>
  <use style="fill:none;fill-rule:nonzero;stroke:#b9dc94;stroke-width:.5px" transform="matrix(0 1 1 0 205.957 51.474)" xlink:href="#reuse-4"/>
  <use style="fill:none;fill-rule:nonzero;stroke:#b9dc94;stroke-width:.5px" transform="matrix(0 1 1 0 214.022 51.474)" xlink:href="#reuse-4"/>
  <use style="fill:none;fill-rule:nonzero;stroke:#b9dc94;stroke-width:.5px" transform="matrix(0 1 1 0 222.088 51.474)" xlink:href="#reuse-4"/>
  <use style="fill:none;fill-rule:nonzero;stroke:#b9dc94;stroke-width:.5px" transform="matrix(0 1 1 0 230.154 51.474)" xlink:href="#reuse-4"/>
  <use style="fill:none;fill-rule:nonzero;stroke:#b9dc94;stroke-width:.5px" transform="matrix(0 1 1 0 238.22 51.474)" xlink:href="#reuse-4"/>
  <use style="fill:none;fill-rule:nonzero;stroke:#b9dc94;stroke-width:.5px" transform="matrix(0 1 1 0 246.285 51.474)" xlink:href="#reuse-4"/>
  <path d="M-13.264-13.264h26.528" style="fill:none;fill-rule:nonzero;stroke:#b9dc94;stroke-width:.5px" transform="matrix(0 1 1 0 254.589 51.472)"/>
  <path d="M-13.266-13.266h26.532" style="fill:none;fill-rule:nonzero;stroke:#b9dc94;stroke-width:.5px" transform="matrix(0 1 1 0 198.131 51.475)"/>
  <path d="M0-10.232c-1.428-.088-2.805.687-3.726 1.76-.931 1.082-1.423 2.529-1.278 3.927.094 1.412 1.072 2.581 2.294 3.237 1.221.666 2.69.914 4.031.651a4.401 4.401 0 0 0 3.117-2.299c.633-1.158.659-2.637-.058-3.727-.686-1.112-1.996-1.831-3.371-1.851-1.367-.048-2.817.483-3.732 1.585a.168.168 0 0 1-.235.028.172.172 0 0 1-.037-.221c.842-1.327 2.411-2.111 4.001-2.161 1.602-.088 3.267.688 4.214 2.076.944 1.414.917 3.317.132 4.757C4.567-1.024 3.081.011 1.481.247-.108.493-1.73.148-3.088-.654c-1.347-.78-2.449-2.227-2.489-3.842-.124-1.568.465-3.141 1.5-4.285 1.023-1.135 2.527-1.944 4.106-1.811.1.007.174.095.165.195a.182.182 0 0 1-.194.165" style="fill:#f2692c;fill-rule:nonzero" transform="translate(196.729 51.284)"/>
  <path d="m0 .357 1.409 1.409 3.174-3.175" style="fill:none;fill-rule:nonzero;stroke:#58424e;stroke-width:1px;stroke-linecap:round;stroke-linejoin:round" transform="translate(202.738 61.723)"/>
  <path d="m0 .359 1.408 1.408 3.175-3.175" style="fill:none;fill-rule:nonzero;stroke:#58424e;stroke-width:1px;stroke-linecap:round;stroke-linejoin:round" transform="translate(218.977 56.44)"/>
  <use style="fill:none;fill-rule:nonzero;stroke:#58424e;stroke-width:1px;stroke-linecap:round;stroke-linejoin:round" transform="translate(210.804 51.293)" xlink:href="#reuse-5"/>
  <use style="fill:none;fill-rule:nonzero;stroke:#58424e;stroke-width:1px;stroke-linecap:round;stroke-linejoin:round" transform="translate(194.54 46.381)" xlink:href="#reuse-5"/>
  <path d="M0-16.328c-2.668-2.623-5.932-4.564-9.363-6.004-3.422-1.482-7.056-2.449-10.741-2.951-7.38-1.034-15 .138-21.8 3.092-6.802 3.006-12.73 7.767-17.537 13.402-4.82 5.647-8.546 12.189-11.176 19.115l-.933-.359c2.745-6.996 6.596-13.581 11.54-19.245 4.933-5.653 10.99-10.408 17.908-13.372 6.914-2.913 14.619-4.004 22.033-2.88 3.702.546 7.34 1.558 10.756 3.083C-5.889-20.965-2.639-18.98 0-16.328" style="fill:#f2692c;fill-rule:nonzero" transform="translate(191.982 57.992)"/>
  <path d="M0-6.231.448.074a.623.623 0 0 0 .972.472l5.237-3.54a.624.624 0 0 0-.077-1.078L.896-6.837A.625.625 0 0 0 0-6.231" style="fill:#f2692c;fill-rule:nonzero" transform="translate(118.526 70.625)"/>
</svg>
