<?xml version="1.0" encoding="UTF-8" standalone="no"?>
<svg viewBox="0 0 266 151" xmlns="http://www.w3.org/2000/svg" xml:space="preserve" style="fill-rule:evenodd;clip-rule:evenodd;stroke-miterlimit:10" xmlns:xlink="http://www.w3.org/1999/xlink">
  <defs>
    <path d="M-2.365-2.365a2.365 2.365 0 1 0 0 4.73 2.365 2.365 0 0 0 0-4.73" style="fill:#fff;fill-rule:nonzero" id="reuse-0"/>
    <path d="M-1.529-1.529c-.844 0-1.527.685-1.527 1.529a1.528 1.528 0 1 0 1.527-1.529" style="fill:#f2692c;fill-rule:nonzero" id="reuse-1"/>
    <path d="M-1.529-1.529c-.844 0-1.527.684-1.527 1.529A1.528 1.528 0 1 0 0 0c0-.845-.683-1.529-1.529-1.529" style="fill:#f2692c;fill-rule:nonzero" id="reuse-2"/>
    <path d="M-8.707 0H0" style="fill:none;fill-rule:nonzero;stroke:#7d6c75;stroke-width:2px;stroke-linecap:round;stroke-linejoin:round" id="reuse-3"/>
  </defs>
  <path style="fill:none" d="M0 0h266v150H0z" transform="translate(0 .75)"/>
  <path d="M0 95.037V3.674A3.678 3.678 0 0 1 3.674 0h118.364a3.678 3.678 0 0 1 3.673 3.674v91.363H0Z" style="fill:#fff" transform="translate(132.001 41.526)"/>
  <path d="M0-96.166h-118.363a4.238 4.238 0 0 0-4.239 4.238V0H4.238v-91.928A4.237 4.237 0 0 0 0-96.166m0 1.128a3.113 3.113 0 0 1 3.11 3.11v90.799h-124.584v-90.799a3.114 3.114 0 0 1 3.111-3.11H0" style="fill:#8cc44a;fill-rule:nonzero" transform="translate(254.039 137.128)"/>
  <path d="M0-13.697h118.389a4.226 4.226 0 0 1 4.225 4.226V0H-4.226v-9.471A4.226 4.226 0 0 1 0-13.697" style="fill:#8cc44a" transform="translate(135.663 54.688)"/>
  <use style="fill:#fff;fill-rule:nonzero" transform="matrix(0 -1 -1 0 140.132 45.615)" xlink:href="#reuse-0"/>
  <use style="fill:#fff;fill-rule:nonzero" transform="matrix(0 -1 -1 0 148.903 45.615)" xlink:href="#reuse-0"/>
  <use style="fill:#fff;fill-rule:nonzero" transform="matrix(0 -1 -1 0 157.673 45.615)" xlink:href="#reuse-0"/>
  <path d="M0-28.211h-3.531c-.4 0-.725.324-.725.725v26.76c0 .401.325.726.725.726H0c.4 0 .725-.325.725-.726v-26.76A.725.725 0 0 0 0-28.211" style="fill:#a1cf70;fill-rule:nonzero" transform="translate(147.599 89.581)"/>
  <path d="M0-10.979h-3.531c-.4 0-.725.324-.725.725v9.529c0 .4.325.725.725.725H0c.4 0 .725-.325.725-.725v-9.529A.725.725 0 0 0 0-10.979" style="fill:#d0e7b8;fill-rule:nonzero" transform="translate(155.335 89.58)"/>
  <path d="M0-18.817h-3.531c-.4 0-.725.325-.725.726V-.725c0 .4.325.725.725.725H0c.4 0 .725-.325.725-.725v-17.366A.726.726 0 0 0 0-18.817" style="fill:#a1cf70;fill-rule:nonzero" transform="translate(163.072 89.58)"/>
  <path d="M0-15.233h-3.531c-.4 0-.725.324-.725.725V-.725c0 .4.325.725.725.725H0c.4 0 .725-.325.725-.725v-13.783A.725.725 0 0 0 0-15.233" style="fill:#d0e7b8;fill-rule:nonzero" transform="translate(170.808 89.58)"/>
  <path d="M0-26.047h-3.531c-.4 0-.725.324-.725.725V-.726c0 .401.325.726.725.726H0c.4 0 .725-.325.725-.726v-24.596A.725.725 0 0 0 0-26.047" style="fill:#a1cf70;fill-rule:nonzero" transform="translate(178.544 89.581)"/>
  <path d="M0-13.237h-3.531c-.4 0-.725.324-.725.725V-.725c0 .4.325.725.725.725H0c.4 0 .725-.325.725-.725v-11.787A.725.725 0 0 0 0-13.237" style="fill:#d0e7b8;fill-rule:nonzero" transform="translate(186.281 89.58)"/>
  <path d="M0 0h50.165" style="fill:none;fill-rule:nonzero;stroke:#462e3b;stroke-width:1px" transform="translate(140.092 89.581)"/>
  <path d="m0 6.175 5.533 1.409 6.361-4.496L17.3 4.724l7.171-8.502L29.757.048l3.575 9.905 3.009-5.279 8.765-2.488" style="fill:none;fill-rule:nonzero;stroke:#f8b396;stroke-width:1px;stroke-linejoin:round" transform="translate(204.79 75.3)"/>
  <use style="fill:#f2692c;fill-rule:nonzero" transform="matrix(0 -1 -1 0 205.079 79.947)" xlink:href="#reuse-1"/>
  <path d="M-1.529-1.529c-.845 0-1.527.684-1.527 1.529A1.527 1.527 0 1 0 0 0c0-.845-.684-1.529-1.529-1.529" style="fill:#f2692c;fill-rule:nonzero" transform="matrix(0 -1 -1 0 210.324 81.356)"/>
  <use style="fill:#f2692c;fill-rule:nonzero" transform="matrix(0 -1 -1 0 216.707 77.073)" xlink:href="#reuse-1"/>
  <use style="fill:#f2692c;fill-rule:nonzero" transform="matrix(0 -1 -1 0 222.047 78.419)" xlink:href="#reuse-1"/>
  <use style="fill:#f2692c;fill-rule:nonzero" transform="matrix(0 -1 -1 0 229.303 70.27)" xlink:href="#reuse-1"/>
  <use style="fill:#f2692c;fill-rule:nonzero" transform="matrix(0 -1 -1 0 234.579 74.016)" xlink:href="#reuse-2"/>
  <use style="fill:#f2692c;fill-rule:nonzero" transform="matrix(0 -1 -1 0 238.196 83.378)" xlink:href="#reuse-1"/>
  <use style="fill:#f2692c;fill-rule:nonzero" transform="matrix(0 -1 -1 0 249.897 76.016)" xlink:href="#reuse-1"/>
  <use style="fill:#f2692c;fill-rule:nonzero" transform="matrix(0 -1 -1 0 241.253 78.601)" xlink:href="#reuse-2"/>
  <path d="M0 18.156c-.785-4.89 4.804-11.157 9.366-7.604 1.303 1.015 2.145 2.646 3.674 3.27 1.409.575 3.071.108 4.292-.801 1.22-.91 2.088-2.202 2.933-3.469l3.623-5.439c.802-1.204 1.709-2.489 3.091-2.922 3.81-1.191 5.794 3.91 7.082 6.445.622 1.227 1.301 2.461 2.321 3.384 1.02.924 2.454 1.495 3.789 1.163.473-.118.929-.344 1.416-.339.805.011 1.458.649 1.921 1.306.464.658.855 1.405 1.527 1.849 1.636 1.081 3.363-1.239 4.876-1.597 1.347-.319 2.777.313 3.767 1.28.989.968 1.623 2.234 2.239 3.474H0Z" style="fill:#c5e2a6;fill-rule:nonzero" transform="translate(140.741 109.269)"/>
  <path d="M.505-12.266h6.05a8.851 8.851 0 0 0 5.711 6.81L11.195.505C5.436-1.126 1.115-6.146.505-12.266" style="fill:#a1cf70;fill-rule:nonzero" transform="matrix(0 1 1 0 242.818 98.693)"/>
  <path d="M0 5.94a14.78 14.78 0 0 0 11.11 5.01c8.2 0 14.84-6.651 14.84-14.85 0-.37-.01-.75-.05-1.11l-5.95 1.059v.051c0 4.88-3.96 8.85-8.84 8.85-2.42 0-4.61-.97-6.2-2.54L0 5.94Z" style="fill:#f2692c;fill-rule:nonzero" transform="translate(217.942 117.858)"/>
  <path d="M0 7.352c0 2.699.72 5.229 1.98 7.409l4.92-3.529c-.58-1.17-.9-2.49-.9-3.88 0-4.36 3.18-8 7.35-8.711v-6.05C5.85-6.659 0-.338 0 7.352" style="fill:#6a5761;fill-rule:nonzero" transform="translate(214.203 106.606)"/>
  <path d="M-65.227-65.227c-.581 0-1.052 29.203-1.052 65.226 0 36.025.471 65.228 1.052 65.228.581 0 1.053-29.203 1.053-65.228 0-36.023-.472-65.226-1.053-65.226" style="fill:#d0e7b8;fill-rule:nonzero" transform="matrix(0 -1 -1 0 194.856 75.128)"/>
  <path d="M0 16.914a1.892 1.892 0 0 1-1.89-1.89V1.891C-1.89.848-1.042 0 0 0h13.027c1.042 0 1.89.848 1.89 1.891v1.556h3.361l-3.361 4.288v7.289c0 1.042-.848 1.89-1.89 1.89H0Z" style="fill:#fff;fill-rule:nonzero" transform="translate(9.385 122.4)"/>
  <path d="M0-17.914h-13.027a2.39 2.39 0 0 0-2.39 2.39V-2.39A2.39 2.39 0 0 0-13.027 0H0a2.39 2.39 0 0 0 2.39-2.39v-7.117l3.365-4.294a.412.412 0 0 0-.324-.666H2.39v-1.056A2.39 2.39 0 0 0 0-17.914m0 1c.767 0 1.39.624 1.39 1.391v2.056h2.833l-2.62 3.344-.213.272v7.461A1.39 1.39 0 0 1 0-1h-13.027a1.39 1.39 0 0 1-1.39-1.39v-13.134c0-.766.623-1.39 1.39-1.39H0" style="fill:#8cc44a;fill-rule:nonzero" transform="translate(22.413 139.813)"/>
  <use style="fill:none;fill-rule:nonzero;stroke:#7d6c75;stroke-width:2px;stroke-linecap:round;stroke-linejoin:round" transform="matrix(-1 0 0 1 11.67 130.856)" xlink:href="#reuse-3"/>
  <path d="M-4.353-4.353h8.706" style="fill:none;fill-rule:nonzero;stroke:#7d6c75;stroke-width:2px;stroke-linecap:round;stroke-linejoin:round" transform="matrix(0 1 1 0 20.376 130.857)"/>
  <path d="M0 16.914a1.892 1.892 0 0 1-1.89-1.89v-1.557h-3.359L-1.89 9.18V1.89C-1.89.848-1.042 0 0 0h13.028c1.042 0 1.889.848 1.889 1.89v13.134c0 1.042-.847 1.89-1.889 1.89H0Z" style="fill:#fff;fill-rule:nonzero" transform="translate(235.806 13.138)"/>
  <path d="M0-17.914h-13.028a2.39 2.39 0 0 0-2.389 2.39v7.117l-3.366 4.295a.411.411 0 0 0 .324.665h3.042v1.057A2.388 2.388 0 0 0-13.028 0H0a2.39 2.39 0 0 0 2.39-2.39v-13.134A2.39 2.39 0 0 0 0-17.914m0 1c.766 0 1.39.624 1.39 1.39V-2.39C1.39-1.623.766-1 0-1h-13.028a1.39 1.39 0 0 1-1.389-1.39v-2.057h-2.833l2.62-3.343.213-.272v-7.462c0-.766.623-1.39 1.389-1.39H0" style="fill:#8cc44a;fill-rule:nonzero" transform="translate(248.834 30.552)"/>
  <path d="M-1.275 3.078h8.706" style="fill:none;fill-rule:nonzero;stroke:#7d6c75;stroke-width:2px;stroke-linecap:round;stroke-linejoin:round" transform="scale(1 -1) rotate(45 152.596 279.809)"/>
  <path d="M-7.431 3.078h8.706" style="fill:none;fill-rule:nonzero;stroke:#7d6c75;stroke-width:2px;stroke-linecap:round;stroke-linejoin:round" transform="scale(-1 1) rotate(-45 -100.462 301.403)"/>
  <path d="M0 16.915a1.893 1.893 0 0 1-1.89-1.891V1.891C-1.89.848-1.042 0 0 0h13.027c1.042 0 1.89.848 1.89 1.891v1.556h3.361l-3.361 4.288v7.289a1.893 1.893 0 0 1-1.89 1.891H0Z" style="fill:#fff;fill-rule:nonzero" transform="translate(176.275 26.798)"/>
  <path d="M0-17.915h-13.027a2.39 2.39 0 0 0-2.39 2.391v13.133A2.39 2.39 0 0 0-13.027 0H0a2.39 2.39 0 0 0 2.39-2.391v-7.116l3.365-4.295a.412.412 0 0 0-.324-.666H2.39v-1.056A2.39 2.39 0 0 0 0-17.915m0 1c.767 0 1.39.624 1.39 1.391v2.056h2.833l-2.62 3.344-.213.272v7.461C1.39-1.624.767-1 0-1h-13.027c-.767 0-1.39-.624-1.39-1.391v-13.133c0-.767.623-1.391 1.39-1.391H0" style="fill:#f2692c;fill-rule:nonzero" transform="translate(189.302 44.213)"/>
  <path d="M0 0h8.707" style="fill:none;fill-rule:nonzero;stroke:#7d6c75;stroke-width:2px;stroke-linecap:round;stroke-linejoin:round" transform="translate(178.401 35.255)"/>
  <path d="M0 13.448h-8.289a1.892 1.892 0 0 1-1.89-1.89V-1.469c0-1.042.848-1.89 1.89-1.89H6.845c1.042 0 1.89.848 1.89 1.89v13.027c0 1.042-.848 1.89-1.89 1.89H4.288v3.359L0 13.448Z" style="fill:#fff;fill-rule:nonzero" transform="translate(58.372 19.581)"/>
  <path d="M0-21.261h-15.134a2.39 2.39 0 0 0-2.39 2.39v13.027a2.39 2.39 0 0 0 2.39 2.39h8.116l4.295 3.365a.412.412 0 0 0 .666-.323v-3.042H0a2.39 2.39 0 0 0 2.39-2.39v-13.027A2.39 2.39 0 0 0 0-21.261m0 1c.767 0 1.39.623 1.39 1.39v13.027A1.39 1.39 0 0 1 0-4.454h-3.057v2.833l-3.344-2.62-.271-.213h-8.462a1.39 1.39 0 0 1-1.39-1.39v-13.027c0-.767.623-1.39 1.39-1.39H0" style="fill:#8cc44a;fill-rule:nonzero" transform="translate(65.217 36.984)"/>
  <use style="fill:none;fill-rule:nonzero;stroke:#7d6c75;stroke-width:2px;stroke-linecap:round;stroke-linejoin:round" transform="matrix(-1 0 0 1 53.296 24.894)" xlink:href="#reuse-3"/>
  <path d="M-1.404-1.404a1.403 1.403 0 1 0-.002 2.806 1.403 1.403 0 0 0 .002-2.806" style="fill:#7d6c75;fill-rule:nonzero" transform="matrix(0 -1 -1 0 57.65 19.776)"/>
  <path d="M1.404-1.404a1.405 1.405 0 1 0 .001 2.809 1.405 1.405 0 0 0-.001-2.809" style="fill:#7d6c75;fill-rule:nonzero" transform="matrix(0 1 1 0 57.838 27.203)"/>
  <path d="M0-9.434c2.449.542 8.639.585 10.083.733 5.172.532 7.439 3.327 6.863 8.621C9.94.426-4.181.718-11.184.282c-.087-4.294 7.111-7.137 8.909-10.434.693.308 1.47.539 2.275.718" style="fill:#3b2532;fill-rule:nonzero" transform="translate(103.904 138.966)"/>
  <path d="M0-7.789c1.4.301 2.44.594 3.074.739.324.077.545.125.74.162.198.035.328.069.691.037.638-.047 1.436-.224 2.353-.517.92-.294 1.986-.7 2.975-1.094 1.003-.401 2-.831 2.985-1.287l1.473-.703c.454-.21 1.014-.543 1.969-.983.468-.21 1.029-.433 1.675-.608a9.645 9.645 0 0 1 1.763-.303c.508-.04.937-.041 1.282-.033l.912.031 3.545.136.405.016a4.733 4.733 0 0 1 4.549 4.909c-.095 2.469-2.084 4.424-4.505 4.547l-3.531.167-.859.041a7.386 7.386 0 0 0-.517.04c-.226.05.095-.049-.135.044-.165.077-.621.367-1.189.718l-1.621.968a72.324 72.324 0 0 1-6.764 3.468c-1.231.538-2.597 1.063-4.128 1.432-.732.177-1.645.339-2.511.397a16.2 16.2 0 0 1-2.481-.018C.607 4.386-.613 4.14-1.617 4.008l-.409-.054A5.963 5.963 0 1 1 0-7.789" style="fill:#3b2532;fill-rule:nonzero" transform="translate(102.121 87.332)"/>
  <path d="M0-88.518c-2.434.648-7.126.211-7.064 2.738.055 2.259-3.109 5.266-4.626 6.842a100.53 100.53 0 0 0-5.317 5.983c-4.26 5.196-7.785 10.753-10.955 16.653-3.382 6.294-6.231 12.953-7.617 19.991a49.356 49.356 0 0 0-.599 3.822c-.811 6.966.306 13.61 2.808 20.121 1.86 4.84 4.984 11.185 10.884 11.664 8.649.704 13.541.363 17.737.293 3.134-.05 13.011-5.794 14.829-8.184 5.709-7.506 8.914-18.406 8.509-27.711-.168-3.88-.444-11.905-.883-15.72-.547-4.746-.17-15.737 2.829-21.314L0-88.518Z" style="fill:#f2692b;fill-rule:nonzero" transform="translate(95.426 141.321)"/>
  <path d="M0 17.432-14.035 3.938s2.77-3.023 2.851-3.48C-11.103 0 0 17.432 0 17.432" style="fill:#b84425;fill-rule:nonzero" transform="translate(98.751 57.436)"/>
  <path d="M0 25.026c1.31 6.267 3.542 12.325 6.987 17.427.097.143.193.287.295.427 2.473 3.426 6.605 5.169 10.539 6.712.04 2.687 4.881 5.19 5.396 7.772-1.276.37-7.239-.177-8.584-.247-7.595-.395-14.65-1.757-21.135-5.873-18.656-11.84-30.825-33.297-31.412-55.385-.202-7.592 2.067-15.73 6.848-21.574 2.715-3.319 5.329-5.579 8.729-6.993.065 1.957 3.449 3.055 4.768 4.402 1.107 1.129 15.83 15.521 17.358 19.723.174.48-.128 1.538-.174 2.056-.07.783-.142 1.566-.215 2.349-.135 1.441-.276 2.882-.405 4.323-.246 2.745-.454 5.495-.5 8.252-.09 5.357.345 11.074 1.505 16.629" style="fill:#f2692b" transform="translate(52.049 83.32)"/>
  <path d="M0 28.166c-2.716-.771-5.155-1.924-5.747-5.036-.355-1.859-1.521-1.512-2.854-1.532-6.136-.101-8.767-2.518-9.18-8.689-.122-1.808-.55-2.68-2.066-3.122-2.653-.774-3.211-3.689-2.279-5.746C-16.708.031-2.622 0 2.691 3.991c2.233 1.678 2.632 4.026 2.006 6.513C3.292 16.07 1.178 20.248 0 28.166" style="fill:#fff8f0" transform="translate(51.837 46.57)"/>
  <path d="M0-9.434c2.449.542 8.638.585 10.082.733 5.173.532 7.44 3.327 6.864 8.621C9.94.426-4.181.718-11.184.282c-.087-4.294 7.11-7.137 8.909-10.434.692.308 1.469.539 2.275.718" style="fill:#462d3b;fill-rule:nonzero" transform="translate(99.703 140.753)"/>
  <path d="M-4.312-.253C-1.677 3.69.123 8.743.207 13.328c.086 4.586-1.552 8.794-4.519 10.789 6.134-3.613 8.601-12.18 1.258-25.45l-1.258 1.08Z" style="fill:#b84425;fill-rule:nonzero" transform="scale(1 -1) rotate(21.849 384.234 198.132)"/>
  <path d="M0-16.582a8.06 8.06 0 0 0-1.977 2.08c-.13.195-.241.396-.355.605-.12.197.198.736.144.981-.225.408-.507.772-.758 1.165a237.147 237.147 0 0 1-3.092 4.587c-1.666 2.395-3.353 4.779-5.121 7.092-.768 1.004-2.218 1.174-3.216.396L-14.38.32c-.999-.779-1.187-2.23-.397-3.22 1.818-2.277 3.717-4.49 5.638-6.684a236.353 236.353 0 0 1 3.704-4.111c.316-.336.608-.698.949-1.017.227-.11.828.065.987-.093.172-.165.341-.319.494-.489.633-.681 1.194-1.499 1.553-2.39L0-16.582Z" style="fill:#8cc44a;fill-rule:nonzero" transform="translate(129.915 97.485)"/>
  <path d="M0 1.174c.227-.109.828.065.988-.092.172-.165.341-.319.493-.489.634-.681 1.194-1.499 1.554-2.39L4.486-.695a8.077 8.077 0 0 0-1.977 2.08c-.13.195-.241.395-.355.604-.12.198.198.737.145.982C1.741 2.139.968 1.548 0 1.174" style="fill:#58424e;fill-rule:nonzero" transform="translate(125.429 81.599)"/>
  <path d="M0 10.309c-6.574 7.113-14.586 8.946-17.05 7.098l-4.01-3.043c3.759 3.683 12.306 1.061 19.089-5.852C4.419 2.004 6.44-5.245 4.895-8.946L7.16-4.337C8.058-2.305 5.833 3.999 0 10.309" style="fill:#58424e;fill-rule:nonzero" transform="translate(147.537 63.93)"/>
  <path d="M0 10.302c-5.934 6.049-13.125 8.614-16.059 5.74-2.932-2.884-.498-10.115 5.446-16.162C-4.679-6.169 2.512-8.733 5.443-5.85 8.368-2.978 5.932 4.263 0 10.302M6.486-7.926C3.207-10.502-5.399-8.65-12.186-1.728c-6.792 6.911-9.679 15.168-5.93 18.848 3.759 3.684 12.305 1.062 19.089-5.851 6.795-6.92 9.642-15.943 5.513-19.195" style="fill:#8f8188;fill-rule:nonzero" transform="translate(144.593 61.174)"/>
  <path d="M-5.307-2.227c-8.473.001-15.341 3.33-15.342 7.439 0 4.108 6.868 7.439 15.342 7.44 8.472-.001 15.341-3.331 15.341-7.439 0-4.108-6.868-7.439-15.341-7.44" style="fill:#fff;fill-rule:nonzero" transform="scale(1 -1) rotate(45.517 152.182 141.805)" opacity=".6"/>
  <path d="M0-18.504c-3.119-2.379-9.98.221-15.685 6.033-5.688 5.793-8.16 12.68-5.779 15.772a2.689 2.689 0 0 1-.398-.331c-2.93-2.874-.494-10.115 5.45-16.158 5.934-6.045 13.125-8.617 16.054-5.731.125.128.248.268.358.415" style="fill:#58424e;fill-rule:nonzero" transform="translate(150.393 74.242)"/>
  <path d="m0 10.133-.929-.417c-.279-.119-.652-.275-.718-.276l-.004.002.064.03.097.036c.116.041.237.075.358.103l.09.018.013.005.025.008.05.014.11.025c.159.029.371.048.578.027.433-.028.753-.177.786-.165.044.004-.129.166-.426.441a8.195 8.195 0 0 0-.55.576c-.158.183-.586.624-.983.981-.399.36-.725.643-1.117.952-.795.614-1.761 1.331-3.277 1.911a8.723 8.723 0 0 1-2.75.556 8.574 8.574 0 0 1-1.648-.108 12.536 12.536 0 0 1-.827-.184 13.827 13.827 0 0 1-.707-.227c-1.565-.606-2.344-1.126-3.203-1.648a29.332 29.332 0 0 1-2.33-1.638l.465.369-5.812-3.557-.928-.568a6.14 6.14 0 1 1 7.883-9.211c.756.89 1.552 1.727 2.369 2.532.403.412.82.803 1.238 1.191.421.386.827.793 1.261 1.16l.366.291c.348.402.863.907 1.283 1.299.422.377.942.724.974.783a.168.168 0 0 0-.071-.003.507.507 0 0 0-.147-.018c-.098-.011-.189.001-.264.008-.147.014-.194.051-.147.046.098-.002.492-.175.958-.484.237-.156.494-.374.687-.535.19-.17.333-.29.673-.641.328-.343.697-.689 1.021-.986.269-.233.599-.616 1.205-1.06A7.423 7.423 0 0 1-1.635.549 7.19 7.19 0 0 1 .045.38l.397.014.196.01.098.006.049.004.128.025c.17.034.341.075.509.124l.24.067.343.104c.68.206 1.03.304 1.486.416.426.118.83.187 1.279.295a4.982 4.982 0 0 1 3.685 6.006 4.982 4.982 0 0 1-6.861 3.398L0 10.133Z" style="fill:#462d3b;fill-rule:nonzero" transform="translate(115.989 84.432)"/>
  <path d="M0-17.325a39.428 39.428 0 0 1 7.306 7.986l-2.709 1.27c-.489.229-1.004.481-1.29.939-.285.459-.207 1.184.29 1.396-.697.078-1.398.344-1.862.869-.464.525-.633 1.341-.286 1.949.273.478.844.876.747 1.417a3.023 3.023 0 0 1-2.071-.347A5.403 5.403 0 0 0-.069 0C-1.99-.532-5.525-1.522-7.097-2.749c-1.682-1.314-3.941-3.741-5.18-5.759" style="fill:#f2692b" transform="translate(95.936 93.991)"/>
  <path d="M0-3.204c3.465 2.057 4.351 4.652 5.567 8.653-.182-.599-6.262 1.159-6.72 1.287-3.528.994-7.052 2.011-10.447 3.399-3.602 1.472-6.162 2.379-9.545 4.264-2.471 1.376-5.326 1.94-7.897.464-1.56-.895-2.74-2.338-3.599-3.895-1.498-3.184-4.514-7.156-6.875-10.724-3.146-4.736-6.491-9.01-8.474-10.76-1.366-1.193-3.217-2.783-3.48-4.494 3.182-1.854 6.523-2.536 10.107-2.798C-28.081-19.543-14.771-14.133 0-3.204" style="fill:#fff8f0;fill-rule:nonzero" transform="translate(130.546 62.57)"/>
  <path d="M0 49.457c1.056-3.423 2.474-7.088 4.579-10.029 2.171-3.034 5.104-6.236 9.107-6.348 6.512-.185 12.503 4.749 13.895 11.028.652.257 1.414-.169 1.773-.771.763-1.281.825-3.52 1.131-4.986.638-3.058 1.166-6.29 1.277-9.471.035-.984.481-6.603-.681-7.019-.983-.352-1.323-1.544-1.068-2.674-.035-1.973-2.784-6.453-5.046-8.165-.035.039-.079.078-.11.115-.79-.257-1.929-1.138-1.833-2.541.069-.079.146-.15.219-.226-2.712-2.378-6.36-4.6-11.267-6.18C7.644.796 3.926.044.561 0c-.807 1.155-2.246 1.127-3.023.83 0-.011-.003-.03-.004-.043-2.868.057-7.495 1.858-8.717 3.321-.509 1.037-2.032 1.568-3.023 1.229-.199.156-.397.302-.596.466-4.152 3.415-8.22 8.593-13.439 14.922-.888 1.076-1.448 1.998-1.104 2.92 3.187-1.844 6.535-2.532 10.113-2.789 7.524-.539 15.504 5.444 14.98 13.47-.28 4.293-.515 8.168-2.054 12.954 2.282-.96 4.502-.03 5.48 1.147L0 49.457Z" style="fill:#f2692b;fill-rule:nonzero" transform="translate(108.418 23.91)"/>
  <path d="M1.752-9.959c1.976.294 1.825 2.949 1.953 4.735.164 2.248-.528 4.758-1.953 6.728C1.133-.298-2.549-3.63-5.209-4.704c.436-.989 4.044-5.69 6.961-5.255" style="fill:#fff8f0;fill-rule:nonzero" transform="scale(-1 1) rotate(-20.871 24.24 283.49)"/>
  <path d="M0-5.393c-.025.011-.051.018-.076.028-1.389 1.39-.785 3.241.405 4.092C1.596-.367 3.136.348 4.965-.55c1.264-.621 1.588-1.539 1.339-2.667-.116-.527-.325-.805-.74-1.131a6.184 6.184 0 0 0-1.121-.692c-.893-.435-1.893-.701-2.891-.675A4.22 4.22 0 0 0 0-5.393" style="fill:#462d3b;fill-rule:nonzero" transform="translate(102.268 76.485)"/>
  <path d="M0 13.09c-.629-2.348-.382-4.94.572-6.982.756-1.622 1.562-4.158 3.512-3.729 2.881.633 4.577 6.311 4.633 7.39 0 .012.004.032.004.043.777.297 2.216.325 3.022-.83l-.002-.024c-.184-4.431-2.898-6.214-5.474-9.111C5.01-1.567 2.963-1.206 1.429-.198c-3.87 2.541-5.756 10.231-4.467 14.513l.015.004c.99.338 2.513-.192 3.023-1.229" style="fill:#462d3b;fill-rule:nonzero" transform="translate(97.235 14.929)"/>
  <path d="M0-1.972c.453-1.44.705-2.414.735-3.079C.66-5.49.517-5.874.289-6.176c-.208-.129-.487-.206-.848-.25-2.885-.349-7.721 1.603-9.088 3.064C-7.385-1.65-4.636 2.83-4.602 4.803-2.641 3.371-.676.179 0-1.972" style="fill:#fff8f0;fill-rule:nonzero" transform="translate(143.032 38.294)"/>
  <path d="M0-4.218c.031-.037.075-.076.109-.114 1.368-1.461 6.203-3.413 9.089-3.065.361.044.64.121.847.25.33.204.474.548.447 1.125-.031.665-.283 1.639-.735 3.079C9.081-.791 7.116 2.4 5.155 3.833c-.254 1.13.086 2.321 1.069 2.674l.006.003c3.692-2.527 8.047-9.255 7.332-13.831-.283-1.813-.233-3.251-3.019-3.316-3.793-.091-9.178.5-12.158 3.652-.072.077-.149.147-.218.226C-1.93-5.356-.791-4.475 0-4.218" style="fill:#462d3b;fill-rule:nonzero" transform="translate(133.275 39.265)"/>
  <path d="M.978-.18C3.12-.007 4.069 1.269 3.96 3.541 3.709 5.205 2.05 5.638.978 5.621c-2.425-.038-3.491-1.61-3.046-3.473C-1.742.778-.69-.313.978-.18" style="fill:#462d3b;fill-rule:nonzero" transform="scale(1 -1) rotate(-18.86 -136.98 -401.559)"/>
  <path d="M-5.306 1.235c1.957.842 3.815.783 5.593 0" style="fill:none;fill-rule:nonzero;stroke:#462d3b;stroke-width:2px;stroke-linecap:round;stroke-linejoin:round" transform="scale(-1 1) rotate(-26.203 63.127 229.622)"/>
</svg>
