<?xml version="1.0" encoding="UTF-8" standalone="no"?>
<svg viewBox="0 0 267 151" xmlns="http://www.w3.org/2000/svg" xmlns:xlink="http://www.w3.org/1999/xlink" xml:space="preserve" style="fill-rule:evenodd;clip-rule:evenodd;stroke-miterlimit:10">
  <defs>
    <path style="fill:none" d="M0 0h266v150H0z" id="reuse-0"/>
    <path d="M-30.181-34.024h68.536" style="fill:none;fill-rule:nonzero;stroke:#b9dc94;stroke-width:1.05px" id="reuse-1"/>
    <path d="M-98.463 0H0" style="fill:none;fill-rule:nonzero;stroke:#b9dc94;stroke-width:1.05px" id="reuse-2"/>
    <path d="M0 6.436h-12.125c-.519 0-.956-.389-1.015-.904l-.508-4.392A1.022 1.022 0 0 1-12.633 0H-.507C.011 0 .448.39.507.905l.508 4.392A1.022 1.022 0 0 1 0 6.436" style="fill:#c5e2a6;fill-rule:nonzero" id="reuse-3"/>
    <path d="M-2.758-2.758c-1.898-.211-3.435.852-3.435 2.374 0 1.524 1.537 2.929 3.435 3.142C-.862 2.97.676 1.905.676.383c0-1.523-1.538-2.931-3.434-3.141" style="fill:#fff;fill-rule:nonzero" id="reuse-4"/>
    <path d="M0 2.806c.137 1.255.797 2.348 1.664 2.939v2.436h-11.64V-5.375h11.64v4.888C.536-.103-.182 1.226 0 2.806" style="fill:#8cc44a;fill-rule:nonzero" id="reuse-5"/>
  </defs>
  <g transform="translate(.5 .75)">
    <use style="fill:none" xlink:href="#reuse-0"/>
    <clipPath id="a">
      <use xlink:href="#reuse-0"/>
    </clipPath>
    <g clip-path="url(#a)">
      <path d="M0 96.87 21.091 6.188C21.886 2.77 20.277 0 17.498 0h-99.979c-2.78 0-5.678 2.77-6.473 6.188l-21.09 90.682H0Z" style="fill:#c8c1c5;fill-rule:nonzero" transform="translate(149.795 25.769)"/>
      <path d="M0-16.505h-99.979c-2.779 0-5.756 2.805-6.472 6.188L-108.851 0H1.539l2.197-10.38c.716-3.382-.957-6.125-3.736-6.125" style="fill:#7d6c75;fill-rule:nonzero" transform="translate(167.293 42.274)"/>
      <path d="M0-10.082c9.509 8.25 19.033 16.687 30.209 22.644 10.895 5.805 23.773 7.892 36.017 6.334a61.706 61.706 0 0 0 7.9-1.537C84.645 14.594 93.649 6.27 98.982-3.036c2.86-4.993 4.707-10.552 5.486-16.235.538-3.922.172-7.576-.225-11.265-2.389 6.403-9.144 8.498-11.742 6.826-.94-.604-1.098-.329-1.763.272-2.636 2.548-7.379 1.695-9.778-.863-.348-.364-.972-.618-1.448-.525-2.04.404-4.917.937-5.735-5.252-.022-.124-.045-.249-.056-.382-3.533 5.706-5.723 9.641-11.668 13.195C47.418-8.516 26.5-6.209 4.447-21.936" style="fill:#f2692b" transform="translate(152.286 112.269)"/>
      <path d="M0 7.675C-1.685 1.81-5.538-3.205-10.694-6.468c-1.638-1.036-3.344-2.01-4.887-2.69-2.297-1.021-4.795-.355-6.18 2.145a80.163 80.163 0 0 1-1.832 3.165c-1.355 2.29-2.482 4.389-3.814 6.66-.287.488-.6 1.018-.903 1.561a111.19 111.19 0 0 0-2.086 3.911c.011.135.035.259.057.384.818 6.189 3.694 5.655 5.735 5.251.476-.094 1.101.161 1.449.526 2.399 2.556 7.14 3.409 9.778.861.664-.601.821-.877 1.761-.274 2.007 1.29 4.977.248 6.814-.85a11.553 11.553 0 0 0 3.552-3.331c.504-.73 1.131-1.798 1.393-2.652C.101 8.034.053 7.86 0 7.675" style="fill:#fff8f0" transform="translate(256.386 73.534)"/>
      <path d="M0-18.962c10.761.542 20.634-3.583 30.494-9.21 7.038-4.018 14.398-7.986 22.188-9.585 9.523-1.955 23.472.929 29.955 8.555C91.645-18.607 92.845-5.28 90.176 7.851c-.429 2.112-1.1 4.086-1.866 6.032a8.79 8.79 0 0 1-7.53 5.563c-17.603 1.304-49.691.314-80.903-.539l-32.95-9.79L0-18.962Z" style="fill:#f2692b;fill-rule:nonzero" transform="translate(69.273 110.177)"/>
      <path d="M0-34.909c-2.046-1.708-4.805 3.757-7.498 3.479-4.393-.457-17.805.195-29.253 1.714v24.989a49.164 49.164 0 0 1 3.263 2.491c4.342 3.162 9.541 3.944 12.075-.812a27.287 27.287 0 0 1 2.979-4.475c2.98-3.636 6.878-6.369 11.132-8.32 1.747-.801 3.551-1.473 5.378-2.068 1.59-.519 4.276-1.313 5.257-2.719C5.145-23.223 1.865-33.352 0-34.909" style="fill:#b84425" transform="translate(72.537 127.117)"/>
      <path d="M0-7.629C-7.558-3.369-13.7-.292-13.7-.292L-2.904 0 0-7.629Z" style="fill:#b84425;fill-rule:nonzero" transform="translate(89.913 129.57)"/>
      <path d="M0 13.076c3.924-1.536 3.516-1.284 7.628-1.379 5.141-.119 14.464 4.775 19.447 3.454 1.394-.256 7.9-3.25 10.087-4.682C39.407 8.997 27.864-.723 26.897-3.396c-2.034.985-3.843 3.373-6.17 4.006C14.832 2.212 6.989 1.929.529 3.589c-.864.222-1.643.75-2.517.924-2.047.406-4.281-.483-5.617-2.235C-9.14.264-9.858-1.278-12.359-1.914c-2.51-.638-5.741-.862-8.263-.691-2.626.499-4.611 1.219-6.328 2.734-1.693 1.493-2.468 4.768-1.639 7.327.862 2.661 3.102 3.149 5.268 3.057 1.538-.063 3.801-.652 4.753-.717 0 0-1.047 5.498 5.368 5.909 4.572.294 8.479-.578 12.668-2.408.176-.077.353-.151.532-.221" style="fill:#462d3b" transform="translate(42.31 117.145)"/>
      <use xlink:href="#b" x="24.334" y="129.037" width="30.829" height="8.358" transform="matrix(.99449 0 0 .9287 -.5 -.75)"/>
      <path d="M0-31.683c4.11.546 11.117 5.228 11.075 10.783 0 0-.791 1.484-1.746 1.75C3.875-17.625-8.187-15.187-14.73-3.715-17.401.965-22.597.764-26.845-2.523c-6.292-5.617-17.861-11.973-22.393-13.449-1.785-.583-4.18-1.349-5.129-2.855 2.279-3.018 4.905-6.631 8.116-8.46C-39.19-31.304-7.234-32.648 0-31.683" style="fill:#fff8f0" transform="translate(63.777 125.792)"/>
      <path d="M0 24.122c-.7-.73-.406-1.792-.132-3.196 1.715-8.809 3.62-14.465 6.178-19.355 4.864-9.282 11.873-13.708 24.504-14.29 16.853-.776 24.435 8.029 26.027 10.868 6.347 7.545 7.683 13.874 8.721 21.002.169 1.166.634 2.713-.148 3.369-2.231-3.612-7.071-7.118-11.18-7.665-7.237-.965-14.061 1.349-16.256 11.162-.809 3.62-1.38 6.69-.997 10.34-2.342-.021-5.033-.626-6.794 1.26-.487-5.583-.961-7.479-2.502-11.847-2.743-7.777-11.067-9.626-18.496-7.34C5.428 19.506 2.28 21.103 0 24.122" style="fill:#f2692b" transform="translate(9.41 82.844)"/>
      <path d="M0 12.961c-1.546-1.96-3.423-3.908-3.342-6.217.062-1.832.187-5.808 2.193-6.272C.884 0 4.759 1.141 6.045 3.169c.537.845 1.175 1.962 1.589 2.883C4.918 6.871.618 10.923 0 12.961" style="fill:#fff8f0" transform="translate(18.23 68.313)"/>
      <path d="M-3.681-5.731c-1.525.087-2.509.735-2.584 2.426-.096 2.09 1.209 3.259 2.584 4.087 1.292.781 3.283.603 4.022-1.274.021-2.582-2.497-4.786-4.022-5.239" style="fill:#462d3b" transform="scale(-1 1) rotate(-43.544 131.085 109.125)"/>
      <path d="M0 13.456c-.066 1.187-1.309 2.307-2.389 2.377C-5.342 12.312-6.658 4.308-4.01.354-2.961-1.212-1.166-2.377.6-1.55 4.219.15 7.521.735 9.486 4.862c-.299 1.411-1.675 1.963-2.534 1.997-.414-.922-4.378-5.712-7.403-5.143-2.024.38-1.765 3.095-1.828 4.928-.079 2.308.733 4.852 2.279 6.812" style="fill:#462d3b" transform="translate(18.23 67.818)"/>
      <path d="M0 12.746c1.284-2.141 2.899-4.312 2.527-6.591C2.232 4.347 1.604.418-.445.212-2.521 0-6.22 1.625-7.238 3.8c-.425.906-.986 2.214-1.279 3.182 2.798.465 7.645 3.821 8.517 5.764" style="fill:#fff8f0" transform="translate(63.94 66.151)"/>
      <path d="M0 14.745c.216 1.17 1.591 2.123 2.67 2.054C5.154 12.933 6.002 4.875 3.478.85 2.477-.746 1.942-2.123-.729-1.064-4.452.411-9.483 3.227-10.909 7.569c.476 1.36 1.913 1.735 2.768 1.658.557-1.874 4.49-5.843 7.447-6.696 1.591-.458 1.961.262 2.327 3.975.226 2.3-.349 6.098-1.633 8.239" style="fill:#462d3b" transform="translate(63.94 64.153)"/>
      <path d="M0 5.753a4.93 4.93 0 0 0 1.529-.059c2.056-.403 3.555-1.985 3.912-4.13A1.3 1.3 0 0 0 4.374.068C3.682-.06 2.997.43 2.876 1.137 2.701 2.202 2.01 2.951 1.03 3.143a2.296 2.296 0 0 1-2.436-1.092A1.3 1.3 0 1 0-3.62 3.412 4.917 4.917 0 0 0 0 5.753" style="fill:#462d3b;fill-rule:nonzero" transform="translate(56.087 103.569)"/>
      <path d="M0 4.622c.464.167.961.265 1.477.283 2.094.078 3.912-1.12 4.751-3.126A1.301 1.301 0 0 0 5.529.078a1.302 1.302 0 0 0-1.7.7c-.415.994-1.259 1.568-2.255 1.53C.798 2.278-.168 1.839-.549.689a1.3 1.3 0 1 0-2.468.819C-2.522 3-1.402 4.124 0 4.622" style="fill:#462d3b;fill-rule:nonzero" transform="translate(26.164 106.781)"/>
      <path d="M0-25.22a48.682 48.682 0 0 1-10.861 7.308c-1.401.689-2.221 1.804-2.79 3.268-.05.128-.097.264-.078.4.075.539.886.439 1.376.673.555.266.669.987.746 1.597.077.609.297 1.337.896 1.475.204.047.424.012.619.089.266.103.415.382.523.647.203.5.34 1.026.406 1.562.061.501.082 1.058.438 1.416.722.72 2.203.047 2.848.838.301.371.264.899.291 1.375.026.478.215 1.039.682 1.146C-3.63-3.137-2.811-1.219-2.493 0 4.093-1.002 8.433-4.599 12.664-8.517" style="fill:#f2692b" transform="translate(81.48 128.234)"/>
      <path d="M0-12.06c-3.13.692-6.6.748-8.445.937-6.612.68-9.51 4.252-8.774 11.021C-8.263.544 5.344.918 14.295.36c.111-5.489-9.088-9.123-11.387-13.338-.886.394-1.879.689-2.908.918" style="fill:#462d3b;fill-rule:nonzero" transform="translate(121.537 129.808)"/>
      <path d="M5.843-.519C2.361 2.969.079 7.729-.053 12.655c-.133 4.926 2.003 9.948 5.896 12.971C-2.207 19.929-5.414 9.958 4.3-2.221L5.843-.519Z" style="fill:#b84425;fill-rule:nonzero" transform="scale(1 -1) rotate(-28.917 -160.408 -288.643)"/>
      <path d="M0 19.24c-5.63 3.88-12.76 3.22-17.75-1.76 1.271-1.07 2.551-2.14 3.92-3.28 4.931 3.19 9.24 3.04 12.44-.74 2.73-3.22 2.67-8.03-.139-11.19A9.323 9.323 0 0 0-3.35.67C-3 .1-2.64-.489-2.26-1.1v-.01c.42-.83.93-1.8 1.46-2.77 2.51 1.5 4.37 3.7 5.401 5.97C7.4 8.21 5.49 15.47 0 19.24" style="fill:#b84425;fill-rule:nonzero" transform="translate(228.249 82.93)"/>
      <path d="M-9.718-11.248a13.708 13.708 0 0 0-1.031 2.91c-.745 3.201-.404 6.302 1.031 9.298 1.046 2.173 2.698 3.99 4.702 5.307-2.838-5.845-4.3-11.764-4.702-17.515" style="fill:#b84425;fill-rule:nonzero" transform="scale(-1 1) rotate(-73.584 -29.92 171.897)"/>
      <path d="M0 6.87c-2.33 2.16-6.01 2.05-8.189-.29-.131-.14-.25-.28-.361-.43 3.71-2.42 5.861-5.051 7.99-8.31.29.19.56.42.81.68C2.53.86 2.42 4.63 0 6.87" style="fill:#b84425;fill-rule:nonzero" transform="translate(223.909 88.21)"/>
      <path d="M0 0h.001H0Z" style="fill:none;fill-rule:nonzero;stroke:#4a4a4a;stroke-width:1px" transform="translate(202.39 71.986)"/>
      <path d="M0 35.721c.656 3.539 3.877 5.712 7.184 4.846 3.504-.918 5.37-4.301 4.047-7.778-.478-1.258-.181-2.064.418-3.054 2.334-3.857 4.621-7.742 7.007-11.754-5.559-2.788-7.593-6.487-6.25-11.015 1.185-3.99 5.176-6.602 9.241-5.988 2.029.306 3.812 1.137 5.202 2.721 2.103 2.399 2.578 5.199 1.936 8.318l4.801 1.303c2.045-5.61-.355-12.164-5.592-15.529-5.454-3.503-12.519-2.763-17.151 1.8-2.418 2.383-3.741 5.291-4.049 8.655-.436 4.761 1.531 8.601 4.836 11.888l-5.254 8.811c-.486.036-.782.041-1.071.082-3.455.49-5.886 3.561-5.305 6.694" style="fill:#4a4a4a;fill-rule:nonzero" transform="translate(183.734 54.006)"/>
      <path d="M0 35.721c.656 3.539 3.877 5.712 7.184 4.846 3.504-.918 5.37-4.301 4.047-7.778-.478-1.258-.181-2.064.418-3.054 2.334-3.857 4.621-7.742 7.007-11.754-5.559-2.788-7.593-6.487-6.25-11.015 1.185-3.99 5.176-6.602 9.241-5.988 2.029.306 3.812 1.137 5.202 2.721 2.103 2.399 2.578 5.199 1.936 8.318l4.801 1.303c2.045-5.61-.355-12.164-5.592-15.529-5.454-3.503-12.519-2.763-17.151 1.8-2.418 2.383-3.741 5.291-4.049 8.655-.436 4.761 1.531 8.601 4.836 11.888l-5.254 8.811c-.486.036-.782.041-1.071.082-3.455.49-5.886 3.561-5.305 6.694Z" style="fill:none;fill-rule:nonzero;stroke:#4a4a4a;stroke-width:1px" transform="translate(183.734 54.006)"/>
      <path d="M0 4.945C-2.313-.123-8.762-4.858-17.314-2.212c-1.693-2.983-3.4-5.994-5.082-8.961.263-.657.504-1.194.691-1.748.672-1.989.267-3.805-1.01-5.418-1.561-1.974-4.287-2.691-6.608-1.802-2.345.896-3.844 3.197-3.742 5.742.103 2.574 1.831 4.872 4.506 5.335 1.602.278 2.387 1.039 3.097 2.35 2.108 3.889 4.323 7.721 6.5 11.583 5.247-3.498 9.589-3.387 12.83.257 2.809 3.157 2.867 7.965.138 11.191-3.2 3.78-7.512 3.931-12.441.738l-3.916 3.277c4.992 4.981 12.115 5.643 17.747 1.765C.884 18.32 2.794 11.068 0 4.945" style="fill:#4a4a4a;fill-rule:nonzero" transform="translate(231.602 78.414)"/>
      <path d="M0 4.945C-2.313-.123-8.762-4.858-17.314-2.212c-1.693-2.983-3.4-5.994-5.082-8.961.263-.657.504-1.194.691-1.748.672-1.989.267-3.805-1.01-5.418-1.561-1.974-4.287-2.691-6.608-1.802-2.345.896-3.844 3.197-3.742 5.742.103 2.574 1.831 4.872 4.506 5.335 1.602.278 2.387 1.039 3.097 2.35 2.108 3.889 4.323 7.721 6.5 11.583 5.247-3.498 9.589-3.387 12.83.257 2.809 3.157 2.867 7.965.138 11.191-3.2 3.78-7.512 3.931-12.441.738l-3.916 3.277c4.992 4.981 12.115 5.643 17.747 1.765C.884 18.32 2.794 11.068 0 4.945Z" style="fill:none;fill-rule:nonzero;stroke:#4a4a4a;stroke-width:1px" transform="translate(231.602 78.414)"/>
      <path d="M0 7.612c2.181 2.332 5.863 2.447 8.193.283 2.416-2.242 2.526-6.01.244-8.351C6.202-2.747 2.385-2.966.311-.54-.949.934-2.24 1.107-3.912 1.081c-4.283-.067-8.568-.022-12.851-.022.279 6.025-2 9.779-6.516 10.67-4.423.873-8.497-1.385-9.931-5.502-1.629-4.678.386-8.421 6.206-11.39-.437-1.587-.881-3.193-1.318-4.784-6.345 1.383-11.104 7.538-10.613 14.463.434 6.113 5.365 11.541 11.396 12.514 3.274.529 6.352-.021 9.207-1.64 3.673-2.084 5.805-5.361 6.792-9.42h10.296c.443.591.796 1.162 1.244 1.642" style="fill:#4a4a4a;fill-rule:nonzero" transform="translate(214.47 85.52)"/>
      <path d="M0 7.612c2.181 2.332 5.863 2.447 8.193.283 2.416-2.242 2.526-6.01.244-8.351C6.202-2.747 2.385-2.966.311-.54-.949.934-2.24 1.107-3.912 1.081c-4.283-.067-8.568-.022-12.851-.022.279 6.025-2 9.779-6.516 10.67-4.423.873-8.497-1.385-9.931-5.502-1.629-4.678.386-8.421 6.206-11.39-.437-1.587-.881-3.193-1.318-4.784-6.345 1.383-11.104 7.538-10.613 14.463.434 6.113 5.365 11.541 11.396 12.514 3.274.529 6.352-.021 9.207-1.64 3.673-2.084 5.805-5.361 6.792-9.42h10.296c.443.591.796 1.162 1.244 1.642Z" style="fill:none;fill-rule:nonzero;stroke:#4a4a4a;stroke-width:1px" transform="translate(214.47 85.52)"/>
      <path d="M0 .24c-2.387 4.012-4.673 7.897-7.007 11.754-.599.99-.896 1.796-.418 3.055 1.322 3.476-.543 6.859-4.048 7.777-3.306.866-6.527-1.307-7.183-4.846-.581-3.133 1.849-6.204 5.304-6.694.289-.041.585-.046 1.072-.082l5.254-8.811c-3.305-3.286-5.272-7.127-4.836-11.887.307-3.365 1.631-6.272 4.049-8.656 4.631-4.563 11.697-5.302 17.151-1.799 5.237 3.364 7.637 9.918 5.592 15.528l-4.801-1.302c.642-3.12.167-5.92-1.937-8.319-1.389-1.584-3.172-2.415-5.201-2.72-4.065-.615-8.056 1.997-9.241 5.987C-7.594-6.247-5.56-2.547 0 .24Z" style="fill:#c73a63;fill-rule:nonzero" transform="translate(202.39 71.746)"/>
      <path d="m0-27.291 5.081 8.96c8.553-2.645 15.001 2.089 17.315 7.158 2.793 6.123.883 13.375-4.604 17.153C12.159 9.857 5.036 9.195.045 4.213L3.961.937c4.929 3.192 9.24 3.042 12.44-.738 2.73-3.226 2.671-8.034-.137-11.192-3.242-3.643-7.583-3.755-12.83-.256-2.177-3.863-4.392-7.694-6.5-11.584-.711-1.311-1.496-2.071-3.098-2.349-2.675-.463-4.402-2.761-4.506-5.335-.101-2.545 1.399-4.846 3.742-5.743 2.322-.888 5.047-.171 6.609 1.803C.957-32.844 1.362-31.029.69-29.04c-.186.555-.427 1.092-.69 1.749" style="fill:#4b4b4b;fill-rule:nonzero" transform="translate(209.207 94.533)"/>
      <path d="M0 4.328h-10.296c-.987 4.059-3.119 7.336-6.792 9.42-2.854 1.619-5.933 2.169-9.207 1.64-6.031-.973-10.962-6.402-11.396-12.514-.491-6.925 4.269-13.08 10.613-14.463.437 1.591.881 3.196 1.318 4.783-5.821 2.97-7.835 6.712-6.206 11.391 1.434 4.117 5.508 6.375 9.931 5.502 4.517-.892 6.795-4.646 6.516-10.67 4.283 0 8.568-.044 12.851.021C-.996-.535.295-.708 1.555-2.183c2.074-2.426 5.891-2.207 8.125.084 2.283 2.342 2.174 6.11-.242 8.352-2.331 2.164-6.013 2.049-8.194-.283C.796 5.489.443 4.919 0 4.328" style="fill:#4a4a4a;fill-rule:nonzero" transform="translate(213.226 87.163)"/>
      <path d="M0 106.512h-110.044L-121.639 6.167c-.394-3.406 1.541-6.167 4.32-6.167h99.979c2.779 0 5.352 2.761 5.745 6.167L0 106.512Z" style="fill:#fff;fill-rule:nonzero" transform="translate(185.946 25.66)"/>
      <path d="M0-16.616h-99.979c-2.779 0-4.713 2.761-4.32 6.167L-103.091 0H6.953L5.746-10.449C5.352-13.855 2.78-16.616 0-16.616" style="fill:#8cc44a;fill-rule:nonzero" transform="translate(168.606 42.277)"/>
      <use style="fill:none;fill-rule:nonzero;stroke:#b9dc94;stroke-width:1.05px" transform="scale(1 -1) rotate(-83.15 13.646 -114.354)" xlink:href="#reuse-1"/>
      <use style="fill:none;fill-rule:nonzero;stroke:#b9dc94;stroke-width:1.05px" transform="matrix(-1 0 0 1 74.754 71.712)" xlink:href="#reuse-2"/>
      <use style="fill:none;fill-rule:nonzero;stroke:#b9dc94;stroke-width:1.05px" transform="matrix(-1 0 0 1 76.52 86.415)" xlink:href="#reuse-2"/>
      <use style="fill:none;fill-rule:nonzero;stroke:#b9dc94;stroke-width:1.05px" transform="matrix(-1 0 0 1 78.286 101.118)" xlink:href="#reuse-2"/>
      <use style="fill:none;fill-rule:nonzero;stroke:#b9dc94;stroke-width:1.05px" transform="matrix(-1 0 0 1 80.052 115.82)" xlink:href="#reuse-2"/>
      <use style="fill:none;fill-rule:nonzero;stroke:#b9dc94;stroke-width:1.05px" transform="scale(1 -1) rotate(-83.15 24.65 -126.76)" xlink:href="#reuse-1"/>
      <use style="fill:none;fill-rule:nonzero;stroke:#b9dc94;stroke-width:1.05px" transform="scale(1 -1) rotate(-83.15 35.655 -139.165)" xlink:href="#reuse-1"/>
      <use style="fill:none;fill-rule:nonzero;stroke:#b9dc94;stroke-width:1.05px" transform="scale(1 -1) rotate(-83.15 46.66 -151.57)" xlink:href="#reuse-1"/>
      <use style="fill:#c5e2a6;fill-rule:nonzero" transform="translate(84.74 48.714)" xlink:href="#reuse-3"/>
      <use style="fill:#c5e2a6;fill-rule:nonzero" transform="translate(106.082 48.714)" xlink:href="#reuse-3"/>
      <use style="fill:#c5e2a6;fill-rule:nonzero" transform="translate(127.425 48.714)" xlink:href="#reuse-3"/>
      <use style="fill:#c5e2a6;fill-rule:nonzero" transform="translate(148.767 48.714)" xlink:href="#reuse-3"/>
      <path d="M0 6.436h-12.125a1.02 1.02 0 0 1-1.015-.904l-.508-4.392A1.022 1.022 0 0 1-12.633 0H-.507C.011 0 .448.39.507.905l.508 4.392A1.022 1.022 0 0 1 0 6.436" style="fill:#c5e2a6;fill-rule:nonzero" transform="translate(170.109 48.714)"/>
      <path d="M-2.758-2.758c-1.896-.212-3.434.853-3.434 2.375 0 1.523 1.538 2.929 3.434 3.142C-.861 2.969.677 1.906.677.384c0-1.523-1.538-2.931-3.435-3.142" style="fill:#fff;fill-rule:nonzero" transform="matrix(0 -1 -1 0 163.153 31.17)"/>
      <use style="fill:#fff;fill-rule:nonzero" transform="matrix(0 -1 -1 0 141.859 31.17)" xlink:href="#reuse-4"/>
      <path d="M-2.758-2.758c-1.898-.211-3.435.852-3.435 2.374 0 1.524 1.537 2.931 3.435 3.142C-.862 2.97.676 1.906.676.383c0-1.523-1.538-2.929-3.434-3.141" style="fill:#fff;fill-rule:nonzero" transform="matrix(0 -1 -1 0 120.566 31.17)"/>
      <path d="M-2.758-2.758c-1.897-.212-3.435.852-3.435 2.375 0 1.523 1.538 2.929 3.435 3.141C-.862 2.97.677 1.906.677.383c0-1.523-1.539-2.93-3.435-3.141" style="fill:#fff;fill-rule:nonzero" transform="matrix(0 -1 -1 0 99.274 31.17)"/>
      <use style="fill:#fff;fill-rule:nonzero" transform="matrix(0 -1 -1 0 77.98 31.17)" xlink:href="#reuse-4"/>
      <ellipse cx="-7.749" rx="10.042" ry="7.749" style="fill:none;stroke:#58424e;stroke-width:1.3px" transform="matrix(0 -1 -1 0 74.541 18.887)"/>
      <ellipse cx="-7.749" rx="10.042" ry="7.749" style="fill:none;stroke:#58424e;stroke-width:1.3px" transform="matrix(0 -1 -1 0 95.766 18.888)"/>
      <ellipse cx="-7.749" rx="10.042" ry="7.749" style="fill:none;stroke:#58424e;stroke-width:1.3px" transform="matrix(0 -1 -1 0 116.99 18.888)"/>
      <ellipse cx="-7.749" rx="10.042" ry="7.749" style="fill:none;stroke:#58424e;stroke-width:1.3px" transform="matrix(0 -1 -1 0 138.214 18.888)"/>
      <ellipse cx="-7.749" rx="10.042" ry="7.749" style="fill:none;stroke:#58424e;stroke-width:1.3px" transform="matrix(0 -1 -1 0 159.438 18.888)"/>
      <path d="M0 2.806c.137 1.255.797 2.348 1.664 2.939v2.436h-11.64V-5.375h11.64v4.888C.535-.103-.183 1.226 0 2.806" style="fill:#8cc44a;fill-rule:nonzero" transform="translate(160.372 31.144)"/>
      <use style="fill:#8cc44a;fill-rule:nonzero" transform="translate(139.038 31.144)" xlink:href="#reuse-5"/>
      <path d="M0 2.806c.137 1.255.798 2.348 1.664 2.939v2.436h-11.64V-5.375h11.64v4.888C.536-.103-.182 1.226 0 2.806" style="fill:#8cc44a;fill-rule:nonzero" transform="translate(117.704 31.144)"/>
      <use style="fill:#8cc44a;fill-rule:nonzero" transform="translate(96.37 31.144)" xlink:href="#reuse-5"/>
      <path d="M0 2.897c.137 1.255.798 2.348 1.664 2.938v2.437H-9.863l-.929-8.216c-.323-2.866 1.398-5.431 3.633-5.413l8.823.072v4.811C.536-.09-.182 1.317 0 2.897" style="fill:#8cc44a;fill-rule:nonzero" transform="translate(75.255 31.077)"/>
      <path d="M0-21.938c6.899-7.83 15.75-10.53 23.42-10.53 18.074 0 32.725 14.652 32.725 32.725 0 3.589-.577 7.042-1.645 10.273" style="fill:none;fill-rule:nonzero;stroke:#8cc44a;stroke-width:1.93px" transform="translate(176.749 40.576)"/>
      <path d="M0-8.419.836.137a.849.849 0 0 0 1.338.608l6.993-5.001a.848.848 0 0 0-.144-1.463L1.196-9.274A.85.85 0 0 0 0-8.419" style="fill:#8cc44a;fill-rule:nonzero" transform="translate(226.683 56.992)"/>
      <path d="M-6.863-6.863a6.863 6.863 0 1 0 0 13.726 6.863 6.863 0 0 0 0-13.726" style="fill:#fff;fill-rule:nonzero" transform="matrix(0 -1 -1 0 144.366 95.066)"/>
      <path d="M-5.207-5.206a5.206 5.206 0 1 0 0 10.413 5.206 5.206 0 0 0 0-10.413" style="fill:#fff;fill-rule:nonzero" transform="matrix(0 -1 -1 0 135.344 75.967)"/>
      <path d="M0-3.193C-.609-.137 1.596 3.054 4.926 3.936c3.329.881 6.522-.881 7.132-3.937.609-3.054-1.596-6.246-4.926-7.128C3.802-8.01.609-6.248 0-3.193m5.448-7.687 1.099-2.028 3.301.874.22 2.378 2.531 1.766 2.39-.557 1.907 2.76-1.627 1.66.632 2.813L18.182.027l-.604 3.028-2.522-.03-1.636 2.213.835 2.312-2.76 1.524L9.556 7.37l-2.947.316L5.51 9.715l-3.3-.874-.221-2.378-2.531-1.766-2.389.556-1.907-2.759 1.627-1.66-.633-2.813-2.28-1.241.603-3.029 2.522.031 1.636-2.212-.835-2.313 2.76-1.523 1.94 1.703 2.946-.317Z" style="fill:#f48656;fill-rule:nonzero" transform="translate(138.337 103.73)"/>
      <path d="M0 2.532C.986 4.478 3.395 5.46 5.378 4.723c1.984-.736 2.793-2.911 1.807-4.858-.987-1.946-3.395-2.928-5.379-2.191C-.178-1.59-.987.585 0 2.532m-.766-6.246-.281-1.598 2.256-.838 1.17 1.268 2.264.185 1.139-1.078 2.283 1.209-.238 1.555L9.26-1.239l1.702.252.592 2.345-1.469.672-.476 2.023.984 1.394-1.546 1.716-1.592-.719-2.027.753-.476 1.485-2.52-.207-.517-1.566-2.051-1.086-1.577.459-1.596-1.973.948-1.235-.532-2.106-1.49-.915.53-2.252 1.698.025 1.389-1.54Z" style="fill:#f48656;fill-rule:nonzero" transform="translate(131.629 79.907)"/>
      <path d="M-10.646-10.647c-5.881 0-10.647 4.767-10.647 10.646 0 5.881 4.766 10.647 10.647 10.647C-4.766 10.646 0 5.88 0-.001 0-5.88-4.766-10.647-10.646-10.647" style="fill:#fff;fill-rule:nonzero" transform="matrix(0 -1 -1 0 112.532 83.624)"/>
      <path d="M0-19.811c-.546 0-1.094.042-1.629.124-2.767.424-5.082 1.877-6.518 4.093-1.408 2.172-1.788 4.805-1.069 7.416C-7.912-3.439-3.298.001 1.755.001h.001c.545 0 1.094-.041 1.629-.124 2.767-.423 5.081-1.876 6.517-4.091 1.409-2.173 1.788-4.808 1.07-7.418C9.667-16.372 5.053-19.811 0-19.811M2.129 2.192-3.596.932l-2.341 1.925-2.299-1.466.835-2.871-3.523-4.654-3.298-.34-.615-2.237 2.746-1.235.819-5.578-2.246-2.352 1.12-1.694 3.119 1.066 4.822-2.983.032-2.974 2.391-.367 1.659 2.827 5.726 1.259 2.342-1.925 2.299 1.466-.835 2.87 3.523 4.655 3.297.341.616 2.237-2.747 1.234-.819 5.578 2.246 2.352-1.12 1.694-3.118-1.065-4.823 2.981-.032 2.975-2.39.366-1.661-2.825Z" style="fill:#f48656;fill-rule:nonzero" transform="translate(111.655 104.176)"/>
      <path d="M0 16.736c-4.278 0-8.355-2.933-9.488-7.049C-10.744 5.125-7.907.835-3.152.106A9.263 9.263 0 0 1-1.755.001c4.278 0 8.355 2.932 9.488 7.048 1.256 4.563-1.581 8.852-6.337 9.581A9.252 9.252 0 0 1 0 16.736M-2.991-8.233l-4.714.722-.037 3.435-3.483 2.153-3.556-1.213-2.452 3.708 2.574 2.696-.587 4.002-3.18 1.43 1.245 4.522 3.678.379 2.653 3.505-.942 3.235 4.213 2.688 2.627-2.161 4.34.956 1.848 3.145 4.714-.721.036-3.435 3.484-2.154 3.555 1.214 2.453-3.708-2.575-2.698.588-4.001 3.18-1.429-1.245-4.523-3.678-.379L9.095-.369l.942-3.236-4.214-2.687-2.627 2.16-4.339-.955-1.848-3.146Zm5.914 27.694-.014 1.319-.009.821-.067.011-.792-1.348-.334-.569.155-.023a11.71 11.71 0 0 0 1.061-.211m-10.617-2.186c.406.296.831.57 1.27.819l-.483.397-.901.741-.384-.245.297-1.021.201-.691m17.358-2.744 1.014 1.062.321.336-.535-.182-1.303-.445a10.395 10.395 0 0 0 .503-.771m-22.35-5.038c.061.337.138.675.231 1.011l.032.115-.765-.079-1.486-.154.69-.309 1.298-.584m23.354-3.375.764.079 1.486.152-.689.311-1.298.583a11.76 11.76 0 0 0-.231-1.01l-.032-.115M-12.754.807l.535.183 1.302.444a10.373 10.373 0 0 0-.502.772l-1.014-1.063-.321-.336M6.052-2.496l.385.246-.297 1.02-.202.692c-.406-.296-.83-.571-1.269-.821l.482-.396.901-.741m-10.64-2.379.792 1.346.335.571a12.597 12.597 0 0 0-1.218.233l.014-1.318.009-.822.068-.01" style="fill:#f48656;fill-rule:nonzero" transform="translate(113.411 85.903)"/>
      <path d="M-1.716-2.695c-1.09-.118-1.976.635-1.976 1.68s.884 1.989 1.976 2.107C-.625 1.21.26.456.259-.589c0-1.046-.885-1.989-1.975-2.106" style="fill:#f48656;fill-rule:nonzero" transform="scale(-1 1) rotate(-64.958 -4.131 145.018)"/>
      <path d="M-111.642 1.701H-1.598L0 0h-110.044l-1.598 1.701Z" style="fill:#d0e7b8;fill-rule:nonzero" transform="matrix(-1 0 0 1 75.902 132.173)"/>
    </g>
  </g>
</svg>
