<?xml version="1.0" encoding="UTF-8" standalone="no"?>
<svg viewBox="0 0 266 150" xmlns="http://www.w3.org/2000/svg" xml:space="preserve" style="fill-rule:evenodd;clip-rule:evenodd;stroke-linecap:round;stroke-miterlimit:10" xmlns:xlink="http://www.w3.org/1999/xlink">
  <defs>
    <path d="m.153-.528.003.058a.196.196 0 0 1 .157-.068c.073 0 .124.028.15.085a.206.206 0 0 1 .069-.062.208.208 0 0 1 .1-.023c.116 0 .175.061.177.184V0H.718v-.349c0-.037-.008-.066-.026-.084C.675-.452.646-.461.605-.461a.12.12 0 0 0-.083.03.125.125 0 0 0-.039.08V0h-.09v-.346c0-.077-.038-.115-.113-.115-.059 0-.1.025-.122.075V0h-.09v-.528h.085Z" style="fill:#fff;fill-rule:nonzero" id="reuse-0"/>
    <path d="M.086.061H.009l.297-.772h.077L.086.061Z" style="fill:#fff;fill-rule:nonzero" id="reuse-1"/>
    <path d="M.046-.269a.31.31 0 0 1 .058-.195.183.183 0 0 1 .151-.074c.062 0 .111.021.147.063V-.75h.09V0H.409L.405-.057A.183.183 0 0 1 .254.01a.182.182 0 0 1-.15-.075.32.32 0 0 1-.058-.197v-.007Zm.091.011c0 .06.012.106.037.14a.12.12 0 0 0 .102.051.133.133 0 0 0 .126-.077v-.243a.133.133 0 0 0-.125-.074.12.12 0 0 0-.103.051.256.256 0 0 0-.037.152Z" style="fill:#fff;fill-rule:nonzero" id="reuse-2"/>
    <path d="m.241-.132.123-.396h.097l-.212.61C.216.169.163.213.092.213L.075.212.041.206V.132l.024.002A.124.124 0 0 0 .137.116.137.137 0 0 0 .179.048l.02-.054-.188-.522h.098l.132.396Z" style="fill:#fff;fill-rule:nonzero" id="reuse-3"/>
  </defs>
  <path style="fill:none" d="M0 0h266v150H0z"/>
  <path d="M0-24.171C-6.674-19.857-8.588-10.95-4.274-4.275.039 2.399 8.947 4.313 15.621-.001c6.674-4.314 8.588-13.221 4.275-19.896C15.582-26.571 6.674-28.484 0-24.171m23.761-4.788 5.668-1.788 4.275 6.616-3.957 4.433 1.274 6.959 5.271 2.744-1.654 7.701-5.934.336-4.02 5.822 1.788 5.668-6.616 4.276-4.433-3.958-6.96 1.274-2.743 5.272-7.701-1.655-.336-5.933-5.823-4.021-5.667 1.788-4.276-6.615 3.958-4.434-1.274-6.959-5.272-2.744 1.654-7.701 5.934-.336 4.02-5.822-1.788-5.668 6.616-4.276 4.433 3.958 6.96-1.274 2.743-5.271 7.702 1.654.336 5.933 5.822 4.021Z" style="fill:#c5e2a6;fill-rule:nonzero" transform="translate(97.576 119.437)"/>
  <path d="M0-4.123A8.547 8.547 0 1 0 16.598-.04 8.547 8.547 0 0 0 0-4.123m7.851-11.791 1.857-3.121 5.212 1.284.197 3.626 3.718 3.069 3.598-.493 2.247 4.875-2.713 2.414-.081 4.822 2.629 2.504-2.411 4.797-3.579-.615-3.82 2.942-.319 3.617-5.254 1.105-1.75-3.181L2.7 10.578l-3.027 2.006-4.14-3.418 1.397-3.352-2.018-4.379L-8.544.319l.091-5.368 3.491-.998 2.166-4.308-1.282-3.398 4.253-3.275 2.957 2.107 4.719-.993Z" style="fill:#add583;fill-rule:nonzero" transform="translate(103.252 58.016)"/>
  <path d="M0-15.182C-4.193-4.422 1.131 7.699 11.891 11.891 22.65 16.084 34.771 10.76 38.964.001c4.192-10.76-1.131-22.881-11.891-27.074C16.313-31.265 4.192-25.942 0-15.182m23.916-25.855 5.156-6.928 10.664 4.156-.89 8.589 7.422 7.115 8.544-1.253 4.603 10.479-6.704 5.444.217 10.278 6.928 5.156-4.155 10.665-8.59-.891-7.114 7.422 1.253 8.544-10.48 4.603-5.444-6.704-10.278.218-5.156 6.927-10.665-4.155.891-8.59-7.422-7.114-8.544 1.253-4.603-10.48 6.704-5.443-.217-10.279-6.928-5.156 4.155-10.665 8.59.892 7.114-7.422-1.253-8.545 10.48-4.602 5.444 6.703 10.278-.217Z" style="fill:#96c960;fill-rule:nonzero" transform="translate(29.656 61.02)"/>
  <path d="M-1.5-1.5a1.5 1.5 0 1 0 0 3 1.5 1.5 0 0 0 0-3" style="fill:#f37743;fill-rule:nonzero" transform="matrix(0 -1 -1 0 49.138 68.844)"/>
  <path d="M0-3a1.5 1.5 0 1 0 0 3 1.5 1.5 0 0 0 0-3" style="fill:#f37743;fill-rule:nonzero" transform="matrix(-1 0 0 1 66.053 54.93)"/>
  <path d="M-5.924 5.924H5.924" style="fill:none;fill-rule:nonzero;stroke:#f5956c;stroke-width:2px" transform="matrix(0 -1 -1 0 55.062 47.506)"/>
  <path d="M1.5-1.5a1.5 1.5 0 1 0 0 3 1.5 1.5 0 0 0 0-3" style="fill:#f37743;fill-rule:nonzero" transform="matrix(0 1 1 0 49.138 35.015)"/>
  <path d="M0 0h8.198" style="fill:none;fill-rule:nonzero;stroke:#f2692c;stroke-width:2px" transform="translate(49.138 53.43)"/>
  <path d="M2.889-2.889a2.888 2.888 0 1 0-.001 5.777 2.888 2.888 0 0 0 .001-5.777" style="fill:#f48656;fill-rule:nonzero" transform="matrix(0 1 1 0 49.138 50.54)"/>
  <path d="M0 3a1.5 1.5 0 1 1 0-3 1.5 1.5 0 0 1 0 3" style="fill:#f37743;fill-rule:nonzero" transform="translate(32.224 51.93)"/>
  <path d="M0 11.343h-50.774l-6.163 4.333v-4.333h-2.969a3.784 3.784 0 0 1-3.784-3.784V-.549a3.784 3.784 0 0 1 3.784-3.784H0A3.784 3.784 0 0 1 3.784-.549v8.108A3.784 3.784 0 0 1 0 11.343" style="fill:#a1cf70;fill-rule:nonzero" transform="translate(253.452 15.673)"/>
  <path d="M0 11.344h-27.337l-6.162 4.333v-4.333h-2.969a3.784 3.784 0 0 1-3.784-3.784V-.549a3.784 3.784 0 0 1 3.784-3.784H0A3.784 3.784 0 0 1 3.784-.549V7.56A3.784 3.784 0 0 1 0 11.344" style="fill:#8cc44a;fill-rule:nonzero" transform="translate(253.333 40.322)"/>
  <path d="M.607-.093a.216.216 0 0 1-.1.077.415.415 0 0 1-.151.026.275.275 0 0 1-.259-.157.398.398 0 0 1-.037-.174v-.062c0-.107.025-.19.075-.249a.26.26 0 0 1 .21-.089c.074 0 .134.019.179.057a.245.245 0 0 1 .083.162H.514C.496-.597.44-.644.346-.644c-.063 0-.111.022-.143.066a.316.316 0 0 0-.049.192v.058c0 .08.018.143.054.19a.176.176 0 0 0 .148.071.323.323 0 0 0 .093-.012.139.139 0 0 0 .065-.039v-.159H.35v-.077h.257v.261Z" style="fill:#fff;fill-rule:nonzero" transform="matrix(12 0 0 12 218.158 47.968)"/>
  <path d="m.204-.711.232.58.232-.58H.79V0H.696v-.277l.009-.299L.472 0H.4L.167-.574l.009.297V0H.083v-.711h.121Z" style="fill:#fff;fill-rule:nonzero" transform="matrix(12 0 0 12 226.332 47.968)"/>
  <path d="M.574-.634H.345V0H.252v-.634H.024v-.077h.55v.077Z" style="fill:#fff;fill-rule:nonzero" transform="matrix(12 0 0 12 236.638 47.968)"/>
  <path style="fill:#fff;fill-rule:nonzero" d="M.018-.339h.238v.074H.018z" transform="matrix(12 0 0 12 242.439 47.968)"/>
  <path d="M.518-.66.224 0H.129l.293-.637H.038v-.074h.48v.051Z" style="fill:#fff;fill-rule:nonzero" transform="matrix(12 0 0 12 245.749 47.968)"/>
  <use style="fill:#fff;fill-rule:nonzero" transform="matrix(12 0 0 12 195.622 22.552)" xlink:href="#reuse-0"/>
  <use style="fill:#fff;fill-rule:nonzero" transform="matrix(12 0 0 12 206.139 22.552)" xlink:href="#reuse-0"/>
  <use style="fill:#fff;fill-rule:nonzero" transform="matrix(12 0 0 12 216.657 22.552)" xlink:href="#reuse-1"/>
  <use style="fill:#fff;fill-rule:nonzero" transform="matrix(12 0 0 12 221.602 22.552)" xlink:href="#reuse-2"/>
  <use style="fill:#fff;fill-rule:nonzero" transform="matrix(12 0 0 12 228.37 22.552)" xlink:href="#reuse-2"/>
  <use style="fill:#fff;fill-rule:nonzero" transform="matrix(12 0 0 12 235.137 22.552)" xlink:href="#reuse-1"/>
  <use style="fill:#fff;fill-rule:nonzero" transform="matrix(12 0 0 12 240.083 22.552)" xlink:href="#reuse-3"/>
  <use style="fill:#fff;fill-rule:nonzero" transform="matrix(12 0 0 12 245.76 22.552)" xlink:href="#reuse-3"/>
  <path d="M0 9.537a28.649 28.649 0 0 1-4.59 1.857c-.961.294-2.019.535-2.95.154-.923-.378-1.506-1.279-2.031-2.128l-3.889-6.298c-1.082-1.752-2.256-3.591-4.1-4.509-1.844-.918-3.689-1.005-4.854.758" style="fill:none;fill-rule:nonzero;stroke:#462e3b;stroke-width:9.5px;stroke-linejoin:round" transform="translate(164.482 93.252)"/>
  <path d="M0-2.85c.238-4.514 2.975-7.73 6.949-7.968.824-.175 1.395.04 1.388-.595-.011-1.23-2.882-1.291-5.354-.223-3.492 1.51-4.527 4.744-4.874 8.786C-2.283 1.697.544 6.015.598 9.854c.737-.164 1.449-.376 2.083-.658C2.612 6.714-.177 1.377 0-2.85" style="fill:#b84425;fill-rule:nonzero" transform="translate(179.782 119.913)"/>
  <path d="M0-8.369c-2.241.496-4.726.535-6.047.671-4.736.487-6.811 3.045-6.284 7.892C-5.917.657-1.604.608 4.807.208c.079-3.931-1.078-6.217-2.724-9.234-.634.282-1.346.493-2.083.657" style="fill:#462d3b;fill-rule:nonzero" transform="translate(180.38 138.136)"/>
  <path d="M0-20.252c-6.088 2.503-10.547 5.918-13.839 12.424.619 1.215 1.446 2.275 2.912 2.297 1.358.02 1.718.862 2.214 1.871C-7.008-.196-2.97.722.097-1.682c.942-.737 1.487-1.676 2.943-.726 2.835 1.851 5.662 1.048 8.38-.483-.883-6.063-3.298-11.627-6.938-16.374-1.147-1.493-2.728-1.709-4.482-.987" style="fill:#fff8f0;fill-rule:nonzero" transform="translate(243.806 81.926)"/>
  <path d="m0 68.762-3.022.095c-2.817.158-7.691.348-11.853.522-1.931.111-3.782.174-5.238.237.079-3.924-1.092-6.203-2.738-9.225-.063-2.485-2.848-7.817-2.674-12.043.237-4.525 2.975-7.738 6.947-7.976.823-.173 1.392.048 1.392-.585-.016-1.234-2.88-1.297-5.348-.237-3.498 1.519-4.542 4.747-4.874 8.798-.396 4.542 2.421 8.862 2.484 12.691-2.247.507-4.731.538-6.045.681-4.747.49-6.82 3.038-6.282 7.896-1.044-.031-1.089-.063-2.133-.094 0 0-6.826.265-5.823-6.234 1.575-10.195 1.054-32.886 1.103-35.744-.126-4.859-.791-10.07-1.139-14.912C-46.034 1.824-32.425-1.025-24.148.368c4.351.728 7.833 1.551 11.267 4.352 3.117 2.547 5.918 7.959 7.548 11.599C-1.155 25.703-.174 36.29-.111 46.433c.016.269.016.554.016.823v.76c0 1.234-.016 2.469-.048 3.703l-.047.047c-.126 2.769-.364 6.03-.854 8.356 0 0 .221.205.791.205L0 68.762Z" style="fill:#f2692b;fill-rule:nonzero" transform="translate(205.307 68.72)"/>
  <path d="M-1.334-38.339c.504-.754 1.687-.318 1.573.583C-.698-30.349-2.959-13.2-1.334-4.61-.105 1.882-1.749 1.247-9.65-.191c-1.661-14.076.461-26.383 8.316-38.148" style="fill:#462d3b;fill-rule:nonzero" transform="scale(-1 1) rotate(-13.813 483.627 714.078)"/>
  <path d="M0 22.851C-8.862 36.223-20.904 42.41-35.953 43.043c-1.235.047-2.501.063-3.767.047-.221 0-.458.016-.68.016l-.253-8.434c.395 0 .965-.095 1.74-.444a18.764 18.764 0 0 0 2.96-1.724c5.443-3.924 8.324-10.507 9.653-16.853 1.835-8.767 2.009-14.78 4.716-23.421 1.772-5.697 4.146-9.621 5.839-12.485.617 1.218 1.455 2.263 2.912 2.294 1.36.016 1.724.854 2.215 1.868 1.709 3.465 5.744 4.383 8.814 1.978.934-.744 1.488-1.678 2.944-.728 2.832 1.851 5.665 1.044 8.386-.475 0 0 .507 2.769.586 4.178C10.84 1.409 6.963 12.391 0 22.851" style="fill:#f2692b;fill-rule:nonzero" transform="translate(245.706 94.376)"/>
  <path d="M0-5.819c-.904 1.354-3.126 2.007-4.777 2.496-1.685.498-4.429 1.812-7.501 3.506-4.595 2.554-9.913 6.015-13.472 9.012-3.979 2.918-8.194 2.621-11.064-1.429-2.198-3.071-5.053-6.177-7.993-8.978-5.745-5.473-11.837-9.84-14.042-10.708 2.624-2.947 5.989-4.933 9.772-5.316 6.66-.696 13.428 1.667 15.177 10.784.642 3.356.36 7.574-.084 10.928-.666.873-.744 1.796.095 2.828 1.204 1.502 2.812 1.49 4.268 1.217 1.357-.263 2.599-1.607 1.969-3.354a.217.217 0 0 1-.051-.06c.573-4.72 1.208-7.773 2.66-11.566 2.73-7.108 11.213-9.21 17.462-5.764C-4.607-10.583-2.004-8.669 0-5.819" style="fill:#fff8f0;fill-rule:nonzero" transform="translate(201.181 76.84)"/>
  <path d="M0 1.626C6.66.93 13.429 3.303 15.169 12.415c.643 3.36.364 7.577-.087 10.936l.002-.001c.112-.147.235-.293.377-.437 1.307-.622 4.323-.662 5.901 1.068.576-4.721 1.212-7.775 2.673-11.574C26.767 5.305 35.251 3.198 41.5 6.644c2.971 1.638 5.575 3.556 7.581 6.402.661-.655.544-1.67.208-2.945-1.975-7.504-3.415-13.565-5.626-18.142-.107-.221-.22-.424-.328-.638-.985-.1-2.083-1.16-2.11-2.253-.471-1.74-3.729-5.121-6.17-6.308-.005.011-.017.027-.021.037-.785-.054-2.033-.602-2.268-1.912.002-.006.005-.009.008-.015-2.919-1.277-6.408-2.106-10.68-2.629-4.867-.596-8.861-.125-12.12.862.029.086.066.171.092.26-.474 1.243-1.802 1.55-2.583 1.457-.011-.045-.034-.095-.048-.142-2.622.575-6.758 3.332-7.569 5.013-.23 1.073-1.517 1.916-2.504 1.824-.018-.031-.034-.066-.052-.098a.55.55 0 0 1-.209.071C-7.869-6.348-8.234-.763-10.873 5.125c-.443.991.23 1.516 1.095 1.83C-7.154 4.006-3.783 2.021 0 1.626" style="fill:#f2692b;fill-rule:nonzero" transform="translate(152.107 57.973)"/>
  <path d="M-3.515-4.58c1.692.022 4.193-.265 4.579 1.585.572 2.73-3.665 6.393-4.579 6.861-1.161-2.452-4.51-5.743-6.246-6.232C-7.98-3.818-5.646-4.61-3.515-4.58" style="fill:#fff8f0;fill-rule:nonzero" transform="scale(1 -1) rotate(89.437 114.344 77.846)"/>
  <path d="M0-4.092c-.143.144-.266.29-.377.437-.66.87-.745 1.788.094 2.822C.931.662 2.537.661 3.985.384 5.346.124 6.598-1.225 5.954-2.97c-.017-.019-.036-.035-.053-.054C4.323-4.754 1.307-4.714 0-4.092" style="fill:#462d3b;fill-rule:nonzero" transform="translate(167.569 84.978)"/>
  <path d="M0-.223c.004-.01.016-.026.021-.037.477-.908 4.183-5.109 6.906-4.51 1.846.404 1.534 2.901 1.54 4.594.01 2.132-.805 4.458-2.276 6.224.028 1.093 1.125 2.153 2.111 2.253l.012.003c2.806-3.167 4.234-10.518 1.915-14.235-.917-1.474-2.531-2.596-4.171-1.88C2.696-6.343-.344-5.889-2.26-2.15c-.002.006-.006.01-.008.015C-2.032-.825-.785-.277 0-.223" style="fill:#462d3b;fill-rule:nonzero" transform="translate(187.141 40.992)"/>
  <path d="M0-11.101c-.327-.104-.595-.148-.823-.122-.318.17-.594.445-.834.793-.238.584-.406 1.519-.588 2.934-.273 2.115.152 5.634 1.268 7.644.811-1.681 4.948-4.438 7.569-5.013C5.996-6.663 2.617-10.257 0-11.101" style="fill:#fff8f0;fill-rule:nonzero" transform="translate(152.95 43.516)"/>
  <path d="M0 13.696c-1.117-2.009-1.541-5.528-1.268-7.643.182-1.415.35-2.351.588-2.935.206-.508.467-.748.833-.792.229-.027.497.017.824.121 2.617.845 5.996 4.439 6.591 6.236.015.047.037.097.049.142.78.093 2.109-.213 2.583-1.457-.026-.089-.063-.173-.092-.26C8.807 3.208 4.405.56 1.106-.868-1.313-1.917-1.839-.661-2.802.784c-2.406 3.616-1.879 10.973.246 14.638.017.032.034.067.052.098.987.093 2.274-.751 2.504-1.824" style="fill:#462d3b;fill-rule:nonzero" transform="translate(151.974 29.968)"/>
  <path d="M2.911-3.348C.977-3.519.137-2.022.014-.529c-.16 1.935 1.168 2.814 2.897 2.974 1.373.128 2.539-.97 2.744-2.592-.112-1.756-.897-3.037-2.744-3.201" style="fill:#462d3b;fill-rule:nonzero" transform="scale(-1 1) rotate(78.913 -117.219 -64.891)"/>
  <path d="M2.912-3.349C.978-3.52.138-2.021.015-.529c-.16 1.935 1.167 2.814 2.897 2.974 1.374.128 2.539-.97 2.743-2.592-.112-1.756-.897-3.037-2.743-3.202" style="fill:#462d3b;fill-rule:nonzero" transform="scale(-1 1) rotate(78.915 -133.44 -79.934)"/>
  <path d="M0 2.324A7.032 7.032 0 0 1 3.973-.29a7.03 7.03 0 0 1 4.723.546C5.834 2.734 2.927 2.988 0 2.324" style="fill:#fff8f0;fill-rule:nonzero" transform="translate(182.431 69.979)"/>
  <path d="M0 4.54a7.02 7.02 0 0 0-3.179-3.536A7.026 7.026 0 0 0-7.886.333C-5.748 3.457-2.999 4.439 0 4.54" style="fill:#fff8f0;fill-rule:nonzero" transform="translate(160.365 64.916)"/>
  <path d="M0 13.232A7.864 7.864 0 1 0 8.506.001a7.865 7.865 0 0 0-12.09 7.291l5.603-2.96 3.312 1.747-.566 3.582-5.596 2.957c.26.22.538.426.831.614" style="fill:#f2692c;fill-rule:nonzero" transform="translate(115.182 94.168)"/>
  <path d="m0 10.838 19.548-3.273A3.603 3.603 0 1 0 18.02.533L-1.123 5.671 0 10.838Z" style="fill:#f2692c;fill-rule:nonzero" transform="translate(126.63 91.168)"/>
  <path d="M1.003-.295a1.856 1.856 0 1 1 0 3.712 1.856 1.856 0 0 1 0-3.712" style="fill:#e8f3db;fill-rule:nonzero" transform="scale(1 -1) rotate(-32.735 -91.487 -292.626)"/>
  <path d="M0-.865C-.135.148.323 1.466 1.133 2.089c1.295.998 3.033 1.338 4.646 1.072 1.613-.265 3.101-1.098 4.3-2.209.375-.347.797-.751 1.306-.707.426.036.768.395.915.796.147.402.138.841.126 1.267.692-.033 1.184-.768 1.187-1.461.004-.692-.351-1.332-.725-1.915-.657-1.022-1.443-2.014-2.52-2.578-1.105-.577-2.401-.646-3.647-.609-1.866.055-3.76.332-5.43 1.164" style="fill:#462e3b;fill-rule:nonzero" transform="translate(137.347 93.129)"/>
  <path d="M-5.259-5.26a5.26 5.26 0 1 0 0 10.52 5.26 5.26 0 0 0 0-10.52" style="fill:#c5e2a6;fill-rule:nonzero" transform="matrix(0 -1 -1 0 105.386 102.092)"/>
</svg>
