<?xml version="1.0" encoding="UTF-8" standalone="no"?>
<svg viewBox="0 0 267 151" xmlns="http://www.w3.org/2000/svg" xml:space="preserve" style="fill-rule:evenodd;clip-rule:evenodd;stroke-linecap:round;stroke-linejoin:round;stroke-miterlimit:10" xmlns:xlink="http://www.w3.org/1999/xlink">
  <defs>
    <path style="fill:none" d="M0 0h266v150H0z" id="reuse-0"/>
    <path d="M.629-.333c0 .07-.011.131-.035.183a.266.266 0 0 1-.099.119.277.277 0 0 1-.151.041.278.278 0 0 1-.149-.041.279.279 0 0 1-.101-.118.427.427 0 0 1-.036-.177v-.051c0-.069.011-.129.035-.182a.279.279 0 0 1 .101-.12.27.27 0 0 1 .149-.042.262.262 0 0 1 .251.161.433.433 0 0 1 .035.183v.044ZM.536-.378a.321.321 0 0 0-.051-.195.167.167 0 0 0-.142-.067.166.166 0 0 0-.14.067.315.315 0 0 0-.052.188v.052c0 .082.017.146.051.193.035.047.082.07.142.07a.166.166 0 0 0 .141-.066.318.318 0 0 0 .051-.19v-.052Z" style="fill:#462e3b;fill-rule:nonzero" id="reuse-1"/>
    <path d="M0-20.271h-29.756a1.06 1.06 0 0 0-.985 1.451L-23.269 0H9.284L1.691-19.123A1.819 1.819 0 0 0 0-20.271" style="fill:#fff;fill-rule:nonzero" id="reuse-2"/>
    <path d="M-38.286 1.549H0C.856 1.549 1.549.856 1.549 0h-41.384c0 .856.694 1.549 1.549 1.549" style="fill:#fff;fill-rule:nonzero" id="reuse-3"/>
  </defs>
  <g transform="translate(.5 .5)">
    <use style="fill:none" xlink:href="#reuse-0"/>
    <clipPath id="a">
      <use xlink:href="#reuse-0"/>
    </clipPath>
    <g clip-path="url(#a)">
      <path style="fill:#c5e0a5" d="M0 0h266v36.335H0z" transform="translate(0 113.665)"/>
      <path style="fill:#fff" d="M0 36.148h153.873v6.606H0z" transform="translate(0 71.098)"/>
      <path style="fill:#c5e0a5" d="M153.873 36.148H266v20.236H153.873z" transform="translate(0 57.468)"/>
      <path style="fill:#fff" d="M156.94 56.38H266v93.621H156.94z" transform="translate(0 -56.381)"/>
      <path style="fill:#e8f2da" d="M167.15 66.81h57.39v83.16h-57.39zM228.82 66.81h37.181v83.16H228.82z" transform="translate(0 -66.78)"/>
      <path style="fill:#fff" d="M224.54 62.94h4.28v3.869h-4.28z" transform="matrix(-1 0 0 1 453.36 20.251)"/>
      <path style="fill:#fff" d="M224.536 66.511h4.281v83.458h-4.281z" transform="translate(0 -66.48)"/>
      <path d="M0-41.629V1.886h-25.15v-45.401h23.264c1.042 0 1.886.844 1.886 1.886" style="fill:#cfe5b7;fill-rule:nonzero" transform="translate(224.54 81.305)"/>
      <path d="M196.74 74.96h-3.34v-3.34h3.34v3.34Zm0 14.55h-3.34v-3.34h3.34v3.34Zm0 15.63h-3.34v-3.34h3.34v3.34Zm0 15.64h-3.34v-3.35h3.34v3.35Zm-3.47-39.23h-3.34V78.2h3.34v3.35Zm0 15.63h-3.34v-3.34h3.34v3.34Zm0 15.64h-3.34v-3.35h3.34v3.35Zm0 16.32h-3.34v-3.34h3.34v3.34Zm-3.47-39.63h-3.35v-3.34h3.35v3.34Zm0 15.63h-3.35v-3.34h3.35v3.34Zm0 15.64h-3.35v-3.35h3.35v3.35Zm-3.6-39.23h-3.35V78.2h3.35v3.35Zm0 15.63h-3.35v-3.34h3.35v3.34Zm0 15.64h-3.35v-3.35h3.35v3.35Zm0 16.32h-3.35v-3.34h3.35v3.34Zm-6.69-11.71h3.34v3.35h-3.34v-3.35Zm0-15.63h3.34v3.34h-3.34v-3.34Zm0-15.63h3.34v3.34h-3.34v-3.34Zm-4.04 4.56v52.72h23.92V66.81c-13.21 0-23.92 10.71-23.92 23.92" style="fill:#c5e0a5;fill-rule:nonzero" transform="translate(0 -60.26)"/>
      <path d="M246.09 76.491h-2.01v-4.85h2.01v4.85Zm0 8.34h-2.01V79.98h2.01v4.851Zm0 8.35h-2.01v-4.85h2.01v4.85Zm0 8.34h-2.01v-4.85h2.01v4.85Zm0 8.35h-2.01v-4.851h2.01v4.851Zm-2.72-33.38h-2.01v-4.85h2.01v4.85Zm0 8.34h-2.01V79.98h2.01v4.851Zm0 8.35h-2.01v-4.85h2.01v4.85Zm0 8.34h-2.01v-4.85h2.01v4.85Zm0 8.35h-2.01v-4.851h2.01v4.851Zm-7.4-33.38h-2.01v-4.85h2.01v4.85Zm0 8.34h-2.01V79.98h2.01v4.851Zm0 8.35h-2.01v-4.85h2.01v4.85Zm0 8.34h-2.01v-4.85h2.01v4.85Zm0 8.35h-2.01v-4.851h2.01v4.851Zm-2.72-33.38h-2.01v-4.85h2.01v4.85Zm0 8.34h-2.01V79.98h2.01v4.851Zm0 8.35h-2.01v-4.85h2.01v4.85Zm0 8.34h-2.01v-4.85h2.01v4.85Zm0 8.35h-2.01v-4.851h2.01v4.851Zm-4.43 17.21h21.31V66.81h-21.31v60.271Z" style="fill:#c5e0a5;fill-rule:nonzero" transform="translate(0 -43.891)"/>
      <path d="M259.45 73.57h-3.37V70.2h3.37v3.37Zm0 7.39h-3.37v-3.37h3.37v3.37Zm0 7.39h-3.37v-3.37h3.37v3.37Zm0 7.39h-3.37v-3.37h3.37v3.37Zm0 7.39h-3.37v-3.38h3.37v3.38Zm0 7.38h-3.37v-3.37h3.37v3.37ZM266 70.2v-3.26h-12.27v49.24H266v-5.67h-2.57v-3.37H266v-4.01h-2.57v-3.38H266v-4.01h-2.57v-3.37H266v-4.02h-2.57v-3.37H266v-4.02h-2.57v-3.37H266v-4.02h-2.57V70.2H266Z" style="fill:#b9da93;fill-rule:nonzero" transform="translate(0 -33.12)"/>
      <path d="M0-28.751h-6.437a1.885 1.885 0 0 0-1.886 1.886V0H0v-28.751Z" style="fill:#c5e0a5;fill-rule:nonzero" transform="translate(175.472 83.188)"/>
      <path style="fill:#e8f2da" d="M0 36.335h153.873V150H0z" transform="matrix(-1 0 0 1 153.873 -36.335)"/>
      <path d="M-41.397 19.509h4.523L44.46 94.344l-2.074 2.254-83.783-77.089Z" style="fill:#acd482" transform="scale(1 -1) rotate(47.383 208.202 175.337)"/>
      <path d="M0 43.578h-54.847a3.47 3.47 0 0 1-3.47-3.47V3.471A3.47 3.47 0 0 1-54.847 0H0a3.47 3.47 0 0 1 3.47 3.471v36.637A3.47 3.47 0 0 1 0 43.578" style="fill:#6a5861" transform="translate(140.53 30.623)"/>
      <path style="fill:#fff" d="M85.094 77.748h53.544v39.593H85.094z" transform="matrix(-1 0 0 1 223.732 -45.089)"/>
      <path d="M.083 0v-.711h.232c.077 0 .135.016.174.048.039.032.058.079.058.142a.144.144 0 0 1-.028.088.191.191 0 0 1-.077.059.167.167 0 0 1 .091.061c.022.03.033.066.033.108 0 .064-.02.114-.062.15C.463-.018.405 0 .329 0H.083Zm.093-.333v.256h.155a.146.146 0 0 0 .103-.034C.46-.133.472-.164.472-.204c0-.086-.046-.129-.139-.129H.176Zm0-.075h.142c.041 0 .074-.01.098-.031a.1.1 0 0 0 .037-.083c0-.039-.011-.068-.034-.086a.175.175 0 0 0-.104-.026H.176v.226Z" style="fill:#462e3b;fill-rule:nonzero" transform="translate(95.784 51.483) scale(11.6049)"/>
      <use style="fill:#462e3b;fill-rule:nonzero" transform="translate(103.008 51.483) scale(11.6049)" xlink:href="#reuse-1"/>
      <use style="fill:#462e3b;fill-rule:nonzero" transform="translate(110.987 51.483) scale(11.6049)" xlink:href="#reuse-1"/>
      <path d="M.263-.331.176-.24V0H.083v-.711h.093v.352l.316-.352h.113l-.279.314L.627 0H.515L.263-.331Z" style="fill:#462e3b;fill-rule:nonzero" transform="translate(118.965 51.483) scale(11.6049)"/>
      <path d="M.174-.201a.278.278 0 0 1 .014-.092.23.23 0 0 1 .049-.074l.064-.066a.145.145 0 0 0 .041-.099.115.115 0 0 0-.027-.081C.298-.632.271-.642.237-.642a.116.116 0 0 0-.08.027.089.089 0 0 0-.03.071h-.09c0-.053.019-.096.056-.128a.208.208 0 0 1 .144-.049c.062 0 .11.017.144.05a.18.18 0 0 1 .052.136c0 .056-.027.112-.079.168L.3-.315a.17.17 0 0 0-.035.114H.174ZM.17-.046c0-.015.005-.027.014-.037.009-.01.022-.015.04-.015.017 0 .031.005.04.015.009.01.013.022.013.037a.052.052 0 0 1-.013.037C.255.001.241.005.224.005.206.005.193.001.184-.009A.053.053 0 0 1 .17-.046Z" style="fill:#462e3b;fill-rule:nonzero" transform="translate(126.241 51.483) scale(11.6049)"/>
      <path d="M0 8.867h-18.025a1.59 1.59 0 0 1-1.591-1.591V1.591A1.59 1.59 0 0 1-18.025 0H0c.878 0 1.591.712 1.591 1.591v5.685c0 .879-.713 1.591-1.591 1.591" style="fill:#8bc34a;fill-rule:nonzero" transform="translate(110.656 59.646)"/>
      <path d="M0 4.775h-11.954a.943.943 0 0 1-.943-.943V.943c0-.521.422-.943.943-.943H0c.521 0 .943.422.943.943v2.889c0 .52-.422.943-.943.943" style="fill:#dad4d7;fill-rule:nonzero" transform="translate(131.707 61.692)"/>
      <path d="m0 .502 1.569 1.569 3.575-3.64" style="fill:none;fill-rule:nonzero;stroke:#fff;stroke-width:2.05px" transform="translate(99.58 64.108)"/>
      <path d="M-1.98-1.98a1.98 1.98 0 1 0 0 3.96 1.98 1.98 0 0 0 0-3.96" style="fill:#8f8087" transform="matrix(0 -1 -1 0 141.341 50.476)"/>
      <path d="M0-10.002c-.444 1.586-.593 3.394-.566 5.314-.021 1.924.164 3.969.145 6.167l-2.877-4.061c1.318.341 2.535.563 3.585.66 1.055.103 1.922-.033 2.544-.266a4.051 4.051 0 1 1 1.775 7.832l-.359.03a16.17 16.17 0 0 1-2.739.005C.634 5.596-.19 5.443-.98 5.292c-1.58-.313-2.979-.832-4.316-1.21a2.858 2.858 0 0 1-2.077-2.908l.002-.02c.053-.945.059-1.92.037-2.919-.002-.998-.043-2.021-.081-3.072l-.156-3.254a103.328 103.328 0 0 1-.132-3.53 4.013 4.013 0 1 1 7.882.984L0-10.002Z" style="fill:#462d3b;fill-rule:nonzero" transform="translate(58.21 118.042)"/>
      <path d="M0-25.858c.044-.046.089-.09.135-.134-2.68.854-4.815 2.858-6.825 4.825-2.26 2.212-4.507 4.479-6.22 7.139-1.289 2.002-2.267 4.249-2.612 6.617-.29 1.986-.678 4.703.551 6.45.43.612 1.038 1.095 1.819.914.695-.163 1.263-.928 2.012-.709.329.096.643.282.986.267.61-.025 1.008-.647 1.561-.904.34-.158.729-.173 1.085-.292 1.079-.363 1.616-1.572 2.251-2.424.775-1.039 1.505-2.128 1.993-3.336.804-1.989.908-4.189.857-6.335-.05-2.145-.244-4.301.005-6.432.241-2.07.949-4.162 2.402-5.646" style="fill:#b84526" transform="translate(64.82 113.185)"/>
      <path d="M0-4.043c-.569.983-1.453 1.74-2.281 2.183a7.777 7.777 0 0 1-2.343.803c-.701.135-1.458.164-2.006.164-.548 0-.999-.01-1.345.002-.344.012-.587.048-.687.092-.055.02-.072.041-.068.055.02-.002-.021.02-.068.047a1.392 1.392 0 0 0-.132.075c-.376.216-.94.634-1.732 1.204-.398.282-.857.598-1.404.915a13.39 13.39 0 0 1-.891.466l-.496.218-.238.11c-.527.264-1.144.636-1.851 1.086l-1.134.721-.309.192a6.93 6.93 0 0 1-2.144.801l-.351.061-2.654.506-.25.048a4.02 4.02 0 1 1-.768-7.97c.906-.004 1.804-.072 2.705-.117.085-.007.055.001.04.007l-.037.02-.067.047c-.007.012-.073.046-.032.03l.285-.144 1.205-.616a28.608 28.608 0 0 1 2.812-1.27l.545-.206c.125-.053.258-.117.398-.187.282-.15.606-.334.956-.571.706-.459 1.56-1.074 2.712-1.597.299-.141.549-.253.948-.387a6.958 6.958 0 0 1 1.119-.272 14.826 14.826 0 0 1 1.889-.161c.54-.012.994-.011 1.357-.056.362-.038.529-.099.705-.2.16-.082.216-.214.094-.263-.115-.05-.441.057-.74.308A3.676 3.676 0 1 1 0-4.043" style="fill:#462d3b;fill-rule:nonzero" transform="translate(95.565 71.178)"/>
      <path d="M0-7.746c-.674 1.91-1.336 3.604-1.717 5.168-.187.78-.324 1.518-.372 2.181-.015.166-.017.33-.014.485-.001.138.002.377.015.453.009.087.031.077.013-.069a2 2 0 0 0-.305-.774 2.423 2.423 0 0 0-.654-.686c-.179-.122-.265-.154-.259-.165-.002-.01.082.002.222.018l.543.062c.735.071 1.476.066 2.208.021 1.467-.078 2.903-.429 4.228-.945A4.015 4.015 0 0 1 9.106.291a4.015 4.015 0 0 1-3.024 5.407l-.081.014a31.021 31.021 0 0 1-6.423.457c-1.067-.036-2.124-.182-3.177-.34l-.792-.137a8.789 8.789 0 0 1-1.008-.252 5.729 5.729 0 0 1-1.295-.591 4.662 4.662 0 0 1-1.377-1.306 4.734 4.734 0 0 1-.713-1.682A6.524 6.524 0 0 1-8.922.599c-.007-.351-.002-.578.012-.882.007-.292.035-.575.053-.858.076-1.134.28-2.191.457-3.211.385-2.03.812-3.916.862-5.661a4.027 4.027 0 1 1 7.83 1.44L0-7.746Z" style="fill:#462d3b;fill-rule:nonzero" transform="translate(50.449 121.227)"/>
      <path d="M0 61.103c-3.982-1.953-8.92-7.59-10.541-11.728-1.402-3.581-1.546-7.614-.527-11.313 1.217-4.414 4.063-6.893 7.206-10.027C3.013 21.176 8.087 17.09 13.752 9.611c2.093-2.763 4.864-6.636 7.076-9.304.714-.861 1.499-1.793 2.594-2.026.761-.163 5.807 1.366 6.544 1.617 4.04 1.376 5.939 4.172 8.175 7.808 6.141 9.986-1.153 20.705-11.503 27.402-12.456 8.059-8.101 13.335-10.942 20.855-.826 2.185-3.55 4.675-5.51 5.946-1.662 1.076-4.371.984-6.304.558A17.3 17.3 0 0 1 0 61.103" style="fill:#f2692b" transform="translate(41.823 50.22)"/>
      <path d="M0-60.099c-4.074 5.468-4.921 6.323-7.033 6.738-8.919 1.423-15.714 6.053-18.856 14.866-1.52 4.265-1.479 8.975-.723 13.248 1.483 8.381 5.848 15.311 13.383 19.788C-5.215-.697 3.18 0 11.898-3.436c1.276-.504 2.534-.962 3.552-1.91-1.434-.566-2.893-1.078-4.296-1.713-1.709-.774-1.679-2.796-1.159-4.816.393-1.528-.673-1.593-1.853-2.181-2.234-1.115-2.452-2.593-.804-4.23 1.738-1.727 1.535-3.532.847-5.924-4.681-1.721-9.327-3.529-11.808-8.327-1.667-3.227-2.997-6.517-1.361-10.243.734-1.673 1.534-2.298 3.268-1.188" style="fill:#f2692b" transform="translate(33.631 142.894)"/>
      <path d="M0-9.258c.165.275.158.709.02 1.001-.972 2.041-.399 5.135 1.712 6.207.512.27.712.308.567 1.016-.42 2.043 2.595 5.945 7.209 5.729 4.335-3.434 5.998-8.156 6.249-13.448.078-1.643-.884-3.026-2.682-3.33-3.627-.613-7.362-1.628-10.832-2.086C-1.491-12.276-.717-10.44 0-9.258" style="fill:#fff8f0" transform="translate(39.573 132.853)"/>
      <path d="M0-9.313c.01.912-.41 1.056-1.126 1.363-2.039.87-3.945 2.356-5.778 3.585a116.278 116.278 0 0 0-10.439 7.97c2.448-2.489 4.815-5.111 7.294-8.38 1.803-2.387 4.118-5.602 6.146-8.143.881.133 1.762.522 2.571 1.218.686.584 1.322 1.455 1.332 2.387" style="fill:#b84526;fill-rule:nonzero" transform="translate(65.624 64.603)" opacity=".3"/>
      <path d="M0 3.692c-3.439.169-7.427-1.593-11.559-3.861H-.95c.494 1.16.791 2.462.95 3.861" style="fill:#b84526;fill-rule:nonzero" transform="translate(82.144 60.535)"/>
      <path d="m0 11.791.636-2.198.159-.55.08-.274.039-.138c-.007.005-.02.032-.028.048a1.135 1.135 0 0 0-.109.505 1.2 1.2 0 0 0 .303.77c.004.005.027.025.016.018l-.174-.126-.232-.167-5.562-4.023-.927-.67-.463-.336-.116-.083-.292-.244a6.858 6.858 0 0 1-1.059-1.176l-.22-.331-.102-.167-.042-.058-.33-.47-.661-.937-.241-.342a4.072 4.072 0 0 1 6.658-4.689c.248.354.438.751.561 1.142.114.372.254.729.401 1.083l.215.534.027.066-.013-.009-.027-.022c-.02-.012-.035-.028-.051-.042l-.051-.038c-.006-.003-.026-.018-.02-.011l.106.096.426.381.85.762C.881 1.123 2.059 2.087 3.246 3.041c.599.469 1.184.955 1.795 1.411l.23.17.114.086A5.454 5.454 0 0 1 6.43 5.76a5.736 5.736 0 0 1 1.067 2.311 6.035 6.035 0 0 1-.036 2.603l-.083.315-.031.141-.06.282-.101.57a21.894 21.894 0 0 0-.281 2.328 3.713 3.713 0 1 1-7.278-1.234L0 11.791Z" style="fill:#462d3b;fill-rule:nonzero" transform="translate(81.472 77.813)"/>
      <path d="M0-1.702a36.611 36.611 0 0 1-2.694 4.181c-.253.339-.566.704-.989.725-.532.029-.883-.471-1.219-.805-.326-.323-.554-.722-1.091-.579-.326.087-.601.306-.917.423-.545.201-1.2.056-1.611-.354-.155-.155-.305-.359-.524-.369-.178-.009-.334.117-.447.255-.114.136-.21.294-.359.392a.604.604 0 0 1-.691-.032c-.28-.225-.168-.512-.206-.81-.031-.248-.144-.503-.251-.727-.253-.531-.617-1.007-1-1.45-.726-.841-1.587-1.553-2.315-2.39 2.106-1.483 6.257-1.361 8.829-1.513l3.082-.18L0-1.702Z" style="fill:#f2692b" transform="translate(52.871 112.35)"/>
      <path d="M0-.039C-.884-3.163-3.065-4.25-5.198-5.641c-1.159-.756-2.778-.142-3.698.836-2.324 2.466-2.359 8.261-.714 11.09h.011c.763.073 3.819-1.119 5.489-2.125C-2.44 3.153-.372.937.005-.022L0-.039" style="fill:#462d3b;fill-rule:nonzero" transform="translate(67.157 27.636)"/>
      <path d="M0 21.994c1.09-.692 2.041-1.482 2.657-2.38.518-.502.438-1.287.189-2.277C1.836 13.308 1.415 9.133.007 5.205c-1.299-3.62-3.28-5.853-6.43-8.027-3.717-2.567-6.734-3.635-11.197-3.98-5.198-.401-9.627.424-14.031 3.313-4.423 2.899-7.082 7.977-9.505 12.536-.829 1.561-2.031 3.02-1.116 4.792 1.859 3.6 5.89 6.596 9.167 8.841 9.513 6.517 23.621 5.335 33.105-.686" style="fill:#f2692b;fill-rule:nonzero" transform="translate(92.581 33.98)"/>
      <path d="M0-8.704c-.509-1.243-.718-2.275-2.712-1.848-2.716.58-6.449 1.915-8.035 4.665-.038.067-.081.13-.117.199.17 1.014 2.109 3.211 3.12 4.328 1.011 1.118 2.833 3.221 4.973 3.635C-.306.252 1.287-5.568 0-8.704" style="fill:#462d3b;fill-rule:nonzero" transform="translate(92.514 37.176)"/>
      <path d="M0 10.117c1.14-.66 2.54-.787 3.883-.594 1.392.199 4.073 2.389 5.463 2.922.004-.938-.22-3.456.79-3.275.523.093 1.176.37 1.535-.024.264-.288.111-.727.319-1.05.26-.407 1.322-.36 1.729-.673.639-.493.675-.933.462-1.605-.422-1.328-2.329-4.333-4.105-6.139C1.885-2.328 1.625 2.674 0 10.117" style="fill:#f2692b" transform="translate(67.44 71.506)"/>
      <use style="fill:#fff;fill-rule:nonzero" transform="translate(213.375 67.766)" xlink:href="#reuse-2"/>
      <use style="fill:#fff;fill-rule:nonzero" transform="matrix(-1 0 0 1 191.656 67.766)" xlink:href="#reuse-3"/>
      <use style="fill:#6a5861;fill-rule:nonzero" transform="translate(213.375 67.766)" xlink:href="#reuse-2"/>
      <use style="fill:#462e3b;fill-rule:nonzero" transform="matrix(-1 0 0 1 191.656 67.766)" xlink:href="#reuse-3"/>
      <path d="M-2.372-2.372c-1.232-.255-2.231.601-2.231 1.91 0 1.311.999 2.579 2.231 2.834C-1.14 2.627-.141 1.77-.141.461c0-1.311-.999-2.579-2.231-2.833" style="fill:#fff;fill-rule:nonzero" transform="matrix(0 -1 -1 0 201.782 56.416)" opacity=".6"/>
      <path d="M0 25.702h-25.062l6.665-24.03A2.282 2.282 0 0 1-16.197 0H5.077c1.006 0 1.715.989 1.39 1.942L0 25.702Z" style="fill:#462e3b;fill-rule:nonzero" transform="translate(256.436 54.872)"/>
      <path d="M0 25.249h-22.687l6.46-23.3A2.66 2.66 0 0 1-13.664 0H5.485c.762 0 1.314.727 1.111 1.461L0 25.249Z" style="fill:#eae9ea;fill-rule:nonzero" transform="translate(254.06 55.325)"/>
      <path d="M-8.738-11.224h23.156" style="fill:none;fill-rule:nonzero;stroke:#462e3b;stroke-width:1.13px;stroke-linejoin:miter" transform="scale(1 -1) rotate(-75.801 75.368 -213.633)"/>
      <path d="M-10.401-11.658h23.466" style="fill:none;fill-rule:nonzero;stroke:#462e3b;stroke-width:1.13px;stroke-linejoin:miter" transform="scale(1 -1) rotate(-83.482 73.12 -186.297)"/>
      <path d="M-13.753-11.182H9.091" style="fill:none;fill-rule:nonzero;stroke:#462e3b;stroke-width:1.13px;stroke-linejoin:miter" transform="scale(-1 1) rotate(78.225 -175.223 -90.838)"/>
      <path d="M0 3.744h18.643V0H0a1.872 1.872 0 1 0 0 3.744" style="fill:#6a5861;fill-rule:nonzero" transform="translate(217.701 80.574)"/>
      <path d="M0 0c0 1.033.838 1.872 1.872 1.872h18.309c.835 0 1.694-.685 1.922-1.545l.584-2.199H1.872A1.872 1.872 0 0 0 0 0" style="fill:#462e3b;fill-rule:nonzero" transform="translate(233.732 82.446)"/>
      <path d="M-20.251-17.372h35.153" style="fill:none;fill-rule:nonzero;stroke:#462e3b;stroke-width:2px;stroke-linejoin:miter" transform="scale(-1 1) rotate(81.248 -155.176 -70.222)"/>
      <path d="M0-4.859V0h-88.13c-.57 0-1.02-.349-1.02-.779V-4.08c0-.439.45-.779 1.02-.779H0Z" style="fill:#f38556;fill-rule:nonzero" transform="translate(266 74.18)"/>
      <path d="M0-1.479V0h-88.13c-.57 0-1.02-.349-1.02-.779v-.7H0Z" style="fill:#f16a2d;fill-rule:nonzero" transform="translate(266 74.18)"/>
    </g>
  </g>
</svg>
