<?xml version="1.0" encoding="UTF-8" standalone="no"?>
<svg viewBox="0 0 151 151" xmlns="http://www.w3.org/2000/svg" xmlns:xlink="http://www.w3.org/1999/xlink" xml:space="preserve" style="fill-rule:evenodd;clip-rule:evenodd;stroke-linejoin:round;stroke-miterlimit:2">
  <defs>
    <path d="M-1.439-1.218A1.4 1.4 0 0 0-2.866.198c0 .799.637 1.465 1.427 1.488A1.398 1.398 0 0 0 .001.27a1.487 1.487 0 0 0-1.44-1.488" style="fill:#462e3b;fill-rule:nonzero" id="reuse-0"/>
  </defs>
  <path style="fill:none" d="M0 0h150v150H0z" transform="translate(.75 .5)"/>
  <path d="M0 71.494c6.244 4.624 13.535 6.809 21.302 6.652 9.738-.207 19.739-4.262 26.671-11.115C61.779 53.348 65.85 29.682 57.19 12.255 54.706 7.259 51.22 2.772 47.057-.918c-2.872-2.547-6.015-4.221-9.204-5.891 3.876 5.378 1.923 11.954-.825 13.148-.994.431-.857.708-.731 1.567.634 3.5-2.609 6.863-5.965 7.419-.481.084-1.022.451-1.204.885-.774 1.863-1.895 4.47-7.325 1.793a4 4 0 0 1-.34-.161c3.277 7.196 7.029 14.291 6.908 22.4-.134 9.034-4.259 20.332-13.033 24.301-2.162.977-6.198-1.57-8.573-1.706L0 71.494Z" style="fill:#f2692b" transform="translate(68.737 63.038)"/>
  <path d="M0-8.517a28.24 28.24 0 0 1-.571.581C-7.506-1.081-17.501 2.978-27.242 3.181c-6.956.144-13.524-1.6-19.317-5.283.316-1.927 1.173-3.794 2.254-5.436s2.417-3.141 3.978-4.304c2.202.623 5.017 2.051 6.813 1.53.203 1.01.326 2.009.51 2.651.693 2.408 2.09 4.071 3.855 5.162 2.193 1.356 4.967 1.856 7.741 1.836C-15.574-.714-9.74-2.397-4.691-5.284A32.738 32.738 0 0 0 0-8.517" style="fill:#b84425;fill-rule:nonzero" transform="translate(117.28 138)"/>
  <path d="M0 20.157c.182-.434.723-.801 1.204-.885 3.356-.555 6.599-3.919 5.965-7.419-.126-.859-.263-1.134.73-1.567 2.122-.922 2.883-3.879 2.988-5.952a11.188 11.188 0 0 0-.772-4.659c-.315-.8-.713-1.682-1.261-2.353-.503-.617-1.386-.901-2.13-1.151-1.768-.595-3.652-.641-5.5-.621C-4.117-4.394-9.074-2.527-13.74.442c-2.063 1.302-2.872 3.675-1.603 6.139a78.877 78.877 0 0 1 1.564 3.182c1.116 2.329 2.2 4.369 3.313 6.666.239.495.498 1.034.772 1.57.667 1.32 1.417 2.693 2.029 3.79a4 4 0 0 0 .34.161c5.43 2.677 6.551.07 7.325-1.793" style="fill:#fff8f0" transform="translate(97.865 59.091)"/>
  <path d="M0-82.222c.875 1.169 2.035 3.574 2.446 4.449 2.953 6.34 5.196 12.502 6.872 18.654 3.55 13.056 4.486 26.089 3.879 40.797-.285 6.905-3.309 13.676-9.321 16.711C-1.961 1.338-8.816.784-15.073.746h-3.152c-6.257.038-9.576.347-15.414-2.6-6.011-3.035-7.091-10.637-7.377-17.542-.471-11.427-.265-23.294 1.143-34.807.303-2.474 4.137-29.357 5.901-29.291L0-82.222" style="fill:#f2692c;fill-rule:nonzero" transform="translate(72.942 142.828)"/>
  <path d="M0-36.957c-5.361 2.638-7.358 10.449-7.507 15.916C-7.715-13.361-4.411-5.524.867 0" style="fill:#f2692c;fill-rule:nonzero" transform="translate(33.704 140.494)"/>
  <path d="M0-22.35c-.756 3.889-2.29 7.297-3.468 10.218-.623 1.475-1.106 2.863-1.767 4.261-.704 1.485-1.446 2.965-2.034 4.309a12.502 12.502 0 0 0-.564 1.566c-.027.1-.021-.023-.058-.063a1.87 1.87 0 0 0-.088-.396c-.012-.043-.021-.045-.039-.12a3.203 3.203 0 0 0-.28-.744l-.204-.355a2.108 2.108 0 0 0-.165-.238c-.05-.067-.147-.165-.17-.193a1.435 1.435 0 0 0-.083-.092c-.168-.143-.147-.126-.185-.138.044.073.609.412 1.181.667.592.271 1.285.539 1.966.764.731.258 1.142.306 1.749.394.579.071 1.216.095 1.907.077 1.382-.05 2.948-.294 4.677-.637A5.507 5.507 0 1 1 4.169 7.791l-.361.046c-1.772.23-3.733.493-5.917.537-1.09.02-2.241-.02-3.435-.17a21.22 21.22 0 0 1-3.479-.745 30.923 30.923 0 0 1-3.048-1.069c-1.057-.454-2.108-.897-3.5-1.883-.383-.295-.721-.543-1.186-1.022l-.316-.33a9.527 9.527 0 0 1-.726-.973l-.167-.264-.195-.383a8.547 8.547 0 0 1-.332-.798l-.134-.409c-.038-.127-.046-.186-.068-.282a10.579 10.579 0 0 1-.174-1.055c-.035-.484-.055-1.047-.03-1.387.076-1.544.299-2.566.519-3.615.457-2.038 1.009-3.852 1.596-5.653a55.1 55.1 0 0 1 2.149-5.5c1.602-3.525 3.26-6.547 4.531-9.533A5.434 5.434 0 0 1 .231-23.533L0-22.35Z" style="fill:#462e3b;fill-rule:nonzero" transform="translate(42.638 99.692)"/>
  <path d="M0 15.895c1.361-.594 1.626 1.393 2.483 1.943.925.594 1.779-.356 2.927.14 1.111.479 2.056 1.288 2.951 2.083l1.683 1.494c.33.293.674.594 1.097.715 1.551.444 2.801-2.532 3.431-3.552a143.83 143.83 0 0 0 3.108-5.313c1.53-2.733 3.117-5.49 4.383-8.361L10.681-6.819C6.001.611 2.323 8.167 0 15.895" style="fill:#f2692c;fill-rule:nonzero" transform="translate(26.188 69.786)"/>
  <path d="M0 9.735c8.277-3.089 14.484-4.29 20.361-4.826C19.637 3.107 19.077 2.013 18.06 0 13.468 3.282 4.563 5.494 0 9.735" style="fill:#b84425;fill-rule:nonzero" transform="translate(56.292 62.967)"/>
  <path d="M0-10.995c-2.779.614-5.86.663-7.499.832-5.872.604-8.445 3.775-7.791 9.786C-7.337.197 3.631.59 11.581.095c.089-4.42-5.707-7.538-8.309-10.871a1.707 1.707 0 0 0-1.877-.589c-.45.141-.918.264-1.395.37" style="fill:#3b2532;fill-rule:nonzero" transform="translate(33.602 143.318)"/>
  <path d="M0-11.046a8.97 8.97 0 0 1 8.971 8.971A1.32 1.32 0 0 1 7.839-.768a57.542 57.542 0 0 1-16.81-.166v-1.141A8.971 8.971 0 0 1 0-11.046" style="fill:#36222d;fill-rule:nonzero" transform="translate(67.941 144.793)"/>
  <path d="M0-27.419C2.023-11.557-.862-7.082-1.9 0l-1.131-22.106L0-27.419Z" style="fill:#b84425;fill-rule:nonzero" transform="translate(74.8 119.589)"/>
  <path d="M0-49.304c1.495 8.175 3.46 16.578 3.904 25.07.408 8.489-.237 16.826-1.209 25.06l9.494 1.252c1.008-4.525 1.506-8.137 2.037-12.65.525-4.512 1.43-11.299 1.65-15.815.416-9.038-.179-15.786-.931-24.995L0-49.304Z" style="fill:#462e3b;fill-rule:nonzero" transform="translate(57.293 142.313)"/>
  <path d="M0-8.347C.136-5.731.182-2.371-.765 2.89c-.129.294-.318.622-.653.661-.336.031-1.08-1.186-1.408-1.376-.556-.32-1.155-.257-1.63.166-.481.429-.818 1.046-1.444 1.257-.559-.496-1.133-1.001-1.825-1.301-.691-.301-1.534-.366-2.148.017-.231.145-.426.348-.689.438-1.105.377-2.05-1.448-3.214-1.255-.381.063-.685.342-1.068.398-.439.066-.891-.185-1.177-.525-.285-.34-.437-.759-.583-1.168-.429-1.201-.86-2.409-1.08-3.653-.497-2.814-.369-5.368-.369-8.494" style="fill:#f2692c;fill-rule:nonzero" transform="translate(74.764 99.75)"/>
  <use xlink:href="#a" x="75.005" y="161.994" width="6.058" height="3.349" transform="scale(.86543 .8372)"/>
  <path d="M0-8.865c-1.615-.666-3.595-.655-5.131-.355a8.205 8.205 0 0 0-1.038.272 7.238 7.238 0 0 0-4.82 5.612c-.099.578-.134 1.2.029 1.779C-10.452.254-8.508.541-6.958.562c1.873.024 3.804.104 5.665-.066C.261.354 1.876-.141 2.635-1.631c.913-1.794.587-4.217-.707-5.834C1.418-8.103.749-8.556 0-8.865" style="fill:#462e3b;fill-rule:nonzero" transform="translate(69.008 145.592)"/>
  <path d="m0-34.31-19.03-2.973c-1.542-.241-2.935 1.259-3.101 2.705L-24.305-2.35c-.129 1.12.855 2.189 2.195 2.399l14.43 2.813c2.583.352 3.368-.948 3.588-2.054l6.229-31.382C2.42-32.001 2.19-33.825 0-34.31" style="fill:#462e3b;fill-rule:nonzero" transform="translate(59.87 113.54)"/>
  <path d="m0 39.498-15.196-2.375c-1.34-.209-2.323-1.279-2.195-2.398l3.724-32.5c.166-1.447 1.551-2.434 3.093-2.193L6.914 2.765c1.542.24 2.561 1.603 2.277 3.031L2.822 37.883C2.603 38.988 1.34 39.707 0 39.498" style="fill:#a1cf70;fill-rule:nonzero" transform="translate(51.407 76.737)"/>
  <path d="M-3.649-3.649a3.649 3.649 0 1 0 .001 7.297 3.649 3.649 0 0 0-.001-7.297" style="fill:#d0e7b8;fill-rule:nonzero" transform="matrix(0 -1 -1 0 46.577 94.473)"/>
  <path d="m0 9.366-4.766-.745c-1.066-.166-1.826-1.143-1.699-2.187l.583-4.765A1.922 1.922 0 0 1-3.654.006l4.908.766c1.098.172 1.852 1.194 1.687 2.276l-.725 4.743C2.057 8.83 1.065 9.532 0 9.366" style="fill:#8cc44a;fill-rule:nonzero" transform="translate(45.096 78.443)"/>
  <path d="m0 9.374-4.769-.745c-1.065-.166-1.827-1.144-1.7-2.189l.581-4.77A1.923 1.923 0 0 1-3.659.005l4.91.767c1.098.171 1.853 1.194 1.688 2.277l-.723 4.748C2.058 8.838 1.066 9.541 0 9.374" style="fill:#d0e7b8;fill-rule:nonzero" transform="translate(44.965 78.276)"/>
  <path d="M-1.83-1.545c-.989-.019-1.788.787-1.786 1.801 0 1.014.797 1.86 1.786 1.891.997.031 1.809-.775 1.809-1.801 0-1.026-.813-1.873-1.809-1.891" style="fill:#96c960;fill-rule:nonzero" transform="scale(1 -1) rotate(81.135 69.294 -17.23)"/>
  <path d="M-1.856-1.567A1.805 1.805 0 0 0-3.694.259c-.001 1.029.819 1.887 1.838 1.919C-.831 2.211.004 1.393.005.352.004-.688-.831-1.547-1.856-1.567" style="fill:#96c960;fill-rule:nonzero" transform="scale(1 -1) rotate(81.121 67.14 -14.813)"/>
  <use style="fill:#462e3b;fill-rule:nonzero" transform="scale(1 -1) rotate(81.125 67.304 -15.094)" xlink:href="#reuse-0"/>
  <use style="fill:#6a5761;fill-rule:nonzero" transform="scale(1 -1) rotate(81.125 67.304 -15.094)" xlink:href="#reuse-0"/>
  <path d="M-.653-.555a.635.635 0 0 0-.649.642c0 .364.291.666.649.676A.635.635 0 0 0 0 .12a.676.676 0 0 0-.653-.675" style="fill:#462e3b;fill-rule:nonzero" transform="scale(1 -1) rotate(81.095 67.646 -15.606)"/>
  <path d="M0-.147A1.397 1.397 0 0 1-1.614 1.04a1.414 1.414 0 0 1-.915-.543c.21.19.477.317.766.363A1.404 1.404 0 0 0-.364-1.311c.282.303.424.72.364 1.164" style="fill:#462e3b;fill-rule:nonzero" transform="translate(42.982 81.026)"/>
  <path d="M-1.418-1.2c-.768-.016-1.387.609-1.387 1.397 0 .787.619 1.443 1.387 1.466.773.023 1.401-.602 1.4-1.396.001-.795-.627-1.451-1.4-1.467" style="fill:#6a5761;fill-rule:nonzero" transform="scale(1 -1) rotate(81.12 69.472 -17.499)"/>
  <path d="M0-.139c-.102.757-.815 1.272-1.588 1.151a1.405 1.405 0 0 1-.903-.531c.207.187.47.31.756.355C-.95.959-.237.442-.133-.327a1.318 1.318 0 0 0-.228-.945c.279.295.42.7.361 1.133" style="fill:#462e3b;fill-rule:nonzero" transform="translate(42.42 85.166)"/>
  <path d="M-.643-.547a.622.622 0 0 0-.631.634c0 .357.283.655.631.665A.622.622 0 0 0-.009.118a.66.66 0 0 0-.634-.665" style="fill:#462e3b;fill-rule:nonzero" transform="scale(1 -1) rotate(81.147 69.76 -18.028)"/>
  <path d="M-.846-.72a.834.834 0 0 0-.835.844.857.857 0 0 0 .835.865.834.834 0 0 0 .842-.844.86.86 0 0 0-.842-.865" style="fill:#fff;fill-rule:nonzero" transform="scale(1 -1) rotate(81.116 70.894 -14.758)"/>
  <path d="M0-.034a.834.834 0 0 1-.961.693.902.902 0 0 1-.545-.301c.12.103.269.174.437.201a.827.827 0 0 0 .961-.695.865.865 0 0 0-.155-.629A.82.82 0 0 1 0-.034" style="fill:#eceaeb;fill-rule:nonzero" transform="translate(45.948 83.507)"/>
  <path d="M-.329-.282a.326.326 0 0 0-.329.33c0 .183.147.334.329.337a.328.328 0 0 0 .33-.329.337.337 0 0 0-.33-.338" style="fill:#462e3b;fill-rule:nonzero" transform="scale(1 -1) rotate(81.103 69.926 -13.74)"/>
  <path d="m0-11.326 1.06.318.259.08.205.039c.132.03.28.045.42.069.57.085 1.21.118 1.905.122 1.391.009 3.037-.149 4.92-.323a6.066 6.066 0 1 1 .515 12.107l-.583-.005c-1.919-.016-4.049-.014-6.41-.334C1.113.584-.118.348-1.375-.044c-.314-.101-.627-.196-.943-.317l-.471-.177-.404-.176-1.602-.713A5.453 5.453 0 0 1-1.006-11.63L0-11.326Z" style="fill:#462e3b;fill-rule:nonzero" transform="translate(35.522 107.267)"/>
  <path d="M0-23.209c.692-1.698 2.56-1.729 3.687-1.432 2.564.666 3.273 2.606 2.327 4.462-.7 1.36-2.092 2.241-3.83 1.67-2.221-.737-2.892-2.331-2.184-4.7m30.591 8.421c.515-2.197 2.473-2.565 4.149-2.15 2.182.533 2.668 2.311 2.209 4.271-.363 1.547-1.994 2.427-3.855 2.056-1.887-.769-3.001-2.096-2.503-4.177m-45.583-10.466c2.135 1.196 7.361 6.056 12.508 12.18C1.081-8.833 4.613-3.99 7.038.658c2.645 5.059 7.403 6.066 12.399 3.362 3.246-2.056 7.551-4.224 11.799-6.101 5.665-2.491 11.238-4.449 14.081-4.882 1.964-.302 4.589-.686 5.843-2.091-1.83-3.562-4.497-6.156-7.628-8.49-6.584-4.915-16.595-3.846-20.829 3.823-2.255 4.096-3.461 7.48-4.866 12.776.027.027.045.043.06.068.458 2.087-1.185 3.433-2.772 3.518-1.694.081-3.53-.164-4.675-2.054-.801-1.319-.559-2.351.335-3.24.219-.797.441-1.648.643-2.515.76-3.238 1.333-6.847 1.177-9.94-.558-10.664-7.901-14.43-15.611-14.681-4.372-.144-8.533 1.591-11.986 4.535" style="fill:#fff8f0;fill-rule:nonzero" transform="translate(34.788 69.926)"/>
  <path d="M3.215-4.313C.977-4.511.006-2.778-.137-1.05c-.186 2.238 1.351 3.257 3.352 3.441 1.589.149 2.938-1.122 3.176-2.998C6.26-2.64 5.353-4.122 3.215-4.313" style="fill:#462d3b;fill-rule:nonzero" transform="scale(-1 1) rotate(71.53 -72.345 -22.205)"/>
  <path d="M.724-.14c-2.331.187-3.366 1.576-3.247 4.05.272 1.811 2.08 2.284 3.247 2.265 2.64-.04 3.801-1.753 3.317-3.781C3.686.904 2.54-.285.724-.14" style="fill:#462d3b;fill-rule:nonzero" transform="scale(1 -1) rotate(-13.77 -193.482 -175.89)"/>
  <path d="M0 20.365c-6.583-4.91-16.59-3.841-20.82 3.826-2.263 4.102-3.468 7.485-4.866 12.778-1.529-2.22-4.972-2.649-6.56-2.144a5.17 5.17 0 0 0-.498.438h-.002c1.04-3.758 2.021-8.522 1.818-12.455-.553-10.664-7.899-14.432-15.602-14.686-4.376-.143-8.531 1.591-11.985 4.539-.936-.492-1.622-1.197-.962-2.257 3.817-6.112 6.53-12.561 12.748-18.647 1.109.254 2.12-.64 2.55-1.826 1.189-1.789 6.339-4.283 9.419-4.526.01.056.027.117.033.17.876.228 2.437.089 3.173-1.255-.017-.112-.047-.223-.069-.335 3.883-.589 8.533-.485 13.96.945 4.791 1.264 8.642 2.757 11.769 4.672l-.015.021c.061 1.531 1.398 2.35 2.284 2.535.006-.011.021-.026.029-.037C-.999-6.145 2.187-1.777 2.448.282c-.141 1.251.945 2.631 2.052 2.9.09.261.187.51.273.779 1.803 5.567 2.495 12.704 3.566 21.571.182 1.508.155 2.682-.703 3.326C5.797 25.296 3.13 22.7 0 20.365" style="fill:#f2692b;fill-rule:nonzero" transform="translate(78.316 32.012)"/>
  <path d="M-5.345-11.658c-2.151.32-1.987 3.212-2.127 5.154-.178 2.448.575 5.183 2.127 7.327.675-1.963 4.684-5.591 7.579-6.76-.476-1.076-4.403-6.195-7.579-5.721" style="fill:#fff8f0;fill-rule:nonzero" transform="scale(-1 1) rotate(-11.748 109.904 383.107)"/>
  <path d="M0-1.024c.017.024.037.046.053.07.458 2.09-1.181 3.433-2.773 3.515-1.694.087-3.526-.161-4.675-2.059-.795-1.31-.553-2.342.337-3.231.15-.149.312-.297.498-.439 1.588-.504 5.031-.076 6.56 2.144" style="fill:#462d3b;fill-rule:nonzero" transform="translate(52.63 70.004)"/>
  <path d="M0 13.476c1.955-1.783 3.25-4.307 3.574-6.739.258-1.931 1.008-4.729-1.033-5.48C-.473.146-5.36 4.358-6.044 5.315c-.008.011-.023.026-.029.037-.886-.185-2.223-1.004-2.284-2.535l.015-.021c2.77-3.957 6.305-3.998 10.367-5.143 1.983-.559 3.649.974 4.463 2.8 2.058 4.601-.726 12.759-4.421 15.929l-.016-.006C.944 16.107-.142 14.727 0 13.476" style="fill:#462d3b;fill-rule:nonzero" transform="translate(80.764 18.818)"/>
  <path d="M0-4.888c.431-1.587.771-2.628 1.133-3.256.326-.357.683-.626 1.07-.769.266.004.567.096.923.268 2.852 1.373 6.14 6.002 6.537 8.144-3.08.243-8.23 2.737-9.419 4.526C-.714 1.56-.642-2.519 0-4.888" style="fill:#fff8f0;fill-rule:nonzero" transform="translate(33.893 17.918)"/>
  <path d="M0 7.214c-.006-.053-.024-.114-.033-.17C-.431 4.902-3.719.274-6.57-1.099c-.357-.172-.657-.265-.924-.269-.422-.006-.755.225-1.069.77-.362.627-.703 1.668-1.133 3.255-.642 2.369-.714 6.449.243 8.913-.43 1.186-1.441 2.08-2.549 1.826l-.008-.001c-1.903-4.484-1.948-13.21 1.394-16.987 1.324-1.497 2.122-2.844 4.715-1.269C-2.37-2.718 2.222.985 3.104 5.624c.021.112.051.223.068.335C2.437 7.303.875 7.443 0 7.214" style="fill:#462d3b;fill-rule:nonzero" transform="translate(43.59 10.373)"/>
  <path d="M0-20.56v16.13a2.962 2.962 0 0 1-2.96 2.971h-14.18l-5.33 4.16a.504.504 0 0 1-.82-.401v-3.759h-2.46c-1.63 0-2.96-1.33-2.96-2.971v-16.13c0-1.64 1.33-2.97 2.96-2.97h22.79c1.64 0 2.96 1.33 2.96 2.97" style="fill:#8cc44a;fill-rule:nonzero" transform="translate(134.649 42.7)"/>
  <path d="M0 4.128h-2.94a.594.594 0 0 1-.594-.594V.593c0-.327.266-.593.594-.593H0c.328 0 .594.266.594.593v2.941A.594.594 0 0 1 0 4.128" style="fill:#fff;fill-rule:nonzero" transform="translate(129.217 27.916)"/>
  <path d="M0 4.128h-2.941a.593.593 0 0 1-.593-.594V.593c0-.327.265-.593.593-.593H0c.328 0 .594.266.594.593v2.941A.594.594 0 0 1 0 4.128" style="fill:#fff;fill-rule:nonzero" transform="translate(114.317 27.916)"/>
  <path d="M0 4.128h-2.941a.594.594 0 0 1-.594-.594V.593c0-.327.266-.593.594-.593H0c.328 0 .593.266.593.593v2.941A.593.593 0 0 1 0 4.128" style="fill:#fff;fill-rule:nonzero" transform="translate(121.767 27.916)"/>
  <use xlink:href="#b" x="137.961" y="20.696" width="7.38" height="7.41" transform="scale(.9225 .92625)"/>
  <path d="M-6.409-6.41a6.41 6.41 0 1 0 0 12.82 6.41 6.41 0 0 0 0-12.82" style="fill:#f2692c;fill-rule:nonzero" transform="matrix(0 -1 -1 0 133.678 12.766)"/>
  <path d="M.408 0H.243v-.525l-.162.047v-.125l.312-.108h.015V0Z" style="fill:#fff;fill-rule:nonzero" transform="translate(131.591 21.605) scale(7.7573)"/>
</svg>
