<svg xmlns="http://www.w3.org/2000/svg" xmlns:xlink="http://www.w3.org/1999/xlink" viewBox="0 0 464 261"><defs><style>.cls-1,.cls-23,.cls-24,.cls-31,.cls-32,.cls-41,.cls-46,.cls-47{fill:none;}.cls-2{isolation:isolate;}.cls-18,.cls-3,.cls-40{fill:#fff;}.cls-4{fill:#b5e3f7;}.cls-21,.cls-5{fill:#8cc44a;}.cls-14,.cls-22,.cls-32,.cls-39,.cls-49,.cls-5,.cls-8,.cls-9{opacity:0.6;}.cls-10,.cls-14,.cls-28,.cls-38,.cls-51,.cls-6,.cls-7,.cls-8{fill:#462e3b;}.cls-37,.cls-40,.cls-6{opacity:0.2;}.cls-7{opacity:0.3;}.cls-11{fill:#e6e6e6;}.cls-12{fill:#999;}.cls-13,.cls-35{fill:#f2f2f2;}.cls-13,.cls-14,.cls-41,.cls-42,.cls-43,.cls-44,.cls-45{fill-rule:evenodd;}.cls-15{fill:#b3b3b3;}.cls-16,.cls-22{fill:#f5b1a5;}.cls-17{fill:#666;}.cls-18,.cls-48,.cls-51{opacity:0.8;}.cls-19{fill:silver;}.cls-20{fill:#8d8d8d;}.cls-22,.cls-24,.cls-30,.cls-32{mix-blend-mode:multiply;}.cls-23,.cls-31,.cls-41,.cls-46{stroke:#462e3b;}.cls-23,.cls-24,.cls-31,.cls-32,.cls-41,.cls-47{stroke-miterlimit:10;}.cls-23{stroke-width:0.54px;}.cls-24{stroke:#f5b1a5;stroke-width:0.37px;}.cls-25,.cls-39{fill:#f2692c;}.cls-26{fill:#f6b0a4;}.cls-27{fill:url(#linear-gradient);}.cls-28,.cls-30,.cls-36{opacity:0.4;}.cls-29{fill:#9b6d4e;}.cls-30{fill:#8e6446;}.cls-31{stroke-width:0.59px;}.cls-32{stroke:#7c573e;stroke-width:0.42px;}.cls-33{clip-path:url(#clip-path);}.cls-34{fill:#e1e1d9;}.cls-38{opacity:0.1;}.cls-41,.cls-46{stroke-linecap:round;}.cls-41{stroke-width:6.27px;}.cls-42{fill:#462d3b;}.cls-43{fill:#b84425;}.cls-44{fill:#f3682a;}.cls-45{fill:#fff8f0;}.cls-46{stroke-linejoin:round;stroke-width:0.95px;}.cls-47{stroke:#8cc44a;stroke-width:0.27px;}.cls-49,.cls-50{fill:#f2bd2c;}</style><linearGradient id="linear-gradient" x1="192.15" y1="189.68" x2="168.26" y2="217.19" gradientTransform="matrix(0.97, -0.11, 0, 1, 5.11, 18.08)" gradientUnits="userSpaceOnUse"><stop offset="0" stop-color="#d8d8d8" stop-opacity="0"/><stop offset="0.1" stop-color="#d8d8d8" stop-opacity="0.07"/><stop offset="0.13" stop-color="#d8d8d8" stop-opacity="0.17"/><stop offset="0.2" stop-color="#d8d8d8" stop-opacity="0.45"/><stop offset="0.3" stop-color="#d8d8d8" stop-opacity="0.88"/><stop offset="0.32" stop-color="#d8d8d8"/><stop offset="1" stop-color="#d8d8d8" stop-opacity="0"/></linearGradient><clipPath id="clip-path"><polygon class="cls-1" points="468.7 135.13 392.43 130.34 392.01 67.99 468.7 59.6 468.7 135.13"/></clipPath></defs><title>Upsell Card Business</title><g class="cls-2"><g id="white_rectangle" data-name="white rectangle"><rect class="cls-3" width="464" height="261"/></g><g id="sky"><rect class="cls-4" width="384.35" height="171.24"/></g><g id="floor"><rect class="cls-5" y="196.96" width="464" height="64.04"/></g><g id="skyline"><path class="cls-6" d="M127.9,100.59h0a21.86,21.86,0,0,1,21.86,21.86V159.1a0,0,0,0,1,0,0H127.9a0,0,0,0,1,0,0V100.59A0,0,0,0,1,127.9,100.59Z"/><rect class="cls-6" x="60.19" y="131.19" width="24.86" height="39.04"/><rect class="cls-6" y="131.19" width="25.08" height="39.08"/><rect class="cls-7" x="25.08" y="159.09" width="35.2" height="11.19"/><rect class="cls-7" x="85.05" y="159.09" width="299.06" height="11.19"/><rect class="cls-4" x="133.49" y="111" width="3.06" height="3.06"/><rect class="cls-4" x="139.96" y="111" width="3.06" height="3.06"/><rect class="cls-4" x="130.33" y="118.28" width="3.06" height="3.06"/><rect class="cls-4" x="130.33" y="104.98" width="3.06" height="3.06"/><rect class="cls-4" x="136.67" y="118.28" width="3.06" height="3.06"/><rect class="cls-4" x="143.02" y="118.28" width="3.06" height="3.06"/><rect class="cls-4" x="133.49" y="125.29" width="3.06" height="3.06"/><rect class="cls-4" x="139.96" y="125.29" width="3.06" height="3.06"/><rect class="cls-4" x="130.33" y="132.57" width="3.06" height="3.06"/><rect class="cls-4" x="136.67" y="132.57" width="3.06" height="3.06"/><rect class="cls-4" x="143.02" y="132.57" width="3.06" height="3.06"/><rect class="cls-4" x="133.49" y="139.58" width="3.06" height="3.06"/><rect class="cls-4" x="139.96" y="139.58" width="3.06" height="3.06"/><rect class="cls-4" x="133.49" y="154.5" width="3.06" height="3.06"/><rect class="cls-4" x="139.96" y="154.5" width="3.06" height="3.06"/><rect class="cls-4" x="130.33" y="146.86" width="3.06" height="3.06"/><rect class="cls-4" x="136.67" y="146.86" width="3.06" height="3.06"/><rect class="cls-4" x="143.02" y="146.86" width="3.06" height="3.06"/><rect class="cls-4" x="75.62" y="134.36" width="1.79" height="5.39"/><rect class="cls-4" x="78.05" y="134.36" width="1.79" height="5.39"/><rect class="cls-4" x="65.41" y="134.36" width="1.79" height="5.39"/><rect class="cls-4" x="67.84" y="134.36" width="1.79" height="5.39"/><rect class="cls-4" x="75.62" y="143.64" width="1.79" height="5.39"/><rect class="cls-4" x="78.05" y="143.64" width="1.79" height="5.39"/><rect class="cls-4" x="65.41" y="143.64" width="1.79" height="5.39"/><rect class="cls-4" x="67.84" y="143.64" width="1.79" height="5.39"/><rect class="cls-4" x="75.62" y="152.91" width="1.79" height="5.39"/><rect class="cls-4" x="78.05" y="152.91" width="1.79" height="5.39"/><rect class="cls-4" x="65.41" y="152.91" width="1.79" height="5.39"/><rect class="cls-4" x="67.84" y="152.91" width="1.79" height="5.39"/><rect class="cls-4" x="75.62" y="162.19" width="1.79" height="5.39"/><rect class="cls-4" x="78.05" y="162.19" width="1.79" height="5.39"/><rect class="cls-4" x="65.41" y="162.19" width="1.79" height="5.39"/><rect class="cls-4" x="67.84" y="162.19" width="1.79" height="5.39"/><rect class="cls-4" x="15.88" y="136.4" width="3.93" height="3.93"/><rect class="cls-4" x="15.88" y="145.72" width="3.93" height="3.93"/><rect class="cls-4" x="15.88" y="155.04" width="3.93" height="3.93"/><rect class="cls-4" x="2.77" y="155.04" width="8.04" height="3.93"/><rect class="cls-4" x="2.77" y="164.36" width="8.04" height="3.93"/><rect class="cls-4" x="2.77" y="145.72" width="8.04" height="3.93"/><rect class="cls-4" x="2.77" y="136.4" width="8.04" height="3.93"/><rect class="cls-4" x="15.88" y="164.36" width="3.93" height="3.93"/><rect class="cls-7" x="365.89" y="129.84" width="18.5" height="29.26"/><polygon class="cls-7" points="361.25 116.95 352.13 106.42 343.02 116.95 343.02 159.1 361.25 159.1 361.25 116.95"/><rect class="cls-4" x="345.94" y="120.13" width="4.98" height="3.13"/><rect class="cls-4" x="353.35" y="125.54" width="4.98" height="3.13"/><rect class="cls-4" x="345.94" y="130.94" width="4.98" height="3.13"/><rect class="cls-4" x="353.35" y="136.35" width="4.98" height="3.13"/><rect class="cls-4" x="345.94" y="141.76" width="4.98" height="3.13"/><rect class="cls-4" x="353.35" y="147.17" width="4.98" height="3.13"/><rect class="cls-4" x="345.94" y="152.58" width="4.98" height="3.13"/><rect class="cls-4" x="353.35" y="157.98" width="4.98" height="3.13"/><polygon class="cls-7" points="152.96 147.39 152.96 158.96 182.06 158.96 182.06 170.23 194.57 170.23 194.57 147.39 152.96 147.39"/><rect class="cls-7" x="182.06" y="131.73" width="28.86" height="27.36"/><rect class="cls-7" x="89.27" y="147.47" width="28.86" height="11.63"/></g><g id="window_frame" data-name="window frame"><rect class="cls-3" x="192.37" width="5.76" height="171.24"/><rect class="cls-3" x="378.59" y="-0.04" width="5.76" height="171.24"/><rect class="cls-3" x="6.14" width="5.76" height="171.24"/><rect class="cls-3" x="-0.03" y="171.2" width="384.64" height="25.76"/><rect class="cls-8" x="-0.03" y="194.72" width="384.64" height="2.24"/><g class="cls-9"><rect class="cls-10" x="11.9" y="170.28" width="180.42" height="0.92"/><rect class="cls-10" x="-0.03" y="170.28" width="6.17" height="0.92"/><rect class="cls-10" x="198.16" y="170.28" width="180.44" height="0.92"/></g></g><g id="table"><rect class="cls-11" x="242.31" y="225.16" width="8.68" height="38.1"/><rect class="cls-11" x="183.94" y="208.52" width="8.68" height="54.74"/><rect class="cls-11" x="25.35" y="208.52" width="8.68" height="54.74"/><path class="cls-12" d="M192.62,232.53v21.7q-4.25.33-8.68.62V232.53Z"/><path class="cls-12" d="M25.35,232.53v21.7c2.84.22,5.72.43,8.68.62V232.53Z"/><path class="cls-12" d="M251,231.85v11.32a24.37,24.37,0,0,1-8.67,3.89V231.85Z"/><path class="cls-3" d="M-36.11,238.49c0,9.53,65,17.25,145.06,17.25S254,248,254,238.49V226.61H-36.11Z"/><path class="cls-11" d="M-44.76,225.87c0,10.09,68.82,18.27,153.71,18.27S262.67,236,262.67,225.87v-6.31H-44.76Z"/><ellipse class="cls-3" cx="108.95" cy="219.56" rx="153.71" ry="18.27"/></g><g id="wall"><polygon class="cls-13" points="464 215.04 384.36 196.96 384.36 0 464 0 464 215.04"/><polygon class="cls-14" points="464.06 211.85 384.47 194.72 384.47 196.96 464.06 215 464.06 211.85"/></g><g id="laptop_1" data-name="laptop 1"><path class="cls-11" d="M171.54,232.93h0l.13.75,27.81-3.41a2,2,0,0,0,1.46-2h0c0-1.16-.79-2-1.73-1.8Z"/><ellipse class="cls-15" cx="199.37" cy="228.4" rx="1.41" ry="1.11" transform="translate(-69.74 368.03) rotate(-76.3)"/><polygon class="cls-15" points="171.66 233.38 199.29 227.94 199.45 228.86 171.66 233.38"/><polygon class="cls-16" points="171.43 219.06 200.06 226.59 171.54 232.93 143.96 224.6 171.43 219.06"/><polygon class="cls-17" points="171.67 233.68 143.96 225.37 143.96 224.6 171.54 232.93 171.67 233.68"/><ellipse class="cls-18" cx="172.51" cy="224.9" rx="3.57" ry="0.93"/><path class="cls-15" d="M176.06,224.81a6.51,6.51,0,0,0-3.42-.67c-2,0-3.56.42-3.56.94a.22.22,0,0,0,0,.08.33.33,0,0,1-.15-.26c0-.51,1.6-.92,3.57-.92S175.9,224.34,176.06,224.81Z"/></g><g id="laptop_2" data-name="laptop 2"><polygon class="cls-12" points="97.26 204.69 53.84 205.65 53.84 206.28 58.9 216.1 109.21 215.9 97.26 204.69"/><polygon class="cls-19" points="97.26 204.69 53.84 205.65 59.52 214.61 109.21 213.97 97.26 204.69"/><path class="cls-20" d="M60,216.88l48.36-1a1.22,1.22,0,0,0,1.19-1.21h0a1.17,1.17,0,0,0-1.19-1.17L60,214.5a1.22,1.22,0,0,0-1.19,1.21h0A1.16,1.16,0,0,0,60,216.88Z"/><ellipse class="cls-18" cx="81.01" cy="209.09" rx="1.04" ry="3.16" transform="translate(-128.84 288.13) rotate(-89.46)"/></g><g id="person_4" data-name="person 4"><path class="cls-21" d="M152.4,189a12.77,12.77,0,0,1-2.84,3,17.84,17.84,0,0,0-5.39,9.71c-8.11-.22-16.46-.37-25-.44A130.3,130.3,0,0,1,125.06,179a40.16,40.16,0,0,1,4.74-9.8c1.67-2.35,3.95-4.9,6.69-6s5.88.85,7.41,3.14,2.06,5,3.19,7.4c1.74,3.78,3.26,7.22,5.26,11.18A4.15,4.15,0,0,1,152.4,189Z"/><path class="cls-6" d="M138,202.2l10.26.27c-3.81-7.89-7.47-15.89-11.47-23.7.76,3.37-.13,7.23-.17,10.69A46.29,46.29,0,0,0,138,202.2Z"/><path class="cls-16" d="M137,165.89a7.82,7.82,0,0,0,3.64,2.44c1,.31,2.24.58,2.87-.51a5.72,5.72,0,0,0,.5-2.12,8.58,8.58,0,0,1,.7-2.41l.09-.22c.22-.48,1-2,.5-2.46l-3.74-3.26-2.18-1.92c.25.27-.4,2.25-.5,2.58a21.37,21.37,0,0,1-.95,2.61C137.2,162.27,135.61,164.21,137,165.89Z"/><path class="cls-22" d="M141.75,159.22a12,12,0,0,0,2.11,3.28l.86.79.09-.22c.22-.48,1-2,.5-2.46l-3.74-3.26-.16.14C140.93,158,141.51,158.73,141.75,159.22Z"/><path class="cls-16" d="M158.28,149.86c-.22,6.84-4.1,15-12.29,12.36-7.29-2.33-9.35-10.69-9-17.46a15.69,15.69,0,0,1,2.43-8.35c3.09-4.34,10.94-5,14.62-1.08C157.5,139,158.43,145.05,158.28,149.86Z"/><ellipse class="cls-10" cx="156.26" cy="148.48" rx="0.73" ry="1.36"/><path class="cls-23" d="M157.77,143.76a4.68,4.68,0,0,0-4.09.81"/><circle class="cls-22" cx="153.37" cy="152.29" r="1.47"/><path class="cls-10" d="M140.27,157.86a8,8,0,0,0,3.72-2.53,7.71,7.71,0,0,0,1.28-1.75c.23-.55-.13-1.32.35-1.77.27-.26.72-.23,1-.46a1.42,1.42,0,0,0,.45-.86c.28-1.05.49-2.15.84-3.18a14.51,14.51,0,0,1,1.05-2.13,10.82,10.82,0,0,1,3.34-3.92c1.72-1.15,4.91-2.12,4.22-4.78-.52-2-2.93-2.91-4.6-3.86a14.38,14.38,0,0,0-6.59-1.88,15.07,15.07,0,0,0-8.27,2.15c-3.3,2-5.87,5.44-6.05,9.28-.16,3.16,1.26,6.11,2.83,8.76a34,34,0,0,0,2.56,3.64c.49.61,1,1.21,1.55,1.78.22.24,1.42,1.7,1.72,1.65Z"/><path class="cls-16" d="M146.13,151.81a3.66,3.66,0,0,0,.26-1.93,2.3,2.3,0,0,0-2.25-1.79,2,2,0,0,0-1.81,2.44,3.22,3.22,0,0,0,.94,1.91c.34.34.89.64,1.06,1.12a3.36,3.36,0,0,0,.14.45.59.59,0,0,0,.6.37c.6,0,.82-.58.73-1.11"/><path class="cls-16" d="M157.78,147.11a14,14,0,0,0,.76,3,2.24,2.24,0,0,0,.67,1c.21.15.49.24.64.46a.79.79,0,0,1-.09.88,2.1,2.1,0,0,1-1.08.72,7,7,0,0,0-1,.2l-.07.46"/><path class="cls-24" d="M143.19,150.2a.71.71,0,0,1,.21-.71,1.13,1.13,0,0,1,1.92.64,1.15,1.15,0,0,1-.48,1.09.62.62,0,0,0,.46.55"/><circle class="cls-25" cx="145.93" cy="153.39" r="0.99"/><path class="cls-10" d="M137.09,132.89c-.39-.11-.72-1.8-.76-2.18s0-.76,0-1.14a2.64,2.64,0,0,0-2.24-2.34,3,3,0,0,0-3,1.45c-.16.3-.28.64-.59.79a1.52,1.52,0,0,1-.56.12,8.84,8.84,0,0,0-7,4.65,3.93,3.93,0,0,0-.48,2.21,2.11,2.11,0,0,0,1.4,1.73,7.12,7.12,0,0,0,1.85.07c.62,0,1.33.24,1.51.8s-.11.93,0,1.36.88.74,1.47.79a7,7,0,0,0,3.27-.53"/><path class="cls-25" d="M132.85,134.5a8.27,8.27,0,0,0-2.79,5.25c-.09,1.05.09,2.09.1,3.14a4.51,4.51,0,0,1-.81,3,2.29,2.29,0,0,0,2.58-1,5.63,5.63,0,0,0,.75-2.1,14.36,14.36,0,0,1,.55-2.12,37.65,37.65,0,0,1,2-4.55,8.9,8.9,0,0,1,2.58-3.27c.21-.14-.55-1-.74-1-.42,0-1.14.57-1.51.77A14.32,14.32,0,0,0,132.85,134.5Z"/><path class="cls-26" d="M172.32,170.51c-.34.42-.79.77-1.09,1.22-.77,1.14-.43,2.6-.75,3.86a5.31,5.31,0,0,1-2.5,3.3,2.91,2.91,0,0,1-2.33.36,1.9,1.9,0,0,1-1.3-1.79,2.71,2.71,0,0,1,.36-1,20.92,20.92,0,0,1,1.45-2.24,11.27,11.27,0,0,1,1.82-2.14,33.76,33.76,0,0,0,4.05-4.15,1.64,1.64,0,0,1,.6,2.16A3.19,3.19,0,0,1,172.32,170.51Z"/><path class="cls-26" d="M177,167.83a3.69,3.69,0,0,1,.36,1.46,8.85,8.85,0,0,1-.47,2.87c-.54,1.89-1.22,3.87-2.74,5.12-1.19,1-2.74,1.37-4.08,2.13-2.42,1.38-3.66,4.33-5.67,7-.23.3-.95-.7-1.33-.68a1.67,1.67,0,0,1-.9-.3,17.31,17.31,0,0,1-3-2.2c.12.1,4.64-3.75,4.9-4.43.47-1.23,1-3.27,1.94-4.22s2.18-.78,3.42-1.22a11.21,11.21,0,0,0,6.49-6l.24-.59A2.7,2.7,0,0,1,177,167.83Z"/><path class="cls-21" d="M160.64,179.93,150.57,190.8a41,41,0,0,1-1.62-4.69c-1.24-4.31-2.07-9.12-3.07-14.1l-12.23,2.45c1,4.79,1.81,9.82,3.32,15.11a53.7,53.7,0,0,0,2.92,7.91,46.44,46.44,0,0,0,4.36,7.44h0l.68.83a5.87,5.87,0,0,0,1.45,1.25,5.78,5.78,0,0,0,7.92-2l12.4-20.55Z"/></g><g id="laptop_3" data-name="laptop 3"><polygon class="cls-12" points="161.77 218.37 149.87 211.9 149.87 211.19 162.88 216.72 161.77 218.37"/><polygon class="cls-11" points="161.73 216.25 149.87 211.19 176.53 208.53 161.73 216.25"/><path class="cls-19" d="M197.18,214.55,163,218.63a1.78,1.78,0,0,1-2.06-1.5L158.33,192a2,2,0,0,1,1.95-2.31l39-1.16a1.6,1.6,0,0,1,1.5,1.92l-1.95,22.38A2,2,0,0,1,197.18,214.55Z"/><path class="cls-27" d="M197.18,214.55,163,218.63a1.78,1.78,0,0,1-2.06-1.5L158.33,192a2,2,0,0,1,1.95-2.31l39-1.16a1.6,1.6,0,0,1,1.5,1.92l-1.95,22.38A2,2,0,0,1,197.18,214.55Z"/><path class="cls-18" d="M183.94,203.44a3.29,3.29,0,0,1-2.9,3.23,2.74,2.74,0,0,1-3-2.78,3.29,3.29,0,0,1,3-3.32A2.73,2.73,0,0,1,183.94,203.44Z"/></g><g id="person_3" data-name="person 3"><path class="cls-25" d="M41.57,200.85c-.07.44-.22,1.28-.41,2.31-18.6,1.09-35.08,2.61-48.51,4.45.88-4.25,4.74-13.75,5.24-15,3.42-8.66,7.24-16.93,13.19-24.25,4.2-5.16,9.84-11.53,17.38-10.32s10.29,7.4,11.79,14.38C42.19,181.45,43,191.69,41.57,200.85Z"/><path class="cls-28" d="M14,199.8a6.35,6.35,0,0,1-1.43,2.26c-1.5,1.32-3.81.93-5.71.32s-4-1.39-5.83-.59c2-9,7.54-16.7,13.12-24,1.51-2,3.76-4.61,6.59-3.61,2.26.8,2.51,3.2,2.07,5.27-.7,3.31-2.71,6.59-4.07,9.67Z"/><path class="cls-29" d="M26.51,161.59a8.91,8.91,0,0,0,4.15,2.8c1.15.36,2.57.66,3.29-.58a6.75,6.75,0,0,0,.57-2.43,9.5,9.5,0,0,1,.81-2.75l.1-.26c.25-.55,1.19-2.26.57-2.81,0,0-2.35-2.05-4.28-3.73-1.26-1.1-2.33-2.06-2.5-2.19.29.3-.45,2.56-.57,3a22.6,22.6,0,0,1-1.09,3C26.72,157.45,24.9,159.68,26.51,161.59Z"/><path class="cls-30" d="M31.92,154a10.58,10.58,0,0,0,.84,1.81,17.69,17.69,0,0,0,1.58,1.95l1,.91.1-.26c.25-.55,1.19-2.26.57-2.81,0,0-2.35-2.05-4.28-3.73l-.18.15C31,152.61,31.65,153.41,31.92,154Z"/><path class="cls-29" d="M50.84,143.26c-.25,7.83-4.7,17.15-14.07,14.15-8.33-2.68-10.69-12.24-10.25-20,.19-3.35.83-6.81,2.78-9.55,3.54-5,12.52-5.73,16.73-1.23C50,130.82,51,137.75,50.84,143.26Z"/><ellipse class="cls-10" cx="48.52" cy="141.68" rx="0.84" ry="1.55"/><path class="cls-31" d="M49.54,138.1A5.14,5.14,0,0,0,45.39,140"/><circle class="cls-30" cx="45.21" cy="146.03" r="1.68"/><path class="cls-10" d="M30.78,153.26c.55-.37,1-.78,1.25-.94a11,11,0,0,0,2.7-2.95c.53-.85,1.05-1.85,2-2.13.71-.21,1.73-.1,1.94-.81.12-.4-.14-.81-.25-1.21a4.47,4.47,0,0,1,.38-2.42,8.31,8.31,0,0,0-.1-5.1c-.27-.79-1.34-2.47-1-3.32.3-.64,1.5-.61,2.11-.75a31.31,31.31,0,0,0,4.38-1.14A18.64,18.64,0,0,0,47,131.05,27,27,0,0,0,49.57,130a2.34,2.34,0,0,0,1-2.24,1.55,1.55,0,0,0-2-1.18,2.3,2.3,0,0,0,1-1.93,1.84,1.84,0,0,0-1.29-1.69,1.54,1.54,0,0,0-1.83.94,2.35,2.35,0,0,0-3.24-1.28,5.25,5.25,0,0,0-3.93-2.33c-1.1-.09-2.45.44-2.55,1.53a4.88,4.88,0,0,0-1.33-.88A1.64,1.64,0,0,0,34,121a1,1,0,0,0-.22,1.41,1.72,1.72,0,1,0-3,1.32A3.32,3.32,0,0,0,27,126.41a3.27,3.27,0,0,1-.27,1.29,2.9,2.9,0,0,1-1.27.89,4.8,4.8,0,0,0-2.1,2.24,2,2,0,0,0-.2,1.34,1.7,1.7,0,0,0,.81.88,3.11,3.11,0,0,0-.43,3.24,3,3,0,0,1,.59,1.4c0,.55-.47,1-.68,1.47a2.87,2.87,0,0,0,.39,2.43A9.3,9.3,0,0,1,25,143.85c.2.85,0,1.75.18,2.61a6.53,6.53,0,0,0,.95,2.06,22.41,22.41,0,0,1,2.45,4.08c.14.43-.07,1,.43,1.29S30.39,153.52,30.78,153.26Z"/><path class="cls-29" d="M37.21,147.58c-.42-.85.26-1.9.14-2.85a3.31,3.31,0,0,0-1.14-2,2.25,2.25,0,0,0-3.46,1.2,3.28,3.28,0,0,0,.08,2,9.32,9.32,0,0,0,1.46,2.56,4.06,4.06,0,0,0,.82.93,1.31,1.31,0,0,0,1.17.26c.55-.16.84-.75,1.07-1.28"/><path class="cls-32" d="M35.9,143.93a1.36,1.36,0,0,0-1.28-.3,1.5,1.5,0,0,0-1,.91,1.63,1.63,0,0,0,.11,1.33"/><path class="cls-29" d="M50.82,141.05s.59,3.64,1.77,4.55-.58,1.86-.58,1.86l-1.76.26"/><path class="cls-29" d="M30.81,205.38A26.45,26.45,0,0,0,38.72,207a25.16,25.16,0,0,1,6.72.49A27.73,27.73,0,0,1,53.93,212a1.91,1.91,0,0,1,.52.58,1.2,1.2,0,0,1-.26,1.29,2.48,2.48,0,0,1-1.23.64c-2,.51-4.22-.09-6.21-.34-1-.12-1.94-.18-2.89-.21-1.3,0-2.52.62-3.83.54a8.87,8.87,0,0,1-3-1,34,34,0,0,0-9.85-2.18"/><path class="cls-25" d="M8.45,197.47c1.7-2.85,2.89-4.14,4.77-6.8a117,117,0,0,1,11.63-14L13.64,165.86A132.34,132.34,0,0,0,1.92,182.7a162,162,0,0,0-8.92,18h0l-.18.4v0a4.23,4.23,0,0,0,2.27,5.53,56.2,56.2,0,0,0,9.47,2.9c3.12.7,6.22,1.23,9.31,1.68,6.2.88,12.37,1.39,18.55,1.74L34,205.28C23.89,203.19,13.15,196,8.45,197.47Z"/><rect class="cls-8" x="-0.03" y="170.28" width="6.18" height="0.92"/></g><g id="map"><polygon class="cls-10" points="469.51 136.25 391.88 131.18 391.45 67.16 469.51 58.44 469.51 136.25"/><g class="cls-33"><polygon class="cls-34" points="468.7 135.13 392.43 130.34 392.01 67.99 468.7 59.6 468.7 135.13"/><polygon class="cls-6" points="445.52 71.23 448.45 75.06 445.43 77.6 442.6 73.34 445.52 71.23"/><polygon class="cls-35" points="450.07 74.78 440.59 61.11 440.81 60.95 450.29 74.61 450.07 74.78"/><g class="cls-36"><polygon class="cls-21" points="399.15 66.59 402.07 77.62 391.77 82.44 391.67 67.42 399.15 66.59"/></g><polygon class="cls-35" points="412.8 92.09 409.55 83.21 409.81 83.11 413.06 91.99 412.8 92.09"/><polygon class="cls-3" points="401.8 77.69 398.69 66.1 399.24 65.95 402.35 77.54 401.8 77.69"/><path class="cls-3" d="M453.81,85.93l-.35-.41A87.76,87.76,0,0,0,472.06,61l.46.26A88.29,88.29,0,0,1,453.81,85.93Z"/><g class="cls-36"><polygon class="cls-21" points="452 107.19 457.67 121.48 470.73 115.4 470.21 104.65 452 107.19"/></g><g class="cls-36"><path class="cls-21" d="M424.39,94.41l-12.91,7.53c.06.19.11.38.15.55a7.69,7.69,0,0,1,.2,1.59,6.61,6.61,0,0,1-.44,2.34,4.15,4.15,0,0,1-1.2,1.75,5.74,5.74,0,0,1-.5.36l5,14.28,18.48-8.08Z"/></g><path class="cls-3" d="M406.73,126.58a.21.21,0,0,1-.15,0l-14.92-9.23.31-.49L406.76,126l26.34-11.51.2.52-26.46,11.57A.22.22,0,0,1,406.73,126.58Z"/><path class="cls-3" d="M404.7,94.38l-.55-.1,1.74-9.37a.32.32,0,0,1,.15-.21l11.58-5.93.25.51-11.45,5.87Z"/><path class="cls-3" d="M439,129.69l-10.57-25.84a.29.29,0,0,1,.12-.36c11.4-6.71,19.28-12.41,24.88-18l.37.4c-5.6,5.55-13.45,11.24-24.77,17.92l10.47,25.6Z"/><polygon class="cls-3" points="428.81 104.63 424.14 94.54 424.63 94.29 429.31 104.38 428.81 104.63"/><path class="cls-3" d="M457.43,121.6l-6-14.24a.3.3,0,0,1,0-.26.27.27,0,0,1,.2-.14l22-3.07.06.55-21.66,3,5.88,13.9Z"/><g class="cls-37"><polygon class="cls-10" points="460.31 104.78 453.98 105.53 453.59 101.48 459.91 100.67 460.31 104.78"/></g><g class="cls-37"><polygon class="cls-10" points="464.98 102.65 460.78 103.16 460.52 100.51 464.71 99.97 464.98 102.65"/></g><path class="cls-3" d="M403.69,104c0-2.56,1.66-4.67,3.76-4.72s3.88,2,3.9,4.64-1.72,4.72-3.85,4.71S403.7,106.53,403.69,104Z"/><path class="cls-3" d="M410.68,108.39a6.44,6.44,0,0,0,1.73-4.51,7.16,7.16,0,0,0-.29-1.87c3-1.54,19.38-10.1,32.46-21,2,1.61,10,7.46,19.58,7.3a22.06,22.06,0,0,0,6-.95l-.28-1.05c-11.37,3.44-21.82-3.94-24.47-6,7.18-6.09,13.27-12.88,15.48-19.64l-1-.36c-4.05,12.39-22.23,25.32-35.25,33.28l-8.72-22,21.56-10.26-.46-1L391.66,81.94l.48,1,22.79-10.85L423.7,94.2c-5.86,3.54-10.5,6-12,6.75a5.65,5.65,0,0,0-.74-1.17,4.46,4.46,0,0,0-3.52-1.68h0a5.16,5.16,0,0,0-4.61,4.25l-10.5-1.85-.22,1.14,10.54,1.84c0,.17,0,.34,0,.52,0,3.18,2.2,5.77,4.85,5.78h.14a4.32,4.32,0,0,0,1.9-.54l7.76,22.89,1-.4-7.85-23.18Zm-3.16.25c-2,0-3.73-2.1-3.75-4.67s1.64-4.69,3.68-4.74h0a3.39,3.39,0,0,1,2.66,1.3,5.35,5.35,0,0,1,1.17,3.38,5.23,5.23,0,0,1-1.4,3.69A3.28,3.28,0,0,1,407.52,108.64Z"/><polygon class="cls-3" points="476.07 112.32 425.87 135.69 426.29 136.71 476.46 113.32 476.07 112.32"/><g class="cls-9"><path class="cls-25" d="M407.63,109.78h-.14c-2.65,0-4.83-2.6-4.85-5.78s2.14-5.84,4.81-5.9h0A4.46,4.46,0,0,1,411,99.78a6.65,6.65,0,0,1-.29,8.61A4.45,4.45,0,0,1,407.63,109.78Zm-.17-10.55h0c-2,0-3.69,2.18-3.68,4.74s1.7,4.66,3.75,4.67a3.28,3.28,0,0,0,2.37-1,5.23,5.23,0,0,0,1.4-3.69,5.35,5.35,0,0,0-1.17-3.38A3.39,3.39,0,0,0,407.46,99.23Z"/><path class="cls-25" d="M411.69,102.22l-.48-1c.43-.22,42.34-21.38,48.71-40.88l1,.36C454.41,80.62,413.47,101.33,411.69,102.22Z"/><polygon class="cls-25" points="417.29 132.13 409.31 108.58 410.37 108.19 418.34 131.73 417.29 132.13"/><polygon class="cls-25" points="403.1 103.55 392.12 101.64 392.34 100.5 403.31 102.43 403.1 103.55"/><polygon class="cls-25" points="423.87 94.63 414.82 71.86 415.86 71.43 424.9 94.19 423.87 94.63"/><polygon class="cls-25" points="392.14 82.98 391.65 81.94 437.05 60.36 437.51 61.39 392.14 82.98"/><path class="cls-25" d="M464.16,88.35c-11.05.19-20-7.61-20.06-7.7l.7-.85c.12.11,12,10.51,25.12,6.55l.28,1.05A22.06,22.06,0,0,1,464.16,88.35Z"/><polygon class="cls-25" points="426.29 136.71 425.87 135.69 476.07 112.32 476.46 113.32 426.29 136.71"/></g><g class="cls-37"><polygon class="cls-10" points="438.51 82.94 428.62 89.6 426.68 85.58 436.48 78.84 438.51 82.94"/></g><g class="cls-37"><polygon class="cls-10" points="435.87 77.82 433.38 79.66 431.29 75.72 433.75 73.86 435.87 77.82"/></g><g class="cls-37"><polygon class="cls-10" points="438.69 71.39 436.16 73.29 434.02 69.36 436.52 67.44 438.69 71.39"/></g><g class="cls-37"><polygon class="cls-10" points="441.56 76.16 439 78.05 436.84 74.07 439.37 72.16 441.56 76.16"/></g><g class="cls-37"><polygon class="cls-10" points="443.34 79.4 440.76 81.28 439.47 78.91 442.04 77.02 443.34 79.4"/></g><g class="cls-37"><polygon class="cls-10" points="469.36 123.66 463.11 126.49 461.33 122.37 467.53 119.49 469.36 123.66"/></g><g class="cls-37"><polygon class="cls-10" points="462.32 126.84 458.18 128.72 456.44 124.64 460.54 122.73 462.32 126.84"/></g><g class="cls-37"><polygon class="cls-10" points="457.12 129.19 449.63 132.59 447.96 128.58 455.39 125.12 457.12 129.19"/></g><g class="cls-37"><polygon class="cls-10" points="412.56 122.06 407.59 124.21 406.49 120.98 409.1 119.89 408.18 116.86 410.52 115.83 411.51 118.89 411.53 118.88 412.56 122.06"/></g><polygon class="cls-3" points="447.13 118.34 437.81 98.07 438.3 97.82 447.62 118.09 447.13 118.34"/><g class="cls-37"><polygon class="cls-10" points="434.19 106.82 432.23 107.85 430.79 104.26 432.73 103.21 434.19 106.82"/></g><g class="cls-37"><polygon class="cls-10" points="443.79 102.56 441.77 103.72 439.3 98.29 441.29 97.11 443.79 102.56"/></g><g class="cls-37"><polygon class="cls-10" points="446.6 106.38 443.7 108.02 442.06 104.45 444.94 102.79 446.6 106.38"/></g><g class="cls-37"><polygon class="cls-10" points="436.13 111.63 434.15 112.64 432.7 109.01 434.67 107.99 436.13 111.63"/></g><g class="cls-37"><polygon class="cls-10" points="438.1 116.48 436.1 117.47 434.64 113.8 436.63 112.81 438.1 116.48"/></g><polygon class="cls-35" points="440.39 82.67 434.26 71.92 434.5 71.78 440.62 82.53 440.39 82.67"/><g class="cls-37"><polygon class="cls-10" points="417.36 80.42 418.94 84.58 414.89 86.61 414.1 84.48 412 85.54 411.28 83.48 417.36 80.42"/></g><g class="cls-37"><polygon class="cls-10" points="426.48 95.31 432.88 91.13 434.23 93.89 427.72 98.19 426.48 95.31"/></g><g class="cls-37"><polygon class="cls-10" points="410.17 86.58 407.75 87.77 407.07 85.53 409.49 84.33 410.17 86.58"/></g><g class="cls-37"><polygon class="cls-10" points="416.32 77.8 415.69 75.75 414.11 76.55 414.44 77.63 413.81 77.95 413.48 76.87 411 78.13 411.69 80.38 413.74 79.35 414 80.21 415.58 79.43 415.24 78.34 416.32 77.8"/></g><g class="cls-37"><polygon class="cls-10" points="438.79 101.75 434.9 104.12 434.02 102.12 437.89 99.74 438.79 101.75"/></g><g class="cls-37"><polygon class="cls-10" points="404.6 123.82 401.99 122.3 403.11 119.14 405.73 120.64 404.6 123.82"/></g><g class="cls-37"><polygon class="cls-10" points="401.39 121.95 397.16 119.49 398.25 116.36 402.51 118.8 401.39 121.95"/></g><g class="cls-37"><polyline class="cls-10" points="390.72 102.88 400.28 104.43 399.76 109.52 396.53 109.16 396.67 106.64 391.92 105.79"/></g><g class="cls-37"><polygon class="cls-10" points="415.41 74.93 412.36 76.35 411.7 74.36 414.75 72.92 415.41 74.93"/></g><g class="cls-37"><polygon class="cls-10" points="405.96 79.27 403.05 80.63 402.57 78.64 405.48 77.27 405.96 79.27"/></g><g class="cls-37"><polygon class="cls-10" points="402.09 81.14 399.81 82.21 399.34 80.24 401.62 79.16 402.09 81.14"/></g><g class="cls-37"><polygon class="cls-10" points="398.87 82.52 396.62 83.57 396.16 81.62 398.4 80.56 398.87 82.52"/></g><g class="cls-37"><polygon class="cls-10" points="395.69 83.88 393.49 84.91 393.03 82.97 395.23 81.93 395.69 83.88"/></g><g class="cls-37"><polygon class="cls-10" points="411.36 76.81 406.88 78.85 406.29 76.85 410.75 74.79 411.36 76.81"/></g><g class="cls-37"><polygon class="cls-10" points="435.64 124.79 433.36 125.76 430.33 117.27 432.58 116.26 435.64 124.79"/></g><g class="cls-37"><polygon class="cls-10" points="429.84 120.46 427.6 121.39 426.73 118.8 428.95 117.85 429.84 120.46"/></g><g class="cls-37"><polygon class="cls-10" points="426.24 121.97 424.05 122.89 423.19 120.31 425.38 119.39 426.24 121.97"/></g><g class="cls-37"><polygon class="cls-10" points="422.72 123.46 420.57 124.36 419.72 121.8 421.87 120.89 422.72 123.46"/></g><g class="cls-37"><polygon class="cls-10" points="420.98 130.15 418.85 131.01 416.31 123.26 418.42 122.37 420.98 130.15"/></g><g class="cls-37"><polygon class="cls-10" points="422.3 93.84 417.18 96.69 415.89 93.29 420.98 90.4 422.3 93.84"/></g></g><path class="cls-10" d="M401,99.79c0,1.64-3,5.15-3,5.15s-3-3.51-3-5.15a3,3,0,0,1,6,0Z"/><circle class="cls-3" cx="398.01" cy="99.79" r="2"/><path class="cls-10" d="M448.37,69.16c0,1.64-3,5.15-3,5.15s-3-3.51-3-5.15a3,3,0,0,1,6,0Z"/><circle class="cls-3" cx="445.39" cy="69.16" r="2"/><path class="cls-10" d="M457.85,123.51c0,1.65-3,5.15-3,5.15s-3-3.5-3-5.15a3,3,0,0,1,6,0Z"/><circle class="cls-3" cx="454.87" cy="123.51" r="2"/><polygon class="cls-38" points="392.01 131.07 392.01 131.66 464 139.8 464 135.2 392.01 131.07"/><polygon class="cls-6" points="448.08 79.72 455.4 72.23 457.53 74.11 450.25 81.61 448.08 79.72"/><rect class="cls-6" x="445.25" y="86.4" width="4.43" height="2.86" transform="translate(43.19 298.77) rotate(-38.66)"/><rect class="cls-6" x="440.64" y="89.89" width="4.43" height="2.86" transform="translate(32.41 281.05) rotate(-36.46)"/></g><g id="person_2" data-name="person 2"><path class="cls-8" d="M24.82,218.23c-.6,3.21-1.94,5.91-4.7,7.64,0,.41-1.41.74-3.15.74s-3.14-.33-3.14-.74a11.33,11.33,0,0,1-4.7-7.64Z"/><ellipse class="cls-3" cx="16.97" cy="218.23" rx="7.84" ry="1.88"/><path class="cls-8" d="M24.82,218.23a.6.6,0,0,1-.1.31c-.59-.91-3.84-1.58-7.75-1.58s-7.14.67-7.73,1.58a.53.53,0,0,1-.11-.31c0-1,3.51-1.87,7.84-1.87S24.82,217.2,24.82,218.23Z"/><path class="cls-16" d="M7.86,231.28c2.7-.46,5.52-.86,7.82-2.36a2.27,2.27,0,0,0,.73-.68c.49-.83-.26-1-.71-1.45-.76-.83-.13-2-.59-3-.37-.76-1.29-.91-1.76-1.58-.79-1.16,0-1.4,1.05-1.41a7.64,7.64,0,0,1,3.85,1.4,4.55,4.55,0,0,0,3.81.63c1.38-.41,1.48-1.18,2.1-2.43a3.23,3.23,0,0,1,.38-1.12,8.8,8.8,0,0,1,2.13,6.3,8.65,8.65,0,0,1-2.23,5.22,8.83,8.83,0,0,1-4,2,9.8,9.8,0,0,0-3.58,1.58c-2.81,2.07-5.32,4.51-8,6.8-3.28,2.86-6.85,5.56-11,6.79.25-.07-.59-7.52-.65-8.25-.19-2.33-.81-5.09-.49-7.4a19.73,19.73,0,0,0,5.48,0C4.08,232,6,231.6,7.86,231.28Z"/></g><g id="person_1" data-name="person 1"><path class="cls-16" d="M125,186.06c-.27,8.51-5.1,18.65-15.29,15.38-9.06-2.91-11.62-13.3-11.14-21.72.2-3.65.9-7.4,3-10.38,3.85-5.4,13.61-6.23,18.19-1.34C124,172.54,125.2,180.08,125,186.06Z"/><path class="cls-3" d="M142.61,263.21l-65.88.05a74.33,74.33,0,0,1,2.8-37.3c1.48-4.4,3.49-8.84,7.09-11.81,7-5.78,15.48-3.6,23.63-3.29,8.71.34,17.66-1.16,25,4.65.42.34.82.69,1.2,1.06,5.76,5.59,7.68,15.41,7.91,23.06C144.59,247.47,143,255.37,142.61,263.21Z"/><path class="cls-39" d="M142.61,263.21l-65.88.05a74.33,74.33,0,0,1,2.8-37.3c1.48-4.4,3.49-8.84,7.09-11.81,7-5.78,15.48-3.6,23.63-3.29,8.71.34,17.66-1.16,25,4.65.42.34.82.69,1.2,1.06,5.76,5.59,7.68,15.41,7.91,23.06C144.59,247.47,143,255.37,142.61,263.21Z"/><path class="cls-10" d="M135.89,271.65a5.43,5.43,0,0,0,.35-2.68A96.23,96.23,0,0,1,132.79,238c-.3-2.68-2.29-4.85-4.43-4.85H85a2.9,2.9,0,0,0-1.18.25,3.26,3.26,0,0,1,3-2.16h43.35c2.14,0,4.12,2.17,4.42,4.85A96.85,96.85,0,0,0,138,267.07C138.27,269.21,137.36,271,135.89,271.65Z"/><path class="cls-10" d="M113.69,220.49l-.59-4.23c.59,2.29-1.79,4.36-4.11,4.78s-4.74-.13-7.07.24l-.51-5.25c.35,2.46-1.78,4.73-4.17,5.42s-4.95.21-7.39-.27c5.34-12,6-25.52,6-38.67,0-4.59.22-9.19,2.75-13.17a15.85,15.85,0,0,1,10.53-6.7,9.43,9.43,0,0,1,3.78.05,5.1,5.1,0,0,1,3.08,2.09,9.09,9.09,0,0,1,6.86.6c3.09,1.62,6.41,6.19,2.89,9.11-.44.36-1.07.47-1.48.8s-.07.9-.2,1.48a8.24,8.24,0,0,1-.61,1.48,7.91,7.91,0,0,0-.64,3.93,4.13,4.13,0,0,1-.18,2.59c-.49.79-1.16.93-1.33,1.93a9.45,9.45,0,0,0,.13,3l2.5,16.85c.25,1.71.62,3.61,2,4.59a18,18,0,0,0-3.93-.06,38.72,38.72,0,0,0,4.13,9c-.22-.36-2.66-.19-3.08-.18a21.93,21.93,0,0,0-3.34.29,26.27,26.27,0,0,1-2.67.09Z"/><path class="cls-16" d="M121.89,186.88a1.79,1.79,0,0,0-2.41-.56,2.55,2.55,0,0,0-1,1.75,4.49,4.49,0,0,0,.8,3.31,2.64,2.64,0,0,0,1.27,1,1.51,1.51,0,0,0,1.54-.32"/><path class="cls-10" d="M89.54,273.82h43.35c2.15,0,3.64-2.17,3.35-4.84a96.6,96.6,0,0,1-3.45-31c-.3-2.68-2.28-4.84-4.42-4.84H85c-2.15,0-3.65,2.16-3.35,4.84-.11,12.19.8,22.87,3.45,31C86,272.35,87.4,273.82,89.54,273.82Z"/><path class="cls-40" d="M135.89,271.65a5.43,5.43,0,0,0,.35-2.68A96.23,96.23,0,0,1,132.79,238c-.3-2.68-2.29-4.85-4.43-4.85H85a2.9,2.9,0,0,0-1.18.25,3.26,3.26,0,0,1,3-2.16h43.35c2.14,0,4.12,2.17,4.42,4.85A96.85,96.85,0,0,0,138,267.07C138.27,269.21,137.36,271,135.89,271.65Z"/></g><g id="foxy"><path class="cls-10" d="M343.37,207.87a8.61,8.61,0,0,0,1.27-4.78,22.4,22.4,0,0,0-.77-5.92c-.51-2-1.22-4.2-1.85-6.49a32.74,32.74,0,0,1-1.31-7.4v-.13a3.52,3.52,0,0,1,7-.29V183a25.37,25.37,0,0,0,.87,5.87c.51,2.09,1.18,4.3,1.71,6.69a28.44,28.44,0,0,1,.77,7.67,15,15,0,0,1-2.53,8.17l-.05.08a3.14,3.14,0,0,1-5.14-3.6Z"/><path class="cls-41" d="M342.31,183.45l-4.55,3.23a5.27,5.27,0,0,1-2.74,1.24,5,5,0,0,1-3.06-1.37,36.49,36.49,0,0,0-5.88-4.21,8.32,8.32,0,0,0-7-.55"/><path class="cls-42" d="M385.15,193.07c-1.91,2.57-4.68,1.77-7.23,1.87a15.67,15.67,0,0,1,4.67,5.05,5.28,5.28,0,0,1-2.21,7.49A19.78,19.78,0,0,0,378,209c-.76.56-1.51,1.2-1.3,2.29s1.15,1.59,2.15,1.89a6,6,0,0,0,7.29-2.58c1-1.41,1.92-2.83,2.77-4.3,2.35-4,2.05-6.81-1.07-10.35C387,195,386.06,194,385.15,193.07Z"/><path class="cls-42" d="M376.37,194.26h0c-2.19,0-3.66-1.92-5.84-.8-.44.22-1,.91-1.57.82,1.55,2.13,2.93,3.5,4.55,5.62,1.4,1.86,1.13,3.2-.24,4.7a14.65,14.65,0,0,1-4.14,3c-1.17.61-2.08,1.44-1.76,2.93s1.57,1.74,2.86,1.88a5.28,5.28,0,0,0,4.28-1.42,39.35,39.35,0,0,0,6.11-7c1.3-1.94.95-3.48-.44-5.25C379.09,197.35,377.35,196.39,376.37,194.26Z"/><path class="cls-43" d="M369,194.28c1.8.82,6.3.61,7.41,0a15.91,15.91,0,0,0-9.13-4.86,2.46,2.46,0,0,0-2.36.56C366.88,191.33,367.58,193.08,369,194.28Z"/><path class="cls-44" d="M349.59,189.84c5.1-.05,10.2-.68,15.29.12,6.64.4,11.49,4.79,13,5,1.84.24,5.32.7,7.23-1.87-.58-2-1.92-8.79.23-7.34a2.3,2.3,0,0,1,.94,1.14c1.82,3.93,3.27,8.1,5.56,11.74,5.9,9.39,14.14,14.85,25.75,13.67a9.52,9.52,0,0,0,5.44-2.76c-1-.47-.74-2.4-1.12-3.36-.31-.8-4.14-11.35-5.89-13a56.26,56.26,0,0,1-17.55-9.53A62.28,62.28,0,0,1,392,177a89.25,89.25,0,0,0-9.72-9c-4.44-3.64-9.91-4.29-15.35-4.71-2.4-.19-4.77-.49-7.15-.85a4,4,0,0,1-3.58-2.86c-3.78,1.7-21.8,1.81-24.8,0,0,4.5-.58,9.76.47,14.2,1.18,5,2.92,9.81,7,13.38C342.23,189.33,343.52,189.33,349.59,189.84Z"/><path class="cls-45" d="M416.06,193.11c-.22,1.52-.2,3,1.21,4,.85.59.41,1.09.12,1.76-1.33,3.07-.72,4.92,2.25,6.51.87.47,1.21.88,1.09,1.73a2.21,2.21,0,0,0,2.34,2.42c3.21-1.79,6.39-8.77,5.6-12.31a3.13,3.13,0,0,0-2.78-2.46C422.81,194.2,420.26,194.31,416.06,193.11Z"/><path class="cls-45" d="M356.21,153.57c1.75,1.37,3,3.76,4.09,5.77-.7.82-2.19,1.07-3.31,1.26-2.83.5-10.37,3.77-14.61,6.59-2.82,1.6-5.54,1.09-7.11-1.76-3.52-6.4-10.8-13.39-12.88-14.5,1.93-1.72,4.16-4,6.65-4C333.44,147,352.35,150.55,356.21,153.57Z"/><path class="cls-42" d="M347.47,158.43c.88.2,1.6,0,1.86-.92a1.51,1.51,0,0,0-1-2.06,1.36,1.36,0,0,0-2,1A1.62,1.62,0,0,0,347.47,158.43Z"/><path class="cls-42" d="M331.18,151.83a1.6,1.6,0,0,0,1,2.31,1.48,1.48,0,0,0,1.87-.75,1.64,1.64,0,0,0-2.86-1.56Z"/><path class="cls-44" d="M360.3,159.34c.48-.38.48-1.05.36-1.91-.72-5-1.21-9.1-2.31-12.25-2.08-6-5.61-8.85-13-10.56-9.71-2.25-15.17,2.87-16.18,3.9-3.7,3.64-5.17,7.5-7.34,11.14-.36.61,0,1,.58,1.27a10,10,0,0,1,6.77-2.73c4.4,0,8.63,2.1,9.08,8.17a23.78,23.78,0,0,1-.88,7.12c1.4.19,3.05.06,3.94,1.35A30,30,0,0,1,344,157c2.31-4.42,8-5.15,11.82-2.44A14.1,14.1,0,0,1,360.3,159.34Z"/><path class="cls-45" d="M357,143.11c1.09-1,2.38-2,2.54-3.43.12-1.11.39-3.5-.76-4a4.83,4.83,0,0,0-4.52,1,17,17,0,0,0-1.2,1.59C354.59,139,356.79,141.84,357,143.11Z"/><path class="cls-42" d="M337.64,163.24a1.42,1.42,0,0,0-.43,2.1,2.65,2.65,0,0,0,2.69,1.12,1.65,1.65,0,0,0,1.54-2A3.71,3.71,0,0,0,337.64,163.24Z"/><path class="cls-42" d="M357,143.11a1.68,1.68,0,0,0,1.22,1.63c2.06-1.85,3.55-6.53,2.32-9.13a2.29,2.29,0,0,0-2.58-1.54c-2.31.71-4.32.77-5.85,3.07a1.59,1.59,0,0,0,1.33,1.42c.33-.52,3.11-3,4.86-2.44,1.17.4.78,2,.66,3.11A6.56,6.56,0,0,1,357,143.11Z"/><path class="cls-45" d="M330.28,137.8c-.58-1.39-1.35-2.83-.93-4.17.33-1.06,1-3.36,2.29-3.3a4.82,4.82,0,0,1,3.73,2.74,16.81,16.81,0,0,1,.48,2C334.15,135.12,331,136.71,330.28,137.8Z"/><path class="cls-42" d="M330.28,137.8c-.23.68-1,1.37-1.63,1.23-1.14-2.53-1.08-7.66.77-9.86.74-.87,1.18-1.65,2.67-.78,2.09,1.2,4.84,3.33,5.31,6.05a1.6,1.6,0,0,1-1.79.76,8.72,8.72,0,0,0-3.85-4.66c-.91-.41-1.19,0-1.73,2.18A9.57,9.57,0,0,0,330.28,137.8Z"/></g><g id="schedule"><rect class="cls-10" x="227.72" y="154.81" width="86.24" height="3.49" rx="1.75"/><polygon class="cls-46" points="299.52 156.29 299.52 207.12 243.93 156.29 243.93 207.12 299.52 156.29"/><rect class="cls-10" x="220.43" y="91.74" width="99.38" height="61.81"/><rect class="cls-3" x="222.73" y="94.04" width="94.78" height="56.57"/><g class="cls-9"><line class="cls-47" x1="247.21" y1="94.04" x2="247.21" y2="150.62"/><line class="cls-47" x1="258.93" y1="94.04" x2="258.93" y2="150.62"/><line class="cls-47" x1="270.65" y1="94.04" x2="270.65" y2="150.62"/><line class="cls-47" x1="282.36" y1="94.04" x2="282.36" y2="150.62"/><line class="cls-47" x1="294.08" y1="94.04" x2="294.08" y2="150.62"/><line class="cls-47" x1="247.26" y1="103.51" x2="317.35" y2="103.51"/><line class="cls-47" x1="247.26" y1="109.39" x2="317.35" y2="109.39"/><line class="cls-47" x1="247.26" y1="115.27" x2="317.35" y2="115.27"/><line class="cls-47" x1="247.26" y1="121.16" x2="317.35" y2="121.16"/><line class="cls-47" x1="247.26" y1="127.04" x2="317.35" y2="127.04"/><line class="cls-47" x1="247.26" y1="132.93" x2="317.35" y2="132.93"/><line class="cls-47" x1="247.26" y1="138.81" x2="317.35" y2="138.81"/><line class="cls-47" x1="247.26" y1="144.7" x2="317.35" y2="144.7"/><line class="cls-47" x1="305.8" y1="94.04" x2="305.8" y2="150.62"/></g><g class="cls-48"><rect class="cls-10" x="259.2" y="127.29" width="11.18" height="5.37"/><rect class="cls-49" x="259.2" y="133.29" width="11.18" height="5.25"/><rect class="cls-10" x="259.2" y="139.08" width="11.18" height="5.34"/></g><rect class="cls-40" x="282.67" y="106.72" width="11.18" height="2.4"/><rect class="cls-50" x="294.41" y="109.66" width="11.18" height="5.25"/><rect class="cls-49" x="294.41" y="121.43" width="11.18" height="5.3"/><rect class="cls-21" x="247.46" y="121.43" width="11.18" height="5.3"/><rect class="cls-5" x="270.93" y="103.78" width="11.18" height="5.34"/><rect class="cls-21" x="270.93" y="109.64" width="11.18" height="5.39"/><rect class="cls-21" x="282.67" y="115.56" width="11.18" height="5.35"/><rect class="cls-21" x="294.41" y="133.2" width="11.18" height="2.4"/><rect class="cls-25" x="247.46" y="142.02" width="11.18" height="2.4"/><rect class="cls-39" x="259.2" y="106.72" width="11.18" height="2.4"/><rect class="cls-25" x="282.67" y="139.08" width="11.18" height="5.34"/><rect class="cls-25" x="306.14" y="127.31" width="11.18" height="5.35"/><rect class="cls-28" x="225.67" y="97.17" width="18.65" height="4.52"/><rect class="cls-28" x="225.67" y="104.42" width="13.38" height="1.66"/><rect class="cls-28" x="225.67" y="107.29" width="10.73" height="1.66"/><rect class="cls-28" x="225.67" y="110.15" width="15.89" height="1.66"/><rect class="cls-21" x="225.67" y="119.1" width="2.33" height="2.33"/><rect class="cls-51" x="225.67" y="123.83" width="2.33" height="2.33"/><rect class="cls-25" x="225.67" y="128.56" width="2.33" height="2.33"/><rect class="cls-50" x="225.67" y="133.29" width="2.33" height="2.33"/><rect class="cls-4" x="225.67" y="138.02" width="2.33" height="2.33"/><rect class="cls-6" x="229.72" y="119.55" width="12.88" height="1.43"/><rect class="cls-6" x="229.72" y="124.28" width="12.88" height="1.43"/><rect class="cls-6" x="229.72" y="129.01" width="12.88" height="1.43"/><rect class="cls-6" x="229.72" y="133.74" width="12.88" height="1.43"/><rect class="cls-6" x="229.72" y="138.47" width="12.88" height="1.43"/></g><g id="business"><path class="cls-3" d="M19.68,104.77V89.94h4.11c3.11,0,4.7,1.34,4.7,4.09A3.34,3.34,0,0,1,27,97v.06a3.43,3.43,0,0,1,2,3.11c0,2.53-1.49,4.56-5.11,4.56ZM23.47,96c1.76,0,2.27-.87,2.27-1.9s-.53-1.55-2.29-1.55h-1V96Zm.61,6.12c1.76,0,2.27-.89,2.27-1.93s-.53-1.77-2.29-1.77H22.43v3.7Z"/><path class="cls-3" d="M38.15,89.94H40.9v9.89c0,3.58-1.92,5.15-4.51,5.15s-4.59-1.57-4.59-5.17V89.94h2.75v10c0,1.46.53,2.37,1.8,2.37s1.8-1,1.8-2.39Z"/><path class="cls-3" d="M45.38,100.47a2.52,2.52,0,0,0,2.35,1.86c1.1,0,2-.5,2-1.65,0-2.41-6.12-2.39-6.12-6.9a3.94,3.94,0,0,1,4.08-4,4.54,4.54,0,0,1,4.51,3.2l-2.39,1.48c-.36-1.23-1-2-2.12-2a1.24,1.24,0,0,0-1.33,1.31c0,2.63,6.12,2.1,6.12,7,0,2.63-2,4.3-4.7,4.3a4.88,4.88,0,0,1-4.7-2.92Z"/><path class="cls-3" d="M54.89,104.77V89.94h2.75v14.83Z"/><path class="cls-3" d="M67.66,104.77l-3.79-8.32c-.17-.41-.36-1-.36-1h0s0,.63,0,1.1v8.22H61V89.94h2.63l3.73,8.11a10,10,0,0,1,.36,1h0c0-.11,0-.72,0-1.08v-8h2.45v14.83Z"/><path class="cls-3" d="M73.62,104.77V89.94H81.5v2.65H76.37v3.79h4.32V99H76.37v3.09H81.5v2.65Z"/><path class="cls-3" d="M85.78,100.47a2.52,2.52,0,0,0,2.35,1.86c1.1,0,2-.5,2-1.65,0-2.41-6.12-2.39-6.12-6.9a3.94,3.94,0,0,1,4.08-4,4.54,4.54,0,0,1,4.51,3.2l-2.39,1.48c-.36-1.23-1-2-2.12-2a1.24,1.24,0,0,0-1.33,1.31c0,2.63,6.12,2.1,6.12,7,0,2.63-2,4.3-4.7,4.3a4.88,4.88,0,0,1-4.7-2.92Z"/><path class="cls-3" d="M96.37,100.47a2.52,2.52,0,0,0,2.35,1.86c1.1,0,2-.5,2-1.65,0-2.41-6.12-2.39-6.12-6.9a3.94,3.94,0,0,1,4.09-4,4.55,4.55,0,0,1,4.51,3.2l-2.4,1.48c-.36-1.23-1-2-2.11-2a1.24,1.24,0,0,0-1.34,1.31c0,2.63,6.12,2.1,6.12,7,0,2.63-2,4.3-4.7,4.3a4.88,4.88,0,0,1-4.7-2.92Z"/></g><g id="logo"><path class="cls-10" d="M20.78,39.76A3,3,0,0,0,23.58,42c1.31,0,2.32-.61,2.32-2,0-2.87-7.28-2.85-7.28-8.21A4.69,4.69,0,0,1,23.48,27a5.41,5.41,0,0,1,5.37,3.81L26,32.55c-.43-1.46-1.18-2.42-2.52-2.42a1.48,1.48,0,0,0-1.59,1.56c0,3.13,7.29,2.5,7.29,8.32,0,3.13-2.32,5.12-5.6,5.12A5.79,5.79,0,0,1,18,41.65Z"/><rect class="cls-10" x="32.1" y="27.23" width="3.28" height="17.64"/><path class="cls-10" d="M50,44.88V34c0-.5,0-1.21,0-1.21h0s-.31.61-.56,1l-3,5.09H46.3l-3-5-.6-1.11h0s0,.73,0,1.26V44.88H39.42V27.23H43L45.72,32c.22.41.58,1.11.58,1.11h.05s.38-.7.6-1.13l2.65-4.72h3.63V44.88Z"/><path class="cls-10" d="M57.26,44.88V27.23h4.89c4,0,5.68,3.23,5.68,6.3S66,40,61.67,40H60.54v4.92Zm4.52-8.07c1.86,0,2.79-1.51,2.79-3.22s-.95-3.23-2.82-3.23H60.54v6.45Z"/><polygon class="cls-10" points="70.53 44.88 70.53 27.23 73.8 27.23 73.8 41.73 78.94 41.73 78.94 44.88 70.53 44.88"/><path class="cls-10" d="M87.31,44.88H84v-5L79.75,27.23h3.68l1.77,6.33c.25.93.45,2.22.45,2.22h0a20.08,20.08,0,0,1,.45-2.22l1.74-6.33H91.6L87.31,40.06Z"/><path class="cls-10" d="M101.64,39.76A3,3,0,0,0,104.43,42c1.31,0,2.32-.61,2.32-2,0-2.87-7.28-2.85-7.28-8.21A4.69,4.69,0,0,1,104.33,27a5.4,5.4,0,0,1,5.37,3.81l-2.85,1.76c-.43-1.46-1.18-2.42-2.52-2.42a1.48,1.48,0,0,0-1.59,1.56c0,3.13,7.29,2.5,7.29,8.32,0,3.13-2.32,5.12-5.6,5.12a5.79,5.79,0,0,1-5.59-3.48Z"/><path class="cls-10" d="M123.39,41.65a5.32,5.32,0,0,1-5.24,3.48c-4.87,0-6.2-4.49-6.2-9.07s1.33-9.08,6.2-9.08a5.41,5.41,0,0,1,5.37,3.81l-2.85,1.76c-.43-1.46-1.18-2.42-2.52-2.42-2.24,0-2.92,2.75-2.92,5.93s.68,5.92,2.92,5.92c1.26,0,2-.88,2.44-2.22Z"/><polygon class="cls-10" points="133.88 44.88 133.88 38.25 129.34 38.25 129.34 44.88 126.07 44.88 126.07 27.23 129.34 27.23 129.34 35.1 133.88 35.1 133.88 27.23 137.16 27.23 137.16 44.88 133.88 44.88"/><polygon class="cls-10" points="141.19 44.88 141.19 27.23 150.57 27.23 150.57 30.39 144.47 30.39 144.47 34.9 149.61 34.9 149.61 38.05 144.47 38.05 144.47 41.73 150.57 41.73 150.57 44.88 141.19 44.88"/><path class="cls-10" d="M154.38,44.88V27.23h4.56c4.86,0,6.45,4.24,6.45,8.83s-1.59,8.82-6.45,8.82Zm4.56-3.15c2.24,0,3.18-2.5,3.18-5.67s-.94-5.68-3.18-5.68h-1.29V41.73Z"/><path class="cls-10" d="M176.13,27.23h3.28V39c0,4.26-2.29,6.13-5.37,6.13s-5.47-1.87-5.47-6.15V27.23h3.28V39.16c0,1.73.63,2.82,2.14,2.82s2.14-1.14,2.14-2.85Z"/><polygon class="cls-10" points="183.45 44.88 183.45 27.23 186.72 27.23 186.72 41.73 191.86 41.73 191.86 44.88 183.45 44.88"/><polygon class="cls-10" points="194.39 44.88 194.39 27.23 203.76 27.23 203.76 30.39 197.66 30.39 197.66 34.9 202.81 34.9 202.81 38.05 197.66 38.05 197.66 41.73 203.76 41.73 203.76 44.88 194.39 44.88"/><path class="cls-10" d="M26.57,69.37l-.27-2.09H22.85l-.21,2.09H18l4-18.71h5.24l4,18.71Zm-1.64-11.6c-.16-1.07-.29-2.6-.29-2.6h-.05s-.16,1.53-.32,2.6l-.75,5.61h2.16Z"/><path class="cls-10" d="M35.33,69.37V50.66h5.56c4.28,0,6,3.68,6,6.65,0,3.58-2,6.85-6.23,6.85h-.93v5.21Zm5.27-9.2c1.39,0,1.92-1.36,1.92-2.78s-.56-2.78-2-2.78h-.8v5.56Z"/><path class="cls-10" d="M51.21,69.37V50.66h5.56c4.28,0,6,3.68,6,6.65,0,3.58-2,6.85-6.23,6.85h-.93v5.21Zm5.26-9.2c1.39,0,1.93-1.36,1.93-2.78s-.56-2.78-1.95-2.78h-.8v5.56Z"/><path class="cls-10" d="M66.28,60c0-5,1.15-9.73,6.34-9.73S79,55,79,60s-1.12,9.73-6.33,9.73S66.28,65,66.28,60m8.24,0c0-3.42-.24-5.45-1.9-5.45s-1.9,2-1.9,5.45.3,5.45,1.9,5.45,1.9-2,1.9-5.45"/><rect class="cls-10" x="83.5" y="50.66" width="4.44" height="18.71"/><path class="cls-10" d="M101.81,69.37,98.6,62.2a30.6,30.6,0,0,1-1.15-3.07h0s0,1.79,0,3.31v6.93H93.28V50.66h4.54l2.92,6.41c.61,1.34,1.28,3.21,1.28,3.21h0s0-1.93,0-3.5V50.66h4.2V69.37Z"/><polygon class="cls-10" points="113.52 69.37 113.52 54.93 110.76 54.93 110.76 50.66 120.73 50.66 120.73 54.93 117.98 54.93 117.98 69.37 113.52 69.37"/><path class="cls-10" d="M135.94,69.37V59.85c0-1.17.08-2.24.08-2.24H136a14.18,14.18,0,0,1-1.12,1.79l-2.09,2.86h-.11l-2.08-2.86a12.56,12.56,0,0,1-1.1-1.79h-.05s0,1.09,0,2.24v9.52h-4.17V50.66h4.43L131.37,53c.8,1.15,1.31,2.06,1.31,2.06h0s.56-.91,1.34-2.06l1.63-2.37h4.41V69.37Z"/><polygon class="cls-10" points="145.46 69.37 145.46 50.66 155.85 50.66 155.85 54.72 149.89 54.72 149.89 58.3 154.87 58.3 154.87 62.2 149.89 62.2 149.89 65.31 155.85 65.31 155.85 69.37 145.46 69.37"/><path class="cls-10" d="M169.46,69.37l-3.21-7.17c-.61-1.36-1.15-3.07-1.15-3.07h0s0,1.79,0,3.31v6.93h-4.17V50.66h4.55l2.91,6.41c.61,1.34,1.28,3.21,1.28,3.21h.06s-.06-1.93-.06-3.5V50.66h4.2V69.37Z"/><polygon class="cls-10" points="181.17 69.37 181.17 54.93 178.41 54.93 178.41 50.66 188.38 50.66 188.38 54.93 185.63 54.93 185.63 69.37 181.17 69.37"/><path class="cls-10" d="M195.65,63.62a2.85,2.85,0,0,0,2.54,1.93,1.23,1.23,0,0,0,1.39-1.21c0-2.56-7.27-3.15-7.27-8.63A5.38,5.38,0,0,1,198,50.28a5.76,5.76,0,0,1,5.64,4l-3.53,2.08A2.53,2.53,0,0,0,198,54.21a1.21,1.21,0,0,0-1.28,1.23c0,2.65,7.35,2.73,7.35,8.69,0,3.5-2.57,5.61-6,5.61a6.55,6.55,0,0,1-6.09-3.87Z"/><rect class="cls-10" x="18" y="16.02" width="186.1" height="5.25"/><rect class="cls-10" x="18" y="75.24" width="186.1" height="5.25"/></g></g></svg>