<?xml version="1.0" encoding="UTF-8" standalone="no"?>
<svg viewBox="0 0 267 150" xmlns="http://www.w3.org/2000/svg" xmlns:xlink="http://www.w3.org/1999/xlink" xml:space="preserve" style="fill-rule:evenodd;clip-rule:evenodd;stroke-linejoin:round;stroke-miterlimit:10">
  <defs>
    <path d="M0-1.241c1.323 2.907 4.574 4.539 7.774 3.712 3.2-.825 5.255-3.826 5.006-7.01L0-1.241Z" style="fill:#fff;fill-rule:nonzero" opacity=".3" id="reuse-0"/>
    <path d="M0-7.836A6.705 6.705 0 0 1-5.006-.825a6.704 6.704 0 0 1-7.773-3.713L0-7.836Z" style="fill:#fff;fill-rule:nonzero" opacity=".3" id="reuse-1"/>
    <path d="M0 1.682h-14.831a.282.282 0 0 1-.282-.282V.283c0-.156.126-.283.282-.283H0c.156 0 .282.127.282.283V1.4A.282.282 0 0 1 0 1.682" style="fill:#fff;fill-rule:nonzero" id="reuse-2"/>
  </defs>
  <path style="fill:none" d="M0 0h266v150H0z" transform="translate(.75)"/>
  <path d="M0-27.18 4.886-9.368a2.472 2.472 0 0 1-1.74 3.038l-29.377 8.058A2.479 2.479 0 0 1-29.276.003l-4.886-17.813a2.479 2.479 0 0 1 1.739-3.037l29.378-8.058A2.472 2.472 0 0 1 0-27.18" style="fill:#c5e2a6;fill-rule:nonzero" transform="translate(81.426 61.2)"/>
  <path d="m0-15.255.408 1.487-12.98 15.053a1.738 1.738 0 0 1-1.986.541l-19.286-6.553-.321-1.17a2.469 2.469 0 0 1 1.728-3.034l29.389-8.06A2.48 2.48 0 0 1 0-15.255" style="fill:#8cc44a;fill-rule:nonzero" transform="translate(81.429 49.286)"/>
  <path d="m0-15.255.143.521-12.715 16.019a1.738 1.738 0 0 1-1.986.541l-19.551-7.518-.056-.205a2.469 2.469 0 0 1 1.728-3.034l29.389-8.06A2.48 2.48 0 0 1 0-15.255" style="fill:#add583;fill-rule:nonzero" transform="translate(81.429 49.286)"/>
  <path d="m0-11.548-23.647-2.792c-1.06-.125-2.362.429-2.899 1.239l-7.279 10.972c-.537.81-.008 1.742 1.051 1.867l23.687 3.053c1.068.126 2.361-.429 2.899-1.239L.953-9.854c.538-.81.115-1.568-.953-1.694" style="fill:#96c960;fill-rule:nonzero" transform="translate(163.91 119.05)"/>
  <path d="M0-7.727-7.278 3.245c-.538.81-1.831 1.366-2.899 1.239l-23.648-2.792c-1.058-.125-1.49-.884-.953-1.694l7.278-10.972c.538-.81 1.84-1.364 2.899-1.239L-.953-9.421C.115-9.295.538-8.537 0-7.727" style="fill:#b9dc94;fill-rule:nonzero" transform="translate(164.863 116.923)"/>
  <path d="m0-1.578-.607.916-17.176 5.071c-.653.211-1.3.134-1.597-.19l-8.592-8.331.477-.72c.538-.81 1.831-1.366 2.89-1.241L-.948-3.279C.116-3.154.54-2.392 0-1.578" style="fill:#96c960;fill-rule:nonzero" transform="translate(164.858 110.781)"/>
  <path d="m0-1.578-.213.321-17.57 5.666c-.653.211-1.3.134-1.597-.19l-8.198-8.925.083-.126c.538-.81 1.831-1.366 2.89-1.241L-.948-3.279C.116-3.154.54-2.392 0-1.578" style="fill:#d0e7b8;fill-rule:nonzero" transform="translate(164.858 110.781)"/>
  <path d="m0-4.347 22.859-1.051c1.023-.047 2.482.161 3.249.467l10.378 4.13c.767.305.501.655-.522.703L13.139 1.051c-1.033.047-2.483-.162-3.249-.467L-.474-3.709c-.766-.305-.558-.591.474-.638" style="fill:#96c960;fill-rule:nonzero" transform="translate(27.577 136.475)"/>
  <path d="m0-2.908 10.378 4.13c.767.305 2.217.514 3.249.467L36.486.638C37.51.591 37.727.305 36.96 0L26.582-4.13c-.767-.305-2.226-.514-3.249-.467L.474-3.546c-1.032.048-1.24.333-.474.638" style="fill:#b9dc94;fill-rule:nonzero" transform="translate(27.103 135.674)"/>
  <path d="m0-.594.866.345L19.475 1.66c.712.079 1.337.05 1.543-.071l6.238-3.137-.681-.271c-.766-.305-2.217-.514-3.24-.466L.467-1.234C-.561-1.187-.77-.9 0-.594" style="fill:#96c960;fill-rule:nonzero" transform="translate(27.11 133.362)"/>
  <path d="m0-.594.304.121L19.475 1.66c.712.079 1.337.05 1.543-.071l5.676-3.36-.119-.048c-.766-.305-2.217-.514-3.24-.466L.467-1.234C-.561-1.187-.77-.9 0-.594" style="fill:#d0e7b8;fill-rule:nonzero" transform="translate(27.11 133.362)"/>
  <path d="M0-8.636c2.242.496 4.726.536 6.048.671 4.735.487 6.81 3.045 6.283 7.892C5.917.39-3.827.657-10.238.258c-.079-3.931 6.509-6.533 8.155-9.551.635.282 1.346.493 2.083.657" style="fill:#462d3b;fill-rule:nonzero" transform="translate(125.363 140.329)"/>
  <path d="M0-74.245c-.851 1.054-1.978 3.225-2.378 4.015-2.87 5.72-5.05 11.28-6.68 16.83-3.45 11.78-4.359 23.54-3.77 36.81.277 6.229 3.217 12.339 9.06 15.078C1.906 1.148 8.569.648 14.651.613h3.064c6.082.035 12.745.535 18.419-2.125 5.844-2.739 8.783-8.849 9.06-15.078.59-13.27-.32-25.03-3.77-36.81-1.63-5.55-3.81-11.11-6.68-16.83-.4-.79-1.693-4.133-1.723-5.163L0-74.245Z" style="fill:#f2692c;fill-rule:nonzero" transform="translate(87.984 140.031)"/>
  <path d="M-10.848-7.498c-.13 9.965-1.596 18.839-3.435 22.819l3.435-.131L-4.366-.381l-6.482-7.117" style="fill:#b84425;fill-rule:nonzero" transform="scale(1 -1) rotate(66.463 102.24 46.305)"/>
  <path d="M0-37.287h-28.635c-.649 0-1.137.598-1.058 1.293l3.998 35.06c.061.528.516.934 1.048.934H.341a1.06 1.06 0 0 0 1.048-.934l3.459-30.103c-1.409-2.197-3.165-4.33-4.848-6.25" style="fill:#b84425;fill-rule:nonzero" transform="translate(120.552 128.213)"/>
  <path d="M0 21.161a9.87 9.87 0 0 1-.608.538c-1.25 1.012-3.4 1.119-4.783.225-.754-.488-1.349-1.18-1.933-1.862a3018.419 3018.419 0 0 1-4.365-5.112 223.339 223.339 0 0 1-3.544-4.23c-.791-.976-1.879-3.298-3.249-3.25.106-.444.275-.883.42-1.32.097-.294.198-.595.395-.833.441-.531 1.215-.603 1.904-.646A58.373 58.373 0 0 0-4.125 2.744c.332-.091.681-.194.915-.446.164-.176.254-.407.402-.597.294-.379.776-.553 1.233-.7A40.66 40.66 0 0 1 3.501-.276c.356-.066.836-1.381 1.165-1.231.455.209.678 1.978.689 2.479.142 6.162.754 11.87-2.634 16.802-.788 1.147-1.686 2.395-2.721 3.387" style="fill:#462e3b;fill-rule:nonzero" transform="translate(125.591 105.927)"/>
  <use xlink:href="#a" x="121.138" y="107.24" width="10.838" height="13.005" transform="scale(.9853 .92891)"/>
  <path d="M0-23.072C-.123-16.971 2.084-6.39 3.087 0L4.18-19.945 0-23.072Z" style="fill:#b84425;fill-rule:nonzero" transform="translate(84.313 118.326)"/>
  <path d="M0-44.485c-1.444 7.376-3.342 14.958-3.771 22.62-.395 7.659.229 15.182 1.168 22.611l-9.17 1.129c-.974-4.082-1.456-7.341-1.967-11.413-.509-4.072-1.382-10.195-1.595-14.269-.402-8.156.173-14.244.899-22.553L0-44.485Z" style="fill:#462e3b;fill-rule:nonzero" transform="translate(102.474 138.829)"/>
  <use xlink:href="#b" x="94.563" y="94.494" width="11.539" height="35.37" transform="scale(.96158 .9825)"/>
  <use xlink:href="#c" x="112.222" y="110.103" width="17.18" height="21.35" transform="scale(.95444 .97045)"/>
  <path d="M0-8.133C-.66-6.094-.529-2.688.379 2.06c.116.267.283.566.571.608.289.033.903-1.046 1.18-1.209.47-.278.985-.209 1.399.181.419.395.72.956 1.26 1.159.47-.435.951-.878 1.538-1.134.587-.257 1.307-.298 1.84.058.201.135.371.322.598.407.953.361 1.729-1.261 2.729-1.064.327.064.593.321.922.38.376.067.759-.149.997-.45.238-.3.36-.673.478-1.038.345-1.071.692-2.149.857-3.262.374-2.519-.195-5.106.159-7.628" style="fill:#f2692c;fill-rule:nonzero" transform="translate(85.957 100.973)"/>
  <path d="M0-21.244c6.387 2.626 11.063 6.208 14.516 13.032-.649 1.275-1.516 2.387-3.054 2.409-1.424.021-1.801.905-2.322 1.964C7.351-.207 3.116.757-.101-1.765c-.988-.773-1.561-1.759-3.087-.762-2.974 1.942-5.939 1.1-8.791-.507.926-6.358 3.46-12.195 7.278-17.174 1.203-1.567 2.862-1.793 4.701-1.036" style="fill:#fff8f0;fill-rule:nonzero" transform="translate(39.326 81.085)"/>
  <path d="M0 52.126c-9.714-2.847-19.652-11.378-21.801-21.638-1.926-9.196-2.108-15.504-4.947-24.567-1.858-5.976-4.349-10.092-6.125-13.097-.647 1.279-1.527 2.374-3.054 2.407-1.427.017-1.809.896-2.324 1.959-1.792 3.635-6.025 4.598-9.246 2.075-.979-.781-1.56-1.76-3.087-.764-2.971 1.942-5.942 1.096-8.797-.498 0 0-.532 2.905-.615 4.382-.763 13.163 3.304 24.683 10.607 35.655 5.096 7.655 12.449 13.475 20.929 16.977 9.37 3.868 18.889 4.166 28.872 4.285" style="fill:#f2692b;fill-rule:nonzero" transform="translate(86.721 80.073)"/>
  <path d="M0-13.087c-1.628.575-2.96-.227-3.649-1.496-.933-1.732-.304-3.577 2.102-4.26 1.057-.304 2.82-.315 3.509 1.274.718 2.22.119 3.738-1.962 4.482m-29.004 8.106c-1.748.389-3.307-.407-3.682-1.859-.475-1.84-.053-3.529 1.995-4.078 1.573-.427 3.428-.121 3.961 1.942.514 1.953-.51 3.229-2.274 3.995M4.66-23.843c-7.271.4-14.121 4.11-14.423 14.185-.082 2.923.536 6.316 1.321 9.357.21.813.436 1.611.66 2.36.863.82 1.113 1.788.385 3.05-1.041 1.807-2.769 2.078-4.37 2.037-1.499-.047-3.078-1.282-2.69-3.261.014-.025.031-.039.055-.066-1.437-4.969-2.647-8.137-4.862-11.955-4.158-7.147-13.628-7.946-19.737-3.167-2.906 2.268-5.368 4.772-7.02 8.174 1.212 1.297 3.698 1.606 5.558 1.849 2.692.348 7.993 2.078 13.392 4.31 4.049 1.681 8.157 3.636 11.264 5.509 4.773 2.445 9.242 1.395 11.631-3.435C-1.986.666 1.246-3.979 4.521-8.057c4.728-5.888 9.558-10.585 11.547-11.759-3.321-2.706-7.284-4.255-11.408-4.027" style="fill:#fff8f0;fill-rule:nonzero" transform="translate(121.382 69.93)"/>
  <path d="M-3.005-4.143C-.893-4.33.025-2.693.16-1.063c.176 2.114-1.275 3.075-3.165 3.25-1.5.14-2.773-1.059-2.996-2.832.122-1.918.978-3.317 2.996-3.498" style="fill:#462d3b;fill-rule:nonzero" transform="scale(-1 1) rotate(-70.248 -2.563 93.547)"/>
  <path d="M-.746-.153C1.455.024 2.431 1.336 2.32 3.67 2.061 5.382.356 5.827-.746 5.809c-2.493-.038-3.588-1.654-3.131-3.568C-3.542.833-2.461-.289-.746-.153" style="fill:#462d3b;fill-rule:nonzero" transform="scale(1 -1) rotate(15.05 274.902 433.75)"/>
  <path d="M0 20.35c6.11-4.773 15.576-3.976 19.73 3.171 2.222 3.824 3.431 6.991 4.862 11.955 1.396-2.126 4.637-2.604 6.145-2.161.179.131.335.266.48.404h.002c-1.061-3.525-2.088-8-1.979-11.716.297-10.076 7.15-13.789 14.415-14.19 4.126-.228 8.085 1.321 11.407 4.03.873-.484 1.505-1.164.859-2.15-3.73-5.688-6.427-11.717-12.424-17.33-1.041.263-2.014-.558-2.445-1.668-1.16-1.663-6.073-3.909-8.985-4.073-.008.053-.023.111-.028.161-.821.234-2.298.135-3.02-1.117.013-.107.039-.211.057-.317-3.677-.475-8.062-.279-13.155 1.186-4.494 1.294-8.097 2.784-11.008 4.657.004.007.01.013.015.019-.026 1.447-1.27 2.248-2.102 2.441l-.028-.034C.383-4.69-2.532-.501-2.734 1.448c.159 1.177-.836 2.502-1.875 2.781-.08.247-.166.484-.242.739-1.584 5.294-2.086 12.043-2.91 20.434-.14 1.427-.09 2.534.733 3.125C-5.367 25.125-2.905 22.62 0 20.35" style="fill:#f2692b;fill-rule:nonzero" transform="translate(82.384 38.273)"/>
  <path d="M5.029-10.941c2.03.302 1.876 3.032 2.007 4.866.169 2.311-.543 4.891-2.007 6.916C4.392-1.012.608-4.436-2.126-5.541c.449-1.016 4.156-5.848 7.155-5.4" style="fill:#fff8f0;fill-rule:nonzero" transform="scale(-1 1) rotate(13.028 -207.564 -350.525)"/>
  <path d="M0-.769c-.016.024-.034.045-.048.068-.389 1.982 1.187 3.215 2.691 3.259 1.6.046 3.323-.227 4.368-2.042.722-1.253.472-2.223-.386-3.042a4.651 4.651 0 0 0-.479-.404C4.637-3.373 1.396-2.896 0-.769" style="fill:#462d3b;fill-rule:nonzero" transform="translate(106.976 74.518)"/>
  <path d="M0 12.59c-1.883-1.643-3.158-3.996-3.516-6.285-.284-1.817-1.05-4.442.86-5.194C.165-.001 4.866 3.871 5.532 4.759c.008.011.022.025.028.035.832-.193 2.077-.994 2.102-2.441l-.015-.019c-2.698-3.675-6.035-3.64-9.893-4.635-1.883-.485-3.422.996-4.153 2.736-1.845 4.386.956 12.028 4.51 14.941l.014-.005C-.836 15.092.16 13.767 0 12.59" style="fill:#462d3b;fill-rule:nonzero" transform="translate(79.65 27.13)"/>
  <path d="M0-4.665c-.44-1.489-.783-2.463-1.138-3.049-.315-.33-.658-.576-1.026-.703-.251.009-.533.103-.866.273-2.662 1.356-5.667 5.793-5.997 7.823 2.912.164 7.825 2.41 8.985 4.073C.81 1.406.656-2.442 0-4.665" style="fill:#fff8f0;fill-rule:nonzero" transform="translate(123.478 25.215)"/>
  <path d="M0 7.218c.005-.05.02-.107.028-.161C.357 5.028 3.363.59 6.025-.766c.333-.17.615-.264.866-.273.398-.015.717.196 1.026.703.354.586.698 1.56 1.138 3.049.656 2.223.81 6.071-.042 8.418.431 1.109 1.404 1.931 2.445 1.668l.007-.001C13.167 8.526 13.024.29 9.791-3.204 8.51-4.588 7.728-5.844 5.314-4.303 2.027-2.204-2.229 1.386-2.963 5.784c-.018.106-.044.21-.058.317.723 1.252 2.2 1.351 3.021 1.117" style="fill:#462d3b;fill-rule:nonzero" transform="translate(114.423 17.837)"/>
  <use style="fill:#fff;fill-rule:nonzero" transform="translate(114.393 57.88)" opacity=".3" xlink:href="#reuse-0"/>
  <use style="fill:none;fill-rule:nonzero;stroke:#462e3b;stroke-width:1px" transform="translate(114.393 57.88)" xlink:href="#reuse-0"/>
  <use style="fill:#fff;fill-rule:nonzero" transform="translate(98.183 68.66)" opacity=".3" xlink:href="#reuse-1"/>
  <use style="fill:none;fill-rule:nonzero;stroke:#462e3b;stroke-width:1px" transform="translate(98.183 68.66)" xlink:href="#reuse-1"/>
  <path d="M-.266 2.092h16.742" style="fill:none;fill-rule:nonzero;stroke:#462e3b;stroke-width:1px" transform="scale(1 -1) rotate(14.473 296.707 358.303)"/>
  <path d="M0 13.598 7.277.832l.014-.025A.5.5 0 0 0 6.424.31L-.907 12.291l.141.547h-.002" style="fill:#462e3b;fill-rule:nonzero" transform="translate(127.662 40.776)"/>
  <path d="m0 7.508-11.167-6.443-.02-.013c-.198-.122-.272-.414-.165-.668.11-.263.373-.384.586-.271L.086 5.86l.142.547.001-.001" style="fill:#462e3b;fill-rule:nonzero" transform="translate(85.753 57.767)"/>
  <path d="M0-39.106h-29.836c-.677 0-1.209.578-1.153 1.252l3.049 36.793c.05.6.551 1.061 1.153 1.061h28.28c.602 0 1.103-.461 1.153-1.061L5.292-32.99C3.726-35.159 1.813-37.244 0-39.106" style="fill:#fff;fill-rule:nonzero" transform="translate(121.07 126.553)"/>
  <path d="M0 6.515V0h.399c1.88 1.931 3.65 3.872 5.292 6.116l-.033.399H0Z" style="fill:#b5abb1;fill-rule:nonzero" transform="translate(120.67 87.447)"/>
  <path d="M0 6.116V0c1.813 1.862 3.726 3.947 5.292 6.116H0Z" style="fill:#eceaeb;fill-rule:nonzero" transform="translate(121.07 87.447)"/>
  <path d="M0 11.112c2.353-1.434 3.458-4.325 3.022-7.057-.164-1.028-.538-2.417-1.221-3.221C.358-.865-2.607-1.519-4.681-.89c-1.033.314-1.82 1.194-2.261 2.18-.441.985-.581 2.075-.683 3.15-.103 1.094-.171 2.207.041 3.285.538 2.725 3.753 4.906 6.497 3.909.387-.141.75-.316 1.087-.522" style="fill:#462e3b;fill-rule:nonzero" transform="translate(127.888 99.34)"/>
  <use xlink:href="#d" x="91.52" y="175.797" width="5.852" height="3.021" transform="scale(.97533 .75536)"/>
  <path d="M0-7.919c1.572-.622 3.5-.639 4.995-.389.343.057.681.135 1.012.233 2.399.713 4.247 2.616 4.692 5 .096.519.131 1.079-.028 1.604C10.176.17 8.283.455 6.775.494 4.951.541 3.07.639 1.259.51-.254.403-1.827-.023-2.565-1.357c-.889-1.605-.572-3.797.688-5.273.497-.582 1.148-1 1.877-1.289" style="fill:#462e3b;fill-rule:nonzero" transform="translate(91.182 141.666)"/>
  <path d="M0 14.213h-1.159v2.167a.344.344 0 0 1-.532.288l-3.737-2.455h-11.908a2.847 2.847 0 0 1-2.847-2.846V.241a2.847 2.847 0 0 1 2.847-2.846H0A2.846 2.846 0 0 1 2.846.241v11.126A2.846 2.846 0 0 1 0 14.213" style="fill:#f48656;fill-rule:nonzero" transform="translate(31.298 11.326)"/>
  <use style="fill:#fff;fill-rule:nonzero" transform="translate(30.045 12.107)" xlink:href="#reuse-2"/>
  <use style="fill:#fff;fill-rule:nonzero" transform="translate(30.045 15.562)" xlink:href="#reuse-2"/>
  <path d="M0 1.682h-9.559a.282.282 0 0 1-.282-.283V.283c0-.157.126-.283.282-.283H0c.156 0 .282.126.282.283v1.116A.282.282 0 0 1 0 1.682" style="fill:#fff;fill-rule:nonzero" transform="translate(24.773 19.017)"/>
  <path d="m0-7.4-7.798 22.352a3.168 3.168 0 0 1-4.045 1.94L-48.707 4.03c-1.65-.576-2.535-2.385-1.96-4.035l7.799-22.352c.576-1.65 2.394-2.516 4.045-1.94l36.864 12.862A3.167 3.167 0 0 1 0-7.4" style="fill:#f48656;fill-rule:nonzero" transform="translate(258.291 102.513)"/>
  <path d="m0 8.896-.651 1.866-24.646 6.446a2.229 2.229 0 0 1-2.49-.873L-43.375-4.607l.512-1.468a3.164 3.164 0 0 1 4.03-1.945L-1.955 4.847A3.178 3.178 0 0 1 0 8.896" style="fill:#b84425;fill-rule:nonzero" transform="translate(258.286 86.231)"/>
  <path d="m0 8.896-.229.654-25.068 7.658a2.229 2.229 0 0 1-2.49-.873L-42.952-5.819l.089-.256a3.164 3.164 0 0 1 4.03-1.945L-1.955 4.847A3.178 3.178 0 0 1 0 8.896" style="fill:#f2692c;fill-rule:nonzero" transform="translate(258.286 86.231)"/>
  <path d="M-.299-1.763h10.702" style="fill:none;fill-rule:nonzero;stroke:#f2692c;stroke-width:1.07px;stroke-linejoin:miter" transform="scale(1 -1) rotate(-19.232 -208.672 -760.444)"/>
  <path d="M-.425-2.509h15.231" style="fill:none;fill-rule:nonzero;stroke:#f2692c;stroke-width:1.07px;stroke-linejoin:miter" transform="scale(1 -1) rotate(-19.236 -193.471 -749.53)"/>
  <circle cx="-4.196" cy="1.464" style="fill:none;stroke:#f8b396;stroke-width:1.07px;stroke-linejoin:miter" transform="scale(1 -1) rotate(70.768 203.584 122.915)" r="4.445"/>
  <use xlink:href="#e" x="220.038" y="78.533" width="16.406" height="10.93" transform="scale(.96506 .99365)"/>
  <path d="M0-32.448V.001a4.34 4.34 0 0 1-4.358 4.337h-53.517c-2.396 0-4.359-1.941-4.359-4.337v-32.449c0-2.396 1.963-4.338 4.359-4.338h53.517A4.341 4.341 0 0 1 0-32.448" style="fill:#b9dc94;fill-rule:nonzero" transform="translate(227.823 83.185)"/>
  <path d="M0-27.271V.001c0 2.014-1.73 3.645-3.884 3.645h-47.694c-2.135 0-3.884-1.631-3.884-3.645v-27.272c0-2.014 1.749-3.646 3.884-3.646h47.694C-1.73-30.917 0-29.285 0-27.271Z" style="fill:none;fill-rule:nonzero;stroke:#96c960;stroke-width:1.47px;stroke-linecap:round;stroke-linejoin:miter;stroke-dasharray:2.89,5.79" transform="translate(224.438 80.222)"/>
  <path d="M0-18.611v2.708L-28.987 3.569a3.055 3.055 0 0 1-3.616-.005l-29.631-20.066v-2.13a4.337 4.337 0 0 1 4.338-4.337h53.538A4.358 4.358 0 0 1 0-18.611" style="fill:#8cc44a;fill-rule:nonzero" transform="translate(227.823 69.369)"/>
  <path d="M0-18.611v.95l-28.987 21.23a3.055 3.055 0 0 1-3.616-.005L-62.234-18.26v-.372a4.337 4.337 0 0 1 4.338-4.337h53.538A4.358 4.358 0 0 1 0-18.611" style="fill:#a1cf70;fill-rule:nonzero" transform="translate(227.823 69.369)"/>
  <path d="M-60.059 2.786h37.504a3.002 3.002 0 0 1 2.648 2.412l3.392 37.367-43.544-39.779Z" style="fill:#a1cf70;fill-rule:nonzero" transform="scale(-1 1) rotate(-42.413 -85.59 239.202)"/>
  <path d="M0-43.1v27.711L-22.452 1.057a3.087 3.087 0 0 1-3.627-.014l-23.098-16.89V-43.1c0-1.013.822-1.835 1.821-1.835h45.535c.999 0 1.821.822 1.821 1.835" style="fill:#fff;fill-rule:nonzero" transform="translate(221.461 71.886)"/>
  <path d="M0 3.147h-37.619a.596.596 0 0 1-.596-.596V.595c0-.329.267-.595.596-.595H0c.329 0 .596.266.596.595v1.956A.596.596 0 0 1 0 3.147" style="fill:#ddeeca;fill-rule:nonzero" transform="translate(215.516 34.49)"/>
  <path d="M0 3.147h-28.377a.519.519 0 0 1-.519-.519V.518c0-.287.232-.518.519-.518H0c.287 0 .519.231.519.518v2.11A.519.519 0 0 1 0 3.147" style="fill:#ddeeca;fill-rule:nonzero" transform="translate(206.197 42.314)"/>
  <path d="M0 3.147h-35.274a.577.577 0 0 1-.577-.577V.577c0-.319.258-.577.577-.577H0c.319 0 .577.258.577.577V2.57A.577.577 0 0 1 0 3.147" style="fill:#ddeeca;fill-rule:nonzero" transform="translate(213.152 50.138)"/>
  <path d="M0-1.968v1.865l-.954.69h-35.947L-38.81-.808v-1.16c0-.323.264-.587.587-.587H-.602c.338 0 .602.264.602.587" style="fill:#ddeeca;fill-rule:nonzero" transform="translate(216.116 60.52)"/>
  <path d="M-21.846 4.006h5.316l11.749-8.611 1.612-5.079-18.677 13.69Z" style="fill:#ddeeca;fill-rule:nonzero" transform="scale(-1 1) rotate(36.24 -209.714 -250.713)"/>
  <path d="M0 14.383h-17.936V8.967A8.968 8.968 0 0 1 0 8.967v5.416Z" style="fill:#f2692c;fill-rule:nonzero" transform="translate(229.682 18.846)"/>
  <path d="M0 3.393h-20.6a.8.8 0 0 1-.584-1.346L-19.268 0h17.935L.583 2.047A.8.8 0 0 1 0 3.393" style="fill:#f2692c;fill-rule:nonzero" transform="translate(231.015 34.244)"/>
  <path d="M0-2.723c-.001.029-.009.057-.009.086a2.637 2.637 0 1 0 5.273 0c0-.029-.008-.057-.009-.086H0Z" style="fill:#f2692c;fill-rule:nonzero" transform="translate(218.087 41.375)"/>
  <path d="M0 1.889h1.889V.945A.946.946 0 0 0 .944 0 .946.946 0 0 0 0 .945v.944Zm3.073 1.184h-4.257V.945c0-1.174.955-2.129 2.128-2.129 1.174 0 2.129.955 2.129 2.129v2.128Z" style="fill:#f2692c;fill-rule:nonzero" transform="translate(219.77 17.696)"/>
  <path d="M0-6.828v9.386h-1.749V-9.386l.846.677C-.332-8.252 0-7.56 0-6.828" style="fill:#f5956c;fill-rule:nonzero" transform="translate(227.413 30.671)"/>
  <path d="M-3.434 3.393h2.559L0 0h-1.749l-1.685 3.393Z" style="fill:#f5956c;fill-rule:nonzero" transform="matrix(-1 0 0 1 225.664 34.244)"/>
  <path d="M-4.363-2.142h1.567l7.657-8.382-.195-1.501-9.029 9.883Z" style="fill:#96c960;fill-rule:nonzero" transform="scale(1 -1) rotate(-42.414 55.757 -313.626)"/>
  <path d="M-74.151-8.032h29.628l43.145 20.759h-29.627L-74.151-8.032Z" style="fill:#c5e2a6;fill-rule:nonzero" transform="scale(-1 1) rotate(-19.478 268.126 515.23)"/>
  <path d="M-74.151-8.031h29.628l43.145 20.755-29.627.002-43.146-20.757Z" style="fill:#fff;fill-rule:nonzero" transform="scale(-1 1) rotate(-19.476 263.956 517.1)"/>
  <path d="M0 1.056 5.361-.693a.851.851 0 0 1 .904.25l2.003 2.297-2.999-.788L0 1.056Z" style="fill:#fff;fill-rule:nonzero" transform="translate(197.36 124.31)"/>
  <path d="m0-.112 5.322.315 2.946.483-2.16-1.219a1.772 1.772 0 0 0-1.1-.216L0-.112Z" style="fill:#e8f3db;fill-rule:nonzero" transform="translate(197.36 125.478)"/>
</svg>
