<?xml version="1.0" encoding="UTF-8" standalone="no"?>
<svg viewBox="0 0 266 151" xmlns="http://www.w3.org/2000/svg" xmlns:xlink="http://www.w3.org/1999/xlink" xml:space="preserve" style="fill-rule:evenodd;clip-rule:evenodd;stroke-miterlimit:10">
  <defs>
    <path d="M-16.827-16.827h33.654" style="fill:none;fill-rule:nonzero;stroke:#58424e;stroke-width:1.09px;stroke-linecap:round;stroke-linejoin:round" id="reuse-0"/>
    <path d="M0 3.339v.778a.696.696 0 0 1-.694.695h-9.707a.696.696 0 0 1-.695-.695v-.778c0-.017 0-.035.002-.053a4.81 4.81 0 0 1 4.811-4.759h1.471A4.808 4.808 0 0 1 0 3.339" style="fill:#fff;fill-rule:nonzero" id="reuse-1"/>
    <path d="M0 3.339v.778a.696.696 0 0 1-.695.695h-9.706a.696.696 0 0 1-.696-.695v-.778c0-.017 0-.035.003-.053a4.809 4.809 0 0 1 4.811-4.759h1.47a4.808 4.808 0 0 1 4.81 4.759.32.32 0 0 1 .003.053" style="fill:#fff;fill-rule:nonzero" id="reuse-2"/>
  </defs>
  <path style="fill:none" d="M0 0h266v150H0z" transform="translate(0 .5)"/>
  <path d="M0 8.631c-.8.17-1.63.14-2.44.09-.95-.04-1.9-.111-2.82-.32-.7-.161-3.51-.71-4.21-.88-2.34-.58-2.67.049-5.09-.031-.83-.029-1.68-.109-2.43-.46-.34-.149-.66-.37-.84-.679-.27-.47-.35-1.18-.27-1.7 0-.01 0-.02.01-.031.21-1.25.85-2.679.7-3.939C-16.44.95-16 1.7-15 1.711c1.03.02 2.52-.221 3.16-1.16.2-.3.41-.65.8-.7.19-.021.39.05.58.12 2.11.8 4.15 1.649 6.18 2.63 2.04.99 5.03 1.59 7.11 2.49h.01c.06.09.1.18.11.26 0 .03.01.08.02.139 0 .011.01.021.01.031v.009C3.59 8.03.87 8.441 0 8.631" style="fill:#8cc44a;fill-rule:nonzero" transform="translate(143.424 133.979)"/>
  <path d="M0-6.902c-.401 1.469-.503 3.896-.456 5.325C-1.978-1.18-4.897 0-6.356-.126c-.491-.042-.988-.092-1.433-.235-.433-.139-.745-.187-.478-.652.568-.993.289-4.459.608-5.479L0-6.902Z" style="fill:#6a5761" transform="translate(134.308 135.672)"/>
  <path d="M0 4.648c-.02 1.01-2.36 1.811-3.09 1.971-.79.159-1.62.13-2.43.09-.95-.051-1.9-.111-2.83-.321-.69-.16-3.57-1.019-4.26-1.19-2.34-.579-2.61.36-5.03.27-.83-.03-1.68-.11-2.43-.45-.34-.149-.67-.37-.84-.68-.11-.19-.15-.39-.16-.6-.03-.31.03-.65.08-.96.06-.33.62-2.98.77-4.13-.02.153 1.279.826 1.461.886.551.179 1.232.172 1.803.137a6.74 6.74 0 0 0 3.47-1.206c.249-.176.496-.376.794-.447.616-.148 1.498.745 1.983 1.055C-8.69.419-6.503 1.86-4.22 2.678c.53.191 1.07.35 1.62.491.56.149 1.17.2 1.7.45.21.109.41.219.58.389.07.071.13.14.18.201.06.089.1.179.11.259.02.06.03.111.03.18" style="fill:#462e3b;fill-rule:nonzero" transform="translate(146.404 134.862)"/>
  <path d="M0-4.008a82.362 82.362 0 0 0-5.855-.744 10.06 10.06 0 0 1-.278 4.629A8.805 8.805 0 0 0-2.162.7C-1.731.687-.748.744-.435.385c.316-.364.195-1.401.232-1.862.017-.212.233-2.526.203-2.531" style="fill:#6a5761;fill-rule:nonzero" transform="translate(118.348 135.064)"/>
  <path d="M0-4.185a82.362 82.362 0 0 0-5.855-.744A10.06 10.06 0 0 1-6.133-.3a8.805 8.805 0 0 0 3.971.823C-1.731.51-.094.744-.094.267c0-.384-.023-.767-.035-1.151-.031-.988.087-1.981.126-2.967.001-.022.023-.33.003-.334" style="fill:#6a5761;fill-rule:nonzero" transform="translate(118.348 135.241)"/>
  <path d="M0 .938c-.11.32-.317.587-.666.75-1.023.479-2.204.14-3.247.515-1.373.493-2.725 1.62-4.069 2.181-.74.308-1.435.733-2.193.992-1.667.57-3.431.327-4.971-.485-1.2-.633-2.596-1.45-1.577-2.843.606-.83 1.671-1.291 2.568-1.726.968-.471 2.095-.942 3.022-1.514.885-.546 1.264-.991 2.084-1.63.457-.355.852-.779 1.219-1.225.183-.221.348-.546.565-.729.236-.199.323-.232.613-.09.853.418 1.789.653 2.724.806.837.137 1.881.366 2.714.146.186-.049.282-.148.339.061.048.177.016.41.038.596.093.781.35.954.591 1.699C-.023-.869.26.183 0 .938" style="fill:#462e3b;fill-rule:nonzero" transform="translate(118.06 138.932)"/>
  <path d="M0-12.814c-.097.974-.196 3.69-.388 4.87-.026.982-.298 1.998-.443 2.962-.133.889-.219 2.058.18 2.902C-.275-1.284.294-.496.788.236c.343.509.698 1.009 1.066 1.5.493.66 1.076 1.348 1.885 1.507.323-.451.377-1.056.239-1.592-.139-.536-.452-1.013-.809-1.437-.753-.895-.787-2.093-.599-3.198.056-.33.301-1.606.781-1.543.155.021.254.175.318.317.149.329.234.682.35 1.023.116.341.27.68.526.933.31.306.747.563 1.188.582.01.001.021.001.047-.02a.313.313 0 0 0 .07-.226.608.608 0 0 0-.036-.144c-.141-.42-.229-.863-.325-1.298a8.287 8.287 0 0 1-.204-1.271c-.057-.902-.181-1.822-.596-2.623-.265-.514-.641-.96-.901-1.476-.08-.158 1.248-7.327 1.231-7.323L0-12.814Z" style="fill:#f5b1a5;fill-rule:nonzero" transform="translate(100.747 86.489)"/>
  <use xlink:href="#a" x="108.101" y="78.044" width="4.656" height="1.88" transform="scale(.9312 .94)"/>
  <path d="M0-16.329c.181.961.375 5.061.669 6.22.111.975.469 1.965.698 2.913.21.873.397 2.03.073 2.906-.305.825-.804 1.66-1.232 2.431A37.677 37.677 0 0 1-.725-.271c-.433.7-.955 1.436-1.746 1.664-.362-.42-.468-1.019-.377-1.565.092-.547.362-1.049.681-1.502.672-.957.602-2.153.319-3.238-.084-.323-.439-1.573-.911-1.469-.154.033-.239.196-.29.344-.119.34-.174.699-.26 1.049-.086.35-.209.701-.443.975-.283.331-.695.626-1.133.683-.01.001-.02.002-.049-.016a.317.317 0 0 1-.089-.219c0-.049.012-.098.023-.146.104-.43.154-.88.212-1.321a8.38 8.38 0 0 0 .093-1.285c-.021-.904.022-1.829.365-2.665.22-.535.556-1.012.77-1.548.066-.164-1.879-7.192-1.861-7.189L0-16.329Z" style="fill:#f5b1a5;fill-rule:nonzero" transform="translate(140.257 86.68)"/>
  <use xlink:href="#b" x="137.381" y="75.813" width="4.931" height="2.799" transform="scale(.9862 .933)"/>
  <path d="M0-38.001c-2.135.52-4.637 1.492-5.646 3.583-.895 1.854-1.254 3.899-1.529 5.923-.276 2.033-.668 3.959-1.09 5.964-.008.039-.019.078-.027.118-.854 4.029-1.823 8.033-2.745 12.048a283.462 283.462 0 0 0-1.344 6.115c-.125.602-1.257 4.587-.615 4.976 1.729 1.045 4.095-.394 5.942.425.208.092.411.213.637.23.392.027.734-.266.964-.585.229-.318.402-.688.703-.941a1.67 1.67 0 0 1 .363-.223c.169-.037.337-.075.505-.115A81.832 81.832 0 0 0 .662-1.709c.947-.285 1.906-.596 2.715-1.165.923-.651 1.589-1.597 2.236-2.522.498-.713 1.003-1.438 1.294-2.258.561-1.584.335-3.915.429-5.616l.414-7.488.864-15.648c.011-.196.074-3.349.186-3.366A112.861 112.861 0 0 0 0-38.001" style="fill:#add583;fill-rule:nonzero" transform="translate(112.532 73.154)"/>
  <path d="M0-39.077c2.968.207 5.927.534 8.867.979 1.247.188 2.526.412 3.596 1.09 4.519 2.864 5.573 9.877 6.306 14.713.52 3.433.837 6.896 1.024 10.363.175 3.235.547 6.736-.309 9.9-.088.323-.218.681-.524.816-.265.118-.569.028-.856-.016a2.608 2.608 0 0 0-1.483.207c-.512.235-.942.634-1.473.821-.576.204-1.208.139-1.815.071a50.287 50.287 0 0 1-2.037-7.279" style="fill:#add583;fill-rule:nonzero" transform="translate(121.332 72.459)"/>
  <path d="M0 51.187c.022 1.205.039 2.41.005 3.615a34.966 34.966 0 0 1-.094 1.804c-.027.34-.013.946-.193 1.253-.054.093-.162.142-.264.17-.957.263-1.939.397-2.925.449-1.067.057-.911.074-1.976-.014-1.113-.091-2.222-.233-3.332-.364a77.067 77.067 0 0 0-1.666-.18c-.316-.03-1.108.079-1.366-.06-.742-.402.09-3.308.096-3.976.019-2.029-.317-4.047-.227-6.078.041-.923.169-1.844.148-2.768-.029-1.255-.332-2.489-.417-3.742-.131-1.935.264-3.882.303-5.792.017-.836.147-1.658.279-2.483.249-1.562-.128-2.962-.472-4.457-.477-2.064-.726-4.149-.676-6.233.029-1.584.218-3.026.079-4.589-.089-1.042-.348-2.023-.497-3.076-.117-.871-.524-1.551-.98-2.28a5.363 5.363 0 0 1-.533-1.049c-.118-.333-.11-.758-.259-1.06-.533.775-.33 2.026-.287 2.908.041.859.073 1.704.019 2.564-.07 1.104-.249 2.198-.299 3.301-.07 1.656.149 3.301.199 4.956a23.344 23.344 0 0 1-.736 6.479c-.19.735-.418 1.481-.399 2.259.011.664.22 1.307.388 1.951.309 1.165.508 2.36.598 3.566.06.889.06 1.82-.329 2.616-.169.348-.398.654-.527 1.022-.139.389-.16.808-.169 1.216-.09 3.086-.11 6.192-.289 9.289-.057.995.31 1.851.315 2.813.003.637-.338 1.137-.453 1.755-.126.682-.009 1.492.112 2.242.079.494-.384.896-.843.731-.573-.206-1.184-.616-1.713-.687-.597-.079-1.174.204-1.738.417a7.964 7.964 0 0 1-4.138.397c-.493-.085-.99-.217-1.486-.154-.276.035-.541.129-.813.186a3.04 3.04 0 0 1-1.596-.1c-.16-2.986-.29-5.933-.257-8.928.04-3.945.09-7.889.588-11.803.079-.644.179-1.298.149-1.952-.04-.797-.269-1.584-.189-2.37.06-.614.298-1.186.368-1.789.189-1.4-.498-2.78-.498-4.19 0-.797.219-1.584.369-2.36.627-3.239.059-6.571-.239-9.851a64.495 64.495 0 0 1-.119-9.809c.129-1.962-.319-3.853-.25-5.794.069-1.899.286-3.827.802-5.654.431-1.526 1.063-3.037 1.023-4.626 7.447.043 14.902.087 22.328.655.682.051 1.416.13 1.931.591.463.417.653 1.059.814 1.668C-.516.654.511 7.559.469 14.656c-.03 3.362-.448 6.519.02 9.831.11.806.348 1.563.319 2.411C.758 28.39.19 29.81.32 31.343c.059.664.318 1.216.378 1.952S.569 35.093.529 35.85c-.03.756.211 1.46.149 2.166-.32 3.677-.73 7.008-.719 10.384.003.929.024 1.858.041 2.787" style="fill:#462e3b;fill-rule:nonzero" transform="translate(136.969 75.87)"/>
  <use xlink:href="#c" x="112.38" y="77.792" width="23.813" height="4.442" transform="scale(.9922 .88843)"/>
  <path d="M0-.914C-.019.051-1.634.593-2.357.842c-1.329.457-3.072.557-4.469.297a10.151 10.151 0 0 1 2.037-2.143c.702-.55 1.615-1.253 2.519-1.309.46.099.94.17 1.37.37.21.109.41.219.58.389.07.071.13.14.18.201.06.089.1.179.11.259.02.06.03.111.03.18" style="fill:#8cc44a;fill-rule:nonzero" transform="translate(146.404 140.424)"/>
  <path d="M0-3.746c-.106.32-.31.587-.662.747-1.025.481-2.211.139-3.247.513-1.377.502-2.723 1.622-4.069 2.187-.747.31-1.441.727-2.199.993-1.666.567-3.428.321-4.966-.491-1.058-.554-2.232-1.19-1.815-2.428.277.854 1.057 1.008 1.815 1.403 1.538.811 3.3 1.057 4.966.48.758-.256 1.452-.682 2.199-.993 1.346-.555 2.692-1.685 4.069-2.177 1.036-.373 2.222-.032 3.247-.512.352-.16.556-.427.662-.747.021-.076.043-.15.064-.236.064.439.064.887-.064 1.261" style="fill:#8cc44a;fill-rule:nonzero" transform="translate(118.058 143.617)"/>
  <path d="M0 2.603c-.203.16-.459.235-.705.299-1.367.363-2.787.64-4.186.63a8.161 8.161 0 0 1-1.046-.459c-1.197-.63-2.598-1.449-1.584-2.837.353-.481.855-.833 1.389-1.132.288-.043.587-.011.886.032 1.997.31 3.676.851 5.171 2.228.395.374.598.843.075 1.239" style="fill:#8cc44a;fill-rule:nonzero" transform="translate(108.852 140.748)"/>
  <path d="M0 18.793c.148-.421.282-.849.383-1.294.792-3.474 1.57-7.57.95-11.113C.551 1.915 2.466-2.44 5.955-5.28c7.697-6.266 22.596-1.705 22.958 9.05.088 2.627-.476 5.248-.253 7.839.153 1.782.445 3.547.772 5.304.296 1.594.937 3.234.953 4.864.008.781-.159 1.593-.649 2.2-.49.607-1.355.95-2.083.67a4.065 4.065 0 0 0 .5 2.218c.169.306.386.62.351.967-.062.619-.82.862-1.435.961-3.011.484-6.053 1.153-9.09 1.446a8.542 8.542 0 0 1-3.117-.278c-1.306-.366-2.532-1.046-3.88-1.195-2.085-.232-4.166.836-6.24.526-.877-.131-1.735-.506-2.616-.402-.159.018-.32.052-.477.019-.295-.06-.498-.35-.552-.646-.055-.296.009-.599.072-.894.149-.695.723-2.012.469-2.702-.152-.413-.718-.489-1.184-.384-.805.186-1.547-.32-1.587-1.115a5.857 5.857 0 0 1 .321-2.209c.257-.738.557-1.442.812-2.166" style="fill:#add583;fill-rule:nonzero" transform="translate(107.046 42.164)"/>
  <path d="m0 .703 2.44 3.704a.638.638 0 0 0 1.066 0L5.946.703a.637.637 0 0 0 0-.703l-2.44-3.704a.638.638 0 0 0-1.066 0L0 0a.64.64 0 0 0 0 .703" style="fill:#8cc44a;fill-rule:nonzero" transform="translate(116.023 52.05)"/>
  <path d="m0-.702-2.44-3.704a.637.637 0 0 0-1.066 0l-2.44 3.704a.64.64 0 0 0 0 .702l2.44 3.705a.638.638 0 0 0 1.066 0L0 0a.64.64 0 0 0 0-.702" style="fill:#8cc44a;fill-rule:nonzero" transform="translate(129.299 56.693)"/>
  <path d="M0 9.719a.286.286 0 0 1-.24-.129l-3.011-4.573a.284.284 0 0 1 0-.316L-.24.13A.285.285 0 0 1 0 0c.047 0 .164.013.241.13l3.01 4.571a.284.284 0 0 1 0 .316L.241 9.589a.286.286 0 0 1-.241.13" style="fill:#add583;fill-rule:nonzero" transform="translate(122.652 49.34)"/>
  <path d="M0-10.719a.783.783 0 0 0-.658.354l-3.011 4.572a.787.787 0 0 0 0 .866L-.658-.355A.782.782 0 0 0 0 0a.782.782 0 0 0 .658-.355l3.011-4.572a.787.787 0 0 0 0-.866L.658-10.365A.783.783 0 0 0 0-10.719m0 1.173L2.757-5.36 0-1.174-2.757-5.36 0-9.546" style="fill:#ddeeca;fill-rule:nonzero" transform="translate(122.652 59.56)"/>
  <path d="M-4.185-4.377c-.891 0-1.804 1.917-1.804 4.281s.913 4.281 1.804 4.281 1.612-1.917 1.612-4.281-.721-4.281-1.612-4.281" style="fill:#462e3b;fill-rule:nonzero" transform="matrix(0 -1 -1 0 122.199 30.383)"/>
  <use xlink:href="#d" x="107.15" y="48.793" width="3.933" height="23.613" transform="scale(.9833 .98386)"/>
  <use xlink:href="#e" x="138.157" y="49.105" width="3.883" height="23.406" transform="scale(.97077 .97525)"/>
  <path d="M0 5.913c-1.58.64-3.163.64-4.742 0a1.259 1.259 0 0 1-.788-1.258l.411-5.295H.376l.412 5.295A1.26 1.26 0 0 1 0 5.913" style="fill:#f5b1a5;fill-rule:nonzero" transform="translate(124.666 29.277)"/>
  <use xlink:href="#f" x="156.022" y="41.352" width="3.061" height="2.092" transform="scale(.76525 .69732)"/>
  <path d="M0 10.384c.075-.245.117-.501.124-.758.013-.58-.146-1.188.078-1.724.086-.206.222-.384.338-.574.24-.397.501-1.013.419-1.49-.084-.487-.332-.937-.413-1.425-.087-.523.071-1.061 0-1.587C.473 2.275.15 1.78-.257 1.4A3.585 3.585 0 0 0-1.695.582C-2.257.419-2.856.396-3.405.193c-.634-.236-1.159-.696-1.77-.986-.532-.252-1.115-.37-1.696-.462-1.373-.216-2.893-.263-4.029.537-.406.287-.728.661-1.181.862a6.004 6.004 0 0 0-.906.515c-.223.151-.501.255-.71.414-.507.388-.61 1.296-.649 1.878a9.155 9.155 0 0 0 .153 2.371c.036.186.078.384.007.56-.044.111-.128.2-.19.302-.2.33-.147.747-.087 1.127l.41 2.611.221 1.411c.019.121.04.246.109.347.153.222.389.082.602.066.332-.023.666-.031.998-.045a444.05 444.05 0 0 1 1.997-.075c1.314-.048 2.629-.096 3.942-.182.837-.055 1.673-.114 2.51-.164.38-.022.776-.077 1.156-.042.315.029.623-.022.928.093.279.105.572.301.849.191.124-.05.217-.155.297-.261.197-.264.348-.562.444-.877" style="fill:#462e3b;fill-rule:nonzero" transform="translate(129.374 10.724)"/>
  <path d="M0-19.576c1.663-.042 3.357.398 4.685 1.295 1.24.837 1.539 2.539 1.627 3.941.118 1.906-.334 3.814-.161 5.714.086.941.384 1.868.311 2.81C6.3-3.715 4.639-2.213 3.013-1.139c-.215.142-.428.281-.642.41C1.65-.295.889.036 0 .042-.889.036-1.65-.295-2.371-.729a17.655 17.655 0 0 1-.642-.41C-4.639-2.213-6.3-3.715-6.462-5.816c-.073-.942.225-1.869.311-2.81.172-1.9-.279-3.808-.161-5.714.088-1.402.387-3.104 1.627-3.941 1.328-.897 3.022-1.337 4.685-1.295" style="fill:#f5b1a5;fill-rule:nonzero" transform="translate(122.292 30.738)"/>
  <path d="M0-.927c-.059-.045.357-.293.387-.358.11-.244.231-.483.363-.717.268-.479.778-1.038 1.393-.612.257.177.395.478.435.778.04.299-.007.601-.053.9-.115.739-.234 1.492-.583 2.164-.125.241-.288.478-.531.618-.46.267-.821-.052-1.141-.322L0-.927Z" style="fill:#f5b1a5;fill-rule:nonzero" transform="translate(128.153 22.49)"/>
  <use xlink:href="#g" x="246.811" y="25.268" width="1.046" height="3.235" transform="scale(.52294 .80875)"/>
  <path d="M0-.927c.059-.045-.357-.293-.387-.358a8.921 8.921 0 0 0-.363-.717c-.268-.479-.778-1.038-1.393-.612-.257.177-.395.478-.435.778-.04.299.007.601.053.9.115.739.234 1.492.582 2.164.126.241.288.478.532.618.46.267.821-.052 1.14-.322L0-.927Z" style="fill:#f5b1a5;fill-rule:nonzero" transform="translate(116.432 22.49)"/>
  <use xlink:href="#h" x="119.093" y="20.722" width="9.612" height="7.223" transform="scale(.9612 .90286)"/>
  <path d="M-.601-.601c-.47 0-.851.269-.851.601 0 .332.381.601.851.601S.25.332.25 0c0-.332-.381-.601-.851-.601" style="fill:#462e3b;fill-rule:nonzero" transform="matrix(0 -1 -1 0 119.46 20.706)"/>
  <path d="M-.581-.581c-.47 0-.851.26-.851.581 0 .32.381.581.851.581S.27.32.27 0c0-.321-.381-.581-.851-.581" style="fill:#462e3b;fill-rule:nonzero" transform="matrix(0 -1 -1 0 124.755 20.726)"/>
  <use xlink:href="#i" x="130.065" y="28.99" width="9.055" height="1.647" transform="scale(.90552 .8235)"/>
  <path d="M.002-.108a3.586 3.586 0 0 0 2.024 0" style="fill:none;fill-rule:nonzero;stroke:#462e3b;stroke-width:.6px" transform="scale(1 -1) rotate(-6.125 -112.48 -1167.513)"/>
  <path d="M-2.083-.013c.884-.296 1.501-.208 2.108 0" style="fill:none;fill-rule:nonzero;stroke:#462e3b;stroke-width:.6px" transform="scale(-1 1) rotate(9.033 -179.819 -738.505)"/>
  <path d="M0-1.15c.084 0 .145.085.104.148-.313.497-.962.992-1.673.997-.716.005-1.451-.484-1.792-.98-.044-.063 0-.141.08-.141C-2.171-.86-1.077-.853 0-1.15" style="fill:#6a5761;fill-rule:nonzero" transform="translate(124.087 27.521)"/>
  <path d="M0-2.217c1.182-.459 2.474-.577 3.745-.62.723-.025 1.45-.026 2.168.063A8.614 8.614 0 0 1 9.091-1.72c.722.409 1.091 1.056.992 1.894-.134 1.147-.191 2.268-.109 3.442.019.261.042.524.13.771.084.235.238.468.468.581-.14-1.277.204-2.395.243-3.672l.099-3.237c.014-.457.084-.922-.062-1.362-.778-2.351-3.531-3.494-5.825-3.665-2.913-.217-6.674 1.106-7.229 4.329-.07.411-.084.83-.097 1.247-.065 2.01-.129 4.027.084 6.027.273-.038.497-.252.617-.499.121-.249.156-.529.184-.802.093-.889.141-1.781.142-2.674.001-.706-.147-1.58.264-2.213.182-.28.492-.447.799-.579.069-.029.139-.058.209-.085" style="fill:#462e3b;fill-rule:nonzero" transform="translate(118.064 17.354)"/>
  <path d="M0-11.989S1.204 0 4.717-2.829C8.233-5.659.385-11.843 0-11.989" style="fill:#c5e2a6;fill-rule:nonzero" transform="translate(174.276 80.369)"/>
  <path d="M0-1.363c-.483.37-2.537.739-2.917 1.232-.53.692-1.093 1.415-1.87 1.88-1.226.733-2.705 1.494-4.179 1.35-1.856-.182-2.9-2.21-2.232-3.898.259-.653 1.198-.869 1.814-.983.845-.157 1.717-.135 2.53-.449 1.004-.388 3.745-1.721 4.589-2.375l1.454 1.298L0-1.363Z" style="fill:#7c573e;fill-rule:nonzero" transform="translate(179.47 74.094)"/>
  <path d="M0-.568C-.582-.17-2.404.598-3.483 1.025c-2.035.797-2.202-1.067-2.597-1.09-.395-.024-1.191.447-2.111.562-.628.083-1.036-.462-1.22-.813-.095-.161-.133-.278-.133-.278s1.906-.411 2.898-1.036c.991-.616 2.823-.016 3.526.028.324-.156 1.056-.504 1.511-.788l.667.669L0-.568Z" style="fill:#9b6d4e;fill-rule:nonzero" transform="translate(177.873 72.48)"/>
  <path d="M0 7.328c-.541 2.693-2.164 5.078-3.819 7.297-2.517 3.72-5.74 6.909-8.798 8.775 1.491-1.59-.865-6.395-4.718-9.155 4.923-2.24 9.553-6.917 10.613-12.237.286-1.501.397-3.025.486-4.559.154-2.594.331-5.199.474-7.804.011-.121.011-.243.022-.364.033-.387.022-.949.045-1.557.01-.341.021-.706.065-1.07-.011-.012-.011-.012 0-.022a3.912 3.912 0 0 1 1.159-1.998c.31-.287.652-.519 1.027-.706.089.01.166.033.243.066.684.287 1.026 1.27 1.357 1.942a16.117 16.117 0 0 1 1.159 3.191c.089.308.155.606.221.916.21.905.343 1.821.431 2.737C.309-4.008.154-.74.21 2.516.231 4.105.309 5.739 0 7.328" style="fill:#8cc44a;fill-rule:nonzero" transform="translate(191.611 54.135)"/>
  <path d="M-.332-.16C-.398-.2-.464-.24-.523-.29l.191.725c.068.184.393.033.376-.172C.03.074-.162-.056-.332-.16" style="fill:#8cc44a;fill-rule:nonzero" transform="scale(1 -1) rotate(58.607 141.532 162.638)"/>
  <path d="M0 35.662c.281-6.396 1.959-11.101 2.727-16.65.524-3.787.039-7.456-.739-10.862-.33-1.448-.952-2.798-1.197-4.201C.727 3.583.326-.099.273-.096c-1.062.055-4.16-.045-5.224.01-1.181.987-2.736 2.32-2.511 3.699.645 3.956.9 6.82.79 10.92-.165 6.122 2.215 8.109 2.246 21.27L0 35.662Z" style="fill:#9b6d4e;fill-rule:nonzero" transform="translate(204.746 96.76)"/>
  <use xlink:href="#j" x="212.944" y="103.621" width="8.337" height="11.193" transform="scale(.92636 .93271)"/>
  <path d="M0-32.33C1.192-20.684 3.696-9.627 3.796.873c1.511.034 3.188.369 4.7.403 1.354-20.529 3.482-20.742 3.099-25.677-.22-2.84-.427-4.801-2.447-6.899-.563-.584-1.165-1.181-1.801-1.684-.785-.622-1.397-.268-2.329.04-2.086.689-2.956-.144-5.018.614" style="fill:#9b6d4e;fill-rule:nonzero" transform="translate(182.279 133.327)"/>
  <use xlink:href="#k" x="199.454" y="113.689" width="11.003" height="5.501" transform="scale(.91692 .91682)"/>
  <path d="M0-13.563c-.651-2.762-1.977-6.469-2.906-9.156-1.48-4.278-3.066-7.474-3.311-11.976-5.533 1.678-10.567 2.697-16.362 2.423.392 7.294-.602 11.659-2.088 17.219-.947 3.54-2.425 7.001-3.185 10.547-.738 3.445-2.014 7.008-2.062 10.516-.07 5.103-.218 6.875-.012 11.948 3.535-.804 7.762 3.174 11.322 2.818 4.442-.303 7.286-2.416 11.438-.814a57.501 57.501 0 0 1 1.082-7.569c1.29 2.495 3.073 5.012 3.688 7.752 1.387-.316 3.68-.645 5.1-.736C1.261 13.912-.835 7.349-.74 1.627c.084-5.081 1.961-10.02.74-15.19" style="fill:#462e3b;fill-rule:nonzero" transform="translate(210.826 87.266)"/>
  <use xlink:href="#l" x="189.735" y="69.407" width="18.828" height="5.058" transform="scale(.99096 .84295)"/>
  <path d="M0 21.646c-.92.338-.663 1.387-1.575 1.63-.924.246-1.903-.076-2.762-.499-.86-.422-1.684-.954-2.616-1.166-1.005-.228-2.051-.065-3.08-.064-1.276.003-2.547-.244-3.82-.168-.91.055-1.859.305-2.593.873-.306.236-.509.639-.882.727-.442.104-.97-.207-1.237-.538-.351-.434-.474-1.015-.495-1.575-.049-1.394.463-2.737.709-4.109a14.59 14.59 0 0 0 .173-4.061c-.24-2.388-.563-4.776-.551-7.18.007-1.543-.053-3.227.666-4.641.806-1.587 2.85-2.301 4.527-2.566 1.173-.185 2.315-.09 3.505-.092 3.692 0 7.401.038 11.094-.022 2.407-.04 3.23 1.594 3.306 2.952.097 1.728-.295 3.369-.712 5.025a22.2 22.2 0 0 0-.661 5.022c-.022 1.31-.288 2.627-.184 3.939.121 1.521.634 2.967 1.181 4.379.247.639.365 1.773.188 2.494-.094.381-.336.744-.685.853-.39.122-.802-.097-1.121-.37-.318-.273-.601-.611-.971-.791-.499-.243-.962-.214-1.404-.052" style="fill:#8cc44a;fill-rule:nonzero" transform="translate(205.166 39.753)"/>
  <path d="M0 14.386c-.215.286-.566.466-.889.636-.443.216-.715.054-1.193.08-.287.015-.582.117-.765.332-.164.191-.226.456-.417.623-.368.323-.78.029-1.164.142-.366.11-.671.619-1.134.3a.739.739 0 0 1-.097-.08c-.039-.018-.049-.036-.059-.045-.068-.062-.127-.125-.195-.188-.48-.475-1.31-.609-1.945-.314-.323.153-.587.395-.91.556-.312.152-.753.206-1.016-.027-.078-.072-.147-.161-.254-.206-.195-.089-.411.054-.587.17-.566.368-1.534.636-1.994.054a5.062 5.062 0 0 1-.488-.744 4.107 4.107 0 0 1-.479-1.271c-.138-.69-.108-1.407-.235-2.096-.235-1.228-.978-2.383-.861-3.619.079-.842.548-1.604.822-2.409a5.304 5.304 0 0 0-.43-4.283c-.398-.705-.963-1.028-1.819-.718-.387.139-.745.35-1.149.439-.404.089-.892.02-1.124-.299a.208.208 0 0 1-.036-.073c-.006-.037.009-.074.018-.111.041-.168-.037-.34-.064-.511-.061-.376.14-.777.491-.977.115-.065.246-.113.335-.207.271-.286-.025-.757.14-1.104.069-.149.216-.254.361-.344.176-.109.366-.207.575-.241.434-.07.817.17 1.24.161.346-.006.706-.145 1.022-.26.098-.036.196-.081.283-.126.284-.125.607-.241.91-.215a.72.72 0 0 1 .302.072c.205.098.363.278.587.304.098.019.205 0 .303-.035.293.125.597.233.919.188.283-.035.606-.179.938-.26.079.045.147.099.215.161.332.341.352.923.782 1.156.313.17.713.08 1.066.179.312.09.576.35.635.654.039.224 0 .493.186.645.088.071.205.098.313.143.762.35.625 1.756.547 2.356-.02.09-.04.699.019.743.509.35.948.887 1.066 1.461.029.161.019.322.009.483 0 .269-.088.537-.146.797-.049.386 0 .807.313 1.057.176.143.41.206.616.305.401.072.84.117 1.104.385.616.609-.146 1.81.548 2.338.283.215.693.206 1.036.322.605.207.987.842.851 1.416-.04.126-.089.259-.07.385.07.403.704.448.997.752.245.269.187.69-.029.968" style="fill:#462e3b;fill-rule:nonzero" transform="translate(211.352 18.547)"/>
  <path d="M0-15.486a.492.492 0 0 1 .05.206c.004.2-.108.308-.237.442a2.157 2.157 0 0 0-.323.448 5.298 5.298 0 0 0-.429 4.282c.273.806.742 1.567.82 2.409.118 1.236-.625 2.392-.85 3.619-.136.69-.097 1.407-.235 2.096a3.91 3.91 0 0 1-.488 1.271 5.216 5.216 0 0 1-.489.745c-.46.582-1.427.313-1.994-.054-.177-.116-.391-.26-.587-.171-.107.045-.166.135-.254.206-.263.233-.694.18-1.016.027-.322-.161-.587-.403-.909-.555-.636-.295-1.466-.161-1.946.313-.068.064-.127.126-.195.189-.01.008-.02.026-.059.045-.029.026-.058.053-.097.08-.372.215-.851-.018-1.154-.331-.068-.063-.987.045-1.114.089-.235-.242-.157-.645-.382-.896-.097-.116-.254-.188-.371-.286-.263-.234-.293-.601-.176-.923a.956.956 0 0 1 .137-.277c.244-.368.646-.627.978-.932.341-.305.644-.689.615-1.129-.01-.206-.108-.412-.127-.627-.039-.483.323-.913.704-1.254.381-.341.821-.644 1.036-1.093.274-.573.108-1.236-.127-1.818-.058-.17-.136-.341-.117-.519.02-.341.322-.582.537-.833.117-.144.147-.26.215-.413.078-.188.265-.313.362-.483.176-.287.098-.645.03-.968-.079-.373-.039-.829.175-1.156.249-.38.334-.438.629-.799.191-.234.722-.438.924-.663.363-.405.902-.614 1.419-.808.121-.046.247-.093.377-.084.113.007.22.057.321.108.581.284 1.183.609 1.834.584.634-.025 1.216-.383 1.85-.409a.859.859 0 0 1 .415.068c.11.054.197.147.248.254" style="fill:#462e3b;fill-rule:nonzero" transform="translate(199.937 34.934)"/>
  <path d="M0 5.066a.592.592 0 0 1-.227-.627C.136 2.913.06 1.316-.021-.252c-.034-.677 4.266-.784 4.266.041 0 1.01.385 3.609.617 4.697a.578.578 0 0 1-.209.585C3.306 6.102 1.493 6.09 0 5.066" style="fill:#9b6d4e;fill-rule:nonzero" transform="translate(195.804 33.845)"/>
  <use xlink:href="#m" x="223.975" y="45.199" width="4.372" height="1.515" transform="scale(.8744 .7576)"/>
  <path d="M0 15.3c-.523-.573-2.344-2.261-2.624-2.98-.929-2.383-.433-4.792-.554-7.106C-3.272 3.409-3.25.836-1.823-.163-.709-.944.711-1.328 2.106-1.292c1.395-.036 2.815.348 3.929 1.129C7.462.836 7.484 3.409 7.39 5.214c-.121 2.314.375 4.723-.554 7.106-.28.719-2.101 2.407-2.624 2.98-1.401 1.328-2.955 1.208-4.212 0" style="fill:#9b6d4e;fill-rule:nonzero" transform="translate(195.935 19.284)"/>
  <path d="M0-.978c.044-.035.026-.104.004-.155a7.26 7.26 0 0 0-.269-.563c-.198-.376-.576-.814-1.032-.48-.19.139-.293.375-.322.61-.029.234.005.473.039.706.085.58.174 1.171.432 1.697.092.19.213.375.393.486.342.209.681-.07.918-.281L0-.978Z" style="fill:#9b6d4e;fill-rule:nonzero" transform="translate(192.715 27.82)"/>
  <use xlink:href="#n" x="244.343" y="30.797" width=".784" height="2.54" transform="scale(.78394 .84681)"/>
  <path d="M0-1c-.045-.036-.026-.107-.004-.159.084-.196.176-.389.275-.576.204-.385.59-.835 1.057-.493.195.143.3.385.33.625.03.241-.005.485-.04.724C1.531-.285 1.44.32 1.177.859c-.096.195-.219.385-.404.497-.349.214-.623-.042-.866-.258L0-1Z" style="fill:#9b6d4e;fill-rule:nonzero" transform="translate(203.192 27.874)"/>
  <use xlink:href="#n" x="254.433" y="30.1" width=".8" height="2.601" transform="scale(.80015 .86693)"/>
  <path d="M-.533-.534c-.418 0-.756.239-.756.534 0 .294.338.533.756.533C-.116.533.222.294.222 0c0-.295-.338-.534-.755-.534" style="fill:#462e3b;fill-rule:nonzero" transform="matrix(0 -1 -1 0 195.395 26.62)"/>
  <path d="M-.515-.516c-.418 0-.756.231-.756.516 0 .285.338.515.756.515C-.098.515.24.285.24 0c0-.285-.338-.516-.755-.516" style="fill:#462e3b;fill-rule:nonzero" transform="matrix(0 -1 -1 0 200.097 26.638)"/>
  <use xlink:href="#o" x="200.842" y="36.614" width="8.675" height="1.578" transform="scale(.96386 .789)"/>
  <path d="M.002-.095c.711.202 1.29.14 1.798 0" style="fill:none;fill-rule:nonzero;stroke:#462e3b;stroke-width:.51px" transform="scale(1 -1) rotate(-6.097 -133.864 -1883.96)"/>
  <path d="M-1.851-.011c.784-.264 1.334-.186 1.873 0" style="fill:none;fill-rule:nonzero;stroke:#462e3b;stroke-width:.51px" transform="scale(-1 1) rotate(9.06 -256.416 -1213.316)"/>
  <use xlink:href="#p" x="225.108" y="29.418" width="2.618" height="4.49" transform="scale(.87255 .89804)"/>
  <path d="M0-1.107c.075 0 .128.076.093.133-.279.44-.857.966-1.489.97C-2.031 0-2.683-.52-2.985-.961c-.038-.055.001-.124.071-.125.985.102 1.958.098 2.914-.021" style="fill:#462e3b;fill-rule:nonzero" transform="translate(199.316 32.553)"/>
  <path d="M0-2.726c.004-.065.187.209.185.206.079.096.131.128.232.194.245.163.466.209.758.195.167-.008.339-.017.494-.084.107-.047.205-.121.318-.148.253-.06.496.123.688.309.191.186.398.397.657.404.255.008.472-.183.716-.259.313-.097.646.002.959.101a.436.436 0 0 1 .199.105c.048.055.067.13.1.197.102.205.332.307.551.326.219.017.438-.033.657-.055.4-.04.82.022 1.164.243.343.222.597.62.596 1.046 0 .216-.062.427-.092.641-.031.214-.022.449.102.622.062.086.15.151.196.248.086.18.004.393-.058.583-.063.19.014 1.107.166 1.229.09.072.239.098.254.217-.015-.121.143-.399.179-.524.062-.211.094-.428.147-.641.09-.363.206-.705.262-1.085a8.818 8.818 0 0 0 .003-2.575c-.074-.501-.191-.994-.307-1.487-.261-1.102-.4-2.143-1.357-2.839-.538-.391-1.193-.552-1.837-.656-1.121-.181-2.259-.224-3.38-.065-1.005.143-2.053.336-2.905.957-.179.131-.355.29-.426.508-.059.181-.04.385-.117.559-.121.275-.197.378-.368.621-.208.296-.641.624-.551 1.023.029.129.086.251.103.382a.663.663 0 0 1-.132.496c-.033.042-.072.08-.098.126a.511.511 0 0 0-.053.218c-.012.193.015.389.077.571.029.084.066.167.073.257a.687.687 0 0 1-.066.317c-.149.374-.376.771-.254 1.156.048.15.148.289.14.447-.004.071-.031.14-.048.209-.064.243-.025.502.015.751l.123.764c.04.25.115.544.342.627-.003 0 .043-.635.045-.71.006-.326-.113-1.321-.142-1.644-.008-.083-.017-.168.001-.249.051-.23.272-.328.434-.457a.889.889 0 0 0 .341-.667c.015-.207.292-.321.315-.528.046-.409.039-.797.258-1.136.199-.308.319-.673.341-1.046" style="fill:#462e3b;fill-rule:nonzero" transform="translate(194.499 23.636)"/>
  <use xlink:href="#q" x="204.084" y="45.502" width="3.634" height="18.647" transform="scale(.9085 .9814)"/>
  <path d="M0-7.194c-.154 1.435-.363 2.848-.739 4.228a9.302 9.302 0 0 1-.331 1.038c-.199.496-.464.949-.828 1.291a1.438 1.438 0 0 1-.254.198c-.85.563-1.976.387-2.826-.154-.364-.232-.784-.497-1.169-.817.01-.121.01-.243.021-.364.033-.387.022-.949.045-1.557.011-.342.021-.706.065-1.092.138-.631.45-1.154.839-1.655a3.155 3.155 0 0 1 1.344-1.014c.576-.224 1.228-.226 1.839-.224.667.002 1.331.06 1.994.122" style="fill:#8cc44a;fill-rule:nonzero" transform="translate(191.997 45.19)"/>
  <path d="M0 9.468s-2.369 1.494-3.825-10.962L-.799.416S2.196 5.678 0 9.468" style="fill:#c5e2a6;fill-rule:nonzero" transform="translate(212.717 65.46)"/>
  <path d="M0-2.624c-.476.504-1.038.882-1.476 1.433A6.005 6.005 0 0 0-2.47.643c-.127.381-.218.782-.428 1.124-.274.442-.95 1.071-1.382 1.358C-5.712 1.728-6.536.072-6.935-1.764-5.662-2.792-3.3-3.187-2.59-5.749L0-2.624Z" style="fill:#9b6d4e;fill-rule:nonzero" transform="translate(213.016 69.692)"/>
  <path d="M0 37.006c1.852-4.675-.847-8.832-3.817-10.966 3.111-2.755 3.685-4.518 4.551-7.227-.806-2.622-4.302-5.533-6.047-7.343-.172-.179.484-.816.399-1.045 0-.011-.012-.022-.013-.032a10.7 10.7 0 0 1-.575-1.727 4.311 4.311 0 0 1-.084-.527 15.467 15.467 0 0 1-.339-2.572l.388.373a8.11 8.11 0 0 0 .028-1.161C-5.534 4.371-6.14.394-6.053.358c.794-.358 1.665.243 2.27.852C-1.281 3.712.681 6.618 2.548 9.627c.643 1.037 1.29 2.158 1.953 3.217.648 1.037 2.023 2.884 2.645 3.936.712 1.207.86 1.87.659 3.057-.626 3.683-2.011 7.195-3.888 10.426L0 37.006Z" style="fill:#8cc44a;fill-rule:nonzero" transform="translate(212.709 37.926)"/>
  <path d="M0 9.428c-.411 0-.792-.213-1.007-.562C-3.46 6.04-5.226 3.075-6.458 0c4.335.263 8.641.267 12.915 0-1.391 3.385-3.113 6.436-5.45 8.866A1.185 1.185 0 0 1 0 9.428" style="fill:#9b6d4e;fill-rule:nonzero" transform="translate(198.053 37.977)"/>
  <path d="M-2.113-3.67c2.55-1.203 6.413-1.097 8.486.001" style="fill:none;fill-rule:nonzero;stroke:#8cc44a;stroke-width:1.1px" transform="scale(1 -1) rotate(-59.867 47.203 -215.662)"/>
  <path d="m0-10.838.51 7.247c.028.405.053.828-.106 1.202-.256.601-.926.919-1.572 1.022-.644.102-1.308.042-1.952.149-1.307.219-3.692.294-5.001.5-.994.156-.74.718-1.715.469l-1.709-.437c-1.179-.301-2.058-2.588-.949-3.09 4.576-2.077 6.075-3.171 7.754-6.018" style="fill:#9b6d4e;fill-rule:nonzero" transform="translate(190.784 142.478)"/>
  <path d="M0-1.438c.144.215.35.393.562.477.394.156.838.152 1.255.179.674.044 1.351.018 2.021-.056a17.54 17.54 0 0 0 3.888-.915c1.378-.487 2.663-1.276 3.435-2.396.33.845.329 1.954.243 2.845-.049.498-.049 1.15-.533 1.448-.395.243-1.1.432-1.547.546-.627.16-1.284.144-1.93.19a10.235 10.235 0 0 0-3.254.777c-.801.337-1.573.781-2.429.929-.72.125-1.459.034-2.179-.087-.915-.155-1.832-.362-2.665-.771-.612-.301-1.232-.823-1.216-1.505.011-.437.287-.823.591-1.137 1.325-1.368 3.585-1.703 5.311-2.519-.365.203-1.215.6-1.519.887-.335.314-.266.76-.034 1.108" style="fill:#8cc44a;fill-rule:nonzero" transform="translate(179.945 140.551)"/>
  <path d="M0-1.188C-.319-.526-.643.147-.76.883c-.116.737-.001 1.559.481 2.171.662.843 1.817 1.088 2.858 1.153a13.817 13.817 0 0 0 3.968-.325c.803-.185 1.663-.513 1.981-1.263.285-.671.045-1.47-.196-2.193l-1.519-4.55c-.151-.451-.342-.951-.769-1.169-.361-.185-.781-.108-1.156-.008-1.137.301-2.26.974-3.204 1.661C.857-3.041.437-2.091 0-1.188" style="fill:#8cc44a;fill-rule:nonzero" transform="translate(198.403 139.605)"/>
  <path d="M0-11.172C.069-8.379.284-6.27-.628-4.145c-.368.86-1.002 1.704-.711 2.598.202.62.767 1.073 1.38 1.306.613.233 1.278.278 1.932.321.588.039 1.186.077 1.758-.055.574-.133 1.127-.463 1.386-.987.271-.551.176-1.204.075-1.812l-.421-2.55c.06-.44.213-.869.197-1.312-.014-.321-.116-.632-.196-.944-.297-1.179-.227-2.296.041-3.749L0-11.172Z" style="fill:#9b6d4e;fill-rule:nonzero" transform="translate(200.246 140.134)"/>
  <path d="M-16.466-16.466c-.66 0-1.196 7.372-1.196 16.466 0 9.094.536 16.466 1.196 16.466.66 0 1.196-7.372 1.196-16.466 0-9.094-.536-16.466-1.196-16.466" style="fill:#d0e7b8;fill-rule:nonzero" transform="matrix(0 -1 -1 0 164.169 123.172)"/>
  <path d="M0-30.737c-.446 1.917-1.687 4.548-2.619 6.284-2.606 4.852-8.371 7.671-13.924 7.917-4.277.189-8.747-1.659-12.283-3.967-1.021-.666-1.683-1.676-3.061-1.728-1.229-.046-2.333.884-2.842 2.003-1.792 3.937-.086 9.629 2.375 12.887C-27.708-1.188-18.468 0-11.396-1.753-6.653-2.928-2.281-5.741.511-9.751c2.759-3.96 4.051-8.78 4.394-13.549a38.229 38.229 0 0 0-.148-6.924L0-30.737Z" style="fill:#f2692c" transform="translate(162.723 133.841)"/>
  <path d="M0 1.657a5.766 5.766 0 0 1-.161.856c-.065.262-.131.53-.272.76-.127.209-.31.379-.505.527-.594.449-1.353.714-2.09.609a1.368 1.368 0 0 1-.374 1.438 1.37 1.37 0 0 1-1.472.206c.013.496-.084.916-.366 1.323-.221-.427-.353-.681-.528-1.071a16.942 16.942 0 0 1-1.231-4.016c-.298-1.765-.297-3.637.302-5.342.074-.21.158-.418.251-.621.513-1.115 1.618-2.045 2.843-2.002 1.378.055 2.035 1.062 3.062 1.729.655.424 1.322.827 2.007 1.199.274.148.599.219.671.535.175.77-.355 1.812-.952 2.272C.794.361.328.546-.137.708c.141.296.166.621.137.949" style="fill:#fff8f0" transform="translate(134.44 117.284)"/>
  <path d="M0 6.563a22.468 22.468 0 0 1-7.886-.121c.12-.186.23-.383.339-.579.93-1.739 2.176-4.364 2.614-6.289l4.758.513C.065 2.232.131 4.408 0 6.563" style="fill:#b84425" transform="translate(167.652 103.526)"/>
  <use style="fill:none;fill-rule:nonzero;stroke:#58424e;stroke-width:1.09px;stroke-linecap:round;stroke-linejoin:round" transform="matrix(0 1 1 0 179.385 122.149)" xlink:href="#reuse-0"/>
  <use style="fill:none;fill-rule:nonzero;stroke:#58424e;stroke-width:1.09px;stroke-linecap:round;stroke-linejoin:round" transform="matrix(0 1 1 0 194.582 122.149)" xlink:href="#reuse-0"/>
  <use style="fill:none;fill-rule:nonzero;stroke:#58424e;stroke-width:1.09px;stroke-linecap:round;stroke-linejoin:round" transform="matrix(0 1 1 0 168.655 122.149)" xlink:href="#reuse-0"/>
  <path d="M0-1.1C0 .338 8.43 1.504 18.828 1.504c10.399 0 18.828-1.166 18.828-2.604v-1.504H0V-1.1Z" style="fill:#8cc44a;fill-rule:nonzero" transform="translate(145.341 107.174)"/>
  <path d="M-18.828-18.828c-1.437 0-2.604 8.43-2.604 18.828 0 10.399 1.167 18.828 2.604 18.828S-16.224 10.399-16.224 0c0-10.398-1.167-18.828-2.604-18.828" style="fill:#a1cf70;fill-rule:nonzero" transform="matrix(0 -1 -1 0 164.169 85.742)"/>
  <path d="M0-4.417c1.146.254 2.417.274 3.093.344 2.422.249 3.483 1.557 3.213 4.036C3.026.2-1.958.336-5.236.132c-.041-2.01 3.329-3.341 4.171-4.885.324.145.688.253 1.065.336" style="fill:#462d3b;fill-rule:nonzero" transform="translate(172.395 104.342)"/>
  <path d="M0-36.349c-.387.517-.899 1.579-1.081 1.966a51.537 51.537 0 0 0-3.035 8.239C-5.684-20.376-6.098-14.619-5.83-8.122c.126 3.05 1.462 6.041 4.118 7.381C.866.562 3.894.317 6.658.3H8.05c2.764.017 5.792.262 8.371-1.041 2.655-1.34 3.991-4.331 4.117-7.381.268-6.497-.145-12.254-1.713-18.022a51.544 51.544 0 0 0-3.036-8.239c-.182-.387-.769-2.024-.783-2.528L0-36.349Z" style="fill:#f2692c;fill-rule:nonzero" transform="translate(155.205 104.147)"/>
  <path d="M0-4.881A3.963 3.963 0 0 0-3.963-.918v.504c2.642.414 5.284.414 7.926 0v-.504A3.963 3.963 0 0 0 0-4.881" style="fill:#3b2532;fill-rule:nonzero" transform="translate(155.792 104.987)"/>
  <path d="M0-4.46c-.805.07-1.315-.449-1.479-1.104-.22-.894.281-1.657 1.451-1.685.515-.014 1.315.187 1.441.987C1.479-5.171 1.029-4.554 0-4.46m-14.089.281c-.838-.028-1.451-.571-1.451-1.273 0-.889.388-1.605 1.38-1.614.763-.009 1.568.346 1.568 1.342.005.946-.609 1.405-1.497 1.545M3.369-8.788c-3.341-.669-6.879.211-8.193 4.74-.38 1.315-.496 2.925-.496 4.394 0 .393.009.781.023 1.146.295.473.295.941-.182 1.428-.684.697-1.498.617-2.219.411-.674-.196-1.244-.94-.837-1.792.009-.009.018-.014.033-.023-.071-2.419-.248-3.997-.805-5.985-1.048-3.725-5.246-5.194-8.573-3.744-1.581.689-2.99 1.535-4.137 2.883.398.729 1.489 1.16 2.303 1.488 1.179.473 3.379 1.876 5.564 3.519 1.637 1.235 3.271 2.601 4.459 3.813 1.877 1.666 4.024 1.713 5.671-.196C-2.508 1.539-.501-.188 1.46-1.652 4.291-3.768 7.028-5.33 8.067-5.63 6.878-7.244 5.264-8.409 3.369-8.788" style="fill:#fff8f0;fill-rule:nonzero" transform="translate(169.688 69.866)"/>
  <path d="M-1.511-1.575C-.523-1.663-.092-.896-.03-.134c.082.989-.597 1.439-1.481 1.521-.703.066-1.298-.496-1.402-1.326.057-.897.458-1.552 1.402-1.636" style="fill:#462d3b;fill-rule:nonzero" transform="scale(-1 1) rotate(-84.73 -43.277 116.582)"/>
  <path d="M-.014-.001c1.03.083 1.487.697 1.435 1.79-.121.801-.919 1.009-1.435 1-1.166-.018-1.679-.774-1.465-1.67.158-.659.664-1.183 1.465-1.12" style="fill:#462d3b;fill-rule:nonzero" transform="scale(1 -1) rotate(.575 6602.279 16877.178)"/>
  <path d="M0-1.993c-.768-.078-1.545.157-2.113.703-.198.19-.402.485-.258.765a.689.689 0 0 0 .345.299c.701.304 1.559.181 2.271-.016.237-.066.476-.147.672-.296.196-.148.346-.379.341-.625-.008-.446-.461-.659-.836-.755A2.892 2.892 0 0 0 0-1.993" style="fill:#fff8f0;fill-rule:nonzero" transform="translate(170.798 66.186)"/>
  <path d="M0-1.993c.768-.078 1.545.157 2.113.703.198.19.402.485.258.765a.689.689 0 0 1-.345.299C1.325.078.467-.045-.245-.242c-.237-.066-.476-.147-.672-.296-.197-.148-.346-.379-.341-.625.008-.446.461-.659.836-.755.139-.036.28-.06.422-.075" style="fill:#fff8f0;fill-rule:nonzero" transform="translate(154.67 66.186)"/>
  <path d="M0 3.799c3.326-1.448 7.522.02 8.568 3.744.56 1.991.737 3.568.805 5.985.881-.8 2.405-.637 3.037-.26.066.079.121.159.17.238h.002c-.069-1.721-.011-3.868.473-5.539 1.313-4.53 4.852-5.411 8.191-4.744 1.896.38 3.508 1.544 4.696 3.16.453-.117.818-.352.641-.873-1.025-3.014-1.541-6.061-3.603-9.306-.502-.002-.847-.488-.912-1.041-.332-.889-2.295-2.481-3.595-2.896-.01.023-.023.048-.031.069-.4.011-1.057-.207-1.238-.859.019-.046.042-.091.063-.137-1.61-.645-3.621-1.069-6.099-1.001-2.188.061-3.994.314-5.533.823l.005.011c-.181.652-.838.869-1.238.859a.318.318 0 0 1-.008-.018c-1.292.484-3.103 2.042-3.423 2.9C.906-4.533.3-4.05-.203-4.045c-.066.103-.132.2-.196.307-1.337 2.213-2.354 5.213-3.708 8.918-.231.63-.337 1.138-.034 1.502C-2.99 5.335-1.582 4.487 0 3.799" style="fill:#f2692b;fill-rule:nonzero" transform="translate(151.811 57.853)"/>
  <path d="M2.247-5.309c.951.141.877 1.419.94 2.277.079 1.081-.255 2.289-.94 3.236C1.949-.663.179-2.265-1.101-2.782c.21-.475 1.945-2.736 3.348-2.527" style="fill:#fff8f0;fill-rule:nonzero" transform="scale(-1 1) rotate(-1.445 2009.078 6173.987)"/>
  <path d="m0-1.301-.03.024C-.437-.423.132.319.809.514 1.528.723 2.341.801 3.026.1c.474-.483.474-.952.181-1.423a1.988 1.988 0 0 0-.17-.239C2.405-1.939.881-2.102 0-1.301" style="fill:#462d3b;fill-rule:nonzero" transform="translate(161.184 72.683)"/>
  <path d="M0 6.407c-.661-.964-.963-2.18-.857-3.259.083-.855.043-2.135.996-2.252 1.408-.174 3.085 2.13 3.283 2.611l.009.018c.4.01 1.057-.207 1.238-.859l-.005-.011C3.872.674 2.356.3.724-.602c-.797-.44-1.667.051-2.202.754-1.349 1.772-.973 5.561.296 7.297l.008-.001C-.671 7.443-.065 6.96 0 6.407" style="fill:#462d3b;fill-rule:nonzero" transform="translate(152.782 46.36)"/>
  <path d="M0-1.832c-.025-.726-.066-1.207-.159-1.515a1.232 1.232 0 0 0-.383-.438 1.014 1.014 0 0 0-.423.022C-2.33-3.459-4.211-1.8-4.598-.919c1.301.415 3.264 2.007 3.595 2.897C-.343 1.014.038-.748 0-1.832" style="fill:#fff8f0;fill-rule:nonzero" transform="translate(174.882 51.039)"/>
  <path d="M0 1.146c.008-.021.021-.046.031-.069.387-.881 2.268-2.54 3.633-2.844.17-.037.309-.047.423-.023.183.04.303.173.383.439.092.308.134.789.159 1.515.038 1.084-.343 2.845-1.003 3.809.065.553.41 1.039.913 1.041l.003.001C5.812 3.279 6.711-.47 5.655-2.431c-.419-.777-.626-1.438-1.9-1.021C2.02-2.886-.328-1.756-1.175.15c-.021.046-.044.091-.063.137.181.652.838.87 1.238.859" style="fill:#462d3b;fill-rule:nonzero" transform="translate(170.253 49.044)"/>
  <path d="M0-12.111C-.894-5.104.38-3.128.839 0l.5-9.764L0-12.111Z" style="fill:#b84425;fill-rule:nonzero" transform="translate(152.768 93.52)"/>
  <path d="M0-21.779c-.66 3.611-1.528 7.323-1.725 11.074-.18 3.75.105 7.433.535 11.071l-4.194.552c-.445-1.999-.666-3.594-.9-5.588-.232-1.993-.632-4.991-.729-6.986-.184-3.992.079-6.973.411-11.041L0-21.779Z" style="fill:#462e3b;fill-rule:nonzero" transform="translate(160.501 103.558)"/>
  <path d="M0-3.686c-.06 1.155-.08 2.639.338 4.963.057.131.14.275.288.292.149.014.478-.524.623-.608a.588.588 0 0 1 .719.074c.213.189.362.462.638.555.248-.219.501-.442.806-.575.306-.133.678-.161.949.008.102.063.188.153.305.193.488.166.905-.639 1.419-.554.169.028.303.151.472.176.194.029.394-.082.52-.232.126-.15.193-.335.257-.516.19-.531.38-1.064.478-1.614.219-1.243.163-2.371.163-3.752" style="fill:#f2692c;fill-rule:nonzero" transform="translate(152.783 84.756)"/>
  <use xlink:href="#r" x="173.161" y="136.082" width="2.676" height="1.479" transform="scale(.892 .73928)"/>
  <path d="M0-3.916c.713-.294 1.588-.289 2.266-.157.156.03.309.07.459.121a3.196 3.196 0 0 1 2.129 2.478c.044.255.059.531-.013.787-.224.799-1.083.926-1.767.935C2.246.259 1.393.294.571.219c-.686-.063-1.4-.281-1.735-.94-.403-.792-.259-1.862.312-2.577.226-.281.521-.481.852-.618" style="fill:#462e3b;fill-rule:nonzero" transform="translate(155.327 105.007)"/>
  <path d="M0-12.45C.652-6.6-.364-3.128-.821 0l-.497-9.764L0-12.45Z" style="fill:#b84425;fill-rule:nonzero" transform="translate(173.283 93.52)"/>
  <path d="M0-21.779c.658 3.611 1.522 7.323 1.717 11.074.18 3.75-.104 7.433-.531 11.071l4.176.552c.444-1.999.663-3.594.896-5.588.232-1.993.63-4.991.727-6.986.182-3.992-.079-6.973-.41-11.041L0-21.779Z" style="fill:#462e3b;fill-rule:nonzero" transform="translate(165.596 103.558)"/>
  <path d="M0-3.686c.06 1.155.08 2.639-.337 4.963-.057.131-.14.275-.287.292-.148.014-.475-.524-.62-.608a.584.584 0 0 0-.716.074c-.212.189-.36.462-.636.555-.246-.219-.498-.442-.802-.575-.305-.133-.676-.161-.945.008-.102.063-.188.153-.303.193-.487.166-.902-.639-1.415-.554-.168.028-.301.151-.469.176-.194.029-.392-.082-.518-.232-.125-.15-.192-.335-.257-.516-.188-.531-.378-1.064-.475-1.614-.219-1.243-.162-2.371-.162-3.752" style="fill:#f2692c;fill-rule:nonzero" transform="translate(173.283 84.756)"/>
  <use xlink:href="#s" x="190.186" y="136.082" width="2.665" height="1.479" transform="scale(.88833 .73928)"/>
  <path d="M0-3.947c-.708-.283-1.576-.266-2.249-.124a3.254 3.254 0 0 0-2.567 2.639c-.043.255-.059.53.013.785.222.796 1.074.91 1.754.909.82-.001 1.667.021 2.483-.065C.114.123.822-.106 1.155-.768c.4-.799.257-1.867-.31-2.573A2.029 2.029 0 0 0 0-3.947" style="fill:#462e3b;fill-rule:nonzero" transform="translate(170.756 105.058)"/>
  <path d="M0 5.019c-2.828-1.551-4.589-2.478-7.082-2.85.32-.796.567-1.279 1.017-2.169C-4.037 1.451-2.016 3.146 0 5.019" style="fill:#b84425;fill-rule:nonzero" transform="translate(160.647 68.84)"/>
  <path d="M0 .044C0 .033.011.011.011 0 .022.011.033.022 0 .044" style="fill:#b84425" transform="translate(156.639 109.727)"/>
  <path d="M0-.054C0-.033 0-.01-.011.011-.033-.01-.099-.033-.044-.065c.011 0 .033.011.044.011" style="fill:#b84425" transform="translate(156.661 109.716)"/>
  <path d="M0-8.846c-.071.52-.192 1.034-.208 1.559-.023.704.144 1.402.374 2.068.48 1.387 1.237 2.998 2.501 3.835.871.577 1.929.897 2.944 1.105.793.162 1.631.279 2.452.228.775-.048 1.735-.223 2.304-.797.257-.26.297-.609.322-.96.045-.601.005-.683.05-1.284" style="fill:#f2692b;fill-rule:nonzero" transform="translate(20.053 147.224)"/>
  <path d="M0-8.869a4.58 4.58 0 0 1-.181 2.367c-.14.396-.336.779-.373 1.196-.04.462.118.916.275 1.353l.735 2.054c.227.635.461 1.283.877 1.814.628.804 1.606 1.256 2.586 1.542 1.507.439 3.11.549 4.663.32.437-.064.897-.169 1.208-.482 1.258-1.267-.868-4.17-1.33-5.42a23.715 23.715 0 0 1-1.43-6.75" style="fill:#462e3b;fill-rule:nonzero" transform="translate(20.643 143.832)"/>
  <path d="M0-6.399a4.259 4.259 0 0 0-.163.026c-.018.004-.038.008-.051.021-.013.014-.081-.162-.084-.144-.098.515-.067 1.235-.033 1.755.025.381.102.792.389 1.037.356.306.918.353 1.363.425.513.083 1.026.164 1.538.253 1.536.267 3.077.606 4.489 1.273.902.425 1.756.925 2.714 1.22.999.309 2.019.567 3.065.669a10.8 10.8 0 0 0 3.984-.358c.334-.095.704-.241.835-.566.058-.141.059-.298.06-.45l.005-.799c0-.053 0-.111-.028-.157-.077-.122-.309-.144-.428-.218-.144-.088-.253-.175-.415-.24a10.58 10.58 0 0 0-1.22-.382c-.832-.214-1.68-.365-2.51-.584-2.885-.761-5.503-2.332-8.412-3-.205-.048-.503.024-.712.033l-1.607.075c-.57.026-1.139.052-1.709.08-.36.007-.715-.015-1.07.031" style="fill:#f2692b;fill-rule:nonzero" transform="translate(39.513 143.144)"/>
  <path d="M0-7.752c.05.67.12.924.556 1.479.246.314 1.446 1.065 1.753 1.32A32.925 32.925 0 0 0 5.635-2.53c1.041.663 2.368 1.142 3.179 2.099.129.153.251.326.27.528.08.834-1.274 1.001-1.862 1.075-1.73.22-3.427.19-5.071-.218C.641.58-.661-.31-2.123-.812c-1.896-.651-3.876-1.029-5.803-1.579a2.447 2.447 0 0 1-.648-.277c-1.182-.753-.703-1.88-.428-2.875.322-1.17.347-2.393.37-3.601 3.188.051 5.521.016 8.708.067-.222.427-.109.88-.076 1.325" style="fill:#462e3b;fill-rule:nonzero" transform="translate(48.526 140.736)"/>
  <path d="M0 69.979c-.112.522-.352.977-.83 1.185-.48.209-1.032.073-1.543-.045a19.128 19.128 0 0 0-9.956.382c-.326-1.062-.197-2.036-.263-3.101-.076-1.208-.551-2.378-.682-3.584-.231-2.149.389-4.286.629-6.436.215-1.891.128-3.8-.09-5.689-.187-1.626-.732-3.323-.598-4.959.006-.094.015-.184.021-.277.197-2.746-.009-5.505-.492-8.209-.202-1.134-.726-2.128-.882-3.265-.168-1.222 0-2.465-.106-3.689-.214-2.539-1.548-4.847-2.043-7.349-.249-1.246-.29-2.542-.452-3.804-.106-.841-.268-1.663-.582-2.451-.608-1.521-1.748-2.798-2.275-4.347-.345-1.018-.411-2.111-.451-3.186a79.102 79.102 0 0 1 .548-12.677L-4.47.263c-.365.101-.315.627-.19.982 1.264 3.667 1.623 7.573 1.969 11.436.174 1.916.345 3.838.327 5.764-.025 2.252-.309 4.492-.443 6.741-.155 2.654-.099 5.312-.043 7.969.037 1.81-.119 3.745.115 5.539.165 1.265.567 2.52.757 3.801.48 3.206.62 6.477.402 9.711-.078 1.124-.212 2.254-.084 3.374.252 2.21 1.437 4.187 1.551 6.426.113 2.239.122 4.492.194 6.733.013.399.001.84-.085 1.24" style="fill:#462e3b;fill-rule:nonzero" transform="translate(50.752 63.649)"/>
  <use xlink:href="#t" x="34.452" y="78.505" width="6.815" height="33.25" transform="scale(.97361 .97794)"/>
  <path d="M0-72.831c-1.17 5.587-1.686 11.24-1.708 16.951-.012 2.795-.035 5.623.228 8.405.281 2.984.664 5.966-.442 8.838-.271.702-.623 1.379-.773 2.117-.297 1.46.229 2.999-.071 4.459-.152.746-.517 1.446-.577 2.206-.046.575.087 1.149.155 1.723.459 3.846-1.043 7.271-1.837 10.91-.604 2.769-.332 5.623-.47 8.43-.063 1.283-.212 2.507-.627 3.71-.443 1.288-.616 2.534-.086 3.84.083.205.194.419.391.52.189.098.415.072.626.043l4.163-.569c.425-.059.856-.116 1.284-.073.648.065 1.247.358 1.85.603 1.041.423 2.185.718 3.283.486 1.099-.232 2.12-1.116 2.207-2.235.157-2.029.599-4.079.713-6.193.133-2.461.195-4.925.272-7.388.064-2.082.12-4.168.257-6.247.084-1.276.731-2.683.616-3.916-.076-.8-.342-1.593-.248-2.39.15-1.28 1.193-2.297 1.435-3.563.235-1.229-.319-2.465-.432-3.714-.127-1.41.311-2.798.685-4.161 1.03-3.757 1.183-7.505 1.547-11.315.325-3.411 2.69-7.717 5.042-10.131.993-1.019 2.186-1.918 2.749-3.224.943-2.185-.139-4.918 1.027-6.992" style="fill:#462e3b;fill-rule:nonzero" transform="translate(23.11 136.828)"/>
  <use xlink:href="#u" x="22.773" y="70.263" width="21.08" height="8.76" transform="scale(.95817 .97336)"/>
  <path d="M0-33.382c-.83-2.209-2.065-3.59-4.44-3.758-2.307-.164-4.604-.36-6.919-.325-4.543.067-7.963.148-11.556 3.444-2.588 2.375-2.551 7.854-2.489 11.17.044 2.324.108 5.73.199 8.053.043 1.11.027 2.232.082 3.332.064 1.253-.122 2.493-.146 3.744-.025 1.31.147 2.624.51 3.883.2.692.459 1.387.446 2.107-.023 1.295-.901 2.389-1.504 3.536a1.157 1.157 0 0 0-.142.374c-.103.706.675 1.114 1.266 1.083.737-.04 1.322-.607 2.052-.686 1.036-.112 1.934.849 2.966 1.003 1.06.177 1.908-.57 2.901-.756 1.069-.199 1.895.13 2.949.183 2.174.11 4.305.217 6.513.535 1.334.191 2.683.382 4.031.329 1-.039 2.161-1.814 2.994-1.055.418.381.82 1.304 1.336 1.114.585-.216 1.271-1.782 1.003-2.395C1.105-.638.295-2.499.103-5.025c-.355-4.678.693-9.183.837-13.876.126-4.096.604-9.233-.534-13.233-.125-.44-.259-.856-.406-1.248" style="fill:#f2692c;fill-rule:nonzero" transform="translate(46.863 67.99)"/>
  <path d="M0-11.275-3.039 0l-.242-8.924" style="fill:#b84425;fill-rule:nonzero" transform="translate(24.822 58.077)"/>
  <path d="M0-22.333c-2.264 2.069-4.475 4.233-6.68 6.419a131.498 131.498 0 0 0-3.211 3.38 117.729 117.729 0 0 0-3.144 3.446l-1.538 1.749c-.314.324-.278.428-.053-.177.104-.296.136-.821.075-1.096-.052-.295-.127-.421-.137-.431-.045-.049.218.457.364.772l.512 1.034 1.047 2.042c.723 1.339 1.395 2.712 2.175 4.032.394.655.791 1.314 1.172 1.999l1.213 2.032-2.867 2.843c-2.792-1.975-5.273-4.48-7.32-7.219a69.94 69.94 0 0 1-1.491-2.076l-.712-1.051c-.248-.387-.417-.565-.798-1.346a5.694 5.694 0 0 1-.489-1.58c-.118-.672-.048-1.606.186-2.279.485-1.369 1.061-1.886 1.25-2.184l1.546-1.975a116.687 116.687 0 0 1 3.219-3.833 97.585 97.585 0 0 1 3.464-3.614 67.005 67.005 0 0 1 7.613-6.598L0-22.333Z" style="fill:#8e6446;fill-rule:nonzero" transform="translate(29.2 61.672)"/>
  <path d="M0-29.371c-3.387.487-9.04.942-10.763 1.926-3.376 1.925-3.955 5.439-6.327 7.837-3.41 3.446-6.498 8.284-8.835 12.51-.128.232-.221.483-.222.748-.007 1.206.743 2.458 1.396 3.345.499.678 1.141 1.002 1.519 1.754.193.385.417.785.794.992.471.259 1.07.146 1.539-.119.469-.264.847-.658 1.264-.998a6.357 6.357 0 0 1 2.314-1.189c.497-.137 1.045-.231 1.402-.603.141-.146.241-.328.366-.489.111-.145.24-.271.38-.386.43-.354.588-.934.386-1.454-.206-.531-.333-1.127-.155-1.523.265-.595 1.432-1.278 1.937-1.693a40.415 40.415 0 0 1 4.359-3.12c.565-.351 9.506-7.503 9.813-8.093" style="fill:#f2692c;fill-rule:nonzero" transform="translate(31.657 60.028)"/>
  <path d="M0-6.301c-.022-.146.421.207.44.23.151.193.244.427.332.653.067.172.136.35.122.534-.016.201-.13.399-.082.596.031.129.126.23.183.349.072.153.078.326.079.495.001.386-.09.798-.059 1.179.029.357.09.714.104 1.076.012.299.021.603-.012.901-.01.095-.018.205-.055.295C1.042.03.964.134.964.146L0-6.301" style="fill:#462e3b;fill-rule:nonzero" transform="translate(41.275 19.838)"/>
  <path d="m0-7.639.017 1.047.084 5.189.004.328C.129.431-.096 1.762-2.361 1.756-4.033 1.751-5.95.297-5.979-1.459l.463-7.942L0-7.639Z" style="fill:#8e6446;fill-rule:nonzero" transform="translate(36.766 32.153)"/>
  <use xlink:href="#v" x="34.837" y="30.467" width="2.923" height="5.189" transform="scale(.97433 .86483)"/>
  <path d="M0 11.893c-1.101-1.276-1.61-3.398-2.207-4.957-.73-1.906-1.288-3.939-1.025-5.997.208-1.631.36-2.996 1.533-4.135A6.964 6.964 0 0 1 .128-4.464c2.684-1.291 6.418-.829 8.175 1.834.627.95.883 2.095 1.127 3.21.965 4.418 1.094 9.491-1.1 13.614-1.84 3.454-6.736-.452-8.33-2.301" style="fill:#8e6446;fill-rule:nonzero" transform="translate(32.33 14.657)"/>
  <path d="M0 6.479c-.347-.897-.672-1.843-.679-2.815-.001-.148.003-.299-.045-.44-.055-.161-.176-.291-.266-.436-.125-.203-.191-.452-.137-.683.06-.255.258-.48.234-.739-.018-.193-.153-.35-.224-.53-.119-.303-.011-.669.223-.888.275-.258.526-.192.869-.144.566.08 1.038.096 1.572.129.26.016.545.046.728.232.159.161.202.401.215.626.039.641-.026 1.308-.089 1.943a4.063 4.063 0 0 1-.151.849c-.086.271-.213.529-.297.801-.197.645-.144 1.335-.135 2.009 0 .04 0 .083-.02.117-.024.042-.07.065-.114.082-.496.197-1.053.091-1.575-.017-.023-.005-.047-.01-.065-.024C.021 6.534.01 6.506 0 6.479" style="fill:#462e3b;fill-rule:nonzero" transform="translate(29.803 14.761)"/>
  <path d="M0-7.627c.237.485.572.816.974 1.159.384.326.836.641 1.36.648.664.007 1.216-.471 1.771-.834.432-.284.898-.508 1.362-.732.576-.277 1.09-.519 1.745-.54.384-.013.78.065 1.093.286.195.139.352.33.56.448.308.174.725.064.948-.2.244-.289.303-.7.372-1.059.2 1.098.583 2.095.863 3.163.293 1.114.308 2.281.322 3.425.004.304.005.624-.133.896-.169.333-.532.569-.593.938-.023.137.001.277.005.417.021.833-.817 1.578-1.643 1.459-.202-.03-.4-.103-.605-.107-.325-.006-.624.161-.935.257a2.23 2.23 0 0 1-2.216-.575c-.144-.15-.272-.324-.458-.416-.218-.107-.474-.079-.716-.102a1.753 1.753 0 0 1-1.484-1.21c-.063-.208-.11-.459-.308-.55-.176-.081-.38.012-.574.01-.428-.006-.699-.456-.845-.858-.147-.403-.303-.87-.701-1.028-.2-.08-.437-.066-.614-.189-.316-.22-.244-.709-.428-1.047-.112-.205-.313-.344-.476-.511-.526-.541-.494-1.197-.324-1.867.186-.735.157-1.434.142-2.23-.005-.259-.034-.532-.012-.79.01-.127-.015-.125.1-.202.195-.132.621-.292.846-.283.094.565.155.948.24 1.316.074.325.216.607.362.908" style="fill:#462e3b;fill-rule:nonzero" transform="translate(32.21 30.607)"/>
  <path d="M0-1.046c.071 0 .121.071.087.125-.262.416-.809.912-1.405.917C-1.919 0-2.534-.491-2.82-.907c-.036-.054 0-.118.067-.118.931.095 1.85.091 2.753-.021" style="fill:#f2692c;fill-rule:nonzero" transform="translate(40.721 25.371)"/>
  <path d="M.474-.446c.465 0 .84.212.842.473 0 .262-.377.475-.842.475C.01.503-.366.291-.366.029c-.001-.261.375-.474.84-.475" style="fill:#462e3b;fill-rule:nonzero" transform="scale(1 -1) rotate(-86.556 10.293 -31.023)"/>
  <path d="M.515-.485c.486 0 .881.231.882.515-.001.285-.396.516-.882.516C.028.546-.367.315-.367.03c0-.284.396-.515.882-.515" style="fill:#462e3b;fill-rule:nonzero" transform="scale(1 -1) rotate(-86.607 7.893 -28.717)"/>
  <use xlink:href="#w" x="52.824" y="26.361" width="1.316" height="1.63" transform="scale(.65778 .81495)"/>
  <use xlink:href="#x" x="73.065" y="30.185" width="1.129" height="1.399" transform="scale(.56457 .69936)"/>
  <path d="M0 4.045a.726.726 0 0 1-.252.327c-.375.251-.844.024-1.151-.217-.346-.27-.602-.632-.88-.968-.418-.505-.844-1.149-.875-1.827C-3.205.322-2.136-.578-1.159-.053c.367.198.641.538.83.91.247.486.352.982.43 1.51.071.479.118.993-.024 1.463A1.725 1.725 0 0 1 0 4.045" style="fill:#8e6446;fill-rule:nonzero" transform="translate(31.01 19.522)"/>
  <use xlink:href="#y" x="30.128" y="20.592" width="2.802" height="3.789" transform="scale(.93405 .94731)"/>
  <path d="M0-3.561a12.906 12.906 0 0 0 2.027 2.073c.461.375.952.722 1.495.964.58.258 1.208.393 1.839.457.645.067 1.322.056 1.908-.223.624-.296 1.126-1.178.765-1.848-.401-.746-1.383.149-.905.574.094.084.307.04.363-.061" style="fill:none;fill-rule:nonzero;stroke:#462e3b;stroke-width:.37px" transform="translate(34.301 32.1)" opacity=".2"/>
  <path d="m0 3.307-.047-.059c-.435-.549-.811-1.023-1.058-1.652-.308-.784-.474-1.699-.493-2.719l-.152.003-.153.003c.003.196.017.386.032.574l-.915 4.375-.138.066c.066.141.189.405.451.461.154.033.288-.021.407-.066.079-.03.149-.058.217-.056.115.006.207.044.324.091.046.018.092.038.142.055a.884.884 0 0 0 .294.047c.315 0 .677-.132.888-.355.138-.147.229-.245.289-.48.035-.134-.051-.241-.088-.288" style="fill:#8e6446;fill-rule:nonzero" transform="translate(40.876 18.539)"/>
  <use xlink:href="#z" x="38.786" y="17.868" width="3.869" height="6.591" transform="scale(.96737 .9415)"/>
  <path d="M0 1.416A1.91 1.91 0 0 0-.496.669C-.565.605-.64.545-.687.463c-.134-.233.01-.534-.064-.792-.05-.175-.192-.306-.333-.421a.776.776 0 0 0-.294-.172c-.096-.024-.195-.015-.294-.009-.013-.011-.015-.03-.029-.041-.184-.139-.431-.146-.66-.179a1.64 1.64 0 0 1-.177-.037l.011.018c-.158-.076-.332-.142-.402-.317-.054-.135-.03-.296-.107-.419-.061-.097-.171-.149-.277-.186a1.845 1.845 0 0 0-1.413.096c-.118.06-.234.134-.365.154-.404.064-.727-.388-1.136-.402-.265-.01-.495.166-.72.305-.225.139-.519.249-.746.112-.113-.069-.187-.187-.3-.254-.251-.149-.571.008-.796.193-.224.187-.45.418-.742.43-.204.008-.398-.098-.603-.108-.192-.011-.376.063-.554.134-.35.143-.742.328-.846.692-.09.315.041.736-.228.923-.082.057-.185.074-.281.103-.594.181-.772.79-.865 1.336-.04.234-.051.473-.033.708.009.118.021.251-.057.34-.042.048-.104.073-.148.119-.107.113-.065.312.046.42.332.321.986.313 1.412.356.533.056 1.069.084 1.605.099a.947.947 0 0 0 .336-.031c.279-.099.365-.497.462-.738.071-.178.166-.334.279-.476.301-.377.725-.645 1.14-.902.603-.374 1.461-.575 2.155-.685.81-.132 1.677-.067 2.391.338.403-.337 1.011-.526 1.524-.41.213.048.417.207.603.433l.493.874c.051.127.098.257.138.392.029.002.048-.014.072-.02l.011.02-.083.072c.249.044.498-.139.591-.375.093-.234.057-.503-.029-.74" style="fill:#462e3b;fill-rule:nonzero" transform="translate(41.884 11.05)"/>
  <path d="M0-10.047s-1.585-1.053-1.664-1.108c-.298-.209-.41-.41-.566-.762-1.32.909-2.527 1.825-3.824 2.766.751 1.054 1.192 2.181 1.525 3.431.105.394.172.797.305 1.181.309.891.915 1.567 1.522 2.254.61.69 1.038 1.528 1.466 2.337.248.469.483 1.009.838 1.407.132.149.291.284.48.348.19.063.415.045.568-.083a.506.506 0 0 0 .164-.468C.752.914.51.611.345.315.145-.046-.036-.42-.193-.803c-.155-.375-.25-.89.087-1.117.522.211.893.727 1.3 1.102L2.722.592c.361.333.886.685 1.299.417.283-.186.337-.598.215-.913-.122-.316-.377-.558-.622-.791a54.63 54.63 0 0 1-2.591-2.638c1.451.511 2.46 1.793 3.541 2.887.173.174.372.356.617.376.452.037.757-.529.647-.969-.11-.441-.476-.762-.819-1.059a41.475 41.475 0 0 1-2.967-2.843c1.125.446 1.383.514 1.964.945.396.294 1.483 1.233 1.94.674.116-.142.269-.486.204-.658a.936.936 0 0 0-.174-.268c-.517-.605-1.267-1.039-1.963-1.405a24.56 24.56 0 0 1-2.114-1.229C1.463-7.17.549-7.978.153-8.318c.068-.764.074-.865-.153-1.729" style="fill:#8e6446;fill-rule:nonzero" transform="translate(22.357 75.01)"/>
  <path d="M-2.479.145c.373-.408 1.778-.735 2.538 0" style="fill:none;fill-rule:nonzero;stroke:#462e3b;stroke-width:.61px" transform="scale(-1 1) rotate(10.854 -111.957 -173.079)"/>
  <path d="M-2.215.903s.879-.933 2.179 0" style="fill:none;fill-rule:nonzero;stroke:#462e3b;stroke-width:.61px" transform="scale(-1 1) rotate(-6.085 135.874 381.657)"/>
  <path d="M0 68.035c.18-.197.292-.439.304-.725.018-.489-.274-.926-.493-1.364-.911-1.811-.653-3.958-.505-5.98.153-2.104.162-4.218.027-6.324-.062-.962-.138-1.899-.381-2.819-.262-.997-.567-1.947-.405-2.994.071-.461.224-.904.312-1.362a4.839 4.839 0 0 0-.268-2.708c-.313-.769-.836-1.578-.562-2.361.099-.284.295-.524.412-.8.14-.331.162-.696.174-1.053.031-.882.022-1.765-.029-2.645-.074-1.31-.239-2.613-.384-3.918-.712-6.433-.916-12.912-1.119-19.382-.02-.619.483-1.072.563-1.743.108-.917.067-1.88.085-2.802.036-1.803.03-3.608-.044-5.41l-.008-.203-.851-4.077-12.219-1.297-12.842 1.743-.457 3.2c-.048 1.831.142 3.858-.155 5.664-.258 1.568-.706 3.074-.874 4.694a59.581 59.581 0 0 0-.059 11.687c.3 3.211.861 6.469.24 9.634-.151.769-.371 1.532-.372 2.315-.001 1.383.686 2.73.502 4.101-.079.59-.318 1.151-.378 1.742-.079.776.15 1.548.19 2.327.033.638-.063 1.276-.147 1.911-.502 3.824-.548 7.691-.593 11.549-.041 3.504-.079 7.032.535 10.481a4.317 4.317 0 0 0 4.044.257c1.233-.572 3.195-.892 4.514-.567.557.138 1.094.38 1.667.424.572.044 1.224-.175 1.452-.703.329-.762-.383-1.666-.093-2.443.104-.278.322-.495.478-.749.307-.502.349-1.117.383-1.705.123-2.144-.424-1.557-.301-3.7.104-1.817.056-4.244.199-6.057.244-3.1.325-8.678.378-11.789.148-8.945 1.262-17.558 1.411-26.504.041-.588.895-.588.949 0l.372 7.698.833 17.221c.29 5.982.871 12.033.851 18.02-.006 1.406.558 2.824.626 4.264.046.983.039 2.015-.19 2.975-.101.427-.987 1.886-.836 2.197.657 1.354 2.594 1.413 4.014.914 1.42-.499 2.817-1.363 4.309-1.162.971.131 1.834.705 2.798.886.682.128 1.507-.079 1.943-.558" style="fill:#462e3b;fill-rule:nonzero" transform="translate(256.433 69.589)"/>
  <use xlink:href="#A" x="252.483" y="75.99" width="10.629" height="7.399" transform="scale(.96625 .92485)"/>
  <use xlink:href="#B" x="231.131" y="76.536" width="7.881" height="7.335" transform="scale(.98516 .91682)"/>
  <path d="M0-12.812c.097.973.195 3.689.389 4.87.025.981.297 1.997.442 2.962.134.888.219 2.057-.18 2.901C.275-1.283-.294-.495-.787.237a38.444 38.444 0 0 1-1.067 1.501c-.493.659-1.077 1.347-1.884 1.506-.324-.45-.378-1.055-.24-1.592.139-.536.452-1.013.809-1.437.753-.895.787-2.093.599-3.198-.056-.33-.301-1.605-.781-1.543-.155.021-.253.175-.319.318-.147.329-.232.681-.349 1.022-.116.342-.269.681-.526.934-.31.305-.746.563-1.187.581-.011.001-.022.001-.048-.02a.318.318 0 0 1-.071-.226c.005-.049.021-.096.037-.143.141-.421.229-.864.326-1.298.092-.419.176-.844.204-1.272.056-.902.18-1.822.595-2.623.265-.513.64-.96.901-1.476.08-.157-1.248-7.327-1.231-7.322L0-12.812Z" style="fill:#f5b1a5;fill-rule:nonzero" transform="translate(258.522 86.168)"/>
  <path d="M-3.609-37.02c3.538.584 6.969 1.704 10.31 3.381C3.254-26.462 1.947-7.77-3.609.664c0 0-13.687-3.24-13.583-4.913.488-7.881 12.136-26.78 13.583-32.771" style="fill:#dad5d8;fill-rule:nonzero" transform="scale(-1 1) rotate(-17.856 97.056 768.857)"/>
  <path d="M-7.173-9.89c-.859.23-1.613.504-2.246.797-1.509.717 2.246 14.265 2.246 14.265.852.069 1.972.032 2.919-.013C-4.573 3.957-7.007-6.015-7.173-9.89" style="fill:#3b2532;fill-rule:nonzero" transform="scale(-1 1) rotate(-79.023 -80.71 175.903)"/>
  <path d="M0-12.812c-.097.973-.195 3.689-.388 4.87-.026.981-.297 1.997-.442 2.962-.134.888-.22 2.057.179 2.901C-.275-1.283.294-.495.788.237c.343.509.698 1.009 1.066 1.501.494.659 1.077 1.347 1.885 1.506.323-.45.378-1.055.239-1.592C3.839 1.116 3.526.639 3.17.215c-.754-.895-.787-2.093-.6-3.198.056-.33.301-1.605.782-1.543.155.021.253.175.318.318.148.329.233.681.35 1.022.116.342.269.681.525.934.31.305.747.563 1.188.581.01.001.021.001.047-.02a.318.318 0 0 0 .071-.226c-.004-.049-.021-.096-.037-.143-.14-.421-.229-.864-.325-1.298a8.32 8.32 0 0 1-.204-1.272c-.057-.902-.181-1.822-.596-2.623-.265-.513-.64-.96-.901-1.476-.079-.157 1.248-7.327 1.231-7.322L0-12.812Z" style="fill:#f5b1a5;fill-rule:nonzero" transform="translate(222.757 86.168)"/>
  <path d="M0 40.617c2.441 1.497 5.223.238 8.087.192l2.496-42.306c-.762.282-1.52.579-2.264.905-1.014.446-2.5 1.086-3.213 1.968-.379.47-.406 1.084-.419 1.658-.103 4.49-1.57 12.334-1.672 16.823L0 40.617Z" style="fill:#462e3b;fill-rule:nonzero" transform="translate(220.79 35.116)"/>
  <use xlink:href="#C" x="238.449" y="41.194" width="3.778" height="34.099" transform="scale(.94448 .97426)"/>
  <path d="M3.264 4.171h1.627c-.602-1.808-.142-5.75.35-7.957l-1.576-.162c-.629 2.256-1.394 6.292-.401 8.119" style="fill:#f2692c;fill-rule:nonzero" transform="scale(1 -1) rotate(80.729 159.03 92.175)"/>
  <path d="M0 41.081c.396-1.96.687-3.939.962-5.913.445-3.205.891-6.422 1.347-9.627v-.032c.087-.598.163-1.185.25-1.782.217-1.597.445-3.184.576-4.781a41.758 41.758 0 0 0-.294-9.17c-.141-1.01-.325-2.021-.478-3.042-.108-.794-.358-1.576-.369-2.369-.022-1.662.488-3.335 1.467-4.682.032-.043.064-.087.064-.142-.021-.119-.184-.119-.303-.087-.88.229-1.749.479-2.608.761-1.477.445-2.933.967-4.411 1.5-.945.336-1.924.695-2.662 1.346-1.314 1.164-.913 2.999-.848 4.52.097 1.967.535 3.874.744 5.799.471 4.338.085 9.041-.201 13.397a122.217 122.217 0 0 1-.808 8.144c-.19 1.408-.404 2.812-.646 4.213-.063.369-.15.732-.247 1.093a.804.804 0 0 0 .652 1c2.793.42 5.422.432 7.813-.146" style="fill:#462e3b;fill-rule:nonzero" transform="translate(234.429 32.075)"/>
  <path d="M0-14.527S4.324-3.759 3.727 5.78c.086-.598.163-1.185.25-1.783.217-1.596.445-3.183.576-4.78a41.756 41.756 0 0 0-.294-9.17c-.141-1.011-.325-2.021-.478-3.042-.108-.793-.358-1.576-.369-2.369-.022-1.662.488-3.335 1.467-4.683.032-.042.064-.086.064-.141-.021-.119-.184-.119-.303-.087-.88.228-1.749.478-2.608.761-.869.75-1.543 1.608-2.151 2.499l2.054 1.858-1.935.63Z" style="fill:#58424e;fill-rule:nonzero" transform="translate(233.011 51.804)"/>
  <path d="M0 40.617c-2.442 1.497-5.224.238-8.087.192l-2.497-42.306c.763.282 1.52.579 2.264.905 1.015.446 2.5 1.086 3.213 1.968.379.47.407 1.084.42 1.658.103 4.49 1.569 12.334 1.672 16.823L0 40.617Z" style="fill:#462e3b;fill-rule:nonzero" transform="translate(260.49 35.116)"/>
  <path d="M-4.907-3.841h1.626c-.602 1.808-.141 5.75.351 7.957l-1.577.163c-.629-2.258-1.394-6.293-.4-8.12" style="fill:#f2692c;fill-rule:nonzero" transform="scale(-1 1) rotate(-80.729 -85.89 186.29)"/>
  <use xlink:href="#D" x="275.138" y="40.453" width="3.666" height="33.732" transform="scale(.91653 .99212)"/>
  <path d="M0 26.043c-.361-2.695-.469-4.183-.645-6.854-.287-4.357-.671-9.06-.201-13.398.21-1.925.648-3.832.744-5.799.066-1.52.467-3.356-.847-4.519-.739-.652-1.717-1.011-2.662-1.347-1.478-.533-2.934-1.055-4.411-1.5a43.355 43.355 0 0 0-2.608-.761c-.119-.032-.282-.032-.305.087 0 .055.034.099.066.142.978 1.347 1.488 3.02 1.467 4.682-.011.793-.261 1.576-.369 2.37-.153 1.02-.337 2.031-.479 3.042-.435 3.042-.244 5.739-.005 8.792 0 1.335.302 2.724.427 4.055.342 3.636.568 7.282.679 10.933.075 2.501.078 5.003.159 7.502 2.287.74 5.407.505 8.759 0a1.28 1.28 0 0 0 1.26-1.499L0 26.043Z" style="fill:#462e3b;fill-rule:nonzero" transform="translate(253.99 39.664)"/>
  <path d="M0-14.467S-4.215-3.744-3.521 5.756c-.092-.595-.174-1.18-.267-1.775-.233-1.591-.09-3.307-.236-4.898a43.805 43.805 0 0 1-.027-7.571c.113-1.329.203-2.659.318-3.987.11-1.285.436-2.636.441-3.917.005-1.656-.651-2.229-1.643-3.571-.033-.043-.066-.087-.066-.141.021-.119.183-.119.303-.087.883.228 1.754.477 2.615.758.877.746 1.56 1.602 2.177 2.488l-2.034 1.851 1.94.627Z" style="fill:#58424e;fill-rule:nonzero" transform="translate(248.058 51.72)"/>
  <path d="M-2.945-1.435a19.909 19.909 0 0 0-4.647 4.517l4.647 4.093 3.96-3.849-3.96-4.761Z" style="fill:#f5b1a5;fill-rule:nonzero" transform="scale(1 -1) rotate(44.186 160.753 286.04)"/>
  <use xlink:href="#E" x="256.242" y="31.743" width="2.817" height="1.818" transform="scale(.939 .90912)"/>
  <path d="M0-3.844h-1.757l-.878 1.453L-1.757 0H0l.879-2.391L0-3.844Z" style="fill:#f2692c;fill-rule:nonzero" transform="translate(241.464 38.173)"/>
  <path d="M1.512-2.072C1.938.109.678 1.114-.104 1.681c.106.428 1.278 1.37 1.616 1.493 2.265-1.151 2.964-3.46 3.31-4.843-1.24.126-2.707.786-3.31-.403" style="fill:#fff;fill-rule:nonzero" transform="scale(1 -1) rotate(-65.096 95.88 -205.677)"/>
  <path d="M-1.49-2.049C-1.921.122-.645 1.119.147 1.68.04 2.107-1.148 3.049-1.49 3.173c-2.294-1.138-2.921-3.604-3.272-4.98 1.256.12 2.464.819 3.272-.242" style="fill:#fff;fill-rule:nonzero" transform="scale(1 -1) rotate(64.745 144.792 172.41)"/>
  <use style="fill:#fff;fill-rule:nonzero" transform="translate(237.14 138.77)" xlink:href="#reuse-1"/>
  <use style="fill:#462e3b;fill-rule:nonzero" transform="translate(237.14 138.77)" opacity=".8" xlink:href="#reuse-1"/>
  <path d="M0-1.42v.778a.696.696 0 0 1-.694.695h-9.707a.696.696 0 0 1-.695-.695v-.778c0-.017 0-.035.002-.053H-.002A.478.478 0 0 1 0-1.42" style="fill:#462e3b;fill-rule:nonzero" transform="translate(237.14 143.529)"/>
  <use style="fill:#fff;fill-rule:nonzero" transform="translate(257.01 138.77)" xlink:href="#reuse-2"/>
  <use style="fill:#462e3b;fill-rule:nonzero" transform="translate(257.01 138.77)" opacity=".8" xlink:href="#reuse-2"/>
  <path d="M0-1.42v.778a.696.696 0 0 1-.695.695h-9.706a.696.696 0 0 1-.696-.695v-.778c0-.017 0-.035.003-.053H-.003A.32.32 0 0 1 0-1.42" style="fill:#462e3b;fill-rule:nonzero" transform="translate(257.01 143.529)"/>
  <path d="m0 29.384 2.224 2.559 2.222-2.559L3.225-.64l-.371-1.919H1.109L.705-.64 0 29.384Z" style="fill:#f2692c;fill-rule:nonzero" transform="translate(238.609 40.732)"/>
  <path d="M0 17.308c-.627-.648-2.807-2.558-3.144-3.371-1.112-2.696-.517-5.422-.663-8.04C-3.92 3.856-3.893.945-2.185-.186-.85-1.069.853-1.504 2.523-1.463c1.671-.041 3.373.394 4.707 1.277C8.939.945 8.967 3.856 8.854 5.897c-.146 2.618.449 5.344-.665 8.04-.335.813-2.515 2.723-3.142 3.371-1.679 1.504-3.541 1.367-5.047 0" style="fill:#f5b1a5;fill-rule:nonzero" transform="translate(237.969 12.307)"/>
  <path d="M0-1.133c-.054-.04-.032-.12-.005-.18a9.04 9.04 0 0 1 .329-.652c.244-.435.708-.943 1.267-.557.234.162.359.436.395.707.037.273-.006.548-.048.82-.104.672-.212 1.356-.529 1.966-.114.22-.262.435-.482.563-.419.241-.747-.048-1.037-.293L0-1.133Z" style="fill:#f5b1a5;fill-rule:nonzero" transform="translate(246.861 21.727)"/>
  <use xlink:href="#F" x="259.437" y="20.072" width=".953" height="2.946" transform="scale(.95335 .98197)"/>
  <path d="M0-.963c.053-.04-.079-.205-.106-.265a8.3 8.3 0 0 0-.33-.652c-.244-.435-.708-.943-1.266-.557-.235.162-.36.436-.396.707-.036.273.006.548.048.82.105.672.213 1.356.529 1.967.115.219.262.434.484.562.419.241.746-.048 1.037-.293V-.963Z" style="fill:#f5b1a5;fill-rule:nonzero" transform="translate(234.17 21.642)"/>
  <use xlink:href="#G" x="240.759" y="20.489" width="9.662" height="7.261" transform="scale(.96624 .90764)"/>
  <path d="M-.603-.603c-.472 0-.855.271-.855.604 0 .333.383.602.855.602.473 0 .854-.269.854-.602 0-.333-.381-.604-.854-.604" style="fill:#462e3b;fill-rule:nonzero" transform="matrix(0 -1 -1 0 237.646 20.607)"/>
  <path d="M-.584-.584c-.472 0-.854.261-.854.583 0 .323.382.585.854.585.474 0 .855-.262.855-.585 0-.322-.381-.583-.855-.583" style="fill:#462e3b;fill-rule:nonzero" transform="matrix(0 -1 -1 0 242.966 20.627)"/>
  <use xlink:href="#H" x="259.31" y="28.081" width="9.099" height="1.655" transform="scale(.90993 .8275)"/>
  <path d="M.002-.108a3.599 3.599 0 0 0 2.033 0" style="fill:none;fill-rule:nonzero;stroke:#f2692c;stroke-width:.58px" transform="scale(1 -1) rotate(-6.126 -52.322 -2271.882)"/>
  <path d="M-2.093-.013c.887-.298 1.508-.209 2.118 0" style="fill:none;fill-rule:nonzero;stroke:#f2692c;stroke-width:.58px" transform="scale(-1 1) rotate(9.044 -238.083 -1484.76)"/>
  <path d="M0-1.154c.085-.001.145.085.104.149-.315.498-.966.996-1.681 1.001-.719.005-1.458-.486-1.801-.985-.043-.063.001-.141.08-.141 1.116.267 2.216.274 3.298-.024" style="fill:#fff;fill-rule:nonzero" transform="translate(242.296 27.365)"/>
  <path d="M0-2.574c.575-.133 2.036.791 2.491.952a19.68 19.68 0 0 0 2.707.744l-.423-.384c.294-.003.56.164.814.313A8.97 8.97 0 0 0 8.866.198a1.89 1.89 0 0 0-.638-1.033c.371.098.733.226 1.083.38.202.09.408.195.537.375.137.192.167.439.186.674a18.16 18.16 0 0 1-.048 3.566c-.018.167-.039.342.023.499.061.157.235.284.395.231.201-.066.234-.334.221-.546-.015-.232.042-.342.132-.537.102-.224.146-.474.212-.722.098-.376.342-.834.327-1.221L11.258.857c-.005-.145-.009-.297.055-.427.065-.13.223-.226.357-.171a6.017 6.017 0 0 0-.605-2.077l.485-.13a6.026 6.026 0 0 0-2.465-4.441 6.024 6.024 0 0 0-3.38-1.107c-1.187-.021-3.004-.002-4.07.524C.933-6.627.066-5.863-.211-5.131c-.86.074-1.591.689-2.068 1.408-.479.717-.173 1.606-.533 2.391l.441-.091c.032-.006-.213 2.081-.23 2.266-.056.604.041 1.201.13 1.797.052.346.078.695.105 1.044.016.217-.035.479.06.682.109.231.425.273.533-.003.088-.228-.004-.683.01-.936.037-.625.132-1.245.284-1.853.215-.854.667-1.586.937-2.423.146-.453.128-1.199.351-1.591A.28.28 0 0 1 0-2.574" style="fill:#f2692c;fill-rule:nonzero" transform="translate(236.262 16.307)"/>
  <path d="M0 .911C-.102.67-.832.498-1.352.285c-1.575-.647-2.029-1.404-2.549-2.404-.276-.53-.447-1.217-.586-1.946h-4.826c.018.545.007 1.079.018 1.552.033 1.409-.237 2.717-.27 4.1-.009.357-.017.72.078 1.064.283 1.021 1.741 1.505 2.638 1.797a9.626 9.626 0 0 0 3.697.433c.805-.062 1.623-.226 2.312-.647C-.15 3.812.397 3.101.463 2.296.503 1.807.191 1.367 0 .911" style="fill:#f5b1a5;fill-rule:nonzero" transform="translate(91.71 135.626)"/>
  <path d="M0-4.331C-.749-2.955-.312-1.229.309.209l16.896.122c.4 0 .642-.013.91-.309.268-.298.24-.851-.115-1.034-2.879-1.476-6.017-2.469-9.029-3.65A4.841 4.841 0 0 1 7.07-.893C5.087-2.682 2.607-3.755 0-4.331" style="fill:#462e3b;fill-rule:nonzero" transform="translate(82.12 140.718)"/>
  <path d="m0-31.954-10.949-1.424c.376 2.682.567 5.375-.089 8.091-1.202 4.982.023 9.134 1.453 13.384C-8.229-7.873-8.06-4.119-8.022.302l5.573 1.122c-.212-3.57 1.219-17.429 1.632-24.805.238-4.261.319-6.155.817-8.573" style="fill:#f5b1a5;fill-rule:nonzero" transform="translate(90.37 132.26)"/>
  <use xlink:href="#I" x="91.652" y="149.966" width="7.107" height="1.632" transform="scale(.88838 .816)"/>
  <path d="m0-15.977-10.099-20.426s1.562 22.704 2.05 26.682c.284 2.317-.432 4.551-.935 6.782-.829 3.675.279 7.311.992 10.912.636 3.208.785 3.432 1.464 6.632.363 1.711.961 3.525 1.049 5.821l4.384-.322C-1.116 13.119.368 8.127 1.387 1.137 2.199-4.438.583-10.379 0-15.977" style="fill:#f5b1a5;fill-rule:nonzero" transform="translate(73.186 113.81)"/>
  <use xlink:href="#J" x="72.167" y="175.79" width="7.281" height="1.412" transform="scale(.91012 .706)"/>
  <path d="M0 .405C-.989-2.11-1.961-4.636-2.798-7.204h-4.62A85.586 85.586 0 0 0-2.981 4.332c.56 1.189 1.216 2.438 2.376 3.056.233.124.503.221.758.152.146-.04.271-.131.392-.221a18.133 18.133 0 0 0 2.402-2.147C1.449 4.015.692 2.167 0 .405" style="fill:#f5b1a5;fill-rule:nonzero" transform="translate(63.752 71.066)"/>
  <path d="M0 23.09c-.3.78-1.34.91-2.17.8-.14-.01-.29-.03-.4.05-.11.08-.14.22-.17.36-.09.48-.19.97-.28 1.45-.04.22-.09.45-.26.59-.23.2-.57.15-.88.14h-.04c-.85-.04-1.67.29-2.5.52-.24.08-.49.14-.74.18-2.13.35-1.77-2.47-1.83-3.81-.06-1.27.07-2.35.28-3.63.73-4.671.01-9.45.41-14.16.1-1.17.26-2.33.43-3.49.17-1.19.81-6.53 2.83-5.05 2.19 1.62 2.89 3.93 3.1 6.4.2 2.34-.03 4.83.19 7.02.2 2.09.69 4.14 1.18 6.18.2.81.43 1.59.45 2.42.03.84-.04 1.6.21 2.44.15.52.38 1.08.19 1.59" style="fill:#fff;fill-rule:nonzero" transform="translate(88.02 41.2)"/>
  <path d="M0 4.428c-.85-.04-1.67.29-2.5.521-.07-.291-.15-.59-.2-.88A6.42 6.42 0 0 1-2.34.518c.09-.22.19-.44.36-.59.26-.239.96-.449 1.28-.22.37.271.18.83.16 1.22-.04 1.19.14 2.38.54 3.5" style="fill:#c8c1c5;fill-rule:nonzero" transform="translate(83.82 63.252)"/>
  <path d="M0-57.807c-2.652 7.256-3.555 7.693-3.529 15.419C-3.515-38.247-.603-26.62-.184-22.5c.203 1.984.499 3.973.379 5.965-.143 2.354-.863 4.632-1.207 6.965A22.035 22.035 0 0 0 .144 1.303c3.562-.105 6.457.499 9.986 0 1.694-9.83.542-21.197.712-31.171.059-3.461.428-6.933 1.243-10.301.951-3.93 1.643-8.269 1.793-12.312.088-2.377-.055-4.756-.2-7.128L0-57.807Z" style="fill:#8cc44a;fill-rule:nonzero" transform="translate(64.06 122.811)"/>
  <path d="M0 59c.511-4.563.455-8.566.702-13.276.092-1.745.233-4.245.263-5.991.057-3.17.488-6.345.035-9.483C-.957 16.685-6.032 11.319-7.27-.103c.065.003.017-.121-.042-.096-.061.023-.07.103-.069.168l-12.528-.116 2.006 15.364c.104 3.884 5.689 14.285 7.456 18.315-.099 7.15-.907 17.697.777 25.692L0 59Z" style="fill:#8cc44a;fill-rule:nonzero" transform="translate(89.446 63.35)"/>
  <path d="M0-7.382c-.14 1.761 1.989 3.263 4.393 5.02L-3.056 0l-1.998-4.976c.299-.721.623-.847.67-2.084L0-7.382Z" style="fill:#f5b1a5;fill-rule:nonzero" transform="translate(72.091 141.296)"/>
  <path d="M0-6.781c-.13.069-.713 1.882-.552 2.69.152.758 1.029 1.243 1.656 1.607.762.442 1.483.939 2.253 1.371C5.002-.191 6.82.455 8.819.43c.614-.008 1.539-.077 1.9-.685.803-1.348-.951-3.498-1.483-4.221a.725.725 0 0 0-.566-.272c-1.141-.049-2.128.196-3.314.743-.785.364-2.004.966-2.709 1.531C1.751-3.737.143-5.738.286-7.236L0-6.781Z" style="fill:#462e3b;fill-rule:nonzero" transform="translate(66.924 143.068)"/>
  <path d="M-10.046-7.741c1.483.33 1.483.33 3.026.789 1.363 6.772-.449 12.5-3.026 18.443-.936-.159-3.425.153-3.612-.732.044-6.631 1.234-13.071 3.612-18.5" style="fill:#462e3b;fill-rule:nonzero" transform="scale(1 -1) rotate(77.63 72.715 20.645)"/>
  <path d="M0 24.761c-1.125.158-1.986 1.135-3.11 1.158-1.208.025-2.157-1.282-3.353-1.475-1.108-.179-2.132.62-3.178 1.081-.587.258-1.38.343-1.723-.265-.106-.187-.148-.414-.24-.611-.239-.509-.759-.731-1.235-.911-1.212-.461-2.247-.255-3.448.14-1.089.36-2.134 1.147-3.313.835-2.52-.666-2.38-3.825-1.934-6.032.531-2.633 1.233-5.281 1.505-7.972.24-2.365.123-4.76.355-7.121.19-1.936.064-3.232 1.581-3.914 1.611-.724 3.663-.857 5.362-.68 1.992.208 3.854.214 5.512.112 2.107-.131 4.211.052 6.293.401.516.087 1.048.179 1.489.461.717.458 1.062 1.333 1.193 2.177.157 1.001.077 2.021.031 3.033a46.892 46.892 0 0 0 1.379 13.633c.401 1.588.853 3.4-.059 4.758-.77 1.146-1.829 1.059-3.024 1.182a2.094 2.094 0 0 0-.083.01" style="fill:#fff;fill-rule:nonzero" transform="translate(82.198 38.379)"/>
  <path d="M0-17.687c-.032 3.967.333 6.985 1.312 10.83.401 1.578 2.192 4.333 1.281 5.682C1.823-.036.764-.122-.432 0" style="fill:none;fill-rule:nonzero;stroke:#7d6c75;stroke-width:.5px" transform="translate(82.713 62.974)"/>
  <path d="M0-14.426a6.367 6.367 0 0 1-.349 2.658c-.109.301-.242.597-.285.916-.051.383.031.778.099 1.165.149.859.229 1.734.078 2.573-.15.839-.548 1.645-1.234 2.175-.421.325-.979.51-1.156 1.021-.183.532-.211 1.171-.161 1.737.066.769.263 1.547.576 2.278.145.337.309.675.305 1.022-.004.226-.088.441-.122.666-.02.141-.019.281-.009.422a2.806 2.806 0 0 1-1.219.018c-2.559-.534-2.606-3.103-2.296-4.893.374-2.138.927-4.285 1.038-6.47.08-1.388-.152-2.813.459-4.092.433-.906 1.108-1.679 1.808-2.415.326-.343.667-.685 1.094-.917.192-.103.435-.183.645-.086.196.091.292.302.36.494.2.564.323 1.146.369 1.728" style="fill:#dad5d8;fill-rule:nonzero" transform="translate(66.073 60.868)"/>
  <path d="M0 5.692c-.461-.257-.65-.81-.54-1.326.297-1.395.318-2.834.279-4.26-.019-.678 4.112-.783 4.094.041-.02.913.233 3.117.429 4.34.076.475-.123.965-.536 1.21C2.592 6.369 1.2 6.358 0 5.692" style="fill:#f5b1a5;fill-rule:nonzero" transform="translate(71.42 32.89)"/>
  <use xlink:href="#K" x="82.14" y="37.011" width="4.33" height="1.823" transform="scale(.866 .91139)"/>
  <path d="M0-.978c.043-.034.026-.104.004-.155a7.438 7.438 0 0 0-.269-.563c-.198-.375-.576-.814-1.031-.48-.191.14-.293.376-.323.61-.029.235.005.473.039.707.085.58.174 1.171.432 1.697.092.19.213.375.393.486.341.208.681-.071.918-.281L0-.978Z" style="fill:#f5b1a5;fill-rule:nonzero" transform="translate(68.234 27.828)"/>
  <use xlink:href="#L" x="85.601" y="30.807" width=".784" height="2.54" transform="scale(.78351 .84682)"/>
  <path d="M0 15.299c-.523-.573-2.343-2.261-2.624-2.98-.929-2.383-.432-4.792-.553-7.106-.095-1.804-.072-4.377 1.354-5.377C-.709-.945.712-1.329 2.106-1.292c1.395-.037 2.816.347 3.93 1.128 1.426 1 1.449 3.573 1.354 5.377-.121 2.314.375 4.723-.554 7.106-.28.719-2.1 2.407-2.624 2.98-1.401 1.329-2.955 1.208-4.212 0" style="fill:#f5b1a5;fill-rule:nonzero" transform="translate(71.178 19.016)"/>
  <path d="M0-1.001c-.045-.036-.027-.106-.004-.159.084-.195.175-.388.275-.576.203-.385.59-.834 1.057-.493.195.144.3.385.33.625.03.242-.005.485-.04.725C1.531-.285 1.44.319 1.176.858c-.095.195-.218.385-.403.498-.35.213-.623-.043-.866-.259L0-1.001Z" style="fill:#f5b1a5;fill-rule:nonzero" transform="translate(78.435 27.607)"/>
  <use xlink:href="#M" x="98.465" y="29.78" width=".801" height="2.602" transform="scale(.80056 .86723)"/>
  <path d="M-.534-.534c-.417 0-.755.239-.755.535 0 .294.338.533.755.533.418 0 .756-.239.756-.533 0-.296-.338-.535-.756-.535" style="fill:#462e3b;fill-rule:nonzero" transform="matrix(0 -1 -1 0 70.638 26.352)"/>
  <path d="M-.516-.516c-.417 0-.755.232-.755.517 0 .284.338.515.755.515C-.098.516.24.285.24.001c0-.285-.338-.517-.756-.517" style="fill:#462e3b;fill-rule:nonzero" transform="matrix(0 -1 -1 0 75.34 26.37)"/>
  <use xlink:href="#N" x="71.403" y="36.275" width="8.675" height="1.578" transform="scale(.96391 .789)"/>
  <path d="M.002-.095c.711.202 1.289.14 1.798 0" style="fill:none;fill-rule:nonzero;stroke:#462e3b;stroke-width:.51px" transform="scale(1 -1) rotate(-6.097 -193.72 -712.624)"/>
  <path d="M-1.85-.011c.785-.263 1.334-.185 1.872 0" style="fill:none;fill-rule:nonzero;stroke:#462e3b;stroke-width:.51px" transform="scale(-1 1) rotate(9.035 -192.785 -427.377)"/>
  <use xlink:href="#O" x="83.301" y="29.422" width="2.581" height="4.448" transform="scale(.8605 .88952)"/>
  <path d="M0-1.106c.075-.001.128.075.092.132-.278.44-.856.966-1.488.971-.635.004-1.287-.516-1.589-.957-.039-.056 0-.125.07-.125.986.102 1.958.098 2.915-.021" style="fill:#f2692c;fill-rule:nonzero" transform="translate(74.56 32.285)"/>
  <path d="M0 5.076c.111.535.153 2.166.264 2.701.007.033.015.07.04.095.088.092.217-.053.25-.171.106-.368.302-1.156.407-1.524.198-.689.267-1.427.407-2.138a15.027 15.027 0 0 0 .28-2.499c.012-.43.006-.864-.093-1.286C1.295-.863.395-1.788-.66-2.283c-1.054-.495-2.246-.605-3.39-.527-1.497.103-2.96.514-4.268 1.2-.407.214-.849.543-.815 1.005a1.215 1.215 0 0 0-1.075.293c-.333.317-.327.654-.309 1.073.019.442-.069.893-.091 1.337-.048.969-.003 1.943.061 2.914.035.535.191 1.018.242 1.55.036.368.041 1.019.374 1.28.091-.074.097-.164.091-.282-.033-.638.067-1.271.166-1.898l.312-1.974c.076-.479.169-.956.255-1.433.058-.319.058-.508.416-.441C-4.728 4.291-1.976 5.189 0 5.076" style="fill:#f2692c;fill-rule:nonzero" transform="translate(77.927 19.92)"/>
  <path d="M0-17.815c-.675 1.225-1.545 2.354-1.688 3.768-.058.563.107 1.13.062 1.696-.164 1.998-2.454 3.088-3.185 4.786-.11.259.007.558.096.826.22.662.268 1.374.314 2.076.157 2.418.028 4.953.683 7.3.067.241.144.484.15.735.005.25-.071.515-.262.677-.344.29-.862.133-1.31.184a1.352 1.352 0 0 0-.795.38c-.355.349-.49.867-.81 1.249-.442.525-1.161.717-1.841.81-.425.058-.869.095-1.237.315-.189.112-.348.268-.536.382-.188.113-.424.18-.626.095-.19-1.67-.39-3.374-1.109-4.892-.117-.248-.249-.492-.325-.756-.108-.368-.025-.699-.047-1.069-.019-.318-.125-.646-.186-.958a75.787 75.787 0 0 0-.499-2.402c-.274-1.186-.231-2.385-.648-3.556-.091-.255-.196-.517-.184-.791.008-.185.07-.363.144-.53.428-.984 1.287-1.935 1.002-2.978-.093-.336-.301-.632-.344-.98-.069-.565.311-1.066.653-1.502a24.784 24.784 0 0 0 2.755-4.389 27.717 27.717 0 0 1 2.905-4.715c1.031-1.335 2.96-3.151 4.675-3.209 2.892-.101 3.484 2.914 2.917 5.633-.136.651-.409 1.244-.724 1.815" style="fill:#fff;fill-rule:nonzero" transform="translate(66.299 62.851)"/>
  <use xlink:href="#P" x="76.674" y="82.785" width="5.88" height="39.93" transform="scale(.98 .99825)"/>
</svg>
