<?xml version="1.0" encoding="UTF-8" standalone="no"?>
<svg viewBox="0 0 267 150" xmlns="http://www.w3.org/2000/svg" xmlns:xlink="http://www.w3.org/1999/xlink" xml:space="preserve" style="fill-rule:evenodd;clip-rule:evenodd;stroke-linecap:round;stroke-miterlimit:10">
  <defs>
    <path style="fill:none" d="M0 0h266v150H0z" id="reuse-0"/>
    <path d="M-11.317 13.377H3.255L0 0h-14.572l3.255 13.377Z" style="fill:#462e3b;fill-rule:nonzero" id="reuse-1"/>
  </defs>
  <g transform="translate(.25)">
    <use style="fill:none" xlink:href="#reuse-0"/>
    <clipPath id="a">
      <use xlink:href="#reuse-0"/>
    </clipPath>
    <g clip-path="url(#a)">
      <path d="M-25.019-23.774h47.61" style="fill:none;fill-rule:nonzero;stroke:#b9dc94;stroke-width:2.46px" transform="scale(-1 1) rotate(87.077 -177.182 -61.102)"/>
      <path d="M-32.954-23.774h50.105" style="fill:none;fill-rule:nonzero;stroke:#b9dc94;stroke-width:2.46px" transform="scale(-1 1) rotate(71.615 -174.877 -50.268)"/>
      <path d="M-55.164 0H0" style="fill:none;fill-rule:nonzero;stroke:#b9dc94;stroke-width:2.46px" transform="matrix(-1 0 0 1 150.324 107.608)"/>
      <path d="M-6.163 7.42H8.934" style="fill:none;fill-rule:nonzero;stroke:#b9dc94;stroke-width:2.46px" transform="scale(1 -1) rotate(79.424 154.543 60.024)"/>
      <path d="M-34.868-42.102h85.706" style="fill:none;fill-rule:nonzero;stroke:#b9dc94;stroke-width:2.46px" transform="scale(1 -1) rotate(-79.261 91.552 -201.527)"/>
      <path d="M0 81.245h79.069c.911 0 1.697-.64 1.882-1.532L96.635 3.85C96.911 1.24 94.137 0 92.919 0L16.91 2.694c-.898 0-1.676.622-1.874 1.498l-19.241 72.61c-.272 1.202.624 4.087 4.205 4.443" style="fill:#d0e7b8;fill-rule:nonzero" transform="translate(142.483 14.34)"/>
      <path d="M0 78.551h79.069c.911 0 1.697-.64 1.882-1.532l15.47-74.707A1.922 1.922 0 0 0 94.54 0H16.91c-.898 0-1.676.622-1.874 1.498l-16.91 74.707A1.922 1.922 0 0 0 0 78.551" style="fill:#fff;fill-rule:nonzero" transform="translate(140.2 14.216)"/>
      <path d="M0 10.357h15.43L12.438-8.624h-.157L0 10.357Zm15.826 2.578H-1.677l-6.316 9.78h-3.254l23.046-35.073h2.965l5.873 35.073h-3.255l-1.556-9.78Z" style="fill:#462e3b;fill-rule:nonzero" transform="translate(169.042 34.306)"/>
      <path d="M0 21.945c2.258 0 4.37-.486 6.339-1.458 1.968-.971 3.52-2.211 4.657-3.722l1.324-5.444H5.996c-2.85 0-5.265.559-7.242 1.675-1.978 1.116-3.168 2.501-3.57 4.155-.344 1.414-.095 2.565.747 3.457.84.891 2.197 1.337 4.069 1.337m9.815 2.047c.004-.882.042-1.646.111-2.288.068-.642.183-1.293.344-1.951-1.382 1.365-3.058 2.497-5.025 3.396a14.818 14.818 0 0 1-6.233 1.349c-2.765 0-4.748-.674-5.95-2.024-1.203-1.348-1.529-3.155-.978-5.42.586-2.408 2.188-4.335 4.806-5.78 2.617-1.446 5.85-2.169 9.698-2.169h6.272l.786-3.227c.453-1.863.157-3.325-.889-4.385C11.712.434 10.018-.096 7.673-.096c-2.187 0-4.125.505-5.815 1.518C.169 2.433-.854 3.67-1.21 5.131l-2.88-.024-.016-.145C-3.74 3.02-2.351 1.281.062-.253c2.411-1.533 5.192-2.3 8.34-2.3 3.131 0 5.472.731 7.024 2.192 1.551 1.461 1.995 3.557 1.331 6.287l-3.118 12.815a21.315 21.315 0 0 0-.481 2.674 14.545 14.545 0 0 0-.062 2.577H9.815Z" style="fill:#462e3b;fill-rule:nonzero" transform="translate(202.824 33.028)"/>
      <use style="fill:#462e3b;fill-rule:nonzero" transform="matrix(-1 0 0 1 176.45 69.844)" xlink:href="#reuse-1"/>
      <use style="fill:#f2692c;fill-rule:nonzero" transform="matrix(-1 0 0 1 198.227 69.844)" xlink:href="#reuse-1"/>
      <path d="M-11.318 13.377H3.255L0 0h-14.573l3.255 13.377Z" style="fill:#8cc44a;fill-rule:nonzero" transform="matrix(-1 0 0 1 154.673 69.844)"/>
      <path d="M0 4.117c1.304.855 5.303 2.625 6.735 3.244.87.376 1.839.711 2.751.449.906-.258 1.546-1.043 2.126-1.785l4.3-5.505c1.196-1.532 2.488-3.135 4.313-3.805 1.824-.67 3.718-.615 4.954.415" style="fill:none;fill-rule:nonzero;stroke:#462e3b;stroke-width:10.38px;stroke-linejoin:round" transform="translate(71.162 75.53)"/>
      <path d="M0-70.865c-.028.972-.227 2.085-.604 2.831-2.709 5.398-4.766 10.645-6.304 15.883-3.256 11.117-4.272 22.492-3.716 35.015.262 5.879.989 11.979 6.504 14.563C1.128-.113 9.326-.593 15.013-.706 20.271-.81 26.722 0 31.595-2.284c5.514-2.584 8.288-8.35 8.55-14.229.556-12.524-3.027-24.179-4.898-35.611-.886-5.412-2.1-9.528-3.442-16.435L0-70.865Z" style="fill:#f2692c;fill-rule:nonzero" transform="translate(38.537 129.773)"/>
      <path d="M0 32.606c-3.062-1.359-5.578-3.814-5.805-7.298-.133-2.041-1.403-1.893-2.762-2.259-4.431-1.188-6.418-5.639-4.363-9.691.599-1.179 1.139-2.113.198-3.406-1.015-1.394-.525-3.444.182-4.885 6.235-1.065 25.976-5.316 22.646 6.921C8.166 19.077 4.75 26.813.569 32.855L0 32.606Z" style="fill:#fff8f0;fill-rule:nonzero" transform="translate(107.826 90.558)"/>
      <path d="M0-35.409c1.933-1.341 6.952-3.951 11.397-4.984-.707 1.441-1.197 3.49-.182 4.884.941 1.293.402 2.227-.197 3.406-2.056 4.052-.068 8.503 4.362 9.691 1.359.366 2.629.218 2.762 2.259.26 3.975 3.013 6.07 6.375 7.547 0 0-2.249 2.442-3.52 3.517a59.375 59.375 0 0 1-5.496 4.112C5.514 1.661-4.76 3.8-17.19 4.522c-7.949.462-16.333.266-24.184-1.121-7.325-1.294-13.818-4.116-19.569-8.834-6.116-5.017-6.732-14.875-1.257-19.228 1-.795 5.013-3.042 6.301-3.036l.547 4.762c.212 1.839.457 3.797.762 5.609.58 3.437 9.299 1.159 11.592.839 8.728-1.217 17.321-3.713 25.177-7.74C-11.603-27.414-5.735-31.431 0-35.409" style="fill:#f2692b;fill-rule:nonzero" transform="translate(83.879 136.018)"/>
      <path d="M0-21.012c-5.241 3.374-9.32 5.687-14.737 8.785-5.569 3.184-11.926 6.077-18.149 7.614-6.16 1.522-13.037 2.703-17.348 2.952-1.018.059-3.845-.045-4.437-.938-.532-.801-.604-2.931-.675-3.866-.079-1.049 0-3.458.063-3.878-1.85 1.023-3.53 2.159-4.813 4.014-1.05 1.519.21 4.232 2.001 5.237 1.406.79 4.208 1.092 5.737 1.069 3.111-.047 6.244-.484 9.317-.936a100.085 100.085 0 0 0 9.48-1.846 86.231 86.231 0 0 0 4.839-1.345c6.221-1.931 11.844-4.77 17.41-8.099 4.472-2.676 7.365-4.9 11.559-7.605L0-21.012Z" style="fill:#b84425;fill-rule:nonzero" transform="translate(83.115 120.793)"/>
      <path d="M0-6.682C-2.701 5.323-16.871 12.697-28.159 7.635c-3.304-1.48-5.896-3.778-7.512-7.026-.243-.483-.449-.97-.618-1.461a62.733 62.733 0 0 0 4.997-2.481c5.383-2.991 10.431-6.694 15.363-10.357 1.667-1.236 6.009-3.677 9.882-4.716 1.171-.239 2.881-.625 4.82-.973C.6-15.366 1.004-11.12 0-6.682" style="fill:#462e3b;fill-rule:nonzero" transform="translate(93.132 115.992)" opacity=".3"/>
      <path d="M0 16.58c-1.638-4.545-.177-9.861 4.012-12.443 1.928-1.189 5.6-1.22 7.165-2.953 1.154-1.276 1.128-4.559.211-5.935-1.036-1.555-3.155-1.537-3.94-3.37-.746-1.74.365-3.371 1.97-4.267 2.521-1.403 3.504-1.428 6.387-1.691 4.738-.436 9.111.645 13.088 3.219 3.461 2.233 5.984 5.298 7.647 9.079 2.195 4.996 2.361 10.074.562 15.201C32.932 25.297 17.66 31.095 6.8 24.617 3.619 22.719 1.26 20.079 0 16.58" style="fill:#fff;fill-rule:nonzero" transform="translate(53.746 95.963)"/>
      <path d="M0-.094a2.262 2.262 0 0 0-.404-.771c-.533-.657-1.402-1.004-1.843-1.726-.217-.356-.324-.793-.643-1.061-.381-.321-.949-.296-1.422-.139-1.152.384-1.973 1.388-2.683 2.373-.22.306-.442.627-.515.997-.124.621.486.925.262 1.524-.044.115-.11.219-.185.319-.17.229-.377.439-.421.716-.086.537.465.936.942 1.197.493.268 1.018.544 1.578.51.525-.031.99-.33 1.469-.548 1.275-.579 2.855-.089 3.678-1.54A2.388 2.388 0 0 0 0-.094" style="fill:#f2692c;fill-rule:nonzero" transform="translate(88.21 97.302)"/>
      <path d="M0-.652c-.01.88-.376 1.71-.722 2.511-.188.425-.385.86-.692 1.216-.306.346-.761.603-1.226.573-.277-.019-.524-.138-.761-.277-.257-.148-.504-.335-.781-.464-.613-.297-1.344-.316-2.026-.406-.564-.069-1.108-.197-1.533-.573-.524-.475-.702-1.265-.573-1.967.118-.702.514-1.335.968-1.879.495-.593 1.019-1.057 1.622-1.354.287-.287.593-.573.939-.771.376-.208.85-.287 1.236-.099.247.129.435.346.632.564 0 0 .01 0 .02.009.425.119.831.317 1.187.584a2.9 2.9 0 0 1 .514.158C-.396-2.481.02-1.532 0-.652" style="fill:#8cc44a;fill-rule:nonzero" transform="translate(86.578 109.424)"/>
      <path d="M3.034-1.772a3.482 3.482 0 1 0-.001 6.965 3.482 3.482 0 0 0 .001-6.965" style="fill:#fff;fill-rule:nonzero" transform="scale(1 -1) rotate(-60.58 -64.801 -105.56)"/>
      <path d="M0-15.686c-.699 3.138-1.367 5.988-1.711 8.725-.351 2.728-.379 5.302.074 7.679l-5.925-3.944c.816-.062 1.879-.435 3.162-1.146 1.284-.7 2.725-1.694 4.446-2.735 1.851-1.106 3.882-2.092 6.33-2.662 1.223-.277 2.563-.438 3.996-.347 1.425.087 2.945.458 4.304 1.142a4.472 4.472 0 0 1-3.415 8.238l-.418-.139c-.473-.157-1.13-.169-2.175.153-1.016.319-2.218.959-3.367 1.776-1.28.892-2.704 2.039-4.474 3.192C-.93 5.382-3.154 6.581-5.879 7.09a5.092 5.092 0 0 1-5.85-3.667l-.074-.276c-1.008-3.753-1.176-7.547-.976-11.072.198-3.532.757-6.863 1.209-9.902l.001-.006A5.887 5.887 0 1 1 0-15.686" style="fill:#462e3b;fill-rule:nonzero" transform="translate(51.568 100.324)"/>
      <path d="m0-14.021-1.092 3.733C-1.538-8.766-2.25-7.32-2.548-5.754c-.344 1.801.339 2.507 1.951 3.251.271.125.563.233.86.209.263-.023.506-.147.754-.237 1.439-.52 3.058.156 4.23 1.138.389.327.756.692 1.211.916.967.477 1.913-.304 2.941-.062.467.11.894.364 1.378.36.967-.007 1.501-.949 1.654-1.747.39-2.033 1.241-5.174 1.698-10.331" style="fill:#f2692c;fill-rule:nonzero" transform="translate(42.435 84.625)"/>
      <path d="M0 27.428a124.781 124.781 0 0 1 2.52-7.192c.897-2.372 1.83-4.727 2.815-7.059.958-2.345 1.998-4.652 3.012-6.971.496-1.165 1.163-2.253 1.963-3.28.391-.519.794-1.03 1.169-1.556.195-.259.367-.528.548-.794.184-.264.36-.532.435-.845a.48.48 0 1 1 .861.387c-.184.265-.268.574-.344.887-.078.311-.166.619-.23.937-.145.628-.26 1.27-.389 1.906-.238 1.281-.61 2.501-1.153 3.644-1.063 2.297-2.1 4.606-3.219 6.878a199.35 199.35 0 0 1-3.416 6.789 125.076 125.076 0 0 1-3.711 6.656.476.476 0 0 1-.861-.387" style="fill:#f2692c;fill-rule:nonzero" transform="translate(90.87 55.685)"/>
      <path d="M0-2.199a.485.485 0 0 1-.066.161c-.189.264-.274.575-.349.887-.076.311-.17.622-.227.934-.066.283-.132.576-.189.859C-.84.633-.849.633-.859.633A3.343 3.343 0 0 1-2.35-.198c.151-.189.293-.387.434-.585.198-.265.368-.529.548-.793.188-.264.358-.538.434-.849a.48.48 0 0 1 .585-.349.47.47 0 0 1 .349.575" style="fill:#b84425;fill-rule:nonzero" transform="translate(104.238 57.84)"/>
      <path d="M0-3.219c.321-.276.659-.534.995-.78.807-.59 1.665-1.11 2.561-1.553.891-.44 1.837-.744 2.7-1.241.267-.155.614.122.46.389-.604 1.048-1.155 2.132-1.568 3.271C4.736-1.997 4.586-.812 4.32.364 3.919 2.136 2.599 3.729.616 3.25-.956 2.87-2.119 1.308-1.851-.317c.2-1.213.957-2.131 1.851-2.902" style="fill:#f2692c;fill-rule:nonzero" transform="translate(103.109 54.888)"/>
      <path d="M0 8.119c-.514.207-1.104-.235-1.261-.767-.157-.531-.009-1.1.145-1.632.375-1.293.788-2.58 1.382-3.788C.62 1.214 1.076.488 1.798.14c.722-.347 1.759-.135 2.05.611" style="fill:#462e3b;fill-rule:nonzero" transform="translate(95.743 69.683)"/>
      <path d="m0 9.837-.296.592c-.237.465-.506.955-.969 1.195-.064-.433-.493-.718-.912-.845-.42-.126-.872-.155-1.261-.358-.55-.287-.899-.887-1.473-1.125-.704-.291-1.506.054-2.14.475-.587.389-1.252.966-1.964 1.1-.684.128-1.149-.263-1.694-.653-.488-.35-1.184-.625-1.656-.255-.188.148-.369.399-.597.33-.193-.058-.244-.304-.26-.505l-.304-3.806c-.109-1.361-.218-2.734-.037-4.087.107-.81.281-1.784.687-2.504.329-.586.682-.644 1.34-.8 1.598-.378 3.253-.181 4.861.019 1.082.136 2.167.271 3.23.515C-1.485-.426.736.582 1.938 2.259c.997 1.391.355 2.321-.207 3.713A56.852 56.852 0 0 1 0 9.837" style="fill:#f2692c;fill-rule:nonzero" transform="translate(52.157 76.104)"/>
      <path d="M0-5.21c-.604 1.048-1.151 2.133-1.567 3.266-.292.801-.443 1.623-.604 2.443-.009.02-.018.029-.028.048-.029-.387-.057-.783-.094-1.171-.01-.188-.048-.405-.227-.471-.198-.066-.397.141-.604.179a.465.465 0 0 1-.453-.264c-.117-.235-.044-.482-.014-.727.027-.22.01-.447-.235-.52a.707.707 0 0 0-.33-.006c-.302.053-.226.308-.531.342.117-.182.35-.836-.074-.754-.281.054-.453.304-.682.451-.28.179-.603.239-.9.059.708-.628 2.303-1.591 3.181-2.025.897-.444 1.841-.746 2.7-1.246.273-.151.622.123.462.396" style="fill:#462e3b;fill-rule:nonzero" transform="translate(109.823 53.697)"/>
      <path d="M0-12.311c-1.546.514-2.79-.266-3.417-1.475-.85-1.65-.225-3.38 2.057-3.983 1.004-.269 2.667-.248 3.29 1.263.638 2.108.046 3.53-1.93 4.195m-27.509 7.143c-1.657.336-3.113-.442-3.441-1.819-.416-1.744.011-3.33 1.952-3.813 1.492-.375 3.238-.054 3.704 1.902.451 1.852-.537 3.038-2.215 3.73m32.093-17.21c-6.867.25-13.396 3.63-13.856 13.132-.128 2.757.396 5.969 1.083 8.852.184.771.384 1.528.582 2.238.799.789 1.019 1.707.31 2.885-1.015 1.688-2.649 1.913-4.159 1.846-1.414-.071-2.882-1.263-2.482-3.124.015-.023.031-.037.054-.062-1.27-4.713-2.356-7.723-4.379-11.364-3.799-6.817-12.72-7.736-18.569-3.334-2.781 2.09-5.147 4.411-6.766 7.591 1.121 1.245 3.462 1.58 5.212 1.842 2.535.375 7.506 2.1 12.561 4.3 3.791 1.657 7.634 3.574 10.533 5.395 4.46 2.391 8.696 1.477 11.034-3.039C-2.114.631 1.017-3.696 4.178-7.486c4.564-5.474 9.203-9.821 11.101-10.894-3.087-2.611-6.8-4.141-10.695-3.998" style="fill:#fff8f0;fill-rule:nonzero" transform="translate(74.317 63.076)"/>
      <path d="M-2.86-3.853C-.866-4.031 0-2.486.127-.947.293 1.048-1.076 1.954-2.86 2.12c-1.415.132-2.617-1-2.828-2.673.116-1.811.924-3.13 2.828-3.3" style="fill:#462d3b;fill-rule:nonzero" transform="scale(-1 1) rotate(-71.31 14.5 57.336)"/>
      <path d="M-.655-.128C1.422.039 2.344 1.277 2.238 3.48 1.994 5.094.385 5.515-.655 5.497-3.007 5.462-4.041 3.936-3.61 2.13-3.294.802-2.273-.258-.655-.128" style="fill:#462d3b;fill-rule:nonzero" transform="scale(1 -1) rotate(13.992 243.159 280.022)"/>
      <path d="M0 18.329c5.848-4.397 14.766-3.479 18.561 3.337 2.03 3.646 3.116 6.655 4.379 11.365 1.355-1.983 4.421-2.376 5.837-1.932.166.126.311.256.445.389h.002c-.94-3.345-1.83-7.585-1.662-11.089.456-9.502 6.986-12.886 13.848-13.138 3.898-.142 7.606 1.387 10.693 4.002.832-.442 1.44-1.072.849-2.014C49.531 3.817 47.091-1.919 41.53-7.319c-.987.23-1.89-.563-2.277-1.617-1.066-1.59-5.662-3.795-8.407-4-.009.05-.024.104-.029.151-.779.207-2.171.088-2.831-1.106.015-.101.041-.199.06-.299-3.461-.512-7.603-.403-12.433.89-4.264 1.143-7.689 2.485-10.469 4.203.004.006.01.011.014.018-.049 1.365-1.237 2.099-2.026 2.266l-.026-.033C.798-5.291-2.025-1.389-2.25.446c.13 1.113-.833 2.346-1.818 2.591-.079.233-.164.455-.241.694-1.586 4.967-2.178 11.327-3.102 19.229-.157 1.345-.129 2.39.638 2.962C-5.147 22.742-2.78 20.42 0 18.329" style="fill:#f2692b;fill-rule:nonzero" transform="translate(37.489 33.434)"/>
      <path d="M4.76-10.376c1.916.285 1.77 2.862 1.895 4.592.158 2.18-.513 4.616-1.895 6.527-.6-1.749-4.171-4.98-6.753-6.023.425-.959 3.923-5.518 6.753-5.096" style="fill:#fff8f0;fill-rule:nonzero" transform="scale(-1 1) rotate(11.97 -173.279 -173.452)"/>
      <path d="M0 3.16c.743-.903 2.017-1.582 3.119-1.807 1.198-.244 2.022-.084 2.518.006l3.007.659c1.93.443 3.555.666 5.171.187.792-.243 1.514-.638 2.071-1.239.553-.597.937-1.38.902-2.133-.031-.761-.473-1.547-1.263-1.862a1.923 1.923 0 0 0-1.326-.059c-.45.145-.902.522-1.052 1.024-.006-.508.353-1.074.894-1.416.542-.343 1.203-.468 1.815-.407 1.258.119 2.294.967 2.742 2.148.463 1.225.212 2.686-.455 3.945-.67 1.284-1.833 2.383-3.072 3.133-2.016 1.22-4.333 1.585-6.638 1.672-2.556.097-5.708-.061-8.329-.851-.721-.218-1.006.43-1.222-.461-.211-.876.532-1.747.996-2.382.039-.053.08-.105.122-.157" style="fill:#462e3b;fill-rule:nonzero" transform="translate(63.912 63.933)"/>
      <use xlink:href="#b" x="67.286" y="67.771" width="5.535" height="4.844" transform="matrix(.92245 0 0 .9688 -.25 0)"/>
      <path d="M0-10.381c-1.153-.312-2.64-.128-3.72.329-1.174.497-1.795 1.11-2.174 1.474L-8.12-6.28c-1.417 1.491-2.695 2.623-4.364 3.171-.822.261-1.67.357-2.492.186-.817-.169-1.592-.592-1.988-1.232-.405-.645-.467-1.552.036-2.273a2.087 2.087 0 0 1 1.114-.822c.471-.143 1.075-.095 1.49.231-.283-.423-.915-.68-1.575-.646-.663.033-1.306.315-1.801.723a3.363 3.363 0 0 0-1.154 3.371c.295 1.28 1.339 2.338 2.629 2.987 1.307.668 2.934.896 4.43.791 2.434-.17 4.644-1.22 6.686-2.493C-2.845-3.697-.37-6.214 1.023-7.748c.539-.594 1.315-.881.997-1.741-.313-.846-1.064-.581-1.825-.834A4.005 4.005 0 0 0 0-10.381" style="fill:#462e3b;fill-rule:nonzero" transform="translate(63.65 77.567)"/>
      <path d="M0-1.154c-.015.022-.033.042-.047.063C-.448.773 1.017 1.963 2.436 2.031c1.508.072 3.14-.156 4.157-1.85.327-.544.537-1.186.402-1.821a2.104 2.104 0 0 0-.346-.774c-.162-.229-.388-.532-.656-.636-.455-.177-1.012-.207-1.496-.2a6.722 6.722 0 0 0-1.533.202c-1.067.267-2.11.802-2.803 1.676A3.4 3.4 0 0 0 0-1.154" style="fill:#462d3b;fill-rule:nonzero" transform="translate(60.429 67.619)"/>
      <path d="M0 11.984c-1.749-1.583-2.911-3.826-3.208-5.992-.236-1.718-.914-4.209.902-4.885 2.681-1 7.049 2.735 7.662 3.585l.026.033c.789-.167 1.977-.902 2.026-2.266-.004-.007-.01-.012-.014-.018-2.481-3.516-5.63-3.54-9.253-4.546-1.769-.491-3.247.88-3.967 2.509-1.817 4.106.692 11.365 3.994 14.176l.014-.005C-.833 14.33.13 13.097 0 11.984" style="fill:#462d3b;fill-rule:nonzero" transform="translate(35.239 21.896)"/>
      <path d="M0-4.362C-.389-5.775-.696-6.7-1.021-7.259c-.291-.317-.61-.555-.956-.682-.236.005-.504.089-.821.243C-5.333-6.465-8.247-2.33-8.593-.421c2.745.206 7.341 2.411 8.407 4C.659 1.38.581-2.254 0-4.362" style="fill:#fff8f0;fill-rule:nonzero" transform="translate(76.928 20.918)"/>
      <path d="M0 6.495c.005-.047.021-.102.029-.151.346-1.91 3.26-6.045 5.795-7.278.317-.154.585-.238.822-.242.376-.007.673.197.955.681.325.559.632 1.485 1.021 2.897.581 2.109.659 5.742-.186 7.942.387 1.054 1.291 1.846 2.277 1.616l.007-.001c1.68-4 1.69-11.775-1.3-15.127-1.185-1.329-1.9-2.527-4.205-1.115C2.077-2.36-2.001.953-2.771 5.09c-.019.1-.045.198-.06.299C-2.171 6.582-.779 6.702 0 6.495" style="fill:#462d3b;fill-rule:nonzero" transform="translate(68.305 14.154)"/>
      <path d="M0-8.321C-7.586-2.777-16.62.614-23.572 7.161c-2.095 1.974-3.643 4.354-5.079 6.676-.171.276-1.338 1.917-1.347 2.18-.152-1.011-1.054-1.732-2.187-2.49-1.133-.758-2.448-1.318-3.461-2.195-1.67-1.444-2.309-3.566-2.53-5.613-.841-7.788 1.29-15.548 8.284-20.294 7.907-5.368 18.447-8.123 28.329-9.425 1.487-.196 3.032-.338 4.467.03 3.801.975 1.701 5.386.89 6.651-.772 1.205-1.461 1.367-1.071 2.623.593 1.909 2.269 2.278.015 4.212A44.492 44.492 0 0 1 0-8.321" style="fill:#8cc44a;fill-rule:nonzero" transform="translate(60.87 33.434)"/>
      <path d="M0-5.07c1.028.526 1.965 1.3 2.484 2.331.519 1.032.558 2.343-.08 3.306-.154.232-.321.595-.078.733.171.098.376-.046.52-.181C3.513.494 4.845-.023 5.512-.648c.656-.614.703-1.481.592-2.373-.128-1.023-1.247-1.574-2.227-1.897a33.34 33.34 0 0 0-3.461-.934c-.921-.196-2.2-.616-3.123-.47.543.703 1.942.86 2.707 1.252" style="fill:#462e3b;fill-rule:nonzero" transform="translate(53.678 24.59)" opacity=".3"/>
      <path d="M0-8.673C-1.472-6.106-2.944-3.53-4.417-.963A9.485 9.485 0 0 1-5.021 0c-.273-.887-1.17-1.501-2.095-2.124-.811-.537-1.708-.981-2.529-1.509.962-.085 1.973.216 2.888-.586.444-.387.755-.896 1.161-1.311.547-.548 1.236-.906 1.915-1.256C-2.454-7.408-1.227-8.041 0-8.673" style="fill:#462e3b;fill-rule:nonzero" transform="translate(35.797 49.082)" opacity=".3"/>
      <path d="M0-11.453c.044-.233.091-.478.019-.704-.073-.225-.311-.417-.538-.35-.24.072-.324.362-.37.609-.697 3.719-1.729 8.609.097 12.155.213.414.584.864 1.041.774C.644.953.844.503.888.102 1-.925.515-1.911.093-2.854-1.038-5.383-.502-8.8 0-11.453" style="fill:#462e3b;fill-rule:nonzero" transform="translate(31.13 35.239)" opacity=".3"/>
      <path d="M0-.532c-.547-.304-1.125-.611-1.473-1.131-.347-.52-.355-1.327.158-1.684.449-.314 1.066-.16 1.569.056 2.325.994 3.442 1.906 3.814 4.465.285 1.955-.919.442-1.852-.322C.93-.201 1.485.293 0-.532" style="fill:#58424e;fill-rule:nonzero" transform="translate(27.606 18.39)"/>
      <path d="M0-21.243c-.93.713-2.106 1.718-3.052 2.398-7.588 5.55-17.794 8.82-24.754 15.369-2.09 1.973-3.638 4.345-5.069 6.673-.171.273-1.343 1.912-1.352 2.177-.517-.112-.641-.507-.87-1.504 1.145-2.134 2.407-3.305 3.813-5.236 3.199-4.388 8.283-8.275 12.892-11.399 2.87-1.944 5.999-3.572 8.893-5.486 1.442-.954 2.829-1.978 4.068-3.13 1.285-1.194 2.101-2.329 3.182-3.737a6.66 6.66 0 0 0 .811-1.499c.361 2.729 3.649 3.678 1.438 5.374" style="fill:#58424e;fill-rule:nonzero" transform="translate(65.098 44.077)"/>
      <path d="M0-6.511c.187.299.252.682.514.918.323.293.813.257 1.247.303.891.094 1.739.656 2.099 1.478.36.822.171 1.874-.505 2.463-.54.47-1.288.609-1.909.965C.885-.061.432.438-.156.712c-.7.325-1.539.289-2.249-.016-.709-.305-1.294-.86-1.716-1.506-.477-.728-.763-1.632-.55-2.475.302-1.2 1.454-2.094 2.19-3.036.564-.723 1.902-1.227 2.481-.19" style="fill:#462e3b;fill-rule:nonzero" transform="translate(72.948 120.017)"/>
    </g>
  </g>
</svg>
