<?xml version="1.0" encoding="UTF-8" standalone="no"?>
<svg viewBox="0 0 267 150" xmlns="http://www.w3.org/2000/svg" xml:space="preserve" style="fill-rule:evenodd;clip-rule:evenodd;stroke-linejoin:round;stroke-miterlimit:10" xmlns:xlink="http://www.w3.org/1999/xlink">
  <defs>
    <path style="fill:none" d="M0 0h266v150H0z" id="reuse-0"/>
    <path d="M0 23.002h-19.024l-6.506 4.61-.078-4.61h-1.374a3.511 3.511 0 0 1-3.511-3.511v-20.59a3.511 3.511 0 0 1 3.511-3.511H0a3.511 3.511 0 0 1 3.511 3.511v20.59A3.511 3.511 0 0 1 0 23.002" style="fill:#fff" id="reuse-1"/>
    <path d="M-1.967-1.967a1.967 1.967 0 1 0 0 3.935 1.967 1.967 0 0 0 0-3.935" style="fill:#fff;fill-rule:nonzero" id="reuse-2"/>
    <path d="m.154-.528.003.066a.191.191 0 0 1 .158-.076c.112 0 .168.063.169.189V0h-.09v-.35C.393-.388.385-.416.367-.434.35-.452.324-.461.288-.461a.13.13 0 0 0-.078.023.155.155 0 0 0-.051.062V0H.068v-.528h.086Z" style="fill:#b5abb1;fill-rule:nonzero" id="reuse-3"/>
    <path d="M.047-.269a.31.31 0 0 1 .057-.196.182.182 0 0 1 .151-.073c.065 0 .115.023.151.068l.005-.058h.082v.515c0 .069-.02.123-.061.162a.225.225 0 0 1-.163.059.279.279 0 0 1-.112-.024.2.2 0 0 1-.083-.067L.121.063a.177.177 0 0 0 .142.071C.307.134.341.122.365.097.39.072.402.038.402-.007v-.046A.184.184 0 0 1 .254.01a.18.18 0 0 1-.15-.075.33.33 0 0 1-.057-.204Zm.091.011a.24.24 0 0 0 .036.14.12.12 0 0 0 .103.051.13.13 0 0 0 .125-.078v-.241a.133.133 0 0 0-.124-.075.12.12 0 0 0-.103.051.256.256 0 0 0-.037.152Z" style="fill:#b5abb1;fill-rule:nonzero" id="reuse-4"/>
    <path style="fill:#b5abb1;fill-rule:nonzero" d="M.076-.75h.09V0h-.09z" id="reuse-5"/>
    <path d="M.167 0H.076v-.528h.091V0ZM.069-.668c0-.015.004-.027.013-.038.009-.01.022-.015.04-.015.018 0 .031.005.04.015a.057.057 0 0 1 .014.038.052.052 0 0 1-.014.036c-.009.01-.022.015-.04.015-.018 0-.031-.005-.04-.015a.052.052 0 0 1-.013-.036Z" style="fill:#b5abb1;fill-rule:nonzero" id="reuse-6"/>
    <path d="M.376-.14a.064.064 0 0 0-.028-.057.255.255 0 0 0-.096-.035.45.45 0 0 1-.109-.035.155.155 0 0 1-.059-.049.115.115 0 0 1-.02-.067c0-.044.019-.08.055-.11A.217.217 0 0 1 .26-.538c.06 0 .108.015.146.046a.148.148 0 0 1 .055.119h-.09a.082.082 0 0 0-.032-.064.117.117 0 0 0-.079-.027c-.033 0-.059.007-.077.022a.066.066 0 0 0-.028.056c0 .022.008.038.026.049a.31.31 0 0 0 .093.032c.045.01.082.022.11.036a.16.16 0 0 1 .062.05c.014.02.02.044.02.073a.135.135 0 0 1-.056.113.235.235 0 0 1-.147.043.268.268 0 0 1-.113-.023.188.188 0 0 1-.076-.062.156.156 0 0 1-.028-.088h.091a.088.088 0 0 0 .036.072.142.142 0 0 0 .09.027.145.145 0 0 0 .082-.021.063.063 0 0 0 .031-.055Z" style="fill:#b5abb1;fill-rule:nonzero" id="reuse-7"/>
    <path d="M.159-.464a.19.19 0 0 1 .156-.074c.112 0 .168.063.169.189V0h-.09v-.35C.393-.388.385-.416.367-.434.35-.452.324-.461.288-.461a.13.13 0 0 0-.078.023.155.155 0 0 0-.051.062V0H.068v-.75h.091v.286Z" style="fill:#b5abb1;fill-rule:nonzero" id="reuse-8"/>
    <path d="M.065-.289c0-.073.01-.144.029-.211.02-.068.05-.13.089-.185a.378.378 0 0 1 .121-.117l.019.059a.384.384 0 0 0-.117.167.715.715 0 0 0-.05.252l-.001.041c0 .126.023.235.069.327a.388.388 0 0 0 .099.13L.304.229A.39.39 0 0 1 .18.108a.676.676 0 0 1-.115-.397Z" style="fill:#b5abb1;fill-rule:nonzero" id="reuse-9"/>
    <path d="M.292-.317a.443.443 0 0 1-.176-.085.164.164 0 0 1-.054-.125c0-.056.022-.102.067-.139a.268.268 0 0 1 .174-.055.29.29 0 0 1 .131.029.212.212 0 0 1 .089.078.198.198 0 0 1 .031.109H.46a.133.133 0 0 0-.041-.102C.392-.632.353-.644.303-.644a.167.167 0 0 0-.108.031.1.1 0 0 0-.039.084c0 .029.013.054.037.074.025.02.067.038.126.055a.587.587 0 0 1 .138.055.2.2 0 0 1 .074.07.172.172 0 0 1 .025.094.167.167 0 0 1-.068.139.292.292 0 0 1-.18.052.35.35 0 0 1-.137-.028.24.24 0 0 1-.098-.077.197.197 0 0 1-.034-.111h.094c0 .043.016.077.048.102a.2.2 0 0 0 .127.037c.05 0 .088-.01.114-.03A.1.1 0 0 0 .461-.18a.095.095 0 0 0-.036-.08.417.417 0 0 0-.133-.057Z" style="fill:#b5abb1;fill-rule:nonzero" id="reuse-10"/>
    <path d="M.277-.284c0 .073-.01.142-.029.209a.61.61 0 0 1-.087.184.365.365 0 0 1-.123.12L.019.174a.387.387 0 0 0 .12-.179.767.767 0 0 0 .047-.269V-.29a.683.683 0 0 0-.081-.348.38.38 0 0 0-.086-.109l.019-.055a.37.37 0 0 1 .122.119.638.638 0 0 1 .088.184.787.787 0 0 1 .029.215Z" style="fill:#b5abb1;fill-rule:nonzero" id="reuse-11"/>
    <path d="M.288.01a.231.231 0 0 1-.175-.071.262.262 0 0 1-.068-.189v-.016c0-.053.01-.099.03-.14a.228.228 0 0 1 .084-.097.214.214 0 0 1 .117-.035c.069 0 .122.023.161.068.038.045.057.11.057.194v.038H.136a.186.186 0 0 0 .045.126c.03.032.067.048.111.048a.163.163 0 0 0 .082-.019.238.238 0 0 0 .058-.052l.055.043A.222.222 0 0 1 .288.01ZM.276-.464a.117.117 0 0 0-.091.04.192.192 0 0 0-.046.111h.264v-.006a.17.17 0 0 0-.037-.107.114.114 0 0 0-.09-.038Z" style="fill:#b5abb1;fill-rule:nonzero" id="reuse-12"/>
    <path d="M.324-.447a.215.215 0 0 0-.045-.004c-.059 0-.099.026-.12.076V0H.068v-.528h.088l.002.061a.14.14 0 0 1 .126-.071c.017 0 .031.002.04.007v.084Z" style="fill:#b5abb1;fill-rule:nonzero" id="reuse-13"/>
    <path d="M.395 0a.157.157 0 0 1-.013-.056.2.2 0 0 1-.151.066.19.19 0 0 1-.128-.044.145.145 0 0 1-.05-.112c0-.055.021-.098.063-.129A.3.3 0 0 1 .292-.32H.38v-.042a.1.1 0 0 0-.028-.075C.333-.456.305-.465.269-.465a.13.13 0 0 0-.081.024c-.022.016-.033.036-.033.059H.064c0-.026.009-.052.028-.076a.197.197 0 0 1 .076-.059.264.264 0 0 1 .106-.021c.061 0 .108.015.143.046.034.03.052.072.054.125v.243c0 .049.006.088.018.116V0H.395Zm-.15-.069a.153.153 0 0 0 .08-.022.126.126 0 0 0 .055-.057v-.108H.31c-.111 0-.166.032-.166.097 0 .028.009.05.028.066a.109.109 0 0 0 .073.024Z" style="fill:#b5abb1;fill-rule:nonzero" id="reuse-14"/>
    <path d="M.28-.064c.033 0 .061-.01.085-.029a.106.106 0 0 0 .04-.074H.49a.159.159 0 0 1-.031.087.205.205 0 0 1-.077.065A.214.214 0 0 1 .28.01a.216.216 0 0 1-.171-.072.285.285 0 0 1-.064-.197v-.015c0-.052.009-.098.028-.138a.212.212 0 0 1 .082-.093.23.23 0 0 1 .125-.033c.059 0 .108.018.147.053.04.036.061.082.063.138H.405a.128.128 0 0 0-.039-.084.12.12 0 0 0-.086-.033.127.127 0 0 0-.107.05.234.234 0 0 0-.038.143v.017a.23.23 0 0 0 .038.141.126.126 0 0 0 .107.049Z" style="fill:#b5abb1;fill-rule:nonzero" id="reuse-15"/>
    <path d="M.191-.656v.128H.29v.07H.191v.328c0 .021.004.037.013.047.009.011.024.016.045.016.01 0 .025-.002.043-.006V0a.245.245 0 0 1-.069.01C.182.01.152-.002.131-.027a.16.16 0 0 1-.03-.104v-.327H.004v-.07h.097v-.128h.09Z" style="fill:#b5abb1;fill-rule:nonzero" id="reuse-16"/>
    <path d="M.395-.052C.359-.011.308.01.24.01a.167.167 0 0 1-.129-.049C.082-.072.067-.12.066-.185v-.343h.091v.341c0 .08.032.12.097.12.069 0 .115-.026.138-.077v-.384h.09V0H.396L.395-.052Z" style="fill:#b5abb1;fill-rule:nonzero" id="reuse-17"/>
    <path d="M.176-.278V0H.083v-.711h.262c.078 0 .138.02.183.06a.2.2 0 0 1 .066.157.202.202 0 0 1-.065.16.276.276 0 0 1-.185.056H.176Zm0-.077h.169c.05 0 .088-.012.115-.035C.487-.414.5-.448.5-.493a.135.135 0 0 0-.04-.102.16.16 0 0 0-.11-.039H.176v.279Z" style="fill:#6a5761;fill-rule:nonzero" id="reuse-18"/>
    <path d="M.044-.269a.32.32 0 0 1 .031-.14.225.225 0 0 1 .209-.129c.072 0 .13.025.175.075a.287.287 0 0 1 .066.198v.007a.31.31 0 0 1-.029.138.227.227 0 0 1-.211.13.223.223 0 0 1-.174-.075.29.29 0 0 1-.067-.198v-.006Zm.091.011a.23.23 0 0 0 .041.141.132.132 0 0 0 .109.053.13.13 0 0 0 .11-.054.247.247 0 0 0 .04-.151.23.23 0 0 0-.041-.141.132.132 0 0 0-.11-.054.133.133 0 0 0-.108.053.25.25 0 0 0-.041.153Z" style="fill:#6a5761;fill-rule:nonzero" id="reuse-19"/>
    <path d="M-3.436-3.436a3.435 3.435 0 1 0 0 6.87 3.435 3.435 0 0 0 0-6.87" style="fill:#b5abb1" id="reuse-20"/>
    <path d="m0-.667.082.255h.269l-.217.157L.216 0 0-.158-.217 0l.083-.255-.217-.157h.268L0-.667Z" style="fill:#fff;fill-rule:nonzero" id="reuse-21"/>
    <path d="m0-.667.083.255h.268l-.217.157L.217 0 0-.158-.216 0l.082-.255-.217-.157h.269L0-.667Z" style="fill:#fff;fill-rule:nonzero" id="reuse-22"/>
    <path d="m0-.667.082.254h.269l-.217.158L.216 0 0-.158-.217 0l.083-.255-.217-.158h.268L0-.667Z" style="fill:#fff;fill-rule:nonzero" id="reuse-23"/>
    <path d="M-8.125-7.354h6.582c.611 0 1.105.495 1.106 1.105V.18l-7.688-7.534Z" style="fill:#96c960" id="reuse-24"/>
  </defs>
  <g transform="translate(.5)">
    <use style="fill:none" xlink:href="#reuse-0"/>
    <clipPath id="a">
      <use xlink:href="#reuse-0"/>
    </clipPath>
    <g clip-path="url(#a)">
      <path d="M0 22.954h-16.968v4.658l-6.491-4.658h-3.523a3.511 3.511 0 0 1-3.511-3.511v-20.59a3.511 3.511 0 0 1 3.511-3.511H0a3.511 3.511 0 0 1 3.511 3.511v20.59A3.511 3.511 0 0 1 0 22.954Z" style="fill:#fff;stroke:#8cc44a;stroke-width:1.23px" transform="translate(216.938 30.983)"/>
      <use style="fill:#fff" transform="translate(246.529 42.413)" xlink:href="#reuse-1"/>
      <use style="fill:#8cc44a" transform="translate(246.529 42.413)" xlink:href="#reuse-1"/>
      <path d="M0-8.876h7.633C6.681-5.931 5.436-3.654 3.928-2.1 2.414-3.63 1.102-5.89.021-8.82L0-8.876ZM14.376 3.917c-3.553-1.275-6.35-2.689-8.319-4.206 1.855-2.061 3.371-4.947 4.507-8.587h3.867v-2.684H5.288c-.423-1.066-1.032-2.25-1.812-3.524l-.119-.195-2.786.889.225.324a17.81 17.81 0 0 1 1.459 2.506h-8.828v2.684h5.932l-2.006.809.102.267c1.19 3.119 2.669 5.645 4.4 7.513-2.002 1.522-4.823 2.873-8.386 4.018l-.356.114 1.486 2.376.212-.062C-1.742 5.15 1.34 3.6 3.975 1.551c2.44 1.887 5.447 3.493 8.94 4.774l.213.078 1.601-2.359-.353-.127Z" style="fill:#462e3b;fill-rule:nonzero" transform="translate(199.529 44.462)"/>
      <path d="M0 5.531h8.226L4.127-4.041 0 5.531Zm11.377 7.336L9.229 7.881H-1.003l-2.15 4.986h-2.982l9-20.203H5.33l8.997 20.203h-2.95Z" style="fill:#fff;fill-rule:nonzero" transform="translate(228.924 48.805)"/>
      <path d="M0-45.431v43.298C0-.957 1.022 0 2.279 0h77.363c1.256 0 2.267-.957 2.267-2.133v-43.298H0Z" style="fill:#b9dc94" transform="translate(43.398 133.808)"/>
      <path d="M0-72.35V.001c0 1.711-1.559 3.1-3.479 3.1h-119.709c-1.91 0-3.469-1.38-3.469-3.091v-72.36c0-1.711 1.559-3.101 3.48-3.101H-3.479c1.92 0 3.479 1.39 3.479 3.101" style="fill:#b9dc94;fill-rule:nonzero" transform="translate(135.901 85.284)"/>
      <path d="M0-3.882v7.271h-126.657v-7.271c0-1.871 1.559-3.389 3.48-3.389H-3.479C-1.559-7.271 0-5.753 0-3.882" style="fill:#f48656;fill-rule:nonzero" transform="translate(135.901 17.104)"/>
      <use style="fill:#fff;fill-rule:nonzero" transform="matrix(0 -1 -1 0 15.825 12.739)" xlink:href="#reuse-2"/>
      <use style="fill:#fff;fill-rule:nonzero" transform="matrix(0 -1 -1 0 22.433 12.739)" xlink:href="#reuse-2"/>
      <use style="fill:#fff;fill-rule:nonzero" transform="matrix(0 -1 -1 0 29.042 12.739)" xlink:href="#reuse-2"/>
      <path d="M0 59.652V2.065C0 .926-1.011 0-2.268 0H-79.63c-1.257 0-2.279.926-2.279 2.065v57.587H0Z" style="fill:#96c960" transform="translate(125.308 28.725)"/>
      <path d="M0-99.227V.001C0 1.14-.978 2.065-2.193 2.065h-74.863c-1.215 0-2.205-.925-2.205-2.064v-99.228c0-1.139.99-2.065 2.205-2.065h74.863c1.215 0 2.193.926 2.193 2.065" style="fill:#f3f9ec" transform="translate(123.983 130.017)"/>
      <path style="fill:#c8c1c5" d="M44.722 42.51h73.348v12.681H44.722z" transform="matrix(-1 0 0 1 162.792 52.299)"/>
      <path d="M0-99.227V.001a2.057 2.057 0 0 1-2.054 2.064h-3.85v-103.357h3.85c1.139 0 2.054.926 2.054 2.065" style="fill:#d0e7b8" transform="translate(123.975 130.017)"/>
      <path d="M0 17.469h-4.425a.74.74 0 0 1-.74-.74V.74a.74.74 0 0 1 .74-.74H0a.74.74 0 0 1 .739.74v15.989a.74.74 0 0 1-.739.74" style="fill:#b9dc94" transform="translate(123.235 51.84)"/>
      <path d="M0 15.683h-3.802a1.052 1.052 0 0 1-1.052-1.051V1.051C-4.854.471-4.383 0-3.802 0H0c.58 0 1.051.471 1.051 1.051v13.581c0 .58-.471 1.051-1.051 1.051" style="fill:#e8f3db" transform="translate(122.924 52.731)"/>
      <path d="M.484-.329H.176v.252h.358V0H.083v-.711h.446v.077H.176v.229h.308v.076Z" style="fill:#b5abb1;fill-rule:nonzero" transform="translate(66.951 52.676) scale(6.2604)"/>
      <use style="fill:#b5abb1;fill-rule:nonzero" transform="translate(70.51 52.676) scale(6.2604)" xlink:href="#reuse-3"/>
      <use style="fill:#b5abb1;fill-rule:nonzero" transform="translate(73.964 52.676) scale(6.2604)" xlink:href="#reuse-4"/>
      <use style="fill:#b5abb1;fill-rule:nonzero" transform="translate(77.476 52.676) scale(6.2604)" xlink:href="#reuse-5"/>
      <use style="fill:#b5abb1;fill-rule:nonzero" transform="translate(78.995 52.676) scale(6.2604)" xlink:href="#reuse-6"/>
      <use style="fill:#b5abb1;fill-rule:nonzero" transform="translate(80.514 52.676) scale(6.2604)" xlink:href="#reuse-7"/>
      <use style="fill:#b5abb1;fill-rule:nonzero" transform="translate(83.742 52.676) scale(6.2604)" xlink:href="#reuse-8"/>
      <use style="fill:#b5abb1;fill-rule:nonzero" transform="translate(88.818 52.676) scale(6.2604)" xlink:href="#reuse-9"/>
      <path d="M.583-.711v.483a.225.225 0 0 1-.063.165.254.254 0 0 1-.17.072L.325.01a.265.265 0 0 1-.186-.063.225.225 0 0 1-.071-.174v-.484h.093v.482c0 .051.014.091.043.119.028.029.068.043.121.043a.167.167 0 0 0 .122-.042.166.166 0 0 0 .042-.12v-.482h.094Z" style="fill:#b5abb1;fill-rule:nonzero" transform="translate(90.958 52.676) scale(6.2604)"/>
      <use style="fill:#b5abb1;fill-rule:nonzero" transform="translate(95.017 52.676) scale(6.2604)" xlink:href="#reuse-10"/>
      <use style="fill:#b5abb1;fill-rule:nonzero" transform="translate(98.731 52.676) scale(6.2604)" xlink:href="#reuse-11"/>
      <path d="M.607-.093a.216.216 0 0 1-.1.077.415.415 0 0 1-.151.026.275.275 0 0 1-.259-.157.398.398 0 0 1-.037-.174v-.062c0-.107.025-.19.075-.249a.26.26 0 0 1 .21-.089c.074 0 .134.019.179.057a.245.245 0 0 1 .083.162H.514C.496-.597.44-.644.346-.644c-.063 0-.111.022-.143.066a.316.316 0 0 0-.049.192v.058c0 .08.018.143.054.19a.176.176 0 0 0 .148.071.323.323 0 0 0 .093-.012.139.139 0 0 0 .065-.039v-.159H.35v-.077h.257v.261Z" style="fill:#b5abb1;fill-rule:nonzero" transform="translate(66.701 78.016) scale(6.2604)"/>
      <use style="fill:#b5abb1;fill-rule:nonzero" transform="translate(70.966 78.016) scale(6.2604)" xlink:href="#reuse-12"/>
      <use style="fill:#b5abb1;fill-rule:nonzero" transform="translate(74.282 78.016) scale(6.2604)" xlink:href="#reuse-13"/>
      <path d="m.153-.528.003.058a.196.196 0 0 1 .157-.068c.073 0 .124.028.15.085a.206.206 0 0 1 .069-.062.208.208 0 0 1 .1-.023c.116 0 .175.061.177.184V0H.718v-.349c0-.037-.008-.066-.026-.084C.675-.452.646-.461.605-.461a.12.12 0 0 0-.083.03.125.125 0 0 0-.039.08V0h-.09v-.346c0-.077-.038-.115-.113-.115-.059 0-.1.025-.122.075V0h-.09v-.528h.085Z" style="fill:#b5abb1;fill-rule:nonzero" transform="translate(76.4 78.016) scale(6.2604)"/>
      <use style="fill:#b5abb1;fill-rule:nonzero" transform="translate(81.888 78.016) scale(6.2604)" xlink:href="#reuse-14"/>
      <use style="fill:#b5abb1;fill-rule:nonzero" transform="translate(85.293 78.016) scale(6.2604)" xlink:href="#reuse-3"/>
      <path d="M.475-.314H.176V0H.083v-.711h.44v.077H.176v.243h.299v.077Z" style="fill:#b5abb1;fill-rule:nonzero" transform="translate(67.02 65.347) scale(6.2604)"/>
      <use style="fill:#b5abb1;fill-rule:nonzero" transform="translate(70.4 65.347) scale(6.2604)" xlink:href="#reuse-13"/>
      <use style="fill:#b5abb1;fill-rule:nonzero" transform="translate(72.461 65.347) scale(6.2604)" xlink:href="#reuse-12"/>
      <use style="fill:#b5abb1;fill-rule:nonzero" transform="translate(75.778 65.347) scale(6.2604)" xlink:href="#reuse-3"/>
      <use style="fill:#b5abb1;fill-rule:nonzero" transform="translate(79.232 65.347) scale(6.2604)" xlink:href="#reuse-15"/>
      <use style="fill:#b5abb1;fill-rule:nonzero" transform="translate(82.509 65.347) scale(6.2604)" xlink:href="#reuse-8"/>
      <path style="fill:#b5abb1;fill-rule:nonzero" d="M.089-.711h.094V0H.089z" transform="translate(67.963 90.687) scale(6.2604)"/>
      <use style="fill:#b5abb1;fill-rule:nonzero" transform="translate(69.666 90.687) scale(6.2604)" xlink:href="#reuse-16"/>
      <use style="fill:#b5abb1;fill-rule:nonzero" transform="translate(71.71 90.687) scale(6.2604)" xlink:href="#reuse-14"/>
      <use style="fill:#b5abb1;fill-rule:nonzero" transform="translate(75.116 90.687) scale(6.2604)" xlink:href="#reuse-5"/>
      <use style="fill:#b5abb1;fill-rule:nonzero" transform="translate(76.635 90.687) scale(6.2604)" xlink:href="#reuse-6"/>
      <use style="fill:#b5abb1;fill-rule:nonzero" transform="translate(78.154 90.687) scale(6.2604)" xlink:href="#reuse-14"/>
      <use style="fill:#b5abb1;fill-rule:nonzero" transform="translate(81.56 90.687) scale(6.2604)" xlink:href="#reuse-3"/>
      <path d="M.083 0v-.711h.2c.062 0 .117.014.164.041a.27.27 0 0 1 .11.117c.026.05.039.108.04.174v.045a.377.377 0 0 1-.039.176.27.27 0 0 1-.111.116A.338.338 0 0 1 .279 0H.083Zm.093-.634v.557h.099a.216.216 0 0 0 .169-.067.28.28 0 0 0 .06-.192v-.042a.282.282 0 0 0-.057-.188.2.2 0 0 0-.161-.068h-.11Z" style="fill:#b5abb1;fill-rule:nonzero" transform="translate(66.951 40.011) scale(6.2604)"/>
      <use style="fill:#b5abb1;fill-rule:nonzero" transform="translate(71.056 40.011) scale(6.2604)" xlink:href="#reuse-17"/>
      <use style="fill:#b5abb1;fill-rule:nonzero" transform="translate(74.508 40.011) scale(6.2604)" xlink:href="#reuse-16"/>
      <use style="fill:#b5abb1;fill-rule:nonzero" transform="translate(76.553 40.011) scale(6.2604)" xlink:href="#reuse-15"/>
      <use style="fill:#b5abb1;fill-rule:nonzero" transform="translate(79.83 40.011) scale(6.2604)" xlink:href="#reuse-8"/>
      <use style="fill:#6a5761;fill-rule:nonzero" transform="translate(66.951 103.361) scale(6.2604)" xlink:href="#reuse-18"/>
      <use style="fill:#6a5761;fill-rule:nonzero" transform="translate(70.86 103.361) scale(6.2604)" xlink:href="#reuse-19"/>
      <use style="fill:#6a5761;fill-rule:nonzero" transform="translate(74.431 103.361) scale(6.2604)" xlink:href="#reuse-13"/>
      <use style="fill:#6a5761;fill-rule:nonzero" transform="translate(76.703 103.361) scale(6.2604)" xlink:href="#reuse-16"/>
      <use style="fill:#6a5761;fill-rule:nonzero" transform="translate(78.748 103.361) scale(6.2604)" xlink:href="#reuse-17"/>
      <use style="fill:#6a5761;fill-rule:nonzero" transform="translate(82.199 103.361) scale(6.2604)" xlink:href="#reuse-4"/>
      <use style="fill:#6a5761;fill-rule:nonzero" transform="translate(85.711 103.361) scale(6.2604)" xlink:href="#reuse-17"/>
      <use style="fill:#6a5761;fill-rule:nonzero" transform="translate(89.162 103.361) scale(6.2604)" xlink:href="#reuse-12"/>
      <use style="fill:#6a5761;fill-rule:nonzero" transform="translate(92.479 103.361) scale(6.2604)" xlink:href="#reuse-7"/>
      <use style="fill:#6a5761;fill-rule:nonzero" transform="translate(95.707 103.361) scale(6.2604)" xlink:href="#reuse-12"/>
      <use style="fill:#6a5761;fill-rule:nonzero" transform="translate(100.573 103.361) scale(6.2604)" xlink:href="#reuse-9"/>
      <path d="M.083 0v-.711h.232c.077 0 .135.016.174.048.039.032.058.079.058.142a.144.144 0 0 1-.028.088.191.191 0 0 1-.077.059.167.167 0 0 1 .091.061c.022.03.033.066.033.108 0 .064-.02.114-.062.15C.463-.018.405 0 .329 0H.083Zm.093-.333v.256h.155a.146.146 0 0 0 .103-.034C.46-.133.472-.164.472-.204c0-.086-.046-.129-.139-.129H.176Zm0-.075h.142c.041 0 .074-.01.098-.031a.1.1 0 0 0 .037-.083c0-.039-.011-.068-.034-.086a.175.175 0 0 0-.104-.026H.176v.226Z" style="fill:#6a5761;fill-rule:nonzero" transform="translate(102.713 103.361) scale(6.2604)"/>
      <path d="M.343-.288H.176V0H.082v-.711h.235c.08 0 .142.018.185.055.043.036.065.089.065.159a.193.193 0 0 1-.036.116.21.21 0 0 1-.1.073l.167.302V0h-.1L.343-.288ZM.176-.364H.32A.161.161 0 0 0 .431-.4a.124.124 0 0 0 .042-.097c0-.044-.013-.078-.04-.102A.166.166 0 0 0 .32-.634H.176v.27Z" style="fill:#6a5761;fill-rule:nonzero" transform="translate(106.611 103.361) scale(6.2604)"/>
      <use style="fill:#6a5761;fill-rule:nonzero" transform="translate(110.465 103.361) scale(6.2604)" xlink:href="#reuse-11"/>
      <use style="fill:#b5abb1;fill-rule:nonzero" transform="translate(66.951 116.032) scale(6.2604)" xlink:href="#reuse-18"/>
      <use style="fill:#b5abb1;fill-rule:nonzero" transform="translate(70.86 116.032) scale(6.2604)" xlink:href="#reuse-19"/>
      <use style="fill:#b5abb1;fill-rule:nonzero" transform="translate(74.431 116.032) scale(6.2604)" xlink:href="#reuse-5"/>
      <use style="fill:#b5abb1;fill-rule:nonzero" transform="translate(75.95 116.032) scale(6.2604)" xlink:href="#reuse-6"/>
      <use style="fill:#b5abb1;fill-rule:nonzero" transform="translate(77.47 116.032) scale(6.2604)" xlink:href="#reuse-7"/>
      <use style="fill:#b5abb1;fill-rule:nonzero" transform="translate(80.698 116.032) scale(6.2604)" xlink:href="#reuse-8"/>
      <use style="fill:#b5abb1;fill-rule:nonzero" transform="translate(66.951 128.672) scale(6.2604)" xlink:href="#reuse-10"/>
      <path d="M.515-.258c0 .08-.019.145-.056.194A.176.176 0 0 1 .31.01a.194.194 0 0 1-.151-.061v.254H.068v-.731h.083l.004.058a.188.188 0 0 1 .154-.068.18.18 0 0 1 .15.072.318.318 0 0 1 .056.199v.009ZM.424-.269A.231.231 0 0 0 .386-.41a.122.122 0 0 0-.104-.051.132.132 0 0 0-.123.072v.253a.133.133 0 0 0 .124.072.123.123 0 0 0 .103-.051C.412-.15.424-.201.424-.269Z" style="fill:#b5abb1;fill-rule:nonzero" transform="translate(70.665 128.672) scale(6.2604)"/>
      <use style="fill:#b5abb1;fill-rule:nonzero" transform="translate(74.178 128.672) scale(6.2604)" xlink:href="#reuse-14"/>
      <use style="fill:#b5abb1;fill-rule:nonzero" transform="translate(77.583 128.672) scale(6.2604)" xlink:href="#reuse-3"/>
      <use style="fill:#b5abb1;fill-rule:nonzero" transform="translate(81.037 128.672) scale(6.2604)" xlink:href="#reuse-6"/>
      <use style="fill:#b5abb1;fill-rule:nonzero" transform="translate(82.556 128.672) scale(6.2604)" xlink:href="#reuse-7"/>
      <use style="fill:#b5abb1;fill-rule:nonzero" transform="translate(85.784 128.672) scale(6.2604)" xlink:href="#reuse-8"/>
      <g>
        <use style="fill:#b5abb1" transform="matrix(0 -1 -1 0 58.19 34.214)" xlink:href="#reuse-20"/>
      </g>
      <g>
        <clipPath id="b">
          <path d="M54.754 37.649a3.435 3.435 0 1 0 6.87.001 3.435 3.435 0 0 0-6.87-.001Z" clip-rule="nonzero"/>
        </clipPath>
        <g clip-path="url(#b)">
          <path style="fill:#6f7cf2" d="M54.754 111.206h6.871v2.29h-6.871z" transform="matrix(-1 0 0 1 116.379 -74.702)"/>
          <path style="fill:#f2692c" d="M54.754 113.496h6.871v2.291h-6.871z" transform="matrix(-1 0 0 1 116.379 -79.283)"/>
          <path style="fill:#fff" d="M54.754 108.915h6.871v2.291h-6.871z" transform="matrix(-1 0 0 1 116.379 -70.121)"/>
        </g>
      </g>
      <g>
        <use style="fill:#b5abb1" transform="matrix(0 -1 -1 0 58.19 46.87)" xlink:href="#reuse-20"/>
      </g>
      <g>
        <use style="fill:#b5abb1" transform="matrix(0 -1 -1 0 58.19 59.527)" xlink:href="#reuse-20"/>
      </g>
      <g>
        <clipPath id="c">
          <path d="M54.754 62.963a3.435 3.435 0 1 0 6.87 0 3.435 3.435 0 0 0-6.87 0Z" clip-rule="nonzero"/>
        </clipPath>
        <g clip-path="url(#c)">
          <path style="fill:#fff" d="M57.044 83.602h2.29v6.872h-2.29z" transform="translate(0 -24.076)"/>
          <path style="fill:#f2692c" d="M59.334 83.602h2.291v6.872h-2.291z" transform="translate(0 -24.076)"/>
          <path style="fill:#6f7cf2" d="M54.754 83.602h2.29v6.872h-2.29z" transform="translate(0 -24.076)"/>
        </g>
      </g>
      <g>
        <use style="fill:#b5abb1" transform="matrix(0 -1 -1 0 58.19 72.183)" xlink:href="#reuse-20"/>
      </g>
      <g>
        <clipPath id="d">
          <path d="M54.754 75.619a3.435 3.435 0 1 0 6.87 0 3.435 3.435 0 0 0-6.87 0Z" clip-rule="nonzero"/>
        </clipPath>
        <g clip-path="url(#d)">
          <path style="fill:#f2692c" d="M54.754 73.236h6.871v2.291h-6.871z" transform="matrix(-1 0 0 1 116.379 1.237)"/>
          <path style="fill:#462e3b" d="M54.754 75.527h6.871v2.291h-6.871z" transform="matrix(-1 0 0 1 116.379 -3.345)"/>
          <path style="fill:#f8db7a" d="M54.754 70.946h6.871v2.291h-6.871z" transform="matrix(-1 0 0 1 116.379 5.817)"/>
        </g>
      </g>
      <g>
        <use style="fill:#b5abb1" transform="matrix(0 -1 -1 0 58.19 84.84)" xlink:href="#reuse-20"/>
      </g>
      <g>
        <clipPath id="e">
          <path d="M54.754 88.275a3.435 3.435 0 1 0 6.87.001 3.435 3.435 0 0 0-6.87-.001Z" clip-rule="nonzero"/>
        </clipPath>
        <g clip-path="url(#e)">
          <path style="fill:#fff" d="M57.044 58.29h2.29v6.871h-2.29z" transform="translate(0 26.549)"/>
          <path style="fill:#f2692c" d="M59.334 58.29h2.291v6.871h-2.291z" transform="translate(0 26.549)"/>
          <path style="fill:#8cc44a" d="M54.754 58.29h2.29v6.871h-2.29z" transform="translate(0 26.549)"/>
        </g>
      </g>
      <g>
        <use style="fill:#b5abb1" transform="matrix(0 -1 -1 0 58.19 97.496)" xlink:href="#reuse-20"/>
      </g>
      <g>
        <clipPath id="f">
          <path d="M54.754 100.931a3.435 3.435 0 1 0 6.87 0 3.435 3.435 0 0 0-6.87 0Z" clip-rule="nonzero"/>
        </clipPath>
        <g clip-path="url(#f)">
          <path style="fill:#8cc44a" d="M57.044 45.633h2.29v6.871h-2.29zM59.334 45.633h2.291v6.871h-2.291zM54.754 45.633h2.29v6.871h-2.29z" transform="translate(0 51.863)"/>
        </g>
      </g>
      <g>
        <use style="fill:#b5abb1" transform="matrix(0 -1 -1 0 58.19 110.152)" xlink:href="#reuse-20"/>
      </g>
      <g>
        <clipPath id="g">
          <path d="M54.754 113.588a3.435 3.435 0 1 0 6.87 0 3.435 3.435 0 0 0-6.87 0Z" clip-rule="nonzero"/>
        </clipPath>
        <g clip-path="url(#g)">
          <path style="fill:#fff" d="M54.754 36.413h6.871v3.436h-6.871z" transform="matrix(-1 0 0 1 116.379 73.738)"/>
          <path style="fill:#f2502c" d="M54.754 32.977h6.871v3.436h-6.871z" transform="matrix(-1 0 0 1 116.379 80.61)"/>
        </g>
      </g>
      <g>
        <clipPath id="h">
          <path d="M54.754 50.306a3.435 3.435 0 1 0 6.87 0 3.435 3.435 0 0 0-6.87 0Z" clip-rule="nonzero"/>
        </clipPath>
        <g clip-path="url(#h)">
          <path style="fill:#f2692c" d="M57.535 102.098h4.756v1.032h-4.756z" transform="translate(0 -55.228)"/>
          <path style="fill:#fff" d="M57.535 101.067h4.756v1.031h-4.756z" transform="translate(0 -53.165)"/>
          <path style="fill:#f2692c" d="M57.535 100.035h4.756v1.032h-4.756z" transform="translate(0 -51.102)"/>
          <path style="fill:#fff" d="M54.515 99.004h7.773v1.031h-7.773z" transform="translate(0 -49.039)"/>
          <path style="fill:#f2692c" d="M54.515 97.972h7.773v1.032h-7.773z" transform="translate(0 -46.976)"/>
          <path style="fill:#fff" d="M54.515 96.941h7.773v1.031h-7.773z" transform="translate(0 -44.913)"/>
          <path style="fill:#f2692c" d="M54.521 95.91h7.773v1.032h-7.773z" transform="translate(0 -42.852)"/>
          <path style="fill:#6f7cf2" d="M53.652 99.487h3.883v4.468h-3.883z" transform="translate(0 -53.442)"/>
          <use style="fill:#fff;fill-rule:nonzero" transform="translate(57.076 47.834)" xlink:href="#reuse-21"/>
          <use style="fill:#fff;fill-rule:nonzero" transform="translate(57.076 48.947)" xlink:href="#reuse-21"/>
          <use style="fill:#fff;fill-rule:nonzero" transform="translate(56.161 48.398)" xlink:href="#reuse-22"/>
          <use style="fill:#fff;fill-rule:nonzero" transform="translate(56.161 49.484)" xlink:href="#reuse-22"/>
          <path d="m0-.667.083.254h.268l-.217.158L.217 0 0-.158-.216 0l.082-.255-.217-.158h.269L0-.667Z" style="fill:#fff;fill-rule:nonzero" transform="translate(56.161 50.57)"/>
          <use style="fill:#fff;fill-rule:nonzero" transform="translate(57.076 50.06)" xlink:href="#reuse-23"/>
          <use style="fill:#fff;fill-rule:nonzero" transform="translate(55.218 48.947)" xlink:href="#reuse-21"/>
          <use style="fill:#fff;fill-rule:nonzero" transform="translate(55.218 50.06)" xlink:href="#reuse-23"/>
        </g>
      </g>
      <g>
        <path d="M-1.097 3.627h3.601L1.095.331-2.488.306l1.391 3.321Z" style="fill:#f8db7a" transform="scale(-1 1) rotate(-33.628 134.658 147.742)"/>
      </g>
      <g>
        <path d="M-1.079-1.079a1.079 1.079 0 1 0 0 2.158 1.079 1.079 0 0 0 0-2.158" style="fill:#6f7cf2" transform="matrix(0 -1 -1 0 58.19 99.875)"/>
      </g>
      <g>
        <use style="fill:#b5abb1" transform="matrix(0 -1 -1 0 58.19 122.809)" xlink:href="#reuse-20"/>
      </g>
      <g>
        <clipPath id="i">
          <path d="M54.754 126.245a3.435 3.435 0 0 0 6.871 0 3.436 3.436 0 1 0-6.871 0Z" clip-rule="nonzero"/>
        </clipPath>
        <g clip-path="url(#i)">
          <path style="fill:#f8db7a" d="M54.754 22.611h6.871v2.291h-6.871z" transform="matrix(-1 0 0 1 116.379 102.487)"/>
          <path style="fill:#f2502c" d="M54.754 24.901h6.871v2.291h-6.871z" transform="matrix(-1 0 0 1 116.379 97.907)"/>
          <path style="fill:#f2502c" d="M54.754 20.32h6.871v2.291h-6.871z" transform="matrix(-1 0 0 1 116.379 107.069)"/>
        </g>
      </g>
      <g>
        <use style="fill:#96c960" transform="scale(-1 1) rotate(45.536 -94.031 -22.58)" xlink:href="#reuse-24"/>
      </g>
      <g>
        <use style="fill:#f3f9ec" transform="scale(-1 1) rotate(45.536 -92.104 -23.388)" xlink:href="#reuse-24"/>
      </g>
      <g transform="matrix(0 -1 -1 0 24.924 46.047)">
        <circle cx="-7.695" cy=".001" r="7.694" style="fill:none;stroke:#fff;stroke-width:1px;stroke-linejoin:miter"/>
      </g>
      <g transform="matrix(0 -1 -1 0 24.924 50.591)">
        <ellipse cx="-3.15" cy=".001" rx="7.694" ry="3.15" style="fill:none;stroke:#fff;stroke-width:1px;stroke-linejoin:miter"/>
      </g>
      <g>
        <path d="M0 0h14.24" style="fill:none;fill-rule:nonzero;stroke:#fff;stroke-width:1px;stroke-linejoin:miter" transform="translate(17.804 50.823)"/>
      </g>
      <g>
        <path d="M-14.24 0H0" style="fill:none;fill-rule:nonzero;stroke:#fff;stroke-width:1px;stroke-linejoin:miter" transform="matrix(-1 0 0 1 17.804 56.66)"/>
      </g>
      <g>
        <path d="M0 29.653c1.07-1.556 1.578-3.681 1.618-6.128.046-2.503-.31-4.964-.98-7.597-.655-2.627-1.565-5.374-2.377-8.311-.809-2.932-1.536-6.097-1.675-9.497l-.007-.163a4.51 4.51 0 0 1 9.013-.369l.004.17c.007 2.322.461 4.848 1.119 7.523.651 2.682 1.507 5.506 2.194 8.581.699 3.055 1.144 6.466.987 9.822-.075 1.709-.301 3.487-.802 5.281-.502 1.791-1.311 3.591-2.446 5.197l-.059.084A4.017 4.017 0 0 1 0 29.653" style="fill:#462e3b;fill-rule:nonzero" transform="translate(150.079 106.315)"/>
      </g>
      <g>
        <path d="M0-2.196-5.38 1.63c-.979.696-2.037 1.421-3.238 1.457-1.348.042-2.552-.787-3.614-1.616-2.251-1.757-4.399-3.696-6.951-4.975-2.552-1.277-5.656-1.821-8.255-.642" style="fill:none;fill-rule:nonzero;stroke:#462e3b;stroke-width:9.02px;stroke-linecap:round;stroke-linejoin:miter" transform="translate(146.679 106.224)"/>
      </g>
      <g>
        <path d="M0 3.342c.811.82 2.747 2.638 3.172 3.77.081.217.17.457.36.559.175.092.383.041.577.005 1.533-.278 2.995.585 4.503.924.451.101.918.156 1.375.067.328-.065.643-.201.964-.3a4.41 4.41 0 0 1 1.518-.194c.21.01.423.035.627-.025.276-.08.5-.303.709-.52 1.933-2.002 3.684-4.198 5.462-6.359 1.589-1.932 3.202-4.107 3.423-6.683" style="fill:#f2692b" transform="translate(144.205 106.009)"/>
      </g>
      <g>
        <path d="M0-26.893c-2.443 3.293-6.006 2.269-9.269 2.397 2.454 1.735 4.488 3.847 5.985 6.479 2.022 3.555.813 7.667-2.827 9.6a23.753 23.753 0 0 0-3.01 1.922c-.963.716-1.931 1.536-1.663 2.94.281 1.483 1.471 2.039 2.754 2.414C-4.112 0-1.005-1.078 1.316-4.445 2.559-6.246 3.779-8.07 4.877-9.962c3.003-5.177 2.621-8.72-1.379-13.259C2.381-24.487 1.169-25.672 0-26.893" style="fill:#462d3b" transform="translate(203.636 143.885)"/>
      </g>
      <g>
        <path d="M0-20.983c-.225-.139.226.138 0 0-2.807-.055-4.691-2.462-7.489-1.02-.558.287-1.244 1.169-2.012 1.048 1.992 2.736 3.763 4.486 5.835 7.215 1.802 2.372 1.446 4.099-.313 6.016-1.501 1.636-3.344 2.79-5.301 3.802-1.5.776-2.667 1.848-2.251 3.758.424 1.954 2.012 2.222 3.66 2.399 2.113.227 3.95-.402 5.484-1.812 2.932-2.692 5.612-5.6 7.841-8.927 1.664-2.481 1.211-4.457-.571-6.731-1.395-1.779-3.625-3.01-4.883-5.748" style="fill:#462d3b" transform="translate(192.378 139.495)"/>
      </g>
      <g>
        <path d="M-.775.865C1.056-.893 6.58-2.564 8.194-2.27 6.289 1.981 3.298 5.238-.775 7.496c-.976.54-1.984.878-3.083.33C-2.034 5.319-1.93 2.902-.775.865" style="fill:#b84425" transform="scale(1 -1) rotate(19.432 439.732 477.453)"/>
      </g>
      <g>
        <path d="M0 8.571c6.534-.062 13.075-.866 19.602.154 8.507.522 14.724 6.138 16.713 6.387 2.353.312 6.826.896 9.269-2.397-.744-2.534-2.462-11.273.29-9.405.748.508.93.849 1.21 1.454 2.339 5.039 4.188 10.387 7.122 15.055 7.567 12.04 18.132 19.035 33.022 17.526 2.735-.276 5.086-1.783 6.966-3.54-1.226-.605-.95-3.077-1.427-4.304-.4-1.03-5.317-14.55-7.551-16.733C77.177 9.877 69.879 6.438 62.718.555c-3.488-2.938-5.732-5.514-8.396-8.461-3.822-4.23-8.075-7.989-12.461-11.585-5.687-4.66-12.703-5.494-19.669-6.034-3.085-.239-6.122-.634-9.169-1.087-2.289-.341-3.879-1.421-4.589-3.671-4.846 2.182-27.944 2.326-31.803 0 .063 5.762-.731 12.512.604 18.203 1.512 6.439 3.744 12.583 8.918 17.153C-9.441 7.916-7.792 7.916 0 8.571" style="fill:#f2692b" transform="translate(158.052 104.277)"/>
      </g>
      <g>
        <path d="M0 3.82c-.897 1.051-2.808 1.372-4.243 1.628-3.628.628-13.294 4.821-18.73 8.436-3.616 2.051-7.102 1.397-9.115-2.256-4.513-8.192-13.846-17.154-16.513-18.577 2.475-2.217 5.333-5.166 8.526-5.141 5.64.065 29.884 4.641 34.832 8.513C-2.999-1.821-1.396 1.243 0 3.82" style="fill:#fff" transform="translate(171.777 69.926)"/>
      </g>
      <g>
        <path d="M2.107-3.959c1.769.32 2.582 1.277 2.332 2.956C4.246.303 3.218.919 2.107.926.594.938-.427-.161-.024-2.034c.178-.83.806-2.028 2.131-1.925" style="fill:#462d3b" transform="scale(-1 1) rotate(61.316 -122.474 -84.482)"/>
      </g>
      <g>
        <path d="M0-21.037c-.293 1.951-.262 3.836 1.549 5.11 1.081.762.524 1.404.153 2.258C-.003-9.734.777-7.363 4.587-5.322c1.115.6 1.548 1.123 1.392 2.216C5.707-1.195 7.401 0 8.979 0c4.114-2.292 8.194-11.25 7.184-15.782-.424-1.905-1.804-2.836-3.567-3.154-3.948-.71-7.216-.568-12.596-2.101" style="fill:#fff8f0" transform="translate(243.267 138.082)"/>
      </g>
      <g>
        <path d="M2.108-3.96c1.768.321 2.581 1.278 2.332 2.957C4.246.304 3.219.919 2.108.927.595.937-.426-.161-.024-2.033c.178-.831.806-2.029 2.132-1.927" style="fill:#462d3b" transform="scale(-1 1) rotate(61.321 -138.277 -99.737)"/>
      </g>
      <g>
        <path d="M0 27.519c.616-.484.617-1.341.46-2.44-.927-6.462-1.546-11.666-2.952-15.705C-5.163 1.701-9.688-1.972-19.194-4.173-31.636-7.054-38.636-.494-39.928.828c-4.747 4.671-6.638 9.62-9.41 14.286-.467.785.045 1.288.737 1.634 2.479-2.21 5.487-3.544 8.686-3.509 5.634.06 11.061 2.697 11.637 10.48.212 2.871-.428 6.369-1.13 9.131 1.79.243 3.913.077 5.048 1.723.998-4.237 1.824-6.819 3.491-10.005 2.967-5.671 10.263-6.613 15.151-3.13 2.325 1.655 4.317 3.509 5.718 6.081" style="fill:#f2692b" transform="translate(171.776 46.227)"/>
      </g>
      <g>
        <path d="M0 10.057c1.398-1.335 3.051-2.623 3.248-4.406.158-1.414.509-4.483-.971-5.063C.778 0-2.309.448-3.519 1.863c-.503.59-1.117 1.378-1.536 2.039 1.982.929 4.81 4.52 5.055 6.155" style="fill:#fff8f0" transform="translate(167.526 42.893)"/>
      </g>
      <g>
        <path d="M2.521-4.616c1.179.076 1.942.581 2 1.889.074 1.619-.935 2.516-2 3.152C1.52 1.024-.02.874-.593-.579c-.017-2 1.932-3.693 3.114-4.037" style="fill:#462d3b" transform="scale(-1 1) rotate(35.09 -201.942 -192.643)"/>
      </g>
      <g>
        <path d="M0 9.945c-.084.919.739 1.918 1.556 2.09C4.206 9.659 6.108 3.654 4.531.323 3.906-.997 2.666-2.09 1.226-1.651c-2.956.905-5.542.99-7.506 3.942.071 1.117 1.059 1.695 1.712 1.815C-4.15 3.443-.586.203 1.66.976c1.503.516 1 2.572.843 3.986C2.305 6.747 1.398 8.61 0 9.945" style="fill:#462d3b" transform="translate(167.526 43.005)"/>
      </g>
      <g>
        <path d="M0 9.649c-.739-1.786-1.729-3.632-1.189-5.342C-.762 2.95.16 0 1.748.068c1.609.069 4.25 1.728 4.785 3.512.221.743.503 1.809.618 2.586C4.963 6.212.885 8.253 0 9.649" style="fill:#fff8f0" transform="translate(133.287 36.486)"/>
      </g>
      <g>
        <path d="M0 11.42c-.296.875-1.272 1.754-2.09 1.581-1.461-3.245-1.385-9.829.995-12.642C-.15-.755.41-1.754 2.331-.644 5.009.901 8.535 3.623 9.136 7.116c-.517.993-1.656 1.122-2.299.969-.216-1.504-2.774-4.987-4.935-5.971C.738 1.586.375 2.098-.321 4.91-.753 6.652-.739 9.634 0 11.42" style="fill:#462d3b" transform="translate(133.287 34.715)"/>
      </g>
    </g>
  </g>
</svg>
