<svg width="266" height="150" viewBox="0 0 266 150" fill="none" xmlns="http://www.w3.org/2000/svg">
<path d="M128.204 57.7041H133.395L125.835 80.4974H119.854L114.212 63.346L108.571 80.6103H102.703L95.1428 57.7041H100.446L105.862 75.0812L111.391 57.7041H117.033L122.788 75.194L128.204 57.7041Z" fill="black"/>
<path d="M155.624 71.019H138.811C138.924 72.1474 139.375 73.2758 140.052 74.2913C140.729 75.0812 141.519 75.7582 142.422 76.2096C143.438 76.6609 144.453 76.8866 145.469 76.8866C146.71 76.8866 147.838 76.6609 148.967 76.2096C150.095 75.7582 151.111 75.194 152.126 74.4041L154.609 77.9021C153.367 79.0305 151.9 79.8204 150.321 80.3846C148.628 80.8359 146.936 81.1744 145.243 81.1744C143.099 81.1744 141.068 80.7231 139.15 79.7075C137.344 78.692 135.99 77.2251 135.087 75.4197C134.072 73.5014 133.621 71.2447 133.621 69.1007C133.621 66.9568 134.072 64.8129 135.087 62.7818C135.99 60.9764 137.457 59.5095 139.15 58.494C140.955 57.4784 142.986 56.9142 145.017 57.0271C148.967 56.9142 152.69 59.171 154.383 62.7818C155.286 64.7001 155.85 66.844 155.737 69.1007C155.624 69.7778 155.624 70.342 155.624 71.019ZM150.659 67.1825C150.546 65.6028 149.756 64.1359 148.741 63.0075C147.725 61.9919 146.371 61.5406 144.904 61.5406C143.438 61.4277 141.858 61.9919 140.842 63.1203C139.714 64.2487 139.037 65.7156 138.924 67.1825H150.659Z" fill="black"/>
<path d="M176.838 58.7196C178.53 59.7352 179.997 61.2021 180.9 63.0075C182.931 66.844 182.931 71.5832 180.9 75.4197C179.997 77.2251 178.53 78.692 176.838 79.7075C175.145 80.7231 173.114 81.2873 171.083 81.1744C169.616 81.1744 168.262 80.9488 167.021 80.3846C165.779 79.8204 164.764 79.0305 163.974 77.9021V80.6103H158.896V48.1128H163.861V60.5251C165.554 58.3811 168.262 57.1399 171.083 57.2527C173.114 57.1399 175.032 57.5913 176.838 58.7196ZM174.13 75.5325C175.145 74.8555 176.048 73.9528 176.499 72.9373C177.063 71.8089 177.289 70.5677 177.289 69.2136C177.289 67.9724 177.063 66.6183 176.499 65.4899C175.935 64.3615 175.145 63.4588 174.13 62.8947C171.873 61.6534 169.165 61.6534 166.908 62.8947C165.892 63.5717 165.102 64.4744 164.538 65.4899C163.974 66.6183 163.636 67.9724 163.748 69.2136C163.748 70.5677 163.974 71.8089 164.538 72.9373C165.102 74.0656 165.892 74.9683 166.908 75.5325C168.036 76.2096 169.277 76.5481 170.519 76.5481C171.873 76.5481 173.114 76.0967 174.13 75.5325Z" fill="black"/>
<path d="M207.191 71.019H190.378C190.491 72.1474 190.942 73.2758 191.619 74.2913C192.184 75.0812 193.086 75.7582 193.989 76.2096C195.005 76.6609 196.02 76.8866 197.036 76.8866C198.277 76.8866 199.405 76.6609 200.534 76.2096C201.662 75.7582 202.678 75.194 203.693 74.4041L206.176 77.9021C204.934 79.0305 203.467 79.8204 201.775 80.3846C200.082 80.8359 198.39 81.1744 196.697 81.1744C194.553 81.1744 192.522 80.7231 190.604 79.7075C188.799 78.692 187.444 77.2251 186.542 75.4197C185.526 73.5014 185.075 71.2447 185.075 69.1007C185.075 66.9568 185.526 64.8129 186.542 62.7818C187.444 60.9764 188.911 59.5095 190.604 58.494C192.409 57.4784 194.44 56.9142 196.472 57.0271C200.534 56.9142 204.145 59.171 205.95 62.7818C206.965 64.7001 207.417 66.844 207.417 69.1007C207.304 69.6649 207.304 70.2291 207.191 71.019ZM202.113 67.1825C202.001 65.6028 201.211 64.1359 200.195 63.0075C199.18 61.9919 197.713 61.4277 196.359 61.5406C194.892 61.4277 193.312 61.9919 192.297 63.1203C191.168 64.2487 190.491 65.7156 190.378 67.1825H202.113Z" fill="black"/>
<path d="M231 80.6102H224.907L219.152 72.7116L213.51 80.6102H207.642L216.218 68.9879L207.642 57.8169H213.736L219.265 65.4899L224.794 57.8169H230.661L222.199 68.9879L231 80.6102Z" fill="black"/>
<path d="M170.97 99.4542H169.955V90.3143H171.196V93.8123C171.421 93.4738 171.76 93.1353 172.211 93.0225C172.55 92.7968 173.001 92.7968 173.453 92.7968C173.904 92.7968 174.355 92.9096 174.694 93.0225C175.032 93.2481 175.371 93.4738 175.709 93.8123C176.161 94.4893 176.499 95.3921 176.386 96.2948C176.386 97.3103 176.048 98.3258 175.371 99.1157C175.145 99.3414 174.807 99.5671 174.355 99.7927C174.017 99.9056 173.565 100.018 173.227 100.018C172.775 100.018 172.324 99.9056 171.986 99.7927C171.647 99.5671 171.309 99.3414 170.97 99.0029V99.4542ZM175.032 96.0691C175.032 95.392 174.807 94.715 174.355 94.1508C174.13 93.9252 174.017 93.8123 173.678 93.6995C173.453 93.5866 173.227 93.5866 173.001 93.5866C172.663 93.5866 172.437 93.6995 172.211 93.6995C171.986 93.8123 171.76 93.9252 171.534 94.1508C171.196 94.6022 170.97 95.2792 171.083 95.8434C171.083 96.5204 171.309 97.1975 171.76 97.7617C171.873 97.9873 172.098 98.1002 172.437 98.213C172.663 98.3258 172.888 98.3258 173.227 98.3258C173.453 98.3258 173.791 98.213 174.017 98.213C174.242 98.1002 174.468 97.8745 174.694 97.6488C175.032 97.3103 175.145 96.6333 175.032 96.0691Z" fill="black"/>
<path d="M182.931 92.7968L180.674 99.5671C180.448 100.244 180.223 100.808 179.771 101.372C179.659 101.598 179.433 101.711 179.207 101.824C178.982 101.937 178.756 101.937 178.53 101.937C178.305 101.937 177.966 101.937 177.74 101.824V100.808C177.966 100.921 178.192 100.921 178.417 100.921C178.53 100.921 178.643 100.921 178.756 100.808C178.869 100.808 178.982 100.695 178.982 100.583C179.207 100.244 179.433 99.7927 179.546 99.4542H179.094L176.725 92.7968H178.079L179.997 98.4387L181.915 92.7968H182.931Z" fill="black"/>
<path d="M199.744 90.3143H197.487V99.5671H199.744V90.3143Z" fill="black"/>
<path d="M218.475 92.9096C217.911 92.5711 217.234 92.4583 216.557 92.4583C215.203 92.3454 214.074 93.361 213.961 94.715V94.8279C213.961 96.1819 214.977 97.1975 216.218 97.3103C216.331 97.3103 216.444 97.3103 216.444 97.3103C217.121 97.3103 217.798 97.1975 218.362 96.859V99.3414C217.685 99.5671 217.008 99.6799 216.218 99.6799C213.623 99.6799 211.479 97.536 211.479 94.9407C211.479 92.3454 213.623 90.2015 216.218 90.2015C216.895 90.2015 217.685 90.3143 218.362 90.54V92.9096H218.475Z" fill="black"/>
<path d="M194.215 92.9096C193.651 92.5711 192.974 92.4583 192.297 92.4583C190.942 92.3454 189.814 93.361 189.701 94.715C189.701 94.8279 189.701 94.8279 189.701 94.9407C189.701 96.2948 190.717 97.3103 191.958 97.4231C192.071 97.4231 192.184 97.4231 192.184 97.4231C192.861 97.4231 193.538 97.3103 194.102 96.9718V99.4542C193.425 99.6799 192.635 99.7927 191.958 99.7927C189.363 99.7927 187.219 97.6488 187.219 95.0535C187.219 92.4583 189.363 90.3143 191.958 90.3143C192.635 90.3143 193.425 90.4272 194.102 90.6528V92.9096H194.215Z" fill="black"/>
<path d="M225.809 92.4583C225.132 92.4583 224.568 92.7968 224.117 93.2481C223.891 93.4738 223.778 93.6995 223.666 94.038C223.553 94.2637 223.44 94.6022 223.553 94.9407C223.553 95.2792 223.553 95.5049 223.666 95.8434C223.778 96.0691 223.891 96.4076 224.117 96.6333C224.343 96.8589 224.568 97.0846 224.907 97.1975C225.245 97.3103 225.471 97.4231 225.809 97.4231C226.148 97.4231 226.486 97.3103 226.712 97.1975C227.051 97.0846 227.276 96.8589 227.502 96.6333C227.728 96.4076 227.841 96.1819 227.953 95.8434C228.066 95.6177 228.179 95.2792 228.066 94.9407C228.066 94.6022 228.066 94.3765 227.953 94.038C227.841 93.8123 227.728 93.4738 227.502 93.2481C227.276 93.0224 227.051 92.7968 226.712 92.6839C226.486 92.5711 226.148 92.4583 225.809 92.4583ZM230.662 94.8279C230.662 97.536 228.518 99.7927 225.922 99.7927C223.327 99.7927 220.957 97.6488 220.957 95.0535C220.957 92.3454 223.101 90.0887 225.697 90.0887C225.697 90.0887 225.697 90.0887 225.809 90.0887C228.405 89.9758 230.662 92.1197 230.662 94.8279Z" fill="black"/>
<path d="M208.545 92.3454C207.981 92.2326 207.304 92.1197 206.74 92.1197C205.837 92.1197 205.273 92.3454 205.273 92.9096C205.273 93.4738 205.95 93.6995 206.288 93.8123L206.965 94.038C208.207 94.2637 209.222 95.392 209.222 96.6333C209.222 98.89 207.191 99.6799 205.386 99.6799C204.596 99.6799 203.693 99.5671 202.903 99.4542V97.3103C203.58 97.536 204.37 97.6488 205.16 97.6488C206.401 97.6488 206.853 97.3103 206.853 96.859C206.853 96.4076 206.401 96.0691 205.837 95.9562L205.386 95.8434C204.032 95.6177 203.129 94.4893 203.016 93.1353C203.016 91.4427 204.257 90.3143 206.401 90.3143C207.191 90.3143 207.868 90.4272 208.658 90.54V92.3454H208.545Z" fill="black"/>
<path d="M46.171 65.7156C46.7352 67.6339 47.525 69.4393 48.4277 71.2447C48.7663 72.0345 49.3305 72.7116 50.0075 73.2758L50.4588 73.5014C51.5872 73.7271 52.1514 72.8244 52.6028 72.0345C53.167 70.6805 53.6183 69.3264 53.9568 67.9724C54.0697 67.7467 54.0697 67.521 54.1825 67.1825C54.2953 66.7311 54.4082 66.167 54.521 65.7156L59.4859 52.5135C60.5014 51.1595 61.8555 50.0311 63.4352 49.2412C64.9021 48.4514 66.5947 48 68.2873 48C70.7697 48 73.1393 48.9027 75.0576 50.3696C78.3299 52.852 80.2481 57.7041 80.2481 57.7041C80.4738 58.3811 80.6995 59.0581 80.6995 59.7352C80.6995 60.4122 80.5866 60.9764 80.361 61.6534C80.0225 62.2176 79.6839 62.7818 79.3454 63.2332C78.8941 63.6845 78.3299 64.023 77.7657 64.2487C77.2015 64.4744 76.5245 64.5872 75.8474 64.5872C75.1704 64.5872 74.4934 64.4744 73.8163 64.1359C73.1393 63.7974 72.5751 63.346 72.1238 62.8946C72.1238 62.8946 72.1238 62.7818 72.0109 62.7818C71.6724 62.3305 71.4467 61.8791 71.2211 61.4277C70.9954 60.8636 70.6569 60.2994 70.3184 59.7352C70.0927 59.5095 69.9799 59.171 69.7542 58.9453C69.6413 58.7196 69.4157 58.3811 69.0771 58.2683C68.6258 57.9298 68.0616 57.8169 67.6102 58.0426L67.4974 57.9298C66.9332 58.3811 66.5947 58.9453 66.369 59.6223C65.692 61.3149 65.1278 63.0075 64.6765 64.8129L64.4508 65.8284L62.4197 72.4859L59.5987 78.8048C58.5832 80.1589 57.2291 81.1744 55.6494 81.9643C54.1825 82.6413 52.4899 83.0927 50.7974 83.0927C43.8014 83.2055 40.5291 76.8866 40.5291 76.8866C36.5797 70.342 35.4514 61.7663 35.1128 58.9453C35 58.6068 35 58.2683 35 57.9298C35 57.0271 35.2257 56.2372 35.677 55.4473C36.1284 54.6575 36.6926 54.0933 37.4824 53.6419C38.2723 53.3034 39.175 53.0777 40.0777 53.0777C41.5446 53.1906 42.8987 53.8676 43.8014 55.1088C44.3656 56.1244 44.7041 57.1399 44.7041 58.2683C44.9298 60.8636 45.494 63.346 46.171 65.7156Z" fill="url(#paint0_linear_2_6)"/>
<path d="M46.171 65.7156C46.7352 67.6339 47.525 69.4393 48.4277 71.2447C48.7663 72.0345 49.3305 72.7116 50.0075 73.2758L50.4588 73.5014C51.5872 73.7271 52.1514 72.8244 52.6028 72.0345C53.167 70.6805 53.6183 69.3264 53.9568 67.9724C54.0697 67.7467 54.0697 67.521 54.1825 67.1825C54.2953 66.7311 54.4082 66.167 54.521 65.7156L59.4859 52.5135C60.5014 51.1595 61.8555 50.0311 63.4352 49.2412C64.9021 48.4514 66.5947 48 68.2873 48C70.7697 48 73.1393 48.9027 75.0576 50.3696C78.3299 52.852 80.2481 57.7041 80.2481 57.7041C80.4738 58.3811 80.6995 59.0581 80.6995 59.7352C80.6995 60.4122 80.5866 60.9764 80.361 61.6534C80.0225 62.2176 79.6839 62.7818 79.3454 63.2332C78.8941 63.6845 78.3299 64.023 77.7657 64.2487C77.2015 64.4744 76.5245 64.5872 75.8474 64.5872C75.1704 64.5872 74.4934 64.4744 73.8163 64.1359C73.1393 63.7974 72.5751 63.346 72.1238 62.8946C72.1238 62.8946 72.1238 62.7818 72.0109 62.7818C71.6724 62.3305 71.4467 61.8791 71.2211 61.4277C70.9954 60.8636 70.6569 60.2994 70.3184 59.7352C70.0927 59.5095 69.9799 59.171 69.7542 58.9453C69.6413 58.7196 69.4157 58.3811 69.0771 58.2683C68.6258 57.9298 68.0616 57.8169 67.6102 58.0426L67.4974 57.9298C66.9332 58.3811 66.5947 58.9453 66.369 59.6223C65.692 61.3149 65.1278 63.0075 64.6765 64.8129L64.4508 65.8284L62.4197 72.4859L59.5987 78.8048C58.5832 80.1589 57.2291 81.1744 55.6494 81.9643C54.1825 82.6413 52.4899 83.0927 50.7974 83.0927C43.8014 83.2055 40.5291 76.8866 40.5291 76.8866C36.5797 70.342 35.4514 61.7663 35.1128 58.9453C35 58.6068 35 58.2683 35 57.9298C35 57.0271 35.2257 56.2372 35.677 55.4473C36.1284 54.6575 36.6926 54.0933 37.4824 53.6419C38.2723 53.3034 39.175 53.0777 40.0777 53.0777C41.5446 53.1906 42.8987 53.8676 43.8014 55.1088C44.3656 56.1244 44.7041 57.1399 44.7041 58.2683C44.9298 60.8636 45.494 63.346 46.171 65.7156Z" fill="url(#paint1_radial_2_6)"/>
<path d="M46.171 65.7156C46.7352 67.6339 47.525 69.4393 48.4277 71.2447C48.7663 72.0345 49.3305 72.7116 50.0075 73.2758L50.4588 73.5014C51.5872 73.7271 52.1514 72.8244 52.6028 72.0345C53.167 70.6805 53.6183 69.3264 53.9568 67.9724C54.0697 67.7467 54.0697 67.521 54.1825 67.1825C54.2953 66.7311 54.4082 66.167 54.521 65.7156L59.4859 52.5135C60.5014 51.1595 61.8555 50.0311 63.4352 49.2412C64.9021 48.4514 66.5947 48 68.2873 48C70.7697 48 73.1393 48.9027 75.0576 50.3696C78.3299 52.852 80.2481 57.7041 80.2481 57.7041C80.4738 58.3811 80.6995 59.0581 80.6995 59.7352C80.6995 60.4122 80.5866 60.9764 80.361 61.6534C80.0225 62.2176 79.6839 62.7818 79.3454 63.2332C78.8941 63.6845 78.3299 64.023 77.7657 64.2487C77.2015 64.4744 76.5245 64.5872 75.8474 64.5872C75.1704 64.5872 74.4934 64.4744 73.8163 64.1359C73.1393 63.7974 72.5751 63.346 72.1238 62.8946C72.1238 62.8946 72.1238 62.7818 72.0109 62.7818C71.6724 62.3305 71.4467 61.8791 71.2211 61.4277C70.9954 60.8636 70.6569 60.2994 70.3184 59.7352C70.0927 59.5095 69.9799 59.171 69.7542 58.9453C69.6413 58.7196 69.4157 58.3811 69.0771 58.2683C68.6258 57.9298 68.0616 57.8169 67.6102 58.0426L67.4974 57.9298C66.9332 58.3811 66.5947 58.9453 66.369 59.6223C65.692 61.3149 65.1278 63.0075 64.6765 64.8129L64.4508 65.8284L62.4197 72.4859L59.5987 78.8048C58.5832 80.1589 57.2291 81.1744 55.6494 81.9643C54.1825 82.6413 52.4899 83.0927 50.7974 83.0927C43.8014 83.2055 40.5291 76.8866 40.5291 76.8866C36.5797 70.342 35.4514 61.7663 35.1128 58.9453C35 58.6068 35 58.2683 35 57.9298C35 57.0271 35.2257 56.2372 35.677 55.4473C36.1284 54.6575 36.6926 54.0933 37.4824 53.6419C38.2723 53.3034 39.175 53.0777 40.0777 53.0777C41.5446 53.1906 42.8987 53.8676 43.8014 55.1088C44.3656 56.1244 44.7041 57.1399 44.7041 58.2683C44.9298 60.8636 45.494 63.346 46.171 65.7156Z" fill="url(#paint2_radial_2_6)"/>
<path d="M46.171 65.7156C46.7352 67.6339 47.525 69.4393 48.4277 71.2447C48.7663 72.0345 49.3305 72.7116 50.0075 73.2758L50.4588 73.5014C51.5872 73.7271 52.1514 72.8244 52.6028 72.0345C53.167 70.6805 53.6183 69.3264 53.9568 67.9724C54.0697 67.7467 54.0697 67.521 54.1825 67.1825C54.2953 66.7311 54.4082 66.167 54.521 65.7156L59.4859 52.5135C60.5014 51.1595 61.8555 50.0311 63.4352 49.2412C64.9021 48.4514 66.5947 48 68.2873 48C70.7697 48 73.1393 48.9027 75.0576 50.3696C78.3299 52.852 80.2481 57.7041 80.2481 57.7041C80.4738 58.3811 80.6995 59.0581 80.6995 59.7352C80.6995 60.4122 80.5866 60.9764 80.361 61.6534C80.0225 62.2176 79.6839 62.7818 79.3454 63.2332C78.8941 63.6845 78.3299 64.023 77.7657 64.2487C77.2015 64.4744 76.5245 64.5872 75.8474 64.5872C75.1704 64.5872 74.4934 64.4744 73.8163 64.1359C73.1393 63.7974 72.5751 63.346 72.1238 62.8946C72.1238 62.8946 72.1238 62.7818 72.0109 62.7818C71.6724 62.3305 71.4467 61.8791 71.2211 61.4277C70.9954 60.8636 70.6569 60.2994 70.3184 59.7352C70.0927 59.5095 69.9799 59.171 69.7542 58.9453C69.6413 58.7196 69.4157 58.3811 69.0771 58.2683C68.6258 57.9298 68.0616 57.8169 67.6102 58.0426L67.4974 57.9298C66.9332 58.3811 66.5947 58.9453 66.369 59.6223C65.692 61.3149 65.1278 63.0075 64.6765 64.8129L64.4508 65.8284L62.4197 72.4859L59.5987 78.8048C58.5832 80.1589 57.2291 81.1744 55.6494 81.9643C54.1825 82.6413 52.4899 83.0927 50.7974 83.0927C43.8014 83.2055 40.5291 76.8866 40.5291 76.8866C36.5797 70.342 35.4514 61.7663 35.1128 58.9453C35 58.6068 35 58.2683 35 57.9298C35 57.0271 35.2257 56.2372 35.677 55.4473C36.1284 54.6575 36.6926 54.0933 37.4824 53.6419C38.2723 53.3034 39.175 53.0777 40.0777 53.0777C41.5446 53.1906 42.8987 53.8676 43.8014 55.1088C44.3656 56.1244 44.7041 57.1399 44.7041 58.2683C44.9298 60.8636 45.494 63.346 46.171 65.7156Z" fill="url(#paint3_radial_2_6)"/>
<path d="M46.171 65.7156C46.7352 67.6339 47.525 69.4393 48.4277 71.2447C48.7663 72.0345 49.3305 72.7116 50.0075 73.2758L50.4588 73.5014C51.5872 73.7271 52.1514 72.8244 52.6028 72.0345C53.167 70.6805 53.6183 69.3264 53.9568 67.9724C54.0697 67.7467 54.0697 67.521 54.1825 67.1825C54.2953 66.7311 54.4082 66.167 54.521 65.7156L59.4859 52.5135C60.5014 51.1595 61.8555 50.0311 63.4352 49.2412C64.9021 48.4514 66.5947 48 68.2873 48C70.7697 48 73.1393 48.9027 75.0576 50.3696C78.3299 52.852 80.2481 57.7041 80.2481 57.7041C80.4738 58.3811 80.6995 59.0581 80.6995 59.7352C80.6995 60.4122 80.5866 60.9764 80.361 61.6534C80.0225 62.2176 79.6839 62.7818 79.3454 63.2332C78.8941 63.6845 78.3299 64.023 77.7657 64.2487C77.2015 64.4744 76.5245 64.5872 75.8474 64.5872C75.1704 64.5872 74.4934 64.4744 73.8163 64.1359C73.1393 63.7974 72.5751 63.346 72.1238 62.8946C72.1238 62.8946 72.1238 62.7818 72.0109 62.7818C71.6724 62.3305 71.4467 61.8791 71.2211 61.4277C70.9954 60.8636 70.6569 60.2994 70.3184 59.7352C70.0927 59.5095 69.9799 59.171 69.7542 58.9453C69.6413 58.7196 69.4157 58.3811 69.0771 58.2683C68.6258 57.9298 68.0616 57.8169 67.6102 58.0426L67.4974 57.9298C66.9332 58.3811 66.5947 58.9453 66.369 59.6223C65.692 61.3149 65.1278 63.0075 64.6765 64.8129L64.4508 65.8284L62.4197 72.4859L59.5987 78.8048C58.5832 80.1589 57.2291 81.1744 55.6494 81.9643C54.1825 82.6413 52.4899 83.0927 50.7974 83.0927C43.8014 83.2055 40.5291 76.8866 40.5291 76.8866C36.5797 70.342 35.4514 61.7663 35.1128 58.9453C35 58.6068 35 58.2683 35 57.9298C35 57.0271 35.2257 56.2372 35.677 55.4473C36.1284 54.6575 36.6926 54.0933 37.4824 53.6419C38.2723 53.3034 39.175 53.0777 40.0777 53.0777C41.5446 53.1906 42.8987 53.8676 43.8014 55.1088C44.3656 56.1244 44.7041 57.1399 44.7041 58.2683C44.9298 60.8636 45.494 63.346 46.171 65.7156Z" fill="url(#paint4_radial_2_6)"/>
<path d="M46.171 65.7156C46.7352 67.6339 47.525 69.4393 48.4277 71.2447C48.7663 72.0345 49.3305 72.7116 50.0075 73.2758L50.4588 73.5014C51.5872 73.7271 52.1514 72.8244 52.6028 72.0345C53.167 70.6805 53.6183 69.3264 53.9568 67.9724C54.0697 67.7467 54.0697 67.521 54.1825 67.1825C54.2953 66.7311 54.4082 66.167 54.521 65.7156L59.4859 52.5135C60.5014 51.1595 61.8555 50.0311 63.4352 49.2412C64.9021 48.4514 66.5947 48 68.2873 48C70.7697 48 73.1393 48.9027 75.0576 50.3696C78.3299 52.852 80.2481 57.7041 80.2481 57.7041C80.4738 58.3811 80.6995 59.0581 80.6995 59.7352C80.6995 60.4122 80.5866 60.9764 80.361 61.6534C80.0225 62.2176 79.6839 62.7818 79.3454 63.2332C78.8941 63.6845 78.3299 64.023 77.7657 64.2487C77.2015 64.4744 76.5245 64.5872 75.8474 64.5872C75.1704 64.5872 74.4934 64.4744 73.8163 64.1359C73.1393 63.7974 72.5751 63.346 72.1238 62.8946C72.1238 62.8946 72.1238 62.7818 72.0109 62.7818C71.6724 62.3305 71.4467 61.8791 71.2211 61.4277C70.9954 60.8636 70.6569 60.2994 70.3184 59.7352C70.0927 59.5095 69.9799 59.171 69.7542 58.9453C69.6413 58.7196 69.4157 58.3811 69.0771 58.2683C68.6258 57.9298 68.0616 57.8169 67.6102 58.0426L67.4974 57.9298C66.9332 58.3811 66.5947 58.9453 66.369 59.6223C65.692 61.3149 65.1278 63.0075 64.6765 64.8129L64.4508 65.8284L62.4197 72.4859L59.5987 78.8048C58.5832 80.1589 57.2291 81.1744 55.6494 81.9643C54.1825 82.6413 52.4899 83.0927 50.7974 83.0927C43.8014 83.2055 40.5291 76.8866 40.5291 76.8866C36.5797 70.342 35.4514 61.7663 35.1128 58.9453C35 58.6068 35 58.2683 35 57.9298C35 57.0271 35.2257 56.2372 35.677 55.4473C36.1284 54.6575 36.6926 54.0933 37.4824 53.6419C38.2723 53.3034 39.175 53.0777 40.0777 53.0777C41.5446 53.1906 42.8987 53.8676 43.8014 55.1088C44.3656 56.1244 44.7041 57.1399 44.7041 58.2683C44.9298 60.8636 45.494 63.346 46.171 65.7156Z" fill="url(#paint5_radial_2_6)"/>
<path d="M46.171 65.7156C46.7352 67.6339 47.525 69.4393 48.4277 71.2447C48.7663 72.0345 49.3305 72.7116 50.0075 73.2758L50.4588 73.5014C51.5872 73.7271 52.1514 72.8244 52.6028 72.0345C53.167 70.6805 53.6183 69.3264 53.9568 67.9724C54.0697 67.7467 54.0697 67.521 54.1825 67.1825C54.2953 66.7311 54.4082 66.167 54.521 65.7156L59.4859 52.5135C60.5014 51.1595 61.8555 50.0311 63.4352 49.2412C64.9021 48.4514 66.5947 48 68.2873 48C70.7697 48 73.1393 48.9027 75.0576 50.3696C78.3299 52.852 80.2481 57.7041 80.2481 57.7041C80.4738 58.3811 80.6995 59.0581 80.6995 59.7352C80.6995 60.4122 80.5866 60.9764 80.361 61.6534C80.0225 62.2176 79.6839 62.7818 79.3454 63.2332C78.8941 63.6845 78.3299 64.023 77.7657 64.2487C77.2015 64.4744 76.5245 64.5872 75.8474 64.5872C75.1704 64.5872 74.4934 64.4744 73.8163 64.1359C73.1393 63.7974 72.5751 63.346 72.1238 62.8946C72.1238 62.8946 72.1238 62.7818 72.0109 62.7818C71.6724 62.3305 71.4467 61.8791 71.2211 61.4277C70.9954 60.8636 70.6569 60.2994 70.3184 59.7352C70.0927 59.5095 69.9799 59.171 69.7542 58.9453C69.6413 58.7196 69.4157 58.3811 69.0771 58.2683C68.6258 57.9298 68.0616 57.8169 67.6102 58.0426L67.4974 57.9298C66.9332 58.3811 66.5947 58.9453 66.369 59.6223C65.692 61.3149 65.1278 63.0075 64.6765 64.8129L64.4508 65.8284L62.4197 72.4859L59.5987 78.8048C58.5832 80.1589 57.2291 81.1744 55.6494 81.9643C54.1825 82.6413 52.4899 83.0927 50.7974 83.0927C43.8014 83.2055 40.5291 76.8866 40.5291 76.8866C36.5797 70.342 35.4514 61.7663 35.1128 58.9453C35 58.6068 35 58.2683 35 57.9298C35 57.0271 35.2257 56.2372 35.677 55.4473C36.1284 54.6575 36.6926 54.0933 37.4824 53.6419C38.2723 53.3034 39.175 53.0777 40.0777 53.0777C41.5446 53.1906 42.8987 53.8676 43.8014 55.1088C44.3656 56.1244 44.7041 57.1399 44.7041 58.2683C44.9298 60.8636 45.494 63.346 46.171 65.7156Z" fill="url(#paint6_radial_2_6)"/>
<path d="M46.171 65.7156C46.7352 67.6339 47.525 69.4393 48.4277 71.2447C48.7663 72.0345 49.3305 72.7116 50.0075 73.2758L50.4588 73.5014C51.5872 73.7271 52.1514 72.8244 52.6028 72.0345C53.167 70.6805 53.6183 69.3264 53.9568 67.9724C54.0697 67.7467 54.0697 67.521 54.1825 67.1825C54.2953 66.7311 54.4082 66.167 54.521 65.7156L59.4859 52.5135C60.5014 51.1595 61.8555 50.0311 63.4352 49.2412C64.9021 48.4514 66.5947 48 68.2873 48C70.7697 48 73.1393 48.9027 75.0576 50.3696C78.3299 52.852 80.2481 57.7041 80.2481 57.7041C80.4738 58.3811 80.6995 59.0581 80.6995 59.7352C80.6995 60.4122 80.5866 60.9764 80.361 61.6534C80.0225 62.2176 79.6839 62.7818 79.3454 63.2332C78.8941 63.6845 78.3299 64.023 77.7657 64.2487C77.2015 64.4744 76.5245 64.5872 75.8474 64.5872C75.1704 64.5872 74.4934 64.4744 73.8163 64.1359C73.1393 63.7974 72.5751 63.346 72.1238 62.8946C72.1238 62.8946 72.1238 62.7818 72.0109 62.7818C71.6724 62.3305 71.4467 61.8791 71.2211 61.4277C70.9954 60.8636 70.6569 60.2994 70.3184 59.7352C70.0927 59.5095 69.9799 59.171 69.7542 58.9453C69.6413 58.7196 69.4157 58.3811 69.0771 58.2683C68.6258 57.9298 68.0616 57.8169 67.6102 58.0426L67.4974 57.9298C66.9332 58.3811 66.5947 58.9453 66.369 59.6223C65.692 61.3149 65.1278 63.0075 64.6765 64.8129L64.4508 65.8284L62.4197 72.4859L59.5987 78.8048C58.5832 80.1589 57.2291 81.1744 55.6494 81.9643C54.1825 82.6413 52.4899 83.0927 50.7974 83.0927C43.8014 83.2055 40.5291 76.8866 40.5291 76.8866C36.5797 70.342 35.4514 61.7663 35.1128 58.9453C35 58.6068 35 58.2683 35 57.9298C35 57.0271 35.2257 56.2372 35.677 55.4473C36.1284 54.6575 36.6926 54.0933 37.4824 53.6419C38.2723 53.3034 39.175 53.0777 40.0777 53.0777C41.5446 53.1906 42.8987 53.8676 43.8014 55.1088C44.3656 56.1244 44.7041 57.1399 44.7041 58.2683C44.9298 60.8636 45.494 63.346 46.171 65.7156Z" fill="url(#paint7_radial_2_6)"/>
<path d="M46.171 65.7156C46.7352 67.6339 47.525 69.4393 48.4277 71.2447C48.7663 72.0345 49.3305 72.7116 50.0075 73.2758L50.4588 73.5014C51.5872 73.7271 52.1514 72.8244 52.6028 72.0345C53.167 70.6805 53.6183 69.3264 53.9568 67.9724C54.0697 67.7467 54.0697 67.521 54.1825 67.1825C54.2953 66.7311 54.4082 66.167 54.521 65.7156L59.4859 52.5135C60.5014 51.1595 61.8555 50.0311 63.4352 49.2412C64.9021 48.4514 66.5947 48 68.2873 48C70.7697 48 73.1393 48.9027 75.0576 50.3696C78.3299 52.852 80.2481 57.7041 80.2481 57.7041C80.4738 58.3811 80.6995 59.0581 80.6995 59.7352C80.6995 60.4122 80.5866 60.9764 80.361 61.6534C80.0225 62.2176 79.6839 62.7818 79.3454 63.2332C78.8941 63.6845 78.3299 64.023 77.7657 64.2487C77.2015 64.4744 76.5245 64.5872 75.8474 64.5872C75.1704 64.5872 74.4934 64.4744 73.8163 64.1359C73.1393 63.7974 72.5751 63.346 72.1238 62.8946C72.1238 62.8946 72.1238 62.7818 72.0109 62.7818C71.6724 62.3305 71.4467 61.8791 71.2211 61.4277C70.9954 60.8636 70.6569 60.2994 70.3184 59.7352C70.0927 59.5095 69.9799 59.171 69.7542 58.9453C69.6413 58.7196 69.4157 58.3811 69.0771 58.2683C68.6258 57.9298 68.0616 57.8169 67.6102 58.0426L67.4974 57.9298C66.9332 58.3811 66.5947 58.9453 66.369 59.6223C65.692 61.3149 65.1278 63.0075 64.6765 64.8129L64.4508 65.8284L62.4197 72.4859L59.5987 78.8048C58.5832 80.1589 57.2291 81.1744 55.6494 81.9643C54.1825 82.6413 52.4899 83.0927 50.7974 83.0927C43.8014 83.2055 40.5291 76.8866 40.5291 76.8866C36.5797 70.342 35.4514 61.7663 35.1128 58.9453C35 58.6068 35 58.2683 35 57.9298C35 57.0271 35.2257 56.2372 35.677 55.4473C36.1284 54.6575 36.6926 54.0933 37.4824 53.6419C38.2723 53.3034 39.175 53.0777 40.0777 53.0777C41.5446 53.1906 42.8987 53.8676 43.8014 55.1088C44.3656 56.1244 44.7041 57.1399 44.7041 58.2683C44.9298 60.8636 45.494 63.346 46.171 65.7156Z" fill="url(#paint8_radial_2_6)"/>
<path d="M46.171 65.7156C46.7352 67.6339 47.525 69.4393 48.4277 71.2447C48.7663 72.0345 49.3305 72.7116 50.0075 73.2758L50.4588 73.5014C51.5872 73.7271 52.1514 72.8244 52.6028 72.0345C53.167 70.6805 53.6183 69.3264 53.9568 67.9724C54.0697 67.7467 54.0697 67.521 54.1825 67.1825C54.2953 66.7311 54.4082 66.167 54.521 65.7156L59.4859 52.5135C60.5014 51.1595 61.8555 50.0311 63.4352 49.2412C64.9021 48.4514 66.5947 48 68.2873 48C70.7697 48 73.1393 48.9027 75.0576 50.3696C78.3299 52.852 80.2481 57.7041 80.2481 57.7041C80.4738 58.3811 80.6995 59.0581 80.6995 59.7352C80.6995 60.4122 80.5866 60.9764 80.361 61.6534C80.0225 62.2176 79.6839 62.7818 79.3454 63.2332C78.8941 63.6845 78.3299 64.023 77.7657 64.2487C77.2015 64.4744 76.5245 64.5872 75.8474 64.5872C75.1704 64.5872 74.4934 64.4744 73.8163 64.1359C73.1393 63.7974 72.5751 63.346 72.1238 62.8946C72.1238 62.8946 72.1238 62.7818 72.0109 62.7818C71.6724 62.3305 71.4467 61.8791 71.2211 61.4277C70.9954 60.8636 70.6569 60.2994 70.3184 59.7352C70.0927 59.5095 69.9799 59.171 69.7542 58.9453C69.6413 58.7196 69.4157 58.3811 69.0771 58.2683C68.6258 57.9298 68.0616 57.8169 67.6102 58.0426L67.4974 57.9298C66.9332 58.3811 66.5947 58.9453 66.369 59.6223C65.692 61.3149 65.1278 63.0075 64.6765 64.8129L64.4508 65.8284L62.4197 72.4859L59.5987 78.8048C58.5832 80.1589 57.2291 81.1744 55.6494 81.9643C54.1825 82.6413 52.4899 83.0927 50.7974 83.0927C43.8014 83.2055 40.5291 76.8866 40.5291 76.8866C36.5797 70.342 35.4514 61.7663 35.1128 58.9453C35 58.6068 35 58.2683 35 57.9298C35 57.0271 35.2257 56.2372 35.677 55.4473C36.1284 54.6575 36.6926 54.0933 37.4824 53.6419C38.2723 53.3034 39.175 53.0777 40.0777 53.0777C41.5446 53.1906 42.8987 53.8676 43.8014 55.1088C44.3656 56.1244 44.7041 57.1399 44.7041 58.2683C44.9298 60.8636 45.494 63.346 46.171 65.7156Z" fill="url(#paint9_radial_2_6)"/>
<path d="M46.171 65.7156C46.7352 67.6339 47.525 69.4393 48.4277 71.2447C48.7663 72.0345 49.3305 72.7116 50.0075 73.2758L50.4588 73.5014C51.5872 73.7271 52.1514 72.8244 52.6028 72.0345C53.167 70.6805 53.6183 69.3264 53.9568 67.9724C54.0697 67.7467 54.0697 67.521 54.1825 67.1825C54.2953 66.7311 54.4082 66.167 54.521 65.7156L59.4859 52.5135C60.5014 51.1595 61.8555 50.0311 63.4352 49.2412C64.9021 48.4514 66.5947 48 68.2873 48C70.7697 48 73.1393 48.9027 75.0576 50.3696C78.3299 52.852 80.2481 57.7041 80.2481 57.7041C80.4738 58.3811 80.6995 59.0581 80.6995 59.7352C80.6995 60.4122 80.5866 60.9764 80.361 61.6534C80.0225 62.2176 79.6839 62.7818 79.3454 63.2332C78.8941 63.6845 78.3299 64.023 77.7657 64.2487C77.2015 64.4744 76.5245 64.5872 75.8474 64.5872C75.1704 64.5872 74.4934 64.4744 73.8163 64.1359C73.1393 63.7974 72.5751 63.346 72.1238 62.8946C72.1238 62.8946 72.1238 62.7818 72.0109 62.7818C71.6724 62.3305 71.4467 61.8791 71.2211 61.4277C70.9954 60.8636 70.6569 60.2994 70.3184 59.7352C70.0927 59.5095 69.9799 59.171 69.7542 58.9453C69.6413 58.7196 69.4157 58.3811 69.0771 58.2683C68.6258 57.9298 68.0616 57.8169 67.6102 58.0426L67.4974 57.9298C66.9332 58.3811 66.5947 58.9453 66.369 59.6223C65.692 61.3149 65.1278 63.0075 64.6765 64.8129L64.4508 65.8284L62.4197 72.4859L59.5987 78.8048C58.5832 80.1589 57.2291 81.1744 55.6494 81.9643C54.1825 82.6413 52.4899 83.0927 50.7974 83.0927C43.8014 83.2055 40.5291 76.8866 40.5291 76.8866C36.5797 70.342 35.4514 61.7663 35.1128 58.9453C35 58.6068 35 58.2683 35 57.9298C35 57.0271 35.2257 56.2372 35.677 55.4473C36.1284 54.6575 36.6926 54.0933 37.4824 53.6419C38.2723 53.3034 39.175 53.0777 40.0777 53.0777C41.5446 53.1906 42.8987 53.8676 43.8014 55.1088C44.3656 56.1244 44.7041 57.1399 44.7041 58.2683C44.9298 60.8636 45.494 63.346 46.171 65.7156Z" fill="url(#paint10_radial_2_6)"/>
<path d="M46.171 65.7156C46.7352 67.6339 47.525 69.4393 48.4277 71.2447C48.7663 72.0345 49.3305 72.7116 50.0075 73.2758L50.4588 73.5014C51.5872 73.7271 52.1514 72.8244 52.6028 72.0345C53.167 70.6805 53.6183 69.3264 53.9568 67.9724C54.0697 67.7467 54.0697 67.521 54.1825 67.1825C54.2953 66.7311 54.4082 66.167 54.521 65.7156L59.4859 52.5135C60.5014 51.1595 61.8555 50.0311 63.4352 49.2412C64.9021 48.4514 66.5947 48 68.2873 48C70.7697 48 73.1393 48.9027 75.0576 50.3696C78.3299 52.852 80.2481 57.7041 80.2481 57.7041C80.4738 58.3811 80.6995 59.0581 80.6995 59.7352C80.6995 60.4122 80.5866 60.9764 80.361 61.6534C80.0225 62.2176 79.6839 62.7818 79.3454 63.2332C78.8941 63.6845 78.3299 64.023 77.7657 64.2487C77.2015 64.4744 76.5245 64.5872 75.8474 64.5872C75.1704 64.5872 74.4934 64.4744 73.8163 64.1359C73.1393 63.7974 72.5751 63.346 72.1238 62.8946C72.1238 62.8946 72.1238 62.7818 72.0109 62.7818C71.6724 62.3305 71.4467 61.8791 71.2211 61.4277C70.9954 60.8636 70.6569 60.2994 70.3184 59.7352C70.0927 59.5095 69.9799 59.171 69.7542 58.9453C69.6413 58.7196 69.4157 58.3811 69.0771 58.2683C68.6258 57.9298 68.0616 57.8169 67.6102 58.0426L67.4974 57.9298C66.9332 58.3811 66.5947 58.9453 66.369 59.6223C65.692 61.3149 65.1278 63.0075 64.6765 64.8129L64.4508 65.8284L62.4197 72.4859L59.5987 78.8048C58.5832 80.1589 57.2291 81.1744 55.6494 81.9643C54.1825 82.6413 52.4899 83.0927 50.7974 83.0927C43.8014 83.2055 40.5291 76.8866 40.5291 76.8866C36.5797 70.342 35.4514 61.7663 35.1128 58.9453C35 58.6068 35 58.2683 35 57.9298C35 57.0271 35.2257 56.2372 35.677 55.4473C36.1284 54.6575 36.6926 54.0933 37.4824 53.6419C38.2723 53.3034 39.175 53.0777 40.0777 53.0777C41.5446 53.1906 42.8987 53.8676 43.8014 55.1088C44.3656 56.1244 44.7041 57.1399 44.7041 58.2683C44.9298 60.8636 45.494 63.346 46.171 65.7156Z" fill="url(#paint11_radial_2_6)"/>
<path d="M46.171 65.7156C46.7352 67.6339 47.525 69.4393 48.4277 71.2447C48.7663 72.0345 49.3305 72.7116 50.0075 73.2758L50.4588 73.5014C51.5872 73.7271 52.1514 72.8244 52.6028 72.0345C53.167 70.6805 53.6183 69.3264 53.9568 67.9724C54.0697 67.7467 54.0697 67.521 54.1825 67.1825C54.2953 66.7311 54.4082 66.167 54.521 65.7156L59.4859 52.5135C60.5014 51.1595 61.8555 50.0311 63.4352 49.2412C64.9021 48.4514 66.5947 48 68.2873 48C70.7697 48 73.1393 48.9027 75.0576 50.3696C78.3299 52.852 80.2481 57.7041 80.2481 57.7041C80.4738 58.3811 80.6995 59.0581 80.6995 59.7352C80.6995 60.4122 80.5866 60.9764 80.361 61.6534C80.0225 62.2176 79.6839 62.7818 79.3454 63.2332C78.8941 63.6845 78.3299 64.023 77.7657 64.2487C77.2015 64.4744 76.5245 64.5872 75.8474 64.5872C75.1704 64.5872 74.4934 64.4744 73.8163 64.1359C73.1393 63.7974 72.5751 63.346 72.1238 62.8946C72.1238 62.8946 72.1238 62.7818 72.0109 62.7818C71.6724 62.3305 71.4467 61.8791 71.2211 61.4277C70.9954 60.8636 70.6569 60.2994 70.3184 59.7352C70.0927 59.5095 69.9799 59.171 69.7542 58.9453C69.6413 58.7196 69.4157 58.3811 69.0771 58.2683C68.6258 57.9298 68.0616 57.8169 67.6102 58.0426L67.4974 57.9298C66.9332 58.3811 66.5947 58.9453 66.369 59.6223C65.692 61.3149 65.1278 63.0075 64.6765 64.8129L64.4508 65.8284L62.4197 72.4859L59.5987 78.8048C58.5832 80.1589 57.2291 81.1744 55.6494 81.9643C54.1825 82.6413 52.4899 83.0927 50.7974 83.0927C43.8014 83.2055 40.5291 76.8866 40.5291 76.8866C36.5797 70.342 35.4514 61.7663 35.1128 58.9453C35 58.6068 35 58.2683 35 57.9298C35 57.0271 35.2257 56.2372 35.677 55.4473C36.1284 54.6575 36.6926 54.0933 37.4824 53.6419C38.2723 53.3034 39.175 53.0777 40.0777 53.0777C41.5446 53.1906 42.8987 53.8676 43.8014 55.1088C44.3656 56.1244 44.7041 57.1399 44.7041 58.2683C44.9298 60.8636 45.494 63.346 46.171 65.7156Z" fill="url(#paint12_radial_2_6)"/>
<path d="M46.171 65.7156C46.7352 67.6339 47.525 69.4393 48.4277 71.2447C48.7663 72.0345 49.3305 72.7116 50.0075 73.2758L50.4588 73.5014C51.5872 73.7271 52.1514 72.8244 52.6028 72.0345C53.167 70.6805 53.6183 69.3264 53.9568 67.9724C54.0697 67.7467 54.0697 67.521 54.1825 67.1825C54.2953 66.7311 54.4082 66.167 54.521 65.7156L59.4859 52.5135C60.5014 51.1595 61.8555 50.0311 63.4352 49.2412C64.9021 48.4514 66.5947 48 68.2873 48C70.7697 48 73.1393 48.9027 75.0576 50.3696C78.3299 52.852 80.2481 57.7041 80.2481 57.7041C80.4738 58.3811 80.6995 59.0581 80.6995 59.7352C80.6995 60.4122 80.5866 60.9764 80.361 61.6534C80.0225 62.2176 79.6839 62.7818 79.3454 63.2332C78.8941 63.6845 78.3299 64.023 77.7657 64.2487C77.2015 64.4744 76.5245 64.5872 75.8474 64.5872C75.1704 64.5872 74.4934 64.4744 73.8163 64.1359C73.1393 63.7974 72.5751 63.346 72.1238 62.8946C72.1238 62.8946 72.1238 62.7818 72.0109 62.7818C71.6724 62.3305 71.4467 61.8791 71.2211 61.4277C70.9954 60.8636 70.6569 60.2994 70.3184 59.7352C70.0927 59.5095 69.9799 59.171 69.7542 58.9453C69.6413 58.7196 69.4157 58.3811 69.0771 58.2683C68.6258 57.9298 68.0616 57.8169 67.6102 58.0426L67.4974 57.9298C66.9332 58.3811 66.5947 58.9453 66.369 59.6223C65.692 61.3149 65.1278 63.0075 64.6765 64.8129L64.4508 65.8284L62.4197 72.4859L59.5987 78.8048C58.5832 80.1589 57.2291 81.1744 55.6494 81.9643C54.1825 82.6413 52.4899 83.0927 50.7974 83.0927C43.8014 83.2055 40.5291 76.8866 40.5291 76.8866C36.5797 70.342 35.4514 61.7663 35.1128 58.9453C35 58.6068 35 58.2683 35 57.9298C35 57.0271 35.2257 56.2372 35.677 55.4473C36.1284 54.6575 36.6926 54.0933 37.4824 53.6419C38.2723 53.3034 39.175 53.0777 40.0777 53.0777C41.5446 53.1906 42.8987 53.8676 43.8014 55.1088C44.3656 56.1244 44.7041 57.1399 44.7041 58.2683C44.9298 60.8636 45.494 63.346 46.171 65.7156Z" fill="url(#paint13_radial_2_6)"/>
<path d="M46.171 65.7156C46.7352 67.6339 47.525 69.4393 48.4277 71.2447C48.7663 72.0345 49.3305 72.7116 50.0075 73.2758L50.4588 73.5014C51.5872 73.7271 52.1514 72.8244 52.6028 72.0345C53.167 70.6805 53.6183 69.3264 53.9568 67.9724C54.0697 67.7467 54.0697 67.521 54.1825 67.1825C54.2953 66.7311 54.4082 66.167 54.521 65.7156L59.4859 52.5135C60.5014 51.1595 61.8555 50.0311 63.4352 49.2412C64.9021 48.4514 66.5947 48 68.2873 48C70.7697 48 73.1393 48.9027 75.0576 50.3696C78.3299 52.852 80.2481 57.7041 80.2481 57.7041C80.4738 58.3811 80.6995 59.0581 80.6995 59.7352C80.6995 60.4122 80.5866 60.9764 80.361 61.6534C80.0225 62.2176 79.6839 62.7818 79.3454 63.2332C78.8941 63.6845 78.3299 64.023 77.7657 64.2487C77.2015 64.4744 76.5245 64.5872 75.8474 64.5872C75.1704 64.5872 74.4934 64.4744 73.8163 64.1359C73.1393 63.7974 72.5751 63.346 72.1238 62.8946C72.1238 62.8946 72.1238 62.7818 72.0109 62.7818C71.6724 62.3305 71.4467 61.8791 71.2211 61.4277C70.9954 60.8636 70.6569 60.2994 70.3184 59.7352C70.0927 59.5095 69.9799 59.171 69.7542 58.9453C69.6413 58.7196 69.4157 58.3811 69.0771 58.2683C68.6258 57.9298 68.0616 57.8169 67.6102 58.0426L67.4974 57.9298C66.9332 58.3811 66.5947 58.9453 66.369 59.6223C65.692 61.3149 65.1278 63.0075 64.6765 64.8129L64.4508 65.8284L62.4197 72.4859L59.5987 78.8048C58.5832 80.1589 57.2291 81.1744 55.6494 81.9643C54.1825 82.6413 52.4899 83.0927 50.7974 83.0927C43.8014 83.2055 40.5291 76.8866 40.5291 76.8866C36.5797 70.342 35.4514 61.7663 35.1128 58.9453C35 58.6068 35 58.2683 35 57.9298C35 57.0271 35.2257 56.2372 35.677 55.4473C36.1284 54.6575 36.6926 54.0933 37.4824 53.6419C38.2723 53.3034 39.175 53.0777 40.0777 53.0777C41.5446 53.1906 42.8987 53.8676 43.8014 55.1088C44.3656 56.1244 44.7041 57.1399 44.7041 58.2683C44.9298 60.8636 45.494 63.346 46.171 65.7156Z" fill="url(#paint14_radial_2_6)"/>
<path d="M46.171 65.7156C46.7352 67.6339 47.525 69.4393 48.4277 71.2447C48.7663 72.0345 49.3305 72.7116 50.0075 73.2758L50.4588 73.5014C51.5872 73.7271 52.1514 72.8244 52.6028 72.0345C53.167 70.6805 53.6183 69.3264 53.9568 67.9724C54.0697 67.7467 54.0697 67.521 54.1825 67.1825C54.2953 66.7311 54.4082 66.167 54.521 65.7156L59.4859 52.5135C60.5014 51.1595 61.8555 50.0311 63.4352 49.2412C64.9021 48.4514 66.5947 48 68.2873 48C70.7697 48 73.1393 48.9027 75.0576 50.3696C78.3299 52.852 80.2481 57.7041 80.2481 57.7041C80.4738 58.3811 80.6995 59.0581 80.6995 59.7352C80.6995 60.4122 80.5866 60.9764 80.361 61.6534C80.0225 62.2176 79.6839 62.7818 79.3454 63.2332C78.8941 63.6845 78.3299 64.023 77.7657 64.2487C77.2015 64.4744 76.5245 64.5872 75.8474 64.5872C75.1704 64.5872 74.4934 64.4744 73.8163 64.1359C73.1393 63.7974 72.5751 63.346 72.1238 62.8946C72.1238 62.8946 72.1238 62.7818 72.0109 62.7818C71.6724 62.3305 71.4467 61.8791 71.2211 61.4277C70.9954 60.8636 70.6569 60.2994 70.3184 59.7352C70.0927 59.5095 69.9799 59.171 69.7542 58.9453C69.6413 58.7196 69.4157 58.3811 69.0771 58.2683C68.6258 57.9298 68.0616 57.8169 67.6102 58.0426L67.4974 57.9298C66.9332 58.3811 66.5947 58.9453 66.369 59.6223C65.692 61.3149 65.1278 63.0075 64.6765 64.8129L64.4508 65.8284L62.4197 72.4859L59.5987 78.8048C58.5832 80.1589 57.2291 81.1744 55.6494 81.9643C54.1825 82.6413 52.4899 83.0927 50.7974 83.0927C43.8014 83.2055 40.5291 76.8866 40.5291 76.8866C36.5797 70.342 35.4514 61.7663 35.1128 58.9453C35 58.6068 35 58.2683 35 57.9298C35 57.0271 35.2257 56.2372 35.677 55.4473C36.1284 54.6575 36.6926 54.0933 37.4824 53.6419C38.2723 53.3034 39.175 53.0777 40.0777 53.0777C41.5446 53.1906 42.8987 53.8676 43.8014 55.1088C44.3656 56.1244 44.7041 57.1399 44.7041 58.2683C44.9298 60.8636 45.494 63.346 46.171 65.7156Z" fill="url(#paint15_radial_2_6)"/>
<path d="M46.171 65.7156C46.7352 67.6339 47.525 69.4393 48.4277 71.2447C48.7663 72.0345 49.3305 72.7116 50.0075 73.2758L50.4588 73.5014C51.5872 73.7271 52.1514 72.8244 52.6028 72.0345C53.167 70.6805 53.6183 69.3264 53.9568 67.9724C54.0697 67.7467 54.0697 67.521 54.1825 67.1825C54.2953 66.7311 54.4082 66.167 54.521 65.7156L59.4859 52.5135C60.5014 51.1595 61.8555 50.0311 63.4352 49.2412C64.9021 48.4514 66.5947 48 68.2873 48C70.7697 48 73.1393 48.9027 75.0576 50.3696C78.3299 52.852 80.2481 57.7041 80.2481 57.7041C80.4738 58.3811 80.6995 59.0581 80.6995 59.7352C80.6995 60.4122 80.5866 60.9764 80.361 61.6534C80.0225 62.2176 79.6839 62.7818 79.3454 63.2332C78.8941 63.6845 78.3299 64.023 77.7657 64.2487C77.2015 64.4744 76.5245 64.5872 75.8474 64.5872C75.1704 64.5872 74.4934 64.4744 73.8163 64.1359C73.1393 63.7974 72.5751 63.346 72.1238 62.8946C72.1238 62.8946 72.1238 62.7818 72.0109 62.7818C71.6724 62.3305 71.4467 61.8791 71.2211 61.4277C70.9954 60.8636 70.6569 60.2994 70.3184 59.7352C70.0927 59.5095 69.9799 59.171 69.7542 58.9453C69.6413 58.7196 69.4157 58.3811 69.0771 58.2683C68.6258 57.9298 68.0616 57.8169 67.6102 58.0426L67.4974 57.9298C66.9332 58.3811 66.5947 58.9453 66.369 59.6223C65.692 61.3149 65.1278 63.0075 64.6765 64.8129L64.4508 65.8284L62.4197 72.4859L59.5987 78.8048C58.5832 80.1589 57.2291 81.1744 55.6494 81.9643C54.1825 82.6413 52.4899 83.0927 50.7974 83.0927C43.8014 83.2055 40.5291 76.8866 40.5291 76.8866C36.5797 70.342 35.4514 61.7663 35.1128 58.9453C35 58.6068 35 58.2683 35 57.9298C35 57.0271 35.2257 56.2372 35.677 55.4473C36.1284 54.6575 36.6926 54.0933 37.4824 53.6419C38.2723 53.3034 39.175 53.0777 40.0777 53.0777C41.5446 53.1906 42.8987 53.8676 43.8014 55.1088C44.3656 56.1244 44.7041 57.1399 44.7041 58.2683C44.9298 60.8636 45.494 63.346 46.171 65.7156Z" fill="url(#paint16_linear_2_6)"/>
<path d="M46.171 65.7156C46.7352 67.6339 47.525 69.4393 48.4277 71.2447C48.7663 72.0345 49.3305 72.7116 50.0075 73.2758L50.4588 73.5014C51.5872 73.7271 52.1514 72.8244 52.6028 72.0345C53.167 70.6805 53.6183 69.3264 53.9568 67.9724C54.0697 67.7467 54.0697 67.521 54.1825 67.1825C54.2953 66.7311 54.4082 66.167 54.521 65.7156L59.4859 52.5135C60.5014 51.1595 61.8555 50.0311 63.4352 49.2412C64.9021 48.4514 66.5947 48 68.2873 48C70.7697 48 73.1393 48.9027 75.0576 50.3696C78.3299 52.852 80.2481 57.7041 80.2481 57.7041C80.4738 58.3811 80.6995 59.0581 80.6995 59.7352C80.6995 60.4122 80.5866 60.9764 80.361 61.6534C80.0225 62.2176 79.6839 62.7818 79.3454 63.2332C78.8941 63.6845 78.3299 64.023 77.7657 64.2487C77.2015 64.4744 76.5245 64.5872 75.8474 64.5872C75.1704 64.5872 74.4934 64.4744 73.8163 64.1359C73.1393 63.7974 72.5751 63.346 72.1238 62.8946C72.1238 62.8946 72.1238 62.7818 72.0109 62.7818C71.6724 62.3305 71.4467 61.8791 71.2211 61.4277C70.9954 60.8636 70.6569 60.2994 70.3184 59.7352C70.0927 59.5095 69.9799 59.171 69.7542 58.9453C69.6413 58.7196 69.4157 58.3811 69.0771 58.2683C68.6258 57.9298 68.0616 57.8169 67.6102 58.0426L67.4974 57.9298C66.9332 58.3811 66.5947 58.9453 66.369 59.6223C65.692 61.3149 65.1278 63.0075 64.6765 64.8129L64.4508 65.8284L62.4197 72.4859L59.5987 78.8048C58.5832 80.1589 57.2291 81.1744 55.6494 81.9643C54.1825 82.6413 52.4899 83.0927 50.7974 83.0927C43.8014 83.2055 40.5291 76.8866 40.5291 76.8866C36.5797 70.342 35.4514 61.7663 35.1128 58.9453C35 58.6068 35 58.2683 35 57.9298C35 57.0271 35.2257 56.2372 35.677 55.4473C36.1284 54.6575 36.6926 54.0933 37.4824 53.6419C38.2723 53.3034 39.175 53.0777 40.0777 53.0777C41.5446 53.1906 42.8987 53.8676 43.8014 55.1088C44.3656 56.1244 44.7041 57.1399 44.7041 58.2683C44.9298 60.8636 45.494 63.346 46.171 65.7156Z" fill="url(#paint17_linear_2_6)"/>
<path d="M46.171 65.7156C46.7352 67.6339 47.525 69.4393 48.4277 71.2447C48.7663 72.0345 49.3305 72.7116 50.0075 73.2758L50.4588 73.5014C51.5872 73.7271 52.1514 72.8244 52.6028 72.0345C53.167 70.6805 53.6183 69.3264 53.9568 67.9724C54.0697 67.7467 54.0697 67.521 54.1825 67.1825C54.2953 66.7311 54.4082 66.167 54.521 65.7156L59.4859 52.5135C60.5014 51.1595 61.8555 50.0311 63.4352 49.2412C64.9021 48.4514 66.5947 48 68.2873 48C70.7697 48 73.1393 48.9027 75.0576 50.3696C78.3299 52.852 80.2481 57.7041 80.2481 57.7041C80.4738 58.3811 80.6995 59.0581 80.6995 59.7352C80.6995 60.4122 80.5866 60.9764 80.361 61.6534C80.0225 62.2176 79.6839 62.7818 79.3454 63.2332C78.8941 63.6845 78.3299 64.023 77.7657 64.2487C77.2015 64.4744 76.5245 64.5872 75.8474 64.5872C75.1704 64.5872 74.4934 64.4744 73.8163 64.1359C73.1393 63.7974 72.5751 63.346 72.1238 62.8946C72.1238 62.8946 72.1238 62.7818 72.0109 62.7818C71.6724 62.3305 71.4467 61.8791 71.2211 61.4277C70.9954 60.8636 70.6569 60.2994 70.3184 59.7352C70.0927 59.5095 69.9799 59.171 69.7542 58.9453C69.6413 58.7196 69.4157 58.3811 69.0771 58.2683C68.6258 57.9298 68.0616 57.8169 67.6102 58.0426L67.4974 57.9298C66.9332 58.3811 66.5947 58.9453 66.369 59.6223C65.692 61.3149 65.1278 63.0075 64.6765 64.8129L64.4508 65.8284L62.4197 72.4859L59.5987 78.8048C58.5832 80.1589 57.2291 81.1744 55.6494 81.9643C54.1825 82.6413 52.4899 83.0927 50.7974 83.0927C43.8014 83.2055 40.5291 76.8866 40.5291 76.8866C36.5797 70.342 35.4514 61.7663 35.1128 58.9453C35 58.6068 35 58.2683 35 57.9298C35 57.0271 35.2257 56.2372 35.677 55.4473C36.1284 54.6575 36.6926 54.0933 37.4824 53.6419C38.2723 53.3034 39.175 53.0777 40.0777 53.0777C41.5446 53.1906 42.8987 53.8676 43.8014 55.1088C44.3656 56.1244 44.7041 57.1399 44.7041 58.2683C44.9298 60.8636 45.494 63.346 46.171 65.7156Z" fill="url(#paint18_linear_2_6)"/>
<path d="M46.171 65.7156C46.7352 67.6339 47.525 69.4393 48.4277 71.2447C48.7663 72.0345 49.3305 72.7116 50.0075 73.2758L50.4588 73.5014C51.5872 73.7271 52.1514 72.8244 52.6028 72.0345C53.167 70.6805 53.6183 69.3264 53.9568 67.9724C54.0697 67.7467 54.0697 67.521 54.1825 67.1825C54.2953 66.7311 54.4082 66.167 54.521 65.7156L59.4859 52.5135C60.5014 51.1595 61.8555 50.0311 63.4352 49.2412C64.9021 48.4514 66.5947 48 68.2873 48C70.7697 48 73.1393 48.9027 75.0576 50.3696C78.3299 52.852 80.2481 57.7041 80.2481 57.7041C80.4738 58.3811 80.6995 59.0581 80.6995 59.7352C80.6995 60.4122 80.5866 60.9764 80.361 61.6534C80.0225 62.2176 79.6839 62.7818 79.3454 63.2332C78.8941 63.6845 78.3299 64.023 77.7657 64.2487C77.2015 64.4744 76.5245 64.5872 75.8474 64.5872C75.1704 64.5872 74.4934 64.4744 73.8163 64.1359C73.1393 63.7974 72.5751 63.346 72.1238 62.8946C72.1238 62.8946 72.1238 62.7818 72.0109 62.7818C71.6724 62.3305 71.4467 61.8791 71.2211 61.4277C70.9954 60.8636 70.6569 60.2994 70.3184 59.7352C70.0927 59.5095 69.9799 59.171 69.7542 58.9453C69.6413 58.7196 69.4157 58.3811 69.0771 58.2683C68.6258 57.9298 68.0616 57.8169 67.6102 58.0426L67.4974 57.9298C66.9332 58.3811 66.5947 58.9453 66.369 59.6223C65.692 61.3149 65.1278 63.0075 64.6765 64.8129L64.4508 65.8284L62.4197 72.4859L59.5987 78.8048C58.5832 80.1589 57.2291 81.1744 55.6494 81.9643C54.1825 82.6413 52.4899 83.0927 50.7974 83.0927C43.8014 83.2055 40.5291 76.8866 40.5291 76.8866C36.5797 70.342 35.4514 61.7663 35.1128 58.9453C35 58.6068 35 58.2683 35 57.9298C35 57.0271 35.2257 56.2372 35.677 55.4473C36.1284 54.6575 36.6926 54.0933 37.4824 53.6419C38.2723 53.3034 39.175 53.0777 40.0777 53.0777C41.5446 53.1906 42.8987 53.8676 43.8014 55.1088C44.3656 56.1244 44.7041 57.1399 44.7041 58.2683C44.9298 60.8636 45.494 63.346 46.171 65.7156Z" fill="url(#paint19_linear_2_6)"/>
<path d="M56.3264 60.7507L59.4859 52.4007C60.5014 51.0466 61.8555 49.9182 63.4352 49.1284C65.015 48.4514 66.7075 48 68.4001 48C70.8826 48 73.2522 48.9027 75.1704 50.3696C78.4427 52.852 80.361 57.7041 80.361 57.7041C80.5867 58.3811 80.8123 59.0581 80.8123 59.7352C80.8123 60.4122 80.6995 60.9764 80.4738 61.6534C80.1353 62.2176 79.7968 62.7818 79.4583 63.2332C79.0069 63.6845 78.4427 64.023 77.8785 64.2487C77.3143 64.4744 76.6373 64.5872 75.9603 64.5872C75.2833 64.5872 74.6062 64.4744 73.9292 64.1359C73.2522 63.7974 72.688 63.346 72.2366 62.8946C72.2366 62.8946 72.2366 62.7818 72.1238 62.7818C71.7853 62.3305 71.5596 61.8791 71.3339 61.4277C71.1082 60.8636 70.7697 60.2994 70.4312 59.7352C70.2055 59.5095 70.0927 59.171 69.867 58.9453C69.7542 58.7196 69.5285 58.3811 69.19 58.2683C68.7386 57.9298 68.1744 57.8169 67.7231 58.0426L67.4974 57.9298C66.9332 58.3811 66.5947 58.9453 66.369 59.6223C65.692 61.3149 65.1278 63.0075 64.6765 64.8129L64.4508 65.8284L62.4197 72.4859L56.3264 60.7507Z" fill="url(#paint20_linear_2_6)"/>
<path d="M79.1197 53.3034C78.7812 53.3034 78.3299 53.4162 77.9914 53.4162C78.8941 54.7703 79.6839 56.1244 80.2481 57.5913C80.4738 58.2683 80.6995 58.9453 80.6995 59.6223C80.6995 60.2994 80.5866 60.8636 80.361 61.5406C80.0225 62.1048 79.6839 62.669 79.3454 63.1203C78.8941 63.5717 78.3299 64.023 77.7657 64.1359C77.2015 64.3615 76.5245 64.4744 75.8474 64.4744C74.9447 64.4744 74.1549 64.2487 73.365 63.7974L72.9136 65.7156C72.5751 67.1825 72.0109 68.5366 71.3339 69.8906C70.9954 70.6805 70.544 71.4704 70.0927 72.2602C69.7542 72.7116 69.3028 73.1629 68.7386 73.3886C68.513 73.3886 68.2873 73.5014 68.1744 73.5014C67.9488 73.5014 67.7231 73.3886 67.4974 73.2758C67.1589 72.9373 66.8204 72.5987 66.5947 72.1474C66.369 71.696 66.1433 71.2447 65.9177 70.6805C65.4663 69.6649 64.7893 67.0697 64.7893 67.0697L64.1123 64.3615L63.4352 61.6534L62.9839 59.848C62.4197 57.3656 61.4041 54.996 59.9372 52.852C58.5832 50.821 56.5521 49.3541 54.2953 48.5642C52.6028 48 50.6845 47.8872 48.8791 48.1128C45.7196 48.7899 43.0115 50.7081 41.2061 53.4162C41.6575 53.5291 42.1088 53.7548 42.5602 53.9804C43.1244 54.3189 43.5757 54.7703 43.9142 55.2216C44.4784 56.2372 44.8169 57.2527 44.8169 58.3811C45.0426 60.7507 45.494 63.2332 46.171 65.4899C46.848 62.8946 47.9764 60.525 49.4433 58.2683C49.669 58.0426 49.8946 57.8169 50.1203 57.5913C50.2332 57.4784 50.4588 57.4784 50.5717 57.4784C50.9102 57.4784 51.1359 57.5913 51.3615 57.7041C51.4744 57.7041 51.4744 57.8169 51.4744 57.8169C51.7001 58.0426 51.9257 58.2683 52.1514 58.494C52.4899 59.171 52.8284 59.848 53.167 60.525C53.7311 62.1048 54.1825 64.023 54.1825 64.023L55.5366 69.5521C55.9879 71.4704 56.6649 73.3886 57.4548 75.194C59.5987 80.1589 62.871 81.513 62.871 81.513C64.4508 82.3028 66.2562 82.867 68.0616 82.867C69.7542 82.9799 71.5596 82.5285 73.0265 81.8515C74.7191 80.9488 76.186 79.8204 77.4272 78.3535C78.1042 77.3379 78.7812 76.3224 79.3454 75.194C80.6995 72.5987 81.6022 69.8906 82.3921 67.0697C82.8434 65.3771 83.2948 63.5717 83.5204 61.7663C83.6333 60.8636 83.7461 60.0737 83.859 59.171C83.9718 58.3811 83.9718 57.4784 83.7461 56.6885C83.6333 56.5757 83.6333 56.4629 83.6333 56.2372C83.1819 55.2217 82.5049 54.3189 81.4893 53.7548C80.8123 53.5291 79.9096 53.3034 79.1197 53.3034Z" fill="url(#paint21_linear_2_6)"/>
<path d="M79.1197 53.3034C78.7812 53.3034 78.3299 53.4162 77.9914 53.4162C78.8941 54.7703 79.6839 56.1244 80.2481 57.5913C80.4738 58.2683 80.6995 58.9453 80.6995 59.6223C80.6995 60.2994 80.5866 60.8636 80.361 61.5406C80.0225 62.1048 79.6839 62.669 79.3454 63.1203C78.8941 63.5717 78.3299 64.023 77.7657 64.1359C77.2015 64.3615 76.5245 64.4744 75.8474 64.4744C74.9447 64.4744 74.1549 64.2487 73.365 63.7974L72.9136 65.7156C72.5751 67.1825 72.0109 68.5366 71.3339 69.8906C70.9954 70.6805 70.544 71.4704 70.0927 72.2602C69.7542 72.7116 69.3028 73.1629 68.7386 73.3886C68.513 73.3886 68.2873 73.5014 68.1744 73.5014C67.9488 73.5014 67.7231 73.3886 67.4974 73.2758C67.1589 72.9373 66.8204 72.5987 66.5947 72.1474C66.369 71.696 66.1433 71.2447 65.9177 70.6805C65.4663 69.6649 64.7893 67.0697 64.7893 67.0697L64.1123 64.3615L63.4352 61.6534L62.9839 59.848C62.4197 57.3656 61.4041 54.996 59.9372 52.852C58.5832 50.821 56.5521 49.3541 54.2953 48.5642C52.6028 48 50.6845 47.8872 48.8791 48.1128C45.7196 48.7899 43.0115 50.7081 41.2061 53.4162C41.6575 53.5291 42.1088 53.7548 42.5602 53.9804C43.1244 54.3189 43.5757 54.7703 43.9142 55.2216C44.4784 56.2372 44.8169 57.2527 44.8169 58.3811C45.0426 60.7507 45.494 63.2332 46.171 65.4899C46.848 62.8946 47.9764 60.525 49.4433 58.2683C49.669 58.0426 49.8946 57.8169 50.1203 57.5913C50.2332 57.4784 50.4588 57.4784 50.5717 57.4784C50.9102 57.4784 51.1359 57.5913 51.3615 57.7041C51.4744 57.7041 51.4744 57.8169 51.4744 57.8169C51.7001 58.0426 51.9257 58.2683 52.1514 58.494C52.4899 59.171 52.8284 59.848 53.167 60.525C53.7311 62.1048 54.1825 64.023 54.1825 64.023L55.5366 69.5521C55.9879 71.4704 56.6649 73.3886 57.4548 75.194C59.5987 80.1589 62.871 81.513 62.871 81.513C64.4508 82.3028 66.2562 82.867 68.0616 82.867C69.7542 82.9799 71.5596 82.5285 73.0265 81.8515C74.7191 80.9488 76.186 79.8204 77.4272 78.3535C78.1042 77.3379 78.7812 76.3224 79.3454 75.194C80.6995 72.5987 81.6022 69.8906 82.3921 67.0697C82.8434 65.3771 83.2948 63.5717 83.5204 61.7663C83.6333 60.8636 83.7461 60.0737 83.859 59.171C83.9718 58.3811 83.9718 57.4784 83.7461 56.6885C83.6333 56.5757 83.6333 56.4629 83.6333 56.2372C83.1819 55.2217 82.5049 54.3189 81.4893 53.7548C80.8123 53.5291 79.9096 53.3034 79.1197 53.3034Z" fill="url(#paint22_radial_2_6)"/>
<path d="M79.1197 53.3034C78.7812 53.3034 78.3299 53.4162 77.9914 53.4162C78.8941 54.7703 79.6839 56.1244 80.2481 57.5913C80.4738 58.2683 80.6995 58.9453 80.6995 59.6223C80.6995 60.2994 80.5866 60.8636 80.361 61.5406C80.0225 62.1048 79.6839 62.669 79.3454 63.1203C78.8941 63.5717 78.3299 64.023 77.7657 64.1359C77.2015 64.3615 76.5245 64.4744 75.8474 64.4744C74.9447 64.4744 74.1549 64.2487 73.365 63.7974L72.9136 65.7156C72.5751 67.1825 72.0109 68.5366 71.3339 69.8906C70.9954 70.6805 70.544 71.4704 70.0927 72.2602C69.7542 72.7116 69.3028 73.1629 68.7386 73.3886C68.513 73.3886 68.2873 73.5014 68.1744 73.5014C67.9488 73.5014 67.7231 73.3886 67.4974 73.2758C67.1589 72.9373 66.8204 72.5987 66.5947 72.1474C66.369 71.696 66.1433 71.2447 65.9177 70.6805C65.4663 69.6649 64.7893 67.0697 64.7893 67.0697L64.1123 64.3615L63.4352 61.6534L62.9839 59.848C62.4197 57.3656 61.4041 54.996 59.9372 52.852C58.5832 50.821 56.5521 49.3541 54.2953 48.5642C52.6028 48 50.6845 47.8872 48.8791 48.1128C45.7196 48.7899 43.0115 50.7081 41.2061 53.4162C41.6575 53.5291 42.1088 53.7548 42.5602 53.9804C43.1244 54.3189 43.5757 54.7703 43.9142 55.2216C44.4784 56.2372 44.8169 57.2527 44.8169 58.3811C45.0426 60.7507 45.494 63.2332 46.171 65.4899C46.848 62.8946 47.9764 60.525 49.4433 58.2683C49.669 58.0426 49.8946 57.8169 50.1203 57.5913C50.2332 57.4784 50.4588 57.4784 50.5717 57.4784C50.9102 57.4784 51.1359 57.5913 51.3615 57.7041C51.4744 57.7041 51.4744 57.8169 51.4744 57.8169C51.7001 58.0426 51.9257 58.2683 52.1514 58.494C52.4899 59.171 52.8284 59.848 53.167 60.525C53.7311 62.1048 54.1825 64.023 54.1825 64.023L55.5366 69.5521C55.9879 71.4704 56.6649 73.3886 57.4548 75.194C59.5987 80.1589 62.871 81.513 62.871 81.513C64.4508 82.3028 66.2562 82.867 68.0616 82.867C69.7542 82.9799 71.5596 82.5285 73.0265 81.8515C74.7191 80.9488 76.186 79.8204 77.4272 78.3535C78.1042 77.3379 78.7812 76.3224 79.3454 75.194C80.6995 72.5987 81.6022 69.8906 82.3921 67.0697C82.8434 65.3771 83.2948 63.5717 83.5204 61.7663C83.6333 60.8636 83.7461 60.0737 83.859 59.171C83.9718 58.3811 83.9718 57.4784 83.7461 56.6885C83.6333 56.5757 83.6333 56.4629 83.6333 56.2372C83.1819 55.2217 82.5049 54.3189 81.4893 53.7548C80.8123 53.5291 79.9096 53.3034 79.1197 53.3034Z" fill="url(#paint23_radial_2_6)"/>
<path d="M79.1197 53.3034C78.7812 53.3034 78.3299 53.4162 77.9914 53.4162C78.8941 54.7703 79.6839 56.1244 80.2481 57.5913C80.4738 58.2683 80.6995 58.9453 80.6995 59.6223C80.6995 60.2994 80.5866 60.8636 80.361 61.5406C80.0225 62.1048 79.6839 62.669 79.3454 63.1203C78.8941 63.5717 78.3299 64.023 77.7657 64.1359C77.2015 64.3615 76.5245 64.4744 75.8474 64.4744C74.9447 64.4744 74.1549 64.2487 73.365 63.7974L72.9136 65.7156C72.5751 67.1825 72.0109 68.5366 71.3339 69.8906C70.9954 70.6805 70.544 71.4704 70.0927 72.2602C69.7542 72.7116 69.3028 73.1629 68.7386 73.3886C68.513 73.3886 68.2873 73.5014 68.1744 73.5014C67.9488 73.5014 67.7231 73.3886 67.4974 73.2758C67.1589 72.9373 66.8204 72.5987 66.5947 72.1474C66.369 71.696 66.1433 71.2447 65.9177 70.6805C65.4663 69.6649 64.7893 67.0697 64.7893 67.0697L64.1123 64.3615L63.4352 61.6534L62.9839 59.848C62.4197 57.3656 61.4041 54.996 59.9372 52.852C58.5832 50.821 56.5521 49.3541 54.2953 48.5642C52.6028 48 50.6845 47.8872 48.8791 48.1128C45.7196 48.7899 43.0115 50.7081 41.2061 53.4162C41.6575 53.5291 42.1088 53.7548 42.5602 53.9804C43.1244 54.3189 43.5757 54.7703 43.9142 55.2216C44.4784 56.2372 44.8169 57.2527 44.8169 58.3811C45.0426 60.7507 45.494 63.2332 46.171 65.4899C46.848 62.8946 47.9764 60.525 49.4433 58.2683C49.669 58.0426 49.8946 57.8169 50.1203 57.5913C50.2332 57.4784 50.4588 57.4784 50.5717 57.4784C50.9102 57.4784 51.1359 57.5913 51.3615 57.7041C51.4744 57.7041 51.4744 57.8169 51.4744 57.8169C51.7001 58.0426 51.9257 58.2683 52.1514 58.494C52.4899 59.171 52.8284 59.848 53.167 60.525C53.7311 62.1048 54.1825 64.023 54.1825 64.023L55.5366 69.5521C55.9879 71.4704 56.6649 73.3886 57.4548 75.194C59.5987 80.1589 62.871 81.513 62.871 81.513C64.4508 82.3028 66.2562 82.867 68.0616 82.867C69.7542 82.9799 71.5596 82.5285 73.0265 81.8515C74.7191 80.9488 76.186 79.8204 77.4272 78.3535C78.1042 77.3379 78.7812 76.3224 79.3454 75.194C80.6995 72.5987 81.6022 69.8906 82.3921 67.0697C82.8434 65.3771 83.2948 63.5717 83.5204 61.7663C83.6333 60.8636 83.7461 60.0737 83.859 59.171C83.9718 58.3811 83.9718 57.4784 83.7461 56.6885C83.6333 56.5757 83.6333 56.4629 83.6333 56.2372C83.1819 55.2217 82.5049 54.3189 81.4893 53.7548C80.8123 53.5291 79.9096 53.3034 79.1197 53.3034Z" fill="url(#paint24_radial_2_6)"/>
<path d="M79.1197 53.3034C78.7812 53.3034 78.3299 53.4162 77.9914 53.4162C78.8941 54.7703 79.6839 56.1244 80.2481 57.5913C80.4738 58.2683 80.6995 58.9453 80.6995 59.6223C80.6995 60.2994 80.5866 60.8636 80.361 61.5406C80.0225 62.1048 79.6839 62.669 79.3454 63.1203C78.8941 63.5717 78.3299 64.023 77.7657 64.1359C77.2015 64.3615 76.5245 64.4744 75.8474 64.4744C74.9447 64.4744 74.1549 64.2487 73.365 63.7974L72.9136 65.7156C72.5751 67.1825 72.0109 68.5366 71.3339 69.8906C70.9954 70.6805 70.544 71.4704 70.0927 72.2602C69.7542 72.7116 69.3028 73.1629 68.7386 73.3886C68.513 73.3886 68.2873 73.5014 68.1744 73.5014C67.9488 73.5014 67.7231 73.3886 67.4974 73.2758C67.1589 72.9373 66.8204 72.5987 66.5947 72.1474C66.369 71.696 66.1433 71.2447 65.9177 70.6805C65.4663 69.6649 64.7893 67.0697 64.7893 67.0697L64.1123 64.3615L63.4352 61.6534L62.9839 59.848C62.4197 57.3656 61.4041 54.996 59.9372 52.852C58.5832 50.821 56.5521 49.3541 54.2953 48.5642C52.6028 48 50.6845 47.8872 48.8791 48.1128C45.7196 48.7899 43.0115 50.7081 41.2061 53.4162C41.6575 53.5291 42.1088 53.7548 42.5602 53.9804C43.1244 54.3189 43.5757 54.7703 43.9142 55.2216C44.4784 56.2372 44.8169 57.2527 44.8169 58.3811C45.0426 60.7507 45.494 63.2332 46.171 65.4899C46.848 62.8946 47.9764 60.525 49.4433 58.2683C49.669 58.0426 49.8946 57.8169 50.1203 57.5913C50.2332 57.4784 50.4588 57.4784 50.5717 57.4784C50.9102 57.4784 51.1359 57.5913 51.3615 57.7041C51.4744 57.7041 51.4744 57.8169 51.4744 57.8169C51.7001 58.0426 51.9257 58.2683 52.1514 58.494C52.4899 59.171 52.8284 59.848 53.167 60.525C53.7311 62.1048 54.1825 64.023 54.1825 64.023L55.5366 69.5521C55.9879 71.4704 56.6649 73.3886 57.4548 75.194C59.5987 80.1589 62.871 81.513 62.871 81.513C64.4508 82.3028 66.2562 82.867 68.0616 82.867C69.7542 82.9799 71.5596 82.5285 73.0265 81.8515C74.7191 80.9488 76.186 79.8204 77.4272 78.3535C78.1042 77.3379 78.7812 76.3224 79.3454 75.194C80.6995 72.5987 81.6022 69.8906 82.3921 67.0697C82.8434 65.3771 83.2948 63.5717 83.5204 61.7663C83.6333 60.8636 83.7461 60.0737 83.859 59.171C83.9718 58.3811 83.9718 57.4784 83.7461 56.6885C83.6333 56.5757 83.6333 56.4629 83.6333 56.2372C83.1819 55.2217 82.5049 54.3189 81.4893 53.7548C80.8123 53.5291 79.9096 53.3034 79.1197 53.3034Z" fill="url(#paint25_radial_2_6)"/>
<path d="M79.1197 53.3034C78.7812 53.3034 78.3299 53.4162 77.9914 53.4162C78.8941 54.7703 79.6839 56.1244 80.2481 57.5913C80.4738 58.2683 80.6995 58.9453 80.6995 59.6223C80.6995 60.2994 80.5866 60.8636 80.361 61.5406C80.0225 62.1048 79.6839 62.669 79.3454 63.1203C78.8941 63.5717 78.3299 64.023 77.7657 64.1359C77.2015 64.3615 76.5245 64.4744 75.8474 64.4744C74.9447 64.4744 74.1549 64.2487 73.365 63.7974L72.9136 65.7156C72.5751 67.1825 72.0109 68.5366 71.3339 69.8906C70.9954 70.6805 70.544 71.4704 70.0927 72.2602C69.7542 72.7116 69.3028 73.1629 68.7386 73.3886C68.513 73.3886 68.2873 73.5014 68.1744 73.5014C67.9488 73.5014 67.7231 73.3886 67.4974 73.2758C67.1589 72.9373 66.8204 72.5987 66.5947 72.1474C66.369 71.696 66.1433 71.2447 65.9177 70.6805C65.4663 69.6649 64.7893 67.0697 64.7893 67.0697L64.1123 64.3615L63.4352 61.6534L62.9839 59.848C62.4197 57.3656 61.4041 54.996 59.9372 52.852C58.5832 50.821 56.5521 49.3541 54.2953 48.5642C52.6028 48 50.6845 47.8872 48.8791 48.1128C45.7196 48.7899 43.0115 50.7081 41.2061 53.4162C41.6575 53.5291 42.1088 53.7548 42.5602 53.9804C43.1244 54.3189 43.5757 54.7703 43.9142 55.2216C44.4784 56.2372 44.8169 57.2527 44.8169 58.3811C45.0426 60.7507 45.494 63.2332 46.171 65.4899C46.848 62.8946 47.9764 60.525 49.4433 58.2683C49.669 58.0426 49.8946 57.8169 50.1203 57.5913C50.2332 57.4784 50.4588 57.4784 50.5717 57.4784C50.9102 57.4784 51.1359 57.5913 51.3615 57.7041C51.4744 57.7041 51.4744 57.8169 51.4744 57.8169C51.7001 58.0426 51.9257 58.2683 52.1514 58.494C52.4899 59.171 52.8284 59.848 53.167 60.525C53.7311 62.1048 54.1825 64.023 54.1825 64.023L55.5366 69.5521C55.9879 71.4704 56.6649 73.3886 57.4548 75.194C59.5987 80.1589 62.871 81.513 62.871 81.513C64.4508 82.3028 66.2562 82.867 68.0616 82.867C69.7542 82.9799 71.5596 82.5285 73.0265 81.8515C74.7191 80.9488 76.186 79.8204 77.4272 78.3535C78.1042 77.3379 78.7812 76.3224 79.3454 75.194C80.6995 72.5987 81.6022 69.8906 82.3921 67.0697C82.8434 65.3771 83.2948 63.5717 83.5204 61.7663C83.6333 60.8636 83.7461 60.0737 83.859 59.171C83.9718 58.3811 83.9718 57.4784 83.7461 56.6885C83.6333 56.5757 83.6333 56.4629 83.6333 56.2372C83.1819 55.2217 82.5049 54.3189 81.4893 53.7548C80.8123 53.5291 79.9096 53.3034 79.1197 53.3034Z" fill="url(#paint26_radial_2_6)"/>
<path d="M79.1197 53.3034C78.7812 53.3034 78.3299 53.4162 77.9914 53.4162C78.8941 54.7703 79.6839 56.1244 80.2481 57.5913C80.4738 58.2683 80.6995 58.9453 80.6995 59.6223C80.6995 60.2994 80.5866 60.8636 80.361 61.5406C80.0225 62.1048 79.6839 62.669 79.3454 63.1203C78.8941 63.5717 78.3299 64.023 77.7657 64.1359C77.2015 64.3615 76.5245 64.4744 75.8474 64.4744C74.9447 64.4744 74.1549 64.2487 73.365 63.7974L72.9136 65.7156C72.5751 67.1825 72.0109 68.5366 71.3339 69.8906C70.9954 70.6805 70.544 71.4704 70.0927 72.2602C69.7542 72.7116 69.3028 73.1629 68.7386 73.3886C68.513 73.3886 68.2873 73.5014 68.1744 73.5014C67.9488 73.5014 67.7231 73.3886 67.4974 73.2758C67.1589 72.9373 66.8204 72.5987 66.5947 72.1474C66.369 71.696 66.1433 71.2447 65.9177 70.6805C65.4663 69.6649 64.7893 67.0697 64.7893 67.0697L64.1123 64.3615L63.4352 61.6534L62.9839 59.848C62.4197 57.3656 61.4041 54.996 59.9372 52.852C58.5832 50.821 56.5521 49.3541 54.2953 48.5642C52.6028 48 50.6845 47.8872 48.8791 48.1128C45.7196 48.7899 43.0115 50.7081 41.2061 53.4162C41.6575 53.5291 42.1088 53.7548 42.5602 53.9804C43.1244 54.3189 43.5757 54.7703 43.9142 55.2216C44.4784 56.2372 44.8169 57.2527 44.8169 58.3811C45.0426 60.7507 45.494 63.2332 46.171 65.4899C46.848 62.8946 47.9764 60.525 49.4433 58.2683C49.669 58.0426 49.8946 57.8169 50.1203 57.5913C50.2332 57.4784 50.4588 57.4784 50.5717 57.4784C50.9102 57.4784 51.1359 57.5913 51.3615 57.7041C51.4744 57.7041 51.4744 57.8169 51.4744 57.8169C51.7001 58.0426 51.9257 58.2683 52.1514 58.494C52.4899 59.171 52.8284 59.848 53.167 60.525C53.7311 62.1048 54.1825 64.023 54.1825 64.023L55.5366 69.5521C55.9879 71.4704 56.6649 73.3886 57.4548 75.194C59.5987 80.1589 62.871 81.513 62.871 81.513C64.4508 82.3028 66.2562 82.867 68.0616 82.867C69.7542 82.9799 71.5596 82.5285 73.0265 81.8515C74.7191 80.9488 76.186 79.8204 77.4272 78.3535C78.1042 77.3379 78.7812 76.3224 79.3454 75.194C80.6995 72.5987 81.6022 69.8906 82.3921 67.0697C82.8434 65.3771 83.2948 63.5717 83.5204 61.7663C83.6333 60.8636 83.7461 60.0737 83.859 59.171C83.9718 58.3811 83.9718 57.4784 83.7461 56.6885C83.6333 56.5757 83.6333 56.4629 83.6333 56.2372C83.1819 55.2217 82.5049 54.3189 81.4893 53.7548C80.8123 53.5291 79.9096 53.3034 79.1197 53.3034Z" fill="url(#paint27_radial_2_6)"/>
<path d="M79.1197 53.3034C78.7812 53.3034 78.3299 53.4162 77.9914 53.4162C78.8941 54.7703 79.6839 56.1244 80.2481 57.5913C80.4738 58.2683 80.6995 58.9453 80.6995 59.6223C80.6995 60.2994 80.5866 60.8636 80.361 61.5406C80.0225 62.1048 79.6839 62.669 79.3454 63.1203C78.8941 63.5717 78.3299 64.023 77.7657 64.1359C77.2015 64.3615 76.5245 64.4744 75.8474 64.4744C74.9447 64.4744 74.1549 64.2487 73.365 63.7974L72.9136 65.7156C72.5751 67.1825 72.0109 68.5366 71.3339 69.8906C70.9954 70.6805 70.544 71.4704 70.0927 72.2602C69.7542 72.7116 69.3028 73.1629 68.7386 73.3886C68.513 73.3886 68.2873 73.5014 68.1744 73.5014C67.9488 73.5014 67.7231 73.3886 67.4974 73.2758C67.1589 72.9373 66.8204 72.5987 66.5947 72.1474C66.369 71.696 66.1433 71.2447 65.9177 70.6805C65.4663 69.6649 64.7893 67.0697 64.7893 67.0697L64.1123 64.3615L63.4352 61.6534L62.9839 59.848C62.4197 57.3656 61.4041 54.996 59.9372 52.852C58.5832 50.821 56.5521 49.3541 54.2953 48.5642C52.6028 48 50.6845 47.8872 48.8791 48.1128C45.7196 48.7899 43.0115 50.7081 41.2061 53.4162C41.6575 53.5291 42.1088 53.7548 42.5602 53.9804C43.1244 54.3189 43.5757 54.7703 43.9142 55.2216C44.4784 56.2372 44.8169 57.2527 44.8169 58.3811C45.0426 60.7507 45.494 63.2332 46.171 65.4899C46.848 62.8946 47.9764 60.525 49.4433 58.2683C49.669 58.0426 49.8946 57.8169 50.1203 57.5913C50.2332 57.4784 50.4588 57.4784 50.5717 57.4784C50.9102 57.4784 51.1359 57.5913 51.3615 57.7041C51.4744 57.7041 51.4744 57.8169 51.4744 57.8169C51.7001 58.0426 51.9257 58.2683 52.1514 58.494C52.4899 59.171 52.8284 59.848 53.167 60.525C53.7311 62.1048 54.1825 64.023 54.1825 64.023L55.5366 69.5521C55.9879 71.4704 56.6649 73.3886 57.4548 75.194C59.5987 80.1589 62.871 81.513 62.871 81.513C64.4508 82.3028 66.2562 82.867 68.0616 82.867C69.7542 82.9799 71.5596 82.5285 73.0265 81.8515C74.7191 80.9488 76.186 79.8204 77.4272 78.3535C78.1042 77.3379 78.7812 76.3224 79.3454 75.194C80.6995 72.5987 81.6022 69.8906 82.3921 67.0697C82.8434 65.3771 83.2948 63.5717 83.5204 61.7663C83.6333 60.8636 83.7461 60.0737 83.859 59.171C83.9718 58.3811 83.9718 57.4784 83.7461 56.6885C83.6333 56.5757 83.6333 56.4629 83.6333 56.2372C83.1819 55.2217 82.5049 54.3189 81.4893 53.7548C80.8123 53.5291 79.9096 53.3034 79.1197 53.3034Z" fill="url(#paint28_radial_2_6)"/>
<path d="M79.1197 53.3034C78.7812 53.3034 78.3299 53.4162 77.9914 53.4162C78.8941 54.7703 79.6839 56.1244 80.2481 57.5913C80.4738 58.2683 80.6995 58.9453 80.6995 59.6223C80.6995 60.2994 80.5866 60.8636 80.361 61.5406C80.0225 62.1048 79.6839 62.669 79.3454 63.1203C78.8941 63.5717 78.3299 64.023 77.7657 64.1359C77.2015 64.3615 76.5245 64.4744 75.8474 64.4744C74.9447 64.4744 74.1549 64.2487 73.365 63.7974L72.9136 65.7156C72.5751 67.1825 72.0109 68.5366 71.3339 69.8906C70.9954 70.6805 70.544 71.4704 70.0927 72.2602C69.7542 72.7116 69.3028 73.1629 68.7386 73.3886C68.513 73.3886 68.2873 73.5014 68.1744 73.5014C67.9488 73.5014 67.7231 73.3886 67.4974 73.2758C67.1589 72.9373 66.8204 72.5987 66.5947 72.1474C66.369 71.696 66.1433 71.2447 65.9177 70.6805C65.4663 69.6649 64.7893 67.0697 64.7893 67.0697L64.1123 64.3615L63.4352 61.6534L62.9839 59.848C62.4197 57.3656 61.4041 54.996 59.9372 52.852C58.5832 50.821 56.5521 49.3541 54.2953 48.5642C52.6028 48 50.6845 47.8872 48.8791 48.1128C45.7196 48.7899 43.0115 50.7081 41.2061 53.4162C41.6575 53.5291 42.1088 53.7548 42.5602 53.9804C43.1244 54.3189 43.5757 54.7703 43.9142 55.2216C44.4784 56.2372 44.8169 57.2527 44.8169 58.3811C45.0426 60.7507 45.494 63.2332 46.171 65.4899C46.848 62.8946 47.9764 60.525 49.4433 58.2683C49.669 58.0426 49.8946 57.8169 50.1203 57.5913C50.2332 57.4784 50.4588 57.4784 50.5717 57.4784C50.9102 57.4784 51.1359 57.5913 51.3615 57.7041C51.4744 57.7041 51.4744 57.8169 51.4744 57.8169C51.7001 58.0426 51.9257 58.2683 52.1514 58.494C52.4899 59.171 52.8284 59.848 53.167 60.525C53.7311 62.1048 54.1825 64.023 54.1825 64.023L55.5366 69.5521C55.9879 71.4704 56.6649 73.3886 57.4548 75.194C59.5987 80.1589 62.871 81.513 62.871 81.513C64.4508 82.3028 66.2562 82.867 68.0616 82.867C69.7542 82.9799 71.5596 82.5285 73.0265 81.8515C74.7191 80.9488 76.186 79.8204 77.4272 78.3535C78.1042 77.3379 78.7812 76.3224 79.3454 75.194C80.6995 72.5987 81.6022 69.8906 82.3921 67.0697C82.8434 65.3771 83.2948 63.5717 83.5204 61.7663C83.6333 60.8636 83.7461 60.0737 83.859 59.171C83.9718 58.3811 83.9718 57.4784 83.7461 56.6885C83.6333 56.5757 83.6333 56.4629 83.6333 56.2372C83.1819 55.2217 82.5049 54.3189 81.4893 53.7548C80.8123 53.5291 79.9096 53.3034 79.1197 53.3034Z" fill="url(#paint29_radial_2_6)"/>
<path d="M79.1197 53.3034C78.7812 53.3034 78.3299 53.4162 77.9914 53.4162C78.8941 54.7703 79.6839 56.1244 80.2481 57.5913C80.4738 58.2683 80.6995 58.9453 80.6995 59.6223C80.6995 60.2994 80.5866 60.8636 80.361 61.5406C80.0225 62.1048 79.6839 62.669 79.3454 63.1203C78.8941 63.5717 78.3299 64.023 77.7657 64.1359C77.2015 64.3615 76.5245 64.4744 75.8474 64.4744C74.9447 64.4744 74.1549 64.2487 73.365 63.7974L72.9136 65.7156C72.5751 67.1825 72.0109 68.5366 71.3339 69.8906C70.9954 70.6805 70.544 71.4704 70.0927 72.2602C69.7542 72.7116 69.3028 73.1629 68.7386 73.3886C68.513 73.3886 68.2873 73.5014 68.1744 73.5014C67.9488 73.5014 67.7231 73.3886 67.4974 73.2758C67.1589 72.9373 66.8204 72.5987 66.5947 72.1474C66.369 71.696 66.1433 71.2447 65.9177 70.6805C65.4663 69.6649 64.7893 67.0697 64.7893 67.0697L64.1123 64.3615L63.4352 61.6534L62.9839 59.848C62.4197 57.3656 61.4041 54.996 59.9372 52.852C58.5832 50.821 56.5521 49.3541 54.2953 48.5642C52.6028 48 50.6845 47.8872 48.8791 48.1128C45.7196 48.7899 43.0115 50.7081 41.2061 53.4162C41.6575 53.5291 42.1088 53.7548 42.5602 53.9804C43.1244 54.3189 43.5757 54.7703 43.9142 55.2216C44.4784 56.2372 44.8169 57.2527 44.8169 58.3811C45.0426 60.7507 45.494 63.2332 46.171 65.4899C46.848 62.8946 47.9764 60.525 49.4433 58.2683C49.669 58.0426 49.8946 57.8169 50.1203 57.5913C50.2332 57.4784 50.4588 57.4784 50.5717 57.4784C50.9102 57.4784 51.1359 57.5913 51.3615 57.7041C51.4744 57.7041 51.4744 57.8169 51.4744 57.8169C51.7001 58.0426 51.9257 58.2683 52.1514 58.494C52.4899 59.171 52.8284 59.848 53.167 60.525C53.7311 62.1048 54.1825 64.023 54.1825 64.023L55.5366 69.5521C55.9879 71.4704 56.6649 73.3886 57.4548 75.194C59.5987 80.1589 62.871 81.513 62.871 81.513C64.4508 82.3028 66.2562 82.867 68.0616 82.867C69.7542 82.9799 71.5596 82.5285 73.0265 81.8515C74.7191 80.9488 76.186 79.8204 77.4272 78.3535C78.1042 77.3379 78.7812 76.3224 79.3454 75.194C80.6995 72.5987 81.6022 69.8906 82.3921 67.0697C82.8434 65.3771 83.2948 63.5717 83.5204 61.7663C83.6333 60.8636 83.7461 60.0737 83.859 59.171C83.9718 58.3811 83.9718 57.4784 83.7461 56.6885C83.6333 56.5757 83.6333 56.4629 83.6333 56.2372C83.1819 55.2217 82.5049 54.3189 81.4893 53.7548C80.8123 53.5291 79.9096 53.3034 79.1197 53.3034Z" fill="url(#paint30_radial_2_6)"/>
<path d="M79.1197 53.3034C78.7812 53.3034 78.3299 53.4162 77.9914 53.4162C78.8941 54.7703 79.6839 56.1244 80.2481 57.5913C80.4738 58.2683 80.6995 58.9453 80.6995 59.6223C80.6995 60.2994 80.5866 60.8636 80.361 61.5406C80.0225 62.1048 79.6839 62.669 79.3454 63.1203C78.8941 63.5717 78.3299 64.023 77.7657 64.1359C77.2015 64.3615 76.5245 64.4744 75.8474 64.4744C74.9447 64.4744 74.1549 64.2487 73.365 63.7974L72.9136 65.7156C72.5751 67.1825 72.0109 68.5366 71.3339 69.8906C70.9954 70.6805 70.544 71.4704 70.0927 72.2602C69.7542 72.7116 69.3028 73.1629 68.7386 73.3886C68.513 73.3886 68.2873 73.5014 68.1744 73.5014C67.9488 73.5014 67.7231 73.3886 67.4974 73.2758C67.1589 72.9373 66.8204 72.5987 66.5947 72.1474C66.369 71.696 66.1433 71.2447 65.9177 70.6805C65.4663 69.6649 64.7893 67.0697 64.7893 67.0697L64.1123 64.3615L63.4352 61.6534L62.9839 59.848C62.4197 57.3656 61.4041 54.996 59.9372 52.852C58.5832 50.821 56.5521 49.3541 54.2953 48.5642C52.6028 48 50.6845 47.8872 48.8791 48.1128C45.7196 48.7899 43.0115 50.7081 41.2061 53.4162C41.6575 53.5291 42.1088 53.7548 42.5602 53.9804C43.1244 54.3189 43.5757 54.7703 43.9142 55.2216C44.4784 56.2372 44.8169 57.2527 44.8169 58.3811C45.0426 60.7507 45.494 63.2332 46.171 65.4899C46.848 62.8946 47.9764 60.525 49.4433 58.2683C49.669 58.0426 49.8946 57.8169 50.1203 57.5913C50.2332 57.4784 50.4588 57.4784 50.5717 57.4784C50.9102 57.4784 51.1359 57.5913 51.3615 57.7041C51.4744 57.7041 51.4744 57.8169 51.4744 57.8169C51.7001 58.0426 51.9257 58.2683 52.1514 58.494C52.4899 59.171 52.8284 59.848 53.167 60.525C53.7311 62.1048 54.1825 64.023 54.1825 64.023L55.5366 69.5521C55.9879 71.4704 56.6649 73.3886 57.4548 75.194C59.5987 80.1589 62.871 81.513 62.871 81.513C64.4508 82.3028 66.2562 82.867 68.0616 82.867C69.7542 82.9799 71.5596 82.5285 73.0265 81.8515C74.7191 80.9488 76.186 79.8204 77.4272 78.3535C78.1042 77.3379 78.7812 76.3224 79.3454 75.194C80.6995 72.5987 81.6022 69.8906 82.3921 67.0697C82.8434 65.3771 83.2948 63.5717 83.5204 61.7663C83.6333 60.8636 83.7461 60.0737 83.859 59.171C83.9718 58.3811 83.9718 57.4784 83.7461 56.6885C83.6333 56.5757 83.6333 56.4629 83.6333 56.2372C83.1819 55.2217 82.5049 54.3189 81.4893 53.7548C80.8123 53.5291 79.9096 53.3034 79.1197 53.3034Z" fill="url(#paint31_radial_2_6)"/>
<path d="M79.1197 53.3034C78.7812 53.3034 78.3299 53.4162 77.9914 53.4162C78.8941 54.7703 79.6839 56.1244 80.2481 57.5913C80.4738 58.2683 80.6995 58.9453 80.6995 59.6223C80.6995 60.2994 80.5866 60.8636 80.361 61.5406C80.0225 62.1048 79.6839 62.669 79.3454 63.1203C78.8941 63.5717 78.3299 64.023 77.7657 64.1359C77.2015 64.3615 76.5245 64.4744 75.8474 64.4744C74.9447 64.4744 74.1549 64.2487 73.365 63.7974L72.9136 65.7156C72.5751 67.1825 72.0109 68.5366 71.3339 69.8906C70.9954 70.6805 70.544 71.4704 70.0927 72.2602C69.7542 72.7116 69.3028 73.1629 68.7386 73.3886C68.513 73.3886 68.2873 73.5014 68.1744 73.5014C67.9488 73.5014 67.7231 73.3886 67.4974 73.2758C67.1589 72.9373 66.8204 72.5987 66.5947 72.1474C66.369 71.696 66.1433 71.2447 65.9177 70.6805C65.4663 69.6649 64.7893 67.0697 64.7893 67.0697L64.1123 64.3615L63.4352 61.6534L62.9839 59.848C62.4197 57.3656 61.4041 54.996 59.9372 52.852C58.5832 50.821 56.5521 49.3541 54.2953 48.5642C52.6028 48 50.6845 47.8872 48.8791 48.1128C45.7196 48.7899 43.0115 50.7081 41.2061 53.4162C41.6575 53.5291 42.1088 53.7548 42.5602 53.9804C43.1244 54.3189 43.5757 54.7703 43.9142 55.2216C44.4784 56.2372 44.8169 57.2527 44.8169 58.3811C45.0426 60.7507 45.494 63.2332 46.171 65.4899C46.848 62.8946 47.9764 60.525 49.4433 58.2683C49.669 58.0426 49.8946 57.8169 50.1203 57.5913C50.2332 57.4784 50.4588 57.4784 50.5717 57.4784C50.9102 57.4784 51.1359 57.5913 51.3615 57.7041C51.4744 57.7041 51.4744 57.8169 51.4744 57.8169C51.7001 58.0426 51.9257 58.2683 52.1514 58.494C52.4899 59.171 52.8284 59.848 53.167 60.525C53.7311 62.1048 54.1825 64.023 54.1825 64.023L55.5366 69.5521C55.9879 71.4704 56.6649 73.3886 57.4548 75.194C59.5987 80.1589 62.871 81.513 62.871 81.513C64.4508 82.3028 66.2562 82.867 68.0616 82.867C69.7542 82.9799 71.5596 82.5285 73.0265 81.8515C74.7191 80.9488 76.186 79.8204 77.4272 78.3535C78.1042 77.3379 78.7812 76.3224 79.3454 75.194C80.6995 72.5987 81.6022 69.8906 82.3921 67.0697C82.8434 65.3771 83.2948 63.5717 83.5204 61.7663C83.6333 60.8636 83.7461 60.0737 83.859 59.171C83.9718 58.3811 83.9718 57.4784 83.7461 56.6885C83.6333 56.5757 83.6333 56.4629 83.6333 56.2372C83.1819 55.2217 82.5049 54.3189 81.4893 53.7548C80.8123 53.5291 79.9096 53.3034 79.1197 53.3034Z" fill="url(#paint32_radial_2_6)"/>
<path d="M79.1197 53.3034C78.7812 53.3034 78.3299 53.4162 77.9914 53.4162C78.8941 54.7703 79.6839 56.1244 80.2481 57.5913C80.4738 58.2683 80.6995 58.9453 80.6995 59.6223C80.6995 60.2994 80.5866 60.8636 80.361 61.5406C80.0225 62.1048 79.6839 62.669 79.3454 63.1203C78.8941 63.5717 78.3299 64.023 77.7657 64.1359C77.2015 64.3615 76.5245 64.4744 75.8474 64.4744C74.9447 64.4744 74.1549 64.2487 73.365 63.7974L72.9136 65.7156C72.5751 67.1825 72.0109 68.5366 71.3339 69.8906C70.9954 70.6805 70.544 71.4704 70.0927 72.2602C69.7542 72.7116 69.3028 73.1629 68.7386 73.3886C68.513 73.3886 68.2873 73.5014 68.1744 73.5014C67.9488 73.5014 67.7231 73.3886 67.4974 73.2758C67.1589 72.9373 66.8204 72.5987 66.5947 72.1474C66.369 71.696 66.1433 71.2447 65.9177 70.6805C65.4663 69.6649 64.7893 67.0697 64.7893 67.0697L64.1123 64.3615L63.4352 61.6534L62.9839 59.848C62.4197 57.3656 61.4041 54.996 59.9372 52.852C58.5832 50.821 56.5521 49.3541 54.2953 48.5642C52.6028 48 50.6845 47.8872 48.8791 48.1128C45.7196 48.7899 43.0115 50.7081 41.2061 53.4162C41.6575 53.5291 42.1088 53.7548 42.5602 53.9804C43.1244 54.3189 43.5757 54.7703 43.9142 55.2216C44.4784 56.2372 44.8169 57.2527 44.8169 58.3811C45.0426 60.7507 45.494 63.2332 46.171 65.4899C46.848 62.8946 47.9764 60.525 49.4433 58.2683C49.669 58.0426 49.8946 57.8169 50.1203 57.5913C50.2332 57.4784 50.4588 57.4784 50.5717 57.4784C50.9102 57.4784 51.1359 57.5913 51.3615 57.7041C51.4744 57.7041 51.4744 57.8169 51.4744 57.8169C51.7001 58.0426 51.9257 58.2683 52.1514 58.494C52.4899 59.171 52.8284 59.848 53.167 60.525C53.7311 62.1048 54.1825 64.023 54.1825 64.023L55.5366 69.5521C55.9879 71.4704 56.6649 73.3886 57.4548 75.194C59.5987 80.1589 62.871 81.513 62.871 81.513C64.4508 82.3028 66.2562 82.867 68.0616 82.867C69.7542 82.9799 71.5596 82.5285 73.0265 81.8515C74.7191 80.9488 76.186 79.8204 77.4272 78.3535C78.1042 77.3379 78.7812 76.3224 79.3454 75.194C80.6995 72.5987 81.6022 69.8906 82.3921 67.0697C82.8434 65.3771 83.2948 63.5717 83.5204 61.7663C83.6333 60.8636 83.7461 60.0737 83.859 59.171C83.9718 58.3811 83.9718 57.4784 83.7461 56.6885C83.6333 56.5757 83.6333 56.4629 83.6333 56.2372C83.1819 55.2217 82.5049 54.3189 81.4893 53.7548C80.8123 53.5291 79.9096 53.3034 79.1197 53.3034Z" fill="url(#paint33_radial_2_6)"/>
<path d="M79.1197 53.3034C78.7812 53.3034 78.3299 53.4162 77.9914 53.4162C78.8941 54.7703 79.6839 56.1244 80.2481 57.5913C80.4738 58.2683 80.6995 58.9453 80.6995 59.6223C80.6995 60.2994 80.5866 60.8636 80.361 61.5406C80.0225 62.1048 79.6839 62.669 79.3454 63.1203C78.8941 63.5717 78.3299 64.023 77.7657 64.1359C77.2015 64.3615 76.5245 64.4744 75.8474 64.4744C74.9447 64.4744 74.1549 64.2487 73.365 63.7974L72.9136 65.7156C72.5751 67.1825 72.0109 68.5366 71.3339 69.8906C70.9954 70.6805 70.544 71.4704 70.0927 72.2602C69.7542 72.7116 69.3028 73.1629 68.7386 73.3886C68.513 73.3886 68.2873 73.5014 68.1744 73.5014C67.9488 73.5014 67.7231 73.3886 67.4974 73.2758C67.1589 72.9373 66.8204 72.5987 66.5947 72.1474C66.369 71.696 66.1433 71.2447 65.9177 70.6805C65.4663 69.6649 64.7893 67.0697 64.7893 67.0697L64.1123 64.3615L63.4352 61.6534L62.9839 59.848C62.4197 57.3656 61.4041 54.996 59.9372 52.852C58.5832 50.821 56.5521 49.3541 54.2953 48.5642C52.6028 48 50.6845 47.8872 48.8791 48.1128C45.7196 48.7899 43.0115 50.7081 41.2061 53.4162C41.6575 53.5291 42.1088 53.7548 42.5602 53.9804C43.1244 54.3189 43.5757 54.7703 43.9142 55.2216C44.4784 56.2372 44.8169 57.2527 44.8169 58.3811C45.0426 60.7507 45.494 63.2332 46.171 65.4899C46.848 62.8946 47.9764 60.525 49.4433 58.2683C49.669 58.0426 49.8946 57.8169 50.1203 57.5913C50.2332 57.4784 50.4588 57.4784 50.5717 57.4784C50.9102 57.4784 51.1359 57.5913 51.3615 57.7041C51.4744 57.7041 51.4744 57.8169 51.4744 57.8169C51.7001 58.0426 51.9257 58.2683 52.1514 58.494C52.4899 59.171 52.8284 59.848 53.167 60.525C53.7311 62.1048 54.1825 64.023 54.1825 64.023L55.5366 69.5521C55.9879 71.4704 56.6649 73.3886 57.4548 75.194C59.5987 80.1589 62.871 81.513 62.871 81.513C64.4508 82.3028 66.2562 82.867 68.0616 82.867C69.7542 82.9799 71.5596 82.5285 73.0265 81.8515C74.7191 80.9488 76.186 79.8204 77.4272 78.3535C78.1042 77.3379 78.7812 76.3224 79.3454 75.194C80.6995 72.5987 81.6022 69.8906 82.3921 67.0697C82.8434 65.3771 83.2948 63.5717 83.5204 61.7663C83.6333 60.8636 83.7461 60.0737 83.859 59.171C83.9718 58.3811 83.9718 57.4784 83.7461 56.6885C83.6333 56.5757 83.6333 56.4629 83.6333 56.2372C83.1819 55.2217 82.5049 54.3189 81.4893 53.7548C80.8123 53.5291 79.9096 53.3034 79.1197 53.3034Z" fill="url(#paint34_linear_2_6)"/>
<defs>
<linearGradient id="paint0_linear_2_6" x1="37.1498" y1="71.7053" x2="75.2553" y2="56.3029" gradientUnits="userSpaceOnUse">
<stop offset="0.13" stop-color="#1CBBF3"/>
<stop offset="0.34" stop-color="#1F99A5"/>
<stop offset="0.45" stop-color="#209CA6"/>
<stop offset="0.51" stop-color="#24A4AA"/>
<stop offset="0.57" stop-color="#2BB3B0"/>
<stop offset="0.6" stop-color="#30BDB4"/>
<stop offset="0.79" stop-color="#38BA90"/>
<stop offset="1" stop-color="#60F05A"/>
</linearGradient>
<radialGradient id="paint1_radial_2_6" cx="0" cy="0" r="1" gradientUnits="userSpaceOnUse" gradientTransform="translate(62.4168 62.3523) rotate(74.3249) scale(18.3326 13.9294)">
<stop stop-color="#227B60"/>
<stop offset="0.14" stop-color="#227B60" stop-opacity="0.81"/>
<stop offset="0.58" stop-color="#227B60" stop-opacity="0.23"/>
<stop offset="0.78" stop-color="#227B60" stop-opacity="0"/>
</radialGradient>
<radialGradient id="paint2_radial_2_6" cx="0" cy="0" r="1" gradientUnits="userSpaceOnUse" gradientTransform="translate(64.7881 61.7217) rotate(91.1322) scale(12.3923 9.41847)">
<stop stop-color="#227B60"/>
<stop offset="0.25" stop-color="#227B60" stop-opacity="0.7"/>
<stop offset="0.71" stop-color="#227B60" stop-opacity="0.2"/>
<stop offset="0.92" stop-color="#227B60" stop-opacity="0"/>
</radialGradient>
<radialGradient id="paint3_radial_2_6" cx="0" cy="0" r="1" gradientUnits="userSpaceOnUse" gradientTransform="translate(64.5305 61.2415) rotate(88.6121) scale(11.5537 8.20179)">
<stop stop-color="#227B60"/>
<stop offset="0.07" stop-color="#227B60" stop-opacity="0.9"/>
<stop offset="0.34" stop-color="#227B60" stop-opacity="0.51"/>
<stop offset="0.59" stop-color="#227B60" stop-opacity="0.23"/>
<stop offset="0.79" stop-color="#227B60" stop-opacity="0.06"/>
<stop offset="0.92" stop-color="#227B60" stop-opacity="0"/>
</radialGradient>
<radialGradient id="paint4_radial_2_6" cx="0" cy="0" r="1" gradientUnits="userSpaceOnUse" gradientTransform="translate(65.3417 61.6551) rotate(88.5819) scale(9.32848 6.62714)">
<stop stop-color="#227B60"/>
<stop offset="0.36" stop-color="#227B60" stop-opacity="0.63"/>
<stop offset="0.92" stop-color="#227B60" stop-opacity="0"/>
</radialGradient>
<radialGradient id="paint5_radial_2_6" cx="0" cy="0" r="1" gradientUnits="userSpaceOnUse" gradientTransform="translate(64.4149 61.333) rotate(88.5989) scale(7.43894 4.75875)">
<stop stop-color="#20735A"/>
<stop offset="0.15" stop-color="#20745A" stop-opacity="0.93"/>
<stop offset="0.38" stop-color="#21755C" stop-opacity="0.74"/>
<stop offset="0.67" stop-color="#21785D" stop-opacity="0.43"/>
<stop offset="1" stop-color="#227B60" stop-opacity="0"/>
</radialGradient>
<radialGradient id="paint6_radial_2_6" cx="0" cy="0" r="1" gradientUnits="userSpaceOnUse" gradientTransform="translate(66.166 63.1727) rotate(23.8095) scale(11.9748 8.97722)">
<stop stop-color="#227A61"/>
<stop offset="0.36" stop-color="#227A61" stop-opacity="0.56"/>
<stop offset="0.72" stop-color="#227A61" stop-opacity="0.16"/>
<stop offset="0.9" stop-color="#227A61" stop-opacity="0"/>
</radialGradient>
<radialGradient id="paint7_radial_2_6" cx="0" cy="0" r="1" gradientUnits="userSpaceOnUse" gradientTransform="translate(62.479 43.436) rotate(35.2779) scale(15.9654 14.6007)">
<stop stop-color="#3CD9C3"/>
<stop offset="0.07" stop-color="#3BD7C1" stop-opacity="0.9"/>
<stop offset="0.41" stop-color="#38CEB9" stop-opacity="0.42"/>
<stop offset="0.65" stop-color="#36C8B4" stop-opacity="0.12"/>
<stop offset="0.76" stop-color="#35C6B2" stop-opacity="0"/>
</radialGradient>
<radialGradient id="paint8_radial_2_6" cx="0" cy="0" r="1" gradientUnits="userSpaceOnUse" gradientTransform="translate(-25957.1 -35303) rotate(35.2724) scale(2836.85 1990.76)">
<stop stop-color="#3CD9C3"/>
<stop offset="0.07" stop-color="#3BD7C1" stop-opacity="0.9"/>
<stop offset="0.41" stop-color="#38CEB9" stop-opacity="0.42"/>
<stop offset="0.65" stop-color="#36C8B4" stop-opacity="0.12"/>
<stop offset="0.76" stop-color="#35C6B2" stop-opacity="0"/>
</radialGradient>
<radialGradient id="paint9_radial_2_6" cx="0" cy="0" r="1" gradientUnits="userSpaceOnUse" gradientTransform="translate(68.2609 65.4254) rotate(100.969) scale(14.0813 17.4017)">
<stop stop-color="#237F66" stop-opacity="0.8"/>
<stop offset="0.06" stop-color="#2C8C70" stop-opacity="0.65"/>
<stop offset="0.21" stop-color="#3DA785" stop-opacity="0.37"/>
<stop offset="0.35" stop-color="#4ABA93" stop-opacity="0.17"/>
<stop offset="0.47" stop-color="#51C59C" stop-opacity="0.04"/>
<stop offset="0.56" stop-color="#54C99F" stop-opacity="0"/>
</radialGradient>
<radialGradient id="paint10_radial_2_6" cx="0" cy="0" r="1" gradientUnits="userSpaceOnUse" gradientTransform="translate(60.6553 66.4313) rotate(-50.8163) scale(18.4032 19.875)">
<stop stop-color="#167C8A"/>
<stop offset="0.04" stop-color="#167C8A" stop-opacity="0.93"/>
<stop offset="0.33" stop-color="#177F8D" stop-opacity="0.43"/>
<stop offset="0.54" stop-color="#17818F" stop-opacity="0.12"/>
<stop offset="0.65" stop-color="#178290" stop-opacity="0"/>
</radialGradient>
<radialGradient id="paint11_radial_2_6" cx="0" cy="0" r="1" gradientUnits="userSpaceOnUse" gradientTransform="translate(59.9636 68.0423) rotate(-31.6645) scale(17.9515 14.185)">
<stop offset="0.05" stop-color="#177D87"/>
<stop offset="0.11" stop-color="#177E89" stop-opacity="0.8"/>
<stop offset="0.21" stop-color="#177F8B" stop-opacity="0.52"/>
<stop offset="0.32" stop-color="#17818D" stop-opacity="0.29"/>
<stop offset="0.42" stop-color="#17818F" stop-opacity="0.13"/>
<stop offset="0.51" stop-color="#178290" stop-opacity="0.03"/>
<stop offset="0.6" stop-color="#178290" stop-opacity="0"/>
</radialGradient>
<radialGradient id="paint12_radial_2_6" cx="0" cy="0" r="1" gradientUnits="userSpaceOnUse" gradientTransform="translate(56.2188 67.7519) rotate(-130.544) scale(10.6978 8.42063)">
<stop offset="0.26" stop-color="#177F8A"/>
<stop offset="0.27" stop-color="#177F8A" stop-opacity="0.98"/>
<stop offset="0.38" stop-color="#17808C" stop-opacity="0.68"/>
<stop offset="0.5" stop-color="#17818D" stop-opacity="0.43"/>
<stop offset="0.62" stop-color="#17818F" stop-opacity="0.24"/>
<stop offset="0.74" stop-color="#17828F" stop-opacity="0.11"/>
<stop offset="0.86" stop-color="#178290" stop-opacity="0.03"/>
<stop offset="1" stop-color="#178290" stop-opacity="0"/>
</radialGradient>
<radialGradient id="paint13_radial_2_6" cx="0" cy="0" r="1" gradientUnits="userSpaceOnUse" gradientTransform="translate(53.2376 71.3224) rotate(-173.11) scale(10.0322)">
<stop stop-color="#13656E"/>
<stop offset="0.11" stop-color="#13646E" stop-opacity="0.73"/>
<stop offset="0.27" stop-color="#12646E" stop-opacity="0.41"/>
<stop offset="0.42" stop-color="#12636E" stop-opacity="0.18"/>
<stop offset="0.55" stop-color="#12636E" stop-opacity="0.05"/>
<stop offset="0.66" stop-color="#12636E" stop-opacity="0"/>
</radialGradient>
<radialGradient id="paint14_radial_2_6" cx="0" cy="0" r="1" gradientUnits="userSpaceOnUse" gradientTransform="translate(52.1439 73.0222) rotate(-119.327) scale(7.01329 5.8982)">
<stop offset="0.13" stop-color="#146A73"/>
<stop offset="0.24" stop-color="#156F79" stop-opacity="0.79"/>
<stop offset="0.45" stop-color="#167783" stop-opacity="0.45"/>
<stop offset="0.65" stop-color="#167D8A" stop-opacity="0.2"/>
<stop offset="0.82" stop-color="#17818E" stop-opacity="0.05"/>
<stop offset="0.95" stop-color="#178290" stop-opacity="0"/>
</radialGradient>
<radialGradient id="paint15_radial_2_6" cx="0" cy="0" r="1" gradientUnits="userSpaceOnUse" gradientTransform="translate(50.5626 69.7683) rotate(-55.9731) scale(6.60113 5.23121)">
<stop stop-color="#198E9C"/>
<stop offset="0.1" stop-color="#198E9C" stop-opacity="0.87"/>
<stop offset="0.41" stop-color="#198E9C" stop-opacity="0.5"/>
<stop offset="0.67" stop-color="#198E9C" stop-opacity="0.23"/>
<stop offset="0.88" stop-color="#198E9C" stop-opacity="0.06"/>
<stop offset="1" stop-color="#198E9C" stop-opacity="0"/>
</radialGradient>
<linearGradient id="paint16_linear_2_6" x1="39.6031" y1="47.1977" x2="56.416" y2="62.7581" gradientUnits="userSpaceOnUse">
<stop offset="0.13" stop-color="#2BF9FF"/>
<stop offset="0.27" stop-color="#29F9FF" stop-opacity="0.64"/>
<stop offset="0.4" stop-color="#27FAFF" stop-opacity="0.3"/>
<stop offset="0.49" stop-color="#26FAFF" stop-opacity="0.08"/>
<stop offset="0.54" stop-color="#26FAFF" stop-opacity="0"/>
</linearGradient>
<linearGradient id="paint17_linear_2_6" x1="30.0825" y1="72.6009" x2="49.7164" y2="67.0379" gradientUnits="userSpaceOnUse">
<stop stop-color="#26FAFF"/>
<stop offset="0.06" stop-color="#26FAFF" stop-opacity="0.88"/>
<stop offset="0.24" stop-color="#26FAFF" stop-opacity="0.51"/>
<stop offset="0.39" stop-color="#26FAFF" stop-opacity="0.23"/>
<stop offset="0.5" stop-color="#26FAFF" stop-opacity="0.06"/>
<stop offset="0.55" stop-color="#26FAFF" stop-opacity="0"/>
</linearGradient>
<linearGradient id="paint18_linear_2_6" x1="35.2855" y1="71.9335" x2="57.4131" y2="64.0349" gradientUnits="userSpaceOnUse">
<stop stop-color="#21DEFF"/>
<stop offset="0.04" stop-color="#21DEFF" stop-opacity="0.88"/>
<stop offset="0.17" stop-color="#21DEFF" stop-opacity="0.51"/>
<stop offset="0.27" stop-color="#21DEFF" stop-opacity="0.23"/>
<stop offset="0.34" stop-color="#21DEFF" stop-opacity="0.06"/>
<stop offset="0.38" stop-color="#21DEFF" stop-opacity="0"/>
</linearGradient>
<linearGradient id="paint19_linear_2_6" x1="56.3325" y1="60.4805" x2="68.7109" y2="80.6673" gradientUnits="userSpaceOnUse">
<stop offset="0.62" stop-color="#21DEFF" stop-opacity="0"/>
<stop offset="0.66" stop-color="#21DEFF" stop-opacity="0.06"/>
<stop offset="0.73" stop-color="#21DEFF" stop-opacity="0.23"/>
<stop offset="0.83" stop-color="#21DEFF" stop-opacity="0.51"/>
<stop offset="0.96" stop-color="#21DEFF" stop-opacity="0.88"/>
<stop offset="1" stop-color="#21DEFF"/>
</linearGradient>
<linearGradient id="paint20_linear_2_6" x1="70.0698" y1="68.0448" x2="68.129" y2="58.5438" gradientUnits="userSpaceOnUse">
<stop stop-color="#44B044"/>
<stop offset="0.11" stop-color="#44B044" stop-opacity="0.8"/>
<stop offset="0.27" stop-color="#44B044" stop-opacity="0.52"/>
<stop offset="0.43" stop-color="#44B044" stop-opacity="0.29"/>
<stop offset="0.58" stop-color="#44B044" stop-opacity="0.13"/>
<stop offset="0.7" stop-color="#44B044" stop-opacity="0.03"/>
<stop offset="0.8" stop-color="#44B044" stop-opacity="0"/>
</linearGradient>
<linearGradient id="paint21_linear_2_6" x1="42.9325" y1="58.1556" x2="83.9154" y2="71.7187" gradientUnits="userSpaceOnUse">
<stop stop-color="#3066FB"/>
<stop offset="0.38" stop-color="#2F64F7"/>
<stop offset="0.74" stop-color="#2857D9"/>
<stop offset="1" stop-color="#3C7EFF"/>
</linearGradient>
<radialGradient id="paint22_radial_2_6" cx="0" cy="0" r="1" gradientUnits="userSpaceOnUse" gradientTransform="translate(71.2966 63.3076) rotate(98.6826) scale(22.0592 14.5574)">
<stop stop-color="#1A3D9C"/>
<stop offset="0.4" stop-color="#1A3D9C" stop-opacity="0.42"/>
<stop offset="0.7" stop-color="#1A3D9C" stop-opacity="0"/>
</radialGradient>
<radialGradient id="paint23_radial_2_6" cx="0" cy="0" r="1" gradientUnits="userSpaceOnUse" gradientTransform="translate(13364.2 -34381.8) rotate(98.69) scale(2713.59 1463.14)">
<stop stop-color="#1A3D9C"/>
<stop offset="0.4" stop-color="#1A3D9C" stop-opacity="0.42"/>
<stop offset="0.7" stop-color="#1A3D9C" stop-opacity="0"/>
</radialGradient>
<radialGradient id="paint24_radial_2_6" cx="0" cy="0" r="1" gradientUnits="userSpaceOnUse" gradientTransform="translate(11736.9 -34902.5) rotate(98.6156) scale(3231.74 1335.11)">
<stop stop-color="#1A3D9C"/>
<stop offset="0.4" stop-color="#1A3D9C" stop-opacity="0.42"/>
<stop offset="0.7" stop-color="#1A3D9C" stop-opacity="0"/>
</radialGradient>
<radialGradient id="paint25_radial_2_6" cx="0" cy="0" r="1" gradientUnits="userSpaceOnUse" gradientTransform="translate(68.7973 64.0929) rotate(83.0813) scale(19.2814 13.4527)">
<stop stop-color="#1A3D9C"/>
<stop offset="0.16" stop-color="#1A3D9C" stop-opacity="0.69"/>
<stop offset="0.33" stop-color="#1A3D9C" stop-opacity="0.4"/>
<stop offset="0.49" stop-color="#1A3D9C" stop-opacity="0.18"/>
<stop offset="0.61" stop-color="#1A3D9C" stop-opacity="0.05"/>
<stop offset="0.7" stop-color="#1A3D9C" stop-opacity="0"/>
</radialGradient>
<radialGradient id="paint26_radial_2_6" cx="0" cy="0" r="1" gradientUnits="userSpaceOnUse" gradientTransform="translate(72.6182 66.5684) rotate(74.6311) scale(18.5304 12.6019)">
<stop stop-color="#18388F"/>
<stop offset="0.37" stop-color="#193B96" stop-opacity="0.45"/>
<stop offset="0.7" stop-color="#1A3D9C" stop-opacity="0"/>
</radialGradient>
<radialGradient id="paint27_radial_2_6" cx="0" cy="0" r="1" gradientUnits="userSpaceOnUse" gradientTransform="translate(70.7393 71.6363) rotate(74.6428) scale(8.61171 8.18404)">
<stop stop-color="#18388F"/>
<stop offset="0.09" stop-color="#183992" stop-opacity="0.78"/>
<stop offset="0.22" stop-color="#193B96" stop-opacity="0.5"/>
<stop offset="0.35" stop-color="#193C98" stop-opacity="0.28"/>
<stop offset="0.47" stop-color="#1A3C9A" stop-opacity="0.13"/>
<stop offset="0.59" stop-color="#1A3D9C" stop-opacity="0.03"/>
<stop offset="0.7" stop-color="#1A3D9C" stop-opacity="0"/>
</radialGradient>
<radialGradient id="paint28_radial_2_6" cx="0" cy="0" r="1" gradientUnits="userSpaceOnUse" gradientTransform="translate(70.9474 73.0335) rotate(74.6428) scale(8.61171 8.18404)">
<stop stop-color="#1A3D9C" stop-opacity="0.8"/>
<stop offset="0.01" stop-color="#1A3D9C" stop-opacity="0.78"/>
<stop offset="0.24" stop-color="#1A3D9C" stop-opacity="0.45"/>
<stop offset="0.44" stop-color="#1A3D9C" stop-opacity="0.2"/>
<stop offset="0.6" stop-color="#1A3D9C" stop-opacity="0.05"/>
<stop offset="0.7" stop-color="#1A3D9C" stop-opacity="0"/>
</radialGradient>
<radialGradient id="paint29_radial_2_6" cx="0" cy="0" r="1" gradientUnits="userSpaceOnUse" gradientTransform="translate(50.4355 67.6704) rotate(67.0292) scale(20.5615 13.6462)">
<stop stop-color="#1A3D9C"/>
<stop offset="0.4" stop-color="#1A3D9C" stop-opacity="0.56"/>
<stop offset="0.48" stop-color="#1A3D9C" stop-opacity="0.43"/>
<stop offset="0.69" stop-color="#1A3D9C" stop-opacity="0.12"/>
<stop offset="0.79" stop-color="#1A3D9C" stop-opacity="0"/>
</radialGradient>
<radialGradient id="paint30_radial_2_6" cx="0" cy="0" r="1" gradientUnits="userSpaceOnUse" gradientTransform="translate(48.0112 62.5323) rotate(76.0913) scale(15.2506 10.0687)">
<stop stop-color="#1A3D9C"/>
<stop offset="0.06" stop-color="#1A3D9C" stop-opacity="0.88"/>
<stop offset="0.21" stop-color="#1A3D9C" stop-opacity="0.61"/>
<stop offset="0.36" stop-color="#1A3D9C" stop-opacity="0.39"/>
<stop offset="0.51" stop-color="#1A3D9C" stop-opacity="0.22"/>
<stop offset="0.67" stop-color="#1A3D9C" stop-opacity="0.1"/>
<stop offset="0.83" stop-color="#1A3D9C" stop-opacity="0.02"/>
<stop offset="1" stop-color="#1A3D9C" stop-opacity="0"/>
</radialGradient>
<radialGradient id="paint31_radial_2_6" cx="0" cy="0" r="1" gradientUnits="userSpaceOnUse" gradientTransform="translate(48.0112 62.5323) rotate(76.0913) scale(15.2506 10.0687)">
<stop stop-color="#1B3E9E"/>
<stop offset="0.06" stop-color="#1B3E9E" stop-opacity="0.87"/>
<stop offset="0.21" stop-color="#1B3E9D" stop-opacity="0.61"/>
<stop offset="0.36" stop-color="#1A3D9D" stop-opacity="0.39"/>
<stop offset="0.52" stop-color="#1A3D9C" stop-opacity="0.22"/>
<stop offset="0.67" stop-color="#1A3D9C" stop-opacity="0.1"/>
<stop offset="0.83" stop-color="#1A3D9C" stop-opacity="0.02"/>
<stop offset="1" stop-color="#1A3D9C" stop-opacity="0"/>
</radialGradient>
<radialGradient id="paint32_radial_2_6" cx="0" cy="0" r="1" gradientUnits="userSpaceOnUse" gradientTransform="translate(48.983 62.0543) rotate(76.0887) scale(11.6687 7.70337)">
<stop stop-color="#183991"/>
<stop offset="0.03" stop-color="#183992" stop-opacity="0.95"/>
<stop offset="0.18" stop-color="#193A95" stop-opacity="0.66"/>
<stop offset="0.34" stop-color="#193B97" stop-opacity="0.42"/>
<stop offset="0.5" stop-color="#1A3C99" stop-opacity="0.24"/>
<stop offset="0.66" stop-color="#1A3D9B" stop-opacity="0.1"/>
<stop offset="0.82" stop-color="#1A3D9C" stop-opacity="0.03"/>
<stop offset="1" stop-color="#1A3D9C" stop-opacity="0"/>
</radialGradient>
<radialGradient id="paint33_radial_2_6" cx="0" cy="0" r="1" gradientUnits="userSpaceOnUse" gradientTransform="translate(51.5766 62.7827) rotate(87.1289) scale(9.21827 8.11848)">
<stop offset="0.04" stop-color="#2453D6" stop-opacity="0.6"/>
<stop offset="0.2" stop-color="#2453D6" stop-opacity="0.49"/>
<stop offset="0.52" stop-color="#2453D6" stop-opacity="0.2"/>
<stop offset="0.73" stop-color="#2453D6" stop-opacity="0"/>
</radialGradient>
<linearGradient id="paint34_linear_2_6" x1="69.5749" y1="41.4764" x2="59.2163" y2="67.0568" gradientUnits="userSpaceOnUse">
<stop stop-color="#3774FF"/>
<stop offset="0.05" stop-color="#3774FF" stop-opacity="0.91"/>
<stop offset="0.16" stop-color="#3774FF" stop-opacity="0.66"/>
<stop offset="0.32" stop-color="#3774FF" stop-opacity="0.28"/>
<stop offset="0.43" stop-color="#3774FF" stop-opacity="0"/>
</linearGradient>
</defs>
</svg>
