<?xml version="1.0" encoding="UTF-8" standalone="no"?>
<svg viewBox="0 0 266 150" xmlns="http://www.w3.org/2000/svg" xmlns:xlink="http://www.w3.org/1999/xlink" xml:space="preserve" style="fill-rule:evenodd;clip-rule:evenodd;stroke-linecap:round;stroke-linejoin:round;stroke-miterlimit:10">
  <defs>
    <path d="M0 1.699h-2.804a.85.85 0 0 1 0-1.699H0a.85.85 0 1 1 0 1.699" style="fill:#c5e2a6;fill-rule:nonzero" id="reuse-0"/>
    <path d="M0 8.511h-3.607a.927.927 0 0 1-.927-.927V.927c0-.512.415-.927.927-.927H0c.512 0 .927.415.927.927v6.657A.927.927 0 0 1 0 8.511" style="fill:#ddeeca;fill-rule:nonzero" id="reuse-1"/>
    <path d="M-1.394-3.407a1.989 1.989 0 1 0 0 3.978 1.989 1.989 0 0 0 0-3.978" style="fill:#fff;fill-rule:nonzero" id="reuse-2"/>
    <path d="M-1.394-3.408a1.989 1.989 0 1 0 0 3.978 1.989 1.989 0 0 0 0-3.978" style="fill:#fff;fill-rule:nonzero" id="reuse-3"/>
    <path d="M0-2.396a1.053 1.053 0 0 0-.44.002c-.529.118-1.034.568-1.008 1.152.024.548.279 1.108.866 1.219C-.3.031.167-.066.402-.23c.536-.373.703-1.141.329-1.684A1.186 1.186 0 0 0 0-2.396" style="fill:#add583;fill-rule:nonzero" id="reuse-4"/>
    <path d="M0 4.8h-3.922a.439.439 0 0 1-.438-.439V.439c0-.243.196-.439.438-.439H0c.243 0 .439.196.439.439v3.922A.439.439 0 0 1 0 4.8" style="fill:#b9dc94" id="reuse-5"/>
    <path d="M0-4.643V.001a1.139 1.139 0 0 1-2.277 0v-4.644c0-.623.51-1.139 1.138-1.139C-.51-5.782 0-5.266 0-4.643" style="fill:#8cc44a;fill-rule:nonzero" id="reuse-6"/>
    <path d="M-7.004-2.901h8.206" style="fill:none;fill-rule:nonzero;stroke:#f2692b;stroke-width:1px;stroke-linecap:butt;stroke-linejoin:miter" id="reuse-7"/>
    <path d="M-1.202-2.901h8.206" style="fill:none;fill-rule:nonzero;stroke:#f2692b;stroke-width:1px;stroke-linecap:butt;stroke-linejoin:miter" id="reuse-8"/>
  </defs>
  <path style="fill:none" d="M0 0h266v150H0z"/>
  <g>
    <path style="fill:#c8c1c5" d="M0 56.487h265.999v25.508H0z" transform="translate(0 11.518)"/>
    <path d="M0 32.81a23.237 23.237 0 0 0 2.015-9.481C2.015 10.445-8.43 0-21.314 0s-23.329 10.445-23.329 23.329c0 3.377.724 6.583 2.015 9.481H0Z" style="fill:#f48656;fill-rule:nonzero" transform="translate(71.278 35.33)"/>
    <path d="M0 16.55-45.707 0l41.098.666-24.21 3.126 24.011.885-16.377 1.867 14.984 1.528-8.237 1.204 8.244 1.393-3.516.657 5.711 1.452-2.45.272L0 16.55Z" style="fill:#eceaeb;fill-rule:nonzero" transform="translate(77.291 69.344)"/>
    <path style="fill:#d0e7b8" d="M19.572 8.18h25.995v6.714H19.572z" transform="translate(0 126.926)"/>
    <path d="M0-20.729V0c0 .964-.782 1.738-1.738 1.738h-75.599A1.738 1.738 0 0 1-79.075 0v-20.729c0-.964.782-1.738 1.738-1.738h75.599c.956 0 1.738.774 1.738 1.738" style="fill:#a1cf70;fill-rule:nonzero" transform="translate(122.516 140.082)"/>
    <path d="M39.556-40.426a1.76 1.76 0 0 1 1.72 1.8l-1.72 75.533a1.76 1.76 0 0 1-1.8 1.719l1.8-79.052Z" style="fill:#8cc44a;fill-rule:nonzero" transform="scale(-1 1) rotate(88.696 -94.265 7.362)"/>
    <path style="fill:#8cc44a" d="M43.444 20.282h79.067v.92H43.444z" transform="translate(0 108.516)"/>
    <path d="M0-4.931v1.713c0 .424-.166.84-.465 1.139L-2.079-.466c-.299.3-.715.466-1.139.466h-1.713v-3.193c0-.965.782-1.738 1.738-1.738H0Z" style="fill:#462e3b;fill-rule:nonzero" transform="translate(48.372 122.547)" opacity=".6"/>
    <path d="M-.832-.832A.833.833 0 1 0-.831.833.833.833 0 0 0-.832-.832" style="fill:#ddeeca;fill-rule:nonzero" transform="matrix(0 -1 -1 0 45.567 118.907)"/>
    <path d="M0-1.455v3.193h-1.713c-.433 0-.84-.166-1.14-.465L-4.466-.341A1.626 1.626 0 0 1-4.94-1.48v-1.713h3.202C-.782-3.193 0-2.419 0-1.455" style="fill:#462e3b;fill-rule:nonzero" transform="translate(122.516 120.808)" opacity=".6"/>
    <path d="M.832-.832A.833.833 0 1 1 .831.833.833.833 0 0 1 .832-.832" style="fill:#ddeeca;fill-rule:nonzero" transform="matrix(0 1 1 0 120.387 118.907)"/>
    <path d="M0-4.931v3.193C0-.773-.782 0-1.738 0H-4.94v-1.713c0-.424.175-.84.474-1.139l1.613-1.614c.3-.299.707-.465 1.14-.465H0Z" style="fill:#462e3b;fill-rule:nonzero" transform="translate(122.516 141.82)" opacity=".6"/>
    <path d="M.832-.832A.833.833 0 1 0 .833.833.833.833 0 0 0 .832-.832" style="fill:#ddeeca;fill-rule:nonzero" transform="matrix(0 1 1 0 120.387 138.865)"/>
    <path d="M0 1.505v1.713h-3.193A1.738 1.738 0 0 1-4.931 1.48v-3.193h1.713c.424 0 .84.166 1.139.465L-.465.365c.299.3.465.716.465 1.14" style="fill:#462e3b;fill-rule:nonzero" transform="translate(48.372 138.602)" opacity=".6"/>
    <path d="M-.832-.832A.833.833 0 1 1-.833.833.833.833 0 0 1-.832-.832" style="fill:#ddeeca;fill-rule:nonzero" transform="matrix(0 -1 -1 0 45.567 138.865)"/>
    <use style="fill:#c5e2a6;fill-rule:nonzero" transform="translate(92.12 130.868)" xlink:href="#reuse-0"/>
    <use style="fill:#c5e2a6;fill-rule:nonzero" transform="translate(76.638 130.868)" xlink:href="#reuse-0"/>
    <path d="M0-5.391c.064.467.122.935.168 1.402l.036.35c.009.126.01.294.011.44-.018.303-.056.61-.144.906a3.883 3.883 0 0 1-2.549 2.6 3.937 3.937 0 0 1-.95.185c-.32.023-.491.018-.744.029l-1.402.043-2.804.034-2.805-.033-1.402-.043c-.253-.011-.425-.007-.744-.03a3.943 3.943 0 0 1-.951-.184 3.887 3.887 0 0 1-2.549-2.601 4.007 4.007 0 0 1-.144-.906c.001-.146.002-.314.011-.44l.036-.35a37.2 37.2 0 0 1 .169-1.402.644.644 0 0 1 1.274 0c.065.467.122.935.169 1.402l.036.35.043.261c.045.16.092.315.171.457.274.578.826.975 1.39 1.087.142.026.286.042.431.031l.658-.018 1.402-.043 2.805-.033 2.804.033 1.402.043.658.019a1.69 1.69 0 0 0 .431-.031 2.008 2.008 0 0 0 1.391-1.088 2.12 2.12 0 0 0 .171-.457l.042-.261.036-.35c.047-.467.105-.935.169-1.402a.643.643 0 0 1 1.274 0" style="fill:#ddeeca;fill-rule:nonzero" transform="translate(91.356 137.451)"/>
    <use style="fill:#ddeeca;fill-rule:nonzero" transform="translate(106.04 125.003)" xlink:href="#reuse-1"/>
    <path d="M0 3.447h-3.28a.472.472 0 0 1-.472-.472V.472c0-.261.211-.472.472-.472H0c.261 0 .472.211.472.472v2.503A.472.472 0 0 1 0 3.447" style="fill:#a1cf70;fill-rule:nonzero" transform="translate(105.876 129.531)"/>
    <use style="fill:#ddeeca;fill-rule:nonzero" transform="translate(63.521 125.003)" xlink:href="#reuse-1"/>
    <path d="M0 3.447h-3.28a.472.472 0 0 1-.472-.472V.472c0-.26.211-.472.472-.472H0c.261 0 .473.212.473.472v2.503A.472.472 0 0 1 0 3.447" style="fill:#a1cf70;fill-rule:nonzero" transform="translate(63.358 129.41)"/>
    <path d="M0 16.526h-1.614L-16.213 1.223A.73.73 0 0 1-15.676 0h29.735a.73.73 0 0 1 .537 1.223L0 16.526Z" style="fill:#eceaeb;fill-rule:nonzero" transform="translate(132.325 72.425)"/>
    <path d="M-24.779-1.211h16.308l1.123-1.164-.585-16.299-16.846 17.463Z" style="fill:#f5956c;fill-rule:nonzero" transform="scale(-1 1) rotate(46.031 -176.525 -101.91)"/>
    <path d="M-11.902-12.359c-.273 0-.954 5.433-.954 12.132 0 6.7.681 12.129.954 12.129.274 0 .496-5.431.496-12.131 0-6.699-.222-12.13-.496-12.13" style="fill:#f8b396;fill-rule:nonzero" transform="matrix(0 -1 -1 0 131.287 65.315)"/>
    <path d="M-6.542-6.11c-.342 0-.619 2.832-.619 6.326 0 3.493.277 6.326.619 6.326.342 0 1.051-2.833 1.051-6.326 0-3.494-.709-6.326-1.051-6.326" style="fill:#c8c1c5;fill-rule:nonzero" transform="matrix(0 -1 -1 0 131.732 99.989)"/>
    <path style="fill:#dad5d8" d="M130.708 43.686h1.617v17.361h-1.617z" transform="translate(0 45.267)"/>
    <path d="M-.807-.807c-.065 0-.117.361-.117.807 0 .446.052.807.117.807C-.743.807-.69.446-.69 0c0-.446-.053-.807-.117-.807" style="fill:#f37743;fill-rule:nonzero" transform="matrix(0 -1 -1 0 131.518 88.147)"/>
    <path d="M-10.377-13.505c-5.932 0-10.74 4.809-10.74 10.74.001 5.931 4.809 10.739 10.74 10.739C-4.445 7.973.362 3.166.363-2.766c-.001-5.932-4.809-10.739-10.74-10.739" style="fill:#f6a480;fill-rule:nonzero" transform="scale(-1 1) rotate(-75.072 -14.038 104.463)"/>
    <path d="M-9.249-12.038c-5.287 0-9.573 4.286-9.573 9.572a9.573 9.573 0 1 0 19.145.001c0-5.287-4.286-9.572-9.572-9.573" style="fill:#fff;fill-rule:nonzero" transform="scale(-1 1) rotate(-75.075 -13.673 105.343)"/>
    <path d="M-1.668-2.171a1.727 1.727 0 1 0 0 3.452 1.727 1.727 0 0 0 0-3.452" style="fill:#fff;fill-rule:nonzero" transform="scale(-1 1) rotate(-75.078 -11.2 111.282)"/>
    <path d="m0 7.204-.263.07a.284.284 0 0 1-.315-.124l-3.549-5.697a.284.284 0 0 1 .168-.425A15.32 15.32 0 0 1 .097-.053a.284.284 0 0 1 .357.285L.211 6.939A.284.284 0 0 1 0 7.204" style="fill:#f5956c;fill-rule:nonzero" transform="translate(116.391 64.396)"/>
    <path d="m0 5.733-.171.211a.284.284 0 0 1-.328.085l-6.22-2.523a.283.283 0 0 1-.114-.442A15.288 15.288 0 0 1-4.187-.195a.285.285 0 0 1 .457.021L.016 5.395A.285.285 0 0 1 0 5.733" style="fill:#f48656;fill-rule:nonzero" transform="translate(115.45 66.376)"/>
    <path d="m0 .458-.015.271A.283.283 0 0 1-.23.99l-6.515 1.616a.285.285 0 0 1-.352-.292 15.303 15.303 0 0 1 .225-4.191.284.284 0 0 1 .381-.252L-.187.175A.285.285 0 0 1 0 .458" style="fill:#f5956c;fill-rule:nonzero" transform="translate(114.988 72.617)"/>
    <path d="m0-5.696.147.229a.281.281 0 0 1-.021.337L-4.194.007a.284.284 0 0 1-.456-.029 15.305 15.305 0 0 1-2.282-3.523.284.284 0 0 1 .161-.428l6.454-1.842A.285.285 0 0 1 0-5.696" style="fill:#f48656;fill-rule:nonzero" transform="translate(115.181 79.823)"/>
    <path d="m0-7.348.254.098c.117.045.19.161.182.286L-.041-.269a.284.284 0 0 1-.386.245 15.346 15.346 0 0 1-3.917-1.51.284.284 0 0 1-.121-.44l4.139-5.284A.285.285 0 0 1 0-7.348" style="fill:#f5956c;fill-rule:nonzero" transform="translate(115.956 82.213)"/>
    <path d="m0-7.205.263-.07a.284.284 0 0 1 .315.125l3.549 5.696a.284.284 0 0 1-.168.425A15.281 15.281 0 0 1-.097.052a.283.283 0 0 1-.357-.285l.243-6.707A.284.284 0 0 1 0-7.205" style="fill:#f48656;fill-rule:nonzero" transform="translate(117.017 82.21)"/>
    <path d="m0-5.735.171-.211a.285.285 0 0 1 .328-.084l6.22 2.522a.283.283 0 0 1 .114.442A15.288 15.288 0 0 1 4.187.193a.285.285 0 0 1-.457-.02l-3.745-5.57A.284.284 0 0 1 0-5.735" style="fill:#f5956c;fill-rule:nonzero" transform="translate(117.959 80.232)"/>
    <path d="m0-.458.015-.271A.283.283 0 0 1 .23-.99l6.515-1.616c.186-.046.363.1.353.291a15.338 15.338 0 0 1-.225 4.191.285.285 0 0 1-.382.252L.187-.176A.284.284 0 0 1 0-.458" style="fill:#f48656;fill-rule:nonzero" transform="translate(118.421 73.99)"/>
    <path d="m0 5.696-.148-.228a.284.284 0 0 1 .021-.338L4.194-.006a.284.284 0 0 1 .456.028 15.322 15.322 0 0 1 2.282 3.524.284.284 0 0 1-.161.428L.317 5.815A.285.285 0 0 1 0 5.696" style="fill:#f5956c;fill-rule:nonzero" transform="translate(118.227 66.782)"/>
    <path d="m0 7.347-.254-.098a.285.285 0 0 1-.182-.285L.041.269A.285.285 0 0 1 .427.023c1.375.324 2.68.827 3.917 1.51.178.068.239.29.121.44L.326 7.257a.283.283 0 0 1-.326.09" style="fill:#f48656;fill-rule:nonzero" transform="translate(117.452 64.394)"/>
    <path d="M-6.542 6.286H4.327a.726.726 0 0 0 .512-1.232l-7.413-7.777a10.681 10.681 0 0 0-3.968 9.009" style="fill:#fff;fill-rule:nonzero" transform="scale(-1 1) rotate(-46.376 22.735 180.553)" opacity=".4"/>
    <path d="m0-41.014 11.6 11.389a1.25 1.25 0 0 1 .016 1.762L-15.723-.016A1.245 1.245 0 0 1-17.485 0l-11.6-11.389a1.245 1.245 0 0 1-.017-1.762l27.339-27.846A1.25 1.25 0 0 1 0-41.014" style="fill:#6a5761;fill-rule:nonzero" transform="translate(36.753 141.504)"/>
    <g opacity=".1">
      <use style="fill:#fff;fill-rule:nonzero" transform="scale(-1 1) rotate(-44.481 115.588 101.811)" xlink:href="#reuse-2"/>
      <use style="fill:#fff;fill-rule:nonzero" transform="scale(-1 1) rotate(-44.47 125.822 103.331)" xlink:href="#reuse-3"/>
      <use style="fill:#fff;fill-rule:nonzero" transform="scale(-1 1) rotate(-44.481 122.617 93.663)" xlink:href="#reuse-2"/>
      <use style="fill:#fff;fill-rule:nonzero" transform="scale(-1 1) rotate(-44.47 134.379 88.075)" xlink:href="#reuse-3"/>
      <use style="fill:#fff;fill-rule:nonzero" transform="scale(-1 1) rotate(-44.47 142.316 79.956)" xlink:href="#reuse-3"/>
      <path d="M-1.393-3.408a1.99 1.99 0 0 0-1.99 1.989 1.989 1.989 0 1 0 1.99-1.989" style="fill:#fff;fill-rule:nonzero" transform="scale(-1 1) rotate(-44.481 147.652 87.895)"/>
      <use style="fill:#fff;fill-rule:nonzero" transform="scale(-1 1) rotate(-44.481 158.213 92.902)" xlink:href="#reuse-2"/>
      <path d="M0-2.435A1.99 1.99 0 0 1-.527.77l-2.667-2.62a1.87 1.87 0 0 1 .38-.554A1.991 1.991 0 0 1 0-2.435" style="fill:#fff;fill-rule:nonzero" transform="translate(16.103 137.11)"/>
      <use style="fill:#fff;fill-rule:nonzero" transform="scale(-1 1) rotate(-44.481 152.836 77.668)" xlink:href="#reuse-2"/>
      <path d="M0-2.277c.083.082.156.164.217.257L-2.522.77a1.984 1.984 0 0 1-.287-3.021A1.984 1.984 0 0 1 0-2.277" style="fill:#fff;fill-rule:nonzero" transform="translate(32.534 131.569)"/>
      <path d="m0-3.692.878.862c.489.481.497 1.274.017 1.763L-.153 0a1.907 1.907 0 0 1-.588-.391 2 2 0 0 1-.026-2.82c.224-.228.487-.385.767-.481" style="fill:#fff;fill-rule:nonzero" transform="translate(47.474 114.708)"/>
      <use style="fill:#fff;fill-rule:nonzero" transform="scale(-1 1) rotate(-44.481 109.816 93.22)" xlink:href="#reuse-2"/>
      <path d="M0-3.273A2.002 2.002 0 0 1-.23-.771a2.003 2.003 0 0 1-2.499.277L0-3.273Z" style="fill:#fff;fill-rule:nonzero" transform="translate(26.303 112.628)"/>
      <use style="fill:#fff;fill-rule:nonzero" transform="scale(-1 1) rotate(-44.47 134.838 98.835)" xlink:href="#reuse-2"/>
    </g>
    <path style="fill:#462e3b" d="M-6.55 14.674h41.52v.937H-6.55z" transform="scale(1 -1) rotate(45.526 176.625 -39.3)" opacity=".8"/>
    <path d="M0-9.872c.253.187.501.379.743.579.218.158.58.485.765.836a2.59 2.59 0 0 1 .047 2.428 2.613 2.613 0 0 1-.357.539c-.138.163-.22.243-.333.368l-.635.687-1.295 1.352-1.327 1.319-.675.648-.362.34a2.608 2.608 0 0 1-.532.366 2.59 2.59 0 0 1-2.43-.002c-.354-.179-.688-.534-.85-.75-.203-.237-.4-.482-.592-.732l.596-.606c.513.339 1.003.887 1.371.955.405.139.851.063 1.168-.154.079-.055.154-.117.216-.191l.299-.321.635-.688 1.295-1.35 1.327-1.32.676-.648.316-.304c.073-.064.133-.14.187-.22a1.34 1.34 0 0 0 .132-1.171c-.075-.367-.632-.846-.981-1.353L0-9.872Z" style="fill:#462e3b;fill-rule:nonzero" transform="translate(32.296 127.244)"/>
    <path d="M0-.541-1.311.793A.565.565 0 1 1-2.119 0l1.31-1.335A.567.567 0 1 1 0-.541" style="fill:#462e3b;fill-rule:nonzero" transform="translate(33.057 117.946)"/>
    <path d="M0-.541-1.311.793A.566.566 0 1 1-2.12 0l1.311-1.335A.566.566 0 1 1 0-.541" style="fill:#462e3b;fill-rule:nonzero" transform="translate(25.82 125.318)"/>
    <path d="M0-5.293a3.747 3.747 0 0 1 1.121 2.639A3.701 3.701 0 0 1 .054 0L-1.73-1.752a1.244 1.244 0 0 1-.016-1.762L0-5.293Z" style="fill:#a2969c;fill-rule:nonzero" transform="translate(9.397 131.867)"/>
    <path d="M0-2.401 1.784-.649A3.73 3.73 0 0 1-.855.471 3.746 3.746 0 0 1-3.514-.6l1.751-1.784A1.25 1.25 0 0 1 0-2.401" style="fill:#a2969c;fill-rule:nonzero" transform="translate(36.753 102.891)"/>
    <path d="m0-1.364.239.235A3.73 3.73 0 0 1-2.4-.009 3.746 3.746 0 0 1-5.059-1.08l.235-.24a3.736 3.736 0 0 0 2.42.859A3.72 3.72 0 0 0 0-1.364" style="fill:#eceaeb;fill-rule:nonzero" transform="translate(38.298 103.371)"/>
    <path d="m0 4.828.239.235a3.735 3.735 0 0 0 1.072-2.66A3.743 3.743 0 0 0 .19-.235l-.234.238A3.75 3.75 0 0 1 0 4.828" style="fill:#eceaeb;fill-rule:nonzero" transform="translate(9.21 126.807)"/>
    <path d="m0-5.298 1.784 1.751c.489.481.497 1.274.017 1.763L.049 0a3.734 3.734 0 0 1-1.12-2.639A3.73 3.73 0 0 1 0-5.298" style="fill:#a2969c;fill-rule:nonzero" transform="translate(46.568 115.425)"/>
    <path d="M0-1.195-1.747.584A1.245 1.245 0 0 1-3.509.6l-1.784-1.752A3.7 3.7 0 0 1-2.66-2.266 3.73 3.73 0 0 1 0-1.195" style="fill:#a2969c;fill-rule:nonzero" transform="translate(22.776 140.904)"/>
    <path d="m0 1.364-.239-.235A3.734 3.734 0 0 1 2.4.009a3.745 3.745 0 0 1 2.659 1.072l-.234.239A3.746 3.746 0 0 0 0 1.364" style="fill:#eceaeb;fill-rule:nonzero" transform="translate(17.72 138.625)"/>
    <path d="m0-4.83-.239-.234A3.747 3.747 0 0 0-.19.234l.234-.239A3.75 3.75 0 0 1 0-4.83" style="fill:#eceaeb;fill-rule:nonzero" transform="translate(46.807 115.191)"/>
    <path d="M0-8.636c-2.241.496-4.726.536-6.047.671-4.736.487-6.811 3.045-6.284 7.892 6.414.463 16.158.73 22.569.331.079-3.931-6.509-6.533-8.155-9.551C1.448-9.011.737-8.8 0-8.636" style="fill:#462d3b;fill-rule:nonzero" transform="translate(154.469 140.389)"/>
    <path d="M0-2.817c.73-.287 1.545.021 1.982.673a9.315 9.315 0 0 1 1.395 3.381.412.412 0 0 1-.339.48c-.954.15-1.932.204-2.862-.039C-.887 1.4-1.885.67-2.231-.374a4.35 4.35 0 0 1 1.012 3.855c-.044.187-.106.381-.248.509-.143.129-.342.17-.531.207l-1.421.276c-.816.158-1.785.272-2.365-.323-.595-.609-.422-1.647.041-2.362.463-.714 1.154-1.26 1.608-1.98a12.24 12.24 0 0 0-4.083 1.579c-.26.158-.603.004-.629-.3a15.067 15.067 0 0 1 .182-3.921c.113-.628.427-1.389 1.065-1.403.25-.006.484.115.705.233l2.565 1.369c-.617-.664-1.136-1.465-1.253-2.364-.116-.899.249-1.9 1.042-2.338.264-.146.579-.225.869-.147.243.066.443.233.633.396.803.69 1.576 1.413 2.317 2.167.155.158.153.41.003.572-.651.705-1.341 1.637-1.483 2.524.65-.106 1.435-.691 2.202-.992" style="fill:#a1cf70;fill-rule:nonzero" transform="translate(153.659 106.974)"/>
    <path d="M0-9.055c-1.072.668-2.049 1.476-3.021 2.282l-5.72 4.733c-1.066.882-2.227 1.805-3.607 1.909-1.734.131-3.259-1.053-4.591-2.171l-5.683-4.771c-.576-.483-1.187-.984-1.926-1.124-.739-.14-1.632.228-1.799.962" style="fill:none;fill-rule:nonzero;stroke:#462e3b;stroke-width:10.38px" transform="translate(157.954 103.18)"/>
    <path d="M0-71.177c-.034 1-.229 2.137-.619 2.908-2.772 5.536-4.35 11.404-5.927 16.779-3.34 11.401-4.213 22.787-3.654 35.63C-9.868-8.306-5.833-2.691 1.697-.883c3.677.883 7.51.773 11.29.658 10.426-.318 18.356-.03 28.565-.03 17.704 0 32.072-6.407 42.161-21.607 6.154-9.274 10.012-18.93 10.622-29.628.118-2.01.127-4.044.008-6.129-.084-1.493-.627-4.409-.627-4.409-2.857 1.611-5.832 2.458-8.808.509-1.535-1.001-2.111-.009-3.103.763-3.221 2.535-7.468 1.559-9.266-2.077-.517-1.06-.898-1.95-2.331-1.967-1.534-.025-2.407-1.145-3.061-2.416-1.78 3.018-4.272 7.146-6.145 13.123-.28.898-.526 1.755-.764 2.603-2.135 7.756-2.458 13.733-4.196 22.041-1.627 7.808-5.477 15.946-13.267 19.548-2.001.874-2.662.246-2.662.246 1.263-2.17 2.535-7.511 2.662-10.122.746-15.199-10.14-26.2-13.123-34.563-1.662-4.663-2.868-6.886-5.093-14.808" style="fill:#f2692b;fill-rule:nonzero" transform="translate(163.739 141.756)"/>
    <path d="M0 1.417a17.286 17.286 0 0 1-1.374-3.479c-.565-.488-1.041-1.201-1.397-1.85a.409.409 0 0 0-.54-.179c-.95.46-1.879.96-2.799 1.5-.21.119-.431.259-.57.469-.171.25-.2.571-.15.871.16.89.99 1.56 1.88 1.74.889.179 1.819-.06 2.639-.43-.7.67-1.41 1.33-2.12 1.99-.179.17-.37.349-.439.59-.2.61.42 1.15.979 1.46 1.151.64 2.38 1.12 3.661 1.44.29.069.549-.21.48-.5A12.299 12.299 0 0 1 0 1.417" style="fill:#b84425;fill-rule:nonzero" transform="translate(191.053 79.191)"/>
    <path d="M0-2.523c.739-.263 1.544.07 1.959.735a9.333 9.333 0 0 1 1.287 3.424.413.413 0 0 1-.355.47c-.958.119-1.937.142-2.859-.13-1.054-.312-2.028-1.074-2.34-2.128a4.345 4.345 0 0 1 .888 3.884c-.049.186-.118.378-.264.502-.147.124-.347.159-.536.189l-1.43.231c-.821.132-1.793.215-2.354-.398-.575-.628-.368-1.66.117-2.36.485-.699 1.193-1.222 1.67-1.927a12.227 12.227 0 0 0-4.131 1.447c-.265.15-.603-.015-.619-.319-.069-1.31.034-2.63.307-3.913.133-.625.471-1.375 1.109-1.369.25.002.48.131.697.256l2.52 1.449c-.595-.683-1.088-1.5-1.176-2.402-.089-.903.308-1.891 1.115-2.304.269-.137.586-.206.874-.118.24.073.435.246.62.415.78.715 1.529 1.463 2.247 2.24a.415.415 0 0 1-.016.572c-.673.684-1.393 1.594-1.563 2.475.654-.085 1.457-.645 2.233-.921" style="fill:#b84425;fill-rule:nonzero" transform="translate(185.813 88.41)"/>
    <path d="M0-2.524c.739-.263 1.544.07 1.959.736a9.304 9.304 0 0 1 1.287 3.423.412.412 0 0 1-.355.47c-.958.119-1.936.142-2.858-.13C-1.021 1.663-1.996.901-2.308-.153a4.347 4.347 0 0 1 .889 3.885c-.05.185-.119.377-.265.501-.147.124-.347.159-.536.189l-1.43.231c-.821.132-1.793.216-2.354-.398-.575-.628-.368-1.66.117-2.359.485-.7 1.193-1.223 1.67-1.928a12.227 12.227 0 0 0-4.131 1.447c-.265.15-.603-.015-.619-.319-.069-1.31.034-2.63.307-3.913.133-.624.471-1.375 1.109-1.369.25.002.48.131.697.256l2.52 1.45c-.595-.684-1.088-1.501-1.176-2.403-.088-.902.309-1.891 1.116-2.304.268-.137.585-.206.873-.118.24.073.435.246.621.416A37.946 37.946 0 0 1-.654-4.65a.415.415 0 0 1-.016.572c-.672.684-1.393 1.594-1.563 2.475.654-.085 1.457-.645 2.233-.921" style="fill:#b84425;fill-rule:nonzero" transform="translate(180.689 99.501)"/>
    <path d="M0-4.559c-.395-.677-.216-1.53.361-2.061a9.32 9.32 0 0 1 3.127-1.898.412.412 0 0 1 .527.262c.294.92.497 1.877.4 2.833-.111 1.094-.68 2.193-1.658 2.694A4.347 4.347 0 0 1 6.411-4.32c.191.014.392.046.541.167.149.121.22.311.285.492l.491 1.363c.282.782.543 1.721.044 2.386-.511.681-1.563.669-2.34.322C4.655.062 4.01-.537 3.229-.875a12.21 12.21 0 0 0 2.186 3.792c.196.232.096.595-.199.668a15.089 15.089 0 0 1-3.903.421c-.638-.015-1.438-.208-1.55-.836-.044-.247.04-.497.122-.733l.96-2.745C.283.404-.429 1.039-1.3 1.293c-.87.253-1.915.045-2.47-.671-.184-.238-.311-.537-.277-.836.027-.25.161-.474.293-.687a38.176 38.176 0 0 1 1.786-2.622.416.416 0 0 1 .565-.09c.796.534 1.823 1.074 2.721 1.078C1.114-3.162.415-3.848 0-4.559" style="fill:#b84425;fill-rule:nonzero" transform="translate(165.097 109.7)"/>
    <path d="M0 4.74c-.51.68-1.56.67-2.34.32-.78-.35-1.42-.95-2.2-1.29.49 1.39 1.23 2.68 2.18 3.8.2.23.1.59-.2.66-1.27.31-2.59.46-3.9.43-.64-.02-1.44-.21-1.55-.84-.04-.25.04-.5.12-.73.32-.92.64-1.83.96-2.75-.35.45-.77.87-1.25 1.18.02-1.29.05-2.57.11-3.84.54.25 1.1.43 1.62.44C-6.66 1.49-7.36.8-7.77.09c-.1-.17-.16-.35-.19-.54-.04-.22-.03-.45.04-.67.08-.32.25-.61.51-.85.9-.83 1.97-1.48 3.13-1.9.21-.08.45.05.52.26.3.92.5 1.88.4 2.84-.06.63-.28 1.27-.65 1.79.78-.5 1.72-.76 2.65-.69.19.01.39.05.54.17.15.12.22.31.29.49.16.45.32.91.49 1.36.28.78.54 1.72.04 2.39" style="fill:#b84425;fill-rule:nonzero" transform="translate(161.573 111.68)"/>
    <path d="M0-7.665c-.031-.732.444-1.414 1.149-1.613a9.305 9.305 0 0 1 3.774-.269.416.416 0 0 1 .348.48c-.166.95-.428 1.892-.958 2.693-.605.918-1.618 1.628-2.717 1.619a4.348 4.348 0 0 1 3.975.283c.163.101.326.223.403.399.076.176.05.378.025.568L5.803-2.07c-.114.823-.317 1.778-1.067 2.135-.768.367-1.695-.131-2.223-.799-.528-.668-.822-1.497-1.358-2.16a12.278 12.278 0 0 0 .181 4.374c.066.297-.19.572-.485.499A15.024 15.024 0 0 1-2.804.544c-.558-.308-1.177-.85-.986-1.459.075-.238.266-.421.448-.592l2.122-1.988c-.828.37-1.753.603-2.641.425-.889-.178-1.72-.846-1.879-1.739-.053-.296-.027-.62.141-.87.141-.208.362-.344.578-.472a38.281 38.281 0 0 1 2.797-1.496.415.415 0 0 1 .543.182c.458.842 1.119 1.796 1.912 2.216C.341-5.902.036-6.84 0-7.665" style="fill:#c5e2a6;fill-rule:nonzero" transform="translate(190.393 81.273)"/>
    <path d="M0-2.524c.738-.263 1.544.07 1.959.736a9.322 9.322 0 0 1 1.287 3.423.414.414 0 0 1-.355.47c-.958.119-1.937.142-2.859-.13C-1.022 1.663-1.996.901-2.309-.153a4.345 4.345 0 0 1 .889 3.884c-.05.186-.118.378-.265.502-.146.124-.346.159-.536.189l-1.429.231c-.821.132-1.793.216-2.354-.398-.575-.628-.369-1.66.117-2.36.485-.699 1.193-1.222 1.67-1.927-1.45.228-2.856.722-4.132 1.447-.264.15-.602-.015-.618-.319-.069-1.31.034-2.63.307-3.913.133-.624.47-1.375 1.108-1.369.251.002.481.131.698.256l2.52 1.45c-.595-.684-1.088-1.501-1.177-2.403-.088-.902.309-1.891 1.116-2.304.269-.137.585-.206.874-.118.24.073.435.246.62.416A38.268 38.268 0 0 1-.654-4.65a.417.417 0 0 1-.016.572c-.673.684-1.393 1.594-1.563 2.475.653-.085 1.457-.645 2.233-.921" style="fill:#ddeeca;fill-rule:nonzero" transform="translate(186.239 86.937)"/>
    <path d="M0-2.524c.739-.263 1.544.07 1.959.736a9.32 9.32 0 0 1 1.287 3.424.412.412 0 0 1-.355.469c-.958.119-1.937.142-2.858-.13C-1.022 1.663-1.996.901-2.308-.153a4.347 4.347 0 0 1 .888 3.885c-.049.185-.118.377-.264.501-.147.124-.347.159-.536.19l-1.43.23c-.821.132-1.793.216-2.354-.398-.575-.628-.368-1.66.117-2.359.485-.7 1.193-1.223 1.67-1.928a12.227 12.227 0 0 0-4.131 1.447c-.265.15-.603-.015-.619-.319-.069-1.31.034-2.63.307-3.913.133-.624.471-1.374 1.109-1.369.25.002.48.131.697.256l2.52 1.45c-.595-.684-1.088-1.501-1.176-2.403-.089-.902.308-1.891 1.115-2.304.269-.137.586-.206.874-.118.24.073.435.246.62.416a37.98 37.98 0 0 1 2.247 2.24.414.414 0 0 1-.016.571c-.673.684-1.393 1.594-1.563 2.475.654-.085 1.457-.645 2.233-.921" style="fill:#fff;fill-rule:nonzero" transform="translate(181.115 98.027)"/>
    <path d="M0-4.558c-.396-.678-.216-1.53.361-2.062a9.296 9.296 0 0 1 3.126-1.897.413.413 0 0 1 .528.262c.294.919.497 1.877.4 2.833-.112 1.094-.68 2.192-1.658 2.694A4.346 4.346 0 0 1 6.41-4.319c.192.014.393.046.542.167.149.121.22.311.285.491l.491 1.363c.281.782.543 1.722.044 2.387-.511.681-1.563.669-2.34.321C4.655.063 4.009-.536 3.228-.874a12.256 12.256 0 0 0 2.187 3.792c.196.232.096.595-.2.667-1.275.31-2.59.452-3.903.421-.638-.015-1.437-.208-1.549-.836-.044-.247.039-.496.122-.732L.844-.307C.282.404-.43 1.04-1.3 1.293c-.87.253-1.915.046-2.47-.67-.185-.239-.311-.537-.278-.837.028-.249.161-.473.294-.686a37.347 37.347 0 0 1 1.786-2.622.414.414 0 0 1 .565-.09c.796.534 1.823 1.074 2.721 1.078C1.113-3.161.415-3.847 0-4.558" style="fill:#e8f3db;fill-rule:nonzero" transform="translate(165.523 108.225)"/>
    <path d="M0-4.558c-.396-.678-.217-1.53.361-2.062a9.296 9.296 0 0 1 3.126-1.897.413.413 0 0 1 .528.262c.294.919.497 1.877.4 2.833-.112 1.094-.68 2.192-1.659 2.694A4.346 4.346 0 0 1 6.41-4.319c.192.014.393.046.542.167.149.121.22.311.285.491l.491 1.363c.281.782.543 1.722.044 2.387-.511.681-1.563.668-2.34.321C4.654.063 4.009-.536 3.228-.874a12.273 12.273 0 0 0 2.186 3.792c.197.232.097.595-.199.667-1.275.31-2.59.452-3.903.421-.638-.015-1.437-.208-1.549-.836-.044-.247.039-.496.122-.732L.844-.307C.282.404-.43 1.04-1.3 1.293c-.87.253-1.915.046-2.47-.671-.185-.238-.311-.536-.278-.836.028-.249.161-.473.294-.686a37.347 37.347 0 0 1 1.786-2.622.415.415 0 0 1 .565-.091c.796.535 1.823 1.075 2.721 1.079C1.113-3.161.415-3.847 0-4.558" style="fill:#c5e2a6;fill-rule:nonzero" transform="translate(154.227 114.855)"/>
    <path d="M0-5.77c-.16 1.05-.61 2.03-1.22 2.94A15 15 0 0 1-4.18.37c-.29.24-.59.47-.9.68.15-1.77.35-3.51.61-5.25 1.48-.98 3.02-2.2 4.38-2.57.17-.05.11.9.09 1" style="fill:#b84425;fill-rule:nonzero" transform="translate(158.913 107.274)"/>
    <path d="M0-20.107a54.405 54.405 0 0 1-5.88 7.509c-.391.418-.796.839-1.049 1.353-.041.084-.077.183-.036.266.032.066.106.101.174.131l1.595.696a538.933 538.933 0 0 0-1.432 4.983c-.045.16-.087.342.001.481.128.202.427.173.654.248.452.15.598.705.654 1.178.088.731-1.209 4.508-.176 4.531.986.022 3.548-1.906 4.385-2.426 2.191-1.362 4.53-2.656 6.638-4.085-.821-6.904-.41-16.156-5.528-14.865" style="fill:#f2692b;fill-rule:nonzero" transform="translate(157.164 104.636)"/>
    <path d="M0 1.463s10.802 1.124 17.045-2.587L1.232-.908 0 1.463Z" style="fill:#b84425;fill-rule:nonzero" transform="translate(156.532 84.016)"/>
    <path d="M0 16.235c-1.53-1-2.105-.012-3.096.763-3.225 2.53-7.473 1.563-9.267-2.08-.522-1.061-.9-1.947-2.329-1.968-1.54-.023-2.411-1.137-3.062-2.415C-14.291 3.692-9.603.099-3.197-2.535c1.844-.758 3.509-.532 4.713 1.04C5.345 3.496 7.887 9.35 8.814 15.727c-2.859 1.611-5.833 2.456-8.814.508" style="fill:#fff8f0;fill-rule:nonzero" transform="translate(248.642 64.003)"/>
    <path d="M0 33.089c.302-8.335.387-15.031 1.628-20.354.059-.256.129-.495.193-.745.841-1.489 1.15-2.126.921-3.278.081-1.936 3.465-5.832 5.746-7.651.008.01.023.023.03.032.81-.241 1.99-1.108 1.927-2.538l-.016-.018C13.17-3.476 16.608-5.157 20.925-6.7c4.398-1.289 8.168-1.952 11.57-1.935l-.003.024c.79 1.194 2.254 1.201 3.051.92 0-.011.004-.031.005-.043 2.914.129 7.942 1.292 9.146 2.81.493 1.067 1.117 1.4 2.672 2.111.198.164.397.316.595.488 4.134 3.577 8.139 8.943 13.283 15.508.876 1.116 1.422 2.067 1.048 2.997-.319 1.734-2.232 3.311-3.656 4.498-2.063 1.72-5.341 6.263-9.157 10.602-3.296 3.747-7.861 5.624-12.47 7.217-5.474 1.891-12.138 3.244-17.896 2.087-2.674-.537-4.678-1.445-7.308-2.102a31.183 31.183 0 0 0-5.204-.858l-.084-.006c-1.849-.123-4.324-.274-5.602-1.488-.849-.533-.966-1.624-.915-3.041" style="fill:#f2692b;fill-rule:nonzero" transform="translate(140.927 43.095)"/>
    <path d="M0 4.336c.299-4.5 2.95-6.608 5.446-9.114 1.357-1.363 3.734-.996 5.267.068 3.87 2.68 5.593 10.545 4.174 14.864l-.015.004c-1.016.319-5.513-.418-8.074-1.303-2.56-.886-6.01-3.301-6.8-4.495L0 4.336" style="fill:#462d3b;fill-rule:nonzero" transform="translate(173.424 30.132)"/>
    <path d="M0 17.42c2.79-1.182 4.659-4.566 5.709-6.377 1.052-1.811 3.052-5.355 2.99-6.784-.069-.082-.145-.155-.217-.235C5.533.745.074.008-3.784.004-6.618 0-6.603 1.463-6.937 3.299-7.779 7.932-3.933 15.382 0 17.42" style="fill:#462d3b;fill-rule:nonzero" transform="translate(142.862 37.462)"/>
    <path d="M0-.745a1.07 1.07 0 0 0-.196-.395c-.266-.33-.728-.494-1.134-.35-.595.211-1.162.714-.968 1.414.077.277.281.51.532.649C-1.194.889-.431.7-.109.124.037-.139.075-.457 0-.745" style="fill:#8cc44a;fill-rule:nonzero" transform="translate(192.148 77.584)"/>
    <path d="M0-2.397a1.074 1.074 0 0 0-.441.002c-.529.118-1.033.568-1.007 1.152.024.548.279 1.108.866 1.22C-.3.03.166-.067.402-.231c.536-.372.703-1.141.328-1.684A1.184 1.184 0 0 0 0-2.397" style="fill:#8cc44a;fill-rule:nonzero" transform="translate(183.386 87.425)"/>
    <use style="fill:#add583;fill-rule:nonzero" transform="translate(178.258 98.6)" xlink:href="#reuse-4"/>
    <path d="M0-2.395a1.036 1.036 0 0 0-.44.002c-.529.118-1.034.568-1.008 1.151.024.549.279 1.109.866 1.22.282.053.749-.044.984-.207.536-.373.703-1.141.329-1.684A1.186 1.186 0 0 0 0-2.395" style="fill:#add583;fill-rule:nonzero" transform="translate(168.066 107.769)"/>
    <use style="fill:#8cc44a;fill-rule:nonzero" transform="translate(156.644 114.654)" xlink:href="#reuse-4"/>
    <path d="M0-26.739V0c0 .801-.649 1.445-1.444 1.445h-33.635A1.444 1.444 0 0 1-36.523 0v-26.739c0-.795.649-1.445 1.444-1.445h33.635c.795 0 1.444.65 1.444 1.445" style="fill:#add583" transform="translate(248.628 44.692)"/>
    <path style="fill:#fff" d="M213.798 106.822h33.133v20.532h-33.133z" transform="matrix(-1 0 0 1 460.729 -84.176)"/>
    <use style="fill:#b9dc94" transform="translate(220.2 25.87)" xlink:href="#reuse-5"/>
    <use style="fill:#b9dc94" transform="translate(228.305 25.87)" xlink:href="#reuse-5"/>
    <use style="fill:#b9dc94" transform="translate(236.411 25.87)" xlink:href="#reuse-5"/>
    <use style="fill:#d0e7b8" transform="translate(244.516 25.87)" xlink:href="#reuse-5"/>
    <use style="fill:#b9dc94" transform="translate(220.2 34.67)" xlink:href="#reuse-5"/>
    <use style="fill:#b9dc94" transform="translate(228.305 34.67)" xlink:href="#reuse-5"/>
    <use style="fill:#b9dc94" transform="translate(236.411 34.67)" xlink:href="#reuse-5"/>
    <use style="fill:#d0e7b8" transform="translate(244.516 34.67)" xlink:href="#reuse-5"/>
    <use style="fill:#8cc44a;fill-rule:nonzero" transform="translate(220.229 18.83)" xlink:href="#reuse-6"/>
    <use style="fill:#96c960" transform="translate(231.499 18.83)" xlink:href="#reuse-6"/>
    <use style="fill:#8cc44a;fill-rule:nonzero" transform="translate(231.499 18.83)" xlink:href="#reuse-6"/>
    <path d="M0-4.643V.001a1.14 1.14 0 0 1-2.277 0v-4.644c0-.623.509-1.139 1.138-1.139.628 0 1.139.516 1.139 1.139" style="fill:#8cc44a" transform="translate(242.773 18.83)"/>
    <use style="fill:none;fill-rule:nonzero;stroke:#f2692b;stroke-width:1px;stroke-linecap:butt;stroke-linejoin:miter" transform="scale(-1 1) rotate(45 -148.197 -247.251)" xlink:href="#reuse-7"/>
    <use style="fill:none;fill-rule:nonzero;stroke:#f2692b;stroke-width:1px;stroke-linecap:butt;stroke-linejoin:miter" transform="scale(1 -1) rotate(-45 79.947 -275.523)" xlink:href="#reuse-8"/>
    <use style="fill:none;fill-rule:nonzero;stroke:#f2692b;stroke-width:1px;stroke-linecap:butt;stroke-linejoin:miter" transform="scale(-1 1) rotate(45 -152.25 -257.036)" xlink:href="#reuse-7"/>
    <use style="fill:none;fill-rule:nonzero;stroke:#f2692b;stroke-width:1px;stroke-linecap:butt;stroke-linejoin:miter" transform="scale(1 -1) rotate(-45 84 -285.306)" xlink:href="#reuse-8"/>
    <use style="fill:none;fill-rule:nonzero;stroke:#f2692b;stroke-width:1px;stroke-linecap:butt;stroke-linejoin:miter" transform="scale(-1 1) rotate(45 -156.303 -266.82)" xlink:href="#reuse-7"/>
    <use style="fill:none;fill-rule:nonzero;stroke:#f2692b;stroke-width:1px;stroke-linecap:butt;stroke-linejoin:miter" transform="scale(1 -1) rotate(-45 88.052 -295.091)" xlink:href="#reuse-8"/>
    <use style="fill:none;fill-rule:nonzero;stroke:#f2692b;stroke-width:1px;stroke-linecap:butt;stroke-linejoin:miter" transform="scale(-1 1) rotate(45 -158.82 -242.851)" xlink:href="#reuse-7"/>
    <use style="fill:none;fill-rule:nonzero;stroke:#f2692b;stroke-width:1px;stroke-linecap:butt;stroke-linejoin:miter" transform="scale(1 -1) rotate(-45 69.324 -279.923)" xlink:href="#reuse-8"/>
    <use style="fill:none;fill-rule:nonzero;stroke:#f2692b;stroke-width:1px;stroke-linecap:butt;stroke-linejoin:miter" transform="scale(-1 1) rotate(45 -162.873 -252.636)" xlink:href="#reuse-7"/>
    <use style="fill:none;fill-rule:nonzero;stroke:#f2692b;stroke-width:1px;stroke-linecap:butt;stroke-linejoin:miter" transform="scale(1 -1) rotate(-45 73.377 -289.706)" xlink:href="#reuse-8"/>
    <use style="fill:none;fill-rule:nonzero;stroke:#f2692b;stroke-width:1px;stroke-linecap:butt;stroke-linejoin:miter" transform="scale(-1 1) rotate(45 -160.356 -276.604)" xlink:href="#reuse-7"/>
    <use style="fill:none;fill-rule:nonzero;stroke:#f2692b;stroke-width:1px;stroke-linecap:butt;stroke-linejoin:miter" transform="scale(1 -1) rotate(-45 92.105 -304.875)" xlink:href="#reuse-8"/>
    <use xlink:href="#a" x="50.068" y="166.124" width="6.073" height="2.124" transform="scale(.86757 .708)"/>
  </g>
</svg>
