<svg xmlns="http://www.w3.org/2000/svg" width="266" height="150">
  <g>
    <path d="M224.3 91.7c-7.8-7.8-18-11.7-28.3-11.7-10.2 0-20.5 3.9-28.3 11.7-15.6 15.6-15.6 40.9 0 56.6 15.6 15.6 40.9 15.6 56.6 0 15.6-15.6 15.6-41 0-56.6zM213 137c-9.4 9.4-24.6 9.4-33.9 0-9.4-9.4-9.4-24.6 0-33.9 9.4-9.4 24.6-9.4 33.9 0 9.3 9.3 9.3 24.5 0 33.9z" style="fill:#2D8CFF" transform="matrix(.51302 0 0 .51302 .642 13.438)"/>
    <path d="M308.3 91.7c-7.8-7.8-18-11.7-28.3-11.7-10.2 0-20.5 3.9-28.3 11.7-15.6 15.6-15.6 40.9 0 56.6 15.6 15.6 40.9 15.6 56.6 0 15.6-15.6 15.6-41 0-56.6zM297 137c-9.4 9.4-24.6 9.4-33.9 0-9.4-9.4-9.4-24.6 0-33.9 9.4-9.4 24.6-9.4 33.9 0 9.3 9.3 9.3 24.5 0 33.9zM96 159.8l4 .2h60l-.2-4c-.5-6.6-5.2-11.4-11.8-11.8l-4-.2h-36l48-48-.2-4c-.3-6.6-5.2-11.5-11.8-11.8l-4-.2H80l.2 4c.5 6.5 5.3 11.4 11.8 11.8l4 .2h36l-48 48 .2 4c.4 6.6 5.2 11.4 11.8 11.8zM369.8 104c1.4 2.4 1.8 5 2 8l.2 4v28l.2 4c.4 6.5 5.2 11.4 11.8 11.8l4 .2v-44l.2-4c.2-3 .6-5.7 2-8.1 2.8-4.8 7.9-7.9 13.8-7.9s11.1 3.2 13.9 8c1.4 2.4 1.8 5.1 1.9 8l.2 4v28l.2 4c.4 6.6 5.2 11.4 11.8 11.8l4 .2v-48c0-17.7-14.3-32-32-32-9.6 0-18.1 4.2-24 10.8-5.9-6.6-14.4-10.8-24-10.8-6.6 0-12.8 2-17.9 5.5C335 82 328 80 324 80v80l4-.2c6.7-.4 11.5-5.2 11.8-11.8l.2-4v-28l.2-4c.2-3 .6-5.7 2-8 2.8-4.8 7.9-8 13.8-8s11.1 3.2 13.8 8z" style="fill:#2D8CFF" transform="matrix(.51302 0 0 .51302 .642 13.438)"/>
  </g>
</svg>
