<?xml version="1.0" encoding="UTF-8" standalone="no"?>
<svg viewBox="0 0 267 151" xmlns="http://www.w3.org/2000/svg" xmlns:xlink="http://www.w3.org/1999/xlink" xml:space="preserve" style="fill-rule:evenodd;clip-rule:evenodd;stroke-miterlimit:10">
  <defs>
    <path d="M0-2.583c-.984-2.574-3.627-4.185-6.393-4.251-1.041-.024-2.474.091-3.389.617-1.932 1.112-3.113 3.909-2.87 6.063.121 1.073.844 2.006 1.734 2.618.889.612 1.936.947 2.975 1.242 1.057.301 2.138.569 3.237.556C-1.928 4.227.799 1.459.316-1.419A6.065 6.065 0 0 0 0-2.583" style="fill:#462e3b;fill-rule:nonzero" id="reuse-0"/>
    <path d="M0-1.081c-.713-2.715-3.234-4.708-6.058-5.176-1.063-.177-2.542-.268-3.539.124-2.104.83-3.632 3.455-3.629 5.642.002 1.09.636 2.128 1.476 2.869.84.74 1.874 1.228 2.903 1.673 1.048.454 2.124.88 3.25 1.025C-2.75 5.444.357 3.075.19.129A6.096 6.096 0 0 0 0-1.081" style="fill:#462e3b;fill-rule:nonzero" id="reuse-1"/>
    <path d="M0 5.902a2.95 2.95 0 0 1-2.951-2.951V0h5.902v2.951A2.95 2.95 0 0 1 0 5.902" style="fill:#a1cf70;fill-rule:nonzero" id="reuse-2"/>
    <path d="M-.825-.825a.825.825 0 1 0 0 1.65.825.825 0 0 0 0-1.65" style="fill:#fff;fill-rule:nonzero" id="reuse-3"/>
    <path d="M0-8.05a1.3 1.3 0 0 0-1.299 1.299v5.452a1.299 1.299 0 1 0 2.598 0v-5.452C1.299-7.468.718-8.05 0-8.05" style="fill:#8cc44a;fill-rule:nonzero" id="reuse-4"/>
    <path d="M0-3.238v1.939a1.299 1.299 0 1 0 2.599 0v-1.939H0Z" style="fill:#d0e7b8;fill-rule:nonzero" id="reuse-5"/>
  </defs>
  <path style="fill:none" d="M0 0h266v150H0z" transform="translate(.25 .75)"/>
  <path d="M0 60.632a2.764 2.764 0 0 1-2.762-2.762V2.762A2.765 2.765 0 0 1 0 0h78.226a2.765 2.765 0 0 1 2.762 2.762V57.87a2.764 2.764 0 0 1-2.762 2.762H0Z" style="fill:#e8f3db;fill-rule:nonzero" transform="translate(160.639 57.82)"/>
  <path d="M0-62.643h-78.226a3.768 3.768 0 0 0-3.768 3.767v55.108A3.767 3.767 0 0 0-78.226 0H0a3.767 3.767 0 0 0 3.767-3.768v-55.108A3.767 3.767 0 0 0 0-62.643m0 2.011c.968 0 1.756.788 1.756 1.756v55.108c0 .969-.788 1.757-1.756 1.757h-78.226a1.758 1.758 0 0 1-1.756-1.757v-55.108c0-.968.787-1.756 1.756-1.756H0" style="fill:#6a5761;fill-rule:nonzero" transform="translate(238.865 119.457)"/>
  <path d="M-21.774 13.111H0L-3.844 0H-17.93l-3.844 13.111Z" style="fill:#7d6c75;fill-rule:nonzero" transform="matrix(-1 0 0 1 188.865 119.457)"/>
  <path d="M0 3.049h-26.49a1.524 1.524 0 0 1 0-3.049H0a1.524 1.524 0 0 1 0 3.049" style="fill:#8f8188;fill-rule:nonzero" transform="translate(212.997 130.675)"/>
  <path d="M0 9.423h78.157c2.1 0 3.802-1.702 3.802-3.802V0H-3.802v5.621c0 2.1 1.702 3.802 3.802 3.802" style="fill:#8f8188;fill-rule:nonzero" transform="translate(160.673 110.084)"/>
  <path d="M-2.055-2.056a2.056 2.056 0 1 0-.002 4.112 2.056 2.056 0 0 0 .002-4.112" style="fill:#b5abb1;fill-rule:nonzero" transform="matrix(0 -1 -1 0 199.752 112.739)"/>
  <path d="M7.569-8.704h3.165L6.267 6.522l-2.664-1.71L7.569-8.704Z" style="fill:#58424e;fill-rule:nonzero" transform="scale(-1 1) rotate(73.649 -178.152 -78.362)"/>
  <path d="M0-2.091A4.684 4.684 0 1 0 9.132-.003 4.684 4.684 0 0 0 0-2.09m4.195-6.53.99-1.727 2.867.656.14 1.985 2.065 1.648 1.967-.303 1.275 2.652-1.464 1.347-.002 2.642 1.463 1.349-1.278 2.649-1.966-.305-2.066 1.647-.143 1.984-2.868.654-.988-1.728-2.576-.59-1.64 1.127-2.299-1.836.735-1.848L-2.738 1-4.641.42l.001-2.942 1.904-.578 1.148-2.38-.733-1.85L-.02-9.163l1.639 1.128 2.576-.586Z" style="fill:#8cc44a;fill-rule:nonzero" transform="translate(210.723 87.106)"/>
  <path d="M0-.001a7.754 7.754 0 1 0 15.507 0A7.754 7.754 0 0 0 0 0m4.783-12.153.848-3.088h4.244l.85 3.088 3.522 1.459 2.783-1.584 3.002 3.002-1.584 2.783 1.459 3.522 3.088.849v4.245l-3.088.849-1.459 3.521 1.584 2.784-3.002 3.001-2.783-1.583-3.522 1.459-.85 3.088H5.631l-.848-3.088-3.523-1.459-2.783 1.583-3.001-3.001 1.583-2.784L-4.4 2.971l-3.088-.849v-4.245l3.088-.849 1.459-3.522-1.583-2.783 3.001-3.002 2.783 1.584 3.523-1.459Z" style="fill:#8cc44a;fill-rule:nonzero" transform="translate(181.619 78.59)"/>
  <path d="M0 3.375h-41.674a1.688 1.688 0 0 1 0-3.375H0a1.687 1.687 0 0 1 0 3.375" style="fill:#f2692c;fill-rule:nonzero" transform="translate(220.559 102.185)"/>
  <path d="M0-2.137h-9.327V0H0a1.069 1.069 0 0 0 0-2.137" style="fill:#ddeeca;fill-rule:nonzero" transform="translate(220.38 104.942)"/>
  <use xlink:href="#a" x="160.925" y="97.463" width="15.59" height="29.191" transform="scale(.97439 .97304)"/>
  <path d="M-39.268-39.268c-1.63 0-2.95 17.581-2.95 39.269 0 21.685 1.32 39.267 2.95 39.267 1.629 0 2.951-17.582 2.951-39.267 0-21.688-1.322-39.269-2.951-39.269" style="fill:#d0e7b8;fill-rule:nonzero" transform="matrix(0 -1 -1 0 122.054 100.21)"/>
  <path d="M0 17.723c-1.702-1.995-2.117-4.594-2.482-7.081-.105-.713-.21-1.435-.102-2.155.167-1.119.831-2.152 1.426-3.176C-.066 3.432.946 1.358 3.002.198c.127-.072.266-.142.415-.148 1.253-.05.141 5.671.039 6.413-.343 2.492-.836 4.986-1.699 7.408a25.382 25.382 0 0 1-.785 1.951c-.099.216-1.064 1.793-.972 1.901" style="fill:#b84425;fill-rule:nonzero" transform="translate(95.955 83.39)"/>
  <path d="M0-74.246c-.812 1.054-1.885 3.225-2.267 4.015-2.735 5.72-4.813 11.28-6.367 16.83-3.288 11.78-4.156 23.54-3.593 36.81.264 6.23 3.066 12.339 8.635 15.078C1.817 1.147 8.167.647 13.965.612h2.92c5.797.035 12.148.535 17.556-2.125 5.57-2.739 8.372-8.848 8.636-15.078.562-13.27-.305-25.03-3.594-36.81-1.553-5.55-3.631-11.11-6.367-16.83-.381-.79-1.613-4.133-1.641-5.162L0-74.246Z" style="fill:#f2692c;fill-rule:nonzero" transform="translate(95.902 132.772)"/>
  <path d="M0-29.745c1.002.186 2 .48 2.859 1.028.661.421 1.22.978 1.784 1.52 3.113 2.991 7.144 4.716 11.299 5.699 3.877.917 7.751.976 11.412 2.701 6.6 3.112 12.654 9.961 11.175 17.73a13.606 13.606 0 0 1-.837 2.739c-.574 1.358-1.275 2.677-1.608 4.113-.58 2.504.066 6.656 1.698 8.642 2.485 3.024 5.596 2.934 9.119 2.895 4.308-.047 8.816.05 13.124 0 9.919-.114 26.637.115 36.557 0 4.005-.046 6.557-3.633 9.033-6.327.725-.79 1.356-1.762 2.366-2.126 2.32-.834 3.448 1.304 4.641 2.901 2.092 2.799 3.255 5.586 5.808 5.552h5.686c3.17 0 5.74-4.874 5.74-8.043v-56.475" style="fill:none;fill-rule:nonzero;stroke:#a1cf70;stroke-width:1.97px" transform="translate(122.054 120.274)"/>
  <path d="M0-17.944s-2.111 7.816-1.855 12.881c.255 5.063-4.724 0-4.724 0L0-17.944Z" style="fill:#b84425;fill-rule:nonzero" transform="translate(97.352 99.502)"/>
  <path d="M0-14.068s3.098 4.43 3.673 9.249C4.247 0 9.098-8.041 9.098-8.041L0-14.068Z" style="fill:#b84425;fill-rule:nonzero" transform="translate(125.73 92.495)"/>
  <path d="m0-30.136-.117-1.938c-5.267 4.582-11.754 9.362-17.844 12.802-7.69 4.33-15.95 8.43-24.76 8.43-4.37 0-12.94-.5-13.66-3.909l-.008-.14h-.187c.514 5.907 3.44 11.563 8.995 14.169 5.67 2.66 12.34 2.16 18.42 2.12h3.06c6.08.04 12.75.54 18.42-2.12 5.84-2.74 8.78-8.85 9.06-15.08.26-5.83-.969-8.964-1.379-14.334" style="fill:#b84425;fill-rule:nonzero" transform="translate(138.957 131.982)"/>
  <path d="M0-13.604c-.208 1.337-.518 2.699-.794 3.814-.277 1.124-.483 1.998-.634 2.922-.174 1.101-.342 2.151-.383 2.837a6.74 6.74 0 0 0-.011.849l.025.253c.006.02.01.07.01.07-.004-.025-.017-.021-.032-.063-.052-.127-.27-.46-.598-.719-.33-.258-.639-.344-.697-.34-.121.023.531.098 1.329-.024.826-.104 1.811-.328 3.107-.584l.556-.111c.138-.031.236-.054.423-.115l1.51-.539.028-.01a5.192 5.192 0 0 1 6.635 3.145c.935 2.62-.375 5.501-2.922 6.549-.522.213-.998.422-1.703.695-.352.135-.801.287-1.217.406-.419.121-.788.21-1.116.287-.948.223-2.187.573-3.629.826-1.459.227-3.141.498-5.511.004-1.171-.261-2.559-.817-3.769-1.818-1.222-.983-2.082-2.311-2.574-3.491-.133-.304-.221-.578-.322-.873-.087-.275-.147-.504-.216-.759-.119-.49-.212-.976-.274-1.44a16.902 16.902 0 0 1-.136-2.587c.039-1.609.213-2.832.342-4.004.158-1.35.427-2.724.654-3.837.228-1.122.385-2.009.492-2.945a5.77 5.77 0 0 1 6.389-5.078 5.773 5.773 0 0 1 5.079 6.39l-.028.209-.013.081Z" style="fill:#462e3b;fill-rule:nonzero" transform="translate(95.24 98.101)"/>
  <path d="M0 33.142c-3.114-1.234-5.727-3.587-6.094-7.06-.215-2.033-1.478-1.834-2.85-2.145-4.475-1.009-6.64-5.376-4.749-9.507.551-1.203 1.053-2.158.061-3.411-1.071-1.353-.664-3.42-.015-4.889 6.424-3.856 25.742-6.356 22.906 6.005-1.643 7.16-4.746 15.028-8.68 21.233L0 33.142Z" style="fill:#fff8f0;fill-rule:nonzero" transform="translate(162.476 89.263)"/>
  <path d="M0-.394c.717 3.41 7.912 3.72 12.274 3.72 8.813 0 17.078-4.094 24.766-8.434 6.085-3.435 11.594-7.54 17.165-11.745 1.878-1.417 6.347-4.995 10.666-7.059-.649 1.469-1.056 3.537.015 4.889.992 1.253.49 2.208-.061 3.411-1.891 4.131.274 8.498 4.749 9.507 1.372.312 2.635.112 2.85 2.146.42 3.962 3.255 5.944 6.673 7.285 0 0-2.148 2.53-3.375 3.656a59.665 59.665 0 0 1-5.326 4.33c-9.713 7.033-19.679 10.204-32.07 11.425-7.923.781-16.523.303-24.422-.768-6.681-.904-13.961-2.94-19.065-7.568-5.116-4.64-7.383-13.667-2.225-19.254.977-1.058 3.958-3.513 6.944-3.513L0-.394Z" style="fill:#f2692b;fill-rule:nonzero" transform="translate(83.958 119.305)"/>
  <path d="M0 9.15c-2.001 3.296-3.31 6.815-4.123 10.496-.261-.483-.776-.707-1.18-1.079-.404-.372-.976-.607-1.509-.471-.448.115-.883.481-1.319.323-.377-.137-.52-.594-.825-.856-.224-.193-.527-.27-.822-.288-.676-.04-1.186.446-1.789.442-.572-.004-1.075-.589-1.431-.966-.456-.485-1.076-.979-1.72-.772-.192.062-.389.184-.576.122-.13-.042-.215-.164-.287-.281-2.408-3.953 4.53-16.549 11.126-26.316l.993.853L0 9.15Z" style="fill:#f2692c;fill-rule:nonzero" transform="translate(98.517 70.309)"/>
  <path d="m0 .23-.003.003L0 .23Zm-.646 12.491c-2.072 0-5.956-2.058-6.836-4.085-1.172-2.697 1.624-3.77 4.117-5.184.281-.16.922-.623 1.318-1.027-.229-.578-.607-1.755-.857-2.354-.614-1.474-1.249-2.997-1.8-4.698A5.5 5.5 0 1 1 5.76-8.02c.413 1.275.936 2.53 1.49 3.859.759 1.822 1.543 3.704 2.122 5.82.143.519.525 1.912.034 3.614-.329 1.134-.97 2.143-1.907 3.006-1.019.938-2.657 2.45-5.826 3.927a5.476 5.476 0 0 1-2.319.515" style="fill:#462e3b;fill-rule:nonzero" transform="translate(132.768 84.224)"/>
  <path d="M0 9.328c2.43 1.777 4.3 4.681 4.901 5.779a.246.246 0 0 0 .411.033c.308-.396.756-.615 1.245-.875 1.123-.602 1.805-.459 3.094-.453.502.003 1.139.152 1.401-.276.107-.173.104-.389.111-.593.023-.706.317-1.302 1.044-1.526.251-.078.519-.091.782-.103l.93-.043c.101-.004.214-.013.281-.089.076-.088.057-.22.08-.334.068-.339.839-.721.912-1.058a.844.844 0 0 0-.022-.356c-.371-1.759-3.789-9.899-9.526-15.387L2.552-3.946 0 9.328Z" style="fill:#f2692c;fill-rule:nonzero" transform="translate(123.934 67.507)"/>
  <path d="M0 8.014s8.732-5.129 13.148-5.621L10.913 0C9.729.528 2.737 5.435 0 8.014" style="fill:#b84425;fill-rule:nonzero" transform="translate(118.665 61.554)"/>
  <path d="M0-5.871c-1.726.005-2.719-1.192-2.951-2.617-.308-1.943.895-3.477 3.391-3.327 1.099.062 2.767.634 2.893 2.361C3.277-7.121 2.209-5.886 0-5.871M-30.054-7.8c-1.779-.21-2.987-1.475-2.861-2.97.16-1.893 1.115-3.349 3.229-3.19 1.626.116 3.276 1.018 3.098 3.141-.16 2.013-1.547 2.88-3.466 3.019m38.005-6.684c-6.995-2.024-14.686-.785-18.298 8.625-1.043 2.732-1.581 6.139-1.844 9.268a61.934 61.934 0 0 0-.156 2.445c.543 1.06.459 2.056-.645 3.007-1.58 1.362-3.299 1.047-4.797.479-1.399-.539-2.482-2.226-1.462-3.967.022-.018.042-.026.074-.044.284-5.164.188-8.554-.641-12.889-1.564-8.12-10.239-12.001-17.584-9.509-3.492 1.181-6.643 2.733-9.326 5.397.716 1.626 2.961 2.738 4.636 3.581C-39.666-6.873-35.234-3.489-30.875.4c3.266 2.925 6.499 6.127 8.813 8.921 3.697 3.884 8.262 4.369 12.112.599C-6.417 6.454-1.832 3.137 2.606.37c6.408-3.997 12.518-6.834 14.783-7.286-2.242-3.651-5.47-6.421-9.438-7.568" style="fill:#fff8f0;fill-rule:nonzero" transform="translate(126.972 61.184)"/>
  <path d="M-3.306-3.005C-1.193-3.192-.275-1.556-.14.074c.175 2.114-1.276 3.075-3.166 3.25-1.5.14-2.772-1.06-2.997-2.832.123-1.918.98-3.317 2.997-3.497" style="fill:#462d3b;fill-rule:nonzero" transform="scale(-1 1) rotate(-89.538 -24.948 72.611)"/>
  <path d="M.225.005c2.201.176 3.177 1.489 3.066 3.823C3.033 5.54 1.327 5.984.225 5.967c-2.492-.038-3.587-1.654-3.132-3.569C-2.571.991-1.49-.132.225.005" style="fill:#462d3b;fill-rule:nonzero" transform="scale(1 -1) rotate(-4.233 -684.865 -1742.477)"/>
  <path d="M0 3.993c7.343-2.487 16.015 1.392 17.575 9.51.835 4.342.93 7.731.641 12.89 2.02-1.546 5.236-.927 6.514-.011.125.182.228.361.319.54h.003c.162-3.678.671-8.24 2.001-11.711 3.609-9.413 11.302-10.654 18.293-8.634 3.97 1.148 7.195 3.917 9.435 7.572.985-.169 1.805-.602 1.522-1.745C54.66 5.803 54.106-.779 50.299-8.057c-1.07-.096-1.716-1.193-1.757-2.383-.545-1.953-4.441-5.695-7.135-6.811-.025.047-.059.097-.079.142-.853-.05-2.215-.631-2.483-2.051.049-.097.107-.187.159-.282-3.314-1.662-7.518-2.925-12.808-3.224-4.67-.263-8.562-.047-11.929.76l.008.023c-.502 1.357-1.942 1.703-2.791 1.609l-.015-.041c-2.838.8-6.972 3.791-7.807 5.564-.238 1.163-1.616 2.085-2.688 2.005-.158.208-.317.403-.473.618C-2.742-7.654-5.445-1.449-8.994 6.198c-.604 1.301-.922 2.363-.34 3.192C-6.643 6.728-3.492 5.176 0 3.993" style="fill:#f2692b;fill-rule:nonzero" transform="translate(89.575 40.12)"/>
  <path d="M4.199-11.365c2.03.303 1.876 3.033 2.008 4.866.168 2.31-.544 4.892-2.008 6.917C3.562-1.436-.222-4.86-2.955-5.964c.448-1.016 4.156-5.848 7.154-5.401" style="fill:#fff8f0;fill-rule:nonzero" transform="scale(-1 1) rotate(-6.256 183.75 904.315)"/>
  <path d="M0-3.35c-.022.018-.047.031-.068.048C-1.089-1.559-.009.124 1.396.663c1.495.572 3.212.883 4.797-.484 1.096-.945 1.18-1.943.64-3a4.656 4.656 0 0 0-.318-.54C5.236-4.277 2.021-4.896 0-3.35" style="fill:#462d3b;fill-rule:nonzero" transform="translate(107.791 69.862)"/>
  <path d="M0 13.792c-1.235-2.172-1.661-4.815-1.242-7.094.331-1.808.475-4.539 2.526-4.618 3.029-.118 6.188 5.089 6.524 6.148.004.012.012.03.015.042.849.093 2.288-.252 2.79-1.61l-.008-.023c-1.333-4.36-4.494-5.428-7.807-7.642-1.617-1.08-3.559-.19-4.823 1.211-3.19 3.531-3.071 11.668-.679 15.591h.016c1.073.08 2.45-.841 2.688-2.005" style="fill:#462d3b;fill-rule:nonzero" transform="translate(93.236 11.576)"/>
  <path d="M0-3.597c.077-1.55.075-2.584-.067-3.254-.188-.415-.431-.761-.736-1.002-.24-.075-.537-.078-.907-.029-2.961.401-7.264 3.598-8.245 5.405 2.694 1.116 6.59 4.858 7.136 6.811C-1.24 2.401-.115-1.282 0-3.597" style="fill:#fff8f0;fill-rule:nonzero" transform="translate(140.936 25.346)"/>
  <path d="M0 .724C.021.679.054.629.079.582c.982-1.807 5.284-5.004 8.245-5.404.37-.05.667-.046.907.028.381.118.612.422.736 1.002.142.67.144 1.704.067 3.254-.115 2.315-1.24 5.998-2.819 7.931.04 1.19.687 2.287 1.756 2.383l.008.001c3.016-3.47 5.603-11.291 3.704-15.657-.751-1.729-1.075-3.173-3.862-2.515-3.796.894-8.998 2.878-11.144 6.786-.052.095-.111.185-.159.282C-2.214.093-.853.674 0 .724" style="fill:#462d3b;fill-rule:nonzero" transform="translate(130.902 22.286)"/>
  <use style="fill:#462e3b;fill-rule:nonzero" transform="translate(108.807 99.125)" xlink:href="#reuse-0"/>
  <use xlink:href="#b" x="159.992" y="92.155" width="3.343" height="4.933" transform="scale(.83575 .9866)"/>
  <use style="fill:#462e3b;fill-rule:nonzero" transform="translate(135.429 94.793)" xlink:href="#reuse-1"/>
  <use style="fill:#a1cf70;fill-rule:nonzero" transform="translate(251.91 73.079)" xlink:href="#reuse-2"/>
  <path d="M0 39.611a2.533 2.533 0 0 1-2.53-2.53V0h53.897v37.081a2.533 2.533 0 0 1-2.53 2.53H0Z" style="fill:#fff;fill-rule:nonzero" transform="translate(11.791 28.767)"/>
  <path d="M0-41.324h-55.611v37.938A3.386 3.386 0 0 0-52.224 0h48.837A3.387 3.387 0 0 0 0-3.386v-37.938Zm-1.714 1.714v36.224c0 .922-.751 1.672-1.673 1.672h-48.837c-.922 0-1.672-.75-1.672-1.672V-39.61h52.182" style="fill:#a1cf70;fill-rule:nonzero" transform="translate(64.015 69.234)"/>
  <path d="M0 8.273h-55.611v-5.54A2.733 2.733 0 0 1-52.878 0h50.145A2.733 2.733 0 0 1 0 2.733v5.54Z" style="fill:#a1cf70;fill-rule:nonzero" transform="translate(64.015 21.147)"/>
  <path style="fill:#fff" d="M28.097 93.675h15.726v15.726H28.097z" transform="matrix(-1 0 0 1 72.17 -52.326)"/>
  <path d="M0 7.077 7.077 0H0v7.077Z" style="fill:#ea4335;fill-rule:nonzero" transform="translate(44.073 57.074)"/>
  <path style="fill:#fbbc04" d="M43.822 93.675h7.077v15.726h-7.077z" transform="matrix(-1 0 0 1 94.971 -52.326)"/>
  <path style="fill:#34a853" d="M28.097 86.598h15.726v7.077H28.097z" transform="matrix(-1 0 0 1 72.17 -29.523)"/>
  <path d="M0-7.077v4.718A2.359 2.359 0 0 0 2.359 0h4.718v-7.077H0Z" style="fill:#188038;fill-rule:nonzero" transform="translate(21.27 64.152)"/>
  <path d="M0 7.077V2.359A2.359 2.359 0 0 0-2.359 0h-4.718v7.077H0Z" style="fill:#1967d2;fill-rule:nonzero" transform="translate(51.15 34.272)"/>
  <path d="M0-22.803h-20.444a2.359 2.359 0 0 0-2.359 2.359V0h7.077v-15.726H0v-7.077Z" style="fill:#4285f4;fill-rule:nonzero" transform="translate(44.073 57.075)"/>
  <path d="m0-5.159-1.498 1.083-.749-1.136L.44-7.151h1.03v9.143H0v-7.151Zm-8.38 6.77c-.588-.397-.995-.977-1.217-1.744l1.364-.562c.124.472.34.837.649 1.097.307.259.68.387 1.116.387.447 0 .83-.136 1.151-.407a1.3 1.3 0 0 0 .481-1.036c0-.428-.169-.778-.507-1.049-.338-.272-.763-.407-1.27-.407h-.788v-1.351h.708c.436 0 .803-.118 1.102-.354.299-.236.448-.558.448-.969 0-.365-.133-.656-.4-.875-.268-.218-.606-.328-1.017-.328-.401 0-.719.106-.955.321a1.879 1.879 0 0 0-.515.788l-1.351-.562c.179-.508.507-.956.989-1.343s1.097-.582 1.844-.582c.552 0 1.049.106 1.49.321.44.214.786.51 1.036.888.25.379.374.804.374 1.276 0 .482-.117.888-.349 1.222-.232.335-.517.59-.855.769v.081c.437.18.816.476 1.097.855.285.383.429.841.429 1.376 0 .535-.136 1.012-.407 1.431a2.82 2.82 0 0 1-1.122.989 3.54 3.54 0 0 1-1.611.361 3.33 3.33 0 0 1-1.914-.593" style="fill:#4285f4;fill-rule:nonzero" transform="translate(39.953 51.937)"/>
  <path d="M0-22.378c-2.02 4.107-3.057 8.584-4.98 12.711-1.559 3.346-1.742 7-3.327 10.322-1.385 2.902-3.33 6.303-6.698 6.183-4.013-.144-7.409.913-8.912 4.455-.98 2.307-.823 4.678-.481 7.058.388 2.706-1.758 5.113-4.49 5.113h-49.073a8.273 8.273 0 0 1-8.271-8.078v-61.228" style="fill:none;fill-rule:nonzero;stroke:#a1cf70;stroke-width:1.97px" transform="translate(105.488 114.133)"/>
  <use style="fill:#462e3b;fill-rule:nonzero" transform="translate(108.807 99.125)" xlink:href="#reuse-0"/>
  <path d="M0 3.342c-.885 2.349-3.502 3.545-5.851 2.66l-2.82-1.053.666-1.747 1.776.676a.643.643 0 0 0 .825-.37.643.643 0 0 0-.37-.825l-1.775-.677 1-2.626 1.776.677a.645.645 0 0 0 .826-.37.645.645 0 0 0-.37-.826l-1.776-.677.659-1.729 2.773 1.035A4.547 4.547 0 0 1 0 3.342" style="fill:#a1cf70;fill-rule:nonzero" transform="translate(122.544 87.241)"/>
  <path d="M0 34.634a1.545 1.545 0 0 1-1.544-1.544V1.544C-1.544.693-.852 0 0 0h40.978c.852 0 1.544.693 1.544 1.544V33.09c0 .852-.692 1.544-1.544 1.544H0Z" style="fill:#fff" transform="translate(216.25 38)"/>
  <path d="M0-35.523h-40.978a1.989 1.989 0 0 0-1.988 1.989v31.546c0 1.098.89 1.988 1.988 1.988H0c1.098 0 1.988-.89 1.988-1.988v-31.546c0-1.098-.89-1.989-1.988-1.989m0 .888c.607 0 1.101.494 1.101 1.101v31.546c0 .607-.494 1.1-1.101 1.1h-40.978c-.606 0-1.1-.493-1.1-1.1v-31.546c0-.607.494-1.101 1.1-1.101H0" style="fill:#f2692c;fill-rule:nonzero" transform="translate(257.228 73.079)"/>
  <path d="M0-4.677h39.722c1.178 0 2.134.955 2.134 2.134V0h-43.99v-2.543c0-1.179.955-2.134 2.134-2.134" style="fill:#f2692c" transform="translate(216.782 42.424)"/>
  <path d="M-.826-.826a.825.825 0 1 0 0 1.65.825.825 0 0 0 0-1.65" style="fill:#fff;fill-rule:nonzero" transform="matrix(0 -1 -1 0 217.296 39.18)"/>
  <use style="fill:#fff;fill-rule:nonzero" transform="matrix(0 -1 -1 0 220.357 39.18)" xlink:href="#reuse-3"/>
  <use style="fill:#fff;fill-rule:nonzero" transform="matrix(0 -1 -1 0 223.417 39.18)" xlink:href="#reuse-3"/>
  <path d="m0-10.65 5.399 5.4L.149 0" style="fill:none;fill-rule:nonzero;stroke:#6a5761;stroke-width:2.47px;stroke-linecap:round;stroke-linejoin:round" transform="translate(246.671 62.293)"/>
  <path d="M-8.743-5.325H3.243" style="fill:none;fill-rule:nonzero;stroke:#6a5761;stroke-width:2.47px;stroke-linecap:round;stroke-linejoin:round" transform="scale(-1 1) rotate(62.687 -170.906 -166.309)"/>
  <path d="m0-10.65-5.4 5.4L-.15 0" style="fill:none;fill-rule:nonzero;stroke:#6a5761;stroke-width:2.47px;stroke-linecap:round;stroke-linejoin:round" transform="translate(226.809 62.293)"/>
  <use style="fill:#462e3b;fill-rule:nonzero" transform="translate(135.429 94.793)" xlink:href="#reuse-1"/>
  <path d="m0-9.297-1.134 1.862C-2.37-5.406-1.989-2.692-.086-1.27a4.547 4.547 0 0 0 6.618-1.271L7.79-4.606a.581.581 0 0 0-.198-.801L.798-9.493A.583.583 0 0 0 0-9.297" style="fill:#a1cf70;fill-rule:nonzero" transform="translate(104.932 92.632)"/>
  <path d="m0-.564-.976 1.622L-2.07.401l.976-1.623A.637.637 0 1 1 0-.564" style="fill:#a1cf70;fill-rule:nonzero" transform="translate(108.892 83.395)"/>
  <path d="m0-.564-.976 1.622L-2.07.401l.976-1.623A.638.638 0 1 1 0-.564" style="fill:#a1cf70;fill-rule:nonzero" transform="translate(112.398 85.504)"/>
  <use style="fill:#8cc44a;fill-rule:nonzero" transform="translate(17.274 24.38)" xlink:href="#reuse-4"/>
  <use style="fill:#8cc44a;fill-rule:nonzero" transform="translate(29.796 24.38)" xlink:href="#reuse-4"/>
  <path d="M0-8.05c-.718 0-1.299.582-1.299 1.299v5.452a1.298 1.298 0 1 0 2.598 0v-5.452A1.3 1.3 0 0 0 0-8.05" style="fill:#8cc44a;fill-rule:nonzero" transform="translate(42.318 24.38)"/>
  <use style="fill:#8cc44a;fill-rule:nonzero" transform="translate(54.84 24.38)" xlink:href="#reuse-4"/>
  <use style="fill:#d0e7b8;fill-rule:nonzero" transform="translate(15.975 24.38)" xlink:href="#reuse-5"/>
  <path d="M0-3.238v1.939a1.299 1.299 0 1 0 2.598 0v-1.939H0Z" style="fill:#d0e7b8;fill-rule:nonzero" transform="translate(28.497 24.38)"/>
  <use style="fill:#d0e7b8;fill-rule:nonzero" transform="translate(41.019 24.38)" xlink:href="#reuse-5"/>
  <use style="fill:#d0e7b8;fill-rule:nonzero" transform="translate(53.54 24.38)" xlink:href="#reuse-5"/>
  <use style="fill:#a1cf70;fill-rule:nonzero" transform="translate(19.256 68.778)" xlink:href="#reuse-2"/>
</svg>
