<?xml version="1.0" encoding="UTF-8" standalone="no"?>
<svg viewBox="0 0 267 151" xmlns="http://www.w3.org/2000/svg" xmlns:xlink="http://www.w3.org/1999/xlink" xml:space="preserve" style="fill-rule:evenodd;clip-rule:evenodd;stroke-miterlimit:10">
  <defs>
    <path style="fill:none" d="M0 0h266v150H0z" id="reuse-0"/>
    <path d="M0 6.237h-17.178a.61.61 0 0 1-.611-.611V.611A.61.61 0 0 1-17.178 0H0a.61.61 0 0 1 .611.611v5.015A.61.61 0 0 1 0 6.237Z" style="fill:none;fill-rule:nonzero;stroke:#96c960;stroke-width:1.02px" id="reuse-1"/>
    <path d="M0 3.703h-3.256a.91.91 0 0 1-.91-.91V.91a.91.91 0 0 1 .91-.91H0a.91.91 0 0 1 .91.91v1.883a.91.91 0 0 1-.91.91" style="fill:#462e3b;fill-rule:nonzero" id="reuse-2"/>
    <path d="M0 2.826h-.852a.38.38 0 0 1-.38-.381V.382A.38.38 0 0 1-.852 0H0c.211 0 .382.171.382.382v2.063c0 .21-.171.381-.382.381" style="fill:#f9c2ab;fill-rule:nonzero" id="reuse-3"/>
    <path d="M0 2.826h-.852a.38.38 0 0 1-.38-.381V.382A.38.38 0 0 1-.852 0H0c.211 0 .381.171.381.382v2.063A.38.38 0 0 1 0 2.826" style="fill:#f9c2ab;fill-rule:nonzero" id="reuse-4"/>
    <path d="M0 2.826h-.852a.382.382 0 0 1-.381-.381V.382c0-.211.171-.382.381-.382H0c.21 0 .381.171.381.382v2.063c0 .21-.171.381-.381.381" style="fill:#f9c2ab;fill-rule:nonzero" id="reuse-5"/>
    <path d="M0 2.826h-.852a.38.38 0 0 1-.38-.381V.382A.38.38 0 0 1-.852 0H0c.21 0 .381.171.381.382v2.063c0 .21-.171.381-.381.381" style="fill:#f9c2ab;fill-rule:nonzero" id="reuse-6"/>
  </defs>
  <g transform="translate(.75 .75)">
    <use style="fill:none" xlink:href="#reuse-0"/>
    <clipPath id="a">
      <use xlink:href="#reuse-0"/>
    </clipPath>
    <g clip-path="url(#a)">
      <path d="M-23.006-22.03h44.101" style="fill:none;fill-rule:nonzero;stroke:#b5abb1;stroke-width:3.06px" transform="scale(-1 1) rotate(87.516 -172.882 -44.85)"/>
      <path d="M-21.095-22.03h44.101" style="fill:none;fill-rule:nonzero;stroke:#b5abb1;stroke-width:3.06px" transform="scale(1 -1) rotate(-87.516 54.002 -188.098)"/>
      <path d="M0 7.768h-43.668a3.883 3.883 0 1 1 0-7.768H0a3.884 3.884 0 0 1 0 7.768" style="fill:#b5abb1;fill-rule:nonzero" transform="translate(224.757 99.887)"/>
      <path d="M0-3.332A3.907 3.907 0 0 1-1.132-.583 3.87 3.87 0 0 1-3.88.549h-43.674a3.878 3.878 0 0 1-3.88-3.881c0-.183.011-.366.043-.549a3.863 3.863 0 0 0 3.837 3.33H-3.88a3.85 3.85 0 0 0 3.837-3.33c.032.183.043.366.043.549" style="fill:#8f8188;fill-rule:nonzero" transform="translate(228.641 107.105)"/>
      <path d="M0 .181C-.825.693-1.732 1.44-2.778 2.309l-3.097 2.562-1.548 1.282c-.523.428-.987.832-1.674 1.363-.674.509-1.504 1.098-2.661 1.557-1.133.47-2.705.68-4.025.429-1.336-.23-2.387-.748-3.225-1.255-.835-.514-1.497-1.043-2.07-1.516l-3.098-2.599-3.016-2.529c-.17-.138-.262-.19-.224-.168a1.173 1.173 0 0 0 .321.109c.051.013.216.035.302.041.416.014.723-.038 1.166-.27.217-.122.469-.306.715-.604.244-.293.466-.716.56-1.151a3.87 3.87 0 1 1-7.545-1.722 5.009 5.009 0 0 1 .982-2.061 5.317 5.317 0 0 1 1.48-1.271 5.706 5.706 0 0 1 3.139-.767 6.278 6.278 0 0 1 1.482.256c.423.126.797.285 1.125.447.653.329 1.127.668 1.498.937l3.307 2.45L-15.67.206c.473.342.869.585 1.139.702.267.117.375.074.201-.004-.157-.088-.596-.065-.648-.066-.073-.01.117-.142.435-.443l2.796-2.619 2.94-2.751c.96-.893 2.108-1.994 3.673-3.074A4.853 4.853 0 1 1 .195.06L0 .181Z" style="fill:#462e3b;fill-rule:nonzero" transform="translate(192.291 65.788)"/>
      <path d="M0 60.23h33.626c1.38-.013 2.365-.027 3.052.066 1.266-1.772 2.843-3.047 4.655-4.314.306-.214.613-.46.934-.657.096-.083.196-.163.29-.249.133-.122.262-.249.384-.383.114-.124.15-.155.136-.127l.005-.011c-1.704-1.659-2.216-3.462-2.128-5.863.557-15.299-8.347-31.838-18.847-44.213-4.235-3.636-5.302-2.309-7.148-.436-4.556 4.618-6.105 4.996-10.076 0C2.706 1.302 1.363.764-2.005-.066c-.629 3.468-.997 7.669-1.214 11.403a73.688 73.688 0 0 0 .79 15.877C-1.207 34.852.53 48.272 0 60.23" style="fill:#f2692b" transform="translate(184.9 40.675)"/>
      <path d="M0 8.792s12.865-5.657 18.043-5.391L15.316 0S2.037 3.24 0 8.792" style="fill:#b84425;fill-rule:nonzero" transform="translate(192.092 45.628)"/>
      <path d="M0-13.077c.202-1.461.999-2.554 2.635-2.344 1.261.162 2.501.933 2.28 2.567-.21 1.56-1.327 2.176-2.821 2.204C.726-10.886-.161-11.917 0-13.077m25.933.573c.851.095 2.123.607 2.153 1.951-.145 1.812-1.026 2.727-2.741 2.646-1.336-.064-2.059-1.036-2.179-2.154-.163-1.521.841-2.659 2.767-2.443M16.968 3.935c2.887-2.542 6.583-4.929 10.145-6.893 5.137-2.831 9.999-4.782 11.773-5.04-1.588-2.93-3.977-5.213-7.011-6.269-5.343-1.858-11.367-1.214-14.559 5.944-1.175 2.639-1.76 6.16-2.038 9.009l-.003-.001c.375.843.269 1.614-.621 2.302-1.287.997-2.608.684-3.744.177-1.068-.476-1.837-1.827-.972-3.138.017-.013.037-.022.054-.035.439-3.993.505-6.628.037-10.033-.875-6.367-7.445-9.738-13.249-8.111-2.759.773-5.27 1.848-7.469 3.803.487 1.296 2.185 2.252 3.45 2.973 1.834 1.046 5.134 3.859 8.354 7.059C3.536-1.913 5.912.711 7.587 2.971c2.715 3.168 6.234 3.732 9.381.964" style="fill:#fff8f0;fill-rule:nonzero" transform="translate(173.176 52.085)"/>
      <path d="M-2.603-2.152C-.961-2.299-.248-1.025-.143.242c.136 1.644-.992 2.391-2.46 2.526-1.166.108-2.156-.824-2.331-2.202.096-1.491.762-2.579 2.331-2.718" style="fill:#462d3b;fill-rule:nonzero" transform="scale(1 -1) rotate(87.402 107.143 73.848)"/>
      <path d="M.302-.006c1.711.136 2.47 1.157 2.383 2.972-.2 1.33-1.527 1.676-2.383 1.662-1.938-.03-2.79-1.286-2.435-2.774C-1.872.76-1.031-.113.302-.006" style="fill:#462d3b;fill-rule:nonzero" transform="scale(1 -1) rotate(-7.289 -247.33 -1578.082)"/>
      <path d="M0 1.168C5.804-.458 12.374 2.913 13.249 9.279c.468 3.406.401 6.04-.037 10.034 1.633-1.118 4.103-.503 5.059.261a3.8 3.8 0 0 1 .224.432l.002.001c.278-2.849.863-6.37 2.039-9.009 3.192-7.158 9.216-7.802 14.559-5.944 3.034 1.056 5.423 3.34 7.01 6.269.772-.09 1.427-.392 1.254-1.292C42.357 4.839 42.2-.293 39.546-6.102c-.825-.118-1.282-.996-1.265-1.921-.343-1.539-3.211-4.606-5.257-5.584-.02.036-.048.073-.067.107-.66-.074-1.692-.582-1.842-1.695.042-.073.091-.141.135-.212-2.503-1.427-5.715-2.583-9.809-3.034-3.614-.398-6.645-.391-9.292.095a.105.105 0 0 0 .005.019c-.446 1.033-1.577 1.241-2.233 1.133-.001-.009-.007-.023-.01-.033-2.236.503-5.57 2.655-6.292 3.996-.232.894-1.34 1.552-2.169 1.445-.131.155-.263.3-.392.46-2.704 3.339-5.059 8.043-8.131 13.833-.523.985-.814 1.796-.397 2.464C-5.271 3.016-2.76 1.941 0 1.168" style="fill:#f2692b;fill-rule:nonzero" transform="translate(169.956 32.764)"/>
      <path d="M2.953-8.775c1.578.235 1.457 2.357 1.56 3.783.131 1.796-.422 3.803-1.56 5.377C2.458-1.056-.484-3.718-2.61-4.576c.348-.79 3.231-4.546 5.563-4.199" style="fill:#fff8f0;fill-rule:nonzero" transform="scale(-1 1) rotate(-9.311 32.255 1093.828)"/>
      <path d="M0-2.875c-.018.013-.037.022-.055.035C-.919-1.53-.15-.178.918.298c1.136.506 2.457.819 3.744-.177.89-.688.996-1.459.621-2.302a3.718 3.718 0 0 0-.224-.432C4.104-3.377 1.633-3.992 0-2.875" style="fill:#462d3b;fill-rule:nonzero" transform="translate(183.168 54.951)"/>
      <path d="M0 10.724c-.868-1.738-1.09-3.807-.67-5.558.332-1.39.557-3.505 2.152-3.481 2.358.034 4.594 4.207 4.81 5.043.003.01.009.024.01.033.656.108 1.787-.1 2.233-1.133l-.005-.019c-.854-3.44-3.263-4.4-5.744-6.256C1.575-1.552.03-.942-1.009.093c-2.623 2.609-2.867 8.931-1.173 12.076h.013c.829.107 1.937-.551 2.169-1.445" style="fill:#462d3b;fill-rule:nonzero" transform="translate(173.575 8.809)"/>
      <path d="M0-2.62c.124-1.2.165-2.003.083-2.529-.129-.33-.303-.609-.529-.808-.184-.068-.414-.083-.703-.06-2.316.189-5.788 2.491-6.625 3.853 2.045.979 4.914 4.045 5.256 5.584C-1.211 1.984-.185-.828 0-2.62" style="fill:#fff8f0;fill-rule:nonzero" transform="translate(210.755 21.32)"/>
      <path d="M0-.292c.019-.034.047-.071.067-.107.837-1.362 4.31-3.665 6.625-3.853.289-.024.52-.008.704.059.29.108.457.353.529.809.082.526.041 1.328-.083 2.529-.185 1.792-1.211 4.604-2.518 6.04-.017.925.44 1.803 1.265 1.921a.014.014 0 0 0 .006.002C9.081 4.54 11.413-1.425 10.12-4.893 9.608-6.267 9.417-7.4 7.226-7.005 4.242-6.468.121-5.144-1.707-2.199c-.044.071-.093.139-.135.212C-1.692-.874-.66-.366 0-.292" style="fill:#462d3b;fill-rule:nonzero" transform="translate(202.913 19.556)"/>
      <path d="M0 18.1c-.421.614-.969.818-1.811.949.151-3.431-2.519-7.322-2.166-11.428.302-3.514 1.203-6.328 4.24-7.641C2.412-.949 4.91-.896 4.92.175c.006.551-.49.365-1.208.517C.254.899-2.125 3.696-2.332 7.621-2.485 11.299-.062 15.94 0 18.1" style="fill:#b84425" transform="translate(207.763 74.633)"/>
      <path d="M6.555-4.359C2.757-2.474 1.856.245 3.718 3.943c.69 1.371 2.47 4.168 2.837 6.579 2.981-.207 5.2-.431 8.042-2.333C11.884 3.307 9.9.122 6.555-4.359" style="fill:#462d3b" transform="scale(1 -1) rotate(-57.397 12.854 -224.874)"/>
      <path d="m0-25.268.144 3.231.238 3.21c.045.534.072 1.072.133 1.602l.091.842a15.884 15.884 0 0 1-.265 5.545l-.839 3.246c-.26 1.032-.55 2.059-.784 3.095l-.7 3.109c-.199 1.043-.427 2.081-.59 3.13A3.68 3.68 0 1 1-9.842.614l.012-.071.019-.108 2.243-12.432a7.716 7.716 0 0 0-.077-2.691l-.159-.746-.336-1.558-1.341-6.234-.172-.798a4.882 4.882 0 0 1 3.746-5.802A4.886 4.886 0 0 1-.104-26.08c.055.263.09.552.104.812" style="fill:#462e3b;fill-rule:nonzero" transform="translate(194.543 95.528)"/>
      <use xlink:href="#b" x="202.248" y="113.821" width="3.74" height="4.192" transform="matrix(.935 0 0 .83849 -.75 -.75)"/>
      <path d="M0-6.801c1.35-.534 3.006-.549 4.29-.334.294.049.585.115.868.199 2.061.613 3.649 2.248 4.03 4.294.083.446.113.928-.024 1.379C8.739.146 7.113.39 5.818.425 4.251.465 2.637.549 1.08.438-.219.346-1.569-.02-2.203-1.165c-.764-1.379-.491-3.262.59-4.53.426-.5.987-.859 1.613-1.106" style="fill:#462e3b;fill-rule:nonzero" transform="translate(182.267 101.261)"/>
      <path d="M0-10.648C.282-7.842 1.359-2.566 2.596-.256c-.029-.055.325.037.355.057.159.102.176.322.247.476.168.361.309.658.767.32.189-.139.321-.341.489-.505.274-.268.781-.396 1.157-.406.561-.014 1.054.207 1.433.524.165.138.345.304.592.265.186-.029.351-.169.494-.308.529-.514 1.168-.911 1.931-.853.803.06 1.781.852 2.593.739.869-.12.929-1.093 1.27-1.806 1.422-2.983.862-7.004.279-9.83" style="fill:#f2692b;fill-rule:nonzero" transform="translate(182.373 76.198)"/>
      <path style="fill:#96c960" d="M152.079.065h28.915v53.061h-28.915z" transform="matrix(-1 0 0 1 333.073 96.809)"/>
      <path style="fill:#add583" d="M29.626.065h122.453v53.061H29.626z" transform="matrix(-1 0 0 1 181.705 96.809)"/>
      <path d="M0 6.619h-38.571a3.31 3.31 0 0 1 0-6.619H0a3.31 3.31 0 1 1 0 6.619" style="fill:#add583;fill-rule:nonzero" transform="translate(182.267 90.255)"/>
      <path d="M0 6.619h-126.872a3.31 3.31 0 0 1 0-6.619H0a3.31 3.31 0 1 1 0 6.619" style="fill:#c5e2a6;fill-rule:nonzero" transform="translate(154.628 90.255)"/>
      <path style="fill:#8cc44a" d="M152.079 50.911h28.915v2.215h-28.915z" transform="matrix(-1 0 0 1 333.073 45.963)"/>
      <use xlink:href="#c" x="153.278" y="132.229" width="28.915" height="2.215" transform="matrix(.99707 0 0 .7383 -.75 -.75)"/>
      <path style="fill:#8cc44a" d="M29.626 50.911h122.453v2.215H29.626z" transform="matrix(-1 0 0 1 181.705 45.963)"/>
      <path d="M0 6.237h-13.772a.55.55 0 0 1-.55-.55V.549c0-.304.246-.549.55-.549H0c.304 0 .55.245.55.549v5.138a.55.55 0 0 1-.55.55Z" style="fill:none;fill-rule:nonzero;stroke:#8cc44a;stroke-width:1.02px" transform="translate(180.444 125.607)"/>
      <path d="M0 26.332C-8.547 37.109-24.876 41.82-37.81 37.088c-3.708-1.358-7.135-3.459-10.056-6.1-2.016-1.822-3.438-3.902-4.861-6.014 4.085 2.306 8.558.42 9.183-1.607.227-.732.432-.657 1.046-.636 2.511.173 4.624-2.371 4.753-4.774.021-.345.237-.755.528-.916 1.25-.69 2.996-1.682.69-5.292a2.533 2.533 0 0 0-.14-.227c2.598.852 6.046 2.307 7.965 2.523 4.333.506 7.695-.475 11.846-1.855 4.149-1.368 8.05-3.944 10.184-7.749.819-1.465 1.369-3.169 1.089-4.829-.593-3.373-2.36-4.634-6.068-4.526l5.884-10.574c.098 3.999 3.04 5.443 5.163 7.728C3.137-3.729 6.241.733 6.736 6.209 7.351 13.074 4.279 20.921 0 26.332" style="fill:#f2692b" transform="translate(231.626 105.811)"/>
      <path d="M0 1.363c-.291.161-.507.571-.528.916-.129 2.403-2.243 4.947-4.753 4.774-.615-.021-.82-.096-1.046.636-.484 1.565-2.503 2.33-3.953 2.566a7.953 7.953 0 0 1-3.338-.179c-.587-.16-1.238-.371-1.753-.703-.474-.307-.742-.906-.977-1.409-.555-1.198-.734-2.519-.865-3.821-.377-3.761.55-7.393 2.275-10.907.753-1.552 2.36-2.307 4.192-1.606.776.301 1.562.582 2.36.851 1.725.604 3.244 1.207 4.948 1.812.366.129.765.268 1.164.42.98.366 2.004.787 2.824 1.131.054.076.096.151.139.227C2.996-.319 1.25.673 0 1.363" style="fill:#fff8f0" transform="translate(194.409 121.489)"/>
      <use style="fill:none;fill-rule:nonzero;stroke:#96c960;stroke-width:1.02px" transform="translate(130.692 105.147)" xlink:href="#reuse-1"/>
      <path d="M0 6.237h-17.178a.61.61 0 0 1-.611-.61V.611A.61.61 0 0 1-17.178 0H0a.61.61 0 0 1 .611.611v5.016a.61.61 0 0 1-.611.61Z" style="fill:none;fill-rule:nonzero;stroke:#96c960;stroke-width:1.02px" transform="translate(139.893 111.384)"/>
      <use style="fill:none;fill-rule:nonzero;stroke:#96c960;stroke-width:1.02px" transform="translate(103.272 134.045)" xlink:href="#reuse-1"/>
      <path d="M0 6.237h-17.179a.61.61 0 0 1-.611-.61V.611A.61.61 0 0 1-17.179 0H0a.61.61 0 0 1 .61.611v5.016a.61.61 0 0 1-.61.61Z" style="fill:none;fill-rule:nonzero;stroke:#96c960;stroke-width:1.02px" transform="translate(75.52 111.384)"/>
      <path d="M0 4.221v-3.1a.1.1 0 0 1 .102-.1h17.177c.056 0 .102.045.102.1v3.1h1.02v-3.1C18.401.503 17.897 0 17.279 0H.102c-.62 0-1.123.503-1.123 1.121v3.1H0Z" style="fill:#96c960;fill-rule:nonzero" transform="translate(30.69 145.779)"/>
      <path d="M0 5.046h58.497V0H5.046C2.259 0 0 .987 0 5.046" style="fill:#8f8188;fill-rule:nonzero" transform="translate(82.436 68.882)"/>
      <use style="fill:#462e3b;fill-rule:nonzero" transform="translate(136.147 86.298)" xlink:href="#reuse-2"/>
      <use style="fill:#462e3b;fill-rule:nonzero" transform="translate(117.191 86.298)" xlink:href="#reuse-2"/>
      <path d="M0 3.514h-3.09a.864.864 0 0 1-.863-.863V.864c0-.477.387-.864.863-.864H0c.478 0 .864.387.864.864v1.787A.863.863 0 0 1 0 3.514" style="fill:#462e3b;fill-rule:nonzero" transform="translate(164.463 86.74)"/>
      <use style="fill:#462e3b;fill-rule:nonzero" transform="translate(87.636 86.298)" xlink:href="#reuse-2"/>
      <path d="M0-17.329h-49.748a2.334 2.334 0 0 0-2.335 2.335v12.659A2.335 2.335 0 0 0-49.748 0H0v-17.329Z" style="fill:#7d6c75;fill-rule:nonzero" transform="translate(134.519 87.85)"/>
      <path d="M0 3.338c.104-1.372 1.212-2.195 2.331-2.264h49.748V0H2.331C1.37 0 .522.479 0 1.206v2.132Z" style="fill:#6a5761;fill-rule:nonzero" transform="translate(82.44 72.591)"/>
      <path d="M0 5.454c-12.607-2.486-19.638-14.41-32.362-8.282V14.41H5.799v-1.8c0-3.455-2.408-6.487-5.799-7.156" style="fill:#6a5761;fill-rule:nonzero" transform="translate(166.882 73.44)"/>
      <path d="M0 16.992c-.188-1.761-.87-3.51-2.153-4.71-.63-.603-1.41-1.032-2.238-1.293-.817-.215-1.763-.428-2.644-.644-3.575-.946-6.834-2.725-10.015-4.484-3.172-1.776-6.348-3.584-9.805-4.45-3.464-.795-7.105-.269-10.284 1.329l-.466-.968c.871-.342 1.722-.735 2.611-1.028l1.368-.349.684-.173.704-.075 1.409-.145c.471-.002.943.032 1.415.047l.707.03c.233.029.464.078.696.116l1.39.249c3.648.944 6.874 2.831 10.022 4.62 3.16 1.778 6.339 3.537 9.79 4.475.891.224 1.67.403 2.664.671.939.301 1.831.803 2.542 1.495 1.45 1.38 2.168 3.318 2.358 5.213L0 16.992Z" style="fill:#58424e;fill-rule:nonzero" transform="translate(171.892 70.88)"/>
      <path d="M0 12.734h-20.318c-.986 0-1.776-.89-1.776-1.989V3.411c0-1.098.79-2.037 1.776-2.097L0 .074C1.224 0 2.227.946 2.227 2.189v8.295c0 1.243-1.003 2.25-2.227 2.25" style="fill:#58424e;fill-rule:nonzero" transform="translate(139.595 45.964)"/>
      <path d="M0 12.631h-20.01c-.97 0-1.75-.884-1.75-1.975V3.375c0-1.09.78-2.022 1.75-2.081L0 .073C1.203 0 2.189.939 2.189 2.172V10.4c0 1.232-.986 2.231-2.189 2.231" style="fill:#7d6c75;fill-rule:nonzero" transform="translate(137.926 46.067)"/>
      <path d="M0-54.208c-3.599 7.443-7.465 14.272-13.585 23.965-2.762 4.368-9.135 9.872-14.411 9.794-.249-.004-.498-.024-.747-.044h-6.391V-.727c2.985.669 6.076.727 9.105.3 6.133-.863 12.311-2.755 17.216-6.818 7.06-5.85 12.788-13.394 16.721-21.828 3.78-8.124 6.818-16.578 9.555-25.135H0Z" style="fill:#8cc44a;fill-rule:nonzero" transform="translate(64.785 144.08)" opacity=".6"/>
      <path d="M0-55.258V-55h-18.84c.049 0-.128-1.659-.161-1.819-.131-.626-.386-1.207-.827-1.674-1.355-1.472-2.737-.339-4.167 2.208-.043.086-.097.182-.151.279-2.976 5.513-6.493 16.223-7.073 17.997-2.858 8.736-6.028 17.376-10.026 25.663-3.934 8.134-9.661 15.41-16.722 21.051-1.451 1.172-4.234 2.934-6.427 3.698-.01.01-.032.01-.053.021a9.026 9.026 0 0 1-.903.258l-.526.097-2.063.354c-.022.011-.033.011-.054.011l-9.189 1.612a32.368 32.368 0 0 1-3.815-.182c-.054 0-.097-.011-.15-.011-5.234-.571-10.242-2.397-14.465-5.535a31.324 31.324 0 0 1-2.279-1.902c-1.487-1.981-2.534-4.27-3.244-6.658a22.284 22.284 0 0 1-.688-2.724c-.269-1.451-.549-3.181-.689-4.932l21.903 2.59c.494.161.988.29 1.504.376.644.118 1.3.182 1.956.193 5.276.075 11.649-5.233 14.411-9.446 11.262-17.205 14.892-25.043 23.263-44.452 2.461-5.717 8.237-10.046 14.125-11.325 3.559-.773 7.213-.697 10.814-.293 1.827.206 3.642.539 5.39 1.116 3.053 1.008 6.458 2.845 7.77 5.992.678 1.623 1.064 3.353 1.247 5.095A20.342 20.342 0 0 1 0-55.258" style="fill:#fff;fill-rule:nonzero" transform="translate(113.895 123.883)"/>
      <path d="M0 22.266c-3.085 1.404-7.832 2.509-11.087 2.954-3.244.443-6.557.356-9.744-.42-4.879-1.185-9.048-3.597-12.073-7.049-2.397-2.734-4.075-6.121-4.82-10.068-.268-1.451-.547-3.182-.687-4.933-.172-2.181-.118-4.395.451-6.147A35.404 35.404 0 0 0-29.147.096c3.191.795 6.544 1.182 10.047 1.192 1.709.011 3.46-.085 5.234-.257a57.102 57.102 0 0 1-.72 2.998c-1.354 5.416-2.944 11.209.075 15.4 3.396 4.707 9.407 4.277 14.511 2.837" style="fill:#dad5d8;fill-rule:nonzero" transform="translate(49.794 113.944)"/>
      <path d="M0-9.971c1.729.458 3.293 1.302 4.518 2.613C6.286-5.465 7.174-1.753 7.174.738v.258L-12.111.867a17.482 17.482 0 0 0-.118-1.322c-.119-.785-.312-1.579-.871-2.171-1.354-1.472-3.043.231-4.471 2.778C-13.477-7.056-7.7-10.967 0-9.971" style="fill:#c8c1c5;fill-rule:nonzero" transform="translate(107.167 68.015)"/>
      <path style="fill:#7d6c75" d="M125.952 81.118h4.573v10.184h-4.573z" transform="translate(0 -22.42)"/>
      <path style="fill:#58424e" d="M125.952 89.624h4.573v1.678h-4.573z" transform="matrix(-1 0 0 1 256.477 -30.926)"/>
      <path d="M0 23.404a2.778 2.778 0 0 1-2.775-2.775v-6.98l-4.448-.11a.317.317 0 0 1-.294-.203.316.316 0 0 1 .071-.349l4.671-4.726V2.776A2.779 2.779 0 0 1 0 0h23.214a2.778 2.778 0 0 1 2.774 2.776v17.853a2.777 2.777 0 0 1-2.774 2.775H0Z" style="fill:#fff;fill-rule:nonzero" transform="translate(232.368 25.684)"/>
      <path d="M0-24.403h-23.214a3.274 3.274 0 0 0-3.274 3.275v5.28l-4.528 4.58a.825.825 0 0 0 .567 1.404l3.961.097v6.492A3.274 3.274 0 0 0-23.214 0H0a3.274 3.274 0 0 0 3.275-3.275v-17.853A3.274 3.274 0 0 0 0-24.403m0 1a2.277 2.277 0 0 1 2.275 2.275v17.853A2.277 2.277 0 0 1 0-1h-23.214a2.277 2.277 0 0 1-2.274-2.275v-7.467l-.976-.024-3.555-.088 4.242-4.291.289-.292v-5.691a2.277 2.277 0 0 1 2.274-2.275H0" style="fill:#8cc44a;fill-rule:nonzero" transform="translate(255.581 49.588)"/>
      <path d="M0 29.754a3.234 3.234 0 0 1-3.23-3.23V3.23A3.234 3.234 0 0 1 0 0h31.899a3.234 3.234 0 0 1 3.231 3.23v12.718l5.577 5.642a.304.304 0 0 1 .068.34.305.305 0 0 1-.285.198l-5.36.132v4.264a3.234 3.234 0 0 1-3.231 3.23H0Z" style="fill:#fff;fill-rule:nonzero" transform="translate(46.175 14.055)"/>
      <path d="M0-31.086h-31.898a3.896 3.896 0 0 0-3.897 3.896v23.293A3.897 3.897 0 0 0-31.898 0H0a3.896 3.896 0 0 0 3.896-3.897v-3.614l4.711-.116c.86-.021 1.279-1.059.674-1.67l-5.385-5.448V-27.19A3.896 3.896 0 0 0 0-31.086m0 1.332a2.567 2.567 0 0 1 2.564 2.564v12.992l.385.389 4.816 4.871-3.902.096-1.299.032v4.913A2.567 2.567 0 0 1 0-1.332h-31.898a2.568 2.568 0 0 1-2.566-2.565V-27.19a2.568 2.568 0 0 1 2.566-2.564H0" style="fill:#8cc44a;fill-rule:nonzero" transform="translate(78.074 44.475)"/>
      <path d="M0 30.98h-45.095a2.656 2.656 0 0 1-2.656-2.656V2.656A2.656 2.656 0 0 1-45.095 0H0a2.655 2.655 0 0 1 2.655 2.656v25.668A2.655 2.655 0 0 1 0 30.98" style="fill:#f37743;fill-rule:nonzero" transform="translate(57.324 36.845)"/>
      <path d="M0-25.681v25.67a2.655 2.655 0 0 1-2.652 2.663h-45.097a2.662 2.662 0 0 1-2.652-2.663v-4.342c1.425.077 2.839.121 4.265.143 6.509.1 13.095-.342 19.361-2.232 9.713-2.939 18.786-10.034 21.272-19.88.166-.663.32-1.37.553-2.011h2.298A2.652 2.652 0 0 1 0-25.681" style="fill:#f2692c;fill-rule:nonzero" transform="translate(59.975 65.176)"/>
      <path d="M0-.203h-1.521a.94.94 0 0 1-.939-.938v-.585h-1.932V.402c0 .619.502 1.121 1.121 1.121H0V-.203Z" style="fill:#fbe0d4;fill-rule:nonzero" transform="translate(17.755 55.099)"/>
      <path d="M0-3.246h3.267v1.718H1.749a.938.938 0 0 0-.937.938V0h-1.94v-2.129A1.12 1.12 0 0 1 0-3.246" style="fill:#fbe0d4;fill-rule:nonzero" transform="translate(14.487 52.584)"/>
      <path d="M0-1.012v2.129h-1.939v-.59a.934.934 0 0 0-.938-.938h-1.518v-1.718h3.267A1.12 1.12 0 0 1 0-1.012" style="fill:#fbe0d4;fill-rule:nonzero" transform="translate(22.94 51.467)"/>
      <path d="M0-3.246h1.939v2.129C1.939-.495 1.434 0 .812 0h-3.267v-1.728h1.518A.933.933 0 0 0 0-2.666v-.58Z" style="fill:#fbe0d4;fill-rule:nonzero" transform="translate(21 56.62)"/>
      <path d="M0 2.255c.242 0 .44-.198.44-.44V.44A.441.441 0 0 0 0 0h-3.249a.44.44 0 0 0-.439.44v1.375c0 .242.197.44.439.44H0Z" style="fill:#fbe0d4;fill-rule:nonzero" transform="translate(19.774 51.85)"/>
      <use style="fill:#f9c2ab;fill-rule:nonzero" transform="translate(14.596 60.161)" xlink:href="#reuse-3"/>
      <use style="fill:#f9c2ab;fill-rule:nonzero" transform="translate(16.94 60.161)" xlink:href="#reuse-4"/>
      <use style="fill:#f9c2ab;fill-rule:nonzero" transform="translate(19.283 60.161)" xlink:href="#reuse-5"/>
      <use style="fill:#f9c2ab;fill-rule:nonzero" transform="translate(21.626 60.161)" xlink:href="#reuse-3"/>
      <use style="fill:#f9c2ab;fill-rule:nonzero" transform="translate(26.127 60.161)" xlink:href="#reuse-3"/>
      <use style="fill:#f9c2ab;fill-rule:nonzero" transform="translate(28.47 60.161)" xlink:href="#reuse-6"/>
      <use style="fill:#f9c2ab;fill-rule:nonzero" transform="translate(30.814 60.161)" xlink:href="#reuse-5"/>
      <use style="fill:#f9c2ab;fill-rule:nonzero" transform="translate(33.157 60.161)" xlink:href="#reuse-3"/>
      <use style="fill:#f9c2ab;fill-rule:nonzero" transform="translate(37.658 60.161)" xlink:href="#reuse-4"/>
      <use style="fill:#f9c2ab;fill-rule:nonzero" transform="translate(40.002 60.161)" xlink:href="#reuse-5"/>
      <use style="fill:#f9c2ab;fill-rule:nonzero" transform="translate(42.345 60.161)" xlink:href="#reuse-3"/>
      <use style="fill:#f9c2ab;fill-rule:nonzero" transform="translate(44.688 60.161)" xlink:href="#reuse-4"/>
      <use style="fill:#f9c2ab;fill-rule:nonzero" transform="translate(49.19 60.161)" xlink:href="#reuse-6"/>
      <use style="fill:#f9c2ab;fill-rule:nonzero" transform="translate(51.533 60.161)" xlink:href="#reuse-5"/>
      <use style="fill:#f9c2ab;fill-rule:nonzero" transform="translate(53.876 60.161)" xlink:href="#reuse-4"/>
      <use style="fill:#f9c2ab;fill-rule:nonzero" transform="translate(56.22 60.161)" xlink:href="#reuse-6"/>
      <path d="M0 5.067h-16.701a.755.755 0 0 1-.755-.754V.754c0-.416.338-.754.755-.754H0c.416 0 .754.338.754.754v3.559A.755.755 0 0 1 0 5.067" style="fill:#f9c2ab;fill-rule:nonzero" transform="translate(55.847 40.542)"/>
      <path d="M0 1.951h-16.185a.42.42 0 0 1-.419-.42V.42a.42.42 0 0 1 .419-.42H0a.42.42 0 0 1 .42.42v1.111a.42.42 0 0 1-.42.42" style="fill:#f9c2ab;fill-rule:nonzero" transform="translate(43.113 53.747)"/>
      <path d="M0 1.951h-20.608a.42.42 0 0 1-.42-.42V.42a.42.42 0 0 1 .42-.42H0a.42.42 0 0 1 .42.42v1.111a.42.42 0 0 1-.42.42" style="fill:#f9c2ab;fill-rule:nonzero" transform="translate(47.537 50.258)"/>
      <path d="M0-1.423A4.441 4.441 0 1 0 8.757.064 4.441 4.441 0 0 0 0-1.423m3.621-6.408.844-1.687 2.75.467.239 1.871 2.043 1.45 1.846-.392 1.349 2.441-1.314 1.354.141 2.501 1.457 1.199-1.068 2.577-1.877-.184-1.868 1.67-.028 1.887-2.681.772-1.027-1.583-2.47-.419L.464 7.246l-2.275-1.613.597-1.79-1.212-2.193-1.833-.448-.156-2.784 1.77-.65.959-2.315-.793-1.711 2.081-1.859 1.612.98 2.407-.694Z" style="fill:#8cc44a;fill-rule:nonzero" transform="translate(239.718 38.098)"/>
      <path d="M-2.205-2.017a2.215 2.215 0 1 0 0 4.43 2.215 2.215 0 0 0 0-4.43" style="fill:#8cc44a;fill-rule:nonzero" transform="scale(1 -1) rotate(84.883 141.513 116.06)"/>
      <path d="M0 19.802c-.819.054-1.522-.544-1.572-1.35a1.45 1.45 0 0 1 1.35-1.573 1.472 1.472 0 0 1 1.573 1.35A1.48 1.48 0 0 1 0 19.802m1.727-3.589L-10.22 6.902l-.015-.013a6.15 6.15 0 0 0 .433-2.729A6.212 6.212 0 0 0-20.148-.002l4.531 2.128.471 2.921-2.529 1.345-4.525-2.124a6.212 6.212 0 0 0 6.665 6.55 6.178 6.178 0 0 0 2.519-.76l11.025 10.463c1.186 1.11 3.057 1.029 4.114-.201a2.87 2.87 0 0 0 .603-2.568 2.874 2.874 0 0 0-.999-1.539" style="fill:#8cc44a;fill-rule:nonzero" transform="translate(71.758 19.082)"/>
    </g>
  </g>
</svg>
