<svg version="1.2" baseProfile="tiny-ps" xmlns="http://www.w3.org/2000/svg" width="464" height="261"><defs><clipPath clipPathUnits="userSpaceOnUse" id="cp1"><path d="m381.63 94.35-54.59 3.27-1.87 34.41 55.15-2.31 1.31-35.37Z"/></clipPath></defs><style>.shp0{fill:#fff}.shp3,.shp4{opacity:.6;fill:#fff}.shp4{opacity:.8}.shp5{opacity:.302;fill:#462e3b}.shp7{opacity:.2}.shp7,.shp8{fill:#462e3b}.shp9{fill:#8cc44a}.shp11{fill:#462d3b}.shp12{fill:#f3682a}.shp13{fill:#fff8f0}.shp14{fill:#b84425}.shp17{fill:#f2692c}.shp19{opacity:.4;fill:#462e3b}.shp20,.shp21{fill:#f6b1a5}.shp21{opacity:.4}</style><path id="Layer" class="shp0" d="M-.29 0h464v261h-464V0Z"/><path id="Layer" d="M-.29 0h464v261h-464V0Z" style="opacity:.6;fill:#2d8cff"/><path id="Layer" d="M463.71 0v261h-464v-42h51.21c50.63 0 78.82-8.06 115.82-17.61 68.64-17.73 126.08-46.74 182.11-90.18C387.84 81.02 419.34 42 445.27 0h18.44Z" style="opacity:.302;fill:#2d8cff"/><path id="Layer" class="shp3" d="M82.83 172.56c-2.52-.46-4.4 1.18-5.81 2.72-.35.41-.72.81-1.09 1.2-.37.39-.74.78-1.13 1.15-.38.38-.77.76-1.17 1.12-.4.36-.8.72-1.21 1.07-1.58 1.27-4.79 3.41-8.49 3.31-.19 0-.38-.02-.56-.04a5.03 5.03 0 0 1-.56-.09c-.19-.04-.37-.09-.55-.15-.18-.05-.36-.12-.53-.19.43-.5.84-1.02 1.23-1.56.38-.53.74-1.09 1.08-1.65.33-.57.64-1.16.92-1.75.29-.6.54-1.21.77-1.83 1.52-4.55 1-9.27.43-12.88-.15-.9-.34-1.81-.52-2.71.29-.37.56-.77.79-1.18.23-.42.43-.85.6-1.29.17-.44.31-.9.41-1.36.1-.47.17-.94.2-1.41v-.63c0-.36 0-.71.08-1.06.09-.36.21-.71.35-1.06.15-.34.32-.67.51-.99.19-.32.4-.63.64-.92.23-.29.49-.56.76-.81 1-1.11 2.33-2.49 2.15-4.23a.49.49 0 0 0-.08-.24.526.526 0 0 0-.16-.2.836.836 0 0 0-.23-.12.688.688 0 0 0-.49.05c-.07.05-.14.1-.19.17-.06.06-.1.14-.12.22-.02.08-.03.17-.02.25.12 1.15-.86 2.2-1.9 3.3a8.48 8.48 0 0 0-1.57 2c-.21.37-.4.75-.55 1.15-.16.4-.28.81-.38 1.22-.06.41-.08.81-.1 1.22v.59c-.02.31-.06.62-.11.93-.05.3-.13.61-.21.9-.09.3-.2.6-.32.88-.12.29-.26.57-.41.84-.11-.49-.21-.99-.3-1.49-.1-.49-.18-.99-.25-1.49a38.911 38.911 0 0 1-.32-3.02c-.1-2.3.14-6.58 3-9.42.06-.06.11-.13.14-.21.03-.08.05-.16.05-.25s-.02-.17-.05-.25a.596.596 0 0 0-.14-.21.596.596 0 0 0-.21-.14.542.542 0 0 0-.5 0c-.08.03-.15.08-.21.14-.24.25-.47.5-.68.77-.22.27-.42.55-.61.84-.19.28-.36.58-.52.89-.16.3-.31.61-.44.93-.13-.1-.25-.22-.36-.34-.1-.12-.2-.26-.29-.4-.08-.14-.15-.28-.21-.44-.06-.15-.11-.31-.14-.47-.06-.23-.11-.48-.16-.72-.03-.2-.07-.4-.12-.6a6.44 6.44 0 0 0-.18-.58c-.07-.19-.15-.38-.23-.56-.09-.19-.19-.37-.29-.54a.681.681 0 0 0-.41-.25.656.656 0 0 0-.47.1.6.6 0 0 0-.27.39.66.66 0 0 0 .07.48 6.015 6.015 0 0 1 .4.89c.05.16.1.31.14.47.04.16.07.32.09.48.05.26.11.52.17.77.05.26.13.52.23.77.11.25.24.48.4.7.16.21.34.41.54.59s.42.33.66.46a17.3 17.3 0 0 0-.58 2.86c-.06.48-.09.97-.11 1.45-.01.49-.01.97.02 1.46.04.6.1 1.21.17 1.81.06.6.14 1.2.23 1.8.09.59.2 1.19.31 1.79.12.59.24 1.18.38 1.77.24 1.15.47 2.31.67 3.47.57 3.45 1 8-.39 12.25-1.13 3.4-3.4 6-5.81 8.78l-.58.67c-.41.43-.79.89-1.15 1.37-.36.47-.7.97-1 1.48-.31.51-.59 1.04-.84 1.58s-.47 1.1-.66 1.66c-.09.41-.16.82-.2 1.23-.05.41-.07.82-.07 1.24 0 .42.02.83.07 1.24.04.41.11.82.2 1.23v.25h1.31c0-.15 0-.3-.05-.45a9.908 9.908 0 0 1-.24-2.19 10.32 10.32 0 0 1 .24-2.2c.18-.52.38-1.03.61-1.53.24-.49.49-.98.78-1.45.28-.47.59-.92.92-1.36.34-.43.69-.85 1.07-1.25l.58-.67 1.21-1.41c.23.11.47.22.72.31.24.09.49.16.74.22.25.07.51.12.76.15.26.04.52.06.78.07h.26a14.765 14.765 0 0 0 4.85-1.03 15.15 15.15 0 0 0 4.23-2.57c.43-.36.85-.74 1.26-1.12.41-.38.82-.76 1.22-1.16.4-.39.79-.79 1.18-1.2.38-.41.76-.83 1.13-1.25 1.2-1.31 2.68-2.61 4.57-2.26.08.01.17.01.25-.01.09-.02.16-.05.23-.1s.13-.11.18-.18c.04-.08.08-.16.09-.24a.671.671 0 0 0-.11-.48.581.581 0 0 0-.18-.17.59.59 0 0 0-.24-.09Z"/><path id="Layer" class="shp3" d="M47.29 196.19h1.42c1.06-3.81-.13-8.82-1.77-11.58a30.164 30.164 0 0 0-1.67-2.28c-.3-.36-.61-.72-.93-1.07-.32-.34-.65-.68-.99-1.01-.55-.57-1.11-1.16-1.64-1.77.09-.14.19-.28.29-.42.11-.13.22-.26.34-.38.12-.12.25-.23.38-.34.14-.1.28-.2.42-.29.1-.07.19-.14.29-.21.09-.07.19-.14.28-.22.09-.07.18-.15.27-.22l.27-.24c1.66-1.61 2.21-4.17 1.69-7.82V168a7.687 7.687 0 0 1-.17-1.65 7.687 7.687 0 0 1 .17-1.65c.1-.28.22-.55.36-.81.14-.26.3-.51.47-.75.18-.23.37-.46.58-.67.21-.21.43-.4.67-.58.07.3.15.61.21.91.11.47.21.91.32 1.3.11.39.19.85.27 1.28.03.19.06.39.1.58.03.19.08.38.13.57.05.19.11.38.17.56.06.19.13.37.21.55.13.24.27.47.42.7a7.373 7.373 0 0 0 1.05 1.24c.2.18.4.36.62.52.24.19.48.37.73.55.25.17.51.34.77.5.26.16.52.31.79.46.27.14.54.27.82.4-.44 1.85-1 3.7-1.69 5.62-1 2.94-3 13.13-.77 18.56h1.46c-2.2-4.32-.81-14.16.55-18.14 1.5-4.41 2.7-8.47 2.47-13.08.42-.13.82-.32 1.18-.57.36-.25.68-.55.96-.89.27-.35.49-.73.64-1.14.16-.41.25-.84.28-1.28.01-.08.01-.17.01-.25 0-.08.01-.17.01-.25 0-.08-.01-.17-.01-.25 0-.08 0-.17-.01-.25v-.61c0-.33.03-.65.11-.97.07-.31.18-.62.33-.91.15-.29.33-.56.54-.81.21-.24.46-.46.72-.65.14-.1.24-.25.26-.42a.655.655 0 0 0-.11-.49.612.612 0 0 0-.42-.26.655.655 0 0 0-.49.11c-.36.25-.68.54-.97.86-.28.33-.53.68-.73 1.07-.2.38-.35.79-.46 1.21-.1.42-.16.85-.16 1.28v.71c0 .07.01.13.01.2V160.82c0 .07-.01.13-.01.2-.02.29-.09.57-.19.84s-.25.53-.42.76a3.2 3.2 0 0 1-.62.6c-.24.17-.5.3-.77.4-.14-1.37-.33-2.73-.59-4.07-.13-.68-.27-1.35-.43-2.02-.17-.66-.34-1.33-.54-1.99-.19-.66-.4-1.31-.63-1.96-.23-.65-.47-1.29-.73-1.93l-.17-.4c-.09-.19-.17-.39-.25-.59-.08-.2-.15-.4-.22-.6-.07-.2-.13-.4-.19-.61-.05-.2-.11-.41-.15-.62-.05-.21-.08-.43-.08-.64-.01-.22.01-.43.05-.65.04-.21.1-.42.18-.62.08-.2.18-.39.3-.57.05-.07.09-.15.11-.23a.53.53 0 0 0 .01-.25.62.62 0 0 0-.25-.43.614.614 0 0 0-.23-.11.533.533 0 0 0-.25-.02.62.62 0 0 0-.43.25c-.17.25-.32.52-.44.8s-.21.57-.27.87c-.06.3-.09.61-.08.91 0 .31.03.61.1.91.05.23.11.46.17.69.06.23.13.46.2.68.08.23.16.45.24.67.09.23.18.44.28.66l.16.39c.25.62.49 1.24.71 1.87.22.63.43 1.26.61 1.9.19.64.37 1.28.52 1.93.16.64.3 1.3.42 1.95.07.36.14.73.2 1.09.06.37.11.73.17 1.1.05.36.09.73.14 1.1.04.36.08.73.11 1.1a22.228 22.228 0 0 1 .04 3.26c-.03.54-.08 1.08-.16 1.62-.07.54-.16 1.08-.27 1.61-.23-.11-.46-.23-.68-.35-.22-.12-.44-.25-.66-.38-.21-.13-.43-.27-.64-.42-.2-.14-.41-.29-.61-.45-.18-.13-.35-.27-.51-.42-.17-.15-.32-.31-.46-.48-.15-.17-.28-.35-.41-.53a5.36 5.36 0 0 1-.34-.57c-.06-.15-.12-.31-.17-.47a4.42 4.42 0 0 1-.15-.48c-.04-.16-.08-.32-.11-.49-.03-.16-.06-.32-.08-.49l-.06-.36c-.02-.11-.05-.23-.07-.35-.03-.12-.05-.23-.08-.35l-.09-.35c-.1-.37-.2-.79-.3-1.24-.1-.45-.23-1-.38-1.55.37-.25.71-.52 1.04-.82.32-.3.62-.63.9-.97a8.665 8.665 0 0 0 1.32-2.29.62.62 0 0 0-.06-.49.783.783 0 0 0-.16-.2.696.696 0 0 0-.23-.11c-.08-.03-.17-.03-.25-.03a.62.62 0 0 0-.24.08c-.08.04-.14.1-.2.16-.05.07-.09.15-.11.23-.12.31-.27.62-.44.91-.16.29-.35.57-.56.83-.21.27-.44.51-.68.74-.24.23-.5.45-.78.64a3.65 3.65 0 0 0-.28-.64 3.859 3.859 0 0 0-.88-1.08 4.49 4.49 0 0 0-.57-.4.542.542 0 0 0-.25-.06c-.08 0-.17.01-.25.04-.08.03-.15.07-.21.13a.51.51 0 0 0-.15.21c-.03.08-.05.16-.06.25 0 .08.02.17.05.25.03.08.07.15.13.21.06.07.13.12.21.15.16.1.31.22.45.36.13.13.26.27.37.43.11.15.21.32.29.49.08.18.14.36.19.54-.33.23-.65.49-.94.78-.29.28-.57.58-.81.91-.25.32-.47.66-.67 1.02-.19.36-.36.73-.5 1.11-.07.32-.12.64-.15.96a7.733 7.733 0 0 0 0 1.93c.03.32.08.64.15.96v.34c.46 3.21 0 5.39-1.31 6.69l-.24.21c-.08.07-.16.14-.25.2-.08.07-.17.13-.25.19-.09.07-.17.13-.26.19-.14.1-.29.2-.42.31a6.52 6.52 0 0 0-.77.71c-.12.12-.24.25-.35.39-.26-.34-.51-.69-.74-1a9.949 9.949 0 0 1-1.04-1.91c-.13-.33-.25-.68-.35-1.03-.09-.35-.17-.7-.23-1.06-.18-1.88.57-3.68 1.36-5.58.19-.4.37-.8.52-1.22.16-.41.3-.83.43-1.25.12-.42.23-.85.32-1.28.09-.44.16-.87.22-1.31.24-3.53-1.73-6.7-3.77-9.64a.52.52 0 0 0-.19-.17.671.671 0 0 0-.23-.1.758.758 0 0 0-.26.01c-.08.02-.16.05-.23.1a.52.52 0 0 0-.17.19c-.05.07-.08.15-.1.23-.01.09-.01.17.01.26.02.08.05.16.1.23 1.91 2.75 3.75 5.69 3.54 8.8-.04.38-.1.76-.17 1.14-.07.37-.15.75-.25 1.12-.1.37-.22.73-.34 1.09-.13.36-.27.72-.43 1.07-.35-.22-.69-.45-1.03-.68-.33-.24-.67-.48-.99-.73-.33-.25-.65-.51-.96-.77-.32-.27-.63-.54-.93-.82a7.552 7.552 0 0 1-1.12-1.14c-.17-.2-.33-.42-.47-.64a5.97 5.97 0 0 1-.41-.69c-.09-.25-.18-.51-.25-.77a10.263 10.263 0 0 1-.3-1.58c-.03-.26-.04-.53-.05-.8 0-.57-.09-1.14-.18-1.69a11 11 0 0 0-.52-2.03c-.23-.66-.53-1.29-.88-1.9-.35-.6-.76-1.18-1.21-1.71-.46-.53-.96-1.01-1.51-1.45a.94.94 0 0 0-.22-.12c-.09-.02-.17-.03-.26-.02-.08.01-.16.03-.24.08a.58.58 0 0 0-.19.16c-.05.07-.09.14-.12.23a.707.707 0 0 0 .05.49c.05.08.1.15.17.2.48.39.92.82 1.33 1.29.4.46.75.97 1.06 1.5.31.54.57 1.1.78 1.68.2.58.35 1.18.45 1.79.08.52.12 1.06.16 1.59.01.31.03.61.06.92.04.3.09.6.14.9.06.31.14.6.22.9.08.29.18.58.29.87.14.27.29.54.45.8.17.26.35.51.54.75.19.24.39.48.6.7.21.22.44.43.67.63.33.31.67.61 1.01.9.35.29.7.57 1.06.85.36.27.72.54 1.09.79.37.26.75.51 1.13.75-.19.4-.35.82-.48 1.24-.14.42-.25.85-.33 1.28-.09.44-.14.88-.18 1.32-.03.44-.03.89-.01 1.33.06.41.14.82.25 1.22.11.4.24.79.39 1.18.15.38.33.76.53 1.12.19.37.41.72.65 1.06.25.37.51.73.77 1.08.27.36.55.71.83 1.05.29.34.58.67.88 1 .3.32.61.64.93.95.32.31.64.63.94.96.3.33.6.66.88 1.01.29.34.56.7.83 1.06.26.36.52.72.76 1.1.01.02.02.03.03.05.01.01.01.03.02.04.01.02.02.04.03.05.01.02.01.03.02.05-.61.15-1.23.28-1.85.38a23.26 23.26 0 0 1-3.76.29c-.62-.01-1.25-.03-1.88-.09-2.19-.31-4.93-1.52-6-4-.06-.15-.12-.29-.17-.44-.06-.15-.11-.3-.16-.45-.04-.15-.09-.3-.13-.45l-.12-.46-.12-.46c-.04-.15-.09-.3-.13-.45l-.15-.45c-.06-.15-.11-.29-.17-.44-.25-.5-.53-.99-.85-1.45-.31-.47-.65-.91-1.02-1.33a13.364 13.364 0 0 0-2.52-2.22.635.635 0 0 0-.51-.25c-.2 0-.4.09-.52.24-.13.16-.18.36-.13.56.04.2.17.36.35.45.42.28.82.59 1.21.92.38.34.74.69 1.08 1.07.33.38.65.78.93 1.2.29.41.55.85.78 1.3.05.13.1.27.15.4.05.14.09.27.13.41.05.14.09.28.12.41.04.14.08.28.11.42.04.17.09.34.13.51.05.17.1.34.16.5.05.17.11.34.17.5.07.16.13.33.2.49.34.65.76 1.25 1.25 1.8s1.05 1.03 1.66 1.44c.6.41 1.26.74 1.95.99s1.41.42 2.14.49l.5.06c.16.02.33.03.5.05.16.01.33.02.5.02.17.01.33.01.5.01.53-.02 1.05-.05 1.58-.09.52-.04 1.04-.09 1.56-.16a36.41 36.41 0 0 0 3.11-.55c1.2 2.8 1.79 6.7.84 9.55Z"/><path id="Layer" class="shp4" d="M36.76 197.82c0-.89.73-1.62 1.62-1.62h24.6c.89 0 1.62.73 1.62 1.62v18.86c0 .89-.73 1.62-1.62 1.62h-24.6c-.89 0-1.62-.73-1.62-1.62v-18.86Z"/><path id="Layer" class="shp3" d="M388.71 204.25a12.631 12.631 0 0 1-3.7-1.95c-.56-.42-1.08-.89-1.56-1.4-.48-.52-.91-1.07-1.3-1.65-.43-.61-.82-1.26-1.16-1.93-.35-.67-.64-1.36-.89-2.07a16.544 16.544 0 0 1-.86-4.41c-.02-.41-.02-.82 0-1.23.02-.41.06-.82.11-1.22.05-.41.13-.81.21-1.21.09-.4.2-.8.32-1.19.12-.38.26-.75.41-1.12.15-.37.31-.74.49-1.1.17-.36.36-.71.56-1.05.2-.35.41-.69.63-1.02.4-.55.81-1.1 1.24-1.64.42-.53.86-1.06 1.31-1.57.45-.52.91-1.03 1.38-1.52.47-.49.96-.98 1.45-1.45l.6-.6c.19-.2.39-.4.58-.61.19-.21.38-.42.56-.63.19-.21.37-.42.55-.64.16-.18.31-.37.45-.56.15-.19.29-.38.42-.58.14-.2.27-.4.39-.61.13-.2.25-.41.36-.62.22-.43.42-.88.59-1.33.16-.46.3-.92.4-1.4.11-.47.18-.95.22-1.44.04-.48.05-.97.03-1.45.05-2.33-.25-5.13.42-8.09.08-.36.18-.71.29-1.06.12-.35.25-.69.4-1.03.15-.33.31-.66.49-.98.18-.32.38-.63.59-.93a6.092 6.092 0 0 1 1.49-1.54c.29-.22.59-.4.92-.56.32-.16.66-.29 1-.39-1.64 2.18-1.58 4.55-1.25 6.77.33 2.22 1.27 4.39 1.89 7.12.15.57.26 1.15.34 1.73.08.58.13 1.17.15 1.76.01.59 0 1.18-.05 1.76-.05.59-.14 1.17-.25 1.75-.05.2-.09.41-.15.61-.05.2-.11.4-.17.6-.06.2-.12.4-.19.59-.07.2-.14.4-.21.59-.15.38-.31.77-.48 1.14l-.58 1.06-.3.51c-.1.17-.2.34-.31.51-.1.16-.21.33-.32.49-.11.17-.23.33-.34.49-.22.28-.44.56-.67.84-.22.27-.45.55-.69.82-.23.27-.47.53-.71.79-.24.27-.49.52-.74.78-1.91 1.91-3.66 3.48-5 5.06-.16.18-.31.37-.45.56-.15.19-.29.39-.43.58-.14.2-.27.4-.4.61-.12.2-.24.41-.36.62-.11.21-.21.41-.3.63-.09.21-.18.43-.26.64-.08.22-.15.44-.21.67-.07.22-.12.44-.17.67-.1.53-.16 1.07-.2 1.61-.04.54-.06 1.08-.04 1.62.02.54.06 1.08.13 1.62.07.53.17 1.06.3 1.59.13.59.3 1.18.5 1.76a17.458 17.458 0 0 0 1.52 3.31c.31.52.65 1.03 1.01 1.52Z"/><path id="Layer" class="shp0" d="M385.77 218.33c-1.62 0-3.23-.25-4.77-.73-1.55-.49-3.01-1.21-4.34-2.14a15.848 15.848 0 0 1-5.81-7.57L369.8 205c-.13-.35-.17-.72-.12-1.09.05-.37.18-.72.4-1.02.21-.31.49-.55.82-.72.33-.17.7-.26 1.07-.26h27.59c.37 0 .73.09 1.06.26a2.319 2.319 0 0 1 1.21 1.74c.05.37.01.74-.12 1.09l-1 2.89c-.56 1.52-1.34 2.95-2.33 4.24-.99 1.28-2.17 2.41-3.49 3.33-1.33.93-2.8 1.65-4.34 2.14-1.55.48-3.16.73-4.78.73Z"/><path id="Layer" fill-rule="evenodd" class="shp0" d="M371.71 207.66c-.13-.04-.26-.06-.4-.06-.13 0-.26.01-.4.04-.13.03-.25.07-.37.13s-.24.13-.34.22c-.41.39-.75.86-.99 1.37-.24.52-.38 1.08-.42 1.64-.03.57.04 1.14.21 1.68.18.54.45 1.05.81 1.49.24.25.51.47.8.65.3.18.61.33.94.43.33.1.68.15 1.02.17.35.01.69-.02 1.03-.1.34-.08.66-.2.98-.34.32-.14.62-.3.91-.49.28-.2.56-.41.81-.65.25-.24.47-.5.68-.78m-13.03 2.7c.24-11.26-3.24-20.91-7.8-30.1l-38.78-.48-6.32 30 52.9.58Z"/><path id="Layer" class="shp5" d="m363.95 215.76-52.9-.58 6.32-30 38.78.48c4.56 9.19 8.04 18.84 7.8 30.1Z"/><path id="Layer" class="shp0" d="m335.49 218.33 1.6-4 21-.07c2.9-.11 5.63-1.89 4.53-5.67l-6.48-22.9 3.92.05 7.07 24.8c.75 3.87-1.2 7.81-7 7.73l-24.64.06Z"/><path id="Layer" class="shp0" d="m284.82 218.26 50.67.07a2.964 2.964 0 0 0 2.09-.85 3.004 3.004 0 0 0 .91-2.07v-.32c0-.1-.02-.2-.06-.3a.669.669 0 0 0-.16-.25.852.852 0 0 0-.25-.17c-.1-.04-.2-.06-.3-.06l-55.48-.08c-.07 0-.13.02-.2.04a.572.572 0 0 0-.28.28c-.02.06-.04.12-.04.19v.31c-.01.41.06.83.21 1.21.16.39.38.74.67 1.04.29.3.63.54 1.01.7.39.17.8.25 1.21.26Z"/><path id="Layer" d="m284.82 218.26 50.67.07a2.964 2.964 0 0 0 2.09-.85 3.004 3.004 0 0 0 .91-2.07v-.32c0-.1-.02-.2-.06-.3a.669.669 0 0 0-.16-.25.852.852 0 0 0-.25-.17c-.1-.04-.2-.06-.3-.06l-55.48-.08c-.07 0-.13.02-.2.04a.572.572 0 0 0-.28.28c-.02.06-.04.12-.04.19v.31c-.01.41.06.83.21 1.21.16.39.38.74.67 1.04.29.3.63.54 1.01.7.39.17.8.25 1.21.26Z" style="opacity:.122;fill:#462e3b"/><path id="Layer" class="shp5" d="m357.36 190.35-41.17.42 1.18-5.58 38.78.48 1.21 4.68Z"/><path id="Layer" class="shp0" d="M432.4 186.96h-.54l8.85-168.65 2.33 1.25c4.77 4.49 7.43 7.71 7.22 14.37l-5.05 139.5c-.21 7.46-6 12.21-12.81 13.53Z"/><path id="Layer" class="shp0" d="m436.92 17.61-187.7 14.28c-4.15.32-7.73 4.29-8 8.87l-8.32 139.42c-.29 4.75 2.89 8.58 7.11 8.55l190.94-1.64c1.22-.05 2.42-.33 3.54-.82a9.494 9.494 0 0 0 2.99-2.07c.86-.87 1.55-1.89 2.02-3.02.48-1.12.74-2.33.77-3.55l5.17-151.68c.08-1.13-.09-2.27-.49-3.33a8.063 8.063 0 0 0-1.84-2.81c-.81-.79-1.79-1.4-2.85-1.78a7.9 7.9 0 0 0-3.34-.42Z"/><path id="Layer" class="shp7" d="m436.92 17.61-187.7 14.28c-4.15.32-7.73 4.29-8 8.87l-8.32 139.42c-.29 4.75 2.89 8.58 7.11 8.55l190.94-1.64c1.22-.05 2.42-.33 3.54-.82a9.494 9.494 0 0 0 2.99-2.07c.86-.87 1.55-1.89 2.02-3.02.48-1.12.74-2.33.77-3.55l5.17-151.68c.08-1.13-.09-2.27-.49-3.33a8.063 8.063 0 0 0-1.84-2.81c-.81-.79-1.79-1.4-2.85-1.78a7.9 7.9 0 0 0-3.34-.42Z"/><path id="Layer" class="shp4" d="M340.78 175.5a7.22 7.22 0 0 1-.65 2.53c-.36.79-.87 1.51-1.5 2.12a7 7 0 0 1-2.17 1.45c-.81.34-1.67.54-2.55.57-.84.05-1.67-.08-2.45-.38a6.11 6.11 0 0 1-2.09-1.35c-.59-.59-1.05-1.3-1.35-2.08-.3-.78-.43-1.61-.38-2.45.06-.87.28-1.73.65-2.53a7.2 7.2 0 0 1 1.51-2.12c.63-.61 1.37-1.1 2.17-1.45a7.22 7.22 0 0 1 2.55-.57c.83-.05 1.67.08 2.45.38.78.3 1.49.76 2.08 1.35.59.59 1.05 1.3 1.35 2.08.3.78.43 1.62.38 2.45Z"/><path id="Layer" class="shp8" d="M437.22 17.59 248.96 31.91c-4 .31-7.46 4.14-7.72 8.57l-7.53 125.77 207.07-3.75 4.67-136.81c.08-1.1-.07-2.2-.46-3.23a7.486 7.486 0 0 0-1.77-2.73 7.562 7.562 0 0 0-2.76-1.74c-1.04-.36-2.14-.5-3.24-.4Z"/><path id="Layer" class="shp9" d="M434.5 28.63 250.37 41.84l-6.57 112.31 186.4-4.38 4.3-121.14Z"/><path id="Layer" class="shp0" d="M20.26 222.02h31.93v38.15H20.26v-38.15Z"/><path id="Layer" class="shp0" d="M20.26 222.02h31.93v38.15H20.26v-38.15Z"/><path id="Layer" class="shp0" d="M20.26 222.02h11.55v38.15H20.26v-38.15Z"/><path id="Layer" class="shp7" d="M20.26 222.02h11.55v38.15H20.26v-38.15Z"/><path id="Layer" class="shp7" d="M20.26 230.93h31.93v6.96H20.26v-6.96Z"/><path id="Layer" class="shp0" d="M351.54 222.36h27.08v38.15h-27.08v-38.15Zm-9.96 0h9.96v38.15h-9.96v-38.15Z"/><path id="Layer" class="shp7" d="M341.58 222.36h9.96v38.15h-9.96v-38.15Z"/><path id="Layer" class="shp7" d="M341.59 230.93h37.03v6.96h-37.03v-6.96Z"/><path id="Layer" class="shp0" d="M422.34 223.25h27.08v37.25h-27.08v-37.25Zm-9.76-.89h9.76v38.15h-9.76v-38.15Z"/><path id="Layer" class="shp7" d="M412.58 222.36h9.76v38.15h-9.76v-38.15Z"/><path id="Layer" class="shp7" d="M412.58 230.93h36.84v6.96h-36.84v-6.96Z"/><path id="Layer" class="shp0" d="M141.58 222.36h22.23v38.15h-22.23v-38.15Z"/><path id="Layer" d="M141.58 222.36h22.23v38.15h-22.23v-38.15Z" style="opacity:.102;fill:#462e3b"/><path id="Layer" class="shp0" d="M130.03 222.36h11.55v38.15h-11.55v-38.15Z"/><path id="Layer" class="shp5" d="M130.03 222.36h11.55v38.15h-11.55v-38.15Z"/><path id="Layer" class="shp7" d="M130.03 230.93h33.79v6.96h-33.79v-6.96Z"/><path id="Layer" class="shp0" d="M8.37 218.32h448.81v12.61H8.37v-12.61Z"/><path id="Layer" class="shp7" d="M8.37 218.32h343.17v12.61H8.37v-12.61Z"/><path id="Layer" class="shp8" d="M214.91 206.8a6.297 6.297 0 0 1-1.49-.19c-.25-.06-.49-.13-.72-.23a5.37 5.37 0 0 1-.69-.31c-8-4.24-15.3-11.45-19.16-16.33a6.188 6.188 0 0 1-1.47-4.62c.16-1.68 1-3.22 2.32-4.26 1.32-1.05 3-1.51 4.67-1.29 1.67.23 3.18 1.12 4.17 2.48.67.82 1.37 1.63 2.09 2.41.71.79 1.45 1.56 2.21 2.3.76.75 1.54 1.48 2.33 2.18.8.71 1.62 1.39 2.45 2.05 1.73-3.89 5.84-7 13-5.65 1.57.32 2.96 1.24 3.87 2.56a6.23 6.23 0 0 1 .99 4.54 6.149 6.149 0 0 1-2.43 3.95c-1.29.95-2.9 1.36-4.49 1.15-.11.59-.25 1.18-.42 1.75-.17.58-.37 1.15-.59 1.71-.22.56-.47 1.11-.74 1.64-.28.54-.58 1.06-.9 1.57-.28.4-.61.76-.98 1.08-.37.32-.77.59-1.21.82-.43.22-.89.39-1.36.51-.48.12-.96.18-1.45.18Z"/><path id="Layer" class="shp0" d="m199.65 258.44-.88 24.62c-.02.42.05.84.2 1.24a3.197 3.197 0 0 0 1.68 1.8c.38.18.8.28 1.22.29h.11c.41 0 .82-.08 1.21-.23.38-.15.73-.38 1.03-.67.3-.28.54-.63.7-1 .17-.38.27-.79.28-1.2l.89-24.85h-6.44Zm-44.2 0h-6.47l2.73 25.28c.04.39.15.77.33 1.12.18.35.42.66.71.93.3.26.63.47 1 .61s.76.21 1.15.21h.36c.42-.05.83-.18 1.2-.38a3.24 3.24 0 0 0 1.54-1.92c.12-.41.15-.83.11-1.25l-2.66-24.6Z"/><path id="Layer" fill-rule="evenodd" class="shp5" d="M156.28 266.03c-2.3-.08-4.46-.17-6.5-.28l-.37-3.33c2 .11 4.22.22 6.52.29l.35 3.32Z"/><path id="Layer" fill-rule="evenodd" class="shp0" d="M132.23 259.71c0 1.89 17.79 3.28 40.67 3.28 22.88 0 41.43-1.53 41.43-3.43v-6.58h-82.86l.76 6.73Z"/><path id="Layer" fill-rule="evenodd" class="shp5" d="m205.96 262.12-.1 2.75c-1.86.22-4 .43-6.46.6l.09-2.71c2.46-.2 4.63-.41 6.47-.64Z"/><path id="Layer" class="shp0" d="M172.9 256.52c-22.91 0-41.43-1.53-41.43-3.42s18.52-3.42 41.43-3.42 41.43 1.53 41.43 3.42-18.52 3.42-41.43 3.42Z"/><path id="Layer" class="shp11" d="M173.6 112.3c-1.16-6.07-5.12-8.49-8.93-11.47-2.08-1.63-5.25-.73-7.15 1-4.81 4.29-5.84 15.27-3.18 20.91 1.43.26 7.42-1.49 10.75-3.13s7.62-5.49 8.49-7.25l.02-.06Z"/><path id="Layer" class="shp12" d="M196.88 162.72c0 .32.02.65.06.97.04.32.09.65.16.96a10.046 10.046 0 0 0 .61 1.85c2.42 4.83 5.36 9.37 7.84 14.16.59 1.2 1.15 2.43 1.67 3.67a63.039 63.039 0 0 1 2.6 7.61c.35 1.3.65 2.6.92 3.92.55 2.64 1.03 5.3 1.43 7.97.4 2.67.72 5.35.96 8.04.24 2.69.41 5.38.5 8.08.09 2.7.1 5.4.03 8.1 0 2.1-.06 4.21-.18 6.32-.43 9.78-5.66 17-15.41 19.39-4.76 1.15-9.73 1-14.62.86-13.5-.42-27.13 0-40.35 0-22.93 0-41.54-8.3-54.6-28-8-12-13-24.52-13.76-38.37-.04-.66-.07-1.32-.08-1.98a66.528 66.528 0 0 1 0-3.98c.01-.66.04-1.32.08-1.98.11-1.93.82-5.71.82-5.71 3.7 2.09 7.55 3.19 11.4.66 2-1.29 2.74 0 4 1 .91.77 1.98 1.33 3.14 1.61 1.16.29 2.37.3 3.53.04a7.73 7.73 0 0 0 3.18-1.54c.92-.75 1.66-1.71 2.15-2.8.67-1.37 1.16-2.53 3-2.55 1.84-.02 3.12-1.48 4-3.13.84 1.33 1.64 2.68 2.39 4.06.75 1.37 1.47 2.77 2.14 4.19.66 1.42 1.29 2.86 1.87 4.32.58 1.46 1.11 2.94 1.6 4.43.36 1.16.68 2.27 1 3.37 2.77 10 3.18 17.78 5.43 28.54 2.11 10.11 7.09 20.65 17.18 25.32 2.59 1.13 3.45.31 3.45.31-1.63-2.81-3.28-9.72-3.45-13.1-1-19.69 1.88-30.45 6.27-41.07 2.21-5.33 4.8-10.63 7.5-17 .18-.37.37-.74.56-1.1.19-.37.39-.73.6-1.09.2-.36.41-.71.63-1.06.22-.35.44-.7.67-1.04l39.08-4.25Z"/><path id="Layer" class="shp13" d="M86.93 175.23c2-1.29 2.72 0 4 1a7.668 7.668 0 0 0 9.85.11c.93-.75 1.66-1.71 2.15-2.8.67-1.38 1.16-2.53 3-2.55 2 0 3.13-1.47 4-3.13-4.48-8.86-10.56-13.51-18.85-16.92-2.39-1-4.55-.69-6.1 1.34a47.875 47.875 0 0 0-3.42 5.07 48.992 48.992 0 0 0-2.74 5.47c-.8 1.88-1.48 3.81-2.03 5.78a48.52 48.52 0 0 0-1.27 5.98c3.7 2.08 7.55 3.17 11.41.65Z"/><path id="Layer" class="shp14" d="M200 174.37c-15.91 7.34-34.46 4.53-47 2.07.74-1.67 1.51-3.4 2.28-5.23.18-.37.37-.74.56-1.1.19-.37.39-.73.6-1.09.2-.36.41-.71.63-1.06.22-.35.44-.7.67-1.04l3.61-.38c1.5.62 3.01 1.2 4.54 1.73 1.54.54 3.08 1.03 4.64 1.48 1.56.44 3.13.85 4.71 1.21s3.17.67 4.77.94c6.59 1 13.35 1.66 19.99 2.47Z"/><path id="Layer" class="shp12" d="M216.94 169.94c2.32-1 4.07-1.85 5.61-3.72 1.06-.87 1-2.37.73-4.29-1.81-11.28-1.56-18.74-4.14-25.76-.12-.34-.26-.65-.39-1-1.39-1.89-1.92-2.7-1.8-4.31-.43-2.61-5.69-7.34-9.09-9.43-.38-.06-.75-.19-1.1-.37-.34-.18-.65-.42-.92-.7-.27-.28-.49-.6-.66-.95-.16-.35-.27-.72-.32-1.11a53.74 53.74 0 0 0-7.38-3.23 53.37 53.37 0 0 0-7.77-2.1c-2.64-.51-5.31-.82-8-.93-2.69-.12-5.38-.03-8.05.26-.19.34-.44.65-.73.92-.29.26-.62.47-.97.63-.36.16-.74.26-1.14.29-.39.04-.78.01-1.16-.08-3.94.66-9.5 3.49-11.54 5.45-.49 1.54-1.71 2-3.7 3.22-.24.25-.49.49-.73.76-2.72 3-5.49 6-8 9.22-1.56 2-3 4.13-4.42 6.28-1.83 2.82-4.35 5.39-2.91 8.9 1.81 4.4 5.06 7.92 8.39 11.23 3.33 3.31 5.06 4.82 8.73 8.09 5.11 4.54 11.63 6.33 18.16 7.72 7.76 1.65 13.74 3.15 21.7 2 1.22-.22 2.44-.46 3.65-.74 1.21-.27 2.41-.58 3.61-.91a76.639 76.639 0 0 0 7.06-2.35l7.28-2.99Z"/><path id="Layer" class="shp11" d="M221.53 118.14c-.77-2.44-1-4.43-4.84-4-5.25.65-12.54 2.57-16 7.52-.09.12-.18.23-.26.36.16 2 3.47 6.43 5.2 8.72 1.73 2.29 4.84 6.57 8.83 7.71 5.01-3.38 8.99-14.15 7.07-20.31Z"/><path id="Layer" class="shp12" d="M174.32 112.21c-8.65 1.48-15.88 5-21 11.6 0 0 21.92-2.93 21.82-3-.1-.07-.82-8.6-.82-8.6Z"/><path id="Layer" class="shp14" d="M151.71 254.5s9 .18 15.47-5.73c0 0 12.43 5.77 16.47 5.77l-31.94-.04Zm-6.78-12.11a25.607 25.607 0 0 1-1.08-2.39c-.16-.4-.3-.82-.43-1.23-.14-.42-.26-.84-.37-1.26 2.92 3.51 13 4 13 4-3.34.76-6.4 1.8-11.12.88Z"/><path id="Layer" class="shp0" d="M200.15 220.62h-92.11c-.34 0-.67-.06-.99-.19-.31-.12-.6-.3-.85-.53-.24-.23-.44-.51-.59-.81-.15-.3-.23-.63-.26-.97l-1.38-18.83c-.03-.37.02-.75.15-1.1.12-.36.32-.68.58-.95.26-.27.57-.49.92-.63.34-.15.72-.22 1.09-.21h94.87c.37 0 .74.08 1.08.23.34.14.64.36.89.63.26.27.45.59.57.94.13.35.18.72.15 1.09l-1.38 18.83c-.03.34-.11.67-.26.98-.15.31-.36.58-.61.81a2.64 2.64 0 0 1-1.87.71Zm-1.44 19.69h-89.22c-.34 0-.67-.06-.99-.19-.31-.12-.6-.3-.85-.53-.25-.23-.45-.5-.59-.81-.15-.3-.24-.63-.26-.97l-.32-4.26c-.03-.37.02-.74.15-1.09.12-.35.32-.67.57-.94a2.676 2.676 0 0 1 1.98-.86h89.83c.37 0 .74.07 1.08.22.34.15.64.37.9.64.25.27.44.59.57.94.12.35.17.72.14 1.09l-.31 4.26c-.02.34-.11.66-.26.97-.14.3-.34.57-.59.8-.25.23-.53.42-.85.54-.31.12-.64.19-.98.19Z"/><g id="Layer" style="opacity:.4"><path id="Layer" class="shp8" d="M134.95 220.71h-6.48l-2.65-24.22h6.47l2.66 24.22Zm2.16 19.69h-6.47l-1.07-9.65h6.49l1.05 9.65Zm2.42 21.37c-.56-.05-1.13-.11-1.68-.19a23.335 23.335 0 0 1-3.32-.72c-.54-.15-1.08-.33-1.61-.52l-.69-6.94c.54.13 1.09.26 1.63.37.55.12 1.1.23 1.64.32.55.1 1.11.18 1.66.26.55.08 1.1.14 1.66.2l.71 7.22Z"/></g><path id="Layer" class="shp0" d="M140.34 286.59c-.39 0-.78-.07-1.15-.21-.37-.14-.7-.35-1-.61-.29-.27-.53-.58-.71-.93-.18-.35-.29-.73-.33-1.12l-10-91.33c-.11-.86.12-1.73.66-2.41.53-.68 1.32-1.12 2.18-1.22.86-.09 1.73.17 2.4.72.67.55 1.09 1.35 1.16 2.21l10 91.33c.04.42.01.84-.11 1.25a3.24 3.24 0 0 1-1.54 1.92c-.37.2-.78.33-1.2.38l-.36.02Z"/><g id="Layer" style="opacity:.4"><path id="Layer" class="shp8" d="m187.17 256.29-.24 6.46c-2.07.08-3.66.13-5.88.17l.24-6.46c2.23-.04 3.8-.1 5.88-.17Zm.94-25.63-.35 9.65h-6.45l.36-9.65h6.44Zm1.22-34.26-.87 24.22h-6.44l.87-24.22h6.44Z"/></g><path id="Layer" class="shp0" d="M185.14 286.39h-.11c-.42-.01-.84-.11-1.22-.29a3.197 3.197 0 0 1-1.68-1.8c-.15-.4-.22-.82-.2-1.24l3.27-91.33a3.23 3.23 0 0 1 3.33-2.97c.82.03 1.61.38 2.19.98.58.59.9 1.39.91 2.22l-3.27 91.33c-.01.41-.11.82-.28 1.2-.16.37-.4.72-.7 1-.3.29-.65.52-1.03.67-.39.15-.8.23-1.21.23Z"/><path id="Layer" class="shp12" d="M158.71 254.5c-5.25 0-10.47.1-15.63.1-22.93 0-41.54-8.3-54.6-28-8-12-13-24.52-13.76-38.37-.04-.66-.07-1.32-.08-1.98a66.528 66.528 0 0 1 0-3.98c.01-.66.04-1.32.08-1.98.11-1.93.82-5.71.82-5.71 3.7 2.09 7.55 3.19 11.4.66 2-1.29 2.74 0 4 1 .91.77 1.98 1.33 3.14 1.61 1.16.29 2.37.3 3.53.04a7.73 7.73 0 0 0 3.18-1.54c.92-.75 1.66-1.71 2.15-2.8.67-1.37 1.16-2.53 3-2.55 1.84-.02 3.12-1.48 4-3.13.84 1.33 1.64 2.68 2.39 4.06.75 1.37 1.47 2.77 2.14 4.19.66 1.42 1.29 2.86 1.87 4.32.58 1.46 1.11 2.94 1.6 4.43.36 1.16.68 2.27 1 3.37 2.77 10 3.18 17.78 5.43 28.54 2.11 10.11 7.09 20.65 17.18 25.32 2.59 1.13 3.45.31 3.45.31"/><path id="Layer" fill-rule="evenodd" class="shp0" d="M268.43 218.5c-.15.01-.31-.02-.45-.07-.14-.06-.28-.14-.39-.24-.11-.11-.2-.24-.27-.38-.06-.14-.09-.29-.1-.44 0-4.3 7-7.79 11.64-7.79l11.72.08c4.64 0 7.28 3.41 7.28 7.71a1.19 1.19 0 0 1-.38.82 1.148 1.148 0 0 1-.84.31h-28.21Zm-53.98-1.3 43.82-3.08a.818.818 0 0 1 .56.29c.07.09.12.18.15.29.03.1.04.21.03.32v2.42c.01.1 0 .21-.03.31s-.07.2-.14.28a.74.74 0 0 1-.23.2c-.1.05-.2.09-.3.1h-43.86v-1.13Z"/><path id="Layer" d="m424.5 35.63-4.3 108.93a2.325 2.325 0 0 1-.73 1.55c-.21.2-.46.37-.73.48-.28.11-.57.17-.86.17l-162.12 4.29c-.26.01-.52-.04-.76-.13-.24-.1-.46-.25-.64-.44-.17-.19-.31-.42-.39-.66-.09-.25-.12-.51-.09-.77l5.74-103.25c.02-.27.09-.53.2-.78.11-.25.27-.47.46-.66.19-.2.41-.35.65-.47.25-.11.51-.19.78-.21l160.66-10c.27-.03.55 0 .81.08s.5.22.7.41c.2.18.36.41.47.66.11.25.16.53.15.8Z" style="fill:#fff;stroke:#462e3b;stroke-width:.72"/><path id="Layer" d="m424.13 35.87-4.27 108.46c-.02.29-.1.58-.22.84-.13.26-.3.5-.51.7-.21.21-.46.37-.73.48-.27.11-.56.17-.85.18l-161.42 4.26c-.26.01-.52-.04-.76-.13-.24-.1-.46-.25-.64-.44-.17-.19-.31-.42-.39-.66-.09-.25-.12-.51-.09-.77L259.97 46c.02-.27.09-.53.2-.78.11-.24.26-.46.45-.66.19-.19.41-.35.66-.46.24-.12.5-.19.77-.21l160-10c.27-.03.54.01.8.1.26.08.49.23.69.42.2.18.35.41.46.66.1.26.14.53.13.8Z" style="opacity:.302;fill:#fff"/><path id="Layer" class="shp8" d="m424.5 35.63-.14 3.56-164.93 10 .19-3.37c.02-.27.08-.54.19-.79.12-.24.27-.47.46-.67.19-.19.41-.35.66-.47.24-.11.51-.19.78-.21l160.66-10c.27-.03.55 0 .81.08s.5.22.7.41c.2.18.36.41.47.66.11.25.16.53.15.8Z"/><path id="Layer" class="shp9" d="M272.06 45.72c-.01.17-.05.33-.12.48-.07.15-.16.29-.28.4-.12.12-.25.22-.4.29-.15.07-.31.11-.48.12-.15.01-.31-.01-.45-.06a.983.983 0 0 1-.39-.24c-.11-.11-.19-.24-.25-.39-.05-.14-.07-.3-.06-.45.01-.17.05-.33.12-.48.07-.15.16-.29.28-.4.12-.12.25-.22.4-.29.15-.07.31-.11.48-.12.15-.01.31.01.45.06.15.05.28.13.39.24.11.11.19.24.25.39.05.14.07.3.06.45Z"/><path id="Layer" class="shp0" d="M267.85 45.98c-.01.16-.05.33-.12.48a1.6 1.6 0 0 1-.28.4c-.12.12-.25.21-.4.28-.15.07-.32.12-.48.13-.15.01-.31-.01-.45-.06a.983.983 0 0 1-.39-.24c-.11-.11-.2-.24-.25-.39a.991.991 0 0 1-.07-.45c.01-.17.06-.33.13-.48.06-.15.16-.29.28-.41.12-.11.26-.21.41-.28.15-.07.31-.11.48-.12.15-.01.31.01.45.06.14.06.27.14.38.25.11.11.19.24.25.38.05.14.07.3.06.45Z"/><path id="Layer" class="shp17" d="M263.64 46.23c-.01.17-.06.33-.13.48-.06.15-.16.29-.28.41a1.437 1.437 0 0 1-.88.41c-.15.01-.31-.01-.46-.06-.14-.05-.27-.14-.38-.25-.11-.11-.2-.24-.25-.38-.05-.15-.07-.31-.06-.46.01-.17.05-.33.12-.48.07-.15.16-.29.28-.4.12-.12.25-.22.4-.29.15-.07.31-.11.48-.12.15-.01.31.01.45.06.15.05.28.13.39.24.11.11.2.24.25.39.06.14.08.3.07.45Z"/><path id="Layer" fill-rule="evenodd" d="M361.46 50.5a7.5 7.5 0 0 1 1.77.12c.58.1 1.15.28 1.69.52a7.557 7.557 0 0 1 2.79 2.15c3.4 4.07 3.09 11-.68 15.39-3.77 4.39-9.44 4.54-12.73.46-3.29-4.08-3-10.8.68-15.15.39-.5.82-.95 1.3-1.36.48-.41 1.01-.76 1.56-1.06.55-.3 1.14-.55 1.74-.73.6-.18 1.22-.3 1.85-.35l.03.01Zm3.55 6c-2.01-2.43-5.43-2.22-7.63.39-2.2 2.61-2.39 6.66-.41 9.11 1.98 2.45 5.39 2.33 7.64-.3s2.4-6.76.4-9.2Zm21.7 11.46c-3.94 4.5-9.89 4.66-13.34.49-3.45-4.17-3.12-11.05.67-15.5.41-.51.87-.98 1.38-1.4.5-.42 1.05-.78 1.63-1.09.57-.31 1.18-.56 1.81-.75.63-.18 1.28-.3 1.93-.36.62-.03 1.24 0 1.86.11.61.11 1.21.29 1.78.54.57.25 1.1.57 1.6.94s.95.8 1.35 1.28c3.57 4.15 3.27 11.24-.67 15.74Zm-10.17-12.05c-2.29 2.68-2.48 6.83-.4 9.33s5.65 2.38 8-.32c2.35-2.7 2.53-6.93.4-9.42-2.11-2.48-5.71-2.27-8 .41ZM338.6 72.73c-1.41-.07-2.36-1.29-2.36-3.06v-1l10.83-13.12-7.75.42h-.85c-1.36-.07-2.36-1.31-2.36-3v-1l12.89-.76h.87c1.45 0 2.45 1.23 2.45 3v1.09l-11 13.21 7.8-.3h.87c1.46.05 2.46 1.3 2.46 3.05v1.05l-13 .42h-.85Zm63.64-17.87c-.14-.32-.32-.63-.55-.89-.22-.27-.49-.51-.79-.69-.29-.19-.62-.33-.96-.43-.34-.09-.69-.13-1.04-.11-.37.03-.73.12-1.08.24a4.343 4.343 0 0 0-2.41 2.18c-.09.18-.16.36-.23.54-.07.19-.13.38-.18.57-.05.19-.08.39-.11.58-.03.2-.05.39-.06.59l-.09 1.12-.33 7.87-.1 1.13c-.01.41-.09.82-.23 1.21-.15.38-.37.74-.64 1.05-.27.31-.6.57-.96.76-.37.2-.76.33-1.17.39l-1 .09.95-22.37c.31-.01.62.01.92.06.31.06.61.14.89.25a4.558 4.558 0 0 1 1.54 1.02c.31-.26.64-.5.99-.7.35-.21.72-.39 1.09-.55.38-.15.77-.27 1.17-.36.39-.09.79-.15 1.2-.18.56-.03 1.12 0 1.67.11.55.1 1.08.28 1.58.51.51.24.99.54 1.42.89.43.35.82.76 1.15 1.21.36-.49.77-.93 1.23-1.33.46-.4.95-.75 1.48-1.04a8.468 8.468 0 0 1 3.45-1.05c4.5-.25 8.01 3.65 7.8 8.75l-.05 1.17-.52 12.7h-1c-.41-.02-.81-.12-1.18-.3a3.13 3.13 0 0 1-.96-.74 3.103 3.103 0 0 1-.75-2.26V65.7l.33-8.05V56.5c.01-.19.01-.39 0-.58-.02-.19-.04-.39-.07-.58a9.18 9.18 0 0 0-.13-.56c-.06-.19-.12-.37-.2-.55-.15-.33-.34-.63-.57-.9-.24-.27-.51-.5-.82-.68-.3-.19-.63-.33-.98-.42-.35-.09-.7-.13-1.06-.11-.38.04-.75.12-1.1.25-.35.12-.69.3-1 .51-.31.22-.6.47-.84.75-.25.29-.46.6-.63.94a5.38 5.38 0 0 0-.42 1.13 5.6 5.6 0 0 0-.12.59c-.02.2-.04.4-.05.6l-.1 1.14-.52 12.54h-1c-.4-.03-.79-.13-1.15-.31a3.107 3.107 0 0 1-1.52-1.76c-.12-.38-.16-.78-.13-1.18v-1.13l.33-7.95v-1.13c.01-.19.01-.38 0-.58-.01-.19-.04-.38-.07-.57-.03-.19-.08-.37-.13-.56-.05-.18-.12-.36-.19-.54Z" style="fill:#2d8cff"/><path id="Layer" class="shp8" d="m417.89 146.76-162.13 4.29c-.26.01-.52-.04-.76-.14s-.46-.25-.63-.44c-.18-.18-.32-.41-.4-.65-.09-.25-.12-.51-.1-.77l.62-11 166.22-5.12-.46 11.63c-.02.3-.1.59-.22.85a2.39 2.39 0 0 1-1.27 1.19c-.28.11-.57.16-.87.16Z"/><g id="Layer" style="opacity:.6"><path id="Layer" fill-rule="evenodd" class="shp4" d="M306.87 143.01c-.01.11.01.22.05.32.04.11.1.2.17.28.08.08.17.14.28.18.1.04.21.06.32.05a1.017 1.017 0 0 0 .61-.28c.08-.08.14-.17.19-.28.05-.1.09-.21.1-.32a.935.935 0 0 0-.04-.33.8.8 0 0 0-.46-.45.696.696 0 0 0-.32-.05.73.73 0 0 0-.33.08.95.95 0 0 0-.49.47c-.04.1-.07.21-.08.33Zm2.35 2.58c.01-.21-.03-.43-.11-.63s-.21-.37-.37-.52c-.15-.14-.34-.25-.55-.32-.2-.07-.42-.09-.63-.06h-.17c.07.11.13.22.18.33.05.12.09.24.12.36s.06.25.07.37c.01.13.02.25.01.38 0 .03 0 .06-.01.09 0 .03-.01.05-.02.08s-.02.06-.03.08c-.01.03-.02.06-.04.08h.31c.11 0 .21 0 .32.01.1 0 .2.01.31.02l.31.03c.04 0 .08-.01.11-.03.04-.01.07-.03.1-.06s.05-.06.06-.1c.02-.03.03-.07.03-.11Z"/><path id="Layer" fill-rule="evenodd" class="shp3" d="M306.87 143.01c-.01.11.01.22.05.32.04.11.1.2.17.28.08.08.17.14.28.18.1.04.21.06.32.05a1.017 1.017 0 0 0 .61-.28c.08-.08.14-.17.19-.28.05-.1.09-.21.1-.32a.935.935 0 0 0-.04-.33.8.8 0 0 0-.46-.45.696.696 0 0 0-.32-.05.73.73 0 0 0-.33.08.95.95 0 0 0-.49.47c-.04.1-.07.21-.08.33Zm2.35 2.58c.01-.21-.03-.43-.11-.63s-.21-.37-.37-.52c-.15-.14-.34-.25-.55-.32-.2-.07-.42-.09-.63-.06h-.17c.07.11.13.22.18.33.05.12.09.24.12.36s.06.25.07.37c.01.13.02.25.01.38 0 .03 0 .06-.01.09 0 .03-.01.05-.02.08s-.02.06-.03.08c-.01.03-.02.06-.04.08h.31c.11 0 .21 0 .32.01.1 0 .2.01.31.02l.31.03c.04 0 .08-.01.11-.03.04-.01.07-.03.1-.06s.05-.06.06-.1c.02-.03.03-.07.03-.11Z"/><path id="Layer" class="shp4" d="M304.12 141.76c-.01.16.01.32.07.47.05.14.14.28.25.39.11.12.25.21.4.26.14.06.3.09.46.08.17-.01.33-.05.48-.11.15-.07.29-.16.41-.28a1.284 1.284 0 0 0 .41-.88c.01-.16-.01-.32-.07-.47a1.123 1.123 0 0 0-.64-.66c-.15-.05-.31-.08-.47-.07-.17.01-.33.05-.48.11-.15.07-.29.16-.41.28a1.284 1.284 0 0 0-.41.88Zm3.38 3.74c.02-.31-.03-.63-.14-.92-.12-.29-.3-.55-.53-.77-.22-.21-.5-.37-.79-.47a2.1 2.1 0 0 0-.93-.09c-.3.04-.59.13-.86.26a2.658 2.658 0 0 0-1.22 1.29c-.12.28-.19.58-.21.88 0 .05.01.11.02.16.02.05.05.09.09.13.04.04.08.07.13.09.05.01.11.02.16.02a15.725 15.725 0 0 1 1.92-.18c.32-.01.64-.01.96.01.32.01.64.03.96.07.06 0 .11-.01.16-.04.06-.02.1-.05.14-.09a.45.45 0 0 0 .14-.3v-.05Z"/><path id="Layer" class="shp3" d="M304.12 141.76c-.01.16.01.32.07.47.05.14.14.28.25.39.11.12.25.21.4.26.14.06.3.09.46.08.17-.01.33-.05.48-.11.15-.07.29-.16.41-.28a1.284 1.284 0 0 0 .41-.88c.01-.16-.01-.32-.07-.47a1.123 1.123 0 0 0-.64-.66c-.15-.05-.31-.08-.47-.07-.17.01-.33.05-.48.11-.15.07-.29.16-.41.28a1.284 1.284 0 0 0-.41.88Zm3.38 3.74c.02-.31-.03-.63-.14-.92-.12-.29-.3-.55-.53-.77-.22-.21-.5-.37-.79-.47a2.1 2.1 0 0 0-.93-.09c-.3.04-.59.13-.86.26a2.658 2.658 0 0 0-1.22 1.29c-.12.28-.19.58-.21.88 0 .05.01.11.02.16.02.05.05.09.09.13.04.04.08.07.13.09.05.01.11.02.16.02a15.725 15.725 0 0 1 1.92-.18c.32-.01.64-.01.96.01.32.01.64.03.96.07.06 0 .11-.01.16-.04.06-.02.1-.05.14-.09a.45.45 0 0 0 .14-.3v-.05Z"/><path id="Layer" fill-rule="evenodd" class="shp0" d="M274.71 141.89h1.65c.07-.01.13 0 .2.01.06.02.13.04.19.08a.62.62 0 0 1 .26.29l.03.09.03.09c0 .03.01.06.01.09v.5s0 .08.07 0l.71-.37.19-.09c.04-.03.09-.04.14-.05.05 0 .1 0 .14.02.05.01.09.04.13.07.03.03.06.07.08.12 0 .01 0 .03.01.04v.09c-.01.01-.01.03-.01.04l-.12 2.16v.11c-.01.04-.02.08-.04.11a.36.36 0 0 1-.07.1c-.03.03-.06.06-.1.08-.03.02-.07.03-.11.04h-.07c-.02 0-.05 0-.07-.01-.02 0-.05-.01-.07-.02l-.06-.03-.63-.31-.18-.09h-.07v.37c0 .03 0 .06-.01.09 0 .03-.01.06-.01.09l-.03.09-.03.09c-.02.04-.04.08-.07.12-.02.04-.05.07-.08.1-.03.04-.06.07-.1.1-.03.02-.07.05-.11.07-.03.02-.07.03-.1.04l-.11.03c-.04.01-.07.01-.11.02h-.11l-3.22.09c-.06.01-.12 0-.18-.01s-.11-.03-.17-.05c-.05-.03-.1-.06-.15-.1a.755.755 0 0 1-.11-.14c-.02-.03-.04-.06-.05-.1-.02-.03-.03-.07-.04-.1-.01-.04-.01-.07-.02-.11v-.11c.06-1 .11-2 .17-3 .01-.1.03-.19.07-.28.04-.08.1-.16.16-.23.07-.07.15-.13.23-.17a.9.9 0 0 1 .28-.08h1.7l-.04.02Zm-10.52 2.88c-.01.16-.05.31-.11.46-.06.14-.14.28-.24.4-.1.12-.22.22-.36.31-.13.08-.28.14-.43.18l-.08 1.45h.22c.07 0 .15.01.22.03.07.03.13.07.18.12.05.06.09.12.11.19.03.07.04.15.03.22v.09l-2.11.06v-.09c.01-.08.03-.15.06-.22s.07-.14.13-.19c.05-.06.12-.1.19-.13s.14-.05.22-.06h.23l.08-1.46c-.06-.01-.12-.02-.18-.05-.06-.02-.12-.04-.18-.07a.864.864 0 0 1-.16-.1.864.864 0 0 1-.14-.13.951.951 0 0 1-.15-.2.973.973 0 0 1-.11-.23c-.03-.08-.05-.16-.06-.25-.01-.08-.02-.17-.01-.25l.15-2.81c.01-.18.06-.35.13-.52.08-.16.18-.31.31-.44.13-.12.28-.22.44-.3.16-.07.34-.11.52-.12.17-.01.34.02.5.08.16.07.3.16.42.29.12.12.21.27.27.43.05.16.07.33.06.5l-.15 2.81Z"/><path id="Layer" class="shp0" d="M262.71 147.03c-.14 0-.27-.01-.41-.03-.13-.03-.27-.06-.39-.12-.13-.05-.25-.11-.36-.19-.12-.07-.22-.16-.32-.26s-.19-.22-.26-.34a2.33 2.33 0 0 1-.19-.39c-.05-.14-.08-.28-.1-.42-.02-.14-.03-.29-.02-.43 0-.04.02-.08.03-.11.02-.04.05-.07.08-.09a.36.36 0 0 1 .1-.07.36.36 0 0 1 .11-.02c.04 0 .08.01.12.03.03.01.07.04.09.07.03.03.05.06.06.1.02.04.02.08.02.12-.01.1-.01.2.01.31.01.1.04.2.07.29.03.1.08.19.13.28.06.09.12.17.19.24a1.303 1.303 0 0 0 .49.33c.09.04.19.06.28.08.1.01.2.02.3.01.22-.01.43-.06.63-.15.2-.08.39-.21.54-.36.16-.15.28-.33.37-.53.09-.2.15-.41.16-.63 0-.04.02-.08.03-.11.02-.04.05-.07.08-.09a.36.36 0 0 1 .1-.07.36.36 0 0 1 .11-.02c.04 0 .08.01.12.03.03.01.07.04.09.07.03.03.05.06.06.1.02.04.02.08.02.12-.02.29-.09.58-.22.85a2.402 2.402 0 0 1-1.23 1.2c-.27.12-.56.19-.85.2h-.04Z"/><path id="Layer" class="shp4" d="M292.71 142.09c-.01.16.01.31.06.46.06.15.14.28.25.4.11.11.24.2.39.25.15.06.3.09.46.08.17-.01.33-.05.48-.11.15-.07.29-.16.41-.28a1.284 1.284 0 0 0 .41-.88c.01-.16-.01-.31-.07-.46-.05-.15-.14-.28-.25-.4-.11-.11-.24-.2-.39-.25-.15-.06-.3-.09-.46-.08-.17.01-.33.04-.48.11-.15.07-.29.16-.41.28-.12.11-.21.25-.28.4-.07.15-.11.31-.12.48Zm3.35 3.72c.02-.31-.03-.62-.14-.91-.11-.3-.29-.56-.52-.77-.22-.22-.49-.38-.79-.48-.3-.1-.61-.13-.92-.09-.3.04-.59.13-.86.26-.27.14-.51.32-.71.54-.21.22-.38.47-.49.75-.12.27-.19.57-.21.87 0 .05 0 .11.02.16s.05.09.08.13a.38.38 0 0 0 .29.12c.31-.05.63-.09.95-.13.31-.03.63-.05.95-.06.32-.01.64 0 .96.01.32.01.63.04.95.07.06 0 .11-.01.16-.03.05-.03.1-.06.14-.09a.71.71 0 0 0 .1-.14c.02-.05.04-.1.04-.16v-.05Z"/><path id="Layer" class="shp3" d="M292.71 142.09c-.01.16.01.31.06.46.06.15.14.28.25.4.11.11.24.2.39.25.15.06.3.09.46.08.17-.01.33-.05.48-.11.15-.07.29-.16.41-.28a1.284 1.284 0 0 0 .41-.88c.01-.16-.01-.31-.07-.46-.05-.15-.14-.28-.25-.4-.11-.11-.24-.2-.39-.25-.15-.06-.3-.09-.46-.08-.17.01-.33.04-.48.11-.15.07-.29.16-.41.28-.12.11-.21.25-.28.4-.07.15-.11.31-.12.48Zm3.35 3.72c.02-.31-.03-.62-.14-.91-.11-.3-.29-.56-.52-.77-.22-.22-.49-.38-.79-.48-.3-.1-.61-.13-.92-.09-.3.04-.59.13-.86.26-.27.14-.51.32-.71.54-.21.22-.38.47-.49.75-.12.27-.19.57-.21.87 0 .05 0 .11.02.16s.05.09.08.13a.38.38 0 0 0 .29.12c.31-.05.63-.09.95-.13.31-.03.63-.05.95-.06.32-.01.64 0 .96.01.32.01.63.04.95.07.06 0 .11-.01.16-.03.05-.03.1-.06.14-.09a.71.71 0 0 0 .1-.14c.02-.05.04-.1.04-.16v-.05Z"/><path id="Layer" class="shp0" d="M295.71 143.5c-.08 0-.16-.03-.21-.09a.272.272 0 0 1-.09-.21c0-.08.03-.16.09-.21.05-.06.13-.09.21-.09l1.52-.05c.04 0 .08.01.12.02.03.02.07.04.1.07.02.02.05.06.06.09.02.04.03.08.03.12 0 .04-.01.08-.02.12-.01.04-.04.07-.06.1-.03.03-.07.05-.1.07-.04.01-.08.02-.12.02l-1.53.04Z"/><path id="Layer" fill-rule="evenodd" class="shp0" d="M296.31 144.24a.36.36 0 0 1-.1-.07c-.02-.03-.04-.07-.06-.1-.01-.04-.01-.08-.01-.12l.08-1.51c0-.17.15-.27.31-.3.04 0 .08.01.12.03.03.01.07.04.09.07.03.03.05.06.06.1.02.04.02.08.02.12l-.08 1.52c0 .04-.01.08-.03.11a.36.36 0 0 1-.07.1c-.03.03-.07.05-.1.06-.04.02-.08.02-.12.02-.04 0-.08-.01-.11-.03Zm27.02 1.46-8.35.23.29-5.9 8.35-.25-.29 5.92Zm12.06-6.07c.1.04.2.1.28.18.08.08.14.18.18.29.03.11.04.23.02.34l-.14 2.91c-.01.11-.04.22-.08.31-.05.1-.11.19-.19.27a.876.876 0 0 1-.59.25l-2.69.07-1.32 1.1c-.14.11-.23.07-.23-.1v-1h-.58a.758.758 0 0 1-.56-.22.758.758 0 0 1-.22-.56l.15-2.91c.01-.11.03-.21.08-.31s.11-.19.19-.26c.07-.08.17-.14.27-.18.1-.04.2-.07.31-.07l4.78-.14c.11-.02.23 0 .34.03Zm19.6 4.93a.781.781 0 0 1-.37-.06.79.79 0 0 1-.31-.2.79.79 0 0 1-.2-.31.781.781 0 0 1-.06-.37l.16-3.49c.01-.13.04-.26.09-.37.06-.12.13-.23.22-.32s.2-.16.32-.22c.11-.05.24-.08.37-.09l5.8-.17c.13-.01.25.01.37.06a.945.945 0 0 1 .51.52c.05.12.07.24.06.37l-.16 3.49c-.01.13-.04.26-.09.37-.05.12-.13.23-.22.32s-.2.17-.32.22c-.11.05-.24.08-.37.09l-5.8.16Zm20.68-1.55c-.01.13-.04.25-.09.37-.06.12-.13.23-.22.32s-.2.16-.32.22c-.12.05-.24.08-.37.09l-3 .09c.02-.48-.06-.97-.23-1.42-.18-.45-.44-.86-.79-1.2-.34-.34-.75-.6-1.2-.78-.45-.17-.94-.25-1.42-.22v-.75c.01-.13.04-.25.1-.37a.84.84 0 0 1 .22-.31c.09-.1.19-.17.31-.22.12-.06.24-.09.37-.1l5.85-.17c.12 0 .25.02.36.06.12.05.23.12.31.21.09.08.16.19.21.31.04.11.06.24.06.36l-.15 3.51Zm-6.96 1.17h-1l.05-1c.13-.01.27.01.39.05.12.05.24.12.33.22.09.1.16.21.2.34.04.12.05.26.03.39Z"/><path id="Layer" class="shp0" d="M369.85 144.15h-.55c.01-.19-.02-.39-.09-.57-.07-.18-.18-.34-.32-.48-.14-.13-.3-.24-.48-.31s-.38-.1-.57-.09v-.54c.27-.02.54.02.79.11.25.1.48.24.67.43.19.19.33.41.43.66.1.25.14.52.12.79Z"/><path id="Layer" class="shp0" d="M371.03 144.12h-.63c.02-.33-.04-.67-.16-.98-.12-.31-.3-.59-.54-.83-.23-.24-.52-.42-.83-.54-.31-.12-.65-.17-.98-.15v-.61c.42-.02.83.05 1.22.2.39.14.74.37 1.03.67.3.29.53.64.68 1.02.15.39.23.8.21 1.22Zm-24.01-2.05c-.02.28-.09.56-.21.82-.12.25-.28.48-.49.68-.2.2-.44.36-.7.47-.26.11-.54.17-.82.18-.27.01-.53-.04-.78-.13-.24-.1-.47-.25-.66-.43a2.21 2.21 0 0 1-.43-.66c-.09-.25-.14-.51-.13-.78.02-.28.09-.56.21-.81.12-.26.28-.49.48-.68.21-.2.44-.36.7-.47.26-.11.54-.17.82-.18.27-.01.53.03.78.13a1.907 1.907 0 0 1 1.1 1.08c.09.25.14.51.13.78Z"/><path id="Layer" fill-rule="evenodd" class="shp0" d="M344.71 145.76c-.23.01-.46-.01-.69-.05-.23-.04-.46-.1-.67-.19a3.3 3.3 0 0 1-.62-.32 3.84 3.84 0 0 1-.54-.44 3.231 3.231 0 0 1-.73-1.17 3.67 3.67 0 0 1-.18-.67c-.03-.23-.04-.46-.03-.69.04-.48.16-.96.37-1.4.2-.44.49-.84.84-1.18.35-.33.75-.61 1.2-.8.45-.19.92-.3 1.41-.32.24-.02.48-.01.71.03.24.04.47.1.7.18.22.09.43.2.63.33s.38.29.55.46a3.231 3.231 0 0 1 .73 1.17c.08.21.14.44.18.67.03.23.04.46.03.69-.04.48-.16.96-.37 1.4-.2.44-.49.84-.84 1.18-.35.33-.75.61-1.2.8-.45.19-.92.3-1.41.32h-.07Zm.37-6.47c-.39.02-.78.11-1.14.26a3.195 3.195 0 0 0-1.91 2.74c-.02.36.03.73.16 1.07a2.598 2.598 0 0 0 1.5 1.5c.34.13.71.19 1.07.17.39-.01.77-.1 1.13-.25a3.148 3.148 0 0 0 1.64-1.58c.16-.35.26-.73.29-1.12.01-.18 0-.36-.02-.53-.03-.18-.07-.35-.13-.52-.07-.17-.15-.33-.24-.48-.1-.15-.21-.29-.33-.42-.13-.13-.27-.25-.42-.36-.15-.1-.31-.19-.48-.26a3.16 3.16 0 0 0-.52-.17c-.18-.03-.37-.05-.55-.05h-.05Zm38.16 2.05c-.04.09-.1.18-.17.25-.08.07-.16.12-.26.16-.09.04-.19.07-.29.07-.1 0-.19-.01-.28-.05a.793.793 0 0 1-.25-.15.793.793 0 0 1-.15-.25.663.663 0 0 1 .03-.57c.04-.09.1-.18.17-.24.08-.07.16-.13.26-.17.09-.04.19-.06.29-.06.1-.01.19.01.28.04.09.04.18.09.25.16a.748.748 0 0 1 .2.52c-.01.1-.03.2-.08.29Zm2.6-.07c-.04.09-.1.18-.17.24-.08.07-.16.13-.26.17-.09.04-.19.06-.29.06-.1.01-.19-.01-.28-.04a.821.821 0 0 1-.25-.16.748.748 0 0 1-.2-.52c.01-.1.03-.2.08-.29.04-.09.1-.18.17-.25.08-.07.16-.13.25-.16.1-.04.2-.07.3-.07.1 0 .19.01.28.05.09.03.18.09.25.15.06.07.12.16.15.25a.663.663 0 0 1-.03.57Zm2.69-.37c-.01.1-.03.2-.08.29-.04.09-.1.18-.17.25-.08.07-.16.13-.25.16-.1.04-.2.07-.3.07-.1.01-.19-.01-.28-.04a.716.716 0 0 1-.41-.4.663.663 0 0 1-.05-.28c.01-.1.03-.2.07-.29.05-.1.11-.18.18-.25.07-.07.16-.13.25-.17.1-.04.2-.06.3-.06.1-.01.2.01.29.04.09.03.17.09.24.15.07.07.13.15.16.24.04.1.05.19.05.29Z"/></g><path id="Layer" class="shp0" d="M353.38 135.08c-.07-1.31-.25-2.62-.54-3.9-.29-1.28-.7-2.54-1.21-3.75a22.27 22.27 0 0 0-1.84-3.48c-.71-1.1-1.52-2.14-2.41-3.11-.2-.24-.41-.47-.63-.69-.22-.23-.44-.45-.68-.66-.23-.21-.47-.41-.71-.61-.24-.19-.49-.38-.75-.56a19.08 19.08 0 0 0-2.35-1.26 16.714 16.714 0 0 0-2.5-.92c-1-.29-2.01-.56-3.02-.82-1.01-.26-2.03-.51-3.05-.73-1.02-.23-2.04-.44-3.06-.64-1.03-.2-2.06-.38-3.09-.54-8.34-1.57-16.27-2.44-24.9-1.36-2.06.3-4.11.64-6.15 1.03s-4.07.83-6.09 1.3c-2.03.48-4.04 1-6.04 1.57-2 .56-3.99 1.17-5.96 1.82-3.95 1.22-8.84 2.54-11.81 5.07-.26.23-.5.47-.74.72-.23.26-.46.52-.68.79-.21.27-.41.54-.61.83-.19.29-.37.58-.54.88-2.31 3.82-3.88 8-5.93 11.89l95.29-2.87Z"/><path id="Layer" class="shp19" d="M353.38 135.08c-.07-1.31-.25-2.62-.54-3.9-.29-1.28-.7-2.54-1.21-3.75a22.27 22.27 0 0 0-1.84-3.48c-.71-1.1-1.52-2.14-2.41-3.11-.2-.24-.41-.47-.63-.69-.22-.23-.44-.45-.68-.66-.23-.21-.47-.41-.71-.61-.24-.19-.49-.38-.75-.56a19.08 19.08 0 0 0-2.35-1.26 16.714 16.714 0 0 0-2.5-.92c-1-.29-2.01-.56-3.02-.82-1.01-.26-2.03-.51-3.05-.73-1.02-.23-2.04-.44-3.06-.64-1.03-.2-2.06-.38-3.09-.54-8.34-1.57-16.27-2.44-24.9-1.36-2.06.3-4.11.64-6.15 1.03s-4.07.83-6.09 1.3c-2.03.48-4.04 1-6.04 1.57-2 .56-3.99 1.17-5.96 1.82-3.95 1.22-8.84 2.54-11.81 5.07-.26.23-.5.47-.74.72-.23.26-.46.52-.68.79-.21.27-.41.54-.61.83-.19.29-.37.58-.54.88-2.31 3.82-3.88 8-5.93 11.89l95.29-2.87Z"/><path id="Layer" class="shp19" d="M302.71 126.5c1.55.14 4 2.83 6.51 6.73v-6l-6.51-.73Zm0 0c-5 .71-6.59 6.44-8.81 5.92v-4.67l7.07-1.51 1.74.26Z"/><path id="Layer" class="shp8" d="M288.39 66.89c.91-1.59 2.43-3.06 4.12-3.21h.25l.26-.03c.08-.02.16-.03.25-.06.08-.02.16-.04.24-.07 1-.52.74-2.57.56-3.37-.08-.26-.21-.51-.38-.72a2.179 2.179 0 0 0-1.4-.78c-.27-.03-.55-.01-.81.06-.28.05-.56.13-.83.23-.27.1-.53.22-.78.36-.25.15-.49.31-.71.5-.22.19-.42.39-.61.61-.18.22-.36.45-.52.69-.16.24-.32.48-.46.74a11.197 11.197 0 0 0-.72 1.57c-1.54 3.84-1.75 8.13-2.23 12.11-.27 2.2-.52 4.41-.7 6.62-.06.33-.11.66-.14.99-.03.34-.05.67-.06 1.01-.01.33 0 .67.02 1 .03.34.06.67.11 1l.11-.48 2.39-11c.42-1.94.83-3.87 1.26-5.8.04-.17.09-.34.14-.51.05-.17.11-.34.18-.5.06-.17.13-.33.21-.49.08-.16.16-.32.25-.47Z"/><path id="Layer" class="shp20" d="m299.2 100.26-.2 3-1 14.8-.06.94c-.11.97-.02 1.95.26 2.88.29.93.76 1.79 1.39 2.53.64.74 1.42 1.34 2.3 1.76.87.42 1.83.66 2.8.69 4.85.2 10.7-4.53 11-9.57l-.23-22.69-16.26 5.66Z"/><path id="Layer" class="shp21" d="m299 103.24-1 14.8c4.89-3.76 9-10.18 9-10.18l-8-4.62Z"/><path id="Layer" class="shp20" d="M319.07 88.89c-.86 2-1.67 4.22-2.6 6.46-.54 1.28-1.11 2.56-1.74 3.76l-.27.51c-.34.62-.71 1.23-1.09 1.8l-.21.31-.09.12-.21.3c-.07.1-.15.2-.23.3-.07.1-.15.2-.23.29-.08.1-.16.2-.24.29l-.25.28-.54.58-.37.39c-.66.67-1.43 1.41-2.29 2.16l-.26.23c-1.13 1-2.39 2-3.73 3l-.29.21c-.21.15-.42.3-.64.44l-.6.4c-.51.33-1 .66-1.56 1l-.31.18c-.22.13-.44.25-.66.37-.23.12-.45.24-.68.36-.23.11-.45.22-.69.33-.23.11-.46.21-.69.31l-.32.14-.76.29c-.13.05-.25.09-.38.14-.13.04-.26.09-.39.13-.13.04-.26.08-.39.11-.13.04-.26.08-.39.11-.15.04-.3.08-.44.11l-.45.09c-.15.03-.3.05-.46.07-.15.03-.3.04-.45.06-.22.02-.44.04-.67.05-.22 0-.44 0-.66-.02-.22-.01-.45-.03-.67-.06-.22-.04-.43-.08-.65-.13l-.22-.06c-.03-.01-.06-.02-.09-.02l-.09-.03-.09-.03a.355.355 0 0 0-.09-.04l-.27-.1c-.07-.03-.14-.06-.2-.09-.07-.03-.14-.06-.2-.1-.07-.03-.14-.07-.2-.1-.06-.04-.13-.08-.19-.12-.03-.02-.07-.04-.1-.06l-.09-.06c-.04-.02-.07-.04-.1-.06-.03-.03-.06-.05-.09-.07l-.35-.29c-.18-.16-.35-.32-.51-.5a7.57 7.57 0 0 1-.45-.54c-.14-.19-.27-.39-.39-.59-.13-.21-.24-.42-.34-.63a38.49 38.49 0 0 1-1.66-4.04c-.48-1.37-.89-2.77-1.22-4.19-.34-1.42-.59-2.85-.77-4.3-.18-1.44-.28-2.89-.3-4.35-.03-1.81 0-3.62.1-5.43.11-1.81.28-3.61.51-5.4.24-1.8.54-3.58.9-5.36.37-1.77.8-3.53 1.3-5.27.86-3.17 1.76-6.43 3.7-9.2 5.42-7.76 16.25-9.65 23.85-6.43.47.2.94.42 1.39.66.46.23.9.49 1.33.77a17.95 17.95 0 0 1 2.43 1.88c3.27 3 3.52 6.92 3.9 11.53.48 5.76-1.44 11.61-3.85 17.15Z"/><path id="Layer" d="M315.83 92.91c.01.53-.01 1.06-.06 1.58a16.426 16.426 0 0 1-.55 3.12c-.14.5-.3 1.01-.49 1.5l-.27.51c-.34.62-.71 1.23-1.09 1.8l-.21.31-.09.12-.21.3c-.07.1-.15.2-.23.3-.07.1-.15.2-.23.29-.08.1-.16.2-.24.29l-.25.28-.54.58-.37.39c-.66.67-1.43 1.41-2.29 2.16l-.26.23c-1.13 1-2.39 2-3.73 3l-.29.21c-.21.15-.42.3-.64.44l-.6.4c-.51.33-1 .66-1.56 1l-.31.18c-.22.13-.44.25-.66.37-.23.12-.45.24-.68.36-.23.11-.45.22-.69.33-.23.11-.46.21-.69.31l-.32.14-.76.29c-.13.05-.25.09-.38.14-.13.04-.26.09-.39.13-.13.04-.26.08-.39.11-.13.04-.26.08-.39.11-.15.04-.3.08-.44.11l-.45.09c-.15.03-.3.05-.46.07-.15.03-.3.04-.45.06-.22.03-.44.04-.67.05-.22.01-.44 0-.66-.01-.22-.02-.45-.04-.67-.07-.22-.03-.43-.08-.65-.13l-.22-.06c-.03-.01-.06-.02-.09-.02l-.09-.03-.09-.03a.355.355 0 0 0-.09-.04l-.27-.1c-.07-.03-.14-.06-.2-.09-.07-.03-.14-.06-.2-.1-.07-.03-.14-.07-.2-.1-.06-.04-.13-.08-.19-.12-.03-.02-.07-.04-.1-.06l-.09-.06c-.04-.02-.07-.04-.1-.06-.03-.03-.06-.05-.09-.07l-.35-.29c-.18-.16-.35-.32-.51-.5a7.57 7.57 0 0 1-.45-.54c-.14-.19-.27-.39-.39-.59-.13-.21-.24-.42-.34-.63a38.49 38.49 0 0 1-1.66-4.04c-.48-1.37-.89-2.77-1.22-4.19-.34-1.42-.59-2.85-.77-4.3-.18-1.44-.28-2.89-.3-4.35.06.29.12.59.17.88.05.3.1.59.14.89l.12.89.09.89c.02.25.04.51.07.76.03.25.07.5.11.75l.15.75c.06.25.12.5.19.74.01.02.01.05.02.07.01.02.02.05.03.07.02.02.03.04.04.06.02.02.03.04.05.06.04.03.09.06.14.08.06.01.11.02.16.02.06 0 .11-.01.17-.02.05-.02.1-.05.14-.08.04-.04.09-.07.12-.11.04-.05.08-.09.11-.13.04-.05.07-.1.1-.15.02-.05.05-.1.07-.15.7-1.49 1.11-3.44 3-3.83.37-.11.74-.2 1.12-.27.37-.07.75-.13 1.13-.18a14.807 14.807 0 0 1 2.3-.07c.56-.09 1.12-.16 1.69-.2.56-.03 1.13-.05 1.69-.03.57.01 1.13.05 1.7.12.56.07 1.12.16 1.67.28.15.01.3.04.45.07.15.03.29.07.43.13.14.05.28.11.42.18.13.07.26.15.38.24 1.32 1.16.28 3.55 1.84 4.69a1.281 1.281 0 0 0 .41.18c.08.03.15.04.22.05.08.01.15.02.23.02 2.15.11 4.09-1.56 5.73-3.11.29-.25.57-.51.83-.78.27-.26.53-.54.78-.83.24-.29.48-.59.7-.9.23-.3.44-.62.64-.94.21-.44.4-.88.56-1.34.16-.45.29-.92.4-1.39.11-.47.2-.94.25-1.42.06-.48.09-.97.1-1.45.7 0 1.09-.21 1.79-.19" style="opacity:.8;fill:#462e3b"/><path id="Layer" class="shp8" d="M324.79 66.83c.36.25.69.55.96.89.28.34.51.72.69 1.12.17.41.29.83.35 1.27.06.43.06.87 0 1.31l-1.2-1.13c-.1 1.22-.24 2.43-.43 3.64-.19 1.2-.42 2.4-.7 3.59-.28 1.19-.61 2.37-.98 3.53-.37 1.17-.78 2.32-1.24 3.45-.47 1.44-1 2.86-1.48 4-1 2.19-.23 3.6-2.92 3.69-.94 0-1.43.42-1.91-.32s-1.64-1.08-1.62-1.89c.04-1.07.11-2.14.22-3.21.1-1.07.24-2.13.41-3.19.16-1.06.36-2.11.59-3.16.23-1.05.49-2.09.78-3.12.15-.6.3-1.2.41-1.8.06-.3.1-.59.15-.88.07-.41.12-.82.14-1.24.02-.41.01-.83-.02-1.24-.04-.42-.1-.83-.18-1.24-.08-.41-.19-.81-.33-1.2-1.27-3.24-4.91-5-8.56-5.06-.47.01-.94.03-1.41.06-.47.02-.94.06-1.41.1-.47.04-.93.09-1.4.15-.47.05-.94.12-1.4.19-.47.05-.94.1-1.42.13a32.774 32.774 0 0 1-2.84.12c-.47.01-.95 0-1.42-.01l-1.12-.06c-.05 0-.09-.01-.14-.01-.05-.01-.09-.01-.14-.02-.05 0-.09-.01-.14-.02-.05 0-.09-.01-.14-.02h-.33c-.17-.03-.34-.06-.5-.11-.17-.05-.33-.1-.49-.16-.16-.07-.32-.14-.47-.22-.15-.08-.3-.16-.44-.26h-.06a4.88 4.88 0 0 1-.54-.48c-.16-.18-.31-.37-.44-.57a3.94 3.94 0 0 1-.54-1.33 5.979 5.979 0 0 1 0-2.37c.06-.3.13-.58.21-.86.06-.17.12-.34.19-.51.06-.17.13-.34.2-.51.08-.16.15-.33.23-.49.08-.17.16-.33.25-.49a18 18 0 0 1 .37-.56c.13-.18.26-.35.4-.53a10.48 10.48 0 0 1 .91-.97l.08-.07c.51-.43 1.06-.82 1.64-1.17.58-.34 1.18-.63 1.81-.88.62-.24 1.27-.43 1.92-.57.66-.13 1.33-.21 2-.24.57-.02 1.13-.03 1.7-.02.57.02 1.13.05 1.7.1.56.06 1.12.13 1.68.22.56.09 1.12.19 1.67.32l.28.06 2.59.59c2.12.5 4.3.92 6.43 1.43l.81.2.73.2c.3.08.6.18.9.29.29.1.58.22.87.34.29.13.57.26.85.41.28.14.55.3.82.46.48.29 2.51 2.5 2.85 2.48-.27.05-.53.15-.77.31-.23.15-.43.34-.58.57-.16.23-.27.49-.32.77-.06.27-.06.55 0 .82.08.25.2.48.34.7a3.199 3.199 0 0 0 1.11 1.08c.22.14.46.24.71.32 1 .41 2.09.6 3.05 1.07-.24.31-.51.59-.81.84a5.992 5.992 0 0 1-2.02 1.13c-.37.11-.75.2-1.14.24Z"/><path id="Layer" class="shp20" d="M316.2 94.63c.03.09.07.18.12.27.04.08.09.16.15.24.06.08.13.15.2.22.07.06.14.12.22.18 1.06.67 2.47 0 3.4-.76.25-.22.49-.44.73-.67.24-.23.47-.47.7-.71.22-.24.45-.48.66-.73.22-.25.43-.51.63-.77 1.3-1.5 2.64-3.4 2.82-5.34.09-.7-.02-1.42-.31-2.06-.3-.64-.77-1.19-1.36-1.58-.59-.4-1.27-.62-1.98-.64-.71-.02-1.41.16-2.02.51-.27.16-.53.34-.77.54-.25.2-.48.41-.69.64-.22.23-.42.47-.6.73-.18.25-.35.52-.49.8-.18.34-.35.69-.5 1.04-.15.36-.29.72-.41 1.09-.12.36-.23.73-.33 1.11-.09.37-.17.75-.23 1.13-.09.34-.16.68-.21 1.03-.05.35-.08.7-.1 1.05-.01.35 0 .7.03 1.05.03.35.07.7.14 1.04.01.05.03.1.04.15.02.05.03.1.05.15.02.05.03.1.05.15.02.04.04.09.06.14Z"/><path id="Layer" class="shp8" d="M290.1 83.92c-.15 1.31-.88 2.37-1.63 2.36-.75-.01-1.23-1.08-1.08-2.39.15-1.31.87-2.39 1.62-2.39.75 0 1.23 1.08 1.09 2.39m13.04.46c-.14 1.28-.87 2.3-1.62 2.29-.75-.01-1.25-1-1.11-2.32.14-1.32.87-2.3 1.62-2.29.75.01 1.25 1 1.11 2.32Z"/><path id="Layer" class="shp21" d="M305.58 90.92c-.01.29-.08.57-.19.83s-.27.51-.47.71c-.19.21-.43.38-.68.51-.26.13-.54.21-.82.24a1.86 1.86 0 0 1-.76-.26c-.23-.14-.43-.33-.58-.55a1.8 1.8 0 0 1-.31-.74c-.05-.26-.04-.54.02-.8.01-.29.08-.57.19-.83s.27-.5.46-.71c.2-.21.43-.38.68-.51.26-.13.54-.21.82-.24.27.03.53.12.76.26.23.14.43.33.58.55.16.22.26.47.31.74.06.26.05.54-.01.8m-18.79-.49c-.01.24-.07.48-.16.71-.1.22-.23.43-.4.6-.16.18-.36.33-.58.43-.21.11-.45.18-.69.21-.23-.03-.45-.1-.65-.22-.19-.12-.36-.28-.49-.47-.14-.19-.22-.4-.27-.63-.04-.22-.03-.46.02-.68.01-.24.06-.49.15-.71.09-.23.22-.44.39-.62.17-.17.37-.32.59-.43.22-.1.46-.17.7-.19.23.03.45.1.65.22.19.12.36.28.49.47.14.19.22.4.27.63.04.22.03.46-.02.68Z"/><path id="Layer" class="shp20" d="M293.76 79.66c-.03 1.27-.15 2.53-.36 3.78s-.51 2.48-.9 3.69c-.38 1.21-.86 2.39-1.41 3.53a28.3 28.3 0 0 1-1.91 3.28c-.06.07-.11.14-.15.21-.05.07-.09.15-.13.23-.03.08-.07.16-.09.24-.03.08-.05.16-.07.25-.01.08-.01.16.01.24.01.08.03.16.06.23.03.08.07.15.12.21.04.07.1.13.16.18.66.63 1.54.42 2.4.26.28-.05.57-.09.85-.11.29-.03.57-.04.86-.04.29 0 .57.01.86.04.28.02.57.06.85.11.1.03.21.06.31.07.11.01.22.02.33.01.1-.01.21-.03.31-.07.11-.03.21-.07.3-.12.07-.06.14-.13.2-.2.06-.08.11-.16.15-.25.04-.08.07-.17.08-.27.02-.09.03-.18.03-.28 0-.09-.01-.17-.02-.26-.01-.08-.02-.17-.04-.25l-.06-.25-.09-.24-.23-.68"/><path id="Layer" class="shp20" d="m296.71 93.78-.23-.68-.27.11-2.19-12.24c0-.44.05-.89.05-1.33h-.56c-.03 1.25-.15 2.5-.35 3.74-.21 1.24-.51 2.46-.89 3.65-.39 1.19-.86 2.36-1.41 3.48a25.02 25.02 0 0 1-1.89 3.25c-.06.08-.12.16-.17.24a2.148 2.148 0 0 0-.24.53c-.03.1-.05.19-.07.29-.01.1-.01.2.01.3.01.1.04.19.07.28.04.1.09.19.14.27.06.08.13.15.2.22.18.13.37.24.58.32a2.664 2.664 0 0 0 1.93.03h.13c.27-.05.55-.09.83-.11.28-.03.56-.04.83-.04.28 0 .56.01.84.04.28.02.56.06.83.11l.18.03.18.03c.06 0 .13.01.19.01h.18c.07 0 .13-.01.19-.02.07-.01.13-.02.19-.04a.75.75 0 0 0 .18-.08c.06-.03.12-.06.17-.1a1.421 1.421 0 0 0 .44-.54c.05-.1.09-.21.11-.32.03-.12.04-.23.04-.35 0-.09-.01-.18-.02-.28-.01-.09-.03-.18-.04-.27a2.68 2.68 0 0 0-.07-.27c-.03-.09-.06-.17-.09-.26Z"/><path id="Layer" d="M293.76 79.66c-.03 1.27-.15 2.53-.36 3.78s-.51 2.48-.9 3.69c-.38 1.21-.86 2.39-1.41 3.53a28.3 28.3 0 0 1-1.91 3.28c-.06.07-.11.14-.15.21-.05.07-.09.15-.13.23-.03.08-.07.16-.09.24-.03.08-.05.16-.07.25-.01.08-.01.16.01.24.01.08.03.16.06.23.03.08.07.15.12.21.04.07.1.13.16.18.66.63 1.54.42 2.4.26.28-.05.57-.09.85-.11.29-.03.57-.04.86-.04.29 0 .57.01.86.04.28.02.57.06.85.11.1.03.21.06.31.07.11.01.22.02.33.01.1-.01.21-.03.31-.07.11-.03.21-.07.3-.12.07-.06.14-.13.2-.2.06-.08.11-.16.15-.25.04-.08.07-.17.08-.27.02-.09.03-.18.03-.28 0-.09-.01-.17-.02-.26-.01-.08-.02-.17-.04-.25l-.06-.25-.09-.24-.23-.68" style="opacity:.4;fill:none;stroke:#f2692c;stroke-width:.57"/><path id="Layer" d="M323.28 85.32c-.12-1.4-1.55-.78-2.33-.18-.31.23-.59.5-.83.8-.25.3-.46.62-.63.97a4.958 4.958 0 0 0-.54 2.23c.13 1.79.51 2.85-.66 3" style="opacity:.4;fill:none;stroke:#f2692c;stroke-width:.61"/><path id="Layer" d="M299.47 78.62c1.33-1 5.51-1.35 7.15 1m-20.78-.28c.37-.44.82-.8 1.33-1.08.5-.28 1.04-.47 1.61-.56.57-.1 1.15-.09 1.71.02.57.11 1.11.32 1.6.62" style="fill:none;stroke:#462e3b;stroke-width:1.05"/><path id="Layer" fill-rule="evenodd" d="M319.65 66.2c.08.29.16.59.22.89.06.3.11.6.16.9a14.133 14.133 0 0 1 .12 1.83c0 .05-.01.1-.03.14-.02.04-.04.09-.07.12-.04.04-.07.07-.11.09-.05.03-.09.04-.14.05-.04.01-.09.01-.13 0a.31.31 0 0 1-.13-.06c-.03-.02-.06-.06-.09-.09-.02-.04-.03-.09-.04-.13-.04-.31-.1-.62-.18-.92-.08-.31-.18-.61-.31-.89-.12-.29-.26-.57-.43-.84-.16-.27-.34-.53-.54-.77.55 2.94.97 5.52-.65 8.8a.36.36 0 0 1-.07.1c-.03.03-.07.05-.1.07-.04.02-.08.04-.12.05-.04.01-.08.01-.12.01-.01 0-.03 0-.04-.01-.02 0-.03-.01-.04-.01-.02-.01-.03-.01-.04-.02-.02 0-.03-.01-.04-.02.06-.3.1-.59.15-.88.01.05.02.1.03.14.01.05.02.1.02.15.01.05.02.1.02.14.01.05.02.1.02.15 1.7-3.45 1.06-6.12.47-9.35 0-.03 0-.06.02-.09s.04-.06.07-.07c.03-.02.06-.02.09-.02s.06.01.09.03c.29.28.56.58.79.9.24.32.45.66.63 1.02s.33.73.44 1.12c.11.38.19.77.24 1.17 0-.52-.04-1.03-.1-1.54-.07-.51-.17-1.02-.29-1.52-.13-.5-.29-.99-.48-1.47s-.4-.95-.65-1.4c-.01-.03-.02-.06-.01-.1 0-.03.02-.06.04-.08.03-.03.06-.04.09-.05.04 0 .07 0 .1.02.2.1.39.23.56.38.17.15.33.32.45.51.13.19.24.39.31.61.08.21.13.43.15.66-.15-3.08-.94-6.37-3.53-7.93.29-.11.59-.2.9-.25.31-.05.62-.07.93-.06.31.01.62.06.92.13.31.08.6.18.88.32-.15-.35-.31-.68-.5-1.01-.19-.33-.4-.64-.62-.94-.23-.31-.47-.59-.73-.86-.26-.28-.54-.53-.83-.77l.81.2c.24.23.46.46.67.71.22.25.41.51.6.78s.36.55.51.84c.16.28.3.58.43.88l.03.11c0 .04 0 .08-.01.12-.01.04-.03.07-.05.1-.02.04-.05.07-.08.09a.36.36 0 0 1-.1.07c-.03.02-.07.03-.11.04h-.12a.487.487 0 0 1-.11-.04c-.2-.1-.4-.18-.61-.24-.21-.06-.43-.11-.65-.14-.22-.03-.44-.04-.66-.03-.22.01-.43.04-.65.08 1.86 1.47 2.89 4.11 3.06 7.85 0 .05-.01.1-.03.15-.02.04-.04.08-.07.12a.47.47 0 0 1-.12.09c-.04.03-.09.04-.14.05a.17.17 0 0 1-.1 0c-.04-.01-.07-.02-.1-.03-.04-.02-.06-.04-.09-.06l-.06-.09Zm-.41-1.19c.04.11.09.22.13.34.04.11.09.22.13.34.04.11.07.23.11.34-.01-.12-.02-.24-.05-.36-.02-.12-.06-.24-.1-.36-.05-.11-.1-.22-.16-.33-.06-.1-.13-.2-.21-.3l.15.33Zm-25.1.09c-.17-.04-.33-.09-.5-.15-.16-.06-.32-.12-.48-.2-.15-.08-.3-.16-.45-.25.15.09.3.17.46.24.15.07.31.14.48.2l.49.15c.17.04.34.07.51.1-.17-.02-.34-.05-.51-.09Z" style="opacity:.2;fill:#fff"/><path id="Layer" class="shp8" d="M317.38 65.38c.62 3.44 1.4 6.2-.38 9.81 0-.05-.01-.1-.02-.15 0-.04-.01-.09-.02-.14 0-.05-.01-.1-.02-.15-.01-.04-.02-.09-.03-.14a4.7 4.7 0 0 0-.38-1.09c-.17-.35-.38-.67-.62-.97-.25-.3-.53-.56-.84-.79-.31-.24-.65-.43-1-.58.09.44.14.89.15 1.35.01.45-.03.9-.11 1.35-.08.44-.21.88-.37 1.3-.17.42-.38.83-.62 1.21a8.052 8.052 0 0 0 .05-3.25 7.66 7.66 0 0 0-.46-1.57c-.2-.51-.46-.99-.76-1.45-.27.56-.53 1.12-.79 1.68-.03-.63-.14-1.24-.33-1.84-.19-.6-.45-1.17-.77-1.71-.33-.53-.72-1.02-1.17-1.46-.45-.44-.95-.82-1.49-1.13-2.19-1.24-7.12.34-11.86-.35-.05 0-.09-.01-.14-.01-.05-.01-.09-.01-.14-.02-.05 0-.09-.01-.14-.02-.05 0-.09-.01-.14-.02h-.33c-.17-.03-.34-.07-.51-.11-.17-.05-.33-.11-.5-.17-.16-.06-.32-.13-.47-.21-.16-.07-.31-.16-.46-.25h-.06c-1.63-1.06-2.17-3-1.33-5.61.06-.17.12-.34.19-.51.06-.17.13-.34.2-.51.08-.16.15-.33.23-.49.08-.17.16-.33.25-.49a18 18 0 0 1 .37-.56c.13-.18.26-.35.4-.53a10.48 10.48 0 0 1 .91-.97l.08-.07a19.65 19.65 0 0 1 4.22-2.75c.76-.36 1.54-.68 2.34-.95.8-.26 1.61-.48 2.44-.64 3.52-.68 7.53-1.17 10.06 1-1.06-.9-4-.15-4.89.86h.31c.78-.13 1.57-.18 2.37-.15.79.03 1.57.14 2.34.34.77.19 1.52.45 2.24.8.71.34 1.39.75 2.02 1.23.29.24.57.49.83.77.26.27.5.55.73.86.22.3.43.61.62.94.19.33.35.66.5 1.01-.28-.14-.57-.24-.88-.32-.3-.07-.61-.12-.92-.13-.31-.01-.62.01-.93.06-.31.05-.61.14-.9.25 2.62 1.58 3.4 4.94 3.54 8.06-.01-.28-.06-.56-.16-.82-.09-.27-.23-.51-.4-.74-.17-.22-.38-.41-.61-.57-.23-.16-.48-.29-.75-.37.28.48.53.97.75 1.48.21.51.39 1.03.54 1.56.15.54.26 1.08.33 1.63.08.54.12 1.1.12 1.65-.05-.43-.15-.85-.28-1.26-.13-.42-.3-.81-.51-1.19-.21-.38-.45-.74-.73-1.07-.27-.34-.58-.64-.91-.92Z"/><path id="Layer" d="m315.9 72.5.06.08v.09c-.05-.02-.05-.07-.06-.17Z" style="fill:red"/><path id="Layer" class="shp8" d="m298.08 99.62-.65.54c-2.25 1.75-4.28 2.24-6.12 1.65-.3-.1-.59-.23-.87-.37-.28-.14-.56-.31-.82-.48a7.09 7.09 0 0 1-.74-.59c-.23-.21-.46-.44-.66-.68-.22-.24 0-.74.35-.66l.78.16c.58.1 1.16.17 1.74.22.59.05 1.17.08 1.76.08.59 0 1.17-.03 1.76-.08.58-.05 1.16-.12 1.74-.22.51-.07 1-.16 1.55-.27.33-.04.46.46.18.7Z"/><path id="Layer" class="shp17" d="M297.43 100.16c-2.25 1.75-4.28 2.24-6.12 1.65.13-.21.28-.4.45-.58.16-.18.34-.35.54-.49.2-.15.41-.28.63-.39.22-.11.44-.19.68-.26a7.811 7.811 0 0 1 1.66-.17 7.872 7.872 0 0 1 1.67.17c.04 0 .08.01.12.01.04 0 .09.01.13.01.04.01.08.02.12.02l.12.03Z"/><path id="Layer" d="M296.07 63.9c-.1-.18-.19-.36-.26-.54-.08-.19-.14-.38-.19-.58-.06-.19-.09-.39-.12-.59-.03-.2-.04-.4-.04-.6.02-.69.12-1.38.29-2.05.16-.67.41-1.32.72-1.94.31-.62.68-1.2 1.12-1.74.44-.53.93-1.02 1.47-1.45.55-.44 1.13-.85 1.73-1.22.6-.36 1.23-.69 1.87-.98.65-.28 1.31-.52 1.99-.72.67-.2 1.36-.35 2.06-.46m-6.4 13.21c.03-.5.11-1 .22-1.49.12-.49.28-.96.49-1.42a8.232 8.232 0 0 1 1.67-2.49c.36-.37.73-.72 1.13-1.04.4-.33.82-.63 1.26-.9.43-.27.89-.52 1.35-.73.47-.22.95-.4 1.44-.56.36-.12.72-.22 1.08-.31.37-.09.74-.16 1.11-.21.37-.06.75-.1 1.12-.13.38-.03.75-.04 1.13-.03m-2.78 5.47c.3-.2.61-.37.94-.52.33-.14.67-.26 1.02-.34.34-.09.7-.14 1.06-.17.35-.02.71-.01 1.07.03a5.006 5.006 0 0 1 1.89.65c.29.18.57.38.82.6.24.23.47.48.67.75m-23 2.8c-.86-1.2-1.77-2.57-1.45-4.11" style="opacity:.102;fill:none;stroke:#fff;stroke-linecap:round;stroke-linejoin:round;stroke-width:.37"/><path id="Layer" class="shp0" d="M302.71 126.5c-2.58-.16-7.4 2.72-8.81 5.92-2.41-3.09-2.58-9.83-1.2-13.76.14-.4.3-.79.47-1.18.18-.38.37-.76.59-1.13.21-.36.44-.72.68-1.07.24-.34.5-.68.78-1 .25 0 .5-.1.76-.17.5-.13 1-.29 1.54-.48l.75-.3h.09l-.12 1.36-.09 1.35c-.03.46-.06.91-.08 1.36l-.06 1.36c-.03.47-.01.94.04 1.41.05.46.14.93.26 1.38.13.45.29.89.49 1.32.2.42.43.83.7 1.22.19.29.4.56.63.8.24.25.49.48.76.69.28.2.57.38.87.54.31.15.62.28.95.38Zm6.51 6.72c-.65-3-2.67-6-6.22-6.65 2.88-.46 4.85-3 6.87-5.09.49-.5.96-1.03 1.42-1.57.45-.54.88-1.1 1.29-1.67.41-.57.8-1.16 1.16-1.76.37-.61.71-1.22 1.03-1.85a9.266 9.266 0 0 0 .8-2.52c.08-.44.12-.88.14-1.32.01-.45-.01-.89-.06-1.33.47-.05.94-.02 1.39.09.46.1.89.28 1.29.53s.75.56 1.05.92c.29.36.53.77.69 1.21.32 6.47-2.51 16.21-10.85 21.01Z"/><path id="Layer" class="shp5" d="m416 95.03-53.58 3.19c-.06 0-.12.02-.18.04-.06.03-.11.06-.15.11-.05.04-.08.09-.11.15-.02.06-.04.12-.04.18l-1.85 33.46c-.01.07 0 .14.03.21.02.06.06.12.11.17.05.05.11.09.17.12.07.02.14.03.21.03l54.16-2.31c.06 0 .13-.02.18-.04.06-.03.11-.07.16-.11.04-.05.08-.1.11-.16.02-.05.04-.12.04-.18l1.27-34.34c0-.07-.01-.14-.03-.2a.567.567 0 0 0-.12-.18c-.05-.05-.11-.08-.17-.11a.761.761 0 0 0-.21-.03Z"/><path id="Layer" class="shp0" d="m415.34 93.85-54.6 3.27-1.87 34.41 55.15-2.31 1.32-35.37Z"/><path id="Layer" d="m415.34 93.85-54.6 3.27-1.87 34.41 55.15-2.31 1.32-35.37Z" style="opacity:.4;fill:#2d8cff"/><g id="Clip-Path" clip-path="url(#cp1)"><g id="Layer"><path id="Layer" class="shp12" d="M397.47 127.57c-.14-.62-.29-1.24-.46-1.85-.17-.62-.35-1.23-.54-1.83-.2-.61-.4-1.21-.63-1.81-.22-.59-.45-1.18-.7-1.77-.04-.1-.07-.21-.09-.32-.03-.1-.05-.21-.07-.32l-.03-.33v-.33c-.44.36-.87.73-1.29 1.12-.43.38-.84.77-1.24 1.18-.41.4-.8.81-1.18 1.24-.39.42-.76.85-1.12 1.29-1.47 1.84-3.27 1.88-4.77.4-.27-.3-.55-.6-.84-.9-.29-.29-.58-.58-.88-.86-.3-.28-.6-.56-.91-.83-.31-.27-.62-.53-.94-.79-.08.12-.15.25-.22.37-.08.13-.15.26-.22.38-.07.13-.13.26-.2.39-.06.13-.13.26-.19.39-.95 2.25-1.84 4.12-2.61 6-1.55 3.75-2.62 7.53-2.65 14.4.01.39.03.78.07 1.16.04.39.1.77.17 1.16.07.38.15.76.26 1.13.1.37.22.75.35 1.11.13.36-.28.29-1.07-.08-3.06-1.53-4.42-5.16-4.9-8.66-.5-3.71-.5-6.39-1.17-9.83-.08-.38-.16-.76-.25-1.16-.12-.5-.25-.99-.4-1.48-.15-.49-.32-.98-.49-1.46-.18-.48-.38-.95-.58-1.42-.21-.46-.43-.93-.67-1.38-.29.58-.66 1.09-1.27 1.13-.61.04-.74.44-1 .92-.8 1.65-2.5 2.16-3.72 1.09-.37-.33-.57-.76-1.2-.28-.25.19-.53.33-.82.42-.3.1-.61.14-.92.14-.31-.01-.62-.07-.91-.17a2.7 2.7 0 0 1-.81-.46c-.24-.2-.28 1.3-.35 2-.1.93-.14 1.84-.15 2.73 0 1.14.08 2.28.23 3.41.15 1.13.37 2.25.66 3.35.3 1.1.66 2.18 1.09 3.24.43 1.05.93 2.08 1.49 3.07 3.65 6.72 9.1 9.44 16.25 9.07h1.57l5.35.18c-.05-4.82.27-9.65-.12-14.4-.05-.33-.08-.67-.1-1a11.123 11.123 0 0 1 .21-3c.41-1.6 1.91-2.37 2.91-1.26.16.21.3.44.42.68.12.24.22.49.31.74.08.26.14.52.17.78.04.27.06.53.05.8 0 5.48-.18 11-.44 16.52l2-.06c.29-5.82.7-11.62.88-17.38.07-2.25 1.55-3.2 2.54-2.8.24.12.46.28.65.47.19.18.36.4.48.64.13.23.22.49.27.75.05.26.06.53.03.8.01.71 0 1.42-.01 2.13-.02.71-.04 1.42-.08 2.13a76.182 76.182 0 0 1-.36 4.25c-.29 2.9-.53 5.77-1.11 8.87 4.11-.09 6.67-3.36 7-7.62.15-1.35.24-2.7.29-4.06.04-1.35.03-2.71-.03-4.06-.06-1.36-.18-2.71-.34-4.06-.17-1.34-.38-2.68-.65-4.01Z"/><path id="Layer" class="shp13" d="M359.85 124.74c.63-.48.83 0 1.2.28 1.22 1.07 2.92.56 3.72-1.09.23-.48.4-.89 1-.92.6-.03 1-.55 1.27-1.13-.23-.63-.52-1.23-.88-1.79s-.78-1.09-1.24-1.56c-.47-.48-.99-.9-1.55-1.27a9.91 9.91 0 0 0-1.78-.9c-.16-.08-.34-.13-.52-.15-.17-.02-.36 0-.53.05-.17.05-.33.14-.48.25-.14.11-.26.24-.35.4a19.875 19.875 0 0 0-2.07 3.7c-.27.65-.51 1.32-.72 2-.2.68-.37 1.36-.5 2.06.24.19.51.34.8.45.29.1.6.16.9.16.31.01.62-.03.91-.13.29-.09.57-.23.82-.41Z"/><path id="Layer" class="shp11" d="M392.84 134.02c.03-.27.02-.54-.03-.8s-.14-.52-.27-.75c-.12-.24-.29-.46-.48-.64a2.51 2.51 0 0 0-.65-.47c-1-.4-2.47.55-2.54 2.8-.18 5.76-.59 11.56-.88 17.38.27.03.55.06.82.07.28.01.56.01.83-.01.28-.01.55-.03.82-.06.28-.04.55-.08.82-.14.58-3.1.82-6 1.11-8.87a76.016 76.016 0 0 0 .36-4.25c.04-.71.06-1.42.08-2.13.01-.71.02-1.42.01-2.13Zm-7.41-1.97c-1-1.11-2.5-.34-2.91 1.26a11.325 11.325 0 0 0-.23 2c-.01.33 0 .67.02 1 .02.33.05.67.1 1 .39 4.75.07 9.58.12 14.4.28.04.57.07.85.08.29.02.57.02.86.01.28 0 .57-.02.85-.05.29-.03.57-.07.85-.12.26-5.53.47-11 .44-16.52.01-.27 0-.54-.04-.81s-.09-.54-.18-.8c-.08-.26-.18-.51-.3-.76-.12-.24-.27-.47-.43-.69Z"/><g id="Layer"><path id="Layer" fill-rule="evenodd" class="shp13" d="M397.71 114.6c1.49.6 2.17 2.72 2.84 4.37-1.55.24-7.83 3.19-11.7 6.65-1.72 1.55-3.46 1.21-4.67-.58-1.69-3-5.18-7-6.69-8.06-.59-.4-1.38-.93-1.56-1.66.29-.3.59-.58.9-.85.31-.27.63-.53.97-.77.33-.24.68-.47 1.04-.68.35-.21.72-.4 1.09-.58 3.04-1.09 15.14 1.11 17.78 2.16Z"/><path id="Layer" fill-rule="evenodd" class="shp12" d="M375.91 115.32c-.17-.37 0-.82.32-1.36.35-.67.7-1.33 1.07-1.98a91 91 0 0 1 1.15-1.95c.4-.63.81-1.27 1.23-1.89.42-.63.85-1.24 1.29-1.85 2.87-3.51 5.71-4.54 10.53-4 7.28.85 8.3 6.71 8.89 6.91 1.19 3.38.57 6 .84 9 .05.5-.3.67-.7.72-.14-.39-.32-.76-.53-1.12-.21-.35-.46-.68-.74-.98-.28-.31-.59-.58-.93-.82-.33-.24-.69-.45-1.07-.62-2.61-1.05-5.69-.69-7.65 3.31-.18.4-.34.81-.49 1.22-.15.42-.29.84-.41 1.26-.12.42-.23.85-.33 1.27-.09.43-.17.87-.24 1.3-.87-.22-1.81-.72-2.69-.07.11-.49.21-.99.29-1.48a25.61 25.61 0 0 0 .29-3.01c.01-.5.01-1.01 0-1.51.01-.75-.16-1.5-.5-2.17-.33-.67-.83-1.26-1.43-1.7-.61-.45-1.32-.74-2.06-.85-.74-.12-1.51-.06-2.22.18-.36.1-.72.23-1.07.37-.34.15-.68.31-1.01.5a7.3 7.3 0 0 0-.95.61c-.31.22-.6.46-.88.71Z"/><path id="Layer" fill-rule="evenodd" class="shp13" d="M382.34 105.24a5.37 5.37 0 0 1-.31-.69c-.08-.23-.14-.48-.19-.72-.04-.25-.06-.5-.07-.75 0-.25.01-.5.05-.75.23-.77.74-2.44 1.53-2.47.26.02.51.07.75.16a2.795 2.795 0 0 1 1.23.91c.16.2.29.43.38.67.03.11.06.22.08.34.02.11.05.22.07.34.02.11.04.22.05.34.02.11.04.23.05.34a6.833 6.833 0 0 0-2 .84c-.3.2-.59.42-.87.66-.27.24-.52.5-.75.78Z"/><path id="Layer" fill-rule="evenodd" class="shp11" d="M388.05 123.5a2.32 2.32 0 0 0-.59-.34c-.21-.09-.44-.13-.67-.15-.23-.01-.45.01-.68.07-.22.06-.43.16-.62.28-.1.13-.18.29-.22.45-.04.17-.05.34-.01.5a1.14 1.14 0 0 0 .56.81c.14.1.29.17.46.21.16.05.33.07.5.06.17 0 .33-.04.49-.1.16-.06.31-.14.44-.25.12-.08.22-.19.3-.31.09-.12.14-.25.18-.39.03-.14.03-.29.01-.43-.03-.15-.08-.29-.15-.41Zm-5.71-18.26c-.09-.25-.15-.5-.2-.76-.04-.25-.07-.51-.07-.78-.01-.26.01-.52.04-.78.04-.25.09-.51.17-.76.24-.76.45-1.92 1.24-1.92 1.16.01 2.11 2.37 2.16 2.79.12.02.24.01.35-.01.12-.02.23-.06.34-.11a1.183 1.183 0 0 0 .48-.51c-.26-1.91-1.42-2.46-2.56-3.46-.56-.49-1.36-.15-1.93.42-1.43 1.45-1.87 4.94-1.18 6.68.13 0 .25-.02.37-.05.12-.04.23-.09.34-.17.1-.07.19-.15.27-.25.08-.1.14-.21.18-.33Z"/><path id="Layer" fill-rule="evenodd" class="shp13" d="M399.5 108.1c.2-.17.4-.35.57-.54.18-.2.34-.41.49-.63.14-.22.27-.45.38-.69.11-.24.21-.49.28-.74.09-.8.31-2.53-.44-2.79-.27-.05-.55-.07-.82-.06-.28.02-.55.07-.81.16-.27.09-.51.21-.75.36a2.9 2.9 0 0 0-.62.54c-.08.1-.15.2-.22.3-.08.11-.15.21-.22.31-.07.11-.14.21-.2.32-.07.11-.14.21-.2.32.3.17.58.37.84.6.26.22.51.47.72.74a5.723 5.723 0 0 1 1 1.8Z"/><path id="Layer" fill-rule="evenodd" class="shp11" d="M399.5 108.1c.19-.24.37-.49.54-.76.16-.26.31-.53.44-.81s.25-.57.35-.86c.1-.3.18-.6.24-.9.29-1.62.23-1.96-.42-1.89-.35.07-.69.18-1.03.31-.33.14-.65.3-.95.49-.31.19-.6.4-.86.64-.27.24-.52.5-.74.78-.12-.02-.23-.06-.34-.12a.934.934 0 0 1-.27-.22.968.968 0 0 1-.18-.31 1.03 1.03 0 0 1-.06-.35c1.03-1.72 3.25-2.5 4.83-2.81 1.13-.23 1.17.41 1.37 1.17.49 1.94-.76 5.31-2.14 6.75a.845.845 0 0 1-.33-.16c-.1-.07-.19-.15-.26-.25s-.12-.22-.16-.34c-.03-.11-.04-.24-.03-.36Zm-6.11 11.53c-.14-.03-.28-.08-.4-.16-.12-.09-.22-.19-.3-.32a1.14 1.14 0 0 1-.15-.4c-.02-.14-.01-.29.03-.43.01-.15.05-.29.12-.42.07-.14.17-.25.29-.34.12-.08.26-.14.41-.17.15-.03.3-.02.44.02.67.13.86.66.73 1.35-.02.14-.06.27-.13.39a1.1 1.1 0 0 1-.27.3c-.11.08-.23.14-.36.17-.14.03-.28.03-.41.01Zm-12.07-3.25c.04-.11.1-.22.17-.31.08-.1.17-.17.28-.23.1-.06.21-.11.33-.13.12-.01.24-.01.36.01.16.02.31.08.44.17.13.08.24.2.32.34.07.14.12.3.12.46 0 .16-.03.32-.1.46a1.085 1.085 0 0 1-.45.6c-.11.07-.23.11-.35.14-.13.03-.25.03-.38.01-.74-.15-.93-.67-.74-1.52Z"/></g></g></g><path id="Layer" d="m415.34 93.85-54.6 3.27-1.87 34.41 55.15-2.31 1.32-35.37Z" style="fill:none;stroke:#fff;stroke-linecap:round;stroke-linejoin:round;stroke-width:.77"/><path id="Layer" fill-rule="evenodd" class="shp0" d="M31.1 104.27h-3.2l-1.5-7.37c-.17-.78-.36-2-.36-2h-.09s-.19 1.19-.36 2l-1.5 7.37h-3.2l-3-14.83h2.88l1.54 9.06c.13.74.26 1.93.26 1.93s.17-1.19.29-1.93l1.64-9.07h2.92l1.67 9.07c.13.74.3 1.93.3 1.93s.12-1.19.25-1.93l1.53-9.07h2.88l-2.95 14.84Zm4.9 0V89.44h7.88v2.65h-5.17v3.79h4.32v2.62h-4.32v3.09h5.13v2.65l-7.84.03Zm11.08 0V89.44h4.11c3.11 0 4.7 1.34 4.7 4.09.02.29 0 .58-.06.87-.05.29-.15.57-.28.83-.13.26-.29.5-.48.72-.2.22-.42.42-.66.58v.06c.3.14.57.31.82.53.25.21.46.46.64.74.17.27.31.57.4.88.09.32.14.64.14.97 0 2.52-1.49 4.55-5.11 4.55l-4.22.01Zm3.79-8.77c1.76 0 2.27-.87 2.27-1.9 0-1.03-.53-1.55-2.29-1.55h-1v3.45h1.02Zm.61 6.12c1.76 0 2.27-.89 2.27-1.92 0-1.03-.53-1.78-2.29-1.78h-1.63v3.7h1.65Zm22.08 2.65V94.14s-.26.5-.47.84l-2.54 4.28-2.5-4.24c-.19-.33-.51-.93-.51-.93v10.19h-2.83V89.44h3l2.25 4c.19.34.49.93.49.93l.51-1 2.22-4h3v14.83l-2.62.07Zm6.15 0V89.44h7.88v2.65h-5.13v3.79h4.32v2.62h-4.32v3.09h5.12v2.65l-7.87.03Zm11.07 0V89.44h7.93v2.65h-5.17v3.79h4.32v2.62h-4.32v3.09h5.17v2.65l-7.93.03Zm12.63 0V92.09h-2.61v-2.65h8v2.65h-2.61v12.18h-2.78Zm7.71 0V89.44h2.76v14.83h-2.76Zm12.77 0-3.79-8.32c-.17-.41-.36-1-.36-1v9.32h-2.45V89.44h2.62l3.73 8.12c.03.08.07.16.1.25l.09.24c.03.09.06.17.09.26.03.08.05.17.08.25v-9.08h2.46v14.83l-2.57-.04Zm15.26-7.22c0 4.28-1.38 7.43-4.94 7.43-4.08 0-5.21-3.77-5.21-7.62s1.13-7.63 5.21-7.63c.5-.02.99.04 1.47.19.47.14.92.36 1.33.64.4.29.76.64 1.05 1.05.29.4.51.85.66 1.32l-2.39 1.48c-.36-1.22-1-2-2.12-2-1.88 0-2.45 2.31-2.45 5s.57 5 2.45 5c1.63 0 2-1.69 2-3h-1.73v-2.77h4.68l-.01.91Zm3.62 2.92a2.525 2.525 0 0 0 2.35 1.86c1.1 0 2-.5 2-1.65 0-2.41-6.12-2.39-6.12-6.9-.01-.54.09-1.07.3-1.56.2-.5.5-.95.88-1.32.39-.37.84-.67 1.34-.86.5-.19 1.04-.28 1.57-.26a4.572 4.572 0 0 1 2.8.84c.4.28.76.64 1.05 1.04.29.4.51.85.66 1.32l-2.39 1.48c-.36-1.22-1-2-2.12-2-.17-.02-.35 0-.52.05-.16.05-.31.14-.45.26-.13.11-.23.25-.3.41a1.3 1.3 0 0 0-.11.51c0 2.63 6.12 2.1 6.12 7 0 2.63-1.94 4.3-4.7 4.3-.49.02-.98-.03-1.46-.15a4.878 4.878 0 0 1-2.46-1.53c-.32-.37-.58-.79-.78-1.24l2.34-1.6Z"/><path id="Layer" fill-rule="evenodd" class="shp8" d="M20.49 39.26c.08.31.21.61.39.88.17.26.39.5.64.7.25.2.53.36.83.48.3.11.62.17.94.18 1.31 0 2.32-.61 2.32-2 0-2.87-7.28-2.84-7.28-8.21-.01-.64.1-1.27.34-1.87.24-.59.6-1.12 1.06-1.57.45-.45.99-.8 1.59-1.03.59-.24 1.23-.34 1.87-.32.59-.02 1.18.05 1.75.22.56.17 1.1.43 1.58.77a5.45 5.45 0 0 1 2.04 2.82l-2.85 1.74c-.43-1.46-1.18-2.42-2.52-2.42-.21-.02-.42.01-.62.09-.2.07-.38.18-.53.33-.15.15-.27.33-.35.53-.07.2-.1.41-.09.62 0 3.12 7.29 2.49 7.29 8.31 0 3.13-2.32 5.12-5.6 5.12-.58.03-1.17-.03-1.73-.18a5.7 5.7 0 0 1-1.6-.69c-.5-.31-.94-.69-1.32-1.13-.39-.45-.7-.94-.93-1.48l2.78-1.89Zm11.32-12.53h3.28v17.64h-3.28V26.73Zm17.9 17.65V32.29s-.31.6-.56 1l-3 5.09h-.14l-3-5-.6-1.11v12.11h-3.28V26.73h3.58l2.72 4.77c.22.41.58 1.11.58 1.11h.05s.38-.7.6-1.13l2.65-4.72h3.63v17.62h-3.23Zm7.26 0V26.74h4.89c4 0 5.68 3.22 5.68 6.3 0 3.08-1.83 6.46-6.16 6.46h-1.13v4.92l-3.28-.04Zm4.52-8.07c1.86 0 2.79-1.51 2.79-3.22 0-1.71-.95-3.23-2.82-3.23h-1.21v6.45h1.24Zm8.74 8.07V26.73h3.28v14.5h5.14v3.15h-8.42Zm16.79 0h-3.31v-5l-4.25-12.65h3.68l1.77 6.33c.25.93.45 2.22.45 2.22l.09-.56c.03-.19.07-.37.1-.56l.12-.55c.05-.18.09-.37.14-.55l1.74-6.33h3.76l-4.29 12.83v4.82Zm14.33-5.12c.08.31.21.6.38.87a2.965 2.965 0 0 0 1.47 1.18c.3.11.62.18.94.19 1.31 0 2.32-.61 2.32-2 0-2.87-7.28-2.84-7.28-8.21-.01-.64.1-1.27.34-1.87.24-.59.6-1.12 1.06-1.57.45-.45.99-.8 1.59-1.03.59-.24 1.23-.34 1.87-.32a5.393 5.393 0 0 1 3.33.99c.49.34.91.76 1.25 1.24.35.48.62 1.01.79 1.58l-2.85 1.76c-.43-1.46-1.18-2.42-2.52-2.42-.21-.02-.42.01-.62.09-.2.07-.38.18-.53.33-.15.15-.27.33-.35.53-.07.2-.1.41-.09.62 0 3.12 7.29 2.49 7.29 8.31 0 3.13-2.32 5.12-5.6 5.12-.58.03-1.17-.03-1.74-.18-.56-.15-1.1-.38-1.6-.69-.49-.31-.94-.69-1.32-1.13-.38-.45-.7-.94-.93-1.48l2.8-1.91Zm21.75 1.89c-.19.53-.47 1.02-.82 1.46-.35.44-.76.83-1.23 1.14-.47.31-.98.54-1.52.69-.55.15-1.11.22-1.67.19-4.87 0-6.2-4.49-6.2-9.07s1.33-9.08 6.2-9.08c.59-.02 1.18.05 1.75.22.56.17 1.1.43 1.58.77a5.45 5.45 0 0 1 2.04 2.82l-2.85 1.76c-.43-1.46-1.18-2.42-2.52-2.42-2.24 0-2.92 2.75-2.92 5.93 0 3.18.68 5.92 2.92 5.92 1.26 0 2-.88 2.44-2.22l2.8 1.89Zm10.49 3.23v-6.63h-4.54v6.63h-3.28V26.73h3.28v7.87h4.54v-7.87h3.27v17.65h-3.27Zm7.31 0V26.73h9.38v3.16h-6.1v4.51h5.14v3.15h-5.14v3.68h6.1v3.15h-9.38Zm13.19 0V26.73h4.56c4.86 0 6.45 4.24 6.45 8.83s-1.59 8.82-6.45 8.82h-4.56Zm4.56-3.15c2.24 0 3.18-2.5 3.18-5.67s-.94-5.67-3.18-5.67h-1.29v11.34h1.29Zm17.19-14.5h3.28V38.5c0 4.25-2.29 6.12-5.37 6.12s-5.47-1.87-5.47-6.15V26.73h3.28v11.93c0 1.74.63 2.82 2.14 2.82 1.51 0 2.14-1.13 2.14-2.85v-11.9Zm7.31 17.65V26.73h3.28v14.5h5.14v3.15h-8.42Zm10.94 0V26.73h9.38v3.16h-6.1v4.51h5.14v3.15h-5.14v3.68h6.1v3.15h-9.38ZM26.28 68.87l-.27-2.09h-3.45l-.21 2.09h-4.64l4-18.71h5.24l4 18.71h-4.67Zm-1.64-11.6c-.16-1.07-.29-2.59-.29-2.59h-.05s-.16 1.52-.32 2.59l-.75 5.61h2.16l-.75-5.61Zm10.4 11.6V50.16h5.56c4.28 0 6 3.69 6 6.65 0 3.59-2 6.85-6.23 6.85h-.93v5.21h-4.4Zm5.27-9.2c1.39 0 1.92-1.36 1.92-2.78 0-1.42-.56-2.78-2-2.78h-.8v5.56h.88Zm10.61 9.2V50.16h5.56c4.28 0 6 3.69 6 6.65 0 3.59-2 6.85-6.23 6.85h-.93v5.21h-4.4Zm5.26-9.2c1.39 0 1.93-1.36 1.93-2.78 0-1.42-.56-2.78-1.95-2.78h-.8v5.56h.82Zm9.81-.17c0-5 1.15-9.73 6.34-9.73 5.19 0 6.38 4.73 6.38 9.73s-1.12 9.73-6.33 9.73-6.39-4.73-6.39-9.73Zm6.34-5.45c-1.66 0-1.9 2-1.9 5.45s.3 5.46 1.9 5.46c1.6 0 1.9-2 1.9-5.46 0-3.42-.24-5.45-1.9-5.45Zm10.87-3.89h4.44v18.71H83.2V50.16Zm18.32 18.71-3.21-7.16c-.11-.25-.22-.5-.32-.76-.1-.25-.2-.51-.3-.76l-.27-.78c-.09-.26-.18-.52-.26-.78v10.24h-4.17V50.16h4.54l2.92 6.41c.61 1.34 1.28 3.21 1.28 3.21v-9.62h4.2v18.71h-4.41Zm11.7 0V54.44h-2.75v-4.28h9.97v4.28h-2.75v14.43h-4.47Zm22.43 0v-9.52c0-1.17.08-2.24.08-2.24h-.02c-.08.16-.17.31-.25.46-.09.16-.18.31-.28.46-.09.15-.19.29-.29.44-.09.14-.2.29-.3.43l-2.09 2.86h-.11l-2.08-2.86c-.1-.14-.2-.28-.3-.43-.1-.15-.2-.29-.29-.44-.09-.15-.18-.3-.26-.46-.09-.15-.17-.3-.25-.46h-.05v11.76h-4.17V50.16h4.43l1.66 2.34c.8 1.15 1.31 2.05 1.31 2.05s.56-.9 1.34-2.05l1.63-2.38h4.41v18.75h-4.12Zm9.51 0V50.16h10.4v4.06h-5.96v3.58h4.97v3.9h-4.97v3.11h5.96v4.06h-10.4Zm24.01 0-3.21-7.16c-.61-1.37-1.15-3.08-1.15-3.08v10.24h-4.17V50.16h4.55l2.91 6.41c.61 1.34 1.28 3.21 1.28 3.21h.06s-.06-1.92-.06-3.5v-6.12h4.2v18.71h-4.41Zm11.7 0V54.44h-2.75v-4.28h9.97v4.28h-2.75v14.43h-4.47Zm14.49-5.75c.09.27.22.52.39.75.16.23.36.43.58.6.23.17.48.31.74.41.27.1.55.15.83.17.17.02.35.01.52-.04.16-.05.32-.14.45-.25.13-.12.23-.26.31-.42.07-.15.11-.33.11-.5 0-2.56-7.27-3.15-7.27-8.63-.01-.74.14-1.47.42-2.15.29-.68.71-1.29 1.25-1.8.53-.51 1.16-.9 1.85-1.16.7-.25 1.43-.36 2.17-.32.62-.02 1.24.07 1.83.25.59.18 1.15.45 1.66.81.5.36.95.8 1.31 1.3.37.49.65 1.05.84 1.64l-3.53 2.08a2.558 2.558 0 0 0-.7-1.42 2.515 2.515 0 0 0-1.41-.73c-.17-.01-.33.02-.49.07-.16.06-.3.15-.42.27-.12.11-.21.25-.28.4-.06.16-.09.32-.09.49 0 2.65 7.35 2.73 7.35 8.69 0 3.5-2.57 5.61-6 5.61-.64.01-1.27-.07-1.89-.24a6.63 6.63 0 0 1-1.74-.78c-.54-.34-1.02-.76-1.44-1.24a6.64 6.64 0 0 1-1.02-1.61l3.67-2.25ZM17.71 15.52h186.1v5.25H17.71v-5.25Zm0 59.22h186.1v5.25H17.71v-5.25Z"/></svg>