<svg viewBox="0 0 464 261" xmlns="http://www.w3.org/2000/svg" xmlns:xlink="http://www.w3.org/1999/xlink"><linearGradient id="a" gradientUnits="userSpaceOnUse" x1="355.63" x2="355.63" y1="123.89" y2="120.96"><stop offset="0" stop-color="#d8d8d8" stop-opacity="0"/><stop offset=".06" stop-color="#d8d8d8" stop-opacity=".08"/><stop offset=".18" stop-color="#d8d8d8" stop-opacity=".28"/><stop offset=".35" stop-color="#d8d8d8" stop-opacity=".6"/><stop offset=".53" stop-color="#d8d8d8"/><stop offset="1" stop-color="#d8d8d8" stop-opacity="0"/></linearGradient><linearGradient id="b" gradientUnits="userSpaceOnUse" x1="305.3" x2="323.43" y1="124.7" y2="89.22"><stop offset="0" stop-color="#d8d8d8" stop-opacity="0"/><stop offset=".04" stop-color="#d8d8d8" stop-opacity=".08"/><stop offset=".11" stop-color="#d8d8d8" stop-opacity=".28"/><stop offset=".21" stop-color="#d8d8d8" stop-opacity=".6"/><stop offset=".32" stop-color="#d8d8d8"/><stop offset="1" stop-color="#d8d8d8" stop-opacity="0"/></linearGradient><path d="m0 0h464v261h-464z" fill="#fff"/><path d="m0 0h464v178.21h-464z" fill="#8cc44a" opacity=".5"/><g fill="none" opacity=".6" stroke="#8cc44a" stroke-miterlimit="10"><rect height="9.06" rx="1.13" width="26.67" x="293.89" y="36.81"/><rect height="9.06" rx="1.13" width="26.67" x="307.23" y="27.75"/><rect height="9.06" rx="1.13" width="26.67" x="450.25" y="14.11"/><rect height="9.06" rx="1.13" width="26.67" x="422.46" y="90.65"/><rect height="9.06" rx="1.13" width="26.67" x="185.74" y="77.55"/><rect height="9.06" rx="1.13" width="26.67" x="208.21" y="105.86"/><rect height="9.06" rx="1.13" width="26.67" x="53.25" y="123.64"/></g><path d="m0 178.21h464v82.79h-464z" fill="#462e3b" opacity=".8"/><g fill="none" opacity=".6" stroke="#462e3b" stroke-miterlimit="10" stroke-width="2"><path d="m464 261-13.26-82.79" opacity=".6"/><path d="m384.13 261 10.27-82.79" opacity=".6"/><path d="m304.25 261 33.81-82.79" opacity=".6"/><path d="m224.38 261 57.34-82.79" opacity=".6"/><path d="m144.5 261 80.87-82.79" opacity=".6"/><path d="m64.63 261 104.4-82.79" opacity=".6"/><path d="m-1.12 251.86 113.81-73.65" opacity=".6"/><path d="m-.74 209.41 57.08-31.2" opacity=".6"/></g><path d="m0 172.94h464v5.28h-464z" fill="#462e3b"/><rect fill="#8cc44a" height="10.67" rx="2.31" width="58.2" x="7.01" y="175.36"/><path d="m25.95 260.94 4.52-74.96h-5.9l-2.66 74.96z" fill="#462e3b" opacity=".16"/><path d="m15.81 260.94 5.16-74.99h-5.9l-3.3 74.99z" fill="#8cc44a"/><path d="m59.12 260.94-5.87-74.99h-5.9l7.73 74.99z" fill="#462e3b" opacity=".16"/><path d="m64.78 260.94-6.74-74.99h-5.9l8.6 74.99z" fill="#8cc44a"/><path d="m25.95 260.94 4.52-74.96h-5.9l-2.66 74.96z" fill="#8cc44a"/><path d="m25.95 260.94 4.52-74.96h-5.9l-2.66 74.96z" fill="#462e3b" opacity=".16"/><path d="m15.81 260.94 5.16-74.99h-5.9l-3.3 74.99z" fill="#8cc44a"/><path d="m59.12 260.94-5.87-74.99h-5.9l7.73 74.99z" fill="#8cc44a"/><path d="m59.12 260.94-5.87-74.99h-5.9l7.73 74.99z" fill="#462e3b" opacity=".16"/><path d="m64.78 260.94-6.74-74.99h-5.9l8.6 74.99z" fill="#8cc44a"/><path d="m20.96 185.96-.24 3.51h-5.8l.15-3.51z" fill="#462e3b" opacity=".2"/><path d="m30.47 185.99-.21 3.48h-5.82l.13-3.48z" fill="#462e3b" opacity=".2"/><path d="m58.35 189.47h-5.8l-.4-3.51h5.89z" fill="#462e3b" opacity=".2"/><path d="m52.55 189.47h-4.85l-.35-3.51h4.8z" fill="#462e3b" opacity=".2"/><path d="m13.67 249.93h48v1.93h-48z" fill="#8cc44a"/><path d="m42.46 148.27a3.52 3.52 0 0 1 -2.65-1.07l1.19-1.1a2.43 2.43 0 0 0 2.55.35 3.32 3.32 0 0 0 2.08-2.33 2.47 2.47 0 0 0 -1.13-2.61 2 2 0 0 0 -2.48.63l-1.41-.8a3.56 3.56 0 0 1 4.65-1.26 4.08 4.08 0 0 1 2 4.36 4.91 4.91 0 0 1 -3.1 3.53 4.71 4.71 0 0 1 -1.7.3z" fill="#8cc44a"/><path d="m43.6 139.11-.13.75-.17 1-.6 3.29a9.38 9.38 0 0 1 -9.23 7.72h-.72a9.36 9.36 0 0 1 -9.22-7.72l-.6-3.29-.17-1-.13-.75a2.23 2.23 0 0 1 2.2-2.63h16.58a2.23 2.23 0 0 1 2.19 2.63z" fill="#8cc44a"/><path d="m43.47 139.86-.17.96h-20.37l-.17-.96z" fill="#fff" opacity=".6"/><path d="m40 148.3h-4.25a.31.31 0 0 1 -.31-.31v-3.67a.47.47 0 0 1 .2-.39l2.23-1.65 2.22 1.65a.47.47 0 0 1 .2.39v3.68a.31.31 0 0 1 -.29.3z" fill="#462e3b" opacity=".8"/><path d="m37.87 142.34v-5.99" style="fill:none;stroke-miterlimit:10;opacity:.8;stroke:#462e3b;stroke-linecap:round;stroke-width:.27"/><path d="m46.12 150.54-13 1.77-13-1.81v-.76a109.94 109.94 0 0 0 26 0z" fill="#fff"/><path d="m46.12 150.54-13 1.77-13-1.81v-.76a109.94 109.94 0 0 0 26 0z" fill="#fff" opacity=".6"/><path d="m34.37 133.42a3.39 3.39 0 0 1 -2.46-1 5 5 0 0 1 -1.47-2.42 7.63 7.63 0 0 1 .79-5.43c.87-1.57 1.77-2.57 2.07-3.57a5 5 0 0 0 -.65-4 4.37 4.37 0 0 1 3.2 4.14 6.05 6.05 0 0 1 -.65 2.85c-.38.81-.79 1.46-1.09 2a9.25 9.25 0 0 0 -1.11 3.68 4.73 4.73 0 0 0 1.37 3.75z" fill="#fff" opacity=".6"/><path d="m59.56 151.71h-60.3v10.59h60.3a4.93 4.93 0 0 0 4.7-3.42 4.35 4.35 0 0 0 .25-1.53v-.69a5 5 0 0 0 -4.95-4.95z" fill="#8cc44a"/><path d="m59.56 151.71h-60.3v10.59h60.3a4.93 4.93 0 0 0 4.7-3.42 4.35 4.35 0 0 0 .25-1.53v-.69a5 5 0 0 0 -4.95-4.95z" fill="#8cc44a"/><path d="m60.33 159.88h-61.07v2.42h60.3a4.93 4.93 0 0 0 4.7-3.42 4.48 4.48 0 0 0 .24-1.22 5 5 0 0 1 -4.17 2.22z" fill="#462e3b" opacity=".3"/><rect fill="#8cc44a" height="5.44" rx="1.18" transform="matrix(-1 0 0 -1 237.85 318.5)" width="29.67" x="104.09" y="156.53"/><path d="m125.9 217.18a.81.81 0 0 0 .82-.85l-1.91-54.33h-3l3.28 54.46a.83.83 0 0 0 .81.72z" fill="#462e3b" opacity=".16"/><path d="m131.21 217.18a.82.82 0 0 0 .82-.86l-2.39-54.39h-3l3.75 54.49a.82.82 0 0 0 .82.76z" fill="#8cc44a"/><path d="m108.54 217.18a.8.8 0 0 0 .8-.74l3.85-54.51h-3l-2.49 54.36a.86.86 0 0 0 .84.89z" fill="#462e3b" opacity=".16"/><path d="m103.68 217.18a.82.82 0 0 0 .82-.73l6.25-54.52h-3l-4.88 54.36a.81.81 0 0 0 .81.89z" fill="#8cc44a"/><path d="m125.9 217.18a.81.81 0 0 0 .82-.85l-1.91-54.33h-3l3.28 54.46a.83.83 0 0 0 .81.72z" fill="#8cc44a"/><path d="m125.9 217.18a.81.81 0 0 0 .82-.85l-1.91-54.33h-3l3.28 54.46a.83.83 0 0 0 .81.72z" fill="#462e3b" opacity=".16"/><path d="m131.21 217.18a.82.82 0 0 0 .82-.86l-2.39-54.39h-3l3.75 54.49a.82.82 0 0 0 .82.76z" fill="#8cc44a"/><path d="m108.54 217.18a.8.8 0 0 0 .8-.74l3.85-54.51h-3l-2.49 54.36a.86.86 0 0 0 .84.89z" fill="#8cc44a"/><path d="m108.54 217.18a.8.8 0 0 0 .8-.74l3.85-54.51h-3l-2.49 54.36a.86.86 0 0 0 .84.89z" fill="#462e3b" opacity=".16"/><path d="m103.68 217.18a.82.82 0 0 0 .82-.73l6.25-54.52h-3l-4.88 54.36a.81.81 0 0 0 .81.89z" fill="#8cc44a"/><path d="m126.64 161.93.13 1.8h2.96l-.08-1.8z" fill="#462e3b" opacity=".2"/><path d="m121.8 161.95.1 1.78h2.97l-.06-1.78z" fill="#462e3b" opacity=".2"/><path d="m107.58 163.73h2.96l.21-1.8h-3.01z" fill="#462e3b" opacity=".2"/><path d="m110.54 163.73h2.47l.18-1.8h-2.44z" fill="#462e3b" opacity=".2"/><path d="m105.89 194.55h24.47v.98h-24.47z" fill="#8cc44a" transform="matrix(-1 0 0 -1 236.25 390.08)"/><path d="m102.88 156.46c2.32-1.59 5.32-2 8.18-2.12a58.29 58.29 0 0 0 8.57-.37 24.07 24.07 0 0 0 6.46-2.63c1-.56 1.66-.61 1.57-.1l-.06.19c-.92 3.08-4.78 4.31-7.52 5.12a21.9 21.9 0 0 1 -6.72 1.06c-1.91 0-3.79-.44-5.68-.66a15.48 15.48 0 0 0 -3.68.05c-1.09.16-1.68 0-1.32-.37z" fill="#fff"/><path d="m114.31 148.06a5.38 5.38 0 0 1 5.38 5.38v1.77a0 0 0 0 1 0 0h-10.76a0 0 0 0 1 0 0v-1.77a5.38 5.38 0 0 1 5.38-5.38z" fill="#fff" transform="matrix(.99187225 -.12723772 .12723772 .99187225 -18.36 15.78)"/><path d="m112.73 155.45a17 17 0 0 1 -3.44-.36v-.25a15.71 15.71 0 0 0 10.58-1.4l.12.22a16.15 16.15 0 0 1 -7.26 1.79z" fill="#462e3b"/><rect fill="#8cc44a" height="5.44" rx="1.18" width="29.67" x="212.45" y="157.06"/><path d="m220.3 217.72a.83.83 0 0 1 -.83-.86l1.93-54.38h3l-3.28 54.46a.83.83 0 0 1 -.82.78z" fill="#462e3b" opacity=".16"/><path d="m215 217.72a.83.83 0 0 1 -.83-.86l2.4-54.4h3l-3.75 54.54a.83.83 0 0 1 -.82.72z" fill="#8cc44a"/><path d="m239.46 217.72a.82.82 0 0 1 -.82-.74l-5.64-54.52h3l4.26 54.37a.82.82 0 0 1 -.8.89z" fill="#462e3b" opacity=".16"/><path d="m242.53 217.72a.83.83 0 0 1 -.82-.73l-6.25-54.53h3l4.88 54.36a.83.83 0 0 1 -.81.9z" fill="#8cc44a"/><path d="m220.3 217.72a.83.83 0 0 1 -.83-.86l1.93-54.38h3l-3.28 54.46a.83.83 0 0 1 -.82.78z" fill="#8cc44a"/><path d="m220.3 217.72a.83.83 0 0 1 -.83-.86l1.93-54.38h3l-3.28 54.46a.83.83 0 0 1 -.82.78z" fill="#462e3b" opacity=".16"/><path d="m217.78 179.82a12.17 12.17 0 0 0 3.66 4.73c.25.23.7 1 .54 1.27l-4 7.92c-.62 1.21-2.14 1.61-3.42 2.08a3.17 3.17 0 0 1 -2.49 0 1.94 1.94 0 0 1 -1.06-2.12c.28-1 1.37-1.43 2.16-2.08 1.19-1 1.11-2.28 1.15-3.82a13.82 13.82 0 0 0 -1-4.57" fill="#f2692c"/><path d="m222 185.82-4 7.91c-.61 1.22-2.13 1.61-3.41 2.09a3.17 3.17 0 0 1 -2.49 0 2.06 2.06 0 0 1 -.8-.72 1.61 1.61 0 0 0 .28.17 3.15 3.15 0 0 0 2.5 0c1.28-.47 2.8-.87 3.41-2.08l4-7.92c.12-.22-.07-.66-.29-1l.27.23c.22.28.67 1.01.53 1.32z" fill="#462e3b"/><path d="m215 217.72a.83.83 0 0 1 -.83-.86l2.4-54.4h3l-3.75 54.54a.83.83 0 0 1 -.82.72z" fill="#8cc44a"/><path d="m220.43 180.22c-.12-.07-2.41-3.64-2.41-3.64l-4.38 4.89.93 4.14z" fill="#462e3b"/><path d="m239.46 217.72a.82.82 0 0 1 -.82-.74l-5.64-54.52h3l4.26 54.37a.82.82 0 0 1 -.8.89z" fill="#8cc44a"/><path d="m239.46 217.72a.82.82 0 0 1 -.82-.74l-5.64-54.52h3l4.26 54.37a.82.82 0 0 1 -.8.89z" fill="#462e3b" opacity=".16"/><path d="m242.53 217.72a.83.83 0 0 1 -.82-.73l-6.25-54.53h3l4.88 54.36a.83.83 0 0 1 -.81.9z" fill="#8cc44a"/><path d="m219.56 162.47-.12 1.79h-2.96l.08-1.79z" fill="#462e3b" opacity=".2"/><path d="m224.41 162.48-.11 1.78h-2.96l.06-1.78z" fill="#462e3b" opacity=".2"/><path d="m238.63 164.26h-2.96l-.21-1.79h3.01z" fill="#462e3b" opacity=".2"/><path d="m235.67 164.26h-2.47l-.19-1.79h2.45z" fill="#462e3b" opacity=".2"/><path d="m215.85 195.08h24.47v.98h-24.47z" fill="#8cc44a"/><path d="m232.63 108.14a4.82 4.82 0 0 1 -2.26 1.52c-.62.19-1.39.36-1.78-.32a3.5 3.5 0 0 1 -.31-1.32 5.35 5.35 0 0 0 -.44-1.49l-.05-.14c-.14-.3-.65-1.23-.31-1.53l2.32-2 1.36-1.19c-.16.17.24 1.4.31 1.6a11.74 11.74 0 0 0 .59 1.63c.45.99 1.45 2.2.57 3.24z" fill="#f6b0a4"/><path d="m229.69 104a5.54 5.54 0 0 1 -.46 1 9.51 9.51 0 0 1 -.85 1l-.54.5-.05-.14c-.14-.3-.65-1.23-.31-1.53l2.32-2 .1.09c.3.33-.06.77-.21 1.08z" fill="#f6b1a5" opacity=".4"/><path d="m219.41 98.18c.14 4.25 2.55 9.32 7.65 7.68 4.52-1.45 5.8-6.65 5.56-10.85a9.74 9.74 0 0 0 -1.51-5.19c-1.92-2.7-6.8-3.12-9.09-.67-2.12 2.27-2.7 6.03-2.61 9.03z" fill="#f6b0a4"/><path d="m217.79 204.28a14 14 0 0 0 2 6.54c.18.35.35 1.31.06 1.58l-7.53 6.8c-1.15 1-2.93.84-4.49.82a3.59 3.59 0 0 1 -2.65-1.05 2.21 2.21 0 0 1 -.26-2.69c.7-.93 2.05-1 3.15-1.33 1.67-.55 2.12-2 2.8-3.6a15.89 15.89 0 0 0 .78-5.29" fill="#f2692c"/><path d="m219.81 212.4-7.51 6.79c-1.16 1-2.94.85-4.5.83a3.59 3.59 0 0 1 -2.65-1.05 2.37 2.37 0 0 1 -.56-1.09 2.37 2.37 0 0 0 .23.3 3.59 3.59 0 0 0 2.65 1c1.56 0 3.35.22 4.5-.82l7.51-6.8c.22-.19.2-.73.1-1.15 0 .11.12.24.18.36.18.4.35 1.36.05 1.63z" fill="#462e3b"/><path d="m208.39 172.91a5.27 5.27 0 0 0 -1 3l2.74 31.34 9-.84-1.13-27.27c3.35-3.35 5.27-5.36 8.63-8.72 2.83-2.83 4.32-7.27 7.59-9.58 2-1.43 5.37-2.59 6.53-4.82v-.05a8.56 8.56 0 0 0 -1.7-9.75c-2.93-2.76-9.14-4.82-11.67-1.36-1.57 2.15-3 3.82-4.56 6-4.35 6-8.39 13.12-12.75 19.08z" fill="#462e3b"/><path d="m199.47 145.49h-.57a5.17 5.17 0 0 0 -2.28.7 5.31 5.31 0 0 0 -2 7.26l15.83 27.42 9.24-5.33a52.84 52.84 0 0 1 -4.71-6.42 42.55 42.55 0 0 1 -3.76-7l-1.45-3.73c-.25-.6-.5-1.19-.77-1.77l4.4.21c2.39.1 4.78.14 7.18.21l3.58.09h3.59l.46-13.64z" fill="#462e3b"/><path d="m247 138.63c-.59 3.7-.64 8.33-2.32 11.7-1.76 3.56-6.21 1.18-9.56.67a7.89 7.89 0 0 1 -3.24-1c-1.35-.9-2-2.5-2.94-3.82a5.1 5.1 0 0 0 -2.15-1.81 1.84 1.84 0 0 0 -1.32-.07 1.47 1.47 0 0 1 -1.34-.23 2.15 2.15 0 0 1 -.7-1.58 6.63 6.63 0 0 1 .26-1.76 87.38 87.38 0 0 0 2-13.75c.3-4.48 0-8.92.67-13.37.1-.68.22-1.36.36-2a6.72 6.72 0 0 1 5.95-4.88 9.89 9.89 0 0 1 7.45 2.84 19.52 19.52 0 0 1 4.41 6.87 41.16 41.16 0 0 1 2.47 22.19z" fill="#f2692c"/><path d="m237 116.42c-.39 2.79-.89 5.56-1.45 8.31-.45 2.24-1 4.46-1.59 6.64a16.48 16.48 0 0 1 -1.91 4.86 6.23 6.23 0 0 1 -3 2.28c-.29.1-3 .73-3 .69.44-5.76 0-14.95 0-20.71z" fill="#462e3b" opacity=".3"/><ellipse cx="220.67" cy="97.32" fill="#462e3b" rx=".45" ry=".84"/><path d="m219.73 94.38a2.93 2.93 0 0 1 2.54.51" fill="none" stroke="#462e3b" stroke-miterlimit="10" stroke-width=".19"/><circle cx="222.62" cy="99.74" fill="#f6b0a4" opacity=".6" r=".76"/><path d="m230.25 103.7a3.85 3.85 0 0 1 -2.57-2.45c0-.2 0-.42-.21-.56s-.6 0-.88-.14a.89.89 0 0 1 -.59-.55c-.11-.39.13-.82 0-1.22s-.43-.62-.53-1a1.55 1.55 0 0 1 0-.77l.78-4a11.17 11.17 0 0 1 -5-1.6 2.63 2.63 0 0 1 -2.72-1.94c-.18-1.24 1.09-2.68 2.11-3.19a1.48 1.48 0 0 0 .15 1.38c.48.46 1.25.1 1.83-.23a8 8 0 0 1 5-1 6 6 0 0 1 4.27 2.73 1.58 1.58 0 0 0 .73-1.32c0 .1.18.41.21.56s0 .47 0 .66a13.64 13.64 0 0 1 .07 1.92 2.1 2.1 0 0 1 1.64 1.73l-.91-.12a15.73 15.73 0 0 1 -.27 5.72 13.3 13.3 0 0 1 -1 2.74c-.2.42-.48.81-.68 1.22a11.84 11.84 0 0 0 -.47 1.46.3.3 0 0 1 -.1.17.32.32 0 0 1 -.27 0 7 7 0 0 1 -.59-.2z" fill="#462e3b"/><path d="m226.82 100.52c.23-.46-.14-1-.08-1.54a1.77 1.77 0 0 1 .62-1.07 1.22 1.22 0 0 1 1.88.65 1.83 1.83 0 0 1 0 1.06 4.83 4.83 0 0 1 -.8 1.39 2.16 2.16 0 0 1 -.44.51.74.74 0 0 1 -.64.14c-.3-.09-.45-.41-.58-.7" fill="#f6b0a4"/><path d="m227.53 98.54a.72.72 0 0 1 .69-.16.79.79 0 0 1 .52.49.9.9 0 0 1 -.05.72" fill="none" opacity=".6" stroke="#f6b0a4" stroke-miterlimit="10" stroke-width=".23"/><path d="m219.41 97.05a6.21 6.21 0 0 1 -.8 2.69c-.62.65.4.92.4.92l.72-.07" fill="#f6b0a4"/><path d="m197.54 208.64a.68.68 0 0 1 -.69.68h-40.56a.68.68 0 0 1 -.64-.92 0 0 0 0 1 0 0 5.64 5.64 0 0 1 5.12-3.37h31.58a5.58 5.58 0 0 1 5.12 3.37 1.09 1.09 0 0 1 .07.24z" fill="#462e3b"/><path d="m197.54 208.64a.68.68 0 0 1 -.69.68h-40.56a.68.68 0 0 1 -.64-.92h41.85a1.09 1.09 0 0 1 .04.24z" fill="#462e3b" opacity=".6"/><path d="m226.74 140.77v.36a2.34 2.34 0 0 1 -.13.79 2.53 2.53 0 0 1 -2.42 1.76h-95.19a2.54 2.54 0 0 1 -2.43-1.76 2.34 2.34 0 0 1 -.13-.79v-.36a2.56 2.56 0 0 1 2.56-2.55h95.23a2.55 2.55 0 0 1 2.51 2.55z" fill="#8cc44a"/><path d="m175.14 143.68h2.87v61.32h-2.87z" fill="#462e3b"/><path d="m170.4 155.26a6.89 6.89 0 0 0 -3.46 4" fill="none" stroke="#f2692c" stroke-linecap="round" stroke-linejoin="round"/><path d="m176.77 154.65a3.52 3.52 0 0 1 -6.26-.06" fill="none" stroke="#462e3b" stroke-linecap="round" stroke-linejoin="round" stroke-width="1.82"/><path d="m176.57 175.91a2.27 2.27 0 0 1 2.27 2.27v26.82a0 0 0 0 1 0 0h-4.54a0 0 0 0 1 0 0v-26.82a2.27 2.27 0 0 1 2.27-2.27z" fill="#462e3b"/><path d="m161.22 143.67h30.67a0 0 0 0 1 0 0v.24a2.16 2.16 0 0 1 -2.16 2.16h-26.36a2.16 2.16 0 0 1 -2.16-2.16v-.24a0 0 0 0 1 .01 0z" fill="#462e3b"/><path d="m226.74 140.77v.36a2.34 2.34 0 0 1 -.13.79 2.53 2.53 0 0 1 -2.42 1.76h-95.19a2.54 2.54 0 0 1 -2.43-1.76 2.34 2.34 0 0 1 -.13-.79v-.36a2.56 2.56 0 0 1 2.56-2.55h95.23a2.55 2.55 0 0 1 2.51 2.55z" fill="#8cc44a"/><path d="m226.73 141.29a2.27 2.27 0 0 1 -.12.63 2.53 2.53 0 0 1 -2.42 1.76h-95.19a2.54 2.54 0 0 1 -2.43-1.76 2.27 2.27 0 0 1 -.12-.63 2.57 2.57 0 0 0 2.15 1.14h96a2.57 2.57 0 0 0 2.13-1.14z" fill="#462e3b" opacity=".3"/><path d="m175.14 146.07h2.87v1.6h-2.87z" fill="#462e3b" opacity=".6"/><path d="m161.65 143.67h30.23v.56h-30.23z" fill="#462e3b" opacity=".6"/><path d="m143.84 138.91a4.37 4.37 0 0 1 -4.33-3.78l-.14-1a.58.58 0 0 1 .57-.66h7.79a.59.59 0 0 1 .58.66l-.15 1a4.36 4.36 0 0 1 -4.32 3.78z" fill="#fff"/><path d="m139.72 137.5a1.89 1.89 0 0 1 -.63-.1 1.7 1.7 0 0 1 -1.19-1.72 1.62 1.62 0 0 1 1.12-1.32 1.92 1.92 0 0 1 1.66.28l-.44.61a1.16 1.16 0 0 0 -1-.18.86.86 0 0 0 -.6.69 1 1 0 0 0 .67.93 1.6 1.6 0 0 0 1.35-.23l.4.63a2.53 2.53 0 0 1 -1.34.41z" fill="#fff"/><path d="m143.27 131.61a3.48 3.48 0 0 0 1.37-2.31 4.41 4.41 0 0 0 -.25-2.39 24 24 0 0 0 -2.85-4.66 12.07 12.07 0 0 1 -1.47-2.94 8.54 8.54 0 0 1 -.37-3.39 7.58 7.58 0 0 1 3-5.56 11.39 11.39 0 0 0 -.63 5.53 10.55 10.55 0 0 0 2 4.73 13.69 13.69 0 0 1 2.64 5.8 5.28 5.28 0 0 1 -.69 3.44 3.42 3.42 0 0 1 -2.75 1.75z" fill="#fff" opacity=".6"/><path d="m172.14 155.13c.06.11.34.25.45.36a5.82 5.82 0 0 1 1.63 1.09 3.81 3.81 0 0 1 .77 2.33l.09.74a.51.51 0 0 0 .5.42h.08a.5.5 0 0 0 .41-.57l-.09-.69a4.6 4.6 0 0 0 -1-2.92 5.09 5.09 0 0 0 -3.44-1.4 3.82 3.82 0 0 0 .27.32z" fill="#f2692c"/><path d="m157.47 166.83-1.43 11.9 18.31 2.65 3.93-21.04z" fill="#fff"/><path d="m157.47 166.83-1.43 11.9 18.31 2.65 3.93-21.04z" fill="#f2692c" opacity=".65"/><path d="m157.12 167.89a1.58 1.58 0 0 1 -1.45-2c.65-2.49 2.14-6.56 4.92-6.62 4-.07 20.17 0 20.17 0a4.65 4.65 0 0 0 -4 3.19c-.85 2-1.62 4-2.07 5.16a1.59 1.59 0 0 1 -1.55 1z" fill="#fff"/><path d="m157.12 167.89a1.58 1.58 0 0 1 -1.45-2c.65-2.49 2.14-6.56 4.92-6.62 4-.07 20.17 0 20.17 0a4.65 4.65 0 0 0 -4 3.19c-.85 2-1.62 4-2.07 5.16a1.59 1.59 0 0 1 -1.55 1z" fill="#f2692c" opacity=".4"/><path d="m180.76 159.28s1.49.23 1.45 3-1 19.08-1 19.08h-6.91l3.38-20.47a4.36 4.36 0 0 1 3.08-1.61z" fill="#f2692c"/><path d="m162.12 171.45c0 .15.08.29.13.43.19.51.63 1 1.23.8s.68-.72.84-1.14a14.08 14.08 0 0 0 .5-1.68 4.31 4.31 0 0 0 .19-1.74c-.23-1.12-2-1.29-2.62-.43a3 3 0 0 0 -.48 1.93 8.22 8.22 0 0 0 .21 1.83z" fill="#462e3b"/><path d="m191.46 138.19h-4.92a.49.49 0 0 1 -.48-.41l-1.27-8.05a.48.48 0 0 1 .48-.56h7.46a.48.48 0 0 1 .48.56l-1.27 8.05a.48.48 0 0 1 -.48.41z" fill="#fff"/><path d="m193.31 135.88h-2.17l.8-4.92h2a2 2 0 0 1 1.51.61 1.24 1.24 0 0 1 .29 1l-.31 1.86a2.08 2.08 0 0 1 -2.12 1.45zm-1.17-.85h1.17c.71 0 1.26-.39 1.32-.74l.31-1.87a.39.39 0 0 0 -.1-.3 1.15 1.15 0 0 0 -.86-.31h-1.32z" fill="#fff"/><path d="m189 127.44a4.77 4.77 0 0 1 -2.2-3.81 5.33 5.33 0 0 1 .34-2.39 6.73 6.73 0 0 1 1.28-2 13.54 13.54 0 0 0 2.43-3 8.3 8.3 0 0 0 .84-3.82 5.4 5.4 0 0 1 .62 4.36 6.4 6.4 0 0 1 -1 2.12c-.45.63-.95 1.14-1.37 1.63a6.61 6.61 0 0 0 -1 1.43 5.2 5.2 0 0 0 -.52 1.66 6.49 6.49 0 0 0 .58 3.82z" fill="#fff" opacity=".6"/><path d="m203.39 133.26a8 8 0 0 1 -3.2-.83 9.34 9.34 0 0 0 -2.35-.41c-1.14-.06-2.28 0-3.41-.11a1 1 0 0 0 -1 .31 1.05 1.05 0 0 0 -.13.61c0 .45.06 1 .47 1.17s.87-.1 1.18.18a.87.87 0 0 1 .2.6l.11 1.46a3.4 3.4 0 0 0 .31 1.45c.67 1.24 2.47.59 3.52.32a13.73 13.73 0 0 1 4.47-.41" fill="#f6b0a4"/><path d="m227.27 110.2-4.71 21.49-19.85 1v5.31l22.95 1.16a3.56 3.56 0 0 0 3.49-2.24l.18-.48 9-22.94z" fill="#f2692c"/><path d="m152.56 139.2h25a1.29 1.29 0 0 0 1.29-1.29 1.45 1.45 0 0 0 -1.52-1.46l-24.82 1.11a.81.81 0 0 0 -.74.84.81.81 0 0 0 .79.8z" fill="#999"/><circle cx="177.46" cy="137.87" fill="#666" r=".99"/><path d="m177.47 138.2-25.72.22 25.7-.88z" fill="#666"/><path d="m369.69 118.93a8.68 8.68 0 0 1 -3.41-.81l-5.68-2.35a10 10 0 0 0 -2.53-.81 3.95 3.95 0 0 1 -7.76-.85c-.14-3.56 2.29-6.28 6.21-6.92a12.92 12.92 0 0 1 7.1 1.29l5.52 2.29a19.76 19.76 0 0 0 1.65-2.67 3.95 3.95 0 0 1 7 3.61 27.43 27.43 0 0 1 -2.55 4.06 7.35 7.35 0 0 1 -4.14 3 6 6 0 0 1 -1.41.16z" fill="#462e3b"/><path d="m387 121.77c.19-3.75 2.47-6.43 5.77-6.62.68-.15 1.16 0 1.15-.5 0-1-2.39-1.07-4.45-.18-2.9 1.25-3.76 3.94-4.05 7.3-.32 3.78 2 7.36 2.07 10.55a8.76 8.76 0 0 0 1.73-.54c-.03-2.07-2.35-6.5-2.22-10.01z" fill="#b84425"/><path d="m387.51 132.32a39.26 39.26 0 0 1 -5 .56c-3.94.4-5.66 2.53-5.22 6.56a95.33 95.33 0 0 0 14.24 0c.06-3.27-.9-5.17-2.27-7.67a8.76 8.76 0 0 1 -1.75.55z" fill="#462d3b"/><path d="m440.22 75.74c-5.06 2.08-8.77 4.92-11.5 10.32a2.83 2.83 0 0 0 2.42 1.94c1.13 0 1.42.72 1.84 1.56a4.69 4.69 0 0 0 7.32 1.64c.78-.61 1.23-1.39 2.44-.6 2.36 1.54 4.71.87 7-.4a29.18 29.18 0 0 0 -5.77-13.61 2.9 2.9 0 0 0 -3.75-.85z" fill="#fff8f0"/><path d="m408.23 138.73-2.52.08c-2.34.13-6.39.29-9.85.44-1.6.09-3.14.14-4.35.19.07-3.26-.91-5.15-2.27-7.66-.06-2.07-2.37-6.5-2.23-10 .2-3.76 2.48-6.43 5.78-6.63.68-.14 1.15 0 1.15-.48 0-1-2.39-1.08-4.44-.2-2.91 1.26-3.77 3.94-4.05 7.31-.33 3.77 2 7.36 2.06 10.55a39.45 39.45 0 0 1 -5 .56c-3.94.41-5.67 2.53-5.22 6.56l-2.6-.07c-6.67.34-7.85 0-6.16-5.21 2.75-8.42 2.05-27.95 2.24-30.08-.11-4 .17-8-.12-12-.66-9 10.65-11.35 17.53-10.19 3.62.61 6.51 1.29 9.36 3.62 2.59 2.11 4.92 6.61 6.27 9.64 3.48 7.79 4.29 16.59 4.34 25v.68.63 3.08a48.27 48.27 0 0 1 -.71 6.94 1 1 0 0 0 .66.18z" fill="#f3682a"/><path d="m376.36 106.59a.72.72 0 0 0 -1.39.16c-.71 6.12-2.28 20.33-5.29 26.89-2.27 5-1.14 5.47 5.52 5.88 4.13-10.97 5.17-21.94 1.16-32.93z" fill="#462d3b"/><path d="m441.8 121.9c-7.37 11.11-17.37 16.26-29.88 16.78-1 0-2.08 0-3.13 0h-.56l-.21-7a3.57 3.57 0 0 0 1.44-.37 15.7 15.7 0 0 0 2.46-1.44c4.52-3.26 6.92-8.73 8-14 1.53-7.29 1.67-12.28 3.92-19.46a46 46 0 0 1 4.85-10.38 2.87 2.87 0 0 0 2.44 1.97c1.13 0 1.44.71 1.84 1.55a4.69 4.69 0 0 0 7.33 1.64c.77-.61 1.23-1.39 2.44-.6 2.36 1.54 4.71.87 7-.4 0 0 .42 2.31.49 3.48.57 10.41-2.65 19.54-8.43 28.23z" fill="#f3682a"/><path d="m404.8 83.51c-.75 1.12-2.6 1.66-4 2.07a37.91 37.91 0 0 0 -6.24 2.91 78.37 78.37 0 0 0 -11.16 7.51c-3.31 2.43-6.81 2.18-9.19-1.18a53.58 53.58 0 0 0 -6.65-7.46c-4.77-4.55-9.83-8.18-11.66-8.9a12.64 12.64 0 0 1 8.1-4.46c5.53-.58 11.15 1.38 12.61 9a30.71 30.71 0 0 1 -.07 9.08 1.7 1.7 0 0 0 .08 2.35 3.32 3.32 0 0 0 3.54 1 2.08 2.08 0 0 0 1.64-2.78 36.44 36.44 0 0 1 2.2-9.65c2.27-5.9 9.32-7.65 14.51-4.78a17.84 17.84 0 0 1 6.29 5.29z" fill="#fff8f0"/><path d="m364 74c5.53-.57 11.16 1.4 12.6 9a30.11 30.11 0 0 1 -.07 9.09 3.68 3.68 0 0 1 .32-.37 4.73 4.73 0 0 1 4.9.89 36.92 36.92 0 0 1 2.25-9.61c2.27-5.9 9.32-7.65 14.51-4.79a18 18 0 0 1 6.3 5.32c.55-.54.46-1.38.18-2.44-1.64-6.24-2.84-11.27-4.68-15.08l-.27-.53a2.11 2.11 0 0 1 -1.75-1.87c-.4-1.45-3.1-4.26-5.13-5.24a2 2 0 0 1 -1.88-1.59 31.85 31.85 0 0 0 -8.87-2.19 24.27 24.27 0 0 0 -10.07.72c0 .07.05.14.07.21a2 2 0 0 1 -2.14 1.22s0-.08 0-.12c-2.18.48-5.62 2.77-6.29 4.16a2.12 2.12 0 0 1 -2.08 1.52.56.56 0 0 0 -.05-.08l-.17.06c-4.13 5.12-4.43 9.76-6.63 14.65-.36.83.19 1.26.91 1.52a12.72 12.72 0 0 1 8.04-4.45z" fill="#f3682a"/><path d="m400.17 58.41c0-1.41.25-3.48-1.28-3.82-2.27-.5-5.35 3-5.74 3.75 2 1 4.73 3.79 5.13 5.24a8.32 8.32 0 0 0 1.89-5.17z" fill="#fff8f0"/><path d="m376.87 91.7a3.68 3.68 0 0 0 -.32.37 1.71 1.71 0 0 0 .08 2.34 3.36 3.36 0 0 0 3.55 1 2.06 2.06 0 0 0 1.63-2.78 4.73 4.73 0 0 0 -4.94-.93z" fill="#462d3b"/><path d="m393.13 58.37c.39-.76 3.47-4.25 5.74-3.75 1.53.34 1.27 2.41 1.28 3.82a8.32 8.32 0 0 1 -1.89 5.17 2.11 2.11 0 0 0 1.74 1.84c2.33-2.63 3.52-8.74 1.59-11.83-.76-1.22-2.1-2.15-3.47-1.56-2.79 1.22-5.32 1.6-6.91 4.71a2 2 0 0 0 1.92 1.6z" fill="#462d3b"/><path d="m364.72 51.43a1.69 1.69 0 0 0 -.69-.11 2.15 2.15 0 0 0 -.69.66 10.88 10.88 0 0 0 -.49 2.44 12.24 12.24 0 0 0 1.06 6.35c.67-1.39 4.11-3.68 6.29-4.16a11.24 11.24 0 0 0 -5.48-5.18z" fill="#fff8f0"/><path d="m363.91 60.77a12.24 12.24 0 0 1 -1.06-6.35 10.88 10.88 0 0 1 .49-2.44c.17-.42.39-.62.69-.66a1.69 1.69 0 0 1 .69.11 11.24 11.24 0 0 1 5.48 5.18s0 .08 0 .12a2 2 0 0 0 2.14-1.22c0-.07-.05-.14-.07-.21-1.08-3.24-4.74-5.44-7.48-6.63-2-.87-2.45.17-3.25 1.37-2 3-1.56 9.12.2 12.17a.56.56 0 0 1 .05.08 2.12 2.12 0 0 0 2.12-1.52z" fill="#462d3b"/><path d="m366 78.36c.17-1.6 1.52-2 2.76-1.91 1.6.18 2.11 1.4 2 2.84a2.21 2.21 0 0 1 -2.55 1.82c-1.43-.37-2.35-1.22-2.21-2.75z" fill="#462d3b"/><path d="m389.18 81.49c.16-1.6 1.52-2 2.76-1.91 1.6.18 2.11 1.4 2 2.84a2.22 2.22 0 0 1 -2.55 1.82c-1.46-.37-2.39-1.24-2.21-2.75z" fill="#462d3b"/><path d="m344.77 121h21.72a0 0 0 0 1 0 0 3.06 3.06 0 0 1 -3.06 3.06h-18.66a0 0 0 0 1 0 0v-3.06a0 0 0 0 1 0 0z" fill="#c0c0c0"/><path d="m366.49 121a3.13 3.13 0 0 1 -.27 1.26 3.06 3.06 0 0 1 -2.79 1.8h-18.66v-3.06z" fill="url(#a)"/><path d="m366.22 122.22a3.06 3.06 0 0 1 -2.79 1.8h-13.61a2.11 2.11 0 0 0 2.19-1.8z" fill="#462e3b" opacity=".3"/><path d="m350.46 124h-60a2 2 0 0 1 -1.92-1.56l-7.67-36.54a2 2 0 0 1 1.88-2.36l67.67-1.49a2 2 0 0 1 2 2v38.05a2 2 0 0 1 -1.96 1.9z" fill="#999"/><path d="m349.82 124h-60a2 2 0 0 1 -1.91-1.56l-7.67-36.54a2 2 0 0 1 1.87-2.36l67.67-1.49a2 2 0 0 1 2 2v38.05a2 2 0 0 1 -1.96 1.9z" fill="#c0c0c0"/><path d="m349.82 124h-60a2 2 0 0 1 -1.91-1.56l-7.67-36.54a2 2 0 0 1 1.87-2.36l67.67-1.49a2 2 0 0 1 2 2v38.05a2 2 0 0 1 -1.96 1.9z" fill="url(#b)"/><ellipse cx="317.64" cy="104.38" fill="#fff" opacity=".8" rx="4.71" ry="5.3" transform="matrix(.68403802 -.72944635 .72944635 .68403802 24.22 264.69)"/><path d="m321.69 107.81a4.38 4.38 0 0 1 -3.45 1.57 5.79 5.79 0 0 1 -5.6-5 4.44 4.44 0 0 1 1.27-3.77 4.49 4.49 0 0 0 -.91 3.39 5.78 5.78 0 0 0 5.59 5 4.46 4.46 0 0 0 3.1-1.19z" fill="#462e3b" opacity=".3"/><path d="m351.78 122.22a2 2 0 0 1 -1.95 1.8h-60.06a2 2 0 0 1 -1.92-1.56l-.05-.24z" fill="#462e3b" opacity=".2"/><path d="m404 109.2a5.79 5.79 0 0 1 -3.09-4.64 8.4 8.4 0 0 1 .15-3.07 11 11 0 0 1 1.08-2.81 20.28 20.28 0 0 1 3.41-4.46c1.21-1.26 2.4-2.36 3.35-3.47a12.1 12.1 0 0 0 2.23-3.4 15 15 0 0 0 1.06-4.11 31 31 0 0 0 -.85-9.68 15.49 15.49 0 0 1 5.08 9.59 14.26 14.26 0 0 1 -.47 5.89 13.71 13.71 0 0 1 -1.23 2.84 16.68 16.68 0 0 1 -1.77 2.43 37 37 0 0 1 -3.95 3.69 31.28 31.28 0 0 0 -3.4 3 11.3 11.3 0 0 0 -1.28 1.68 7.44 7.44 0 0 0 -.82 1.91 6 6 0 0 0 .5 4.61z" fill="#fff" opacity=".6"/><path d="m393.57 116.29a2.2 2.2 0 0 0 -2.72-1.16 2.55 2.55 0 0 0 -1.57 2.61 3.11 3.11 0 0 0 1.89 2.48 4 4 0 0 0 3.18-.14z" fill="#fff8f0"/><path d="m392.81 117a1.14 1.14 0 0 0 -1.4-.6 1.32 1.32 0 0 0 -.81 1.35 1.58 1.58 0 0 0 1 1.27 2 2 0 0 0 1.64-.07z" fill="#f3682a"/><path d="m402.25 124a10.62 10.62 0 0 0 10.43-8.63l.41-2.13a1.61 1.61 0 0 0 -1.58-1.9h-18.51a1.6 1.6 0 0 0 -1.57 1.9l.4 2.13a10.63 10.63 0 0 0 10.42 8.63z" fill="#fff8f0"/><path d="m391.45 113.49.35 1.84h20.89l.35-1.84z" fill="#462e3b"/><path d="m394.85 121a10 10 0 0 0 2.06 1.55 42.56 42.56 0 0 0 5.06.31 44.44 44.44 0 0 0 5.73-.37 10.32 10.32 0 0 0 2-1.57 43.46 43.46 0 0 1 -14.85.08z" fill="#462e3b"/><rect fill="#8cc44a" height="8.75" rx="1.89" width="47.73" x="365.25" y="138.71"/><path d="m377.88 236.27a1.32 1.32 0 0 1 -1.32-1.37l3.1-87.48h4.84l-5.29 87.58a1.33 1.33 0 0 1 -1.33 1.27z" fill="#462e3b" opacity=".16"/><path d="m369.34 236.27a1.32 1.32 0 0 1 -1.32-1.38l3.85-87.49h4.83l-6 87.64a1.33 1.33 0 0 1 -1.36 1.23z" fill="#8cc44a"/><path d="m408.7 236.27a1.32 1.32 0 0 1 -1.32-1.19l-9-87.68h4.84l6.78 87.44a1.33 1.33 0 0 1 -1.3 1.43z" fill="#462e3b" opacity=".16"/><path d="m413.63 236.27a1.31 1.31 0 0 1 -1.31-1.17l-10.06-87.7h4.84l7.9 87.43a1.32 1.32 0 0 1 -1.37 1.44z" fill="#8cc44a"/><path d="m377.88 236.27a1.32 1.32 0 0 1 -1.32-1.37l3.1-87.48h4.84l-5.29 87.58a1.33 1.33 0 0 1 -1.33 1.27z" fill="#8cc44a"/><path d="m377.88 236.27a1.32 1.32 0 0 1 -1.32-1.37l3.1-87.48h4.84l-5.29 87.58a1.33 1.33 0 0 1 -1.33 1.27z" fill="#462e3b" opacity=".16"/><path d="m377.73 201.44-.04 1.29h3.46l.08-1.29z" fill="#462e3b" opacity=".16"/><path d="m369.34 236.27a1.32 1.32 0 0 1 -1.32-1.38l3.85-87.49h4.83l-6 87.64a1.33 1.33 0 0 1 -1.36 1.23z" fill="#8cc44a"/><path d="m408.7 236.27a1.32 1.32 0 0 1 -1.32-1.19l-9-87.68h4.84l6.78 87.44a1.33 1.33 0 0 1 -1.3 1.43z" fill="#8cc44a"/><path d="m408.7 236.27a1.32 1.32 0 0 1 -1.32-1.19l-9-87.68h4.84l6.78 87.44a1.33 1.33 0 0 1 -1.3 1.43z" fill="#462e3b" opacity=".16"/><path d="m404.04 202.73-.14-1.29h3.5l.1 1.29z" fill="#462e3b" opacity=".16"/><path d="m413.63 236.27a1.31 1.31 0 0 1 -1.31-1.17l-10.06-87.7h4.84l7.9 87.43a1.32 1.32 0 0 1 -1.37 1.44z" fill="#8cc44a"/><path d="m376.69 147.4-.2 2.88h-4.76l.13-2.88z" fill="#462e3b" opacity=".2"/><path d="m384.49 147.42-.17 2.86h-4.77l.1-2.86z" fill="#462e3b" opacity=".2"/><path d="m407.36 150.28h-4.76l-.34-2.88h4.84z" fill="#462e3b" opacity=".2"/><path d="m402.6 150.28h-3.98l-.29-2.88h3.93z" fill="#462e3b" opacity=".2"/><path d="m370.71 199.87h39.37v1.58h-39.37z" fill="#8cc44a"/><path d="m374.78 236.15a1.09 1.09 0 0 1 -1.09 1.09h-64.59a1.07 1.07 0 0 1 -1-1.47.09.09 0 0 1 0-.05 8.79 8.79 0 0 1 3.27-3.89 8.89 8.89 0 0 1 4.89-1.47h50.27a8.89 8.89 0 0 1 8.16 5.36v.05a1 1 0 0 1 .09.38z" fill="#462e3b"/><path d="m374.78 236.15a1.09 1.09 0 0 1 -1.09 1.09h-64.59a1.07 1.07 0 0 1 -1-1.47h66.62a1 1 0 0 1 .06.38z" fill="#462e3b" opacity=".6"/><path d="m421.28 128.08v.56a3.74 3.74 0 0 1 -.2 1.26 4.05 4.05 0 0 1 -3.86 2.81h-151.64a4.06 4.06 0 0 1 -3.87-2.81 3.74 3.74 0 0 1 -.2-1.26v-.56a4.07 4.07 0 0 1 4.07-4.06h151.64a4.06 4.06 0 0 1 4.06 4.06z" fill="#8cc44a"/><path d="m339.11 132.71h4.57v97.65h-4.57z" fill="#462e3b"/><path d="m339.83 145.34a3.87 3.87 0 0 1 -6.88-.07" fill="none" stroke="#462e3b" stroke-linecap="round" stroke-linejoin="round" stroke-width="2"/><path d="m341.4 184a3.61 3.61 0 0 1 3.61 3.61v42.72a0 0 0 0 1 0 0h-7.23a0 0 0 0 1 0 0v-42.69a3.61 3.61 0 0 1 3.62-3.64z" fill="#462e3b"/><path d="m316.94 132.69h48.83a0 0 0 0 1 0 0v.38a3.43 3.43 0 0 1 -3.43 3.43h-42a3.43 3.43 0 0 1 -3.43-3.43v-.38a0 0 0 0 1 .03 0z" fill="#462e3b"/><path d="m421.28 128.08v.56a3.74 3.74 0 0 1 -.2 1.26 4.05 4.05 0 0 1 -3.86 2.81h-151.64a4.06 4.06 0 0 1 -3.87-2.81 3.74 3.74 0 0 1 -.2-1.26v-.56a4.07 4.07 0 0 1 4.07-4.06h151.64a4.06 4.06 0 0 1 4.06 4.06z" fill="#8cc44a"/><path d="m421.27 128.9a3.62 3.62 0 0 1 -.19 1 4.05 4.05 0 0 1 -3.86 2.81h-151.64a4.06 4.06 0 0 1 -3.87-2.81 3.62 3.62 0 0 1 -.19-1 4.1 4.1 0 0 0 3.43 1.82h152.9a4.09 4.09 0 0 0 3.42-1.82z" fill="#462e3b" opacity=".3"/><path d="m339.11 136.51h4.57v2.55h-4.57z" fill="#462e3b" opacity=".6"/><path d="m317.64 132.69h48.13v.89h-48.13z" fill="#462e3b" opacity=".6"/><path d="m275.12 49.6a5.77 5.77 0 0 0 11.23 0z" fill="#fff" opacity=".6"/><path d="m298.53 47.65h-35.6a.85.85 0 0 1 -.85-.85v-1a.84.84 0 0 1 .32-.66l14.87-12.24a.85.85 0 0 1 .53-.18h5.86a.85.85 0 0 1 .53.18l14.87 12.24a.84.84 0 0 1 .32.66v1a.85.85 0 0 1 -.85.85z" fill="#f2692c"/><path d="m280.73 0v32.74" fill="none" stroke="#f2692c" stroke-miterlimit="10" stroke-width="1.4"/><path d="m172.9 105a3.75 3.75 0 0 0 7.3 0z" fill="#fff" opacity=".6"/><path d="m188.12 103.74h-23.12a.55.55 0 0 1 -.55-.54v-.65a.54.54 0 0 1 .21-.42l9.67-8a.52.52 0 0 1 .34-.12h3.81a.55.55 0 0 1 .35.12l9.67 8a.56.56 0 0 1 .2.42v.65a.55.55 0 0 1 -.58.54z" fill="#462e3b"/><path d="m176.55 92.47v-11.2" fill="none" stroke="#462e3b" stroke-miterlimit="10" stroke-width=".91"/><path d="m19.68 104.77v-14.83h4.11c3.36 0 4.76 2.71 4.76 5.3s-1.56 5.4-5.16 5.4h-1v4.13zm3.79-6.77c1.57 0 2.35-1.27 2.35-2.71s-.8-2.71-2.37-2.71h-1v5.42z" fill="#fff"/><path d="m30.82 104.77v-14.83h2.76v12.18h4.32v2.65z" fill="#fff"/><path d="m46.37 89.94h2.75v9.89c0 3.58-1.92 5.15-4.51 5.15s-4.61-1.57-4.61-5.17v-9.87h2.75v10c0 1.46.53 2.37 1.8 2.37s1.8-1 1.8-2.39z" fill="#fff"/><path d="m53.6 100.47a2.52 2.52 0 0 0 2.4 1.86c1.1 0 1.95-.5 1.95-1.65 0-2.41-6.13-2.39-6.13-6.9a4 4 0 0 1 4.09-4 4.54 4.54 0 0 1 4.51 3.2l-2.42 1.43c-.36-1.23-1-2-2.12-2a1.24 1.24 0 0 0 -1.33 1.31c0 2.63 6.12 2.1 6.12 7 0 2.63-1.95 4.3-4.7 4.3a4.9 4.9 0 0 1 -4.71-2.92z" fill="#fff"/><g fill="#462e3b"><path d="m20.78 39.76a3 3 0 0 0 2.8 2.24c1.31 0 2.32-.61 2.32-2 0-2.87-7.28-2.85-7.28-8.21a4.69 4.69 0 0 1 4.86-4.79 5.41 5.41 0 0 1 5.37 3.81l-2.85 1.74c-.43-1.46-1.18-2.42-2.52-2.42a1.48 1.48 0 0 0 -1.59 1.56c0 3.13 7.29 2.5 7.29 8.32 0 3.13-2.32 5.12-5.6 5.12a5.79 5.79 0 0 1 -5.58-3.48z"/><path d="m32.1 27.23h3.28v17.64h-3.28z"/><path d="m50 44.88v-10.88c0-.5 0-1.21 0-1.21s-.31.61-.56 1l-3 5.09h-.14l-3-5-.6-1.11s0 .73 0 1.26v10.85h-3.28v-17.65h3.58l2.72 4.77c.22.41.58 1.11.58 1.11h.05s.38-.7.6-1.13l2.65-4.72h3.63v17.62z"/><path d="m57.26 44.88v-17.65h4.89c4 0 5.68 3.23 5.68 6.3s-1.83 6.47-6.16 6.47h-1.13v4.92zm4.52-8.07c1.86 0 2.79-1.51 2.79-3.22s-.95-3.23-2.82-3.23h-1.21v6.45z"/><path d="m70.53 44.88v-17.65h3.27v14.5h5.14v3.15z"/><path d="m87.31 44.88h-3.31v-5l-4.25-12.65h3.68l1.77 6.33c.25.93.45 2.22.45 2.22a20.08 20.08 0 0 1 .45-2.22l1.74-6.33h3.76l-4.29 12.83z"/><path d="m101.64 39.76a3 3 0 0 0 2.79 2.24c1.31 0 2.32-.61 2.32-2 0-2.87-7.28-2.85-7.28-8.21a4.69 4.69 0 0 1 4.86-4.79 5.4 5.4 0 0 1 5.37 3.81l-2.85 1.76c-.43-1.46-1.18-2.42-2.52-2.42a1.48 1.48 0 0 0 -1.59 1.56c0 3.13 7.29 2.5 7.29 8.32 0 3.13-2.32 5.12-5.6 5.12a5.79 5.79 0 0 1 -5.59-3.48z"/><path d="m123.39 41.65a5.32 5.32 0 0 1 -5.24 3.48c-4.87 0-6.2-4.49-6.2-9.07s1.33-9.08 6.2-9.08a5.41 5.41 0 0 1 5.37 3.81l-2.85 1.76c-.43-1.46-1.18-2.42-2.52-2.42-2.24 0-2.92 2.75-2.92 5.93s.68 5.92 2.92 5.92c1.26 0 2-.88 2.44-2.22z"/><path d="m133.88 44.88v-6.63h-4.54v6.63h-3.27v-17.65h3.27v7.87h4.54v-7.87h3.28v17.65z"/><path d="m141.19 44.88v-17.65h9.38v3.16h-6.1v4.51h5.14v3.15h-5.14v3.68h6.1v3.15z"/><path d="m154.38 44.88v-17.65h4.56c4.86 0 6.45 4.24 6.45 8.83s-1.59 8.82-6.45 8.82zm4.56-3.15c2.24 0 3.18-2.5 3.18-5.67s-.94-5.68-3.18-5.68h-1.29v11.35z"/><path d="m176.13 27.23h3.28v11.77c0 4.26-2.29 6.13-5.37 6.13s-5.47-1.87-5.47-6.15v-11.75h3.28v11.93c0 1.73.63 2.82 2.14 2.82s2.14-1.14 2.14-2.85z"/><path d="m183.45 44.88v-17.65h3.27v14.5h5.14v3.15z"/><path d="m194.39 44.88v-17.65h9.37v3.16h-6.1v4.51h5.15v3.15h-5.15v3.68h6.1v3.15z"/><path d="m26.57 69.37-.27-2.09h-3.45l-.21 2.09h-4.64l4-18.71h5.24l4 18.71zm-1.64-11.6c-.16-1.07-.29-2.6-.29-2.6h-.05s-.16 1.53-.32 2.6l-.75 5.61h2.16z"/><path d="m35.33 69.37v-18.71h5.56c4.28 0 6 3.68 6 6.65 0 3.58-2 6.85-6.23 6.85h-.93v5.21zm5.27-9.2c1.39 0 1.92-1.36 1.92-2.78s-.56-2.78-2-2.78h-.8v5.56z"/><path d="m51.21 69.37v-18.71h5.56c4.28 0 6 3.68 6 6.65 0 3.58-2 6.85-6.23 6.85h-.93v5.21zm5.26-9.2c1.39 0 1.93-1.36 1.93-2.78s-.56-2.78-1.95-2.78h-.8v5.56z"/><path d="m66.28 60c0-5 1.15-9.73 6.34-9.73s6.38 4.73 6.38 9.73-1.12 9.73-6.33 9.73-6.39-4.73-6.39-9.73m8.24 0c0-3.42-.24-5.45-1.9-5.45s-1.9 2-1.9 5.45.3 5.45 1.9 5.45 1.9-2 1.9-5.45"/><path d="m83.5 50.66h4.44v18.71h-4.44z"/><path d="m101.81 69.37-3.21-7.17a30.6 30.6 0 0 1 -1.15-3.07s0 1.79 0 3.31v6.93h-4.17v-18.71h4.54l2.92 6.41c.61 1.34 1.28 3.21 1.28 3.21s0-1.93 0-3.5v-6.12h4.2v18.71z"/><path d="m113.52 69.37v-14.44h-2.76v-4.27h9.97v4.27h-2.75v14.44z"/><path d="m135.94 69.37v-9.52c0-1.17.08-2.24.08-2.24h-.02a14.18 14.18 0 0 1 -1.12 1.79l-2.09 2.86h-.11l-2.08-2.86a12.56 12.56 0 0 1 -1.1-1.79h-.05s0 1.09 0 2.24v9.52h-4.17v-18.71h4.43l1.66 2.34c.8 1.15 1.31 2.06 1.31 2.06s.56-.91 1.34-2.06l1.63-2.37h4.41v18.74z"/><path d="m145.46 69.37v-18.71h10.39v4.06h-5.96v3.58h4.98v3.9h-4.98v3.11h5.96v4.06z"/><path d="m169.46 69.37-3.21-7.17c-.61-1.36-1.15-3.07-1.15-3.07s0 1.79 0 3.31v6.93h-4.17v-18.71h4.55l2.91 6.41c.61 1.34 1.28 3.21 1.28 3.21h.06s-.06-1.93-.06-3.5v-6.12h4.2v18.71z"/><path d="m181.17 69.37v-14.44h-2.76v-4.27h9.97v4.27h-2.75v14.44z"/><path d="m195.65 63.62a2.85 2.85 0 0 0 2.54 1.93 1.23 1.23 0 0 0 1.39-1.21c0-2.56-7.27-3.15-7.27-8.63a5.38 5.38 0 0 1 5.69-5.43 5.76 5.76 0 0 1 5.64 4l-3.53 2.08a2.53 2.53 0 0 0 -2.11-2.15 1.21 1.21 0 0 0 -1.28 1.23c0 2.65 7.35 2.73 7.35 8.69 0 3.5-2.57 5.61-6 5.61a6.55 6.55 0 0 1 -6.09-3.87z"/><path d="m18 16.02h186.1v5.25h-186.1z"/><path d="m18 75.24h186.1v5.25h-186.1z"/></g></svg>