<svg viewBox="0 0 464 261" xmlns="http://www.w3.org/2000/svg" xmlns:xlink="http://www.w3.org/1999/xlink"><linearGradient id="a" gradientUnits="userSpaceOnUse" x1="207.27" x2="208.38" y1="139.22" y2="163.05"><stop offset="0" stop-color="#d8d8d8" stop-opacity="0"/><stop offset=".1" stop-color="#d8d8d8" stop-opacity=".07"/><stop offset=".13" stop-color="#d8d8d8" stop-opacity=".17"/><stop offset=".2" stop-color="#d8d8d8" stop-opacity=".45"/><stop offset=".3" stop-color="#d8d8d8" stop-opacity=".88"/><stop offset=".32" stop-color="#d8d8d8"/><stop offset="1" stop-color="#d8d8d8" stop-opacity="0"/></linearGradient><path d="m0 0h464v261h-464z" fill="#fff"/><path d="m0 0h464v261h-464z" fill="#f2bd2c" opacity=".6"/><path d="m68.29 176.68h30.29v8.6h-30.29z" fill="#f2bd2c"/><path d="m242.12 44.05h30.29v8.6h-30.29z" fill="#f2bd2c"/><path d="m414.67 101.61h30.29v8.6h-30.29z" fill="#f2bd2c"/><path d="m429.81 93.01h30.29v8.6h-30.29z" fill="#f2bd2c"/><path d="m364.73 201.96h30.29v8.6h-30.29z" fill="#f2bd2c"/><path d="m149.18 99.31h30.29v8.6h-30.29z" fill="#f2bd2c"/><path d="m168.79 194.12h30.29v8.6h-30.29z" fill="#f2bd2c"/><path d="m53.15 185.28h30.29v8.6h-30.29z" fill="#f2bd2c"/><path d="m0 214.31h464v5.74h-464z" fill="#462e3b" opacity=".8"/><path d="m0 220.05h464v40.95h-464z" fill="#f2692c"/><path d="m148.84 232.68 24.23-49.44" fill="none" stroke="#fff" stroke-linecap="round" stroke-miterlimit="10" stroke-width="2.38"/><path d="m176.2 232.68-24.98-49.44" fill="none" stroke="#fff" stroke-linecap="round" stroke-miterlimit="10" stroke-width="2.38"/><path d="m176.2 180.12v1.17a3.76 3.76 0 0 1 -2.94 3.67l-3.34.75a21.88 21.88 0 0 1 -5.91.43l-11.73-.83a3.76 3.76 0 0 1 -3.44-3.75v-1.44l18.22 2.24z" fill="#fff"/><path d="m176.2 180.12v1.17a3.76 3.76 0 0 1 -2.94 3.67l-3.34.75a18.42 18.42 0 0 1 -2.86.41v-3.76z" fill="#462d3b" opacity=".08"/><ellipse cx="162.39" cy="180.12" fill="#fff" rx="18.52" ry="3.09"/><path d="m180.23 140.89a71.74 71.74 0 0 0 -4.84-12.2 5.54 5.54 0 0 1 -.46-2.18 55.38 55.38 0 0 0 -8.49 7.66c-2.55 3-5.87 2.89-8.78.31a64.83 64.83 0 0 0 -6.91-5.9 18.41 18.41 0 0 0 -1.41 2.48c-1.57 3.68-3.06 6.75-4.34 9.83-2.54 6.14-4.18 12.36-3.63 23.74a22.78 22.78 0 0 0 2 7.58s-.5.47-2-.19c-5.83-2.7-8.71-8.79-9.93-14.63-1.3-6.22-1.54-10.69-3.14-16.5q-.26-.94-.57-1.95a43.91 43.91 0 0 0 -4.6-9.82 2.68 2.68 0 0 1 -2.29 1.8c-1.07 0-1.36.68-1.75 1.48a4.43 4.43 0 0 1 -6.93 1.55c-.74-.58-1.18-1.32-2.32-.57-2.23 1.46-4.46.83-6.6-.38 0 0-.4 2.19-.47 3.3a39 39 0 0 0 0 4.59c.46 8 3.35 15.23 8 22.17 7.55 11.39 18 16.17 31.28 15.93l2.92.09 9.88.56c-.5-7.9-.32-15.85-1.46-23.71a17.13 17.13 0 0 1 -.15-6.57c.62-2.62 3.33-3.8 5.27-1.89a8 8 0 0 1 2 5.08c.51 9 .59 18.09.58 27.14h3.74c.06-9.5.33-19 .19-28.51-.06-3.71 2.58-5.18 4.44-4.45a4.74 4.74 0 0 1 2.82 4.49 98.55 98.55 0 0 1 -.13 14c-.3 4.74-.51 9.42-1.32 14.45 7.47.06 11.86-5.14 12.16-12.07.4-9.6-.26-18.18-2.76-26.71z" fill="#f3682a"/><path d="m109.84 133.38c1.14-.75 1.58 0 2.32.57a4.43 4.43 0 0 0 6.93-1.55c.39-.8.68-1.46 1.75-1.48a2.68 2.68 0 0 0 2.29-1.8c-2.59-5.13-6.1-7.82-10.9-9.79a2.73 2.73 0 0 0 -3.52.78 27.68 27.68 0 0 0 -5.47 12.89c2.14 1.21 4.37 1.84 6.6.38z" fill="#fff8f0"/><path d="m172.26 151.22a4.74 4.74 0 0 0 -2.82-4.49c-1.86-.73-4.5.74-4.44 4.45.14 9.5-.13 19-.19 28.51a20.45 20.45 0 0 0 6-.06c.81-5 1-9.71 1.32-14.45a98.55 98.55 0 0 0 .13-13.96z" fill="#462d3b"/><path d="m158.47 147.47c-1.94-1.91-4.65-.73-5.27 1.89a17.13 17.13 0 0 0 .15 6.57c1.14 7.86 1 15.81 1.46 23.71a22.25 22.25 0 0 0 6.26.05c0-9.05-.07-18.1-.58-27.14a8 8 0 0 0 -2.02-5.08z" fill="#462d3b"/><path d="m178.92 114.28c2.58.72 5.06 2.8 7.19 4.52-.4 1.23-1.93 2.19-3.08 2.92-2.91 1.85-9.77 8.93-13.17 14-2.39 3.07-5.64 3.75-8.7 1.31-6.83-5.46-18.11-9.87-20.93-10.14 1.35-2.8 2.76-6.38 5.54-7.5 4.89-1.95 27.49-6.68 33.15-5.11z" fill="#fff8f0" fill-rule="evenodd"/><path d="m186.11 118.8c.36-.64 0-1.38-.48-2.28-3.11-5.25-5.51-9.53-8.18-12.52-5.06-5.67-10.27-7.14-19.29-5.73-13.51 2.13-15.83 12-16.93 12.4-2.43 5.75-1.5 10-2.22 15.08-.13.85.5 1.1 1.22 1.15a12.06 12.06 0 0 1 6.25-6.15c4.89-2 10.53-1.63 13.82 4.89a28.85 28.85 0 0 1 2.29 8.3c1.64-.43 3.41-1.33 5-.32a36.05 36.05 0 0 1 -.56-9.9c.53-6 6.5-9.39 12-8.13a17 17 0 0 1 7.08 3.21z" fill="#f3682a" fill-rule="evenodd"/><path d="m175 102.34c.74-1.66 1.7-3.36 1.23-5-.37-1.28-1.16-4.06-2.65-4s-4 1.52-4.56 3.18a18.18 18.18 0 0 0 -.59 2.31c2.02.09 5.76 2.17 6.57 3.51z" fill="#fff8f0" fill-rule="evenodd"/><path d="m162.79 133.53a1.71 1.71 0 0 0 .49 2.53 3.18 3.18 0 0 0 3.49 0 2 2 0 0 0 .77-3 4.47 4.47 0 0 0 -4.75.47z" fill="#462d3b" fill-rule="evenodd"/><path d="m175 102.34a2 2 0 0 0 2.1 1.25c1.44-3 .93-8.88-1.63-11.19-1-.92-2.47-1.42-3.56-.53-2.23 1.85-4.44 2.85-5.08 6.1a1.94 1.94 0 0 0 2.13 1c.13-.72 2.05-4.8 4.26-4.94 1.49-.09 1.79 1.87 2.16 3.15a7.75 7.75 0 0 1 -.38 5.16z" fill="#462d3b" fill-rule="evenodd"/><path d="m142.94 108.72c-1.28-1.28-2.8-2.52-2.94-4.2-.12-1.32-.38-4.2 1-4.71s4.29 0 5.39 1.32a19.45 19.45 0 0 1 1.46 2c-1.85.87-4.65 4.06-4.91 5.59z" fill="#fff8f0" fill-rule="evenodd"/><path d="m142.94 108.72a2 2 0 0 1 -1.5 1.92c-2.44-2.28-4.44-7.81-3.44-11.09.41-1.31.54-2.37 2.6-2.1 2.87.38 6.89 1.47 8.66 4.27a1.92 1.92 0 0 1 -1.64 1.66c-.72-1.22-4.18-3.32-6.4-3.39-1.2 0-1.33.53-.92 3.21a11.57 11.57 0 0 0 2.64 5.52z" fill="#462d3b" fill-rule="evenodd"/><path d="m153.26 127.43c-1.07.12-1.9-.24-2.08-1.36a1.8 1.8 0 0 1 1.46-2.31c1.2-.26 2.06.16 2.25 1.42a2 2 0 0 1 -1.63 2.25z" fill="#462d3b" fill-rule="evenodd"/><path d="m175.89 121c.29 1.41-.18 2.3-1.5 2.61a1.79 1.79 0 0 1 -2.13-1.16c-.46-1.12.06-2.21 1.57-2.46a1.7 1.7 0 0 1 2.06 1.01z" fill="#462d3b" fill-rule="evenodd"/><path d="m41.86 166.15c1.48 2.91 6.73.59 8.76-.35 2.8-1.3 5.83-2.81 8.83-2.1a16 16 0 0 1 4.85 2.62 30.34 30.34 0 0 0 8.13 3.75l-5.73-6.36a7.51 7.51 0 0 0 -1.92-1.71 2.49 2.49 0 0 0 -2.45 0c0-.51-.07-1-.1-1.54l1.39-.41a2.65 2.65 0 0 0 -3.37-1.55 3.19 3.19 0 0 1 -1.37.46 1 1 0 1 1 .49-1.82 3.44 3.44 0 0 0 -3.89-1.87 18 18 0 0 0 -1.89 1 1.79 1.79 0 0 1 -2-.12.94.94 0 0 1 .33-1.48 10.66 10.66 0 0 0 -7.53 3.33c-1.64 1.75-3.78 5.67-2.53 8.15zm12.73-8.8c-.05-.36.23-.58.53-.7a1.4 1.4 0 0 1 .88-.1.51.51 0 0 1 .3.79 1.26 1.26 0 0 1 -.7.32.53.53 0 0 1 -.43.13.58.58 0 0 1 -.32-.06.47.47 0 0 1 -.26-.38z" fill="#fff"/><path d="m41.86 166.15c1.48 2.91 6.73.59 8.76-.35 2.8-1.3 5.83-2.81 8.83-2.1a16 16 0 0 1 4.85 2.62 30.34 30.34 0 0 0 8.13 3.75l-5.73-6.36a7.51 7.51 0 0 0 -1.92-1.71 2.49 2.49 0 0 0 -2.45 0c0-.51-.07-1-.1-1.54l1.39-.41a2.65 2.65 0 0 0 -3.37-1.55 3.19 3.19 0 0 1 -1.37.46 1 1 0 1 1 .49-1.82 3.44 3.44 0 0 0 -3.89-1.87 18 18 0 0 0 -1.89 1 1.79 1.79 0 0 1 -2-.12.94.94 0 0 1 .33-1.48 10.66 10.66 0 0 0 -7.53 3.33c-1.64 1.75-3.78 5.67-2.53 8.15zm12.73-8.8c-.05-.36.23-.58.53-.7a1.4 1.4 0 0 1 .88-.1.51.51 0 0 1 .3.79 1.26 1.26 0 0 1 -.7.32.53.53 0 0 1 -.43.13.58.58 0 0 1 -.32-.06.47.47 0 0 1 -.26-.38z" fill="#462e3b" opacity=".8"/><path d="m38 164.78c.3 2.34 2.78 6.13 5.55 6 1.37-.06 3-1.8 4.2-2.49a35.77 35.77 0 0 1 4.45-2.29 17 17 0 0 1 6.8-1.53c2.33 0 4.18 1 6.59 2.63a21.58 21.58 0 0 0 -8.34-8 4 4 0 0 0 -1.81-.64 1.61 1.61 0 0 0 -1.57.9 4.27 4.27 0 0 0 0 1.67c0 .56-.3 1.24-.86 1.22s-.77-.59-.76-1.07.2-.94.2-1.43a2.53 2.53 0 0 0 -1.35-2.09 7.33 7.33 0 0 0 -2.48-.78c-1-.19-2.23-.26-2.72.61a2.33 2.33 0 0 0 .47 2.34 3 3 0 0 1 .78 2.3 1.85 1.85 0 0 1 -2.57.92 4.05 4.05 0 0 1 -1.81-2.43 16.13 16.13 0 0 0 -1.06-2.92 7.19 7.19 0 0 0 -3.71 7.08zm1.92-1.91a.83.83 0 0 1 -.1-.72 1.76 1.76 0 0 1 .4-.67 1.3 1.3 0 0 1 .6-.4.59.59 0 0 1 .65.17 1.31 1.31 0 0 1 .14.93c-.08.56-1 1.67-1.53.86a.57.57 0 0 1 -.21-.17z" fill="#462e3b"/><path d="m48.94 165.52a15.36 15.36 0 0 0 -4.22 2.57 28.34 28.34 0 0 0 -6.46 8.83 66.12 66.12 0 0 0 -6.79 37" fill="none" stroke="#462e3b" stroke-miterlimit="10"/><path d="m32.57 158a2 2 0 0 0 -.29-.54 5.44 5.44 0 0 0 -1.94-1.58 3.68 3.68 0 0 1 -1.72-1.18 1.08 1.08 0 0 1 .81-1.52 2.3 2.3 0 0 1 1.6.35 9.29 9.29 0 0 1 2.36 2 17.83 17.83 0 0 0 -.42-5.61 19.12 19.12 0 0 0 -3.82-7.52 1.58 1.58 0 0 0 -1.59-.16c-.54.29-1 .73-1.54 1a2 2 0 0 1 -1.72.05c-.41-.17-.88-.43-.9-1a1 1 0 0 1 .79-1 7.09 7.09 0 0 1 1.11-.24l.55-.09h.12.07a1.73 1.73 0 0 0 .61-.33 1.1 1.1 0 0 0 .31-.39.43.43 0 0 0 0-.11 19.2 19.2 0 0 0 -5.59-3.52 4.77 4.77 0 0 0 -3.19-.41c-2.51.81-3.72 5.83-4 8.33a26.45 26.45 0 0 0 -.2 2.66 2.08 2.08 0 0 0 1.41 1.41 1.39 1.39 0 0 0 1.15-.12 1.35 1.35 0 0 1 1.61-.22c1.23.76.32 2.32-.69 2.52a4.05 4.05 0 0 1 -1.65-.17 1 1 0 0 0 -1 .14c-1.4 1.27.12 4.8.63 6.2a17.22 17.22 0 0 0 3.72 6.05 3 3 0 0 1 .67-.65.86.86 0 0 1 1.19.3.89.89 0 0 1 0 .92s0 0 0 0v.72s.28.4.44.59l.05.06c.52.35 1.08.62 1.62.94 1.22.72 2.18 1.4 3.46 1.07a7.94 7.94 0 0 0 3.41-2.73 15.94 15.94 0 0 0 2-3.15c.36-.92.91-2.13.57-3.07zm-12.21-2.13a1.08 1.08 0 0 1 -.27.49l-.23.2a.57.57 0 0 1 -.28.08c-1.2.1-.93-2.43.38-1.71a.83.83 0 0 1 .4.9z" fill="#462e3b"/><path d="m30.08 210.38a233.23 233.23 0 0 0 -4.55-49.73" fill="none" stroke="#462e3b" stroke-miterlimit="10"/><path d="m26 240.8c-.87-.29-6-2.11-7.94-7.2a12.85 12.85 0 0 1 0-8.32c1-3.38 2.93-5.6 6-9.13a54.82 54.82 0 0 1 4.23-4.3v-5.1h4.25v5.1a52.92 52.92 0 0 1 4.24 4.3c3.08 3.53 5 5.75 6 9.13a12.85 12.85 0 0 1 0 8.32c-1.95 5.09-7.08 6.91-7.94 7.2z" fill="#fff"/><path d="m17.35 229.88a52.27 52.27 0 0 0 12.89 1.61 56.9 56.9 0 0 0 13.27-1.61q0-.52 0-1h-.09a52.88 52.88 0 0 1 -25.92 0h-.09c-.05.31-.06.65-.06 1z" fill="#462e3b"/><path d="m17.86 233a4.69 4.69 0 0 0 .2.6q.11.27.24.54a51.48 51.48 0 0 0 11.94 1.39 56.33 56.33 0 0 0 12.33-1.4 4.83 4.83 0 0 0 .23-.52 4.69 4.69 0 0 0 .2-.6 52.52 52.52 0 0 1 -25.14-.01z" fill="#462e3b"/><path d="m28.3 206.75h4.25v.8h-4.25z" fill="#462e3b" opacity=".4"/><rect fill="#fff" height="1.71" rx=".32" transform="matrix(-1 0 0 -1 60.86 411.79)" width="5.21" x="27.82" y="205.04"/><path d="m432.51 206.9a51.28 51.28 0 0 1 1-17.94c.72-2.88 1.44-5.72 2-8.6.27-1.43.5-2.88.67-4.33a27.52 27.52 0 0 0 .23-4.33c-.22-5.82-3.24-11.15-4.82-16.86a19.59 19.59 0 0 1 -.81-8.83 11.46 11.46 0 0 1 .61-2.15c.27-.69.6-1.35.89-2a9.12 9.12 0 0 0 .68-2.09 3.31 3.31 0 0 0 -.32-2.14 3.27 3.27 0 0 1 .38 2.15 9.27 9.27 0 0 1 -.61 2.13c-.28.69-.58 1.36-.83 2.05a11.28 11.28 0 0 0 -.54 2.13 19.13 19.13 0 0 0 1.06 8.63c.89 2.8 2.07 5.5 3.16 8.26a29.47 29.47 0 0 1 2.21 8.69c.22 6.06-1.15 11.92-2.39 17.68a49 49 0 0 0 -.46 17.29z" fill="#462e3b"/><path d="m446.65 229.88a10.92 10.92 0 0 1 -.51 3.12 4.69 4.69 0 0 1 -.2.6q-.1.27-.24.54c-2.08 4.68-6.86 6.38-7.7 6.66h-8.86c-.83-.28-5.63-2-7.71-6.67a4.83 4.83 0 0 1 -.23-.52 4.69 4.69 0 0 1 -.2-.6 10.92 10.92 0 0 1 -.51-3.12q0-.52 0-1a16.46 16.46 0 0 1 .68-3.58c1-3.38 2.93-5.6 6-9.13a52.92 52.92 0 0 1 4.24-4.3v-5.1h4.25v5.1a54.82 54.82 0 0 1 4.23 4.3c3.08 3.53 5 5.75 6 9.13a16 16 0 0 1 .68 3.59c.07.29.08.63.08.98z" fill="#fff"/><rect fill="#fff" height="1.71" rx=".32" width="5.21" x="430.96" y="205.04"/><path d="m435.42 182.61a8.82 8.82 0 0 0 4.71.14c1.43-.47 2.35-2.07 3.81-3.13a10.38 10.38 0 0 1 9.91-1.37 10 10 0 0 0 -9.44 2 15.12 15.12 0 0 0 -1.7 1.84 6 6 0 0 1 -2.15 1.73 10 10 0 0 1 -5.39.31z" fill="#462e3b"/><path d="m434.48 162.69c.55-2 1.62-3.7 2.19-5.57a9.22 9.22 0 0 0 .42-2.9 5 5 0 0 0 -.88-2.78 5 5 0 0 1 1.07 2.77 9.48 9.48 0 0 1 -.25 3c-.47 2-1.44 3.77-1.82 5.66z" fill="#462e3b"/><path d="m431.82 155.18a7.94 7.94 0 0 1 -2.47-.79 19.2 19.2 0 0 1 -2.2-1.29 13.91 13.91 0 0 0 -2.17-1.26 5.05 5.05 0 0 0 -2.45-.48 5.19 5.19 0 0 1 2.49.36 13.87 13.87 0 0 1 2.27 1.16 17.92 17.92 0 0 0 2.21 1.12 7.47 7.47 0 0 0 2.36.64z" fill="#462e3b"/><path d="m432.65 194.17a11 11 0 0 1 -4.78-4.93 10.21 10.21 0 0 1 -1-3.27 17.51 17.51 0 0 1 -.07-3.31 26.78 26.78 0 0 0 .07-6.32 8.38 8.38 0 0 0 -1.06-2.94 5.1 5.1 0 0 0 -2.33-2.07 5.24 5.24 0 0 1 2.53 1.93 8.6 8.6 0 0 1 1.35 3 27.09 27.09 0 0 1 .44 6.45 11.29 11.29 0 0 0 1.37 5.86 9.38 9.38 0 0 0 4.31 3.82z" fill="#462e3b"/><path d="m426.93 175.2a2.59 2.59 0 0 0 1.75-2.7 2.83 2.83 0 0 1 -1.58 3.17z" fill="#462e3b"/><path d="m447.49 178.16a2.23 2.23 0 0 1 .56-1.45 7.74 7.74 0 0 1 1.07-1 5.46 5.46 0 0 0 1-1 1.75 1.75 0 0 0 .36-1.32 1.82 1.82 0 0 1 -.26 1.39 5.18 5.18 0 0 1 -.92 1.12 6.41 6.41 0 0 0 -.92 1 1.75 1.75 0 0 0 -.37 1.19z" fill="#462e3b"/><path d="m428.53 189.67a9.92 9.92 0 0 1 -5.81-1 9.55 9.55 0 0 0 5.6.06z" fill="#462e3b"/><path d="m436.55 157.82a2.67 2.67 0 0 1 -1.39-3 2.44 2.44 0 0 0 1.58 2.59z" fill="#462e3b"/><path d="m450 174.8a2.65 2.65 0 0 0 -.23-1.79 1.09 1.09 0 0 0 -.77-.51.73.73 0 0 0 -.75.46.93.93 0 0 0 .11.69 2.19 2.19 0 0 0 1.64 1.15z" fill="#462e3b" opacity=".8"/><path d="m425.27 188.84a2.62 2.62 0 0 0 -.23-1.78 1.1 1.1 0 0 0 -.76-.52.74.74 0 0 0 -.76.46 1 1 0 0 0 .11.69 2.17 2.17 0 0 0 1.64 1.15z" fill="#462e3b" opacity=".8"/><path d="m423.58 189.26a2.65 2.65 0 0 0 -1.8 0 1 1 0 0 0 -.62.67.72.72 0 0 0 .33.82 1 1 0 0 0 .7 0 2.15 2.15 0 0 0 1.39-1.49z" fill="#462e3b" opacity=".8"/><path d="m436.18 151.18a2.83 2.83 0 0 0 -.6-1.5 1 1 0 0 0 -.84-.35.71.71 0 0 0 -.66.59 1 1 0 0 0 .24.65 2.16 2.16 0 0 0 1.83.82" fill="#462e3b" opacity=".8"/><path d="m435 155a2.86 2.86 0 0 0 -.66-1.47 1.09 1.09 0 0 0 -.87-.32.73.73 0 0 0 -.62.62.91.91 0 0 0 .27.65 2.15 2.15 0 0 0 1.86.73" fill="#462e3b" opacity=".8"/><path d="m437.56 153.4a2.8 2.8 0 0 0 1.51-.55 1.06 1.06 0 0 0 .38-.84.71.71 0 0 0 -.57-.67.94.94 0 0 0 -.66.22 2.16 2.16 0 0 0 -.87 1.8" fill="#462e3b" opacity=".8"/><path d="m422.06 151.3a2.84 2.84 0 0 0 -1.43-.73 1.08 1.08 0 0 0 -.88.29.73.73 0 0 0 -.09.88.93.93 0 0 0 .61.33 2.18 2.18 0 0 0 1.91-.59" fill="#462e3b" opacity=".8"/><path d="m424.93 151a2.83 2.83 0 0 0 .18-1.6 1 1 0 0 0 -.58-.71.71.71 0 0 0 -.85.21.92.92 0 0 0 -.1.69 2.14 2.14 0 0 0 1.23 1.58" fill="#462e3b" opacity=".8"/><path d="m433.61 138.48a2.74 2.74 0 0 0 1.32-.92 1 1 0 0 0 .16-.9.72.72 0 0 0 -.72-.5.89.89 0 0 0 -.59.38 2.16 2.16 0 0 0 -.38 2" fill="#462e3b" opacity=".8"/><path d="m432.19 140.65a2.94 2.94 0 0 0 -.06-1.61 1.07 1.07 0 0 0 -.68-.62.71.71 0 0 0 -.81.34.94.94 0 0 0 0 .7 2.17 2.17 0 0 0 1.45 1.38" fill="#462e3b" opacity=".8"/><path d="m425.78 152.74a2.82 2.82 0 0 0 -1.6-.08 1.05 1.05 0 0 0 -.68.62.7.7 0 0 0 .27.84 1 1 0 0 0 .69.06 2.17 2.17 0 0 0 1.5-1.32" fill="#462e3b" opacity=".8"/><path d="m452.85 177.75a2.81 2.81 0 0 0 1.54-.46 1.08 1.08 0 0 0 .43-.81.71.71 0 0 0 -.54-.7.92.92 0 0 0 -.67.18 2.16 2.16 0 0 0 -1 1.75" fill="#462e3b" opacity=".8"/><path d="m450.16 178.37a2.81 2.81 0 0 0 .67 1.46 1.08 1.08 0 0 0 .86.32.71.71 0 0 0 .62-.63.89.89 0 0 0 -.27-.64 2.13 2.13 0 0 0 -1.86-.72" fill="#462e3b" opacity=".8"/><path d="m429.08 173.78a2.84 2.84 0 0 0 1.6.17 1.07 1.07 0 0 0 .7-.59.72.72 0 0 0 -.22-.85 1 1 0 0 0 -.7-.09 2.23 2.23 0 0 0 -1.57 1.29z" fill="#462e3b" opacity=".8"/><path d="m424.83 171.27a2.87 2.87 0 0 0 1-1.24 1.1 1.1 0 0 0 -.11-.92.71.71 0 0 0 -.84-.27.91.91 0 0 0 -.45.53 2.23 2.23 0 0 0 .21 2z" fill="#462e3b" opacity=".8"/><path d="m425.53 173.64a2.91 2.91 0 0 0 -1.47-.64 1.1 1.1 0 0 0 -.85.35.71.71 0 0 0 0 .88.94.94 0 0 0 .63.3 2.23 2.23 0 0 0 1.89-.76z" fill="#462e3b" opacity=".8"/><path d="m446.65 229.88a52.27 52.27 0 0 1 -12.89 1.61 56.9 56.9 0 0 1 -13.27-1.61q0-.52 0-1h.09a52.88 52.88 0 0 0 25.92 0h.09c.05.31.06.65.06 1z" fill="#462e3b"/><path d="m446.14 233a4.69 4.69 0 0 1 -.2.6q-.1.27-.24.54a51.48 51.48 0 0 1 -11.94 1.39 56.33 56.33 0 0 1 -12.33-1.4 4.83 4.83 0 0 1 -.23-.52 4.69 4.69 0 0 1 -.2-.6 52.52 52.52 0 0 0 25.14-.01z" fill="#462e3b"/><path d="m431.45 206.75h4.25v.8h-4.25z" fill="#462e3b" opacity=".4"/><path d="m275.9 41.73h71.25v81.37h-71.25z" fill="#b5e3f7"/><path d="m350.08 62.74a16.88 16.88 0 1 0 0 20.86z" fill="#f2bd2c"/><path d="m347.16 41.73h5.55v81.37h-5.55z" fill="#462e3b"/><path d="m270.36 41.73h5.55v81.37h-5.55z" fill="#462e3b"/><path d="m356.67 123.1h-43.67v-39.19h39.19v-3h-39.19v-39.18h39.7v-5.55h-82.34v5.55h39.64v39.18h-39.16v3h39.16v39.19h-43.61a2.77 2.77 0 1 0 0 5.54h90.28a2.77 2.77 0 0 0 0-5.54z" fill="#462e3b"/><path d="m386.81 71.51h44.78v34.4h-44.78z" fill="#462e3b"/><path d="m388.59 73.17h41.22v31.09h-41.22z" fill="#fff"/><path d="m390.12 75.19h38.15v23.96h-38.15z" fill="#b9e8f9"/><path d="m397.9 71.95 11.3-6.39 11.29 6.39z" fill="none" stroke="#462e3b" stroke-linecap="round" stroke-linejoin="round"/><path d="m420.42 92.11a1.85 1.85 0 0 0 -2.29 0l-4 3.13-9.31-9.12a2.69 2.69 0 0 0 -3.77 0l-11 11v5h38.16v-3.72z" fill="#8cc44a"/><circle cx="420.49" cy="82.29" fill="#fff" r="3.7"/><circle cx="420.49" cy="82.29" fill="#f2692c" opacity=".6" r="3.07"/><path d="m414.17 95.24 6.87 6.8h2.13l-8.46-7.23" fill="#462e3b" opacity=".3"/><path d="m254.06 158.62c5-6.34 12.15-5.21 17.78-3.89s11.16 3.12 16.61 4.74l.61.18v.95l-35-1.29z" fill="#fff"/><path d="m219.07 160.6 35-1.29c.25-2-4.67-2.54-6.6-2.73a43.49 43.49 0 0 0 -10.69.4c-5.82.91-11.61 2.19-17.4 3.3l-.3.06z" fill="#fff"/><circle cx="254.06" cy="159.65" fill="none" r="2.96" stroke="#462e3b" stroke-miterlimit="10" stroke-width=".53"/><circle cx="254.06" cy="159.16" fill="none" r="3.45" stroke="#462e3b" stroke-miterlimit="10" stroke-width=".62"/><path d="m289.62 161.93h-35.56v-2.62l35.56 1.31z" fill="#462e3b"/><path d="m289.62 161.93h-35.56v-2.62l35.56 1.31z" fill="#fff" opacity=".2"/><path d="m218.51 160.62 35.55-1.31v2.62h-35.55z" fill="#462e3b"/><path d="m231.28 147.92-57.08 2.08a2.37 2.37 0 0 1 -2.47-2.39v-44.61a2.5 2.5 0 0 1 2.47-2.5l57.08-.25a2.31 2.31 0 0 1 2.28 2.37v42.81a2.44 2.44 0 0 1 -2.28 2.49z" fill="#606060"/><path d="m232.29 148.37-57.08 2.1a2.37 2.37 0 0 1 -2.47-2.39v-44.61a2.49 2.49 0 0 1 2.47-2.49l57.08-.26a2.31 2.31 0 0 1 2.28 2.37v42.82a2.44 2.44 0 0 1 -2.28 2.46z" fill="#d8d8d8"/><path d="m210.7 139.38-11.67-.06-2.33 10.36 15.83-.49z" fill="#606060" opacity=".3"/><path d="m210 125a5.89 5.89 0 0 1 -5.66 5.93 5.6 5.6 0 0 1 -5.7-5.7 5.91 5.91 0 0 1 5.7-5.94 5.62 5.62 0 0 1 5.66 5.71z" fill="#fff" opacity=".8"/><path d="m211.4 139.39-12.12.18a.25.25 0 0 1 -.25-.25v-.55a.25.25 0 0 1 .25-.25l12.12-.18a.25.25 0 0 1 .25.25v.54a.26.26 0 0 1 -.25.26z" fill="#606060"/><path d="m204.06 159.91v2h-11.84a1 1 0 1 1 0-2z" fill="#c0c0c0"/><path d="m198.6 159.91v.6a1.53 1.53 0 0 0 1.26 1.42h4.21v-2z" fill="#606060"/><path d="m217.27 160.5-5.86-20.5c-.3-.83-.52-1-1.44-1.06h-9.28c-.84 0-1.15.21-1.16 1l-.32 20.51a1.55 1.55 0 0 0 1.56 1.45h15.45a1.06 1.06 0 0 0 1.05-1.4zm-9.86-8.5a3.87 3.87 0 0 1 -3.73-3.32 2.82 2.82 0 0 1 2.95-3.22 3.87 3.87 0 0 1 3.7 3.31 2.81 2.81 0 0 1 -2.92 3.23z" fill="#c0c0c0"/><path d="m217.27 160.5-5.86-20.5c-.3-.83-.52-1-1.44-1.06h-9.28c-.84 0-1.15.21-1.16 1l-.32 20.51a1.55 1.55 0 0 0 1.56 1.45h15.45a1.06 1.06 0 0 0 1.05-1.4zm-9.86-8.5a3.87 3.87 0 0 1 -3.73-3.32 2.82 2.82 0 0 1 2.95-3.22 3.87 3.87 0 0 1 3.7 3.31 2.81 2.81 0 0 1 -2.92 3.23z" fill="url(#a)"/><path d="m207.41 152h-.25a2.82 2.82 0 0 0 2.54-3.22 3.91 3.91 0 0 0 -3.47-3.3h.4a3.87 3.87 0 0 1 3.7 3.31 2.81 2.81 0 0 1 -2.92 3.21z" fill="#606060"/><path d="m198.6 159.91v.6a1.53 1.53 0 0 0 1.26 1.42h4.21v-2z" fill="#c0c0c0"/><rect fill="#fff" height="8.21" rx="4.11" width="296.2" x="90.21" y="161.94"/><path d="m386.36 166.69a4 4 0 0 1 -1.14 2.25 4.15 4.15 0 0 1 -2.92 1.21h-288a4.09 4.09 0 0 1 -4-3.46 4.1 4.1 0 0 0 3.23 1.58h289.59a4.12 4.12 0 0 0 2.91-1.2 3 3 0 0 0 .33-.38z" fill="#462e3b" opacity=".6"/><path d="m349.8 171.42h3.13v23.22h-3.13z" fill="#fff"/><path d="m343.91 170.15h14.91a0 0 0 0 1 0 0v2.2a.86.86 0 0 1 -.86.86h-13.2a.86.86 0 0 1 -.86-.86v-2.2a0 0 0 0 1 .01 0z" fill="#fff"/><path d="m372.65 242.63-17.3-63.77 2.54-.69 17.29 63.77a1.31 1.31 0 0 1 -.92 1.61 1.31 1.31 0 0 1 -1.61-.92z" fill="#fff"/><path d="m359.61 175.89h-2.99-2.63v2.63 5.68h2.63v-5.68h2.99z" fill="#462e3b"/><path d="m328.48 243.55a1.31 1.31 0 0 1 -.92-1.61l17.3-63.77 2.53.69-17.3 63.77a1.31 1.31 0 0 1 -1.61.92z" fill="#fff"/><path d="m343.13 175.89h2.99 2.63v2.63 5.68h-2.63v-5.68h-2.99z" fill="#462e3b"/><path d="m372.86 236.32h-42.98l1.32-5.85h40.34z" fill="#fff"/><circle cx="351.37" cy="189.12" fill="#f2692c" opacity=".6" r=".67"/><circle cx="351.37" cy="184.61" fill="#f2692c" opacity=".6" r=".67"/><circle cx="351.37" cy="180.1" fill="#f2692c" opacity=".6" r=".67"/><path d="m123.69 171.42h3.13v23.22h-3.13z" fill="#fff" transform="matrix(-1 0 0 -1 250.51 366.06)"/><path d="m118.66 170.15h13.2a.86.86 0 0 1 .86.86v2.2a0 0 0 0 1 0 0h-14.92a0 0 0 0 1 0 0v-2.21a.86.86 0 0 1 .86-.85z" fill="#fff" transform="matrix(-1 0 0 -1 250.51 343.36)"/><path d="m104 242.63 17.3-63.77-2.54-.69-17.3 63.77a1.32 1.32 0 0 0 .93 1.61 1.31 1.31 0 0 0 1.61-.92z" fill="#fff"/><path d="m117.02 175.89h2.99 2.63v2.63 5.68h-2.63v-5.68h-2.99z" fill="#462e3b"/><path d="m148.15 243.55a1.31 1.31 0 0 0 .92-1.61l-17.3-63.77-2.53.69 17.29 63.77a1.32 1.32 0 0 0 1.62.92z" fill="#fff"/><path d="m133.5 175.89h-3-2.62v2.63 5.68h2.62v-5.68h3z" fill="#462e3b"/><path d="m103.77 236.32h42.98l-1.32-5.85h-40.34z" fill="#fff"/><circle cx="125.26" cy="189.12" fill="#f2692c" opacity=".6" r=".67"/><circle cx="125.26" cy="184.61" fill="#f2692c" opacity=".6" r=".67"/><circle cx="125.26" cy="180.1" fill="#f2692c" opacity=".6" r=".67"/><path d="m247.26 161.94h12.52v2.45h-12.52z" fill="#fff"/><path d="m311.1 183.42 6.88 55.48-6.79-4.35h-30.02l2.43 4.35 2.05-55.48" fill="none" stroke="#462e3b" stroke-linecap="round" stroke-linejoin="round" stroke-width="1.92"/><rect fill="#f2692c" height="5.02" rx="2.47" width="46.4" x="273.13" y="179.37"/><path d="m316.36 184.4h-35.86c-1.77 0-3-1.8-2.76-4a79.91 79.91 0 0 0 2.85-25.6c.25-2.21 1.89-4 3.66-4h35.86c1.77 0 3 1.8 2.76 4 .09 10.08-.66 18.92-2.85 25.6-.76 2.78-1.88 4-3.66 4z" fill="#f2692c"/><path d="m282 154.79a80.22 80.22 0 0 1 -2.86 25.6c-.24 2.21 1 4 2.77 4h-1.41c-1.77 0-3-1.79-2.76-4a80.22 80.22 0 0 0 2.85-25.6c.25-2.22 1.88-4 3.66-4h1.44c-1.77-.01-3.41 1.78-3.69 4z" fill="#fff" opacity=".2"/><path d="m282 184.4h33.68a0 0 0 0 1 0 0v1.14a.77.77 0 0 1 -.77.77h-32.1a.77.77 0 0 1 -.77-.77v-1.14a0 0 0 0 1 0 0z" fill="#462e3b"/><path d="m342.03 156h35.15v5.93h-35.15z" fill="#f2692c"/><path d="m370.4 156.51h3.45v4.91h-3.45z" fill="#462e3b"/><path d="m346.56 151.87h35.15v4.13h-35.15z" fill="#462e3b"/><path d="m344.02 146.04h29.48v5.83h-29.48z" fill="#fff"/><path d="m344.02 146.04h29.48v5.83h-29.48z" fill="#f2692c" opacity=".2"/><path d="m346.11 146.91h4.09v4.09h-4.09z" fill="#f2692c"/><path d="m349.8 152.68h16.81v2.56h-16.81z" fill="#fff" opacity=".2"/><path d="m368.66 146.04h2.43v5.83h-2.43z" fill="#f2692c"/><circle cx="365.72" cy="148.96" fill="#f2692c" r=".87"/><path d="m19.68 104.77v-14.83h4.11c3.37 0 4.76 2.71 4.76 5.3s-1.56 5.4-5.16 5.4h-1v4.13zm3.79-6.77c1.57 0 2.35-1.27 2.35-2.71s-.8-2.71-2.37-2.71h-1v5.42z" fill="#fff"/><path d="m37 104.77-1.85-4.58a4.43 4.43 0 0 1 -.63 0h-1v4.55h-2.7v-14.8h4.11c3.37 0 4.77 2.5 4.77 5.09a5.19 5.19 0 0 1 -2 4.25l2.22 5.49zm-2.4-7.2a2.5 2.5 0 0 0 0-5h-1v5z" fill="#fff"/><path d="m41.84 97.36c0-4.07 1.23-7.63 5.1-7.63s5.11 3.56 5.11 7.63-1.23 7.64-5.11 7.64-5.1-3.58-5.1-7.64zm7.45 0c0-3.1-.65-5-2.35-5s-2.35 1.88-2.35 5 .68 5 2.35 5 2.35-1.91 2.35-5z" fill="#fff"/><g fill="#462e3b"><path d="m20.78 39.76a3 3 0 0 0 2.8 2.24c1.31 0 2.32-.61 2.32-2 0-2.87-7.28-2.85-7.28-8.21a4.69 4.69 0 0 1 4.86-4.79 5.41 5.41 0 0 1 5.37 3.81l-2.85 1.74c-.43-1.46-1.18-2.42-2.52-2.42a1.48 1.48 0 0 0 -1.59 1.56c0 3.13 7.29 2.5 7.29 8.32 0 3.13-2.32 5.12-5.6 5.12a5.79 5.79 0 0 1 -5.58-3.48z"/><path d="m32.1 27.23h3.28v17.64h-3.28z"/><path d="m50 44.88v-10.88c0-.5 0-1.21 0-1.21s-.31.61-.56 1l-3 5.09h-.14l-3-5-.6-1.11s0 .73 0 1.26v10.85h-3.28v-17.65h3.58l2.72 4.77c.22.41.58 1.11.58 1.11h.05s.38-.7.6-1.13l2.65-4.72h3.63v17.62z"/><path d="m57.26 44.88v-17.65h4.89c4 0 5.68 3.23 5.68 6.3s-1.83 6.47-6.16 6.47h-1.13v4.92zm4.52-8.07c1.86 0 2.79-1.51 2.79-3.22s-.95-3.23-2.82-3.23h-1.21v6.45z"/><path d="m70.53 44.88v-17.65h3.27v14.5h5.14v3.15z"/><path d="m87.31 44.88h-3.31v-5l-4.25-12.65h3.68l1.77 6.33c.25.93.45 2.22.45 2.22a20.08 20.08 0 0 1 .45-2.22l1.74-6.33h3.76l-4.29 12.83z"/><path d="m101.64 39.76a3 3 0 0 0 2.79 2.24c1.31 0 2.32-.61 2.32-2 0-2.87-7.28-2.85-7.28-8.21a4.69 4.69 0 0 1 4.86-4.79 5.4 5.4 0 0 1 5.37 3.81l-2.85 1.76c-.43-1.46-1.18-2.42-2.52-2.42a1.48 1.48 0 0 0 -1.59 1.56c0 3.13 7.29 2.5 7.29 8.32 0 3.13-2.32 5.12-5.6 5.12a5.79 5.79 0 0 1 -5.59-3.48z"/><path d="m123.39 41.65a5.32 5.32 0 0 1 -5.24 3.48c-4.87 0-6.2-4.49-6.2-9.07s1.33-9.08 6.2-9.08a5.41 5.41 0 0 1 5.37 3.81l-2.85 1.76c-.43-1.46-1.18-2.42-2.52-2.42-2.24 0-2.92 2.75-2.92 5.93s.68 5.92 2.92 5.92c1.26 0 2-.88 2.44-2.22z"/><path d="m133.88 44.88v-6.63h-4.54v6.63h-3.27v-17.65h3.27v7.87h4.54v-7.87h3.28v17.65z"/><path d="m141.19 44.88v-17.65h9.38v3.16h-6.1v4.51h5.14v3.15h-5.14v3.68h6.1v3.15z"/><path d="m154.38 44.88v-17.65h4.56c4.86 0 6.45 4.24 6.45 8.83s-1.59 8.82-6.45 8.82zm4.56-3.15c2.24 0 3.18-2.5 3.18-5.67s-.94-5.68-3.18-5.68h-1.29v11.35z"/><path d="m176.13 27.23h3.28v11.77c0 4.26-2.29 6.13-5.37 6.13s-5.47-1.87-5.47-6.15v-11.75h3.28v11.93c0 1.73.63 2.82 2.14 2.82s2.14-1.14 2.14-2.85z"/><path d="m183.45 44.88v-17.65h3.27v14.5h5.14v3.15z"/><path d="m194.39 44.88v-17.65h9.37v3.16h-6.1v4.51h5.15v3.15h-5.15v3.68h6.1v3.15z"/><path d="m26.57 69.37-.27-2.09h-3.45l-.21 2.09h-4.64l4-18.71h5.24l4 18.71zm-1.64-11.6c-.16-1.07-.29-2.6-.29-2.6h-.05s-.16 1.53-.32 2.6l-.75 5.61h2.16z"/><path d="m35.33 69.37v-18.71h5.56c4.28 0 6 3.68 6 6.65 0 3.58-2 6.85-6.23 6.85h-.93v5.21zm5.27-9.2c1.39 0 1.92-1.36 1.92-2.78s-.56-2.78-2-2.78h-.8v5.56z"/><path d="m51.21 69.37v-18.71h5.56c4.28 0 6 3.68 6 6.65 0 3.58-2 6.85-6.23 6.85h-.93v5.21zm5.26-9.2c1.39 0 1.93-1.36 1.93-2.78s-.56-2.78-1.95-2.78h-.8v5.56z"/><path d="m66.28 60c0-5 1.15-9.73 6.34-9.73s6.38 4.73 6.38 9.73-1.12 9.73-6.33 9.73-6.39-4.73-6.39-9.73m8.24 0c0-3.42-.24-5.45-1.9-5.45s-1.9 2-1.9 5.45.3 5.45 1.9 5.45 1.9-2 1.9-5.45"/><path d="m83.5 50.66h4.44v18.71h-4.44z"/><path d="m101.81 69.37-3.21-7.17a30.6 30.6 0 0 1 -1.15-3.07s0 1.79 0 3.31v6.93h-4.17v-18.71h4.54l2.92 6.41c.61 1.34 1.28 3.21 1.28 3.21s0-1.93 0-3.5v-6.12h4.2v18.71z"/><path d="m113.52 69.37v-14.44h-2.76v-4.27h9.97v4.27h-2.75v14.44z"/><path d="m135.94 69.37v-9.52c0-1.17.08-2.24.08-2.24h-.02a14.18 14.18 0 0 1 -1.12 1.79l-2.09 2.86h-.11l-2.08-2.86a12.56 12.56 0 0 1 -1.1-1.79h-.05s0 1.09 0 2.24v9.52h-4.17v-18.71h4.43l1.66 2.34c.8 1.15 1.31 2.06 1.31 2.06s.56-.91 1.34-2.06l1.63-2.37h4.41v18.74z"/><path d="m145.46 69.37v-18.71h10.39v4.06h-5.96v3.58h4.98v3.9h-4.98v3.11h5.96v4.06z"/><path d="m169.46 69.37-3.21-7.17c-.61-1.36-1.15-3.07-1.15-3.07s0 1.79 0 3.31v6.93h-4.17v-18.71h4.55l2.91 6.41c.61 1.34 1.28 3.21 1.28 3.21h.06s-.06-1.93-.06-3.5v-6.12h4.2v18.71z"/><path d="m181.17 69.37v-14.44h-2.76v-4.27h9.97v4.27h-2.75v14.44z"/><path d="m195.65 63.62a2.85 2.85 0 0 0 2.54 1.93 1.23 1.23 0 0 0 1.39-1.21c0-2.56-7.27-3.15-7.27-8.63a5.38 5.38 0 0 1 5.69-5.43 5.76 5.76 0 0 1 5.64 4l-3.53 2.08a2.53 2.53 0 0 0 -2.11-2.15 1.21 1.21 0 0 0 -1.28 1.23c0 2.65 7.35 2.73 7.35 8.69 0 3.5-2.57 5.61-6 5.61a6.55 6.55 0 0 1 -6.09-3.87z"/><path d="m18 16.02h186.1v5.25h-186.1z"/><path d="m18 75.24h186.1v5.25h-186.1z"/></g></svg>